<?xml version="1.0" encoding="utf-8" standalone="no"?>
<!DOCTYPE svg PUBLIC "-//W3C//DTD SVG 1.1//EN"
  "http://www.w3.org/Graphics/SVG/1.1/DTD/svg11.dtd">
<!-- Created with matplotlib (https://matplotlib.org/) -->
<svg height="432pt" version="1.1" viewBox="0 0 792 432" width="792pt" xmlns="http://www.w3.org/2000/svg" xmlns:xlink="http://www.w3.org/1999/xlink">
 <metadata>
  <rdf:RDF xmlns:cc="http://creativecommons.org/ns#" xmlns:dc="http://purl.org/dc/elements/1.1/" xmlns:rdf="http://www.w3.org/1999/02/22-rdf-syntax-ns#">
   <cc:Work>
    <dc:type rdf:resource="http://purl.org/dc/dcmitype/StillImage"/>
    <dc:date>2021-08-19T08:05:15.733839</dc:date>
    <dc:format>image/svg+xml</dc:format>
    <dc:creator>
     <cc:Agent>
      <dc:title>Matplotlib v3.3.1, https://matplotlib.org/</dc:title>
     </cc:Agent>
    </dc:creator>
   </cc:Work>
  </rdf:RDF>
 </metadata>
 <defs>
  <style type="text/css">*{stroke-linecap:butt;stroke-linejoin:round;}</style>
 </defs>
 <g id="figure_1">
  <g id="patch_1">
   <path d="M 0 432 
L 792 432 
L 792 0 
L 0 0 
z
" style="fill:#ffffff;"/>
  </g>
  <g id="axes_1">
   <g id="patch_2">
    <path d="M 99 378 
L 712.8 378 
L 712.8 51.84 
L 99 51.84 
z
" style="fill:#ffffff;"/>
   </g>
   <g id="matplotlib.axis_1">
    <g id="xtick_1">
     <g id="text_1">
      <!-- 2000-2006 -->
      <g style="fill:#262626;" transform="translate(149.425547 395.373594)scale(0.11 -0.11)">
       <defs>
        <path d="M 50.34375 8.453125 
L 50.34375 0 
L 3.03125 0 
Q 2.9375 3.171875 4.046875 6.109375 
Q 5.859375 10.9375 9.828125 15.625 
Q 13.8125 20.3125 21.34375 26.46875 
Q 33.015625 36.03125 37.109375 41.625 
Q 41.21875 47.21875 41.21875 52.203125 
Q 41.21875 57.421875 37.46875 61 
Q 33.734375 64.59375 27.734375 64.59375 
Q 21.390625 64.59375 17.578125 60.78125 
Q 13.765625 56.984375 13.71875 50.25 
L 4.6875 51.171875 
Q 5.609375 61.28125 11.65625 66.578125 
Q 17.71875 71.875 27.9375 71.875 
Q 38.234375 71.875 44.234375 66.15625 
Q 50.25 60.453125 50.25 52 
Q 50.25 47.703125 48.484375 43.546875 
Q 46.734375 39.40625 42.65625 34.8125 
Q 38.578125 30.21875 29.109375 22.21875 
Q 21.1875 15.578125 18.9375 13.203125 
Q 16.703125 10.84375 15.234375 8.453125 
z
" id="ArialMT-50"/>
        <path d="M 4.15625 35.296875 
Q 4.15625 48 6.765625 55.734375 
Q 9.375 63.484375 14.515625 67.671875 
Q 19.671875 71.875 27.484375 71.875 
Q 33.25 71.875 37.59375 69.546875 
Q 41.9375 67.234375 44.765625 62.859375 
Q 47.609375 58.5 49.21875 52.21875 
Q 50.828125 45.953125 50.828125 35.296875 
Q 50.828125 22.703125 48.234375 14.96875 
Q 45.65625 7.234375 40.5 3 
Q 35.359375 -1.21875 27.484375 -1.21875 
Q 17.140625 -1.21875 11.234375 6.203125 
Q 4.15625 15.140625 4.15625 35.296875 
z
M 13.1875 35.296875 
Q 13.1875 17.671875 17.3125 11.828125 
Q 21.4375 6 27.484375 6 
Q 33.546875 6 37.671875 11.859375 
Q 41.796875 17.71875 41.796875 35.296875 
Q 41.796875 52.984375 37.671875 58.78125 
Q 33.546875 64.59375 27.390625 64.59375 
Q 21.34375 64.59375 17.71875 59.46875 
Q 13.1875 52.9375 13.1875 35.296875 
z
" id="ArialMT-48"/>
        <path d="M 3.171875 21.484375 
L 3.171875 30.328125 
L 30.171875 30.328125 
L 30.171875 21.484375 
z
" id="ArialMT-45"/>
        <path d="M 49.75 54.046875 
L 41.015625 53.375 
Q 39.84375 58.546875 37.703125 60.890625 
Q 34.125 64.65625 28.90625 64.65625 
Q 24.703125 64.65625 21.53125 62.3125 
Q 17.390625 59.28125 14.984375 53.46875 
Q 12.59375 47.65625 12.5 36.921875 
Q 15.671875 41.75 20.265625 44.09375 
Q 24.859375 46.4375 29.890625 46.4375 
Q 38.671875 46.4375 44.84375 39.96875 
Q 51.03125 33.5 51.03125 23.25 
Q 51.03125 16.5 48.125 10.71875 
Q 45.21875 4.9375 40.140625 1.859375 
Q 35.0625 -1.21875 28.609375 -1.21875 
Q 17.625 -1.21875 10.6875 6.859375 
Q 3.765625 14.9375 3.765625 33.5 
Q 3.765625 54.25 11.421875 63.671875 
Q 18.109375 71.875 29.4375 71.875 
Q 37.890625 71.875 43.28125 67.140625 
Q 48.6875 62.40625 49.75 54.046875 
z
M 13.875 23.1875 
Q 13.875 18.65625 15.796875 14.5 
Q 17.71875 10.359375 21.1875 8.171875 
Q 24.65625 6 28.46875 6 
Q 34.03125 6 38.03125 10.484375 
Q 42.046875 14.984375 42.046875 22.703125 
Q 42.046875 30.125 38.078125 34.390625 
Q 34.125 38.671875 28.125 38.671875 
Q 22.171875 38.671875 18.015625 34.390625 
Q 13.875 30.125 13.875 23.1875 
z
" id="ArialMT-54"/>
       </defs>
       <use xlink:href="#ArialMT-50"/>
       <use x="55.615234" xlink:href="#ArialMT-48"/>
       <use x="111.230469" xlink:href="#ArialMT-48"/>
       <use x="166.845703" xlink:href="#ArialMT-48"/>
       <use x="222.460938" xlink:href="#ArialMT-45"/>
       <use x="255.761719" xlink:href="#ArialMT-50"/>
       <use x="311.376953" xlink:href="#ArialMT-48"/>
       <use x="366.992188" xlink:href="#ArialMT-48"/>
       <use x="422.607422" xlink:href="#ArialMT-54"/>
      </g>
     </g>
    </g>
    <g id="xtick_2">
     <g id="text_2">
      <!-- 2007-2009 -->
      <g style="fill:#262626;" transform="translate(302.875547 395.373594)scale(0.11 -0.11)">
       <defs>
        <path d="M 4.734375 62.203125 
L 4.734375 70.65625 
L 51.078125 70.65625 
L 51.078125 63.8125 
Q 44.234375 56.546875 37.515625 44.484375 
Q 30.8125 32.421875 27.15625 19.671875 
Q 24.515625 10.6875 23.78125 0 
L 14.75 0 
Q 14.890625 8.453125 18.0625 20.40625 
Q 21.234375 32.375 27.171875 43.484375 
Q 33.109375 54.59375 39.796875 62.203125 
z
" id="ArialMT-55"/>
        <path d="M 5.46875 16.546875 
L 13.921875 17.328125 
Q 14.984375 11.375 18.015625 8.6875 
Q 21.046875 6 25.78125 6 
Q 29.828125 6 32.875 7.859375 
Q 35.9375 9.71875 37.890625 12.8125 
Q 39.84375 15.921875 41.15625 21.1875 
Q 42.484375 26.46875 42.484375 31.9375 
Q 42.484375 32.515625 42.4375 33.6875 
Q 39.796875 29.5 35.234375 26.875 
Q 30.671875 24.265625 25.34375 24.265625 
Q 16.453125 24.265625 10.296875 30.703125 
Q 4.15625 37.15625 4.15625 47.703125 
Q 4.15625 58.59375 10.578125 65.234375 
Q 17 71.875 26.65625 71.875 
Q 33.640625 71.875 39.421875 68.109375 
Q 45.21875 64.359375 48.21875 57.390625 
Q 51.21875 50.4375 51.21875 37.25 
Q 51.21875 23.53125 48.234375 15.40625 
Q 45.265625 7.28125 39.375 3.03125 
Q 33.5 -1.21875 25.59375 -1.21875 
Q 17.1875 -1.21875 11.859375 3.4375 
Q 6.546875 8.109375 5.46875 16.546875 
z
M 41.453125 48.140625 
Q 41.453125 55.71875 37.421875 60.15625 
Q 33.40625 64.59375 27.734375 64.59375 
Q 21.875 64.59375 17.53125 59.8125 
Q 13.1875 55.03125 13.1875 47.40625 
Q 13.1875 40.578125 17.3125 36.296875 
Q 21.4375 32.03125 27.484375 32.03125 
Q 33.59375 32.03125 37.515625 36.296875 
Q 41.453125 40.578125 41.453125 48.140625 
z
" id="ArialMT-57"/>
       </defs>
       <use xlink:href="#ArialMT-50"/>
       <use x="55.615234" xlink:href="#ArialMT-48"/>
       <use x="111.230469" xlink:href="#ArialMT-48"/>
       <use x="166.845703" xlink:href="#ArialMT-55"/>
       <use x="222.460938" xlink:href="#ArialMT-45"/>
       <use x="255.761719" xlink:href="#ArialMT-50"/>
       <use x="311.376953" xlink:href="#ArialMT-48"/>
       <use x="366.992188" xlink:href="#ArialMT-48"/>
       <use x="422.607422" xlink:href="#ArialMT-57"/>
      </g>
     </g>
    </g>
    <g id="xtick_3">
     <g id="text_3">
      <!-- 2010-2013 -->
      <g style="fill:#262626;" transform="translate(456.325547 395.373594)scale(0.11 -0.11)">
       <defs>
        <path d="M 37.25 0 
L 28.46875 0 
L 28.46875 56 
Q 25.296875 52.984375 20.140625 49.953125 
Q 14.984375 46.921875 10.890625 45.40625 
L 10.890625 53.90625 
Q 18.265625 57.375 23.78125 62.296875 
Q 29.296875 67.234375 31.59375 71.875 
L 37.25 71.875 
z
" id="ArialMT-49"/>
        <path d="M 4.203125 18.890625 
L 12.984375 20.0625 
Q 14.5 12.59375 18.140625 9.296875 
Q 21.78125 6 27 6 
Q 33.203125 6 37.46875 10.296875 
Q 41.75 14.59375 41.75 20.953125 
Q 41.75 27 37.796875 30.921875 
Q 33.84375 34.859375 27.734375 34.859375 
Q 25.25 34.859375 21.53125 33.890625 
L 22.515625 41.609375 
Q 23.390625 41.5 23.921875 41.5 
Q 29.546875 41.5 34.03125 44.421875 
Q 38.53125 47.359375 38.53125 53.46875 
Q 38.53125 58.296875 35.25 61.46875 
Q 31.984375 64.65625 26.8125 64.65625 
Q 21.6875 64.65625 18.265625 61.421875 
Q 14.84375 58.203125 13.875 51.765625 
L 5.078125 53.328125 
Q 6.6875 62.15625 12.390625 67.015625 
Q 18.109375 71.875 26.609375 71.875 
Q 32.46875 71.875 37.390625 69.359375 
Q 42.328125 66.84375 44.9375 62.5 
Q 47.5625 58.15625 47.5625 53.265625 
Q 47.5625 48.640625 45.0625 44.828125 
Q 42.578125 41.015625 37.703125 38.765625 
Q 44.046875 37.3125 47.5625 32.6875 
Q 51.078125 28.078125 51.078125 21.140625 
Q 51.078125 11.765625 44.234375 5.25 
Q 37.40625 -1.265625 26.953125 -1.265625 
Q 17.53125 -1.265625 11.296875 4.34375 
Q 5.078125 9.96875 4.203125 18.890625 
z
" id="ArialMT-51"/>
       </defs>
       <use xlink:href="#ArialMT-50"/>
       <use x="55.615234" xlink:href="#ArialMT-48"/>
       <use x="111.230469" xlink:href="#ArialMT-49"/>
       <use x="166.845703" xlink:href="#ArialMT-48"/>
       <use x="222.460938" xlink:href="#ArialMT-45"/>
       <use x="255.761719" xlink:href="#ArialMT-50"/>
       <use x="311.376953" xlink:href="#ArialMT-48"/>
       <use x="366.992188" xlink:href="#ArialMT-49"/>
       <use x="422.607422" xlink:href="#ArialMT-51"/>
      </g>
     </g>
    </g>
    <g id="xtick_4">
     <g id="text_4">
      <!-- 2014-2018 -->
      <g style="fill:#262626;" transform="translate(609.775547 395.373594)scale(0.11 -0.11)">
       <defs>
        <path d="M 32.328125 0 
L 32.328125 17.140625 
L 1.265625 17.140625 
L 1.265625 25.203125 
L 33.9375 71.578125 
L 41.109375 71.578125 
L 41.109375 25.203125 
L 50.78125 25.203125 
L 50.78125 17.140625 
L 41.109375 17.140625 
L 41.109375 0 
z
M 32.328125 25.203125 
L 32.328125 57.46875 
L 9.90625 25.203125 
z
" id="ArialMT-52"/>
        <path d="M 17.671875 38.8125 
Q 12.203125 40.828125 9.5625 44.53125 
Q 6.9375 48.25 6.9375 53.421875 
Q 6.9375 61.234375 12.546875 66.546875 
Q 18.171875 71.875 27.484375 71.875 
Q 36.859375 71.875 42.578125 66.421875 
Q 48.296875 60.984375 48.296875 53.171875 
Q 48.296875 48.1875 45.671875 44.5 
Q 43.0625 40.828125 37.75 38.8125 
Q 44.34375 36.671875 47.78125 31.875 
Q 51.21875 27.09375 51.21875 20.453125 
Q 51.21875 11.28125 44.71875 5.03125 
Q 38.234375 -1.21875 27.640625 -1.21875 
Q 17.046875 -1.21875 10.546875 5.046875 
Q 4.046875 11.328125 4.046875 20.703125 
Q 4.046875 27.6875 7.59375 32.390625 
Q 11.140625 37.109375 17.671875 38.8125 
z
M 15.921875 53.71875 
Q 15.921875 48.640625 19.1875 45.40625 
Q 22.46875 42.1875 27.6875 42.1875 
Q 32.765625 42.1875 36.015625 45.375 
Q 39.265625 48.578125 39.265625 53.21875 
Q 39.265625 58.0625 35.90625 61.359375 
Q 32.5625 64.65625 27.59375 64.65625 
Q 22.5625 64.65625 19.234375 61.421875 
Q 15.921875 58.203125 15.921875 53.71875 
z
M 13.09375 20.65625 
Q 13.09375 16.890625 14.875 13.375 
Q 16.65625 9.859375 20.171875 7.921875 
Q 23.6875 6 27.734375 6 
Q 34.03125 6 38.125 10.046875 
Q 42.234375 14.109375 42.234375 20.359375 
Q 42.234375 26.703125 38.015625 30.859375 
Q 33.796875 35.015625 27.4375 35.015625 
Q 21.234375 35.015625 17.15625 30.90625 
Q 13.09375 26.8125 13.09375 20.65625 
z
" id="ArialMT-56"/>
       </defs>
       <use xlink:href="#ArialMT-50"/>
       <use x="55.615234" xlink:href="#ArialMT-48"/>
       <use x="111.230469" xlink:href="#ArialMT-49"/>
       <use x="166.845703" xlink:href="#ArialMT-52"/>
       <use x="222.460938" xlink:href="#ArialMT-45"/>
       <use x="255.761719" xlink:href="#ArialMT-50"/>
       <use x="311.376953" xlink:href="#ArialMT-48"/>
       <use x="366.992188" xlink:href="#ArialMT-49"/>
       <use x="422.607422" xlink:href="#ArialMT-56"/>
      </g>
     </g>
    </g>
    <g id="text_5">
     <!-- year -->
     <g style="fill:#262626;" transform="translate(394.229063 410.008594)scale(0.12 -0.12)">
      <defs>
       <path d="M 6.203125 -19.96875 
L 5.21875 -11.71875 
Q 8.109375 -12.5 10.25 -12.5 
Q 13.1875 -12.5 14.9375 -11.515625 
Q 16.703125 -10.546875 17.828125 -8.796875 
Q 18.65625 -7.46875 20.515625 -2.25 
Q 20.75 -1.515625 21.296875 -0.09375 
L 1.609375 51.859375 
L 11.078125 51.859375 
L 21.875 21.828125 
Q 23.96875 16.109375 25.640625 9.8125 
Q 27.15625 15.875 29.25 21.625 
L 40.328125 51.859375 
L 49.125 51.859375 
L 29.390625 -0.875 
Q 26.21875 -9.421875 24.46875 -12.640625 
Q 22.125 -17 19.09375 -19.015625 
Q 16.0625 -21.046875 11.859375 -21.046875 
Q 9.328125 -21.046875 6.203125 -19.96875 
z
" id="ArialMT-121"/>
       <path d="M 42.09375 16.703125 
L 51.171875 15.578125 
Q 49.03125 7.625 43.21875 3.21875 
Q 37.40625 -1.171875 28.375 -1.171875 
Q 17 -1.171875 10.328125 5.828125 
Q 3.65625 12.84375 3.65625 25.484375 
Q 3.65625 38.578125 10.390625 45.796875 
Q 17.140625 53.03125 27.875 53.03125 
Q 38.28125 53.03125 44.875 45.953125 
Q 51.46875 38.875 51.46875 26.03125 
Q 51.46875 25.25 51.421875 23.6875 
L 12.75 23.6875 
Q 13.234375 15.140625 17.578125 10.59375 
Q 21.921875 6.0625 28.421875 6.0625 
Q 33.25 6.0625 36.671875 8.59375 
Q 40.09375 11.140625 42.09375 16.703125 
z
M 13.234375 30.90625 
L 42.1875 30.90625 
Q 41.609375 37.453125 38.875 40.71875 
Q 34.671875 45.796875 27.984375 45.796875 
Q 21.921875 45.796875 17.796875 41.75 
Q 13.671875 37.703125 13.234375 30.90625 
z
" id="ArialMT-101"/>
       <path d="M 40.4375 6.390625 
Q 35.546875 2.25 31.03125 0.53125 
Q 26.515625 -1.171875 21.34375 -1.171875 
Q 12.796875 -1.171875 8.203125 3 
Q 3.609375 7.171875 3.609375 13.671875 
Q 3.609375 17.484375 5.34375 20.625 
Q 7.078125 23.78125 9.890625 25.6875 
Q 12.703125 27.59375 16.21875 28.5625 
Q 18.796875 29.25 24.03125 29.890625 
Q 34.671875 31.15625 39.703125 32.90625 
Q 39.75 34.71875 39.75 35.203125 
Q 39.75 40.578125 37.25 42.78125 
Q 33.890625 45.75 27.25 45.75 
Q 21.046875 45.75 18.09375 43.578125 
Q 15.140625 41.40625 13.71875 35.890625 
L 5.125 37.0625 
Q 6.296875 42.578125 8.984375 45.96875 
Q 11.671875 49.359375 16.75 51.1875 
Q 21.828125 53.03125 28.515625 53.03125 
Q 35.15625 53.03125 39.296875 51.46875 
Q 43.453125 49.90625 45.40625 47.53125 
Q 47.359375 45.171875 48.140625 41.546875 
Q 48.578125 39.3125 48.578125 33.453125 
L 48.578125 21.734375 
Q 48.578125 9.46875 49.140625 6.21875 
Q 49.703125 2.984375 51.375 0 
L 42.1875 0 
Q 40.828125 2.734375 40.4375 6.390625 
z
M 39.703125 26.03125 
Q 34.90625 24.078125 25.34375 22.703125 
Q 19.921875 21.921875 17.671875 20.9375 
Q 15.4375 19.96875 14.203125 18.09375 
Q 12.984375 16.21875 12.984375 13.921875 
Q 12.984375 10.40625 15.640625 8.0625 
Q 18.3125 5.71875 23.4375 5.71875 
Q 28.515625 5.71875 32.46875 7.9375 
Q 36.421875 10.15625 38.28125 14.015625 
Q 39.703125 17 39.703125 22.796875 
z
" id="ArialMT-97"/>
       <path d="M 6.5 0 
L 6.5 51.859375 
L 14.40625 51.859375 
L 14.40625 44 
Q 17.4375 49.515625 20 51.265625 
Q 22.5625 53.03125 25.640625 53.03125 
Q 30.078125 53.03125 34.671875 50.203125 
L 31.640625 42.046875 
Q 28.421875 43.953125 25.203125 43.953125 
Q 22.3125 43.953125 20.015625 42.21875 
Q 17.71875 40.484375 16.75 37.40625 
Q 15.28125 32.71875 15.28125 27.15625 
L 15.28125 0 
z
" id="ArialMT-114"/>
      </defs>
      <use xlink:href="#ArialMT-121"/>
      <use x="50" xlink:href="#ArialMT-101"/>
      <use x="105.615234" xlink:href="#ArialMT-97"/>
      <use x="161.230469" xlink:href="#ArialMT-114"/>
     </g>
    </g>
   </g>
   <g id="matplotlib.axis_2">
    <g id="ytick_1">
     <g id="line2d_1">
      <path clip-path="url(#pfbc96f6701)" d="M 99 351.860703 
L 712.8 351.860703 
" style="fill:none;stroke:#cccccc;stroke-linecap:round;"/>
     </g>
     <g id="text_6">
      <!-- 0.0 -->
      <g style="fill:#262626;" transform="translate(74.21 355.7975)scale(0.11 -0.11)">
       <defs>
        <path d="M 9.078125 0 
L 9.078125 10.015625 
L 19.09375 10.015625 
L 19.09375 0 
z
" id="ArialMT-46"/>
       </defs>
       <use xlink:href="#ArialMT-48"/>
       <use x="55.615234" xlink:href="#ArialMT-46"/>
       <use x="83.398438" xlink:href="#ArialMT-48"/>
      </g>
     </g>
    </g>
    <g id="ytick_2">
     <g id="line2d_2">
      <path clip-path="url(#pfbc96f6701)" d="M 99 281.432326 
L 712.8 281.432326 
" style="fill:none;stroke:#cccccc;stroke-linecap:round;"/>
     </g>
     <g id="text_7">
      <!-- 0.2 -->
      <g style="fill:#262626;" transform="translate(74.21 285.369123)scale(0.11 -0.11)">
       <use xlink:href="#ArialMT-48"/>
       <use x="55.615234" xlink:href="#ArialMT-46"/>
       <use x="83.398438" xlink:href="#ArialMT-50"/>
      </g>
     </g>
    </g>
    <g id="ytick_3">
     <g id="line2d_3">
      <path clip-path="url(#pfbc96f6701)" d="M 99 211.003949 
L 712.8 211.003949 
" style="fill:none;stroke:#cccccc;stroke-linecap:round;"/>
     </g>
     <g id="text_8">
      <!-- 0.4 -->
      <g style="fill:#262626;" transform="translate(74.21 214.940746)scale(0.11 -0.11)">
       <use xlink:href="#ArialMT-48"/>
       <use x="55.615234" xlink:href="#ArialMT-46"/>
       <use x="83.398438" xlink:href="#ArialMT-52"/>
      </g>
     </g>
    </g>
    <g id="ytick_4">
     <g id="line2d_4">
      <path clip-path="url(#pfbc96f6701)" d="M 99 140.575572 
L 712.8 140.575572 
" style="fill:none;stroke:#cccccc;stroke-linecap:round;"/>
     </g>
     <g id="text_9">
      <!-- 0.6 -->
      <g style="fill:#262626;" transform="translate(74.21 144.512368)scale(0.11 -0.11)">
       <use xlink:href="#ArialMT-48"/>
       <use x="55.615234" xlink:href="#ArialMT-46"/>
       <use x="83.398438" xlink:href="#ArialMT-54"/>
      </g>
     </g>
    </g>
    <g id="ytick_5">
     <g id="line2d_5">
      <path clip-path="url(#pfbc96f6701)" d="M 99 70.147194 
L 712.8 70.147194 
" style="fill:none;stroke:#cccccc;stroke-linecap:round;"/>
     </g>
     <g id="text_10">
      <!-- 0.8 -->
      <g style="fill:#262626;" transform="translate(74.21 74.083991)scale(0.11 -0.11)">
       <use xlink:href="#ArialMT-48"/>
       <use x="55.615234" xlink:href="#ArialMT-46"/>
       <use x="83.398438" xlink:href="#ArialMT-56"/>
      </g>
     </g>
    </g>
    <g id="text_11">
     <!-- per_white -->
     <g style="fill:#262626;" transform="translate(67.825 240.93375)rotate(-90)scale(0.12 -0.12)">
      <defs>
       <path d="M 6.59375 -19.875 
L 6.59375 51.859375 
L 14.59375 51.859375 
L 14.59375 45.125 
Q 17.4375 49.078125 21 51.046875 
Q 24.5625 53.03125 29.640625 53.03125 
Q 36.28125 53.03125 41.359375 49.609375 
Q 46.4375 46.1875 49.015625 39.953125 
Q 51.609375 33.734375 51.609375 26.3125 
Q 51.609375 18.359375 48.75 11.984375 
Q 45.90625 5.609375 40.453125 2.21875 
Q 35.015625 -1.171875 29 -1.171875 
Q 24.609375 -1.171875 21.109375 0.6875 
Q 17.625 2.546875 15.375 5.375 
L 15.375 -19.875 
z
M 14.546875 25.640625 
Q 14.546875 15.625 18.59375 10.84375 
Q 22.65625 6.0625 28.421875 6.0625 
Q 34.28125 6.0625 38.453125 11.015625 
Q 42.625 15.96875 42.625 26.375 
Q 42.625 36.28125 38.546875 41.203125 
Q 34.46875 46.140625 28.8125 46.140625 
Q 23.1875 46.140625 18.859375 40.890625 
Q 14.546875 35.640625 14.546875 25.640625 
z
" id="ArialMT-112"/>
       <path d="M -1.515625 -19.875 
L -1.515625 -13.53125 
L 56.734375 -13.53125 
L 56.734375 -19.875 
z
" id="ArialMT-95"/>
       <path d="M 16.15625 0 
L 0.296875 51.859375 
L 9.375 51.859375 
L 17.625 21.921875 
L 20.703125 10.796875 
Q 20.90625 11.625 23.390625 21.484375 
L 31.640625 51.859375 
L 40.671875 51.859375 
L 48.4375 21.78125 
L 51.03125 11.859375 
L 54 21.875 
L 62.890625 51.859375 
L 71.4375 51.859375 
L 55.21875 0 
L 46.09375 0 
L 37.84375 31.0625 
L 35.84375 39.890625 
L 25.34375 0 
z
" id="ArialMT-119"/>
       <path d="M 6.59375 0 
L 6.59375 71.578125 
L 15.375 71.578125 
L 15.375 45.90625 
Q 21.53125 53.03125 30.90625 53.03125 
Q 36.671875 53.03125 40.921875 50.75 
Q 45.171875 48.484375 47 44.484375 
Q 48.828125 40.484375 48.828125 32.859375 
L 48.828125 0 
L 40.046875 0 
L 40.046875 32.859375 
Q 40.046875 39.453125 37.1875 42.453125 
Q 34.328125 45.453125 29.109375 45.453125 
Q 25.203125 45.453125 21.75 43.421875 
Q 18.3125 41.40625 16.84375 37.9375 
Q 15.375 34.46875 15.375 28.375 
L 15.375 0 
z
" id="ArialMT-104"/>
       <path d="M 6.640625 61.46875 
L 6.640625 71.578125 
L 15.4375 71.578125 
L 15.4375 61.46875 
z
M 6.640625 0 
L 6.640625 51.859375 
L 15.4375 51.859375 
L 15.4375 0 
z
" id="ArialMT-105"/>
       <path d="M 25.78125 7.859375 
L 27.046875 0.09375 
Q 23.34375 -0.6875 20.40625 -0.6875 
Q 15.625 -0.6875 12.984375 0.828125 
Q 10.359375 2.34375 9.28125 4.8125 
Q 8.203125 7.28125 8.203125 15.1875 
L 8.203125 45.015625 
L 1.765625 45.015625 
L 1.765625 51.859375 
L 8.203125 51.859375 
L 8.203125 64.703125 
L 16.9375 69.96875 
L 16.9375 51.859375 
L 25.78125 51.859375 
L 25.78125 45.015625 
L 16.9375 45.015625 
L 16.9375 14.703125 
Q 16.9375 10.9375 17.40625 9.859375 
Q 17.875 8.796875 18.921875 8.15625 
Q 19.96875 7.515625 21.921875 7.515625 
Q 23.390625 7.515625 25.78125 7.859375 
z
" id="ArialMT-116"/>
      </defs>
      <use xlink:href="#ArialMT-112"/>
      <use x="55.615234" xlink:href="#ArialMT-101"/>
      <use x="111.230469" xlink:href="#ArialMT-114"/>
      <use x="144.53125" xlink:href="#ArialMT-95"/>
      <use x="200.146484" xlink:href="#ArialMT-119"/>
      <use x="272.363281" xlink:href="#ArialMT-104"/>
      <use x="327.978516" xlink:href="#ArialMT-105"/>
      <use x="350.195312" xlink:href="#ArialMT-116"/>
      <use x="377.978516" xlink:href="#ArialMT-101"/>
     </g>
    </g>
   </g>
   <g id="PolyCollection_1">
    <defs>
     <path d="M 175.725 -73.2949 
L 163.909825 -73.2949 
L 158.996961 -76.19965 
L 153.323753 -79.104399 
L 147.318255 -82.009149 
L 141.569794 -84.913898 
L 136.72973 -87.818648 
L 133.380981 -90.723397 
L 131.914924 -93.628147 
L 132.453687 -96.532896 
L 134.83969 -99.437646 
L 138.690091 -102.342395 
L 143.493085 -105.247145 
L 148.713787 -108.151894 
L 153.881484 -111.056644 
L 158.642514 -113.961393 
L 162.7771 -116.866143 
L 166.188416 -119.770892 
L 168.876104 -122.675642 
L 170.905133 -125.580391 
L 172.377044 -128.485141 
L 173.406692 -131.38989 
L 174.10511 -134.29464 
L 174.568257 -137.199389 
L 174.871315 -140.104138 
L 175.068055 -143.008888 
L 175.194155 -145.913637 
L 175.272614 -148.818387 
L 175.319072 -151.723136 
L 175.345292 -154.627886 
L 175.360126 -157.532635 
L 175.368489 -160.437385 
L 175.369623 -163.342134 
L 175.356105 -166.246884 
L 175.314597 -169.151633 
L 175.228663 -172.056383 
L 175.083274 -174.961132 
L 174.87005 -177.865882 
L 174.591966 -180.770631 
L 174.266022 -183.675381 
L 173.922658 -186.58013 
L 173.601278 -189.48488 
L 173.342423 -192.389629 
L 173.178339 -195.294379 
L 173.124656 -198.199128 
L 173.175993 -201.103878 
L 173.307326 -204.008627 
L 173.481143 -206.913377 
L 173.658297 -209.818126 
L 173.809056 -212.722876 
L 173.920639 -215.627625 
L 173.998801 -218.532375 
L 174.063201 -221.437124 
L 174.138569 -224.341874 
L 174.24509 -227.246623 
L 174.391444 -230.151373 
L 174.572701 -233.056122 
L 174.773178 -235.960872 
L 174.972528 -238.865621 
L 175.152332 -241.770371 
L 175.300799 -244.67512 
L 175.414328 -247.57987 
L 175.496173 -250.484619 
L 175.55347 -253.389369 
L 175.5941 -256.294118 
L 175.624488 -259.198868 
L 175.648731 -262.103617 
L 175.668804 -265.008367 
L 175.685336 -267.913116 
L 175.698421 -270.817866 
L 175.708167 -273.722615 
L 175.714896 -276.627365 
L 175.719088 -279.532114 
L 175.721179 -282.436864 
L 175.7213 -285.341613 
L 175.718975 -288.246363 
L 175.712734 -291.151112 
L 175.699632 -294.055862 
L 175.674708 -296.960611 
L 175.630611 -299.86536 
L 175.557729 -302.77011 
L 175.445279 -305.674859 
L 175.283683 -308.579609 
L 175.068074 -311.484358 
L 174.802146 -314.389108 
L 174.500868 -317.293857 
L 174.19045 -320.198607 
L 173.904647 -323.103356 
L 173.677886 -326.008106 
L 173.537296 -328.912855 
L 173.496464 -331.817605 
L 173.553212 -334.722354 
L 173.691987 -337.627104 
L 173.889467 -340.531853 
L 174.120874 -343.436603 
L 174.364699 -346.341352 
L 174.604751 -349.246102 
L 174.829938 -352.150851 
L 175.032963 -355.055601 
L 175.209132 -357.96035 
L 175.355804 -360.8651 
L 175.725 -360.8651 
L 175.725 -360.8651 
L 175.725 -357.96035 
L 175.725 -355.055601 
L 175.725 -352.150851 
L 175.725 -349.246102 
L 175.725 -346.341352 
L 175.725 -343.436603 
L 175.725 -340.531853 
L 175.725 -337.627104 
L 175.725 -334.722354 
L 175.725 -331.817605 
L 175.725 -328.912855 
L 175.725 -326.008106 
L 175.725 -323.103356 
L 175.725 -320.198607 
L 175.725 -317.293857 
L 175.725 -314.389108 
L 175.725 -311.484358 
L 175.725 -308.579609 
L 175.725 -305.674859 
L 175.725 -302.77011 
L 175.725 -299.86536 
L 175.725 -296.960611 
L 175.725 -294.055862 
L 175.725 -291.151112 
L 175.725 -288.246363 
L 175.725 -285.341613 
L 175.725 -282.436864 
L 175.725 -279.532114 
L 175.725 -276.627365 
L 175.725 -273.722615 
L 175.725 -270.817866 
L 175.725 -267.913116 
L 175.725 -265.008367 
L 175.725 -262.103617 
L 175.725 -259.198868 
L 175.725 -256.294118 
L 175.725 -253.389369 
L 175.725 -250.484619 
L 175.725 -247.57987 
L 175.725 -244.67512 
L 175.725 -241.770371 
L 175.725 -238.865621 
L 175.725 -235.960872 
L 175.725 -233.056122 
L 175.725 -230.151373 
L 175.725 -227.246623 
L 175.725 -224.341874 
L 175.725 -221.437124 
L 175.725 -218.532375 
L 175.725 -215.627625 
L 175.725 -212.722876 
L 175.725 -209.818126 
L 175.725 -206.913377 
L 175.725 -204.008627 
L 175.725 -201.103878 
L 175.725 -198.199128 
L 175.725 -195.294379 
L 175.725 -192.389629 
L 175.725 -189.48488 
L 175.725 -186.58013 
L 175.725 -183.675381 
L 175.725 -180.770631 
L 175.725 -177.865882 
L 175.725 -174.961132 
L 175.725 -172.056383 
L 175.725 -169.151633 
L 175.725 -166.246884 
L 175.725 -163.342134 
L 175.725 -160.437385 
L 175.725 -157.532635 
L 175.725 -154.627886 
L 175.725 -151.723136 
L 175.725 -148.818387 
L 175.725 -145.913637 
L 175.725 -143.008888 
L 175.725 -140.104138 
L 175.725 -137.199389 
L 175.725 -134.29464 
L 175.725 -131.38989 
L 175.725 -128.485141 
L 175.725 -125.580391 
L 175.725 -122.675642 
L 175.725 -119.770892 
L 175.725 -116.866143 
L 175.725 -113.961393 
L 175.725 -111.056644 
L 175.725 -108.151894 
L 175.725 -105.247145 
L 175.725 -102.342395 
L 175.725 -99.437646 
L 175.725 -96.532896 
L 175.725 -93.628147 
L 175.725 -90.723397 
L 175.725 -87.818648 
L 175.725 -84.913898 
L 175.725 -82.009149 
L 175.725 -79.104399 
L 175.725 -76.19965 
L 175.725 -73.2949 
z
" id="me64485191d" style="stroke:#363636;"/>
    </defs>
    <g clip-path="url(#pfbc96f6701)">
     <use style="fill:#176d9c;stroke:#363636;" x="0" xlink:href="#me64485191d" y="432"/>
    </g>
   </g>
   <g id="PolyCollection_2">
    <defs>
     <path d="M 189.135752 -76.976803 
L 175.725 -76.976803 
L 175.725 -79.807171 
L 175.725 -82.637538 
L 175.725 -85.467906 
L 175.725 -88.298273 
L 175.725 -91.128641 
L 175.725 -93.959009 
L 175.725 -96.789376 
L 175.725 -99.619744 
L 175.725 -102.450112 
L 175.725 -105.280479 
L 175.725 -108.110847 
L 175.725 -110.941214 
L 175.725 -113.771582 
L 175.725 -116.60195 
L 175.725 -119.432317 
L 175.725 -122.262685 
L 175.725 -125.093052 
L 175.725 -127.92342 
L 175.725 -130.753788 
L 175.725 -133.584155 
L 175.725 -136.414523 
L 175.725 -139.244891 
L 175.725 -142.075258 
L 175.725 -144.905626 
L 175.725 -147.735993 
L 175.725 -150.566361 
L 175.725 -153.396729 
L 175.725 -156.227096 
L 175.725 -159.057464 
L 175.725 -161.887831 
L 175.725 -164.718199 
L 175.725 -167.548567 
L 175.725 -170.378934 
L 175.725 -173.209302 
L 175.725 -176.03967 
L 175.725 -178.870037 
L 175.725 -181.700405 
L 175.725 -184.530772 
L 175.725 -187.36114 
L 175.725 -190.191508 
L 175.725 -193.021875 
L 175.725 -195.852243 
L 175.725 -198.68261 
L 175.725 -201.512978 
L 175.725 -204.343346 
L 175.725 -207.173713 
L 175.725 -210.004081 
L 175.725 -212.834449 
L 175.725 -215.664816 
L 175.725 -218.495184 
L 175.725 -221.325551 
L 175.725 -224.155919 
L 175.725 -226.986287 
L 175.725 -229.816654 
L 175.725 -232.647022 
L 175.725 -235.47739 
L 175.725 -238.307757 
L 175.725 -241.138125 
L 175.725 -243.968492 
L 175.725 -246.79886 
L 175.725 -249.629228 
L 175.725 -252.459595 
L 175.725 -255.289963 
L 175.725 -258.12033 
L 175.725 -260.950698 
L 175.725 -263.781066 
L 175.725 -266.611433 
L 175.725 -269.441801 
L 175.725 -272.272169 
L 175.725 -275.102536 
L 175.725 -277.932904 
L 175.725 -280.763271 
L 175.725 -283.593639 
L 175.725 -286.424007 
L 175.725 -289.254374 
L 175.725 -292.084742 
L 175.725 -294.915109 
L 175.725 -297.745477 
L 175.725 -300.575845 
L 175.725 -303.406212 
L 175.725 -306.23658 
L 175.725 -309.066948 
L 175.725 -311.897315 
L 175.725 -314.727683 
L 175.725 -317.55805 
L 175.725 -320.388418 
L 175.725 -323.218786 
L 175.725 -326.049153 
L 175.725 -328.879521 
L 175.725 -331.709888 
L 175.725 -334.540256 
L 175.725 -337.370624 
L 175.725 -340.200991 
L 175.725 -343.031359 
L 175.725 -345.861727 
L 175.725 -348.692094 
L 175.725 -351.522462 
L 175.725 -354.352829 
L 175.725 -357.183197 
L 175.861214 -357.183197 
L 175.861214 -357.183197 
L 175.916906 -354.352829 
L 175.969899 -351.522462 
L 176.017755 -348.692094 
L 176.069013 -345.861727 
L 176.140856 -343.031359 
L 176.248245 -340.200991 
L 176.390269 -337.370624 
L 176.542413 -334.540256 
L 176.661241 -331.709888 
L 176.70195 -328.879521 
L 176.64099 -326.049153 
L 176.490019 -323.218786 
L 176.290837 -320.388418 
L 176.094124 -317.55805 
L 175.936756 -314.727683 
L 175.831598 -311.897315 
L 175.772014 -309.066948 
L 175.743146 -306.23658 
L 175.731124 -303.406212 
L 175.726806 -300.575845 
L 175.725465 -297.745477 
L 175.725105 -294.915109 
L 175.725021 -292.084742 
L 175.725004 -289.254374 
L 175.725001 -286.424007 
L 175.725 -283.593639 
L 175.725 -280.763271 
L 175.725 -277.932904 
L 175.725 -275.102536 
L 175.725 -272.272169 
L 175.725001 -269.441801 
L 175.725004 -266.611433 
L 175.725023 -263.781066 
L 175.725117 -260.950698 
L 175.725525 -258.12033 
L 175.727062 -255.289963 
L 175.73209 -252.459595 
L 175.746368 -249.629228 
L 175.781469 -246.79886 
L 175.855952 -243.968492 
L 175.991763 -241.138125 
L 176.20312 -238.307757 
L 176.480876 -235.47739 
L 176.78342 -232.647022 
L 177.046428 -229.816654 
L 177.211233 -226.986287 
L 177.254062 -224.155919 
L 177.195372 -221.325551 
L 177.086503 -218.495184 
L 176.989332 -215.664816 
L 176.961615 -212.834449 
L 177.043907 -210.004081 
L 177.241204 -207.173713 
L 177.509044 -204.343346 
L 177.763041 -201.512978 
L 177.913712 -198.68261 
L 177.903935 -195.852243 
L 177.725587 -193.021875 
L 177.413255 -190.191508 
L 177.027856 -187.36114 
L 176.638926 -184.530772 
L 176.306848 -181.700405 
L 176.068311 -178.870037 
L 175.931616 -176.03967 
L 175.883188 -173.209302 
L 175.898674 -170.378934 
L 175.951213 -167.548567 
L 176.01541 -164.718199 
L 176.069826 -161.887831 
L 176.100142 -159.057464 
L 176.102678 -156.227096 
L 176.086663 -153.396729 
L 176.073008 -150.566361 
L 176.087068 -147.735993 
L 176.145462 -144.905626 
L 176.243522 -142.075258 
L 176.355004 -139.244891 
L 176.451295 -136.414523 
L 176.533098 -133.584155 
L 176.655445 -130.753788 
L 176.931451 -127.92342 
L 177.520664 -125.093052 
L 178.623719 -122.262685 
L 180.494035 -119.432317 
L 183.442766 -116.60195 
L 187.791302 -113.771582 
L 193.753599 -110.941214 
L 201.293169 -108.110847 
L 210.026313 -105.280479 
L 219.196398 -102.450112 
L 227.693841 -99.619744 
L 234.136247 -96.789376 
L 237.105 -93.959009 
L 235.592463 -91.128641 
L 229.504818 -88.298273 
L 219.891285 -85.467906 
L 208.663568 -82.637538 
L 197.902193 -79.807171 
L 189.135752 -76.976803 
z
" id="m4a57b01a34" style="stroke:#363636;"/>
    </defs>
    <g clip-path="url(#pfbc96f6701)">
     <use style="fill:#c38820;stroke:#363636;" x="0" xlink:href="#m4a57b01a34" y="432"/>
    </g>
   </g>
   <g id="PolyCollection_3">
    <defs>
     <path d="M 329.175 -77.896162 
L 317.606692 -77.896162 
L 309.390124 -80.513708 
L 298.95751 -83.131254 
L 287.682891 -85.748799 
L 277.573541 -88.366345 
L 270.565246 -90.983891 
L 267.795 -93.601437 
L 269.288 -96.218983 
L 274.201561 -98.836529 
L 281.346956 -101.454074 
L 289.575522 -104.07162 
L 297.89344 -106.689166 
L 305.49008 -109.306712 
L 311.840531 -111.924258 
L 316.796183 -114.541803 
L 320.506844 -117.159349 
L 323.20342 -119.776895 
L 325.027364 -122.394441 
L 326.030804 -125.011987 
L 326.301457 -127.629533 
L 326.073413 -130.247078 
L 325.714337 -132.864624 
L 325.580127 -135.48217 
L 325.835477 -138.099716 
L 326.37842 -140.717262 
L 326.931083 -143.334807 
L 327.227326 -145.952353 
L 327.165004 -148.569899 
L 326.839941 -151.187445 
L 326.469984 -153.804991 
L 326.273373 -156.422537 
L 326.370635 -159.040082 
L 326.751249 -161.657628 
L 327.30548 -164.275174 
L 327.890131 -166.89272 
L 328.389417 -169.510266 
L 328.745579 -172.127811 
L 328.954998 -174.745357 
L 329.043447 -177.362903 
L 329.041286 -179.980449 
L 328.973208 -182.597995 
L 328.862809 -185.215541 
L 328.740265 -187.833086 
L 328.64076 -190.450632 
L 328.592501 -193.068178 
L 328.605146 -195.685724 
L 328.669092 -198.30327 
L 328.764285 -200.920816 
L 328.869224 -203.538361 
L 328.964657 -206.155907 
L 329.033579 -208.773453 
L 329.060401 -211.390999 
L 329.030592 -214.008545 
L 328.933386 -216.62609 
L 328.770763 -219.243636 
L 328.569626 -221.861182 
L 328.384685 -224.478728 
L 328.280502 -227.096274 
L 328.298284 -229.71382 
L 328.431161 -232.331365 
L 328.628858 -234.948911 
L 328.828123 -237.566457 
L 328.984502 -240.184003 
L 329.084588 -242.801549 
L 329.137937 -245.419094 
L 329.161885 -248.03664 
L 329.170996 -250.654186 
L 329.173946 -253.271732 
L 329.174761 -255.889278 
L 329.174953 -258.506824 
L 329.174992 -261.124369 
L 329.174999 -263.741915 
L 329.175 -266.359461 
L 329.175 -268.977007 
L 329.175 -271.594553 
L 329.175 -274.212098 
L 329.175 -276.829644 
L 329.175 -279.44719 
L 329.175 -282.064736 
L 329.175 -284.682282 
L 329.175 -287.299828 
L 329.175 -289.917373 
L 329.174999 -292.534919 
L 329.174995 -295.152465 
L 329.174965 -297.770011 
L 329.174808 -300.387557 
L 329.174087 -303.005102 
L 329.171266 -305.622648 
L 329.161872 -308.240194 
L 329.135296 -310.85774 
L 329.071694 -313.475286 
L 328.94371 -316.092832 
L 328.72933 -318.710377 
L 328.435766 -321.327923 
L 328.119294 -323.945469 
L 327.876692 -326.563015 
L 327.799814 -329.180561 
L 327.920233 -331.798107 
L 328.188622 -334.415652 
L 328.506881 -337.033198 
L 329.175 -337.033198 
L 329.175 -337.033198 
L 329.175 -334.415652 
L 329.175 -331.798107 
L 329.175 -329.180561 
L 329.175 -326.563015 
L 329.175 -323.945469 
L 329.175 -321.327923 
L 329.175 -318.710377 
L 329.175 -316.092832 
L 329.175 -313.475286 
L 329.175 -310.85774 
L 329.175 -308.240194 
L 329.175 -305.622648 
L 329.175 -303.005102 
L 329.175 -300.387557 
L 329.175 -297.770011 
L 329.175 -295.152465 
L 329.175 -292.534919 
L 329.175 -289.917373 
L 329.175 -287.299828 
L 329.175 -284.682282 
L 329.175 -282.064736 
L 329.175 -279.44719 
L 329.175 -276.829644 
L 329.175 -274.212098 
L 329.175 -271.594553 
L 329.175 -268.977007 
L 329.175 -266.359461 
L 329.175 -263.741915 
L 329.175 -261.124369 
L 329.175 -258.506824 
L 329.175 -255.889278 
L 329.175 -253.271732 
L 329.175 -250.654186 
L 329.175 -248.03664 
L 329.175 -245.419094 
L 329.175 -242.801549 
L 329.175 -240.184003 
L 329.175 -237.566457 
L 329.175 -234.948911 
L 329.175 -232.331365 
L 329.175 -229.71382 
L 329.175 -227.096274 
L 329.175 -224.478728 
L 329.175 -221.861182 
L 329.175 -219.243636 
L 329.175 -216.62609 
L 329.175 -214.008545 
L 329.175 -211.390999 
L 329.175 -208.773453 
L 329.175 -206.155907 
L 329.175 -203.538361 
L 329.175 -200.920816 
L 329.175 -198.30327 
L 329.175 -195.685724 
L 329.175 -193.068178 
L 329.175 -190.450632 
L 329.175 -187.833086 
L 329.175 -185.215541 
L 329.175 -182.597995 
L 329.175 -179.980449 
L 329.175 -177.362903 
L 329.175 -174.745357 
L 329.175 -172.127811 
L 329.175 -169.510266 
L 329.175 -166.89272 
L 329.175 -164.275174 
L 329.175 -161.657628 
L 329.175 -159.040082 
L 329.175 -156.422537 
L 329.175 -153.804991 
L 329.175 -151.187445 
L 329.175 -148.569899 
L 329.175 -145.952353 
L 329.175 -143.334807 
L 329.175 -140.717262 
L 329.175 -138.099716 
L 329.175 -135.48217 
L 329.175 -132.864624 
L 329.175 -130.247078 
L 329.175 -127.629533 
L 329.175 -125.011987 
L 329.175 -122.394441 
L 329.175 -119.776895 
L 329.175 -117.159349 
L 329.175 -114.541803 
L 329.175 -111.924258 
L 329.175 -109.306712 
L 329.175 -106.689166 
L 329.175 -104.07162 
L 329.175 -101.454074 
L 329.175 -98.836529 
L 329.175 -96.218983 
L 329.175 -93.601437 
L 329.175 -90.983891 
L 329.175 -88.366345 
L 329.175 -85.748799 
L 329.175 -83.131254 
L 329.175 -80.513708 
L 329.175 -77.896162 
z
" id="mbdf9ba4096" style="stroke:#363636;"/>
    </defs>
    <g clip-path="url(#pfbc96f6701)">
     <use style="fill:#176d9c;stroke:#363636;" x="0" xlink:href="#mbdf9ba4096" y="432"/>
    </g>
   </g>
   <g id="PolyCollection_4">
    <defs>
     <path d="M 338.866736 -71.915305 
L 329.175 -71.915305 
L 329.175 -74.847925 
L 329.175 -77.780545 
L 329.175 -80.713165 
L 329.175 -83.645785 
L 329.175 -86.578405 
L 329.175 -89.511025 
L 329.175 -92.443645 
L 329.175 -95.376266 
L 329.175 -98.308886 
L 329.175 -101.241506 
L 329.175 -104.174126 
L 329.175 -107.106746 
L 329.175 -110.039366 
L 329.175 -112.971986 
L 329.175 -115.904606 
L 329.175 -118.837226 
L 329.175 -121.769846 
L 329.175 -124.702467 
L 329.175 -127.635087 
L 329.175 -130.567707 
L 329.175 -133.500327 
L 329.175 -136.432947 
L 329.175 -139.365567 
L 329.175 -142.298187 
L 329.175 -145.230807 
L 329.175 -148.163427 
L 329.175 -151.096048 
L 329.175 -154.028668 
L 329.175 -156.961288 
L 329.175 -159.893908 
L 329.175 -162.826528 
L 329.175 -165.759148 
L 329.175 -168.691768 
L 329.175 -171.624388 
L 329.175 -174.557008 
L 329.175 -177.489629 
L 329.175 -180.422249 
L 329.175 -183.354869 
L 329.175 -186.287489 
L 329.175 -189.220109 
L 329.175 -192.152729 
L 329.175 -195.085349 
L 329.175 -198.017969 
L 329.175 -200.950589 
L 329.175 -203.88321 
L 329.175 -206.81583 
L 329.175 -209.74845 
L 329.175 -212.68107 
L 329.175 -215.61369 
L 329.175 -218.54631 
L 329.175 -221.47893 
L 329.175 -224.41155 
L 329.175 -227.34417 
L 329.175 -230.27679 
L 329.175 -233.209411 
L 329.175 -236.142031 
L 329.175 -239.074651 
L 329.175 -242.007271 
L 329.175 -244.939891 
L 329.175 -247.872511 
L 329.175 -250.805131 
L 329.175 -253.737751 
L 329.175 -256.670371 
L 329.175 -259.602992 
L 329.175 -262.535612 
L 329.175 -265.468232 
L 329.175 -268.400852 
L 329.175 -271.333472 
L 329.175 -274.266092 
L 329.175 -277.198712 
L 329.175 -280.131332 
L 329.175 -283.063952 
L 329.175 -285.996573 
L 329.175 -288.929193 
L 329.175 -291.861813 
L 329.175 -294.794433 
L 329.175 -297.727053 
L 329.175 -300.659673 
L 329.175 -303.592293 
L 329.175 -306.524913 
L 329.175 -309.457533 
L 329.175 -312.390154 
L 329.175 -315.322774 
L 329.175 -318.255394 
L 329.175 -321.188014 
L 329.175 -324.120634 
L 329.175 -327.053254 
L 329.175 -329.985874 
L 329.175 -332.918494 
L 329.175 -335.851114 
L 329.175 -338.783734 
L 329.175 -341.716355 
L 329.175 -344.648975 
L 329.175 -347.581595 
L 329.175 -350.514215 
L 329.175 -353.446835 
L 329.175 -356.379455 
L 329.175 -359.312075 
L 329.175 -362.244695 
L 329.567875 -362.244695 
L 329.567875 -362.244695 
L 329.739993 -359.312075 
L 329.963645 -356.379455 
L 330.244188 -353.446835 
L 330.582565 -350.514215 
L 330.972489 -347.581595 
L 331.397741 -344.648975 
L 331.830671 -341.716355 
L 332.233199 -338.783734 
L 332.561136 -335.851114 
L 332.77165 -332.918494 
L 332.832308 -329.985874 
L 332.729118 -327.053254 
L 332.470872 -324.120634 
L 332.088074 -321.188014 
L 331.626599 -318.255394 
L 331.138006 -315.322774 
L 330.669498 -312.390154 
L 330.256321 -309.457533 
L 329.918247 -306.524913 
L 329.660205 -303.592293 
L 329.475845 -300.659673 
L 329.352333 -297.727053 
L 329.274799 -294.794433 
L 329.22954 -291.861813 
L 329.205738 -288.929193 
L 329.195933 -285.996573 
L 329.195703 -283.063952 
L 329.202949 -280.131332 
L 329.217051 -277.198712 
L 329.238019 -274.266092 
L 329.265714 -271.333472 
L 329.299199 -268.400852 
L 329.336325 -265.468232 
L 329.373677 -262.535612 
L 329.406948 -259.602992 
L 329.431694 -256.670371 
L 329.444305 -253.737751 
L 329.442872 -250.805131 
L 329.427695 -247.872511 
L 329.401252 -244.939891 
L 329.367648 -242.007271 
L 329.331757 -239.074651 
L 329.298337 -236.142031 
L 329.271363 -233.209411 
L 329.253695 -230.27679 
L 329.24702 -227.34417 
L 329.251937 -224.41155 
L 329.268009 -221.47893 
L 329.293717 -218.54631 
L 329.326385 -215.61369 
L 329.362193 -212.68107 
L 329.396468 -209.74845 
L 329.424299 -206.81583 
L 329.441406 -203.88321 
L 329.445015 -200.950589 
L 329.434478 -198.017969 
L 329.411388 -195.085349 
L 329.379154 -192.152729 
L 329.342167 -189.220109 
L 329.304836 -186.287489 
L 329.2708 -183.354869 
L 329.242498 -180.422249 
L 329.22117 -177.489629 
L 329.207206 -174.557008 
L 329.200677 -171.624388 
L 329.201877 -168.691768 
L 329.211736 -165.759148 
L 329.232016 -162.826528 
L 329.265283 -159.893908 
L 329.314733 -156.961288 
L 329.3841 -154.028668 
L 329.478029 -151.096048 
L 329.603393 -148.163427 
L 329.772005 -145.230807 
L 330.004931 -142.298187 
L 330.338043 -139.365567 
L 330.827744 -136.432947 
L 331.554996 -133.500327 
L 332.62523 -130.567707 
L 334.161595 -127.635087 
L 336.289619 -124.702467 
L 339.112895 -121.769846 
L 342.681838 -118.837226 
L 346.960527 -115.904606 
L 351.799547 -112.971986 
L 356.924168 -110.039366 
L 361.946219 -107.106746 
L 366.403746 -104.174126 
L 369.825563 -101.241506 
L 371.809787 -98.308886 
L 372.09918 -95.376266 
L 370.634296 -92.443645 
L 367.569539 -89.511025 
L 363.246511 -86.578405 
L 358.130798 -83.645785 
L 352.7283 -80.713165 
L 347.502101 -77.780545 
L 342.808936 -74.847925 
L 338.866736 -71.915305 
z
" id="m0cb5575a75" style="stroke:#363636;"/>
    </defs>
    <g clip-path="url(#pfbc96f6701)">
     <use style="fill:#c38820;stroke:#363636;" x="0" xlink:href="#m0cb5575a75" y="432"/>
    </g>
   </g>
   <g id="PolyCollection_5">
    <defs>
     <path d="M 482.625 -73.230233 
L 471.082389 -73.230233 
L 466.240653 -76.136289 
L 460.609149 -79.042345 
L 454.591191 -81.948401 
L 448.757614 -84.854457 
L 443.755735 -87.760512 
L 440.18325 -90.666568 
L 438.462918 -93.572624 
L 438.756221 -96.47868 
L 440.941218 -99.384736 
L 444.657326 -102.290792 
L 449.39792 -105.196848 
L 454.619436 -108.102904 
L 459.836241 -111.00896 
L 464.68126 -113.915016 
L 468.926946 -116.821071 
L 472.473591 -119.727127 
L 475.318637 -122.633183 
L 477.520971 -125.539239 
L 479.170168 -128.445295 
L 480.364982 -131.351351 
L 481.200794 -134.257407 
L 481.763345 -137.163463 
L 482.125975 -140.069519 
L 482.348557 -142.975575 
L 482.477434 -145.88163 
L 482.546231 -148.787686 
L 482.577483 -151.693742 
L 482.584834 -154.599798 
L 482.575481 -157.505854 
L 482.552508 -160.41191 
L 482.516892 -163.317966 
L 482.468997 -166.224022 
L 482.409457 -169.130078 
L 482.33943 -172.036134 
L 482.260355 -174.942189 
L 482.17359 -177.848245 
L 482.080369 -180.754301 
L 481.982412 -183.660357 
L 481.883123 -186.566413 
L 481.788791 -189.472469 
L 481.708955 -192.378525 
L 481.65526 -195.284581 
L 481.638763 -198.190637 
L 481.666525 -201.096693 
L 481.73883 -204.002748 
L 481.848303 -206.908804 
L 481.981403 -209.81486 
L 482.121765 -212.720916 
L 482.254085 -215.626972 
L 482.367147 -218.533028 
L 482.455139 -221.439084 
L 482.517209 -224.34514 
L 482.555888 -227.251196 
L 482.575232 -230.157252 
L 482.579356 -233.063307 
L 482.571648 -235.969363 
L 482.554537 -238.875419 
L 482.529518 -241.781475 
L 482.497142 -244.687531 
L 482.456889 -247.593587 
L 482.407145 -250.499643 
L 482.345648 -253.405699 
L 482.270687 -256.311755 
L 482.182937 -259.217811 
L 482.087258 -262.123866 
L 481.99345 -265.029922 
L 481.915115 -267.935978 
L 481.866545 -270.842034 
L 481.858565 -273.74809 
L 481.894941 -276.654146 
L 481.970902 -279.560202 
L 482.074376 -282.466258 
L 482.18936 -285.372314 
L 482.299906 -288.27837 
L 482.393121 -291.184425 
L 482.460209 -294.090481 
L 482.495551 -296.996537 
L 482.494674 -299.902593 
L 482.452338 -302.808649 
L 482.361883 -305.714705 
L 482.216484 -308.620761 
L 482.012236 -311.526817 
L 481.752131 -314.432873 
L 481.449339 -317.338929 
L 481.128049 -320.244984 
L 480.820811 -323.15104 
L 480.562612 -326.057096 
L 480.383459 -328.963152 
L 480.301968 -331.869208 
L 480.322195 -334.775264 
L 480.434477 -337.68132 
L 480.619461 -340.587376 
L 480.853387 -343.493432 
L 481.112718 -346.399488 
L 481.377032 -349.305543 
L 481.630178 -352.211599 
L 481.860341 -355.117655 
L 482.05974 -358.023711 
L 482.224335 -360.929767 
L 482.625 -360.929767 
L 482.625 -360.929767 
L 482.625 -358.023711 
L 482.625 -355.117655 
L 482.625 -352.211599 
L 482.625 -349.305543 
L 482.625 -346.399488 
L 482.625 -343.493432 
L 482.625 -340.587376 
L 482.625 -337.68132 
L 482.625 -334.775264 
L 482.625 -331.869208 
L 482.625 -328.963152 
L 482.625 -326.057096 
L 482.625 -323.15104 
L 482.625 -320.244984 
L 482.625 -317.338929 
L 482.625 -314.432873 
L 482.625 -311.526817 
L 482.625 -308.620761 
L 482.625 -305.714705 
L 482.625 -302.808649 
L 482.625 -299.902593 
L 482.625 -296.996537 
L 482.625 -294.090481 
L 482.625 -291.184425 
L 482.625 -288.27837 
L 482.625 -285.372314 
L 482.625 -282.466258 
L 482.625 -279.560202 
L 482.625 -276.654146 
L 482.625 -273.74809 
L 482.625 -270.842034 
L 482.625 -267.935978 
L 482.625 -265.029922 
L 482.625 -262.123866 
L 482.625 -259.217811 
L 482.625 -256.311755 
L 482.625 -253.405699 
L 482.625 -250.499643 
L 482.625 -247.593587 
L 482.625 -244.687531 
L 482.625 -241.781475 
L 482.625 -238.875419 
L 482.625 -235.969363 
L 482.625 -233.063307 
L 482.625 -230.157252 
L 482.625 -227.251196 
L 482.625 -224.34514 
L 482.625 -221.439084 
L 482.625 -218.533028 
L 482.625 -215.626972 
L 482.625 -212.720916 
L 482.625 -209.81486 
L 482.625 -206.908804 
L 482.625 -204.002748 
L 482.625 -201.096693 
L 482.625 -198.190637 
L 482.625 -195.284581 
L 482.625 -192.378525 
L 482.625 -189.472469 
L 482.625 -186.566413 
L 482.625 -183.660357 
L 482.625 -180.754301 
L 482.625 -177.848245 
L 482.625 -174.942189 
L 482.625 -172.036134 
L 482.625 -169.130078 
L 482.625 -166.224022 
L 482.625 -163.317966 
L 482.625 -160.41191 
L 482.625 -157.505854 
L 482.625 -154.599798 
L 482.625 -151.693742 
L 482.625 -148.787686 
L 482.625 -145.88163 
L 482.625 -142.975575 
L 482.625 -140.069519 
L 482.625 -137.163463 
L 482.625 -134.257407 
L 482.625 -131.351351 
L 482.625 -128.445295 
L 482.625 -125.539239 
L 482.625 -122.633183 
L 482.625 -119.727127 
L 482.625 -116.821071 
L 482.625 -113.915016 
L 482.625 -111.00896 
L 482.625 -108.102904 
L 482.625 -105.196848 
L 482.625 -102.290792 
L 482.625 -99.384736 
L 482.625 -96.47868 
L 482.625 -93.572624 
L 482.625 -90.666568 
L 482.625 -87.760512 
L 482.625 -84.854457 
L 482.625 -81.948401 
L 482.625 -79.042345 
L 482.625 -76.136289 
L 482.625 -73.230233 
z
" id="m7a8decd165" style="stroke:#363636;"/>
    </defs>
    <g clip-path="url(#pfbc96f6701)">
     <use style="fill:#176d9c;stroke:#363636;" x="0" xlink:href="#m7a8decd165" y="432"/>
    </g>
   </g>
   <g id="PolyCollection_6">
    <defs>
     <path d="M 494.242993 -76.88264 
L 482.625 -76.88264 
L 482.625 -79.579593 
L 482.625 -82.276546 
L 482.625 -84.9735 
L 482.625 -87.670453 
L 482.625 -90.367406 
L 482.625 -93.064359 
L 482.625 -95.761313 
L 482.625 -98.458266 
L 482.625 -101.155219 
L 482.625 -103.852173 
L 482.625 -106.549126 
L 482.625 -109.246079 
L 482.625 -111.943033 
L 482.625 -114.639986 
L 482.625 -117.336939 
L 482.625 -120.033893 
L 482.625 -122.730846 
L 482.625 -125.427799 
L 482.625 -128.124753 
L 482.625 -130.821706 
L 482.625 -133.518659 
L 482.625 -136.215612 
L 482.625 -138.912566 
L 482.625 -141.609519 
L 482.625 -144.306472 
L 482.625 -147.003426 
L 482.625 -149.700379 
L 482.625 -152.397332 
L 482.625 -155.094286 
L 482.625 -157.791239 
L 482.625 -160.488192 
L 482.625 -163.185146 
L 482.625 -165.882099 
L 482.625 -168.579052 
L 482.625 -171.276006 
L 482.625 -173.972959 
L 482.625 -176.669912 
L 482.625 -179.366866 
L 482.625 -182.063819 
L 482.625 -184.760772 
L 482.625 -187.457725 
L 482.625 -190.154679 
L 482.625 -192.851632 
L 482.625 -195.548585 
L 482.625 -198.245539 
L 482.625 -200.942492 
L 482.625 -203.639445 
L 482.625 -206.336399 
L 482.625 -209.033352 
L 482.625 -211.730305 
L 482.625 -214.427259 
L 482.625 -217.124212 
L 482.625 -219.821165 
L 482.625 -222.518119 
L 482.625 -225.215072 
L 482.625 -227.912025 
L 482.625 -230.608978 
L 482.625 -233.305932 
L 482.625 -236.002885 
L 482.625 -238.699838 
L 482.625 -241.396792 
L 482.625 -244.093745 
L 482.625 -246.790698 
L 482.625 -249.487652 
L 482.625 -252.184605 
L 482.625 -254.881558 
L 482.625 -257.578512 
L 482.625 -260.275465 
L 482.625 -262.972418 
L 482.625 -265.669372 
L 482.625 -268.366325 
L 482.625 -271.063278 
L 482.625 -273.760231 
L 482.625 -276.457185 
L 482.625 -279.154138 
L 482.625 -281.851091 
L 482.625 -284.548045 
L 482.625 -287.244998 
L 482.625 -289.941951 
L 482.625 -292.638905 
L 482.625 -295.335858 
L 482.625 -298.032811 
L 482.625 -300.729765 
L 482.625 -303.426718 
L 482.625 -306.123671 
L 482.625 -308.820625 
L 482.625 -311.517578 
L 482.625 -314.214531 
L 482.625 -316.911485 
L 482.625 -319.608438 
L 482.625 -322.305391 
L 482.625 -325.002344 
L 482.625 -327.699298 
L 482.625 -330.396251 
L 482.625 -333.093204 
L 482.625 -335.790158 
L 482.625 -338.487111 
L 482.625 -341.184064 
L 482.625 -343.881018 
L 483.106508 -343.881018 
L 483.106508 -343.881018 
L 483.316985 -341.184064 
L 483.516078 -338.487111 
L 483.654 -335.790158 
L 483.691134 -333.093204 
L 483.616198 -330.396251 
L 483.451701 -327.699298 
L 483.243171 -325.002344 
L 483.039043 -322.305391 
L 482.873127 -319.608438 
L 482.757879 -316.911485 
L 482.68851 -314.214531 
L 482.652058 -311.517578 
L 482.635264 -308.820625 
L 482.628463 -306.123671 
L 482.626038 -303.426718 
L 482.625276 -300.729765 
L 482.625065 -298.032811 
L 482.625014 -295.335858 
L 482.625003 -292.638905 
L 482.625 -289.941951 
L 482.625 -287.244998 
L 482.625 -284.548045 
L 482.625 -281.851091 
L 482.625 -279.154138 
L 482.625 -276.457185 
L 482.625 -273.760231 
L 482.625 -271.063278 
L 482.625 -268.366325 
L 482.625002 -265.669372 
L 482.625011 -262.972418 
L 482.625051 -260.275465 
L 482.625218 -257.578512 
L 482.625824 -254.881558 
L 482.627754 -252.184605 
L 482.633167 -249.487652 
L 482.646518 -246.790698 
L 482.675497 -244.093745 
L 482.730984 -241.396792 
L 482.825216 -238.699838 
L 482.968667 -236.002885 
L 483.167876 -233.305932 
L 483.426187 -230.608978 
L 483.74549 -227.912025 
L 484.123135 -225.215072 
L 484.540843 -222.518119 
L 484.952779 -219.821165 
L 485.287543 -217.124212 
L 485.471842 -214.427259 
L 485.464925 -211.730305 
L 485.280676 -209.033352 
L 484.982044 -206.336399 
L 484.652995 -203.639445 
L 484.367248 -200.942492 
L 484.169922 -198.245539 
L 484.074616 -195.548585 
L 484.068305 -192.851632 
L 484.116772 -190.154679 
L 484.170309 -187.457725 
L 484.174436 -184.760772 
L 484.087568 -182.063819 
L 483.898991 -179.366866 
L 483.635081 -176.669912 
L 483.347186 -173.972959 
L 483.087733 -171.276006 
L 482.889593 -168.579052 
L 482.75964 -165.882099 
L 482.685855 -163.185146 
L 482.649401 -160.488192 
L 482.633673 -157.791239 
L 482.627735 -155.094286 
L 482.625785 -152.397332 
L 482.625301 -149.700379 
L 482.62552 -147.003426 
L 482.626816 -144.306472 
L 482.631069 -141.609519 
L 482.643157 -138.912566 
L 482.673649 -136.215612 
L 482.742475 -133.518659 
L 482.883111 -130.821706 
L 483.147951 -128.124753 
L 483.618549 -125.427799 
L 484.426624 -122.730846 
L 485.786421 -120.033893 
L 488.022001 -117.336939 
L 491.552396 -114.639986 
L 496.794108 -111.943033 
L 503.972197 -109.246079 
L 512.892341 -106.549126 
L 522.782307 -103.852173 
L 532.317932 -101.155219 
L 539.883641 -98.458266 
L 544.005 -95.761313 
L 543.795159 -93.064359 
L 539.238227 -90.367406 
L 531.199841 -87.670453 
L 521.165783 -84.9735 
L 510.809888 -82.276546 
L 501.549415 -79.579593 
L 494.242993 -76.88264 
z
" id="md0690cfb0d" style="stroke:#363636;"/>
    </defs>
    <g clip-path="url(#pfbc96f6701)">
     <use style="fill:#c38820;stroke:#363636;" x="0" xlink:href="#md0690cfb0d" y="432"/>
    </g>
   </g>
   <g id="PolyCollection_7">
    <defs>
     <path d="M 636.075 -71.06938 
L 618.045284 -71.06938 
L 611.886391 -74.01909 
L 604.939849 -76.968799 
L 597.604041 -79.918509 
L 590.418072 -82.868218 
L 583.997391 -85.817928 
L 578.943122 -88.767637 
L 575.744158 -91.717347 
L 574.695 -94.667056 
L 575.84917 -97.616766 
L 579.018602 -100.566475 
L 583.816973 -103.516185 
L 589.73386 -106.465894 
L 596.220432 -109.415603 
L 602.767456 -112.365313 
L 608.961799 -115.315022 
L 614.515486 -118.264732 
L 619.268901 -121.214441 
L 623.174695 -124.164151 
L 626.270833 -127.11386 
L 628.65045 -130.06357 
L 630.434139 -133.013279 
L 631.74783 -135.962989 
L 632.707516 -138.912698 
L 633.410583 -141.862408 
L 633.932701 -144.812117 
L 634.328675 -147.761827 
L 634.63561 -150.711536 
L 634.876892 -153.661246 
L 635.065992 -156.610955 
L 635.209582 -159.560665 
L 635.309945 -162.510374 
L 635.366862 -165.460084 
L 635.379185 -168.409793 
L 635.346209 -171.359503 
L 635.268811 -174.309212 
L 635.150247 -177.258922 
L 634.996495 -180.208631 
L 634.816042 -183.158341 
L 634.619105 -186.10805 
L 634.4163 -189.05776 
L 634.216938 -192.007469 
L 634.027244 -194.957179 
L 633.848967 -197.906888 
L 633.678933 -200.856598 
L 633.509985 -203.806307 
L 633.333464 -206.756017 
L 633.142865 -209.705726 
L 632.937804 -212.655436 
L 632.727017 -215.605145 
L 632.529182 -218.554855 
L 632.370795 -221.504564 
L 632.281214 -224.454274 
L 632.285955 -227.403983 
L 632.400035 -230.353693 
L 632.623306 -233.303402 
L 632.939218 -236.253112 
L 633.31741 -239.202821 
L 633.71941 -242.152531 
L 634.105844 -245.10224 
L 634.443326 -248.05195 
L 634.709468 -251.001659 
L 634.895215 -253.951369 
L 635.004453 -256.901078 
L 635.051474 -259.850788 
L 635.057115 -262.800497 
L 635.044458 -265.750207 
L 635.034782 -268.699916 
L 635.044316 -271.649626 
L 635.082141 -274.599335 
L 635.149407 -277.549045 
L 635.239804 -280.498754 
L 635.341006 -283.448464 
L 635.436631 -286.398173 
L 635.508242 -289.347883 
L 635.537033 -292.297592 
L 635.505148 -295.247302 
L 635.396807 -298.197011 
L 635.199625 -301.146721 
L 634.906385 -304.09643 
L 634.517291 -307.04614 
L 634.042285 -309.995849 
L 633.502686 -312.945559 
L 632.931279 -315.895268 
L 632.370191 -318.844978 
L 631.866413 -321.794687 
L 631.465564 -324.744397 
L 631.205098 -327.694106 
L 631.108493 -330.643815 
L 631.181807 -333.593525 
L 631.41338 -336.543234 
L 631.776648 -339.492944 
L 632.235194 -342.442653 
L 632.748735 -345.392363 
L 633.27869 -348.342072 
L 633.792331 -351.291782 
L 634.26511 -354.241491 
L 634.681241 -357.191201 
L 635.033007 -360.14091 
L 635.319299 -363.09062 
L 636.075 -363.09062 
L 636.075 -363.09062 
L 636.075 -360.14091 
L 636.075 -357.191201 
L 636.075 -354.241491 
L 636.075 -351.291782 
L 636.075 -348.342072 
L 636.075 -345.392363 
L 636.075 -342.442653 
L 636.075 -339.492944 
L 636.075 -336.543234 
L 636.075 -333.593525 
L 636.075 -330.643815 
L 636.075 -327.694106 
L 636.075 -324.744397 
L 636.075 -321.794687 
L 636.075 -318.844978 
L 636.075 -315.895268 
L 636.075 -312.945559 
L 636.075 -309.995849 
L 636.075 -307.04614 
L 636.075 -304.09643 
L 636.075 -301.146721 
L 636.075 -298.197011 
L 636.075 -295.247302 
L 636.075 -292.297592 
L 636.075 -289.347883 
L 636.075 -286.398173 
L 636.075 -283.448464 
L 636.075 -280.498754 
L 636.075 -277.549045 
L 636.075 -274.599335 
L 636.075 -271.649626 
L 636.075 -268.699916 
L 636.075 -265.750207 
L 636.075 -262.800497 
L 636.075 -259.850788 
L 636.075 -256.901078 
L 636.075 -253.951369 
L 636.075 -251.001659 
L 636.075 -248.05195 
L 636.075 -245.10224 
L 636.075 -242.152531 
L 636.075 -239.202821 
L 636.075 -236.253112 
L 636.075 -233.303402 
L 636.075 -230.353693 
L 636.075 -227.403983 
L 636.075 -224.454274 
L 636.075 -221.504564 
L 636.075 -218.554855 
L 636.075 -215.605145 
L 636.075 -212.655436 
L 636.075 -209.705726 
L 636.075 -206.756017 
L 636.075 -203.806307 
L 636.075 -200.856598 
L 636.075 -197.906888 
L 636.075 -194.957179 
L 636.075 -192.007469 
L 636.075 -189.05776 
L 636.075 -186.10805 
L 636.075 -183.158341 
L 636.075 -180.208631 
L 636.075 -177.258922 
L 636.075 -174.309212 
L 636.075 -171.359503 
L 636.075 -168.409793 
L 636.075 -165.460084 
L 636.075 -162.510374 
L 636.075 -159.560665 
L 636.075 -156.610955 
L 636.075 -153.661246 
L 636.075 -150.711536 
L 636.075 -147.761827 
L 636.075 -144.812117 
L 636.075 -141.862408 
L 636.075 -138.912698 
L 636.075 -135.962989 
L 636.075 -133.013279 
L 636.075 -130.06357 
L 636.075 -127.11386 
L 636.075 -124.164151 
L 636.075 -121.214441 
L 636.075 -118.264732 
L 636.075 -115.315022 
L 636.075 -112.365313 
L 636.075 -109.415603 
L 636.075 -106.465894 
L 636.075 -103.516185 
L 636.075 -100.566475 
L 636.075 -97.616766 
L 636.075 -94.667056 
L 636.075 -91.717347 
L 636.075 -88.767637 
L 636.075 -85.817928 
L 636.075 -82.868218 
L 636.075 -79.918509 
L 636.075 -76.968799 
L 636.075 -74.01909 
L 636.075 -71.06938 
z
" id="m74e953b502" style="stroke:#363636;"/>
    </defs>
    <g clip-path="url(#pfbc96f6701)">
     <use style="fill:#176d9c;stroke:#363636;" x="0" xlink:href="#m74e953b502" y="432"/>
    </g>
   </g>
   <g id="PolyCollection_8">
    <defs>
     <path d="M 651.747701 -68.825455 
L 636.075 -68.825455 
L 636.075 -71.820496 
L 636.075 -74.815537 
L 636.075 -77.810579 
L 636.075 -80.80562 
L 636.075 -83.800661 
L 636.075 -86.795702 
L 636.075 -89.790744 
L 636.075 -92.785785 
L 636.075 -95.780826 
L 636.075 -98.775868 
L 636.075 -101.770909 
L 636.075 -104.76595 
L 636.075 -107.760992 
L 636.075 -110.756033 
L 636.075 -113.751074 
L 636.075 -116.746116 
L 636.075 -119.741157 
L 636.075 -122.736198 
L 636.075 -125.73124 
L 636.075 -128.726281 
L 636.075 -131.721322 
L 636.075 -134.716364 
L 636.075 -137.711405 
L 636.075 -140.706446 
L 636.075 -143.701488 
L 636.075 -146.696529 
L 636.075 -149.69157 
L 636.075 -152.686612 
L 636.075 -155.681653 
L 636.075 -158.676694 
L 636.075 -161.671736 
L 636.075 -164.666777 
L 636.075 -167.661818 
L 636.075 -170.65686 
L 636.075 -173.651901 
L 636.075 -176.646942 
L 636.075 -179.641983 
L 636.075 -182.637025 
L 636.075 -185.632066 
L 636.075 -188.627107 
L 636.075 -191.622149 
L 636.075 -194.61719 
L 636.075 -197.612231 
L 636.075 -200.607273 
L 636.075 -203.602314 
L 636.075 -206.597355 
L 636.075 -209.592397 
L 636.075 -212.587438 
L 636.075 -215.582479 
L 636.075 -218.577521 
L 636.075 -221.572562 
L 636.075 -224.567603 
L 636.075 -227.562645 
L 636.075 -230.557686 
L 636.075 -233.552727 
L 636.075 -236.547769 
L 636.075 -239.54281 
L 636.075 -242.537851 
L 636.075 -245.532893 
L 636.075 -248.527934 
L 636.075 -251.522975 
L 636.075 -254.518017 
L 636.075 -257.513058 
L 636.075 -260.508099 
L 636.075 -263.50314 
L 636.075 -266.498182 
L 636.075 -269.493223 
L 636.075 -272.488264 
L 636.075 -275.483306 
L 636.075 -278.478347 
L 636.075 -281.473388 
L 636.075 -284.46843 
L 636.075 -287.463471 
L 636.075 -290.458512 
L 636.075 -293.453554 
L 636.075 -296.448595 
L 636.075 -299.443636 
L 636.075 -302.438678 
L 636.075 -305.433719 
L 636.075 -308.42876 
L 636.075 -311.423802 
L 636.075 -314.418843 
L 636.075 -317.413884 
L 636.075 -320.408926 
L 636.075 -323.403967 
L 636.075 -326.399008 
L 636.075 -329.39405 
L 636.075 -332.389091 
L 636.075 -335.384132 
L 636.075 -338.379174 
L 636.075 -341.374215 
L 636.075 -344.369256 
L 636.075 -347.364298 
L 636.075 -350.359339 
L 636.075 -353.35438 
L 636.075 -356.349421 
L 636.075 -359.344463 
L 636.075 -362.339504 
L 636.075 -365.334545 
L 637.800936 -365.334545 
L 637.800936 -365.334545 
L 638.334697 -362.339504 
L 638.949188 -359.344463 
L 639.627142 -356.349421 
L 640.341023 -353.35438 
L 641.053943 -350.359339 
L 641.722162 -347.364298 
L 642.299084 -344.369256 
L 642.740324 -341.374215 
L 643.009163 -338.379174 
L 643.0815 -335.384132 
L 642.949401 -332.389091 
L 642.622558 -329.39405 
L 642.127292 -326.399008 
L 641.503254 -323.403967 
L 640.798386 -320.408926 
L 640.06308 -317.413884 
L 639.344573 -314.418843 
L 638.682469 -311.423802 
L 638.105988 -308.42876 
L 637.633081 -305.433719 
L 637.271156 -302.438678 
L 637.018889 -299.443636 
L 636.868455 -296.448595 
L 636.807664 -293.453554 
L 636.821626 -290.458512 
L 636.893879 -287.463471 
L 637.007107 -284.46843 
L 637.143691 -281.473388 
L 637.286343 -278.478347 
L 637.418981 -275.483306 
L 637.527824 -272.488264 
L 637.602569 -269.493223 
L 637.637408 -266.498182 
L 637.631642 -263.50314 
L 637.589729 -260.508099 
L 637.520737 -257.513058 
L 637.437268 -254.518017 
L 637.35405 -251.522975 
L 637.28639 -248.527934 
L 637.248664 -245.532893 
L 637.252963 -242.537851 
L 637.307938 -239.54281 
L 637.417868 -236.547769 
L 637.581971 -233.552727 
L 637.794008 -230.557686 
L 638.04229 -227.562645 
L 638.31022 -224.567603 
L 638.577473 -221.572562 
L 638.821841 -218.577521 
L 639.021612 -215.582479 
L 639.158205 -212.587438 
L 639.218638 -209.592397 
L 639.197387 -206.597355 
L 639.097238 -203.602314 
L 638.928947 -200.607273 
L 638.709753 -197.612231 
L 638.461032 -194.61719 
L 638.205554 -191.622149 
L 637.964826 -188.627107 
L 637.756929 -185.632066 
L 637.59508 -182.637025 
L 637.486981 -179.641983 
L 637.434868 -176.646942 
L 637.436123 -173.651901 
L 637.484327 -170.65686 
L 637.570666 -167.661818 
L 637.685667 -164.666777 
L 637.821235 -161.671736 
L 637.972945 -158.676694 
L 638.142518 -155.681653 
L 638.340346 -152.686612 
L 638.587937 -149.69157 
L 638.920069 -146.696529 
L 639.386386 -143.701488 
L 640.051982 -140.706446 
L 640.996349 -137.711405 
L 642.309891 -134.716364 
L 644.087182 -131.721322 
L 646.416422 -128.726281 
L 649.365138 -125.73124 
L 652.963151 -122.736198 
L 657.184958 -119.741157 
L 661.934774 -116.746116 
L 667.038054 -113.751074 
L 672.243199 -110.756033 
L 677.235892 -107.760992 
L 681.666395 -104.76595 
L 685.187356 -101.770909 
L 687.49691 -98.775868 
L 688.379911 -95.780826 
L 687.739623 -92.785785 
L 685.613486 -89.790744 
L 682.169456 -86.795702 
L 677.683334 -83.800661 
L 672.501312 -80.80562 
L 666.99485 -77.810579 
L 661.51612 -74.815537 
L 656.361433 -71.820496 
L 651.747701 -68.825455 
z
" id="m1f11db95e2" style="stroke:#363636;"/>
    </defs>
    <g clip-path="url(#pfbc96f6701)">
     <use style="fill:#c38820;stroke:#363636;" x="0" xlink:href="#m1f11db95e2" y="432"/>
    </g>
   </g>
   <g id="patch_3">
    <path clip-path="url(#pfbc96f6701)" d="M 175.725 351.860703 
L 175.725 351.860703 
L 175.725 351.860703 
L 175.725 351.860703 
z
" style="fill:#176d9c;stroke:#363636;stroke-linejoin:miter;stroke-width:0.5;"/>
   </g>
   <g id="patch_4">
    <path clip-path="url(#pfbc96f6701)" d="M 175.725 351.860703 
L 175.725 351.860703 
L 175.725 351.860703 
L 175.725 351.860703 
z
" style="fill:#c38820;stroke:#363636;stroke-linejoin:miter;stroke-width:0.5;"/>
   </g>
   <g id="line2d_6">
    <path clip-path="url(#pfbc96f6701)" d="M 133.804421 341.273949 
L 175.725 341.273949 
" style="fill:none;stroke:#363636;stroke-dasharray:1.5,1.5;stroke-dashoffset:0;"/>
   </g>
   <g id="line2d_7">
    <path clip-path="url(#pfbc96f6701)" d="M 132.353024 337.064825 
L 175.725 337.064825 
" style="fill:none;stroke:#363636;stroke-dasharray:3,3;stroke-dashoffset:0;"/>
   </g>
   <g id="line2d_8">
    <path clip-path="url(#pfbc96f6701)" d="M 143.815404 328.19067 
L 175.725 328.19067 
" style="fill:none;stroke:#363636;stroke-dasharray:1.5,1.5;stroke-dashoffset:0;"/>
   </g>
   <g id="line2d_9">
    <path clip-path="url(#pfbc96f6701)" d="M 175.725 341.273949 
L 234.993788 341.273949 
" style="fill:none;stroke:#363636;stroke-dasharray:1.5,1.5;stroke-dashoffset:0;"/>
   </g>
   <g id="line2d_10">
    <path clip-path="url(#pfbc96f6701)" d="M 175.725 337.497672 
L 236.4912 337.497672 
" style="fill:none;stroke:#363636;stroke-dasharray:3,3;stroke-dashoffset:0;"/>
   </g>
   <g id="line2d_11">
    <path clip-path="url(#pfbc96f6701)" d="M 175.725 329.670473 
L 218.761684 329.670473 
" style="fill:none;stroke:#363636;stroke-dasharray:1.5,1.5;stroke-dashoffset:0;"/>
   </g>
   <g id="line2d_12">
    <path clip-path="url(#pfbc96f6701)" d="M 271.151344 341.23863 
L 329.175 341.23863 
" style="fill:none;stroke:#363636;stroke-dasharray:1.5,1.5;stroke-dashoffset:0;"/>
   </g>
   <g id="line2d_13">
    <path clip-path="url(#pfbc96f6701)" d="M 269.88687 337.064825 
L 329.175 337.064825 
" style="fill:none;stroke:#363636;stroke-dasharray:3,3;stroke-dashoffset:0;"/>
   </g>
   <g id="line2d_14">
    <path clip-path="url(#pfbc96f6701)" d="M 289.971517 328.305622 
L 329.175 328.305622 
" style="fill:none;stroke:#363636;stroke-dasharray:1.5,1.5;stroke-dashoffset:0;"/>
   </g>
   <g id="line2d_15">
    <path clip-path="url(#pfbc96f6701)" d="M 329.175 340.136433 
L 370.219703 340.136433 
" style="fill:none;stroke:#363636;stroke-dasharray:1.5,1.5;stroke-dashoffset:0;"/>
   </g>
   <g id="line2d_16">
    <path clip-path="url(#pfbc96f6701)" d="M 329.175 334.684923 
L 371.383439 334.684923 
" style="fill:none;stroke:#363636;stroke-dasharray:3,3;stroke-dashoffset:0;"/>
   </g>
   <g id="line2d_17">
    <path clip-path="url(#pfbc96f6701)" d="M 329.175 328.305622 
L 366.031459 328.305622 
" style="fill:none;stroke:#363636;stroke-dasharray:1.5,1.5;stroke-dashoffset:0;"/>
   </g>
   <g id="line2d_18">
    <path clip-path="url(#pfbc96f6701)" d="M 440.607668 341.23863 
L 482.625 341.23863 
" style="fill:none;stroke:#363636;stroke-dasharray:1.5,1.5;stroke-dashoffset:0;"/>
   </g>
   <g id="line2d_19">
    <path clip-path="url(#pfbc96f6701)" d="M 438.904539 337.064825 
L 482.625 337.064825 
" style="fill:none;stroke:#363636;stroke-dasharray:3,3;stroke-dashoffset:0;"/>
   </g>
   <g id="line2d_20">
    <path clip-path="url(#pfbc96f6701)" d="M 445.037003 328.305622 
L 482.625 328.305622 
" style="fill:none;stroke:#363636;stroke-dasharray:1.5,1.5;stroke-dashoffset:0;"/>
   </g>
   <g id="line2d_21">
    <path clip-path="url(#pfbc96f6701)" d="M 482.625 341.273949 
L 538.672095 341.273949 
" style="fill:none;stroke:#363636;stroke-dasharray:1.5,1.5;stroke-dashoffset:0;"/>
   </g>
   <g id="line2d_22">
    <path clip-path="url(#pfbc96f6701)" d="M 482.625 337.064825 
L 543.3912 337.064825 
" style="fill:none;stroke:#363636;stroke-dasharray:3,3;stroke-dashoffset:0;"/>
   </g>
   <g id="line2d_23">
    <path clip-path="url(#pfbc96f6701)" d="M 482.625 331.611026 
L 531.821002 331.611026 
" style="fill:none;stroke:#363636;stroke-dasharray:1.5,1.5;stroke-dashoffset:0;"/>
   </g>
   <g id="line2d_24">
    <path clip-path="url(#pfbc96f6701)" d="M 576.347467 341.23863 
L 636.075 341.23863 
" style="fill:none;stroke:#363636;stroke-dasharray:1.5,1.5;stroke-dashoffset:0;"/>
   </g>
   <g id="line2d_25">
    <path clip-path="url(#pfbc96f6701)" d="M 575.3088 336.465899 
L 636.075 336.465899 
" style="fill:none;stroke:#363636;stroke-dasharray:3,3;stroke-dashoffset:0;"/>
   </g>
   <g id="line2d_26">
    <path clip-path="url(#pfbc96f6701)" d="M 584.339553 327.526832 
L 636.075 327.526832 
" style="fill:none;stroke:#363636;stroke-dasharray:1.5,1.5;stroke-dashoffset:0;"/>
   </g>
   <g id="line2d_27">
    <path clip-path="url(#pfbc96f6701)" d="M 636.075 340.716533 
L 685.118101 340.716533 
" style="fill:none;stroke:#363636;stroke-dasharray:1.5,1.5;stroke-dashoffset:0;"/>
   </g>
   <g id="line2d_28">
    <path clip-path="url(#pfbc96f6701)" d="M 636.075 333.495408 
L 686.982691 333.495408 
" style="fill:none;stroke:#363636;stroke-dasharray:3,3;stroke-dashoffset:0;"/>
   </g>
   <g id="line2d_29">
    <path clip-path="url(#pfbc96f6701)" d="M 636.075 323.791422 
L 676.824283 323.791422 
" style="fill:none;stroke:#363636;stroke-dasharray:1.5,1.5;stroke-dashoffset:0;"/>
   </g>
   <g id="legend_1">
    <g id="patch_5">
     <path d="M 641.160781 108.503594 
L 705.1 108.503594 
Q 707.3 108.503594 707.3 106.303594 
L 707.3 59.54 
Q 707.3 57.34 705.1 57.34 
L 641.160781 57.34 
Q 638.960781 57.34 638.960781 59.54 
L 638.960781 106.303594 
Q 638.960781 108.503594 641.160781 108.503594 
z
" style="fill:#ffffff;opacity:0.8;stroke:#cccccc;stroke-linejoin:miter;"/>
    </g>
    <g id="text_12">
     <!-- inst_single -->
     <g style="fill:#262626;" transform="translate(644.781328 70.329375)scale(0.12 -0.12)">
      <defs>
       <path d="M 6.59375 0 
L 6.59375 51.859375 
L 14.5 51.859375 
L 14.5 44.484375 
Q 20.21875 53.03125 31 53.03125 
Q 35.6875 53.03125 39.625 51.34375 
Q 43.5625 49.65625 45.515625 46.921875 
Q 47.46875 44.1875 48.25 40.4375 
Q 48.734375 37.984375 48.734375 31.890625 
L 48.734375 0 
L 39.9375 0 
L 39.9375 31.546875 
Q 39.9375 36.921875 38.90625 39.578125 
Q 37.890625 42.234375 35.28125 43.8125 
Q 32.671875 45.40625 29.15625 45.40625 
Q 23.53125 45.40625 19.453125 41.84375 
Q 15.375 38.28125 15.375 28.328125 
L 15.375 0 
z
" id="ArialMT-110"/>
       <path d="M 3.078125 15.484375 
L 11.765625 16.84375 
Q 12.5 11.625 15.84375 8.84375 
Q 19.1875 6.0625 25.203125 6.0625 
Q 31.25 6.0625 34.171875 8.515625 
Q 37.109375 10.984375 37.109375 14.3125 
Q 37.109375 17.28125 34.515625 19 
Q 32.71875 20.171875 25.53125 21.96875 
Q 15.875 24.421875 12.140625 26.203125 
Q 8.40625 27.984375 6.46875 31.125 
Q 4.546875 34.28125 4.546875 38.09375 
Q 4.546875 41.546875 6.125 44.5 
Q 7.71875 47.46875 10.453125 49.421875 
Q 12.5 50.921875 16.03125 51.96875 
Q 19.578125 53.03125 23.640625 53.03125 
Q 29.734375 53.03125 34.34375 51.265625 
Q 38.96875 49.515625 41.15625 46.5 
Q 43.359375 43.5 44.1875 38.484375 
L 35.59375 37.3125 
Q 35.015625 41.3125 32.203125 43.546875 
Q 29.390625 45.796875 24.265625 45.796875 
Q 18.21875 45.796875 15.625 43.796875 
Q 13.03125 41.796875 13.03125 39.109375 
Q 13.03125 37.40625 14.109375 36.03125 
Q 15.1875 34.625 17.484375 33.6875 
Q 18.796875 33.203125 25.25 31.453125 
Q 34.578125 28.953125 38.25 27.359375 
Q 41.9375 25.78125 44.03125 22.75 
Q 46.140625 19.734375 46.140625 15.234375 
Q 46.140625 10.84375 43.578125 6.953125 
Q 41.015625 3.078125 36.171875 0.953125 
Q 31.34375 -1.171875 25.25 -1.171875 
Q 15.140625 -1.171875 9.84375 3.03125 
Q 4.546875 7.234375 3.078125 15.484375 
z
" id="ArialMT-115"/>
       <path d="M 4.984375 -4.296875 
L 13.53125 -5.5625 
Q 14.0625 -9.515625 16.5 -11.328125 
Q 19.78125 -13.765625 25.4375 -13.765625 
Q 31.546875 -13.765625 34.859375 -11.328125 
Q 38.1875 -8.890625 39.359375 -4.5 
Q 40.046875 -1.8125 39.984375 6.78125 
Q 34.234375 0 25.640625 0 
Q 14.9375 0 9.078125 7.71875 
Q 3.21875 15.4375 3.21875 26.21875 
Q 3.21875 33.640625 5.90625 39.90625 
Q 8.59375 46.1875 13.6875 49.609375 
Q 18.796875 53.03125 25.6875 53.03125 
Q 34.859375 53.03125 40.828125 45.609375 
L 40.828125 51.859375 
L 48.921875 51.859375 
L 48.921875 7.03125 
Q 48.921875 -5.078125 46.453125 -10.125 
Q 44 -15.1875 38.640625 -18.109375 
Q 33.296875 -21.046875 25.484375 -21.046875 
Q 16.21875 -21.046875 10.5 -16.875 
Q 4.78125 -12.703125 4.984375 -4.296875 
z
M 12.25 26.859375 
Q 12.25 16.65625 16.296875 11.96875 
Q 20.359375 7.28125 26.46875 7.28125 
Q 32.515625 7.28125 36.609375 11.9375 
Q 40.71875 16.609375 40.71875 26.5625 
Q 40.71875 36.078125 36.5 40.90625 
Q 32.28125 45.75 26.3125 45.75 
Q 20.453125 45.75 16.34375 40.984375 
Q 12.25 36.234375 12.25 26.859375 
z
" id="ArialMT-103"/>
       <path d="M 6.390625 0 
L 6.390625 71.578125 
L 15.1875 71.578125 
L 15.1875 0 
z
" id="ArialMT-108"/>
      </defs>
      <use xlink:href="#ArialMT-105"/>
      <use x="22.216797" xlink:href="#ArialMT-110"/>
      <use x="77.832031" xlink:href="#ArialMT-115"/>
      <use x="127.832031" xlink:href="#ArialMT-116"/>
      <use x="155.615234" xlink:href="#ArialMT-95"/>
      <use x="211.230469" xlink:href="#ArialMT-115"/>
      <use x="261.230469" xlink:href="#ArialMT-105"/>
      <use x="283.447266" xlink:href="#ArialMT-110"/>
      <use x="339.0625" xlink:href="#ArialMT-103"/>
      <use x="394.677734" xlink:href="#ArialMT-108"/>
      <use x="416.894531" xlink:href="#ArialMT-101"/>
     </g>
    </g>
    <g id="patch_6">
     <path d="M 643.360781 86.228594 
L 665.360781 86.228594 
L 665.360781 78.528594 
L 643.360781 78.528594 
z
" style="fill:#176d9c;stroke:#363636;stroke-linejoin:miter;stroke-width:0.5;"/>
    </g>
    <g id="text_13">
     <!-- inst -->
     <g style="fill:#262626;" transform="translate(674.160781 86.228594)scale(0.11 -0.11)">
      <use xlink:href="#ArialMT-105"/>
      <use x="22.216797" xlink:href="#ArialMT-110"/>
      <use x="77.832031" xlink:href="#ArialMT-115"/>
      <use x="127.832031" xlink:href="#ArialMT-116"/>
     </g>
    </g>
    <g id="patch_7">
     <path d="M 643.360781 101.788437 
L 665.360781 101.788437 
L 665.360781 94.088437 
L 643.360781 94.088437 
z
" style="fill:#c38820;stroke:#363636;stroke-linejoin:miter;stroke-width:0.5;"/>
    </g>
    <g id="text_14">
     <!-- single -->
     <g style="fill:#262626;" transform="translate(674.160781 101.788437)scale(0.11 -0.11)">
      <use xlink:href="#ArialMT-115"/>
      <use x="50" xlink:href="#ArialMT-105"/>
      <use x="72.216797" xlink:href="#ArialMT-110"/>
      <use x="127.832031" xlink:href="#ArialMT-103"/>
      <use x="183.447266" xlink:href="#ArialMT-108"/>
      <use x="205.664062" xlink:href="#ArialMT-101"/>
     </g>
    </g>
   </g>
  </g>
 </g>
 <defs>
  <clipPath id="pfbc96f6701">
   <rect height="326.16" width="613.8" x="99" y="51.84"/>
  </clipPath>
 </defs>
</svg>
