<?xml version="1.0" encoding="utf-8" standalone="no"?>
<!DOCTYPE svg PUBLIC "-//W3C//DTD SVG 1.1//EN"
  "http://www.w3.org/Graphics/SVG/1.1/DTD/svg11.dtd">
<!-- Created with matplotlib (https://matplotlib.org/) -->
<svg height="432pt" version="1.1" viewBox="0 0 792 432" width="792pt" xmlns="http://www.w3.org/2000/svg" xmlns:xlink="http://www.w3.org/1999/xlink">
 <metadata>
  <rdf:RDF xmlns:cc="http://creativecommons.org/ns#" xmlns:dc="http://purl.org/dc/elements/1.1/" xmlns:rdf="http://www.w3.org/1999/02/22-rdf-syntax-ns#">
   <cc:Work>
    <dc:type rdf:resource="http://purl.org/dc/dcmitype/StillImage"/>
    <dc:date>2021-08-19T08:05:00.579397</dc:date>
    <dc:format>image/svg+xml</dc:format>
    <dc:creator>
     <cc:Agent>
      <dc:title>Matplotlib v3.3.1, https://matplotlib.org/</dc:title>
     </cc:Agent>
    </dc:creator>
   </cc:Work>
  </rdf:RDF>
 </metadata>
 <defs>
  <style type="text/css">*{stroke-linecap:butt;stroke-linejoin:round;}</style>
 </defs>
 <g id="figure_1">
  <g id="patch_1">
   <path d="M 0 432 
L 792 432 
L 792 0 
L 0 0 
z
" style="fill:#ffffff;"/>
  </g>
  <g id="axes_1">
   <g id="patch_2">
    <path d="M 99 378 
L 712.8 378 
L 712.8 51.84 
L 99 51.84 
z
" style="fill:#ffffff;"/>
   </g>
   <g id="matplotlib.axis_1">
    <g id="xtick_1">
     <g id="text_1">
      <!-- 2000-2006 -->
      <g style="fill:#262626;" transform="translate(149.425547 395.373594)scale(0.11 -0.11)">
       <defs>
        <path d="M 50.34375 8.453125 
L 50.34375 0 
L 3.03125 0 
Q 2.9375 3.171875 4.046875 6.109375 
Q 5.859375 10.9375 9.828125 15.625 
Q 13.8125 20.3125 21.34375 26.46875 
Q 33.015625 36.03125 37.109375 41.625 
Q 41.21875 47.21875 41.21875 52.203125 
Q 41.21875 57.421875 37.46875 61 
Q 33.734375 64.59375 27.734375 64.59375 
Q 21.390625 64.59375 17.578125 60.78125 
Q 13.765625 56.984375 13.71875 50.25 
L 4.6875 51.171875 
Q 5.609375 61.28125 11.65625 66.578125 
Q 17.71875 71.875 27.9375 71.875 
Q 38.234375 71.875 44.234375 66.15625 
Q 50.25 60.453125 50.25 52 
Q 50.25 47.703125 48.484375 43.546875 
Q 46.734375 39.40625 42.65625 34.8125 
Q 38.578125 30.21875 29.109375 22.21875 
Q 21.1875 15.578125 18.9375 13.203125 
Q 16.703125 10.84375 15.234375 8.453125 
z
" id="ArialMT-50"/>
        <path d="M 4.15625 35.296875 
Q 4.15625 48 6.765625 55.734375 
Q 9.375 63.484375 14.515625 67.671875 
Q 19.671875 71.875 27.484375 71.875 
Q 33.25 71.875 37.59375 69.546875 
Q 41.9375 67.234375 44.765625 62.859375 
Q 47.609375 58.5 49.21875 52.21875 
Q 50.828125 45.953125 50.828125 35.296875 
Q 50.828125 22.703125 48.234375 14.96875 
Q 45.65625 7.234375 40.5 3 
Q 35.359375 -1.21875 27.484375 -1.21875 
Q 17.140625 -1.21875 11.234375 6.203125 
Q 4.15625 15.140625 4.15625 35.296875 
z
M 13.1875 35.296875 
Q 13.1875 17.671875 17.3125 11.828125 
Q 21.4375 6 27.484375 6 
Q 33.546875 6 37.671875 11.859375 
Q 41.796875 17.71875 41.796875 35.296875 
Q 41.796875 52.984375 37.671875 58.78125 
Q 33.546875 64.59375 27.390625 64.59375 
Q 21.34375 64.59375 17.71875 59.46875 
Q 13.1875 52.9375 13.1875 35.296875 
z
" id="ArialMT-48"/>
        <path d="M 3.171875 21.484375 
L 3.171875 30.328125 
L 30.171875 30.328125 
L 30.171875 21.484375 
z
" id="ArialMT-45"/>
        <path d="M 49.75 54.046875 
L 41.015625 53.375 
Q 39.84375 58.546875 37.703125 60.890625 
Q 34.125 64.65625 28.90625 64.65625 
Q 24.703125 64.65625 21.53125 62.3125 
Q 17.390625 59.28125 14.984375 53.46875 
Q 12.59375 47.65625 12.5 36.921875 
Q 15.671875 41.75 20.265625 44.09375 
Q 24.859375 46.4375 29.890625 46.4375 
Q 38.671875 46.4375 44.84375 39.96875 
Q 51.03125 33.5 51.03125 23.25 
Q 51.03125 16.5 48.125 10.71875 
Q 45.21875 4.9375 40.140625 1.859375 
Q 35.0625 -1.21875 28.609375 -1.21875 
Q 17.625 -1.21875 10.6875 6.859375 
Q 3.765625 14.9375 3.765625 33.5 
Q 3.765625 54.25 11.421875 63.671875 
Q 18.109375 71.875 29.4375 71.875 
Q 37.890625 71.875 43.28125 67.140625 
Q 48.6875 62.40625 49.75 54.046875 
z
M 13.875 23.1875 
Q 13.875 18.65625 15.796875 14.5 
Q 17.71875 10.359375 21.1875 8.171875 
Q 24.65625 6 28.46875 6 
Q 34.03125 6 38.03125 10.484375 
Q 42.046875 14.984375 42.046875 22.703125 
Q 42.046875 30.125 38.078125 34.390625 
Q 34.125 38.671875 28.125 38.671875 
Q 22.171875 38.671875 18.015625 34.390625 
Q 13.875 30.125 13.875 23.1875 
z
" id="ArialMT-54"/>
       </defs>
       <use xlink:href="#ArialMT-50"/>
       <use x="55.615234" xlink:href="#ArialMT-48"/>
       <use x="111.230469" xlink:href="#ArialMT-48"/>
       <use x="166.845703" xlink:href="#ArialMT-48"/>
       <use x="222.460938" xlink:href="#ArialMT-45"/>
       <use x="255.761719" xlink:href="#ArialMT-50"/>
       <use x="311.376953" xlink:href="#ArialMT-48"/>
       <use x="366.992188" xlink:href="#ArialMT-48"/>
       <use x="422.607422" xlink:href="#ArialMT-54"/>
      </g>
     </g>
    </g>
    <g id="xtick_2">
     <g id="text_2">
      <!-- 2007-2009 -->
      <g style="fill:#262626;" transform="translate(302.875547 395.373594)scale(0.11 -0.11)">
       <defs>
        <path d="M 4.734375 62.203125 
L 4.734375 70.65625 
L 51.078125 70.65625 
L 51.078125 63.8125 
Q 44.234375 56.546875 37.515625 44.484375 
Q 30.8125 32.421875 27.15625 19.671875 
Q 24.515625 10.6875 23.78125 0 
L 14.75 0 
Q 14.890625 8.453125 18.0625 20.40625 
Q 21.234375 32.375 27.171875 43.484375 
Q 33.109375 54.59375 39.796875 62.203125 
z
" id="ArialMT-55"/>
        <path d="M 5.46875 16.546875 
L 13.921875 17.328125 
Q 14.984375 11.375 18.015625 8.6875 
Q 21.046875 6 25.78125 6 
Q 29.828125 6 32.875 7.859375 
Q 35.9375 9.71875 37.890625 12.8125 
Q 39.84375 15.921875 41.15625 21.1875 
Q 42.484375 26.46875 42.484375 31.9375 
Q 42.484375 32.515625 42.4375 33.6875 
Q 39.796875 29.5 35.234375 26.875 
Q 30.671875 24.265625 25.34375 24.265625 
Q 16.453125 24.265625 10.296875 30.703125 
Q 4.15625 37.15625 4.15625 47.703125 
Q 4.15625 58.59375 10.578125 65.234375 
Q 17 71.875 26.65625 71.875 
Q 33.640625 71.875 39.421875 68.109375 
Q 45.21875 64.359375 48.21875 57.390625 
Q 51.21875 50.4375 51.21875 37.25 
Q 51.21875 23.53125 48.234375 15.40625 
Q 45.265625 7.28125 39.375 3.03125 
Q 33.5 -1.21875 25.59375 -1.21875 
Q 17.1875 -1.21875 11.859375 3.4375 
Q 6.546875 8.109375 5.46875 16.546875 
z
M 41.453125 48.140625 
Q 41.453125 55.71875 37.421875 60.15625 
Q 33.40625 64.59375 27.734375 64.59375 
Q 21.875 64.59375 17.53125 59.8125 
Q 13.1875 55.03125 13.1875 47.40625 
Q 13.1875 40.578125 17.3125 36.296875 
Q 21.4375 32.03125 27.484375 32.03125 
Q 33.59375 32.03125 37.515625 36.296875 
Q 41.453125 40.578125 41.453125 48.140625 
z
" id="ArialMT-57"/>
       </defs>
       <use xlink:href="#ArialMT-50"/>
       <use x="55.615234" xlink:href="#ArialMT-48"/>
       <use x="111.230469" xlink:href="#ArialMT-48"/>
       <use x="166.845703" xlink:href="#ArialMT-55"/>
       <use x="222.460938" xlink:href="#ArialMT-45"/>
       <use x="255.761719" xlink:href="#ArialMT-50"/>
       <use x="311.376953" xlink:href="#ArialMT-48"/>
       <use x="366.992188" xlink:href="#ArialMT-48"/>
       <use x="422.607422" xlink:href="#ArialMT-57"/>
      </g>
     </g>
    </g>
    <g id="xtick_3">
     <g id="text_3">
      <!-- 2010-2013 -->
      <g style="fill:#262626;" transform="translate(456.325547 395.373594)scale(0.11 -0.11)">
       <defs>
        <path d="M 37.25 0 
L 28.46875 0 
L 28.46875 56 
Q 25.296875 52.984375 20.140625 49.953125 
Q 14.984375 46.921875 10.890625 45.40625 
L 10.890625 53.90625 
Q 18.265625 57.375 23.78125 62.296875 
Q 29.296875 67.234375 31.59375 71.875 
L 37.25 71.875 
z
" id="ArialMT-49"/>
        <path d="M 4.203125 18.890625 
L 12.984375 20.0625 
Q 14.5 12.59375 18.140625 9.296875 
Q 21.78125 6 27 6 
Q 33.203125 6 37.46875 10.296875 
Q 41.75 14.59375 41.75 20.953125 
Q 41.75 27 37.796875 30.921875 
Q 33.84375 34.859375 27.734375 34.859375 
Q 25.25 34.859375 21.53125 33.890625 
L 22.515625 41.609375 
Q 23.390625 41.5 23.921875 41.5 
Q 29.546875 41.5 34.03125 44.421875 
Q 38.53125 47.359375 38.53125 53.46875 
Q 38.53125 58.296875 35.25 61.46875 
Q 31.984375 64.65625 26.8125 64.65625 
Q 21.6875 64.65625 18.265625 61.421875 
Q 14.84375 58.203125 13.875 51.765625 
L 5.078125 53.328125 
Q 6.6875 62.15625 12.390625 67.015625 
Q 18.109375 71.875 26.609375 71.875 
Q 32.46875 71.875 37.390625 69.359375 
Q 42.328125 66.84375 44.9375 62.5 
Q 47.5625 58.15625 47.5625 53.265625 
Q 47.5625 48.640625 45.0625 44.828125 
Q 42.578125 41.015625 37.703125 38.765625 
Q 44.046875 37.3125 47.5625 32.6875 
Q 51.078125 28.078125 51.078125 21.140625 
Q 51.078125 11.765625 44.234375 5.25 
Q 37.40625 -1.265625 26.953125 -1.265625 
Q 17.53125 -1.265625 11.296875 4.34375 
Q 5.078125 9.96875 4.203125 18.890625 
z
" id="ArialMT-51"/>
       </defs>
       <use xlink:href="#ArialMT-50"/>
       <use x="55.615234" xlink:href="#ArialMT-48"/>
       <use x="111.230469" xlink:href="#ArialMT-49"/>
       <use x="166.845703" xlink:href="#ArialMT-48"/>
       <use x="222.460938" xlink:href="#ArialMT-45"/>
       <use x="255.761719" xlink:href="#ArialMT-50"/>
       <use x="311.376953" xlink:href="#ArialMT-48"/>
       <use x="366.992188" xlink:href="#ArialMT-49"/>
       <use x="422.607422" xlink:href="#ArialMT-51"/>
      </g>
     </g>
    </g>
    <g id="xtick_4">
     <g id="text_4">
      <!-- 2014-2018 -->
      <g style="fill:#262626;" transform="translate(609.775547 395.373594)scale(0.11 -0.11)">
       <defs>
        <path d="M 32.328125 0 
L 32.328125 17.140625 
L 1.265625 17.140625 
L 1.265625 25.203125 
L 33.9375 71.578125 
L 41.109375 71.578125 
L 41.109375 25.203125 
L 50.78125 25.203125 
L 50.78125 17.140625 
L 41.109375 17.140625 
L 41.109375 0 
z
M 32.328125 25.203125 
L 32.328125 57.46875 
L 9.90625 25.203125 
z
" id="ArialMT-52"/>
        <path d="M 17.671875 38.8125 
Q 12.203125 40.828125 9.5625 44.53125 
Q 6.9375 48.25 6.9375 53.421875 
Q 6.9375 61.234375 12.546875 66.546875 
Q 18.171875 71.875 27.484375 71.875 
Q 36.859375 71.875 42.578125 66.421875 
Q 48.296875 60.984375 48.296875 53.171875 
Q 48.296875 48.1875 45.671875 44.5 
Q 43.0625 40.828125 37.75 38.8125 
Q 44.34375 36.671875 47.78125 31.875 
Q 51.21875 27.09375 51.21875 20.453125 
Q 51.21875 11.28125 44.71875 5.03125 
Q 38.234375 -1.21875 27.640625 -1.21875 
Q 17.046875 -1.21875 10.546875 5.046875 
Q 4.046875 11.328125 4.046875 20.703125 
Q 4.046875 27.6875 7.59375 32.390625 
Q 11.140625 37.109375 17.671875 38.8125 
z
M 15.921875 53.71875 
Q 15.921875 48.640625 19.1875 45.40625 
Q 22.46875 42.1875 27.6875 42.1875 
Q 32.765625 42.1875 36.015625 45.375 
Q 39.265625 48.578125 39.265625 53.21875 
Q 39.265625 58.0625 35.90625 61.359375 
Q 32.5625 64.65625 27.59375 64.65625 
Q 22.5625 64.65625 19.234375 61.421875 
Q 15.921875 58.203125 15.921875 53.71875 
z
M 13.09375 20.65625 
Q 13.09375 16.890625 14.875 13.375 
Q 16.65625 9.859375 20.171875 7.921875 
Q 23.6875 6 27.734375 6 
Q 34.03125 6 38.125 10.046875 
Q 42.234375 14.109375 42.234375 20.359375 
Q 42.234375 26.703125 38.015625 30.859375 
Q 33.796875 35.015625 27.4375 35.015625 
Q 21.234375 35.015625 17.15625 30.90625 
Q 13.09375 26.8125 13.09375 20.65625 
z
" id="ArialMT-56"/>
       </defs>
       <use xlink:href="#ArialMT-50"/>
       <use x="55.615234" xlink:href="#ArialMT-48"/>
       <use x="111.230469" xlink:href="#ArialMT-49"/>
       <use x="166.845703" xlink:href="#ArialMT-52"/>
       <use x="222.460938" xlink:href="#ArialMT-45"/>
       <use x="255.761719" xlink:href="#ArialMT-50"/>
       <use x="311.376953" xlink:href="#ArialMT-48"/>
       <use x="366.992188" xlink:href="#ArialMT-49"/>
       <use x="422.607422" xlink:href="#ArialMT-56"/>
      </g>
     </g>
    </g>
    <g id="text_5">
     <!-- year -->
     <g style="fill:#262626;" transform="translate(394.229063 410.008594)scale(0.12 -0.12)">
      <defs>
       <path d="M 6.203125 -19.96875 
L 5.21875 -11.71875 
Q 8.109375 -12.5 10.25 -12.5 
Q 13.1875 -12.5 14.9375 -11.515625 
Q 16.703125 -10.546875 17.828125 -8.796875 
Q 18.65625 -7.46875 20.515625 -2.25 
Q 20.75 -1.515625 21.296875 -0.09375 
L 1.609375 51.859375 
L 11.078125 51.859375 
L 21.875 21.828125 
Q 23.96875 16.109375 25.640625 9.8125 
Q 27.15625 15.875 29.25 21.625 
L 40.328125 51.859375 
L 49.125 51.859375 
L 29.390625 -0.875 
Q 26.21875 -9.421875 24.46875 -12.640625 
Q 22.125 -17 19.09375 -19.015625 
Q 16.0625 -21.046875 11.859375 -21.046875 
Q 9.328125 -21.046875 6.203125 -19.96875 
z
" id="ArialMT-121"/>
       <path d="M 42.09375 16.703125 
L 51.171875 15.578125 
Q 49.03125 7.625 43.21875 3.21875 
Q 37.40625 -1.171875 28.375 -1.171875 
Q 17 -1.171875 10.328125 5.828125 
Q 3.65625 12.84375 3.65625 25.484375 
Q 3.65625 38.578125 10.390625 45.796875 
Q 17.140625 53.03125 27.875 53.03125 
Q 38.28125 53.03125 44.875 45.953125 
Q 51.46875 38.875 51.46875 26.03125 
Q 51.46875 25.25 51.421875 23.6875 
L 12.75 23.6875 
Q 13.234375 15.140625 17.578125 10.59375 
Q 21.921875 6.0625 28.421875 6.0625 
Q 33.25 6.0625 36.671875 8.59375 
Q 40.09375 11.140625 42.09375 16.703125 
z
M 13.234375 30.90625 
L 42.1875 30.90625 
Q 41.609375 37.453125 38.875 40.71875 
Q 34.671875 45.796875 27.984375 45.796875 
Q 21.921875 45.796875 17.796875 41.75 
Q 13.671875 37.703125 13.234375 30.90625 
z
" id="ArialMT-101"/>
       <path d="M 40.4375 6.390625 
Q 35.546875 2.25 31.03125 0.53125 
Q 26.515625 -1.171875 21.34375 -1.171875 
Q 12.796875 -1.171875 8.203125 3 
Q 3.609375 7.171875 3.609375 13.671875 
Q 3.609375 17.484375 5.34375 20.625 
Q 7.078125 23.78125 9.890625 25.6875 
Q 12.703125 27.59375 16.21875 28.5625 
Q 18.796875 29.25 24.03125 29.890625 
Q 34.671875 31.15625 39.703125 32.90625 
Q 39.75 34.71875 39.75 35.203125 
Q 39.75 40.578125 37.25 42.78125 
Q 33.890625 45.75 27.25 45.75 
Q 21.046875 45.75 18.09375 43.578125 
Q 15.140625 41.40625 13.71875 35.890625 
L 5.125 37.0625 
Q 6.296875 42.578125 8.984375 45.96875 
Q 11.671875 49.359375 16.75 51.1875 
Q 21.828125 53.03125 28.515625 53.03125 
Q 35.15625 53.03125 39.296875 51.46875 
Q 43.453125 49.90625 45.40625 47.53125 
Q 47.359375 45.171875 48.140625 41.546875 
Q 48.578125 39.3125 48.578125 33.453125 
L 48.578125 21.734375 
Q 48.578125 9.46875 49.140625 6.21875 
Q 49.703125 2.984375 51.375 0 
L 42.1875 0 
Q 40.828125 2.734375 40.4375 6.390625 
z
M 39.703125 26.03125 
Q 34.90625 24.078125 25.34375 22.703125 
Q 19.921875 21.921875 17.671875 20.9375 
Q 15.4375 19.96875 14.203125 18.09375 
Q 12.984375 16.21875 12.984375 13.921875 
Q 12.984375 10.40625 15.640625 8.0625 
Q 18.3125 5.71875 23.4375 5.71875 
Q 28.515625 5.71875 32.46875 7.9375 
Q 36.421875 10.15625 38.28125 14.015625 
Q 39.703125 17 39.703125 22.796875 
z
" id="ArialMT-97"/>
       <path d="M 6.5 0 
L 6.5 51.859375 
L 14.40625 51.859375 
L 14.40625 44 
Q 17.4375 49.515625 20 51.265625 
Q 22.5625 53.03125 25.640625 53.03125 
Q 30.078125 53.03125 34.671875 50.203125 
L 31.640625 42.046875 
Q 28.421875 43.953125 25.203125 43.953125 
Q 22.3125 43.953125 20.015625 42.21875 
Q 17.71875 40.484375 16.75 37.40625 
Q 15.28125 32.71875 15.28125 27.15625 
L 15.28125 0 
z
" id="ArialMT-114"/>
      </defs>
      <use xlink:href="#ArialMT-121"/>
      <use x="50" xlink:href="#ArialMT-101"/>
      <use x="105.615234" xlink:href="#ArialMT-97"/>
      <use x="161.230469" xlink:href="#ArialMT-114"/>
     </g>
    </g>
   </g>
   <g id="matplotlib.axis_2">
    <g id="ytick_1">
     <g id="line2d_1">
      <path clip-path="url(#paf91ca7fb5)" d="M 99 350.249487 
L 712.8 350.249487 
" style="fill:none;stroke:#cccccc;stroke-linecap:round;"/>
     </g>
     <g id="text_6">
      <!-- 0.0 -->
      <g style="fill:#262626;" transform="translate(74.21 354.186284)scale(0.11 -0.11)">
       <defs>
        <path d="M 9.078125 0 
L 9.078125 10.015625 
L 19.09375 10.015625 
L 19.09375 0 
z
" id="ArialMT-46"/>
       </defs>
       <use xlink:href="#ArialMT-48"/>
       <use x="55.615234" xlink:href="#ArialMT-46"/>
       <use x="83.398438" xlink:href="#ArialMT-48"/>
      </g>
     </g>
    </g>
    <g id="ytick_2">
     <g id="line2d_2">
      <path clip-path="url(#paf91ca7fb5)" d="M 99 294.920529 
L 712.8 294.920529 
" style="fill:none;stroke:#cccccc;stroke-linecap:round;"/>
     </g>
     <g id="text_7">
      <!-- 0.2 -->
      <g style="fill:#262626;" transform="translate(74.21 298.857326)scale(0.11 -0.11)">
       <use xlink:href="#ArialMT-48"/>
       <use x="55.615234" xlink:href="#ArialMT-46"/>
       <use x="83.398438" xlink:href="#ArialMT-50"/>
      </g>
     </g>
    </g>
    <g id="ytick_3">
     <g id="line2d_3">
      <path clip-path="url(#paf91ca7fb5)" d="M 99 239.59157 
L 712.8 239.59157 
" style="fill:none;stroke:#cccccc;stroke-linecap:round;"/>
     </g>
     <g id="text_8">
      <!-- 0.4 -->
      <g style="fill:#262626;" transform="translate(74.21 243.528367)scale(0.11 -0.11)">
       <use xlink:href="#ArialMT-48"/>
       <use x="55.615234" xlink:href="#ArialMT-46"/>
       <use x="83.398438" xlink:href="#ArialMT-52"/>
      </g>
     </g>
    </g>
    <g id="ytick_4">
     <g id="line2d_4">
      <path clip-path="url(#paf91ca7fb5)" d="M 99 184.262612 
L 712.8 184.262612 
" style="fill:none;stroke:#cccccc;stroke-linecap:round;"/>
     </g>
     <g id="text_9">
      <!-- 0.6 -->
      <g style="fill:#262626;" transform="translate(74.21 188.199408)scale(0.11 -0.11)">
       <use xlink:href="#ArialMT-48"/>
       <use x="55.615234" xlink:href="#ArialMT-46"/>
       <use x="83.398438" xlink:href="#ArialMT-54"/>
      </g>
     </g>
    </g>
    <g id="ytick_5">
     <g id="line2d_5">
      <path clip-path="url(#paf91ca7fb5)" d="M 99 128.933653 
L 712.8 128.933653 
" style="fill:none;stroke:#cccccc;stroke-linecap:round;"/>
     </g>
     <g id="text_10">
      <!-- 0.8 -->
      <g style="fill:#262626;" transform="translate(74.21 132.87045)scale(0.11 -0.11)">
       <use xlink:href="#ArialMT-48"/>
       <use x="55.615234" xlink:href="#ArialMT-46"/>
       <use x="83.398438" xlink:href="#ArialMT-56"/>
      </g>
     </g>
    </g>
    <g id="ytick_6">
     <g id="line2d_6">
      <path clip-path="url(#paf91ca7fb5)" d="M 99 73.604694 
L 712.8 73.604694 
" style="fill:none;stroke:#cccccc;stroke-linecap:round;"/>
     </g>
     <g id="text_11">
      <!-- 1.0 -->
      <g style="fill:#262626;" transform="translate(74.21 77.541491)scale(0.11 -0.11)">
       <use xlink:href="#ArialMT-49"/>
       <use x="55.615234" xlink:href="#ArialMT-46"/>
       <use x="83.398438" xlink:href="#ArialMT-48"/>
      </g>
     </g>
    </g>
    <g id="text_12">
     <!-- per_black -->
     <g style="fill:#262626;" transform="translate(67.825 240.93375)rotate(-90)scale(0.12 -0.12)">
      <defs>
       <path d="M 6.59375 -19.875 
L 6.59375 51.859375 
L 14.59375 51.859375 
L 14.59375 45.125 
Q 17.4375 49.078125 21 51.046875 
Q 24.5625 53.03125 29.640625 53.03125 
Q 36.28125 53.03125 41.359375 49.609375 
Q 46.4375 46.1875 49.015625 39.953125 
Q 51.609375 33.734375 51.609375 26.3125 
Q 51.609375 18.359375 48.75 11.984375 
Q 45.90625 5.609375 40.453125 2.21875 
Q 35.015625 -1.171875 29 -1.171875 
Q 24.609375 -1.171875 21.109375 0.6875 
Q 17.625 2.546875 15.375 5.375 
L 15.375 -19.875 
z
M 14.546875 25.640625 
Q 14.546875 15.625 18.59375 10.84375 
Q 22.65625 6.0625 28.421875 6.0625 
Q 34.28125 6.0625 38.453125 11.015625 
Q 42.625 15.96875 42.625 26.375 
Q 42.625 36.28125 38.546875 41.203125 
Q 34.46875 46.140625 28.8125 46.140625 
Q 23.1875 46.140625 18.859375 40.890625 
Q 14.546875 35.640625 14.546875 25.640625 
z
" id="ArialMT-112"/>
       <path d="M -1.515625 -19.875 
L -1.515625 -13.53125 
L 56.734375 -13.53125 
L 56.734375 -19.875 
z
" id="ArialMT-95"/>
       <path d="M 14.703125 0 
L 6.546875 0 
L 6.546875 71.578125 
L 15.328125 71.578125 
L 15.328125 46.046875 
Q 20.90625 53.03125 29.546875 53.03125 
Q 34.328125 53.03125 38.59375 51.09375 
Q 42.875 49.171875 45.625 45.671875 
Q 48.390625 42.1875 49.953125 37.25 
Q 51.515625 32.328125 51.515625 26.703125 
Q 51.515625 13.375 44.921875 6.09375 
Q 38.328125 -1.171875 29.109375 -1.171875 
Q 19.921875 -1.171875 14.703125 6.5 
z
M 14.59375 26.3125 
Q 14.59375 17 17.140625 12.84375 
Q 21.296875 6.0625 28.375 6.0625 
Q 34.125 6.0625 38.328125 11.0625 
Q 42.53125 16.0625 42.53125 25.984375 
Q 42.53125 36.140625 38.5 40.96875 
Q 34.46875 45.796875 28.765625 45.796875 
Q 23 45.796875 18.796875 40.796875 
Q 14.59375 35.796875 14.59375 26.3125 
z
" id="ArialMT-98"/>
       <path d="M 6.390625 0 
L 6.390625 71.578125 
L 15.1875 71.578125 
L 15.1875 0 
z
" id="ArialMT-108"/>
       <path d="M 40.4375 19 
L 49.078125 17.875 
Q 47.65625 8.9375 41.8125 3.875 
Q 35.984375 -1.171875 27.484375 -1.171875 
Q 16.84375 -1.171875 10.375 5.78125 
Q 3.90625 12.75 3.90625 25.734375 
Q 3.90625 34.125 6.6875 40.421875 
Q 9.46875 46.734375 15.15625 49.875 
Q 20.84375 53.03125 27.546875 53.03125 
Q 35.984375 53.03125 41.359375 48.75 
Q 46.734375 44.484375 48.25 36.625 
L 39.703125 35.296875 
Q 38.484375 40.53125 35.375 43.15625 
Q 32.28125 45.796875 27.875 45.796875 
Q 21.234375 45.796875 17.078125 41.03125 
Q 12.9375 36.28125 12.9375 25.984375 
Q 12.9375 15.53125 16.9375 10.796875 
Q 20.953125 6.0625 27.390625 6.0625 
Q 32.5625 6.0625 36.03125 9.234375 
Q 39.5 12.40625 40.4375 19 
z
" id="ArialMT-99"/>
       <path d="M 6.640625 0 
L 6.640625 71.578125 
L 15.4375 71.578125 
L 15.4375 30.765625 
L 36.234375 51.859375 
L 47.609375 51.859375 
L 27.78125 32.625 
L 49.609375 0 
L 38.765625 0 
L 21.625 26.515625 
L 15.4375 20.5625 
L 15.4375 0 
z
" id="ArialMT-107"/>
      </defs>
      <use xlink:href="#ArialMT-112"/>
      <use x="55.615234" xlink:href="#ArialMT-101"/>
      <use x="111.230469" xlink:href="#ArialMT-114"/>
      <use x="144.53125" xlink:href="#ArialMT-95"/>
      <use x="200.146484" xlink:href="#ArialMT-98"/>
      <use x="255.761719" xlink:href="#ArialMT-108"/>
      <use x="277.978516" xlink:href="#ArialMT-97"/>
      <use x="333.59375" xlink:href="#ArialMT-99"/>
      <use x="383.59375" xlink:href="#ArialMT-107"/>
     </g>
    </g>
   </g>
   <g id="PolyCollection_1">
    <defs>
     <path d="M 175.725 -73.590915 
L 173.602056 -73.590915 
L 173.050022 -76.489684 
L 172.506498 -79.388454 
L 172.026814 -82.287223 
L 171.666191 -85.185992 
L 171.468964 -88.084762 
L 171.458914 -90.983531 
L 171.633404 -93.882301 
L 171.962988 -96.78107 
L 172.396551 -99.679839 
L 172.870483 -102.578609 
L 173.319368 -105.477378 
L 173.685706 -108.376148 
L 173.926875 -111.274917 
L 174.01871 -114.173686 
L 173.956045 -117.072456 
L 173.751093 -119.971225 
L 173.430571 -122.869995 
L 173.032156 -125.768764 
L 172.60056 -128.667533 
L 172.183236 -131.566303 
L 171.825779 -134.465072 
L 171.567232 -137.363842 
L 171.435708 -140.262611 
L 171.444946 -143.16138 
L 171.592436 -146.06015 
L 171.85963 -148.958919 
L 172.214435 -151.857689 
L 172.615771 -154.756458 
L 173.019505 -157.655227 
L 173.384802 -160.553997 
L 173.679809 -163.452766 
L 173.885717 -166.351536 
L 173.998586 -169.250305 
L 174.028695 -172.149074 
L 173.997642 -175.047844 
L 173.933751 -177.946613 
L 173.866671 -180.845383 
L 173.822148 -183.744152 
L 173.817951 -186.642921 
L 173.861666 -189.541691 
L 173.950715 -192.44046 
L 174.074422 -195.33923 
L 174.21754 -198.237999 
L 174.364287 -201.136768 
L 174.501909 -204.035538 
L 174.622926 -206.934307 
L 174.725653 -209.833077 
L 174.813087 -212.731846 
L 174.890692 -215.630615 
L 174.963897 -218.529385 
L 175.036081 -221.428154 
L 175.107558 -224.326923 
L 175.175664 -227.225693 
L 175.235659 -230.124462 
L 175.281973 -233.023232 
L 175.309339 -235.922001 
L 175.313553 -238.82077 
L 175.291843 -241.71954 
L 175.243007 -244.618309 
L 175.167433 -247.517079 
L 175.066999 -250.415848 
L 174.944647 -253.314617 
L 174.803361 -256.213387 
L 174.64438 -259.112156 
L 174.464795 -262.010926 
L 174.25495 -264.909695 
L 173.996356 -267.808464 
L 173.660752 -270.707234 
L 173.210753 -273.606003 
L 172.602129 -276.504773 
L 171.787419 -279.403542 
L 170.720343 -282.302311 
L 169.360306 -285.201081 
L 167.676179 -288.09985 
L 165.648497 -290.99862 
L 163.269386 -293.897389 
L 160.539975 -296.796158 
L 157.466034 -299.694928 
L 154.053614 -302.593697 
L 150.307376 -305.492467 
L 146.234327 -308.391236 
L 141.854607 -311.290005 
L 137.21881 -314.188775 
L 132.428521 -317.087544 
L 127.654205 -319.986314 
L 123.143194 -322.885083 
L 119.211155 -325.783852 
L 116.213407 -328.682622 
L 114.497575 -331.581391 
L 114.345 -334.480161 
L 115.913327 -337.37893 
L 119.194659 -340.277699 
L 124.001432 -343.176469 
L 129.985778 -346.075238 
L 136.689494 -348.974008 
L 143.613487 -351.872777 
L 150.290675 -354.771546 
L 156.346274 -357.670316 
L 161.534025 -360.569085 
L 175.725 -360.569085 
L 175.725 -360.569085 
L 175.725 -357.670316 
L 175.725 -354.771546 
L 175.725 -351.872777 
L 175.725 -348.974008 
L 175.725 -346.075238 
L 175.725 -343.176469 
L 175.725 -340.277699 
L 175.725 -337.37893 
L 175.725 -334.480161 
L 175.725 -331.581391 
L 175.725 -328.682622 
L 175.725 -325.783852 
L 175.725 -322.885083 
L 175.725 -319.986314 
L 175.725 -317.087544 
L 175.725 -314.188775 
L 175.725 -311.290005 
L 175.725 -308.391236 
L 175.725 -305.492467 
L 175.725 -302.593697 
L 175.725 -299.694928 
L 175.725 -296.796158 
L 175.725 -293.897389 
L 175.725 -290.99862 
L 175.725 -288.09985 
L 175.725 -285.201081 
L 175.725 -282.302311 
L 175.725 -279.403542 
L 175.725 -276.504773 
L 175.725 -273.606003 
L 175.725 -270.707234 
L 175.725 -267.808464 
L 175.725 -264.909695 
L 175.725 -262.010926 
L 175.725 -259.112156 
L 175.725 -256.213387 
L 175.725 -253.314617 
L 175.725 -250.415848 
L 175.725 -247.517079 
L 175.725 -244.618309 
L 175.725 -241.71954 
L 175.725 -238.82077 
L 175.725 -235.922001 
L 175.725 -233.023232 
L 175.725 -230.124462 
L 175.725 -227.225693 
L 175.725 -224.326923 
L 175.725 -221.428154 
L 175.725 -218.529385 
L 175.725 -215.630615 
L 175.725 -212.731846 
L 175.725 -209.833077 
L 175.725 -206.934307 
L 175.725 -204.035538 
L 175.725 -201.136768 
L 175.725 -198.237999 
L 175.725 -195.33923 
L 175.725 -192.44046 
L 175.725 -189.541691 
L 175.725 -186.642921 
L 175.725 -183.744152 
L 175.725 -180.845383 
L 175.725 -177.946613 
L 175.725 -175.047844 
L 175.725 -172.149074 
L 175.725 -169.250305 
L 175.725 -166.351536 
L 175.725 -163.452766 
L 175.725 -160.553997 
L 175.725 -157.655227 
L 175.725 -154.756458 
L 175.725 -151.857689 
L 175.725 -148.958919 
L 175.725 -146.06015 
L 175.725 -143.16138 
L 175.725 -140.262611 
L 175.725 -137.363842 
L 175.725 -134.465072 
L 175.725 -131.566303 
L 175.725 -128.667533 
L 175.725 -125.768764 
L 175.725 -122.869995 
L 175.725 -119.971225 
L 175.725 -117.072456 
L 175.725 -114.173686 
L 175.725 -111.274917 
L 175.725 -108.376148 
L 175.725 -105.477378 
L 175.725 -102.578609 
L 175.725 -99.679839 
L 175.725 -96.78107 
L 175.725 -93.882301 
L 175.725 -90.983531 
L 175.725 -88.084762 
L 175.725 -85.185992 
L 175.725 -82.287223 
L 175.725 -79.388454 
L 175.725 -76.489684 
L 175.725 -73.590915 
z
" id="m78fbe852e7" style="stroke:#363636;"/>
    </defs>
    <g clip-path="url(#paf91ca7fb5)">
     <use style="fill:#176d9c;stroke:#363636;" x="0" xlink:href="#m78fbe852e7" y="432"/>
    </g>
   </g>
   <g id="PolyCollection_2">
    <defs>
     <path d="M 176.631077 -68.825455 
L 175.725 -68.825455 
L 175.725 -71.820496 
L 175.725 -74.815537 
L 175.725 -77.810579 
L 175.725 -80.80562 
L 175.725 -83.800661 
L 175.725 -86.795702 
L 175.725 -89.790744 
L 175.725 -92.785785 
L 175.725 -95.780826 
L 175.725 -98.775868 
L 175.725 -101.770909 
L 175.725 -104.76595 
L 175.725 -107.760992 
L 175.725 -110.756033 
L 175.725 -113.751074 
L 175.725 -116.746116 
L 175.725 -119.741157 
L 175.725 -122.736198 
L 175.725 -125.73124 
L 175.725 -128.726281 
L 175.725 -131.721322 
L 175.725 -134.716364 
L 175.725 -137.711405 
L 175.725 -140.706446 
L 175.725 -143.701488 
L 175.725 -146.696529 
L 175.725 -149.69157 
L 175.725 -152.686612 
L 175.725 -155.681653 
L 175.725 -158.676694 
L 175.725 -161.671736 
L 175.725 -164.666777 
L 175.725 -167.661818 
L 175.725 -170.65686 
L 175.725 -173.651901 
L 175.725 -176.646942 
L 175.725 -179.641983 
L 175.725 -182.637025 
L 175.725 -185.632066 
L 175.725 -188.627107 
L 175.725 -191.622149 
L 175.725 -194.61719 
L 175.725 -197.612231 
L 175.725 -200.607273 
L 175.725 -203.602314 
L 175.725 -206.597355 
L 175.725 -209.592397 
L 175.725 -212.587438 
L 175.725 -215.582479 
L 175.725 -218.577521 
L 175.725 -221.572562 
L 175.725 -224.567603 
L 175.725 -227.562645 
L 175.725 -230.557686 
L 175.725 -233.552727 
L 175.725 -236.547769 
L 175.725 -239.54281 
L 175.725 -242.537851 
L 175.725 -245.532893 
L 175.725 -248.527934 
L 175.725 -251.522975 
L 175.725 -254.518017 
L 175.725 -257.513058 
L 175.725 -260.508099 
L 175.725 -263.50314 
L 175.725 -266.498182 
L 175.725 -269.493223 
L 175.725 -272.488264 
L 175.725 -275.483306 
L 175.725 -278.478347 
L 175.725 -281.473388 
L 175.725 -284.46843 
L 175.725 -287.463471 
L 175.725 -290.458512 
L 175.725 -293.453554 
L 175.725 -296.448595 
L 175.725 -299.443636 
L 175.725 -302.438678 
L 175.725 -305.433719 
L 175.725 -308.42876 
L 175.725 -311.423802 
L 175.725 -314.418843 
L 175.725 -317.413884 
L 175.725 -320.408926 
L 175.725 -323.403967 
L 175.725 -326.399008 
L 175.725 -329.39405 
L 175.725 -332.389091 
L 175.725 -335.384132 
L 175.725 -338.379174 
L 175.725 -341.374215 
L 175.725 -344.369256 
L 175.725 -347.364298 
L 175.725 -350.359339 
L 175.725 -353.35438 
L 175.725 -356.349421 
L 175.725 -359.344463 
L 175.725 -362.339504 
L 175.725 -365.334545 
L 186.640721 -365.334545 
L 186.640721 -365.334545 
L 189.513857 -362.339504 
L 192.724658 -359.344463 
L 196.183913 -356.349421 
L 199.766528 -353.35438 
L 203.318086 -350.359339 
L 206.666147 -347.364298 
L 209.635237 -344.369256 
L 212.063639 -341.374215 
L 213.81965 -338.379174 
L 214.814857 -335.384132 
L 215.012418 -332.389091 
L 214.429151 -329.39405 
L 213.13129 -326.399008 
L 211.224828 -323.403967 
L 208.842228 -320.408926 
L 206.127714 -317.413884 
L 203.223364 -314.418843 
L 200.257786 -311.423802 
L 197.338474 -308.42876 
L 194.548138 -305.433719 
L 191.944584 -302.438678 
L 189.563258 -299.443636 
L 187.421337 -296.448595 
L 185.522304 -293.453554 
L 183.860198 -290.458512 
L 182.423053 -287.463471 
L 181.195368 -284.46843 
L 180.159715 -281.473388 
L 179.297707 -278.478347 
L 178.590622 -275.483306 
L 178.019904 -272.488264 
L 177.567675 -269.493223 
L 177.217303 -266.498182 
L 176.953967 -263.50314 
L 176.765139 -260.508099 
L 176.64087 -257.513058 
L 176.573789 -254.518017 
L 176.558798 -251.522975 
L 176.592442 -248.527934 
L 176.672067 -245.532893 
L 176.794861 -242.537851 
L 176.956944 -239.54281 
L 177.152681 -236.547769 
L 177.374353 -233.552727 
L 177.612282 -230.557686 
L 177.855444 -227.562645 
L 178.092458 -224.567603 
L 178.312827 -221.572562 
L 178.508181 -218.577521 
L 178.673302 -215.582479 
L 178.806739 -212.587438 
L 178.910911 -209.592397 
L 178.991707 -206.597355 
L 179.05773 -203.602314 
L 179.119373 -200.607273 
L 179.187972 -197.612231 
L 179.275207 -194.61719 
L 179.392846 -191.622149 
L 179.552802 -188.627107 
L 179.76734 -185.632066 
L 180.049228 -182.637025 
L 180.411581 -179.641983 
L 180.867206 -176.646942 
L 181.42735 -173.651901 
L 182.099882 -170.65686 
L 182.887106 -167.661818 
L 183.783494 -164.666777 
L 184.773746 -161.671736 
L 185.831622 -158.676694 
L 186.91992 -155.681653 
L 187.991881 -152.686612 
L 188.994099 -149.69157 
L 189.870762 -146.696529 
L 190.568796 -143.701488 
L 191.043254 -140.706446 
L 191.262196 -137.711405 
L 191.21029 -134.716364 
L 190.890546 -131.721322 
L 190.323898 -128.726281 
L 189.546662 -125.73124 
L 188.606316 -122.736198 
L 187.556236 -119.741157 
L 186.450223 -116.746116 
L 185.337573 -113.751074 
L 184.259307 -110.756033 
L 183.245912 -107.760992 
L 182.316677 -104.76595 
L 181.480431 -101.770909 
L 180.737347 -98.775868 
L 180.081351 -95.780826 
L 179.502701 -92.785785 
L 178.990343 -89.790744 
L 178.533776 -86.795702 
L 178.124279 -83.800661 
L 177.755478 -80.80562 
L 177.423337 -77.810579 
L 177.12573 -74.815537 
L 176.861768 -71.820496 
L 176.631077 -68.825455 
z
" id="m8d364add1f" style="stroke:#363636;"/>
    </defs>
    <g clip-path="url(#paf91ca7fb5)">
     <use style="fill:#c38820;stroke:#363636;" x="0" xlink:href="#m8d364add1f" y="432"/>
    </g>
   </g>
   <g id="PolyCollection_3">
    <defs>
     <path d="M 329.175 -75.718002 
L 327.254048 -75.718002 
L 326.616348 -78.5738 
L 325.976051 -81.429598 
L 325.42084 -84.285396 
L 325.039439 -87.141194 
L 324.898568 -89.996992 
L 325.02377 -92.85279 
L 325.391585 -95.708588 
L 325.936209 -98.564386 
L 326.567855 -101.420184 
L 327.195556 -104.275982 
L 327.746341 -107.13178 
L 328.175516 -109.987578 
L 328.467328 -112.843376 
L 328.628957 -115.699173 
L 328.682114 -118.554971 
L 328.655569 -121.410769 
L 328.579878 -124.266567 
L 328.483946 -127.122365 
L 328.392478 -129.978163 
L 328.323829 -132.833961 
L 328.288536 -135.689759 
L 328.289119 -138.545557 
L 328.321441 -141.401355 
L 328.377204 -144.257153 
L 328.446585 -147.112951 
L 328.520048 -149.968749 
L 328.58889 -152.824547 
L 328.644906 -155.680344 
L 328.680041 -158.536142 
L 328.686933 -161.39194 
L 328.660667 -164.247738 
L 328.601265 -167.103536 
L 328.515751 -169.959334 
L 328.41846 -172.815132 
L 328.328748 -175.67093 
L 328.266298 -178.526728 
L 328.245353 -181.382526 
L 328.269873 -184.238324 
L 328.331469 -187.094122 
L 328.410997 -189.94992 
L 328.483413 -192.805718 
L 328.524409 -195.661516 
L 328.51692 -198.517313 
L 328.455705 -201.373111 
L 328.348747 -204.228909 
L 328.214887 -207.084707 
L 328.078045 -209.940505 
L 327.959422 -212.796303 
L 327.870114 -215.652101 
L 327.806943 -218.507899 
L 327.75356 -221.363697 
L 327.686996 -224.219495 
L 327.587422 -227.075293 
L 327.44707 -229.931091 
L 327.274164 -232.786889 
L 327.0895 -235.642687 
L 326.916612 -238.498484 
L 326.769705 -241.354282 
L 326.645275 -244.21008 
L 326.522275 -247.065878 
L 326.372034 -249.921676 
L 326.174197 -252.777474 
L 325.93119 -255.633272 
L 325.673285 -258.48907 
L 325.450049 -261.344868 
L 325.310281 -264.200666 
L 325.278315 -267.056464 
L 325.336709 -269.912262 
L 325.422412 -272.76806 
L 325.437248 -275.623858 
L 325.267506 -278.479656 
L 324.804782 -281.335453 
L 323.961947 -284.191251 
L 322.682054 -287.047049 
L 320.9412 -289.902847 
L 318.746711 -292.758645 
L 316.130697 -295.614443 
L 313.138416 -298.470241 
L 309.812971 -301.326039 
L 306.181623 -304.181837 
L 302.251122 -307.037635 
L 298.017302 -309.893433 
L 293.488383 -312.749231 
L 288.715473 -315.605029 
L 283.821223 -318.460827 
L 279.018791 -321.316624 
L 274.615649 -324.172422 
L 270.997831 -327.02822 
L 268.590654 -329.884018 
L 267.795 -332.739816 
L 268.906096 -335.595614 
L 272.032553 -338.451412 
L 277.041059 -341.30721 
L 283.550337 -344.163008 
L 290.984587 -347.018806 
L 298.676293 -349.874604 
L 305.989798 -352.730402 
L 312.429574 -355.5862 
L 317.703952 -358.441998 
L 329.175 -358.441998 
L 329.175 -358.441998 
L 329.175 -355.5862 
L 329.175 -352.730402 
L 329.175 -349.874604 
L 329.175 -347.018806 
L 329.175 -344.163008 
L 329.175 -341.30721 
L 329.175 -338.451412 
L 329.175 -335.595614 
L 329.175 -332.739816 
L 329.175 -329.884018 
L 329.175 -327.02822 
L 329.175 -324.172422 
L 329.175 -321.316624 
L 329.175 -318.460827 
L 329.175 -315.605029 
L 329.175 -312.749231 
L 329.175 -309.893433 
L 329.175 -307.037635 
L 329.175 -304.181837 
L 329.175 -301.326039 
L 329.175 -298.470241 
L 329.175 -295.614443 
L 329.175 -292.758645 
L 329.175 -289.902847 
L 329.175 -287.047049 
L 329.175 -284.191251 
L 329.175 -281.335453 
L 329.175 -278.479656 
L 329.175 -275.623858 
L 329.175 -272.76806 
L 329.175 -269.912262 
L 329.175 -267.056464 
L 329.175 -264.200666 
L 329.175 -261.344868 
L 329.175 -258.48907 
L 329.175 -255.633272 
L 329.175 -252.777474 
L 329.175 -249.921676 
L 329.175 -247.065878 
L 329.175 -244.21008 
L 329.175 -241.354282 
L 329.175 -238.498484 
L 329.175 -235.642687 
L 329.175 -232.786889 
L 329.175 -229.931091 
L 329.175 -227.075293 
L 329.175 -224.219495 
L 329.175 -221.363697 
L 329.175 -218.507899 
L 329.175 -215.652101 
L 329.175 -212.796303 
L 329.175 -209.940505 
L 329.175 -207.084707 
L 329.175 -204.228909 
L 329.175 -201.373111 
L 329.175 -198.517313 
L 329.175 -195.661516 
L 329.175 -192.805718 
L 329.175 -189.94992 
L 329.175 -187.094122 
L 329.175 -184.238324 
L 329.175 -181.382526 
L 329.175 -178.526728 
L 329.175 -175.67093 
L 329.175 -172.815132 
L 329.175 -169.959334 
L 329.175 -167.103536 
L 329.175 -164.247738 
L 329.175 -161.39194 
L 329.175 -158.536142 
L 329.175 -155.680344 
L 329.175 -152.824547 
L 329.175 -149.968749 
L 329.175 -147.112951 
L 329.175 -144.257153 
L 329.175 -141.401355 
L 329.175 -138.545557 
L 329.175 -135.689759 
L 329.175 -132.833961 
L 329.175 -129.978163 
L 329.175 -127.122365 
L 329.175 -124.266567 
L 329.175 -121.410769 
L 329.175 -118.554971 
L 329.175 -115.699173 
L 329.175 -112.843376 
L 329.175 -109.987578 
L 329.175 -107.13178 
L 329.175 -104.275982 
L 329.175 -101.420184 
L 329.175 -98.564386 
L 329.175 -95.708588 
L 329.175 -92.85279 
L 329.175 -89.996992 
L 329.175 -87.141194 
L 329.175 -84.285396 
L 329.175 -81.429598 
L 329.175 -78.5738 
L 329.175 -75.718002 
z
" id="maaad445f55" style="stroke:#363636;"/>
    </defs>
    <g clip-path="url(#paf91ca7fb5)">
     <use style="fill:#176d9c;stroke:#363636;" x="0" xlink:href="#maaad445f55" y="432"/>
    </g>
   </g>
   <g id="PolyCollection_4">
    <defs>
     <path d="M 329.608762 -75.746361 
L 329.175 -75.746361 
L 329.175 -78.629201 
L 329.175 -81.512041 
L 329.175 -84.394881 
L 329.175 -87.277722 
L 329.175 -90.160562 
L 329.175 -93.043402 
L 329.175 -95.926242 
L 329.175 -98.809082 
L 329.175 -101.691922 
L 329.175 -104.574763 
L 329.175 -107.457603 
L 329.175 -110.340443 
L 329.175 -113.223283 
L 329.175 -116.106123 
L 329.175 -118.988963 
L 329.175 -121.871804 
L 329.175 -124.754644 
L 329.175 -127.637484 
L 329.175 -130.520324 
L 329.175 -133.403164 
L 329.175 -136.286005 
L 329.175 -139.168845 
L 329.175 -142.051685 
L 329.175 -144.934525 
L 329.175 -147.817365 
L 329.175 -150.700205 
L 329.175 -153.583046 
L 329.175 -156.465886 
L 329.175 -159.348726 
L 329.175 -162.231566 
L 329.175 -165.114406 
L 329.175 -167.997246 
L 329.175 -170.880087 
L 329.175 -173.762927 
L 329.175 -176.645767 
L 329.175 -179.528607 
L 329.175 -182.411447 
L 329.175 -185.294287 
L 329.175 -188.177128 
L 329.175 -191.059968 
L 329.175 -193.942808 
L 329.175 -196.825648 
L 329.175 -199.708488 
L 329.175 -202.591328 
L 329.175 -205.474169 
L 329.175 -208.357009 
L 329.175 -211.239849 
L 329.175 -214.122689 
L 329.175 -217.005529 
L 329.175 -219.88837 
L 329.175 -222.77121 
L 329.175 -225.65405 
L 329.175 -228.53689 
L 329.175 -231.41973 
L 329.175 -234.30257 
L 329.175 -237.185411 
L 329.175 -240.068251 
L 329.175 -242.951091 
L 329.175 -245.833931 
L 329.175 -248.716771 
L 329.175 -251.599611 
L 329.175 -254.482452 
L 329.175 -257.365292 
L 329.175 -260.248132 
L 329.175 -263.130972 
L 329.175 -266.013812 
L 329.175 -268.896652 
L 329.175 -271.779493 
L 329.175 -274.662333 
L 329.175 -277.545173 
L 329.175 -280.428013 
L 329.175 -283.310853 
L 329.175 -286.193693 
L 329.175 -289.076534 
L 329.175 -291.959374 
L 329.175 -294.842214 
L 329.175 -297.725054 
L 329.175 -300.607894 
L 329.175 -303.490734 
L 329.175 -306.373575 
L 329.175 -309.256415 
L 329.175 -312.139255 
L 329.175 -315.022095 
L 329.175 -317.904935 
L 329.175 -320.787776 
L 329.175 -323.670616 
L 329.175 -326.553456 
L 329.175 -329.436296 
L 329.175 -332.319136 
L 329.175 -335.201976 
L 329.175 -338.084817 
L 329.175 -340.967657 
L 329.175 -343.850497 
L 329.175 -346.733337 
L 329.175 -349.616177 
L 329.175 -352.499017 
L 329.175 -355.381858 
L 329.175 -358.264698 
L 329.175 -361.147538 
L 342.238491 -361.147538 
L 342.238491 -361.147538 
L 346.783056 -358.264698 
L 352.054757 -355.381858 
L 357.852141 -352.499017 
L 363.869031 -349.616177 
L 369.720126 -346.733337 
L 374.985733 -343.850497 
L 379.268349 -340.967657 
L 382.249856 -338.084817 
L 383.737076 -335.201976 
L 383.685845 -332.319136 
L 382.198941 -329.436296 
L 379.499648 -326.553456 
L 375.888329 -323.670616 
L 371.692595 -320.787776 
L 367.221761 -317.904935 
L 362.73368 -315.022095 
L 358.417758 -312.139255 
L 354.393627 -309.256415 
L 350.721565 -306.373575 
L 347.419147 -303.490734 
L 344.478722 -300.607894 
L 341.881704 -297.725054 
L 339.607706 -294.842214 
L 337.638433 -291.959374 
L 335.957632 -289.076534 
L 334.548933 -286.193693 
L 333.393338 -283.310853 
L 332.467532 -280.428013 
L 331.743584 -277.545173 
L 331.189993 -274.662333 
L 330.773736 -271.779493 
L 330.46279 -268.896652 
L 330.228575 -266.013812 
L 330.047869 -263.130972 
L 329.903869 -260.248132 
L 329.786257 -257.365292 
L 329.690352 -254.482452 
L 329.615573 -251.599611 
L 329.563574 -248.716771 
L 329.536372 -245.833931 
L 329.534793 -242.951091 
L 329.557411 -240.068251 
L 329.600103 -237.185411 
L 329.656245 -234.30257 
L 329.717513 -231.41973 
L 329.775163 -228.53689 
L 329.821608 -225.65405 
L 329.851976 -222.77121 
L 329.86535 -219.88837 
L 329.865365 -217.005529 
L 329.859967 -214.122689 
L 329.860259 -211.239849 
L 329.878565 -208.357009 
L 329.925993 -205.474169 
L 330.009921 -202.591328 
L 330.131952 -199.708488 
L 330.286863 -196.825648 
L 330.463002 -193.942808 
L 330.644316 -191.059968 
L 330.813848 -188.177128 
L 330.958091 -185.294287 
L 331.071276 -182.411447 
L 331.15853 -179.528607 
L 331.237037 -176.645767 
L 331.334746 -173.762927 
L 331.486739 -170.880087 
L 331.72986 -167.997246 
L 332.096451 -165.114406 
L 332.608138 -162.231566 
L 333.27043 -159.348726 
L 334.068824 -156.465886 
L 334.966995 -153.583046 
L 335.907688 -150.700205 
L 336.816833 -147.817365 
L 337.611049 -144.934525 
L 338.208086 -142.051685 
L 338.538839 -139.168845 
L 338.558764 -136.286005 
L 338.256209 -133.403164 
L 337.655469 -130.520324 
L 336.813545 -127.637484 
L 335.81109 -124.754644 
L 334.739521 -121.871804 
L 333.68717 -118.988963 
L 332.727404 -116.106123 
L 331.910836 -113.223283 
L 331.262521 -110.340443 
L 330.783724 -107.457603 
L 330.45696 -104.574763 
L 330.252671 -101.691922 
L 330.136017 -98.809082 
L 330.072726 -95.926242 
L 330.033399 -93.043402 
L 329.996094 -90.160562 
L 329.947275 -87.277722 
L 329.881347 -84.394881 
L 329.799159 -81.512041 
L 329.705888 -78.629201 
L 329.608762 -75.746361 
z
" id="m3374478222" style="stroke:#363636;"/>
    </defs>
    <g clip-path="url(#paf91ca7fb5)">
     <use style="fill:#c38820;stroke:#363636;" x="0" xlink:href="#m3374478222" y="432"/>
    </g>
   </g>
   <g id="PolyCollection_5">
    <defs>
     <path d="M 482.625 -73.866421 
L 480.261879 -73.866421 
L 479.6215 -76.759625 
L 478.986265 -79.652828 
L 478.422516 -82.546032 
L 477.997364 -85.439236 
L 477.765416 -88.332439 
L 477.756826 -91.225643 
L 477.970121 -94.118846 
L 478.371911 -97.01205 
L 478.903447 -99.905254 
L 479.491959 -102.798457 
L 480.063495 -105.691661 
L 480.554137 -108.584864 
L 480.917573 -111.478068 
L 481.128552 -114.371272 
L 481.182977 -117.264475 
L 481.095805 -120.157679 
L 480.897694 -123.050883 
L 480.630739 -125.944086 
L 480.343223 -128.83729 
L 480.083388 -131.730493 
L 479.892704 -134.623697 
L 479.799743 -137.516901 
L 479.816016 -140.410104 
L 479.9349 -143.303308 
L 480.133961 -146.196511 
L 480.380058 -149.089715 
L 480.635889 -151.982919 
L 480.866444 -154.876122 
L 481.044176 -157.769326 
L 481.152295 -160.66253 
L 481.186151 -163.555733 
L 481.152982 -166.448937 
L 481.070263 -169.34214 
L 480.962845 -172.235344 
L 480.859022 -175.128548 
L 480.785906 -178.021751 
L 480.764802 -180.914955 
L 480.807546 -183.808158 
L 480.91468 -186.701362 
L 481.075967 -189.594566 
L 481.273065 -192.487769 
L 481.483619 -195.380973 
L 481.685685 -198.274177 
L 481.861468 -201.16738 
L 481.999719 -204.060584 
L 482.096551 -206.953787 
L 482.15487 -209.846991 
L 482.182768 -212.740195 
L 482.191339 -215.633398 
L 482.192338 -218.526602 
L 482.196043 -221.419805 
L 482.209686 -224.313009 
L 482.236659 -227.206213 
L 482.27658 -230.099416 
L 482.326117 -232.99262 
L 482.380251 -235.885823 
L 482.433617 -238.779027 
L 482.481523 -241.672231 
L 482.520431 -244.565434 
L 482.547808 -247.458638 
L 482.561426 -250.351842 
L 482.558253 -253.245045 
L 482.533133 -256.138249 
L 482.47739 -259.031452 
L 482.377539 -261.924656 
L 482.214247 -264.81786 
L 481.961742 -267.711063 
L 481.587909 -270.604267 
L 481.055295 -273.49747 
L 480.323221 -276.390674 
L 479.351007 -279.283878 
L 478.10204 -282.177081 
L 476.547979 -285.070285 
L 474.671999 -287.963489 
L 472.469815 -290.856692 
L 469.947559 -293.749896 
L 467.116546 -296.643099 
L 463.986391 -299.536303 
L 460.559297 -302.429507 
L 456.829006 -305.32271 
L 452.787319 -308.215914 
L 448.43918 -311.109117 
L 443.824487 -314.002321 
L 439.041821 -316.895525 
L 434.267111 -319.788728 
L 429.759681 -322.681932 
L 425.84964 -325.575136 
L 422.904314 -328.468339 
L 421.27675 -331.361543 
L 421.245 -334.254746 
L 422.955182 -337.14795 
L 426.382439 -340.041154 
L 431.320916 -342.934357 
L 437.407216 -345.827561 
L 444.173293 -348.720764 
L 451.117082 -351.613968 
L 457.77489 -354.507172 
L 463.779965 -357.400375 
L 468.896516 -360.293579 
L 482.625 -360.293579 
L 482.625 -360.293579 
L 482.625 -357.400375 
L 482.625 -354.507172 
L 482.625 -351.613968 
L 482.625 -348.720764 
L 482.625 -345.827561 
L 482.625 -342.934357 
L 482.625 -340.041154 
L 482.625 -337.14795 
L 482.625 -334.254746 
L 482.625 -331.361543 
L 482.625 -328.468339 
L 482.625 -325.575136 
L 482.625 -322.681932 
L 482.625 -319.788728 
L 482.625 -316.895525 
L 482.625 -314.002321 
L 482.625 -311.109117 
L 482.625 -308.215914 
L 482.625 -305.32271 
L 482.625 -302.429507 
L 482.625 -299.536303 
L 482.625 -296.643099 
L 482.625 -293.749896 
L 482.625 -290.856692 
L 482.625 -287.963489 
L 482.625 -285.070285 
L 482.625 -282.177081 
L 482.625 -279.283878 
L 482.625 -276.390674 
L 482.625 -273.49747 
L 482.625 -270.604267 
L 482.625 -267.711063 
L 482.625 -264.81786 
L 482.625 -261.924656 
L 482.625 -259.031452 
L 482.625 -256.138249 
L 482.625 -253.245045 
L 482.625 -250.351842 
L 482.625 -247.458638 
L 482.625 -244.565434 
L 482.625 -241.672231 
L 482.625 -238.779027 
L 482.625 -235.885823 
L 482.625 -232.99262 
L 482.625 -230.099416 
L 482.625 -227.206213 
L 482.625 -224.313009 
L 482.625 -221.419805 
L 482.625 -218.526602 
L 482.625 -215.633398 
L 482.625 -212.740195 
L 482.625 -209.846991 
L 482.625 -206.953787 
L 482.625 -204.060584 
L 482.625 -201.16738 
L 482.625 -198.274177 
L 482.625 -195.380973 
L 482.625 -192.487769 
L 482.625 -189.594566 
L 482.625 -186.701362 
L 482.625 -183.808158 
L 482.625 -180.914955 
L 482.625 -178.021751 
L 482.625 -175.128548 
L 482.625 -172.235344 
L 482.625 -169.34214 
L 482.625 -166.448937 
L 482.625 -163.555733 
L 482.625 -160.66253 
L 482.625 -157.769326 
L 482.625 -154.876122 
L 482.625 -151.982919 
L 482.625 -149.089715 
L 482.625 -146.196511 
L 482.625 -143.303308 
L 482.625 -140.410104 
L 482.625 -137.516901 
L 482.625 -134.623697 
L 482.625 -131.730493 
L 482.625 -128.83729 
L 482.625 -125.944086 
L 482.625 -123.050883 
L 482.625 -120.157679 
L 482.625 -117.264475 
L 482.625 -114.371272 
L 482.625 -111.478068 
L 482.625 -108.584864 
L 482.625 -105.691661 
L 482.625 -102.798457 
L 482.625 -99.905254 
L 482.625 -97.01205 
L 482.625 -94.118846 
L 482.625 -91.225643 
L 482.625 -88.332439 
L 482.625 -85.439236 
L 482.625 -82.546032 
L 482.625 -79.652828 
L 482.625 -76.759625 
L 482.625 -73.866421 
z
" id="m35a5b69046" style="stroke:#363636;"/>
    </defs>
    <g clip-path="url(#paf91ca7fb5)">
     <use style="fill:#176d9c;stroke:#363636;" x="0" xlink:href="#m35a5b69046" y="432"/>
    </g>
   </g>
   <g id="PolyCollection_6">
    <defs>
     <path d="M 483.12757 -77.788213 
L 482.625 -77.788213 
L 482.625 -80.652558 
L 482.625 -83.516904 
L 482.625 -86.381249 
L 482.625 -89.245595 
L 482.625 -92.10994 
L 482.625 -94.974286 
L 482.625 -97.838631 
L 482.625 -100.702977 
L 482.625 -103.567322 
L 482.625 -106.431668 
L 482.625 -109.296013 
L 482.625 -112.160358 
L 482.625 -115.024704 
L 482.625 -117.889049 
L 482.625 -120.753395 
L 482.625 -123.61774 
L 482.625 -126.482086 
L 482.625 -129.346431 
L 482.625 -132.210777 
L 482.625 -135.075122 
L 482.625 -137.939468 
L 482.625 -140.803813 
L 482.625 -143.668159 
L 482.625 -146.532504 
L 482.625 -149.39685 
L 482.625 -152.261195 
L 482.625 -155.125541 
L 482.625 -157.989886 
L 482.625 -160.854232 
L 482.625 -163.718577 
L 482.625 -166.582922 
L 482.625 -169.447268 
L 482.625 -172.311613 
L 482.625 -175.175959 
L 482.625 -178.040304 
L 482.625 -180.90465 
L 482.625 -183.768995 
L 482.625 -186.633341 
L 482.625 -189.497686 
L 482.625 -192.362032 
L 482.625 -195.226377 
L 482.625 -198.090723 
L 482.625 -200.955068 
L 482.625 -203.819414 
L 482.625 -206.683759 
L 482.625 -209.548105 
L 482.625 -212.41245 
L 482.625 -215.276796 
L 482.625 -218.141141 
L 482.625 -221.005486 
L 482.625 -223.869832 
L 482.625 -226.734177 
L 482.625 -229.598523 
L 482.625 -232.462868 
L 482.625 -235.327214 
L 482.625 -238.191559 
L 482.625 -241.055905 
L 482.625 -243.92025 
L 482.625 -246.784596 
L 482.625 -249.648941 
L 482.625 -252.513287 
L 482.625 -255.377632 
L 482.625 -258.241978 
L 482.625 -261.106323 
L 482.625 -263.970669 
L 482.625 -266.835014 
L 482.625 -269.69936 
L 482.625 -272.563705 
L 482.625 -275.428051 
L 482.625 -278.292396 
L 482.625 -281.156741 
L 482.625 -284.021087 
L 482.625 -286.885432 
L 482.625 -289.749778 
L 482.625 -292.614123 
L 482.625 -295.478469 
L 482.625 -298.342814 
L 482.625 -301.20716 
L 482.625 -304.071505 
L 482.625 -306.935851 
L 482.625 -309.800196 
L 482.625 -312.664542 
L 482.625 -315.528887 
L 482.625 -318.393233 
L 482.625 -321.257578 
L 482.625 -324.121924 
L 482.625 -326.986269 
L 482.625 -329.850615 
L 482.625 -332.71496 
L 482.625 -335.579305 
L 482.625 -338.443651 
L 482.625 -341.307996 
L 482.625 -344.172342 
L 482.625 -347.036687 
L 482.625 -349.901033 
L 482.625 -352.765378 
L 482.625 -355.629724 
L 482.625 -358.494069 
L 482.625 -361.358415 
L 493.940355 -361.358415 
L 493.940355 -361.358415 
L 497.739438 -358.494069 
L 502.158427 -355.629724 
L 507.067498 -352.765378 
L 512.261996 -349.901033 
L 517.475648 -347.036687 
L 522.405757 -344.172342 
L 526.747014 -341.307996 
L 530.228329 -338.443651 
L 532.646027 -335.579305 
L 533.887208 -332.71496 
L 533.93911 -329.850615 
L 532.883227 -326.986269 
L 530.876205 -324.121924 
L 528.122076 -321.257578 
L 524.841848 -318.393233 
L 521.246286 -315.528887 
L 517.516275 -312.664542 
L 513.792845 -309.800196 
L 510.176448 -306.935851 
L 506.733136 -304.071505 
L 503.504233 -301.20716 
L 500.516152 -298.342814 
L 497.787868 -295.478469 
L 495.334857 -292.614123 
L 493.169615 -289.749778 
L 491.299775 -286.885432 
L 489.725258 -284.021087 
L 488.43584 -281.156741 
L 487.41014 -278.292396 
L 486.616516 -275.428051 
L 486.015832 -272.563705 
L 485.565558 -269.69936 
L 485.224409 -266.835014 
L 484.956548 -263.970669 
L 484.734554 -261.106323 
L 484.540625 -258.241978 
L 484.365996 -255.377632 
L 484.208924 -252.513287 
L 484.071889 -249.648941 
L 483.958734 -246.784596 
L 483.872294 -243.92025 
L 483.81285 -241.055905 
L 483.777503 -238.191559 
L 483.760397 -235.327214 
L 483.75366 -232.462868 
L 483.748875 -229.598523 
L 483.73886 -226.734177 
L 483.719481 -223.869832 
L 483.691123 -221.005486 
L 483.659484 -218.141141 
L 483.635365 -215.276796 
L 483.633348 -212.41245 
L 483.66943 -209.548105 
L 483.757935 -206.683759 
L 483.908232 -203.819414 
L 484.121902 -200.955068 
L 484.391047 -198.090723 
L 484.698328 -195.226377 
L 485.019043 -192.362032 
L 485.325153 -189.497686 
L 485.590666 -186.633341 
L 485.797334 -183.768995 
L 485.939405 -180.90465 
L 486.026276 -178.040304 
L 486.082293 -175.175959 
L 486.143618 -172.311613 
L 486.252688 -169.447268 
L 486.45127 -166.582922 
L 486.773255 -163.718577 
L 487.238241 -160.854232 
L 487.846717 -157.989886 
L 488.577443 -155.125541 
L 489.387448 -152.261195 
L 490.21495 -149.39685 
L 490.985303 -146.532504 
L 491.619657 -143.668159 
L 492.045476 -140.803813 
L 492.207375 -137.939468 
L 492.076299 -135.075122 
L 491.655063 -132.210777 
L 490.97878 -129.346431 
L 490.109784 -126.482086 
L 489.127903 -123.61774 
L 488.11806 -120.753395 
L 487.157758 -117.889049 
L 486.306934 -115.024704 
L 485.601916 -112.160358 
L 485.054178 -109.296013 
L 484.653438 -106.431668 
L 484.373828 -103.567322 
L 484.181466 -100.702977 
L 484.041753 -97.838631 
L 483.92515 -94.974286 
L 483.810678 -92.10994 
L 483.687023 -89.245595 
L 483.551591 -86.381249 
L 483.40819 -83.516904 
L 483.264145 -80.652558 
L 483.12757 -77.788213 
z
" id="m28590c2e51" style="stroke:#363636;"/>
    </defs>
    <g clip-path="url(#paf91ca7fb5)">
     <use style="fill:#c38820;stroke:#363636;" x="0" xlink:href="#m28590c2e51" y="432"/>
    </g>
   </g>
   <g id="PolyCollection_7">
    <defs>
     <path d="M 636.075 -70.800554 
L 632.377961 -70.800554 
L 631.556216 -73.755695 
L 630.726968 -76.710835 
L 629.94467 -79.665975 
L 629.26655 -82.621115 
L 628.744822 -85.576256 
L 628.418685 -88.531396 
L 628.307634 -91.486536 
L 628.407494 -94.441677 
L 628.690086 -97.396817 
L 629.106714 -100.351957 
L 629.594925 -103.307098 
L 630.087358 -106.262238 
L 630.521194 -109.217378 
L 630.84666 -112.172519 
L 631.033319 -115.127659 
L 631.073289 -118.082799 
L 630.981059 -121.03794 
L 630.79009 -123.99308 
L 630.54683 -126.94822 
L 630.303146 -129.903361 
L 630.108378 -132.858501 
L 630.002276 -135.813641 
L 630.009876 -138.768782 
L 630.139038 -141.723922 
L 630.380851 -144.679062 
L 630.712612 -147.634203 
L 631.102607 -150.589343 
L 631.515714 -153.544483 
L 631.918801 -156.499623 
L 632.285075 -159.454764 
L 632.596856 -162.409904 
L 632.846621 -165.365044 
L 633.036423 -168.320185 
L 633.176078 -171.275325 
L 633.280539 -174.230465 
L 633.366977 -177.185606 
L 633.451975 -180.140746 
L 633.549204 -183.095886 
L 633.667828 -186.051027 
L 633.811747 -189.006167 
L 633.979696 -191.961307 
L 634.166041 -194.916448 
L 634.362086 -197.871588 
L 634.557596 -200.826728 
L 634.742281 -203.781869 
L 634.907009 -206.737009 
L 635.044634 -209.692149 
L 635.150382 -212.64729 
L 635.221856 -215.60243 
L 635.25876 -218.55757 
L 635.262456 -221.51271 
L 635.235474 -224.467851 
L 635.181038 -227.422991 
L 635.102666 -230.378131 
L 635.003842 -233.333272 
L 634.887786 -236.288412 
L 634.757307 -239.243552 
L 634.614718 -242.198693 
L 634.461765 -245.153833 
L 634.299474 -248.108973 
L 634.127797 -251.064114 
L 633.944955 -254.019254 
L 633.746421 -256.974394 
L 633.523636 -259.929535 
L 633.262664 -262.884675 
L 632.943107 -265.839815 
L 632.537661 -268.794956 
L 632.012581 -271.750096 
L 631.329172 -274.705236 
L 630.446184 -277.660377 
L 629.322729 -280.615517 
L 627.921212 -283.570657 
L 626.209744 -286.525797 
L 624.163685 -289.480938 
L 621.766248 -292.436078 
L 619.008537 -295.391218 
L 615.889724 -298.346359 
L 612.418312 -301.301499 
L 608.615303 -304.256639 
L 604.519688 -307.21178 
L 600.195843 -310.16692 
L 595.74148 -313.12206 
L 591.293903 -316.077201 
L 587.031836 -319.032341 
L 583.170323 -321.987481 
L 579.9472 -324.942622 
L 577.601384 -327.897762 
L 576.345299 -330.852902 
L 576.335655 -333.808043 
L 577.647901 -336.763183 
L 580.259627 -339.718323 
L 584.0468 -342.673464 
L 588.794327 -345.628604 
L 594.219529 -348.583744 
L 600.004523 -351.538885 
L 605.831823 -354.494025 
L 611.417135 -357.449165 
L 616.534326 -360.404305 
L 621.029534 -363.359446 
L 636.075 -363.359446 
L 636.075 -363.359446 
L 636.075 -360.404305 
L 636.075 -357.449165 
L 636.075 -354.494025 
L 636.075 -351.538885 
L 636.075 -348.583744 
L 636.075 -345.628604 
L 636.075 -342.673464 
L 636.075 -339.718323 
L 636.075 -336.763183 
L 636.075 -333.808043 
L 636.075 -330.852902 
L 636.075 -327.897762 
L 636.075 -324.942622 
L 636.075 -321.987481 
L 636.075 -319.032341 
L 636.075 -316.077201 
L 636.075 -313.12206 
L 636.075 -310.16692 
L 636.075 -307.21178 
L 636.075 -304.256639 
L 636.075 -301.301499 
L 636.075 -298.346359 
L 636.075 -295.391218 
L 636.075 -292.436078 
L 636.075 -289.480938 
L 636.075 -286.525797 
L 636.075 -283.570657 
L 636.075 -280.615517 
L 636.075 -277.660377 
L 636.075 -274.705236 
L 636.075 -271.750096 
L 636.075 -268.794956 
L 636.075 -265.839815 
L 636.075 -262.884675 
L 636.075 -259.929535 
L 636.075 -256.974394 
L 636.075 -254.019254 
L 636.075 -251.064114 
L 636.075 -248.108973 
L 636.075 -245.153833 
L 636.075 -242.198693 
L 636.075 -239.243552 
L 636.075 -236.288412 
L 636.075 -233.333272 
L 636.075 -230.378131 
L 636.075 -227.422991 
L 636.075 -224.467851 
L 636.075 -221.51271 
L 636.075 -218.55757 
L 636.075 -215.60243 
L 636.075 -212.64729 
L 636.075 -209.692149 
L 636.075 -206.737009 
L 636.075 -203.781869 
L 636.075 -200.826728 
L 636.075 -197.871588 
L 636.075 -194.916448 
L 636.075 -191.961307 
L 636.075 -189.006167 
L 636.075 -186.051027 
L 636.075 -183.095886 
L 636.075 -180.140746 
L 636.075 -177.185606 
L 636.075 -174.230465 
L 636.075 -171.275325 
L 636.075 -168.320185 
L 636.075 -165.365044 
L 636.075 -162.409904 
L 636.075 -159.454764 
L 636.075 -156.499623 
L 636.075 -153.544483 
L 636.075 -150.589343 
L 636.075 -147.634203 
L 636.075 -144.679062 
L 636.075 -141.723922 
L 636.075 -138.768782 
L 636.075 -135.813641 
L 636.075 -132.858501 
L 636.075 -129.903361 
L 636.075 -126.94822 
L 636.075 -123.99308 
L 636.075 -121.03794 
L 636.075 -118.082799 
L 636.075 -115.127659 
L 636.075 -112.172519 
L 636.075 -109.217378 
L 636.075 -106.262238 
L 636.075 -103.307098 
L 636.075 -100.351957 
L 636.075 -97.396817 
L 636.075 -94.441677 
L 636.075 -91.486536 
L 636.075 -88.531396 
L 636.075 -85.576256 
L 636.075 -82.621115 
L 636.075 -79.665975 
L 636.075 -76.710835 
L 636.075 -73.755695 
L 636.075 -70.800554 
z
" id="m2947eedc95" style="stroke:#363636;"/>
    </defs>
    <g clip-path="url(#paf91ca7fb5)">
     <use style="fill:#176d9c;stroke:#363636;" x="0" xlink:href="#m2947eedc95" y="432"/>
    </g>
   </g>
   <g id="PolyCollection_8">
    <defs>
     <path d="M 636.259673 -76.994979 
L 636.075 -76.994979 
L 636.075 -79.875349 
L 636.075 -82.75572 
L 636.075 -85.63609 
L 636.075 -88.51646 
L 636.075 -91.396831 
L 636.075 -94.277201 
L 636.075 -97.157572 
L 636.075 -100.037942 
L 636.075 -102.918312 
L 636.075 -105.798683 
L 636.075 -108.679053 
L 636.075 -111.559424 
L 636.075 -114.439794 
L 636.075 -117.320164 
L 636.075 -120.200535 
L 636.075 -123.080905 
L 636.075 -125.961276 
L 636.075 -128.841646 
L 636.075 -131.722016 
L 636.075 -134.602387 
L 636.075 -137.482757 
L 636.075 -140.363128 
L 636.075 -143.243498 
L 636.075 -146.123868 
L 636.075 -149.004239 
L 636.075 -151.884609 
L 636.075 -154.76498 
L 636.075 -157.64535 
L 636.075 -160.52572 
L 636.075 -163.406091 
L 636.075 -166.286461 
L 636.075 -169.166832 
L 636.075 -172.047202 
L 636.075 -174.927573 
L 636.075 -177.807943 
L 636.075 -180.688313 
L 636.075 -183.568684 
L 636.075 -186.449054 
L 636.075 -189.329425 
L 636.075 -192.209795 
L 636.075 -195.090165 
L 636.075 -197.970536 
L 636.075 -200.850906 
L 636.075 -203.731277 
L 636.075 -206.611647 
L 636.075 -209.492017 
L 636.075 -212.372388 
L 636.075 -215.252758 
L 636.075 -218.133129 
L 636.075 -221.013499 
L 636.075 -223.893869 
L 636.075 -226.77424 
L 636.075 -229.65461 
L 636.075 -232.534981 
L 636.075 -235.415351 
L 636.075 -238.295721 
L 636.075 -241.176092 
L 636.075 -244.056462 
L 636.075 -246.936833 
L 636.075 -249.817203 
L 636.075 -252.697573 
L 636.075 -255.577944 
L 636.075 -258.458314 
L 636.075 -261.338685 
L 636.075 -264.219055 
L 636.075 -267.099425 
L 636.075 -269.979796 
L 636.075 -272.860166 
L 636.075 -275.740537 
L 636.075 -278.620907 
L 636.075 -281.501277 
L 636.075 -284.381648 
L 636.075 -287.262018 
L 636.075 -290.142389 
L 636.075 -293.022759 
L 636.075 -295.903129 
L 636.075 -298.7835 
L 636.075 -301.66387 
L 636.075 -304.544241 
L 636.075 -307.424611 
L 636.075 -310.304981 
L 636.075 -313.185352 
L 636.075 -316.065722 
L 636.075 -318.946093 
L 636.075 -321.826463 
L 636.075 -324.706833 
L 636.075 -327.587204 
L 636.075 -330.467574 
L 636.075 -333.347945 
L 636.075 -336.228315 
L 636.075 -339.108686 
L 636.075 -341.989056 
L 636.075 -344.869426 
L 636.075 -347.749797 
L 636.075 -350.630167 
L 636.075 -353.510538 
L 636.075 -356.390908 
L 636.075 -359.271278 
L 636.075 -362.151649 
L 651.884851 -362.151649 
L 651.884851 -362.151649 
L 656.893075 -359.271278 
L 662.610787 -356.390908 
L 668.830694 -353.510538 
L 675.250643 -350.630167 
L 681.496679 -347.749797 
L 687.162005 -344.869426 
L 691.856238 -341.989056 
L 695.256208 -339.108686 
L 697.148461 -336.228315 
L 697.455 -333.347945 
L 696.237416 -330.467574 
L 693.679421 -327.587204 
L 690.05254 -324.706833 
L 685.67296 -321.826463 
L 680.858583 -318.946093 
L 675.894034 -316.065722 
L 671.008388 -313.185352 
L 666.366806 -310.304981 
L 662.074031 -307.424611 
L 658.185706 -304.544241 
L 654.722845 -301.66387 
L 651.685472 -298.7835 
L 649.062824 -295.903129 
L 646.83919 -293.022759 
L 644.995782 -290.142389 
L 643.509917 -287.262018 
L 642.353118 -284.381648 
L 641.489546 -281.501277 
L 640.875795 -278.620907 
L 640.462462 -275.740537 
L 640.197368 -272.860166 
L 640.029831 -269.979796 
L 639.915109 -267.099425 
L 639.818097 -264.219055 
L 639.715542 -261.338685 
L 639.596437 -258.458314 
L 639.460702 -255.577944 
L 639.316652 -252.697573 
L 639.177884 -249.817203 
L 639.060198 -246.936833 
L 638.978893 -244.056462 
L 638.946526 -241.176092 
L 638.971038 -238.295721 
L 639.054212 -235.415351 
L 639.190556 -232.534981 
L 639.366949 -229.65461 
L 639.563439 -226.77424 
L 639.75543 -223.893869 
L 639.917131 -221.013499 
L 640.025698 -218.133129 
L 640.065129 -215.252758 
L 640.028954 -212.372388 
L 639.921001 -209.492017 
L 639.754085 -206.611647 
L 639.547089 -203.731277 
L 639.321316 -200.850906 
L 639.097225 -197.970536 
L 638.892382 -195.090165 
L 638.72105 -192.209795 
L 638.595286 -189.329425 
L 638.526948 -186.449054 
L 638.52983 -183.568684 
L 638.621116 -180.688313 
L 638.821628 -177.807943 
L 639.154599 -174.927573 
L 639.643044 -172.047202 
L 640.306001 -169.166832 
L 641.154083 -166.286461 
L 642.18487 -163.406091 
L 643.378782 -160.52572 
L 644.696175 -157.64535 
L 646.076485 -154.76498 
L 647.440191 -151.884609 
L 648.694114 -149.004239 
L 649.740034 -146.123868 
L 650.485858 -143.243498 
L 650.857799 -140.363128 
L 650.81142 -137.482757 
L 650.339285 -134.602387 
L 649.473399 -131.722016 
L 648.281629 -128.841646 
L 646.858567 -125.961276 
L 645.312561 -123.080905 
L 643.751418 -120.200535 
L 642.269473 -117.320164 
L 640.938201 -114.439794 
L 639.801595 -111.559424 
L 638.876364 -108.679053 
L 638.156066 -105.798683 
L 637.617645 -102.918312 
L 637.228736 -100.037942 
L 636.954317 -97.157572 
L 636.761796 -94.277201 
L 636.624147 -91.396831 
L 636.52119 -88.51646 
L 636.439402 -85.63609 
L 636.370796 -82.75572 
L 636.311391 -79.875349 
L 636.259673 -76.994979 
z
" id="mc14bc6405b" style="stroke:#363636;"/>
    </defs>
    <g clip-path="url(#paf91ca7fb5)">
     <use style="fill:#c38820;stroke:#363636;" x="0" xlink:href="#mc14bc6405b" y="432"/>
    </g>
   </g>
   <g id="patch_3">
    <path clip-path="url(#paf91ca7fb5)" d="M 175.725 350.249487 
L 175.725 350.249487 
L 175.725 350.249487 
L 175.725 350.249487 
z
" style="fill:#176d9c;stroke:#363636;stroke-linejoin:miter;stroke-width:0.5;"/>
   </g>
   <g id="patch_4">
    <path clip-path="url(#paf91ca7fb5)" d="M 175.725 350.249487 
L 175.725 350.249487 
L 175.725 350.249487 
L 175.725 350.249487 
z
" style="fill:#c38820;stroke:#363636;stroke-linejoin:miter;stroke-width:0.5;"/>
   </g>
   <g id="line2d_7">
    <path clip-path="url(#paf91ca7fb5)" d="M 142.193311 120.342388 
L 175.725 120.342388 
" style="fill:none;stroke:#363636;stroke-dasharray:1.5,1.5;stroke-dashoffset:0;"/>
   </g>
   <g id="line2d_8">
    <path clip-path="url(#paf91ca7fb5)" d="M 115.109849 101.230264 
L 175.725 101.230264 
" style="fill:none;stroke:#363636;stroke-dasharray:3,3;stroke-dashoffset:0;"/>
   </g>
   <g id="line2d_9">
    <path clip-path="url(#paf91ca7fb5)" d="M 119.759963 92.2278 
L 175.725 92.2278 
" style="fill:none;stroke:#363636;stroke-dasharray:1.5,1.5;stroke-dashoffset:0;"/>
   </g>
   <g id="line2d_10">
    <path clip-path="url(#paf91ca7fb5)" d="M 175.725 277.375236 
L 186.807971 277.375236 
" style="fill:none;stroke:#363636;stroke-dasharray:1.5,1.5;stroke-dashoffset:0;"/>
   </g>
   <g id="line2d_11">
    <path clip-path="url(#paf91ca7fb5)" d="M 175.725 111.152218 
L 208.511055 111.152218 
" style="fill:none;stroke:#363636;stroke-dasharray:3,3;stroke-dashoffset:0;"/>
   </g>
   <g id="line2d_12">
    <path clip-path="url(#paf91ca7fb5)" d="M 175.725 96.717279 
L 214.423959 96.717279 
" style="fill:none;stroke:#363636;stroke-dasharray:1.5,1.5;stroke-dashoffset:0;"/>
   </g>
   <g id="line2d_13">
    <path clip-path="url(#paf91ca7fb5)" d="M 293.845249 120.342388 
L 329.175 120.342388 
" style="fill:none;stroke:#363636;stroke-dasharray:1.5,1.5;stroke-dashoffset:0;"/>
   </g>
   <g id="line2d_14">
    <path clip-path="url(#paf91ca7fb5)" d="M 269.196497 102.460467 
L 329.175 102.460467 
" style="fill:none;stroke:#363636;stroke-dasharray:3,3;stroke-dashoffset:0;"/>
   </g>
   <g id="line2d_15">
    <path clip-path="url(#paf91ca7fb5)" d="M 269.508786 95.29794 
L 329.175 95.29794 
" style="fill:none;stroke:#363636;stroke-dasharray:1.5,1.5;stroke-dashoffset:0;"/>
   </g>
   <g id="line2d_16">
    <path clip-path="url(#paf91ca7fb5)" d="M 329.175 125.604818 
L 350.506099 125.604818 
" style="fill:none;stroke:#363636;stroke-dasharray:1.5,1.5;stroke-dashoffset:0;"/>
   </g>
   <g id="line2d_17">
    <path clip-path="url(#paf91ca7fb5)" d="M 329.175 101.230264 
L 381.668701 101.230264 
" style="fill:none;stroke:#363636;stroke-dasharray:3,3;stroke-dashoffset:0;"/>
   </g>
   <g id="line2d_18">
    <path clip-path="url(#paf91ca7fb5)" d="M 329.175 94.162163 
L 381.719107 94.162163 
" style="fill:none;stroke:#363636;stroke-dasharray:1.5,1.5;stroke-dashoffset:0;"/>
   </g>
   <g id="line2d_19">
    <path clip-path="url(#paf91ca7fb5)" d="M 439.477652 115.866819 
L 482.625 115.866819 
" style="fill:none;stroke:#363636;stroke-dasharray:1.5,1.5;stroke-dashoffset:0;"/>
   </g>
   <g id="line2d_20">
    <path clip-path="url(#paf91ca7fb5)" d="M 423.501521 102.460467 
L 482.625 102.460467 
" style="fill:none;stroke:#363636;stroke-dasharray:3,3;stroke-dashoffset:0;"/>
   </g>
   <g id="line2d_21">
    <path clip-path="url(#paf91ca7fb5)" d="M 423.55188 94.162163 
L 482.625 94.162163 
" style="fill:none;stroke:#363636;stroke-dasharray:1.5,1.5;stroke-dashoffset:0;"/>
   </g>
   <g id="line2d_22">
    <path clip-path="url(#paf91ca7fb5)" d="M 482.625 130.043933 
L 503.295441 130.043933 
" style="fill:none;stroke:#363636;stroke-dasharray:1.5,1.5;stroke-dashoffset:0;"/>
   </g>
   <g id="line2d_23">
    <path clip-path="url(#paf91ca7fb5)" d="M 482.625 105.350818 
L 532.380645 105.350818 
" style="fill:none;stroke:#363636;stroke-dasharray:3,3;stroke-dashoffset:0;"/>
   </g>
   <g id="line2d_24">
    <path clip-path="url(#paf91ca7fb5)" d="M 482.625 96.429475 
L 532.145817 96.429475 
" style="fill:none;stroke:#363636;stroke-dasharray:1.5,1.5;stroke-dashoffset:0;"/>
   </g>
   <g id="line2d_25">
    <path clip-path="url(#paf91ca7fb5)" d="M 608.8899 127.62828 
L 636.075 127.62828 
" style="fill:none;stroke:#363636;stroke-dasharray:1.5,1.5;stroke-dashoffset:0;"/>
   </g>
   <g id="line2d_26">
    <path clip-path="url(#paf91ca7fb5)" d="M 576.942596 102.460467 
L 636.075 102.460467 
" style="fill:none;stroke:#363636;stroke-dasharray:3,3;stroke-dashoffset:0;"/>
   </g>
   <g id="line2d_27">
    <path clip-path="url(#paf91ca7fb5)" d="M 578.232172 95.29794 
L 636.075 95.29794 
" style="fill:none;stroke:#363636;stroke-dasharray:1.5,1.5;stroke-dashoffset:0;"/>
   </g>
   <g id="line2d_28">
    <path clip-path="url(#paf91ca7fb5)" d="M 636.075 166.372714 
L 639.780666 166.372714 
" style="fill:none;stroke:#363636;stroke-dasharray:1.5,1.5;stroke-dashoffset:0;"/>
   </g>
   <g id="line2d_29">
    <path clip-path="url(#paf91ca7fb5)" d="M 636.075 102.460467 
L 695.635792 102.460467 
" style="fill:none;stroke:#363636;stroke-dasharray:3,3;stroke-dashoffset:0;"/>
   </g>
   <g id="line2d_30">
    <path clip-path="url(#paf91ca7fb5)" d="M 636.075 94.162163 
L 694.664396 94.162163 
" style="fill:none;stroke:#363636;stroke-dasharray:1.5,1.5;stroke-dashoffset:0;"/>
   </g>
   <g id="legend_1">
    <g id="patch_5">
     <path d="M 106.7 372.5 
L 162.078125 372.5 
Q 164.278125 372.5 164.278125 370.3 
L 164.278125 323.805938 
Q 164.278125 321.605937 162.078125 321.605937 
L 106.7 321.605937 
Q 104.5 321.605937 104.5 323.805938 
L 104.5 370.3 
Q 104.5 372.5 106.7 372.5 
z
" style="fill:#ffffff;opacity:0.8;stroke:#cccccc;stroke-linejoin:miter;"/>
    </g>
    <g id="text_13">
     <!-- inv_occ -->
     <g style="fill:#262626;" transform="translate(114.04625 334.595312)scale(0.12 -0.12)">
      <defs>
       <path d="M 6.640625 61.46875 
L 6.640625 71.578125 
L 15.4375 71.578125 
L 15.4375 61.46875 
z
M 6.640625 0 
L 6.640625 51.859375 
L 15.4375 51.859375 
L 15.4375 0 
z
" id="ArialMT-105"/>
       <path d="M 6.59375 0 
L 6.59375 51.859375 
L 14.5 51.859375 
L 14.5 44.484375 
Q 20.21875 53.03125 31 53.03125 
Q 35.6875 53.03125 39.625 51.34375 
Q 43.5625 49.65625 45.515625 46.921875 
Q 47.46875 44.1875 48.25 40.4375 
Q 48.734375 37.984375 48.734375 31.890625 
L 48.734375 0 
L 39.9375 0 
L 39.9375 31.546875 
Q 39.9375 36.921875 38.90625 39.578125 
Q 37.890625 42.234375 35.28125 43.8125 
Q 32.671875 45.40625 29.15625 45.40625 
Q 23.53125 45.40625 19.453125 41.84375 
Q 15.375 38.28125 15.375 28.328125 
L 15.375 0 
z
" id="ArialMT-110"/>
       <path d="M 21 0 
L 1.265625 51.859375 
L 10.546875 51.859375 
L 21.6875 20.796875 
Q 23.484375 15.765625 25 10.359375 
Q 26.171875 14.453125 28.265625 20.21875 
L 39.796875 51.859375 
L 48.828125 51.859375 
L 29.203125 0 
z
" id="ArialMT-118"/>
       <path d="M 3.328125 25.921875 
Q 3.328125 40.328125 11.328125 47.265625 
Q 18.015625 53.03125 27.640625 53.03125 
Q 38.328125 53.03125 45.109375 46.015625 
Q 51.90625 39.015625 51.90625 26.65625 
Q 51.90625 16.65625 48.90625 10.90625 
Q 45.90625 5.171875 40.15625 2 
Q 34.421875 -1.171875 27.640625 -1.171875 
Q 16.75 -1.171875 10.03125 5.8125 
Q 3.328125 12.796875 3.328125 25.921875 
z
M 12.359375 25.921875 
Q 12.359375 15.96875 16.703125 11.015625 
Q 21.046875 6.0625 27.640625 6.0625 
Q 34.1875 6.0625 38.53125 11.03125 
Q 42.875 16.015625 42.875 26.21875 
Q 42.875 35.84375 38.5 40.796875 
Q 34.125 45.75 27.640625 45.75 
Q 21.046875 45.75 16.703125 40.8125 
Q 12.359375 35.890625 12.359375 25.921875 
z
" id="ArialMT-111"/>
      </defs>
      <use xlink:href="#ArialMT-105"/>
      <use x="22.216797" xlink:href="#ArialMT-110"/>
      <use x="77.832031" xlink:href="#ArialMT-118"/>
      <use x="127.832031" xlink:href="#ArialMT-95"/>
      <use x="183.447266" xlink:href="#ArialMT-111"/>
      <use x="239.0625" xlink:href="#ArialMT-99"/>
      <use x="289.0625" xlink:href="#ArialMT-99"/>
     </g>
    </g>
    <g id="patch_6">
     <path d="M 108.9 350.353906 
L 130.9 350.353906 
L 130.9 342.653906 
L 108.9 342.653906 
z
" style="fill:#176d9c;stroke:#363636;stroke-linejoin:miter;stroke-width:0.5;"/>
    </g>
    <g id="text_14">
     <!-- inv -->
     <g style="fill:#262626;" transform="translate(139.7 350.353906)scale(0.11 -0.11)">
      <use xlink:href="#ArialMT-105"/>
      <use x="22.216797" xlink:href="#ArialMT-110"/>
      <use x="77.832031" xlink:href="#ArialMT-118"/>
     </g>
    </g>
    <g id="patch_7">
     <path d="M 108.9 365.91375 
L 130.9 365.91375 
L 130.9 358.21375 
L 108.9 358.21375 
z
" style="fill:#c38820;stroke:#363636;stroke-linejoin:miter;stroke-width:0.5;"/>
    </g>
    <g id="text_15">
     <!-- own -->
     <g style="fill:#262626;" transform="translate(139.7 365.91375)scale(0.11 -0.11)">
      <defs>
       <path d="M 16.15625 0 
L 0.296875 51.859375 
L 9.375 51.859375 
L 17.625 21.921875 
L 20.703125 10.796875 
Q 20.90625 11.625 23.390625 21.484375 
L 31.640625 51.859375 
L 40.671875 51.859375 
L 48.4375 21.78125 
L 51.03125 11.859375 
L 54 21.875 
L 62.890625 51.859375 
L 71.4375 51.859375 
L 55.21875 0 
L 46.09375 0 
L 37.84375 31.0625 
L 35.84375 39.890625 
L 25.34375 0 
z
" id="ArialMT-119"/>
      </defs>
      <use xlink:href="#ArialMT-111"/>
      <use x="55.615234" xlink:href="#ArialMT-119"/>
      <use x="127.832031" xlink:href="#ArialMT-110"/>
     </g>
    </g>
   </g>
  </g>
 </g>
 <defs>
  <clipPath id="paf91ca7fb5">
   <rect height="326.16" width="613.8" x="99" y="51.84"/>
  </clipPath>
 </defs>
</svg>
