<?xml version="1.0" encoding="utf-8" standalone="no"?>
<!DOCTYPE svg PUBLIC "-//W3C//DTD SVG 1.1//EN"
  "http://www.w3.org/Graphics/SVG/1.1/DTD/svg11.dtd">
<!-- Created with matplotlib (https://matplotlib.org/) -->
<svg height="432pt" version="1.1" viewBox="0 0 792 432" width="792pt" xmlns="http://www.w3.org/2000/svg" xmlns:xlink="http://www.w3.org/1999/xlink">
 <metadata>
  <rdf:RDF xmlns:cc="http://creativecommons.org/ns#" xmlns:dc="http://purl.org/dc/elements/1.1/" xmlns:rdf="http://www.w3.org/1999/02/22-rdf-syntax-ns#">
   <cc:Work>
    <dc:type rdf:resource="http://purl.org/dc/dcmitype/StillImage"/>
    <dc:date>2021-08-19T08:05:03.578002</dc:date>
    <dc:format>image/svg+xml</dc:format>
    <dc:creator>
     <cc:Agent>
      <dc:title>Matplotlib v3.3.1, https://matplotlib.org/</dc:title>
     </cc:Agent>
    </dc:creator>
   </cc:Work>
  </rdf:RDF>
 </metadata>
 <defs>
  <style type="text/css">*{stroke-linecap:butt;stroke-linejoin:round;}</style>
 </defs>
 <g id="figure_1">
  <g id="patch_1">
   <path d="M 0 432 
L 792 432 
L 792 0 
L 0 0 
z
" style="fill:#ffffff;"/>
  </g>
  <g id="axes_1">
   <g id="patch_2">
    <path d="M 99 378 
L 712.8 378 
L 712.8 51.84 
L 99 51.84 
z
" style="fill:#ffffff;"/>
   </g>
   <g id="matplotlib.axis_1">
    <g id="xtick_1">
     <g id="text_1">
      <!-- 2000-2006 -->
      <g style="fill:#262626;" transform="translate(149.425547 395.373594)scale(0.11 -0.11)">
       <defs>
        <path d="M 50.34375 8.453125 
L 50.34375 0 
L 3.03125 0 
Q 2.9375 3.171875 4.046875 6.109375 
Q 5.859375 10.9375 9.828125 15.625 
Q 13.8125 20.3125 21.34375 26.46875 
Q 33.015625 36.03125 37.109375 41.625 
Q 41.21875 47.21875 41.21875 52.203125 
Q 41.21875 57.421875 37.46875 61 
Q 33.734375 64.59375 27.734375 64.59375 
Q 21.390625 64.59375 17.578125 60.78125 
Q 13.765625 56.984375 13.71875 50.25 
L 4.6875 51.171875 
Q 5.609375 61.28125 11.65625 66.578125 
Q 17.71875 71.875 27.9375 71.875 
Q 38.234375 71.875 44.234375 66.15625 
Q 50.25 60.453125 50.25 52 
Q 50.25 47.703125 48.484375 43.546875 
Q 46.734375 39.40625 42.65625 34.8125 
Q 38.578125 30.21875 29.109375 22.21875 
Q 21.1875 15.578125 18.9375 13.203125 
Q 16.703125 10.84375 15.234375 8.453125 
z
" id="ArialMT-50"/>
        <path d="M 4.15625 35.296875 
Q 4.15625 48 6.765625 55.734375 
Q 9.375 63.484375 14.515625 67.671875 
Q 19.671875 71.875 27.484375 71.875 
Q 33.25 71.875 37.59375 69.546875 
Q 41.9375 67.234375 44.765625 62.859375 
Q 47.609375 58.5 49.21875 52.21875 
Q 50.828125 45.953125 50.828125 35.296875 
Q 50.828125 22.703125 48.234375 14.96875 
Q 45.65625 7.234375 40.5 3 
Q 35.359375 -1.21875 27.484375 -1.21875 
Q 17.140625 -1.21875 11.234375 6.203125 
Q 4.15625 15.140625 4.15625 35.296875 
z
M 13.1875 35.296875 
Q 13.1875 17.671875 17.3125 11.828125 
Q 21.4375 6 27.484375 6 
Q 33.546875 6 37.671875 11.859375 
Q 41.796875 17.71875 41.796875 35.296875 
Q 41.796875 52.984375 37.671875 58.78125 
Q 33.546875 64.59375 27.390625 64.59375 
Q 21.34375 64.59375 17.71875 59.46875 
Q 13.1875 52.9375 13.1875 35.296875 
z
" id="ArialMT-48"/>
        <path d="M 3.171875 21.484375 
L 3.171875 30.328125 
L 30.171875 30.328125 
L 30.171875 21.484375 
z
" id="ArialMT-45"/>
        <path d="M 49.75 54.046875 
L 41.015625 53.375 
Q 39.84375 58.546875 37.703125 60.890625 
Q 34.125 64.65625 28.90625 64.65625 
Q 24.703125 64.65625 21.53125 62.3125 
Q 17.390625 59.28125 14.984375 53.46875 
Q 12.59375 47.65625 12.5 36.921875 
Q 15.671875 41.75 20.265625 44.09375 
Q 24.859375 46.4375 29.890625 46.4375 
Q 38.671875 46.4375 44.84375 39.96875 
Q 51.03125 33.5 51.03125 23.25 
Q 51.03125 16.5 48.125 10.71875 
Q 45.21875 4.9375 40.140625 1.859375 
Q 35.0625 -1.21875 28.609375 -1.21875 
Q 17.625 -1.21875 10.6875 6.859375 
Q 3.765625 14.9375 3.765625 33.5 
Q 3.765625 54.25 11.421875 63.671875 
Q 18.109375 71.875 29.4375 71.875 
Q 37.890625 71.875 43.28125 67.140625 
Q 48.6875 62.40625 49.75 54.046875 
z
M 13.875 23.1875 
Q 13.875 18.65625 15.796875 14.5 
Q 17.71875 10.359375 21.1875 8.171875 
Q 24.65625 6 28.46875 6 
Q 34.03125 6 38.03125 10.484375 
Q 42.046875 14.984375 42.046875 22.703125 
Q 42.046875 30.125 38.078125 34.390625 
Q 34.125 38.671875 28.125 38.671875 
Q 22.171875 38.671875 18.015625 34.390625 
Q 13.875 30.125 13.875 23.1875 
z
" id="ArialMT-54"/>
       </defs>
       <use xlink:href="#ArialMT-50"/>
       <use x="55.615234" xlink:href="#ArialMT-48"/>
       <use x="111.230469" xlink:href="#ArialMT-48"/>
       <use x="166.845703" xlink:href="#ArialMT-48"/>
       <use x="222.460938" xlink:href="#ArialMT-45"/>
       <use x="255.761719" xlink:href="#ArialMT-50"/>
       <use x="311.376953" xlink:href="#ArialMT-48"/>
       <use x="366.992188" xlink:href="#ArialMT-48"/>
       <use x="422.607422" xlink:href="#ArialMT-54"/>
      </g>
     </g>
    </g>
    <g id="xtick_2">
     <g id="text_2">
      <!-- 2007-2009 -->
      <g style="fill:#262626;" transform="translate(302.875547 395.373594)scale(0.11 -0.11)">
       <defs>
        <path d="M 4.734375 62.203125 
L 4.734375 70.65625 
L 51.078125 70.65625 
L 51.078125 63.8125 
Q 44.234375 56.546875 37.515625 44.484375 
Q 30.8125 32.421875 27.15625 19.671875 
Q 24.515625 10.6875 23.78125 0 
L 14.75 0 
Q 14.890625 8.453125 18.0625 20.40625 
Q 21.234375 32.375 27.171875 43.484375 
Q 33.109375 54.59375 39.796875 62.203125 
z
" id="ArialMT-55"/>
        <path d="M 5.46875 16.546875 
L 13.921875 17.328125 
Q 14.984375 11.375 18.015625 8.6875 
Q 21.046875 6 25.78125 6 
Q 29.828125 6 32.875 7.859375 
Q 35.9375 9.71875 37.890625 12.8125 
Q 39.84375 15.921875 41.15625 21.1875 
Q 42.484375 26.46875 42.484375 31.9375 
Q 42.484375 32.515625 42.4375 33.6875 
Q 39.796875 29.5 35.234375 26.875 
Q 30.671875 24.265625 25.34375 24.265625 
Q 16.453125 24.265625 10.296875 30.703125 
Q 4.15625 37.15625 4.15625 47.703125 
Q 4.15625 58.59375 10.578125 65.234375 
Q 17 71.875 26.65625 71.875 
Q 33.640625 71.875 39.421875 68.109375 
Q 45.21875 64.359375 48.21875 57.390625 
Q 51.21875 50.4375 51.21875 37.25 
Q 51.21875 23.53125 48.234375 15.40625 
Q 45.265625 7.28125 39.375 3.03125 
Q 33.5 -1.21875 25.59375 -1.21875 
Q 17.1875 -1.21875 11.859375 3.4375 
Q 6.546875 8.109375 5.46875 16.546875 
z
M 41.453125 48.140625 
Q 41.453125 55.71875 37.421875 60.15625 
Q 33.40625 64.59375 27.734375 64.59375 
Q 21.875 64.59375 17.53125 59.8125 
Q 13.1875 55.03125 13.1875 47.40625 
Q 13.1875 40.578125 17.3125 36.296875 
Q 21.4375 32.03125 27.484375 32.03125 
Q 33.59375 32.03125 37.515625 36.296875 
Q 41.453125 40.578125 41.453125 48.140625 
z
" id="ArialMT-57"/>
       </defs>
       <use xlink:href="#ArialMT-50"/>
       <use x="55.615234" xlink:href="#ArialMT-48"/>
       <use x="111.230469" xlink:href="#ArialMT-48"/>
       <use x="166.845703" xlink:href="#ArialMT-55"/>
       <use x="222.460938" xlink:href="#ArialMT-45"/>
       <use x="255.761719" xlink:href="#ArialMT-50"/>
       <use x="311.376953" xlink:href="#ArialMT-48"/>
       <use x="366.992188" xlink:href="#ArialMT-48"/>
       <use x="422.607422" xlink:href="#ArialMT-57"/>
      </g>
     </g>
    </g>
    <g id="xtick_3">
     <g id="text_3">
      <!-- 2010-2013 -->
      <g style="fill:#262626;" transform="translate(456.325547 395.373594)scale(0.11 -0.11)">
       <defs>
        <path d="M 37.25 0 
L 28.46875 0 
L 28.46875 56 
Q 25.296875 52.984375 20.140625 49.953125 
Q 14.984375 46.921875 10.890625 45.40625 
L 10.890625 53.90625 
Q 18.265625 57.375 23.78125 62.296875 
Q 29.296875 67.234375 31.59375 71.875 
L 37.25 71.875 
z
" id="ArialMT-49"/>
        <path d="M 4.203125 18.890625 
L 12.984375 20.0625 
Q 14.5 12.59375 18.140625 9.296875 
Q 21.78125 6 27 6 
Q 33.203125 6 37.46875 10.296875 
Q 41.75 14.59375 41.75 20.953125 
Q 41.75 27 37.796875 30.921875 
Q 33.84375 34.859375 27.734375 34.859375 
Q 25.25 34.859375 21.53125 33.890625 
L 22.515625 41.609375 
Q 23.390625 41.5 23.921875 41.5 
Q 29.546875 41.5 34.03125 44.421875 
Q 38.53125 47.359375 38.53125 53.46875 
Q 38.53125 58.296875 35.25 61.46875 
Q 31.984375 64.65625 26.8125 64.65625 
Q 21.6875 64.65625 18.265625 61.421875 
Q 14.84375 58.203125 13.875 51.765625 
L 5.078125 53.328125 
Q 6.6875 62.15625 12.390625 67.015625 
Q 18.109375 71.875 26.609375 71.875 
Q 32.46875 71.875 37.390625 69.359375 
Q 42.328125 66.84375 44.9375 62.5 
Q 47.5625 58.15625 47.5625 53.265625 
Q 47.5625 48.640625 45.0625 44.828125 
Q 42.578125 41.015625 37.703125 38.765625 
Q 44.046875 37.3125 47.5625 32.6875 
Q 51.078125 28.078125 51.078125 21.140625 
Q 51.078125 11.765625 44.234375 5.25 
Q 37.40625 -1.265625 26.953125 -1.265625 
Q 17.53125 -1.265625 11.296875 4.34375 
Q 5.078125 9.96875 4.203125 18.890625 
z
" id="ArialMT-51"/>
       </defs>
       <use xlink:href="#ArialMT-50"/>
       <use x="55.615234" xlink:href="#ArialMT-48"/>
       <use x="111.230469" xlink:href="#ArialMT-49"/>
       <use x="166.845703" xlink:href="#ArialMT-48"/>
       <use x="222.460938" xlink:href="#ArialMT-45"/>
       <use x="255.761719" xlink:href="#ArialMT-50"/>
       <use x="311.376953" xlink:href="#ArialMT-48"/>
       <use x="366.992188" xlink:href="#ArialMT-49"/>
       <use x="422.607422" xlink:href="#ArialMT-51"/>
      </g>
     </g>
    </g>
    <g id="xtick_4">
     <g id="text_4">
      <!-- 2014-2018 -->
      <g style="fill:#262626;" transform="translate(609.775547 395.373594)scale(0.11 -0.11)">
       <defs>
        <path d="M 32.328125 0 
L 32.328125 17.140625 
L 1.265625 17.140625 
L 1.265625 25.203125 
L 33.9375 71.578125 
L 41.109375 71.578125 
L 41.109375 25.203125 
L 50.78125 25.203125 
L 50.78125 17.140625 
L 41.109375 17.140625 
L 41.109375 0 
z
M 32.328125 25.203125 
L 32.328125 57.46875 
L 9.90625 25.203125 
z
" id="ArialMT-52"/>
        <path d="M 17.671875 38.8125 
Q 12.203125 40.828125 9.5625 44.53125 
Q 6.9375 48.25 6.9375 53.421875 
Q 6.9375 61.234375 12.546875 66.546875 
Q 18.171875 71.875 27.484375 71.875 
Q 36.859375 71.875 42.578125 66.421875 
Q 48.296875 60.984375 48.296875 53.171875 
Q 48.296875 48.1875 45.671875 44.5 
Q 43.0625 40.828125 37.75 38.8125 
Q 44.34375 36.671875 47.78125 31.875 
Q 51.21875 27.09375 51.21875 20.453125 
Q 51.21875 11.28125 44.71875 5.03125 
Q 38.234375 -1.21875 27.640625 -1.21875 
Q 17.046875 -1.21875 10.546875 5.046875 
Q 4.046875 11.328125 4.046875 20.703125 
Q 4.046875 27.6875 7.59375 32.390625 
Q 11.140625 37.109375 17.671875 38.8125 
z
M 15.921875 53.71875 
Q 15.921875 48.640625 19.1875 45.40625 
Q 22.46875 42.1875 27.6875 42.1875 
Q 32.765625 42.1875 36.015625 45.375 
Q 39.265625 48.578125 39.265625 53.21875 
Q 39.265625 58.0625 35.90625 61.359375 
Q 32.5625 64.65625 27.59375 64.65625 
Q 22.5625 64.65625 19.234375 61.421875 
Q 15.921875 58.203125 15.921875 53.71875 
z
M 13.09375 20.65625 
Q 13.09375 16.890625 14.875 13.375 
Q 16.65625 9.859375 20.171875 7.921875 
Q 23.6875 6 27.734375 6 
Q 34.03125 6 38.125 10.046875 
Q 42.234375 14.109375 42.234375 20.359375 
Q 42.234375 26.703125 38.015625 30.859375 
Q 33.796875 35.015625 27.4375 35.015625 
Q 21.234375 35.015625 17.15625 30.90625 
Q 13.09375 26.8125 13.09375 20.65625 
z
" id="ArialMT-56"/>
       </defs>
       <use xlink:href="#ArialMT-50"/>
       <use x="55.615234" xlink:href="#ArialMT-48"/>
       <use x="111.230469" xlink:href="#ArialMT-49"/>
       <use x="166.845703" xlink:href="#ArialMT-52"/>
       <use x="222.460938" xlink:href="#ArialMT-45"/>
       <use x="255.761719" xlink:href="#ArialMT-50"/>
       <use x="311.376953" xlink:href="#ArialMT-48"/>
       <use x="366.992188" xlink:href="#ArialMT-49"/>
       <use x="422.607422" xlink:href="#ArialMT-56"/>
      </g>
     </g>
    </g>
    <g id="text_5">
     <!-- year -->
     <g style="fill:#262626;" transform="translate(394.229063 410.008594)scale(0.12 -0.12)">
      <defs>
       <path d="M 6.203125 -19.96875 
L 5.21875 -11.71875 
Q 8.109375 -12.5 10.25 -12.5 
Q 13.1875 -12.5 14.9375 -11.515625 
Q 16.703125 -10.546875 17.828125 -8.796875 
Q 18.65625 -7.46875 20.515625 -2.25 
Q 20.75 -1.515625 21.296875 -0.09375 
L 1.609375 51.859375 
L 11.078125 51.859375 
L 21.875 21.828125 
Q 23.96875 16.109375 25.640625 9.8125 
Q 27.15625 15.875 29.25 21.625 
L 40.328125 51.859375 
L 49.125 51.859375 
L 29.390625 -0.875 
Q 26.21875 -9.421875 24.46875 -12.640625 
Q 22.125 -17 19.09375 -19.015625 
Q 16.0625 -21.046875 11.859375 -21.046875 
Q 9.328125 -21.046875 6.203125 -19.96875 
z
" id="ArialMT-121"/>
       <path d="M 42.09375 16.703125 
L 51.171875 15.578125 
Q 49.03125 7.625 43.21875 3.21875 
Q 37.40625 -1.171875 28.375 -1.171875 
Q 17 -1.171875 10.328125 5.828125 
Q 3.65625 12.84375 3.65625 25.484375 
Q 3.65625 38.578125 10.390625 45.796875 
Q 17.140625 53.03125 27.875 53.03125 
Q 38.28125 53.03125 44.875 45.953125 
Q 51.46875 38.875 51.46875 26.03125 
Q 51.46875 25.25 51.421875 23.6875 
L 12.75 23.6875 
Q 13.234375 15.140625 17.578125 10.59375 
Q 21.921875 6.0625 28.421875 6.0625 
Q 33.25 6.0625 36.671875 8.59375 
Q 40.09375 11.140625 42.09375 16.703125 
z
M 13.234375 30.90625 
L 42.1875 30.90625 
Q 41.609375 37.453125 38.875 40.71875 
Q 34.671875 45.796875 27.984375 45.796875 
Q 21.921875 45.796875 17.796875 41.75 
Q 13.671875 37.703125 13.234375 30.90625 
z
" id="ArialMT-101"/>
       <path d="M 40.4375 6.390625 
Q 35.546875 2.25 31.03125 0.53125 
Q 26.515625 -1.171875 21.34375 -1.171875 
Q 12.796875 -1.171875 8.203125 3 
Q 3.609375 7.171875 3.609375 13.671875 
Q 3.609375 17.484375 5.34375 20.625 
Q 7.078125 23.78125 9.890625 25.6875 
Q 12.703125 27.59375 16.21875 28.5625 
Q 18.796875 29.25 24.03125 29.890625 
Q 34.671875 31.15625 39.703125 32.90625 
Q 39.75 34.71875 39.75 35.203125 
Q 39.75 40.578125 37.25 42.78125 
Q 33.890625 45.75 27.25 45.75 
Q 21.046875 45.75 18.09375 43.578125 
Q 15.140625 41.40625 13.71875 35.890625 
L 5.125 37.0625 
Q 6.296875 42.578125 8.984375 45.96875 
Q 11.671875 49.359375 16.75 51.1875 
Q 21.828125 53.03125 28.515625 53.03125 
Q 35.15625 53.03125 39.296875 51.46875 
Q 43.453125 49.90625 45.40625 47.53125 
Q 47.359375 45.171875 48.140625 41.546875 
Q 48.578125 39.3125 48.578125 33.453125 
L 48.578125 21.734375 
Q 48.578125 9.46875 49.140625 6.21875 
Q 49.703125 2.984375 51.375 0 
L 42.1875 0 
Q 40.828125 2.734375 40.4375 6.390625 
z
M 39.703125 26.03125 
Q 34.90625 24.078125 25.34375 22.703125 
Q 19.921875 21.921875 17.671875 20.9375 
Q 15.4375 19.96875 14.203125 18.09375 
Q 12.984375 16.21875 12.984375 13.921875 
Q 12.984375 10.40625 15.640625 8.0625 
Q 18.3125 5.71875 23.4375 5.71875 
Q 28.515625 5.71875 32.46875 7.9375 
Q 36.421875 10.15625 38.28125 14.015625 
Q 39.703125 17 39.703125 22.796875 
z
" id="ArialMT-97"/>
       <path d="M 6.5 0 
L 6.5 51.859375 
L 14.40625 51.859375 
L 14.40625 44 
Q 17.4375 49.515625 20 51.265625 
Q 22.5625 53.03125 25.640625 53.03125 
Q 30.078125 53.03125 34.671875 50.203125 
L 31.640625 42.046875 
Q 28.421875 43.953125 25.203125 43.953125 
Q 22.3125 43.953125 20.015625 42.21875 
Q 17.71875 40.484375 16.75 37.40625 
Q 15.28125 32.71875 15.28125 27.15625 
L 15.28125 0 
z
" id="ArialMT-114"/>
      </defs>
      <use xlink:href="#ArialMT-121"/>
      <use x="50" xlink:href="#ArialMT-101"/>
      <use x="105.615234" xlink:href="#ArialMT-97"/>
      <use x="161.230469" xlink:href="#ArialMT-114"/>
     </g>
    </g>
   </g>
   <g id="matplotlib.axis_2">
    <g id="ytick_1">
     <g id="line2d_1">
      <path clip-path="url(#p5fae59469f)" d="M 99 332.079972 
L 712.8 332.079972 
" style="fill:none;stroke:#cccccc;stroke-linecap:round;"/>
     </g>
     <g id="text_6">
      <!-- 0.5 -->
      <g style="fill:#262626;" transform="translate(74.21 336.016769)scale(0.11 -0.11)">
       <defs>
        <path d="M 9.078125 0 
L 9.078125 10.015625 
L 19.09375 10.015625 
L 19.09375 0 
z
" id="ArialMT-46"/>
        <path d="M 4.15625 18.75 
L 13.375 19.53125 
Q 14.40625 12.796875 18.140625 9.390625 
Q 21.875 6 27.15625 6 
Q 33.5 6 37.890625 10.78125 
Q 42.28125 15.578125 42.28125 23.484375 
Q 42.28125 31 38.0625 35.34375 
Q 33.84375 39.703125 27 39.703125 
Q 22.75 39.703125 19.328125 37.765625 
Q 15.921875 35.84375 13.96875 32.765625 
L 5.71875 33.84375 
L 12.640625 70.609375 
L 48.25 70.609375 
L 48.25 62.203125 
L 19.671875 62.203125 
L 15.828125 42.96875 
Q 22.265625 47.46875 29.34375 47.46875 
Q 38.71875 47.46875 45.15625 40.96875 
Q 51.609375 34.46875 51.609375 24.265625 
Q 51.609375 14.546875 45.953125 7.46875 
Q 39.0625 -1.21875 27.15625 -1.21875 
Q 17.390625 -1.21875 11.203125 4.25 
Q 5.03125 9.71875 4.15625 18.75 
z
" id="ArialMT-53"/>
       </defs>
       <use xlink:href="#ArialMT-48"/>
       <use x="55.615234" xlink:href="#ArialMT-46"/>
       <use x="83.398438" xlink:href="#ArialMT-53"/>
      </g>
     </g>
    </g>
    <g id="ytick_2">
     <g id="line2d_2">
      <path clip-path="url(#p5fae59469f)" d="M 99 278.213344 
L 712.8 278.213344 
" style="fill:none;stroke:#cccccc;stroke-linecap:round;"/>
     </g>
     <g id="text_7">
      <!-- 0.6 -->
      <g style="fill:#262626;" transform="translate(74.21 282.150141)scale(0.11 -0.11)">
       <use xlink:href="#ArialMT-48"/>
       <use x="55.615234" xlink:href="#ArialMT-46"/>
       <use x="83.398438" xlink:href="#ArialMT-54"/>
      </g>
     </g>
    </g>
    <g id="ytick_3">
     <g id="line2d_3">
      <path clip-path="url(#p5fae59469f)" d="M 99 224.346717 
L 712.8 224.346717 
" style="fill:none;stroke:#cccccc;stroke-linecap:round;"/>
     </g>
     <g id="text_8">
      <!-- 0.7 -->
      <g style="fill:#262626;" transform="translate(74.21 228.283514)scale(0.11 -0.11)">
       <use xlink:href="#ArialMT-48"/>
       <use x="55.615234" xlink:href="#ArialMT-46"/>
       <use x="83.398438" xlink:href="#ArialMT-55"/>
      </g>
     </g>
    </g>
    <g id="ytick_4">
     <g id="line2d_4">
      <path clip-path="url(#p5fae59469f)" d="M 99 170.480089 
L 712.8 170.480089 
" style="fill:none;stroke:#cccccc;stroke-linecap:round;"/>
     </g>
     <g id="text_9">
      <!-- 0.8 -->
      <g style="fill:#262626;" transform="translate(74.21 174.416886)scale(0.11 -0.11)">
       <use xlink:href="#ArialMT-48"/>
       <use x="55.615234" xlink:href="#ArialMT-46"/>
       <use x="83.398438" xlink:href="#ArialMT-56"/>
      </g>
     </g>
    </g>
    <g id="ytick_5">
     <g id="line2d_5">
      <path clip-path="url(#p5fae59469f)" d="M 99 116.613462 
L 712.8 116.613462 
" style="fill:none;stroke:#cccccc;stroke-linecap:round;"/>
     </g>
     <g id="text_10">
      <!-- 0.9 -->
      <g style="fill:#262626;" transform="translate(74.21 120.550259)scale(0.11 -0.11)">
       <use xlink:href="#ArialMT-48"/>
       <use x="55.615234" xlink:href="#ArialMT-46"/>
       <use x="83.398438" xlink:href="#ArialMT-57"/>
      </g>
     </g>
    </g>
    <g id="ytick_6">
     <g id="line2d_6">
      <path clip-path="url(#p5fae59469f)" d="M 99 62.746835 
L 712.8 62.746835 
" style="fill:none;stroke:#cccccc;stroke-linecap:round;"/>
     </g>
     <g id="text_11">
      <!-- 1.0 -->
      <g style="fill:#262626;" transform="translate(74.21 66.683632)scale(0.11 -0.11)">
       <use xlink:href="#ArialMT-49"/>
       <use x="55.615234" xlink:href="#ArialMT-46"/>
       <use x="83.398438" xlink:href="#ArialMT-48"/>
      </g>
     </g>
    </g>
    <g id="text_12">
     <!-- per_renters -->
     <g style="fill:#262626;" transform="translate(67.825 245.599687)rotate(-90)scale(0.12 -0.12)">
      <defs>
       <path d="M 6.59375 -19.875 
L 6.59375 51.859375 
L 14.59375 51.859375 
L 14.59375 45.125 
Q 17.4375 49.078125 21 51.046875 
Q 24.5625 53.03125 29.640625 53.03125 
Q 36.28125 53.03125 41.359375 49.609375 
Q 46.4375 46.1875 49.015625 39.953125 
Q 51.609375 33.734375 51.609375 26.3125 
Q 51.609375 18.359375 48.75 11.984375 
Q 45.90625 5.609375 40.453125 2.21875 
Q 35.015625 -1.171875 29 -1.171875 
Q 24.609375 -1.171875 21.109375 0.6875 
Q 17.625 2.546875 15.375 5.375 
L 15.375 -19.875 
z
M 14.546875 25.640625 
Q 14.546875 15.625 18.59375 10.84375 
Q 22.65625 6.0625 28.421875 6.0625 
Q 34.28125 6.0625 38.453125 11.015625 
Q 42.625 15.96875 42.625 26.375 
Q 42.625 36.28125 38.546875 41.203125 
Q 34.46875 46.140625 28.8125 46.140625 
Q 23.1875 46.140625 18.859375 40.890625 
Q 14.546875 35.640625 14.546875 25.640625 
z
" id="ArialMT-112"/>
       <path d="M -1.515625 -19.875 
L -1.515625 -13.53125 
L 56.734375 -13.53125 
L 56.734375 -19.875 
z
" id="ArialMT-95"/>
       <path d="M 6.59375 0 
L 6.59375 51.859375 
L 14.5 51.859375 
L 14.5 44.484375 
Q 20.21875 53.03125 31 53.03125 
Q 35.6875 53.03125 39.625 51.34375 
Q 43.5625 49.65625 45.515625 46.921875 
Q 47.46875 44.1875 48.25 40.4375 
Q 48.734375 37.984375 48.734375 31.890625 
L 48.734375 0 
L 39.9375 0 
L 39.9375 31.546875 
Q 39.9375 36.921875 38.90625 39.578125 
Q 37.890625 42.234375 35.28125 43.8125 
Q 32.671875 45.40625 29.15625 45.40625 
Q 23.53125 45.40625 19.453125 41.84375 
Q 15.375 38.28125 15.375 28.328125 
L 15.375 0 
z
" id="ArialMT-110"/>
       <path d="M 25.78125 7.859375 
L 27.046875 0.09375 
Q 23.34375 -0.6875 20.40625 -0.6875 
Q 15.625 -0.6875 12.984375 0.828125 
Q 10.359375 2.34375 9.28125 4.8125 
Q 8.203125 7.28125 8.203125 15.1875 
L 8.203125 45.015625 
L 1.765625 45.015625 
L 1.765625 51.859375 
L 8.203125 51.859375 
L 8.203125 64.703125 
L 16.9375 69.96875 
L 16.9375 51.859375 
L 25.78125 51.859375 
L 25.78125 45.015625 
L 16.9375 45.015625 
L 16.9375 14.703125 
Q 16.9375 10.9375 17.40625 9.859375 
Q 17.875 8.796875 18.921875 8.15625 
Q 19.96875 7.515625 21.921875 7.515625 
Q 23.390625 7.515625 25.78125 7.859375 
z
" id="ArialMT-116"/>
       <path d="M 3.078125 15.484375 
L 11.765625 16.84375 
Q 12.5 11.625 15.84375 8.84375 
Q 19.1875 6.0625 25.203125 6.0625 
Q 31.25 6.0625 34.171875 8.515625 
Q 37.109375 10.984375 37.109375 14.3125 
Q 37.109375 17.28125 34.515625 19 
Q 32.71875 20.171875 25.53125 21.96875 
Q 15.875 24.421875 12.140625 26.203125 
Q 8.40625 27.984375 6.46875 31.125 
Q 4.546875 34.28125 4.546875 38.09375 
Q 4.546875 41.546875 6.125 44.5 
Q 7.71875 47.46875 10.453125 49.421875 
Q 12.5 50.921875 16.03125 51.96875 
Q 19.578125 53.03125 23.640625 53.03125 
Q 29.734375 53.03125 34.34375 51.265625 
Q 38.96875 49.515625 41.15625 46.5 
Q 43.359375 43.5 44.1875 38.484375 
L 35.59375 37.3125 
Q 35.015625 41.3125 32.203125 43.546875 
Q 29.390625 45.796875 24.265625 45.796875 
Q 18.21875 45.796875 15.625 43.796875 
Q 13.03125 41.796875 13.03125 39.109375 
Q 13.03125 37.40625 14.109375 36.03125 
Q 15.1875 34.625 17.484375 33.6875 
Q 18.796875 33.203125 25.25 31.453125 
Q 34.578125 28.953125 38.25 27.359375 
Q 41.9375 25.78125 44.03125 22.75 
Q 46.140625 19.734375 46.140625 15.234375 
Q 46.140625 10.84375 43.578125 6.953125 
Q 41.015625 3.078125 36.171875 0.953125 
Q 31.34375 -1.171875 25.25 -1.171875 
Q 15.140625 -1.171875 9.84375 3.03125 
Q 4.546875 7.234375 3.078125 15.484375 
z
" id="ArialMT-115"/>
      </defs>
      <use xlink:href="#ArialMT-112"/>
      <use x="55.615234" xlink:href="#ArialMT-101"/>
      <use x="111.230469" xlink:href="#ArialMT-114"/>
      <use x="144.53125" xlink:href="#ArialMT-95"/>
      <use x="200.146484" xlink:href="#ArialMT-114"/>
      <use x="233.447266" xlink:href="#ArialMT-101"/>
      <use x="289.0625" xlink:href="#ArialMT-110"/>
      <use x="344.677734" xlink:href="#ArialMT-116"/>
      <use x="372.460938" xlink:href="#ArialMT-101"/>
      <use x="428.076172" xlink:href="#ArialMT-114"/>
      <use x="461.376953" xlink:href="#ArialMT-115"/>
     </g>
    </g>
   </g>
   <g id="PolyCollection_1">
    <defs>
     <path d="M 175.725 -70.126861 
L 174.004224 -70.126861 
L 173.48773 -73.023442 
L 173.083995 -75.920023 
L 172.894408 -78.816604 
L 172.97049 -81.713185 
L 173.291232 -84.609766 
L 173.772346 -87.506347 
L 174.3017 -90.402928 
L 174.780197 -93.299509 
L 175.147123 -96.19609 
L 175.381521 -99.092672 
L 175.485674 -101.989253 
L 175.464083 -104.885834 
L 175.310287 -107.782415 
L 175.00822 -110.678996 
L 174.547907 -113.575577 
L 173.947665 -116.472158 
L 173.26841 -119.368739 
L 172.605209 -122.26532 
L 172.052037 -125.161901 
L 171.655062 -128.058482 
L 171.38423 -130.955063 
L 171.147539 -133.851644 
L 170.845703 -136.748225 
L 170.434728 -139.644806 
L 169.953901 -142.541387 
L 169.496784 -145.437969 
L 169.139573 -148.33455 
L 168.869718 -151.231131 
L 168.559997 -154.127712 
L 168.009363 -157.024293 
L 167.035784 -159.920874 
L 165.577018 -162.817455 
L 163.747784 -165.714036 
L 161.821472 -168.610617 
L 160.141568 -171.507198 
L 159.000955 -174.403779 
L 158.536994 -177.30036 
L 158.675439 -180.196941 
L 159.133761 -183.093522 
L 159.480529 -185.990103 
L 159.240461 -188.886684 
L 158.020786 -191.783266 
L 155.613365 -194.679847 
L 152.023234 -197.576428 
L 147.411538 -200.473009 
L 142.003372 -203.36959 
L 136.043971 -206.266171 
L 129.847382 -209.162752 
L 123.892047 -212.059333 
L 118.852782 -214.955914 
L 115.480685 -217.852495 
L 114.345 -220.749076 
L 115.563942 -223.645657 
L 118.6937 -226.542238 
L 122.876297 -229.438819 
L 127.197459 -232.3354 
L 131.066183 -235.231981 
L 134.399813 -238.128562 
L 137.516423 -241.025144 
L 140.824609 -243.921725 
L 144.522824 -246.818306 
L 148.489126 -249.714887 
L 152.39262 -252.611468 
L 155.910924 -255.508049 
L 158.894528 -258.40463 
L 161.387051 -261.301211 
L 163.519884 -264.197792 
L 165.371408 -267.094373 
L 166.882097 -269.990954 
L 167.866741 -272.887535 
L 168.10612 -275.784116 
L 167.465027 -278.680697 
L 165.979889 -281.577278 
L 163.878442 -284.473859 
L 161.523948 -287.370441 
L 159.308461 -290.267022 
L 157.54369 -293.163603 
L 156.40049 -296.060184 
L 155.921062 -298.956765 
L 156.082798 -301.853346 
L 156.859759 -304.749927 
L 158.234254 -307.646508 
L 160.154873 -310.543089 
L 162.483836 -313.43967 
L 164.986862 -316.336251 
L 167.385154 -319.232832 
L 169.441503 -322.129413 
L 171.029645 -325.025994 
L 172.151244 -327.922575 
L 172.900522 -330.819156 
L 173.404557 -333.715738 
L 173.772468 -336.612319 
L 174.072565 -339.5089 
L 174.336286 -342.405481 
L 174.574613 -345.302062 
L 174.791969 -348.198643 
L 174.991191 -351.095224 
L 175.17241 -353.991805 
L 175.331884 -356.888386 
L 175.725 -356.888386 
L 175.725 -356.888386 
L 175.725 -353.991805 
L 175.725 -351.095224 
L 175.725 -348.198643 
L 175.725 -345.302062 
L 175.725 -342.405481 
L 175.725 -339.5089 
L 175.725 -336.612319 
L 175.725 -333.715738 
L 175.725 -330.819156 
L 175.725 -327.922575 
L 175.725 -325.025994 
L 175.725 -322.129413 
L 175.725 -319.232832 
L 175.725 -316.336251 
L 175.725 -313.43967 
L 175.725 -310.543089 
L 175.725 -307.646508 
L 175.725 -304.749927 
L 175.725 -301.853346 
L 175.725 -298.956765 
L 175.725 -296.060184 
L 175.725 -293.163603 
L 175.725 -290.267022 
L 175.725 -287.370441 
L 175.725 -284.473859 
L 175.725 -281.577278 
L 175.725 -278.680697 
L 175.725 -275.784116 
L 175.725 -272.887535 
L 175.725 -269.990954 
L 175.725 -267.094373 
L 175.725 -264.197792 
L 175.725 -261.301211 
L 175.725 -258.40463 
L 175.725 -255.508049 
L 175.725 -252.611468 
L 175.725 -249.714887 
L 175.725 -246.818306 
L 175.725 -243.921725 
L 175.725 -241.025144 
L 175.725 -238.128562 
L 175.725 -235.231981 
L 175.725 -232.3354 
L 175.725 -229.438819 
L 175.725 -226.542238 
L 175.725 -223.645657 
L 175.725 -220.749076 
L 175.725 -217.852495 
L 175.725 -214.955914 
L 175.725 -212.059333 
L 175.725 -209.162752 
L 175.725 -206.266171 
L 175.725 -203.36959 
L 175.725 -200.473009 
L 175.725 -197.576428 
L 175.725 -194.679847 
L 175.725 -191.783266 
L 175.725 -188.886684 
L 175.725 -185.990103 
L 175.725 -183.093522 
L 175.725 -180.196941 
L 175.725 -177.30036 
L 175.725 -174.403779 
L 175.725 -171.507198 
L 175.725 -168.610617 
L 175.725 -165.714036 
L 175.725 -162.817455 
L 175.725 -159.920874 
L 175.725 -157.024293 
L 175.725 -154.127712 
L 175.725 -151.231131 
L 175.725 -148.33455 
L 175.725 -145.437969 
L 175.725 -142.541387 
L 175.725 -139.644806 
L 175.725 -136.748225 
L 175.725 -133.851644 
L 175.725 -130.955063 
L 175.725 -128.058482 
L 175.725 -125.161901 
L 175.725 -122.26532 
L 175.725 -119.368739 
L 175.725 -116.472158 
L 175.725 -113.575577 
L 175.725 -110.678996 
L 175.725 -107.782415 
L 175.725 -104.885834 
L 175.725 -101.989253 
L 175.725 -99.092672 
L 175.725 -96.19609 
L 175.725 -93.299509 
L 175.725 -90.402928 
L 175.725 -87.506347 
L 175.725 -84.609766 
L 175.725 -81.713185 
L 175.725 -78.816604 
L 175.725 -75.920023 
L 175.725 -73.023442 
L 175.725 -70.126861 
z
" id="m410395c0b0" style="stroke:#363636;"/>
    </defs>
    <g clip-path="url(#p5fae59469f)">
     <use style="fill:#176d9c;stroke:#363636;" x="0" xlink:href="#m410395c0b0" y="432"/>
    </g>
   </g>
   <g id="PolyCollection_2">
    <defs>
     <path d="M 179.232713 -68.825455 
L 175.725 -68.825455 
L 175.725 -71.820496 
L 175.725 -74.815537 
L 175.725 -77.810579 
L 175.725 -80.80562 
L 175.725 -83.800661 
L 175.725 -86.795702 
L 175.725 -89.790744 
L 175.725 -92.785785 
L 175.725 -95.780826 
L 175.725 -98.775868 
L 175.725 -101.770909 
L 175.725 -104.76595 
L 175.725 -107.760992 
L 175.725 -110.756033 
L 175.725 -113.751074 
L 175.725 -116.746116 
L 175.725 -119.741157 
L 175.725 -122.736198 
L 175.725 -125.73124 
L 175.725 -128.726281 
L 175.725 -131.721322 
L 175.725 -134.716364 
L 175.725 -137.711405 
L 175.725 -140.706446 
L 175.725 -143.701488 
L 175.725 -146.696529 
L 175.725 -149.69157 
L 175.725 -152.686612 
L 175.725 -155.681653 
L 175.725 -158.676694 
L 175.725 -161.671736 
L 175.725 -164.666777 
L 175.725 -167.661818 
L 175.725 -170.65686 
L 175.725 -173.651901 
L 175.725 -176.646942 
L 175.725 -179.641983 
L 175.725 -182.637025 
L 175.725 -185.632066 
L 175.725 -188.627107 
L 175.725 -191.622149 
L 175.725 -194.61719 
L 175.725 -197.612231 
L 175.725 -200.607273 
L 175.725 -203.602314 
L 175.725 -206.597355 
L 175.725 -209.592397 
L 175.725 -212.587438 
L 175.725 -215.582479 
L 175.725 -218.577521 
L 175.725 -221.572562 
L 175.725 -224.567603 
L 175.725 -227.562645 
L 175.725 -230.557686 
L 175.725 -233.552727 
L 175.725 -236.547769 
L 175.725 -239.54281 
L 175.725 -242.537851 
L 175.725 -245.532893 
L 175.725 -248.527934 
L 175.725 -251.522975 
L 175.725 -254.518017 
L 175.725 -257.513058 
L 175.725 -260.508099 
L 175.725 -263.50314 
L 175.725 -266.498182 
L 175.725 -269.493223 
L 175.725 -272.488264 
L 175.725 -275.483306 
L 175.725 -278.478347 
L 175.725 -281.473388 
L 175.725 -284.46843 
L 175.725 -287.463471 
L 175.725 -290.458512 
L 175.725 -293.453554 
L 175.725 -296.448595 
L 175.725 -299.443636 
L 175.725 -302.438678 
L 175.725 -305.433719 
L 175.725 -308.42876 
L 175.725 -311.423802 
L 175.725 -314.418843 
L 175.725 -317.413884 
L 175.725 -320.408926 
L 175.725 -323.403967 
L 175.725 -326.399008 
L 175.725 -329.39405 
L 175.725 -332.389091 
L 175.725 -335.384132 
L 175.725 -338.379174 
L 175.725 -341.374215 
L 175.725 -344.369256 
L 175.725 -347.364298 
L 175.725 -350.359339 
L 175.725 -353.35438 
L 175.725 -356.349421 
L 175.725 -359.344463 
L 175.725 -362.339504 
L 175.725 -365.334545 
L 175.981038 -365.334545 
L 175.981038 -365.334545 
L 176.104119 -362.339504 
L 176.252685 -359.344463 
L 176.418399 -356.349421 
L 176.590636 -353.35438 
L 176.760686 -350.359339 
L 176.926253 -347.364298 
L 177.094647 -344.369256 
L 177.284078 -341.374215 
L 177.523864 -338.379174 
L 177.854728 -335.384132 
L 178.329155 -332.389091 
L 179.009638 -329.39405 
L 179.961645 -326.399008 
L 181.239396 -323.403967 
L 182.865899 -320.408926 
L 184.812242 -317.413884 
L 186.982894 -314.418843 
L 189.213139 -311.423802 
L 191.282338 -308.42876 
L 192.943822 -305.433719 
L 193.968923 -302.438678 
L 194.198615 -299.443636 
L 193.59146 -296.448595 
L 192.253429 -293.453554 
L 190.436977 -290.458512 
L 188.504452 -287.463471 
L 186.861866 -284.46843 
L 185.878157 -281.473388 
L 185.809326 -278.478347 
L 186.746292 -275.483306 
L 188.601222 -272.488264 
L 191.13907 -269.493223 
L 194.047999 -266.498182 
L 197.026677 -263.50314 
L 199.856067 -260.508099 
L 202.427848 -257.513058 
L 204.723313 -254.518017 
L 206.765109 -251.522975 
L 208.580483 -248.527934 
L 210.204173 -245.532893 
L 211.715072 -242.537851 
L 213.26643 -239.54281 
L 215.063199 -236.547769 
L 217.27259 -233.552727 
L 219.90547 -230.557686 
L 222.738252 -227.562645 
L 225.330425 -224.567603 
L 227.139532 -221.572562 
L 227.680873 -218.577521 
L 226.660865 -215.582479 
L 224.038599 -212.587438 
L 220.014659 -209.592397 
L 214.975989 -206.597355 
L 209.425683 -203.602314 
L 203.908747 -200.607273 
L 198.932087 -197.612231 
L 194.881259 -194.61719 
L 191.950971 -191.622149 
L 190.114343 -188.627107 
L 189.147332 -185.632066 
L 188.703697 -182.637025 
L 188.415692 -179.641983 
L 187.987701 -176.646942 
L 187.256318 -173.651901 
L 186.204935 -170.65686 
L 184.936079 -167.661818 
L 183.615915 -164.666777 
L 182.411235 -161.671736 
L 181.439427 -158.676694 
L 180.746118 -155.681653 
L 180.314017 -152.686612 
L 180.093742 -149.69157 
L 180.038492 -146.696529 
L 180.124345 -143.701488 
L 180.347246 -140.706446 
L 180.701765 -137.711405 
L 181.157401 -134.716364 
L 181.648776 -131.721322 
L 182.086244 -128.726281 
L 182.379997 -125.73124 
L 182.463503 -122.736198 
L 182.30559 -119.741157 
L 181.910659 -116.746116 
L 181.314196 -113.751074 
L 180.580079 -110.756033 
L 179.799559 -107.760992 
L 179.086223 -104.76595 
L 178.561574 -101.770909 
L 178.330818 -98.775868 
L 178.453882 -95.780826 
L 178.920078 -92.785785 
L 179.636089 -89.790744 
L 180.435983 -86.795702 
L 181.116823 -83.800661 
L 181.493174 -80.80562 
L 181.452391 -77.810579 
L 180.987861 -74.815537 
L 180.195073 -71.820496 
L 179.232713 -68.825455 
z
" id="m22a5b65d2c" style="stroke:#363636;"/>
    </defs>
    <g clip-path="url(#p5fae59469f)">
     <use style="fill:#c38820;stroke:#363636;" x="0" xlink:href="#m22a5b65d2c" y="432"/>
    </g>
   </g>
   <g id="PolyCollection_3">
    <defs>
     <path d="M 329.175 -70.709827 
L 328.913421 -70.709827 
L 328.830398 -73.594631 
L 328.767907 -76.479435 
L 328.743748 -79.364239 
L 328.765333 -82.249043 
L 328.826013 -85.133847 
L 328.908344 -88.018651 
L 328.992028 -90.903455 
L 329.061425 -93.788259 
L 329.108465 -96.673063 
L 329.130186 -99.557867 
L 329.122943 -102.442671 
L 329.076463 -105.327475 
L 328.971039 -108.212279 
L 328.781123 -111.097083 
L 328.48719 -113.981887 
L 328.092868 -116.866691 
L 327.636909 -119.751495 
L 327.186149 -122.636299 
L 326.803943 -125.521102 
L 326.507982 -128.405906 
L 326.247486 -131.29071 
L 325.924618 -134.175514 
L 325.455626 -137.060318 
L 324.834197 -139.945122 
L 324.150542 -142.829926 
L 323.545003 -145.71473 
L 323.117313 -148.599534 
L 322.842778 -151.484338 
L 322.546907 -154.369142 
L 321.962285 -157.253946 
L 320.850011 -160.13875 
L 319.130792 -163.023554 
L 316.95732 -165.908358 
L 314.683595 -168.793162 
L 312.740592 -171.677966 
L 311.477255 -174.56277 
L 311.035431 -177.447574 
L 311.294778 -180.332378 
L 311.885688 -183.217182 
L 312.260811 -186.101986 
L 311.828663 -188.98679 
L 310.138616 -191.871594 
L 307.048798 -194.756398 
L 302.766637 -197.641202 
L 297.707793 -200.526006 
L 292.262289 -203.41081 
L 286.656516 -206.295614 
L 281.033614 -209.180418 
L 275.679758 -212.065221 
L 271.179326 -214.950025 
L 268.324785 -217.834829 
L 267.795 -220.719633 
L 269.789161 -223.604437 
L 273.845131 -226.489241 
L 278.973049 -229.374045 
L 284.058132 -232.258849 
L 288.320323 -235.143653 
L 291.567588 -238.028457 
L 294.104656 -240.913261 
L 296.390986 -243.798065 
L 298.703492 -246.682869 
L 301.021386 -249.567673 
L 303.158721 -252.452477 
L 304.994513 -255.337281 
L 306.615963 -258.222085 
L 308.28526 -261.106889 
L 310.267599 -263.991693 
L 312.63552 -266.876497 
L 315.166629 -269.761301 
L 317.393981 -272.646105 
L 318.786957 -275.530909 
L 318.977021 -278.415713 
L 317.925 -281.300517 
L 315.955507 -284.185321 
L 313.642386 -287.070125 
L 311.595206 -289.954929 
L 310.24644 -292.839733 
L 309.742391 -295.724537 
L 309.984073 -298.60934 
L 310.773653 -301.494144 
L 311.959371 -304.378948 
L 313.485227 -307.263752 
L 315.331754 -310.148556 
L 317.417053 -313.03336 
L 319.548675 -315.918164 
L 321.467277 -318.802968 
L 322.950411 -321.687772 
L 323.906854 -324.572576 
L 324.406329 -327.45738 
L 324.63353 -330.342184 
L 324.797085 -333.226988 
L 325.044217 -336.111792 
L 325.423256 -338.996596 
L 325.903499 -341.8814 
L 326.425671 -344.766204 
L 326.94315 -347.651008 
L 327.432352 -350.535812 
L 327.880533 -353.420616 
L 328.273117 -356.30542 
L 329.175 -356.30542 
L 329.175 -356.30542 
L 329.175 -353.420616 
L 329.175 -350.535812 
L 329.175 -347.651008 
L 329.175 -344.766204 
L 329.175 -341.8814 
L 329.175 -338.996596 
L 329.175 -336.111792 
L 329.175 -333.226988 
L 329.175 -330.342184 
L 329.175 -327.45738 
L 329.175 -324.572576 
L 329.175 -321.687772 
L 329.175 -318.802968 
L 329.175 -315.918164 
L 329.175 -313.03336 
L 329.175 -310.148556 
L 329.175 -307.263752 
L 329.175 -304.378948 
L 329.175 -301.494144 
L 329.175 -298.60934 
L 329.175 -295.724537 
L 329.175 -292.839733 
L 329.175 -289.954929 
L 329.175 -287.070125 
L 329.175 -284.185321 
L 329.175 -281.300517 
L 329.175 -278.415713 
L 329.175 -275.530909 
L 329.175 -272.646105 
L 329.175 -269.761301 
L 329.175 -266.876497 
L 329.175 -263.991693 
L 329.175 -261.106889 
L 329.175 -258.222085 
L 329.175 -255.337281 
L 329.175 -252.452477 
L 329.175 -249.567673 
L 329.175 -246.682869 
L 329.175 -243.798065 
L 329.175 -240.913261 
L 329.175 -238.028457 
L 329.175 -235.143653 
L 329.175 -232.258849 
L 329.175 -229.374045 
L 329.175 -226.489241 
L 329.175 -223.604437 
L 329.175 -220.719633 
L 329.175 -217.834829 
L 329.175 -214.950025 
L 329.175 -212.065221 
L 329.175 -209.180418 
L 329.175 -206.295614 
L 329.175 -203.41081 
L 329.175 -200.526006 
L 329.175 -197.641202 
L 329.175 -194.756398 
L 329.175 -191.871594 
L 329.175 -188.98679 
L 329.175 -186.101986 
L 329.175 -183.217182 
L 329.175 -180.332378 
L 329.175 -177.447574 
L 329.175 -174.56277 
L 329.175 -171.677966 
L 329.175 -168.793162 
L 329.175 -165.908358 
L 329.175 -163.023554 
L 329.175 -160.13875 
L 329.175 -157.253946 
L 329.175 -154.369142 
L 329.175 -151.484338 
L 329.175 -148.599534 
L 329.175 -145.71473 
L 329.175 -142.829926 
L 329.175 -139.945122 
L 329.175 -137.060318 
L 329.175 -134.175514 
L 329.175 -131.29071 
L 329.175 -128.405906 
L 329.175 -125.521102 
L 329.175 -122.636299 
L 329.175 -119.751495 
L 329.175 -116.866691 
L 329.175 -113.981887 
L 329.175 -111.097083 
L 329.175 -108.212279 
L 329.175 -105.327475 
L 329.175 -102.442671 
L 329.175 -99.557867 
L 329.175 -96.673063 
L 329.175 -93.788259 
L 329.175 -90.903455 
L 329.175 -88.018651 
L 329.175 -85.133847 
L 329.175 -82.249043 
L 329.175 -79.364239 
L 329.175 -76.479435 
L 329.175 -73.594631 
L 329.175 -70.709827 
z
" id="me908907690" style="stroke:#363636;"/>
    </defs>
    <g clip-path="url(#p5fae59469f)">
     <use style="fill:#176d9c;stroke:#363636;" x="0" xlink:href="#me908907690" y="432"/>
    </g>
   </g>
   <g id="PolyCollection_4">
    <defs>
     <path d="M 330.842634 -70.31633 
L 329.175 -70.31633 
L 329.175 -73.209083 
L 329.175 -76.101837 
L 329.175 -78.99459 
L 329.175 -81.887344 
L 329.175 -84.780097 
L 329.175 -87.67285 
L 329.175 -90.565604 
L 329.175 -93.458357 
L 329.175 -96.351111 
L 329.175 -99.243864 
L 329.175 -102.136617 
L 329.175 -105.029371 
L 329.175 -107.922124 
L 329.175 -110.814878 
L 329.175 -113.707631 
L 329.175 -116.600384 
L 329.175 -119.493138 
L 329.175 -122.385891 
L 329.175 -125.278645 
L 329.175 -128.171398 
L 329.175 -131.064151 
L 329.175 -133.956905 
L 329.175 -136.849658 
L 329.175 -139.742412 
L 329.175 -142.635165 
L 329.175 -145.527919 
L 329.175 -148.420672 
L 329.175 -151.313425 
L 329.175 -154.206179 
L 329.175 -157.098932 
L 329.175 -159.991686 
L 329.175 -162.884439 
L 329.175 -165.777192 
L 329.175 -168.669946 
L 329.175 -171.562699 
L 329.175 -174.455453 
L 329.175 -177.348206 
L 329.175 -180.240959 
L 329.175 -183.133713 
L 329.175 -186.026466 
L 329.175 -188.91922 
L 329.175 -191.811973 
L 329.175 -194.704726 
L 329.175 -197.59748 
L 329.175 -200.490233 
L 329.175 -203.382987 
L 329.175 -206.27574 
L 329.175 -209.168493 
L 329.175 -212.061247 
L 329.175 -214.954 
L 329.175 -217.846754 
L 329.175 -220.739507 
L 329.175 -223.63226 
L 329.175 -226.525014 
L 329.175 -229.417767 
L 329.175 -232.310521 
L 329.175 -235.203274 
L 329.175 -238.096027 
L 329.175 -240.988781 
L 329.175 -243.881534 
L 329.175 -246.774288 
L 329.175 -249.667041 
L 329.175 -252.559794 
L 329.175 -255.452548 
L 329.175 -258.345301 
L 329.175 -261.238055 
L 329.175 -264.130808 
L 329.175 -267.023561 
L 329.175 -269.916315 
L 329.175 -272.809068 
L 329.175 -275.701822 
L 329.175 -278.594575 
L 329.175 -281.487328 
L 329.175 -284.380082 
L 329.175 -287.272835 
L 329.175 -290.165589 
L 329.175 -293.058342 
L 329.175 -295.951095 
L 329.175 -298.843849 
L 329.175 -301.736602 
L 329.175 -304.629356 
L 329.175 -307.522109 
L 329.175 -310.414862 
L 329.175 -313.307616 
L 329.175 -316.200369 
L 329.175 -319.093123 
L 329.175 -321.985876 
L 329.175 -324.878629 
L 329.175 -327.771383 
L 329.175 -330.664136 
L 329.175 -333.55689 
L 329.175 -336.449643 
L 329.175 -339.342396 
L 329.175 -342.23515 
L 329.175 -345.127903 
L 329.175 -348.020657 
L 329.175 -350.91341 
L 329.175 -353.806163 
L 329.175 -356.698917 
L 329.661393 -356.698917 
L 329.661393 -356.698917 
L 329.838206 -353.806163 
L 330.014612 -350.91341 
L 330.174754 -348.020657 
L 330.312869 -345.127903 
L 330.434955 -342.23515 
L 330.556111 -339.342396 
L 330.70004 -336.449643 
L 330.906485 -333.55689 
L 331.244015 -330.664136 
L 331.815608 -327.771383 
L 332.742044 -324.878629 
L 334.118239 -321.985876 
L 335.956633 -319.093123 
L 338.14815 -316.200369 
L 340.470593 -313.307616 
L 342.650175 -310.414862 
L 344.445981 -307.522109 
L 345.707872 -304.629356 
L 346.376706 -301.736602 
L 346.441316 -298.843849 
L 345.900575 -295.951095 
L 344.770136 -293.058342 
L 343.130252 -290.165589 
L 341.173187 -287.272835 
L 339.207629 -284.380082 
L 337.608264 -281.487328 
L 336.73108 -278.594575 
L 336.826528 -275.701822 
L 337.976638 -272.809068 
L 340.074029 -269.916315 
L 342.855296 -267.023561 
L 345.988269 -264.130808 
L 349.185806 -261.238055 
L 352.291883 -258.345301 
L 355.286985 -255.452548 
L 358.204538 -252.559794 
L 361.018241 -249.667041 
L 363.599641 -246.774288 
L 365.808237 -243.881534 
L 367.668336 -240.988781 
L 369.485645 -238.096027 
L 371.761514 -235.203274 
L 374.900368 -232.310521 
L 378.880117 -229.417767 
L 383.117229 -226.525014 
L 386.642222 -223.63226 
L 388.493745 -220.739507 
L 388.101455 -217.846754 
L 385.455158 -214.954 
L 381.010821 -212.061247 
L 375.442201 -209.168493 
L 369.408499 -206.27574 
L 363.452322 -203.382987 
L 358.023439 -200.490233 
L 353.530797 -197.59748 
L 350.32278 -194.704726 
L 348.578896 -191.811973 
L 348.191311 -188.91922 
L 348.740292 -186.026466 
L 349.605062 -183.133713 
L 350.159261 -180.240959 
L 349.954038 -177.348206 
L 348.816798 -174.455453 
L 346.852522 -171.562699 
L 344.375373 -168.669946 
L 341.803657 -165.777192 
L 339.541475 -162.884439 
L 337.869114 -159.991686 
L 336.871619 -157.098932 
L 336.433359 -154.206179 
L 336.305295 -151.313425 
L 336.219088 -148.420672 
L 335.997523 -145.527919 
L 335.609726 -142.635165 
L 335.146157 -139.742412 
L 334.731421 -136.849658 
L 334.429007 -133.956905 
L 334.196473 -131.064151 
L 333.915693 -128.171398 
L 333.472368 -125.278645 
L 332.828536 -122.385891 
L 332.042912 -119.493138 
L 331.234604 -116.600384 
L 330.522469 -113.707631 
L 329.979844 -110.814878 
L 329.62447 -107.922124 
L 329.437505 -105.029371 
L 329.392071 -102.136617 
L 329.473652 -99.243864 
L 329.683698 -96.351111 
L 330.026513 -93.458357 
L 330.486405 -90.565604 
L 331.007852 -87.67285 
L 331.493488 -84.780097 
L 331.828065 -81.887344 
L 331.921087 -78.99459 
L 331.745965 -76.101837 
L 331.352167 -73.209083 
L 330.842634 -70.31633 
z
" id="m30299974e9" style="stroke:#363636;"/>
    </defs>
    <g clip-path="url(#p5fae59469f)">
     <use style="fill:#c38820;stroke:#363636;" x="0" xlink:href="#m30299974e9" y="432"/>
    </g>
   </g>
   <g id="PolyCollection_5">
    <defs>
     <path d="M 482.625 -70.95058 
L 482.171187 -70.95058 
L 482.023646 -73.83052 
L 481.914618 -76.71046 
L 481.876895 -79.590401 
L 481.922669 -82.470341 
L 482.037198 -85.350281 
L 482.186434 -88.230221 
L 482.33326 -91.110162 
L 482.451863 -93.990102 
L 482.532944 -96.870042 
L 482.579915 -99.749982 
L 482.601237 -102.629923 
L 482.603925 -105.509863 
L 482.590499 -108.389803 
L 482.559244 -111.269744 
L 482.506647 -114.149684 
L 482.430197 -117.029624 
L 482.328633 -119.909564 
L 482.196578 -122.789505 
L 482.0138 -125.669445 
L 481.7362 -128.549385 
L 481.301171 -131.429326 
L 480.656083 -134.309266 
L 479.802325 -137.189206 
L 478.82783 -140.069146 
L 477.896323 -142.949087 
L 477.182551 -145.829027 
L 476.779131 -148.708967 
L 476.626427 -151.588907 
L 476.512394 -154.468848 
L 476.15602 -157.348788 
L 475.342849 -160.228728 
L 474.046182 -163.108669 
L 472.465039 -165.988609 
L 470.951013 -168.868549 
L 469.861405 -171.748489 
L 469.417151 -174.62843 
L 469.626253 -177.50837 
L 470.277613 -180.38831 
L 470.975374 -183.268251 
L 471.200852 -186.148191 
L 470.420937 -189.028131 
L 468.246813 -191.908071 
L 464.579934 -194.788012 
L 459.639571 -197.667952 
L 453.8276 -200.547892 
L 447.52575 -203.427832 
L 441.001944 -206.307773 
L 434.517775 -209.187713 
L 428.536994 -212.067653 
L 423.817851 -214.947594 
L 421.245 -217.827534 
L 421.453937 -220.707474 
L 424.462653 -223.587414 
L 429.547502 -226.467355 
L 435.48036 -229.347295 
L 441.041062 -232.227235 
L 445.534752 -235.107176 
L 449.006 -237.987116 
L 452.016155 -240.867056 
L 455.141954 -243.746996 
L 458.543989 -246.626937 
L 461.887959 -249.506877 
L 464.633704 -252.386817 
L 466.450344 -255.266758 
L 467.455629 -258.146698 
L 468.132345 -261.026638 
L 469.00913 -263.906578 
L 470.337249 -266.786519 
L 471.964494 -269.666459 
L 473.450675 -272.546399 
L 474.315448 -275.426339 
L 474.261306 -278.30628 
L 473.27444 -281.18622 
L 471.59706 -284.06616 
L 469.616927 -286.946101 
L 467.726788 -289.826041 
L 466.202127 -292.705981 
L 465.145179 -295.585921 
L 464.524607 -298.465862 
L 464.286977 -301.345802 
L 464.458722 -304.225742 
L 465.154805 -307.105683 
L 466.482659 -309.985623 
L 468.419944 -312.865563 
L 470.767597 -315.745503 
L 473.213958 -318.625444 
L 475.457698 -321.505384 
L 477.306483 -324.385324 
L 478.705905 -327.265264 
L 479.707658 -330.145205 
L 480.412351 -333.025145 
L 480.918814 -335.905085 
L 481.2971 -338.785026 
L 481.587044 -341.664966 
L 481.811491 -344.544906 
L 481.988707 -347.424846 
L 482.135283 -350.304787 
L 482.262267 -353.184727 
L 482.372441 -356.064667 
L 482.625 -356.064667 
L 482.625 -356.064667 
L 482.625 -353.184727 
L 482.625 -350.304787 
L 482.625 -347.424846 
L 482.625 -344.544906 
L 482.625 -341.664966 
L 482.625 -338.785026 
L 482.625 -335.905085 
L 482.625 -333.025145 
L 482.625 -330.145205 
L 482.625 -327.265264 
L 482.625 -324.385324 
L 482.625 -321.505384 
L 482.625 -318.625444 
L 482.625 -315.745503 
L 482.625 -312.865563 
L 482.625 -309.985623 
L 482.625 -307.105683 
L 482.625 -304.225742 
L 482.625 -301.345802 
L 482.625 -298.465862 
L 482.625 -295.585921 
L 482.625 -292.705981 
L 482.625 -289.826041 
L 482.625 -286.946101 
L 482.625 -284.06616 
L 482.625 -281.18622 
L 482.625 -278.30628 
L 482.625 -275.426339 
L 482.625 -272.546399 
L 482.625 -269.666459 
L 482.625 -266.786519 
L 482.625 -263.906578 
L 482.625 -261.026638 
L 482.625 -258.146698 
L 482.625 -255.266758 
L 482.625 -252.386817 
L 482.625 -249.506877 
L 482.625 -246.626937 
L 482.625 -243.746996 
L 482.625 -240.867056 
L 482.625 -237.987116 
L 482.625 -235.107176 
L 482.625 -232.227235 
L 482.625 -229.347295 
L 482.625 -226.467355 
L 482.625 -223.587414 
L 482.625 -220.707474 
L 482.625 -217.827534 
L 482.625 -214.947594 
L 482.625 -212.067653 
L 482.625 -209.187713 
L 482.625 -206.307773 
L 482.625 -203.427832 
L 482.625 -200.547892 
L 482.625 -197.667952 
L 482.625 -194.788012 
L 482.625 -191.908071 
L 482.625 -189.028131 
L 482.625 -186.148191 
L 482.625 -183.268251 
L 482.625 -180.38831 
L 482.625 -177.50837 
L 482.625 -174.62843 
L 482.625 -171.748489 
L 482.625 -168.868549 
L 482.625 -165.988609 
L 482.625 -163.108669 
L 482.625 -160.228728 
L 482.625 -157.348788 
L 482.625 -154.468848 
L 482.625 -151.588907 
L 482.625 -148.708967 
L 482.625 -145.829027 
L 482.625 -142.949087 
L 482.625 -140.069146 
L 482.625 -137.189206 
L 482.625 -134.309266 
L 482.625 -131.429326 
L 482.625 -128.549385 
L 482.625 -125.669445 
L 482.625 -122.789505 
L 482.625 -119.909564 
L 482.625 -117.029624 
L 482.625 -114.149684 
L 482.625 -111.269744 
L 482.625 -108.389803 
L 482.625 -105.509863 
L 482.625 -102.629923 
L 482.625 -99.749982 
L 482.625 -96.870042 
L 482.625 -93.990102 
L 482.625 -91.110162 
L 482.625 -88.230221 
L 482.625 -85.350281 
L 482.625 -82.470341 
L 482.625 -79.590401 
L 482.625 -76.71046 
L 482.625 -73.83052 
L 482.625 -70.95058 
z
" id="m5180d4cbbf" style="stroke:#363636;"/>
    </defs>
    <g clip-path="url(#p5fae59469f)">
     <use style="fill:#176d9c;stroke:#363636;" x="0" xlink:href="#m5180d4cbbf" y="432"/>
    </g>
   </g>
   <g id="PolyCollection_6">
    <defs>
     <path d="M 484.54111 -137.901313 
L 482.625 -137.901313 
L 482.625 -140.17009 
L 482.625 -142.438866 
L 482.625 -144.707643 
L 482.625 -146.976419 
L 482.625 -149.245196 
L 482.625 -151.513973 
L 482.625 -153.782749 
L 482.625 -156.051526 
L 482.625 -158.320303 
L 482.625 -160.589079 
L 482.625 -162.857856 
L 482.625 -165.126633 
L 482.625 -167.395409 
L 482.625 -169.664186 
L 482.625 -171.932962 
L 482.625 -174.201739 
L 482.625 -176.470516 
L 482.625 -178.739292 
L 482.625 -181.008069 
L 482.625 -183.276846 
L 482.625 -185.545622 
L 482.625 -187.814399 
L 482.625 -190.083175 
L 482.625 -192.351952 
L 482.625 -194.620729 
L 482.625 -196.889505 
L 482.625 -199.158282 
L 482.625 -201.427059 
L 482.625 -203.695835 
L 482.625 -205.964612 
L 482.625 -208.233389 
L 482.625 -210.502165 
L 482.625 -212.770942 
L 482.625 -215.039718 
L 482.625 -217.308495 
L 482.625 -219.577272 
L 482.625 -221.846048 
L 482.625 -224.114825 
L 482.625 -226.383602 
L 482.625 -228.652378 
L 482.625 -230.921155 
L 482.625 -233.189931 
L 482.625 -235.458708 
L 482.625 -237.727485 
L 482.625 -239.996261 
L 482.625 -242.265038 
L 482.625 -244.533815 
L 482.625 -246.802591 
L 482.625 -249.071368 
L 482.625 -251.340145 
L 482.625 -253.608921 
L 482.625 -255.877698 
L 482.625 -258.146474 
L 482.625 -260.415251 
L 482.625 -262.684028 
L 482.625 -264.952804 
L 482.625 -267.221581 
L 482.625 -269.490358 
L 482.625 -271.759134 
L 482.625 -274.027911 
L 482.625 -276.296687 
L 482.625 -278.565464 
L 482.625 -280.834241 
L 482.625 -283.103017 
L 482.625 -285.371794 
L 482.625 -287.640571 
L 482.625 -289.909347 
L 482.625 -292.178124 
L 482.625 -294.446901 
L 482.625 -296.715677 
L 482.625 -298.984454 
L 482.625 -301.25323 
L 482.625 -303.522007 
L 482.625 -305.790784 
L 482.625 -308.05956 
L 482.625 -310.328337 
L 482.625 -312.597114 
L 482.625 -314.86589 
L 482.625 -317.134667 
L 482.625 -319.403443 
L 482.625 -321.67222 
L 482.625 -323.940997 
L 482.625 -326.209773 
L 482.625 -328.47855 
L 482.625 -330.747327 
L 482.625 -333.016103 
L 482.625 -335.28488 
L 482.625 -337.553657 
L 482.625 -339.822433 
L 482.625 -342.09121 
L 482.625 -344.359986 
L 482.625 -346.628763 
L 482.625 -348.89754 
L 482.625 -351.166316 
L 482.625 -353.435093 
L 482.625 -355.70387 
L 482.625 -357.972646 
L 482.625 -360.241423 
L 482.625 -362.510199 
L 482.918698 -362.510199 
L 482.918698 -362.510199 
L 483.043753 -360.241423 
L 483.186337 -357.972646 
L 483.336457 -355.70387 
L 483.484964 -353.435093 
L 483.62926 -351.166316 
L 483.778041 -348.89754 
L 483.951503 -346.628763 
L 484.174533 -344.359986 
L 484.464187 -342.09121 
L 484.817683 -339.822433 
L 485.209643 -337.553657 
L 485.604032 -335.28488 
L 485.9779 -333.016103 
L 486.345606 -330.747327 
L 486.770205 -328.47855 
L 487.35451 -326.209773 
L 488.213522 -323.940997 
L 489.436162 -321.67222 
L 491.046064 -319.403443 
L 492.972275 -317.134667 
L 495.04314 -314.86589 
L 497.015515 -312.597114 
L 498.639495 -310.328337 
L 499.737566 -308.05956 
L 500.26081 -305.790784 
L 500.29003 -303.522007 
L 499.978284 -301.25323 
L 499.465692 -298.984454 
L 498.813789 -296.715677 
L 497.99403 -294.446901 
L 496.933054 -292.178124 
L 495.586833 -289.909347 
L 494.004279 -287.640571 
L 492.351205 -285.371794 
L 490.887854 -283.103017 
L 489.912778 -280.834241 
L 489.693408 -278.565464 
L 490.400716 -276.296687 
L 492.060398 -274.027911 
L 494.532085 -271.759134 
L 497.528271 -269.490358 
L 500.67777 -267.221581 
L 503.621374 -264.952804 
L 506.108638 -262.684028 
L 508.058636 -260.415251 
L 509.561039 -258.146474 
L 510.819072 -255.877698 
L 512.057548 -253.608921 
L 513.428322 -251.340145 
L 514.945368 -249.071368 
L 516.477874 -246.802591 
L 517.818226 -244.533815 
L 518.813098 -242.265038 
L 519.503499 -239.996261 
L 520.191082 -237.727485 
L 521.3667 -235.458708 
L 523.507673 -233.189931 
L 526.832636 -230.921155 
L 531.139092 -228.652378 
L 535.81024 -226.383602 
L 539.989582 -224.114825 
L 542.842151 -221.846048 
L 543.793826 -219.577272 
L 542.667079 -217.308495 
L 539.682949 -215.039718 
L 535.345724 -212.770942 
L 530.258786 -210.502165 
L 524.938913 -208.233389 
L 519.698419 -205.964612 
L 514.638972 -203.695835 
L 509.748402 -201.427059 
L 505.036969 -199.158282 
L 500.629248 -196.889505 
L 496.759258 -194.620729 
L 493.679466 -192.351952 
L 491.545706 -190.083175 
L 490.347605 -187.814399 
L 489.918591 -185.545622 
L 490.008966 -183.276846 
L 490.372566 -181.008069 
L 490.819099 -178.739292 
L 491.215174 -176.470516 
L 491.454418 -174.201739 
L 491.435464 -171.932962 
L 491.073943 -169.664186 
L 490.342417 -167.395409 
L 489.306266 -165.126633 
L 488.123619 -162.857856 
L 487.001425 -160.589079 
L 486.127371 -158.320303 
L 485.609331 -156.051526 
L 485.446498 -153.782749 
L 485.539215 -151.513973 
L 485.729524 -149.245196 
L 485.85605 -146.976419 
L 485.804218 -144.707643 
L 485.5353 -142.438866 
L 485.085831 -140.17009 
L 484.54111 -137.901313 
z
" id="m709bd9a019" style="stroke:#363636;"/>
    </defs>
    <g clip-path="url(#p5fae59469f)">
     <use style="fill:#c38820;stroke:#363636;" x="0" xlink:href="#m709bd9a019" y="432"/>
    </g>
   </g>
   <g id="PolyCollection_7">
    <defs>
     <path d="M 636.075 -69.732493 
L 633.779527 -69.732493 
L 633.114906 -72.637041 
L 632.584246 -75.541589 
L 632.310439 -78.446137 
L 632.36226 -81.350685 
L 632.726295 -84.255233 
L 633.312295 -87.159781 
L 633.988658 -90.064329 
L 634.628201 -92.968878 
L 635.14116 -95.873426 
L 635.48301 -98.777974 
L 635.640284 -101.682522 
L 635.608115 -104.58707 
L 635.374785 -107.491618 
L 634.923172 -110.396166 
L 634.24968 -113.300714 
L 633.390945 -116.205262 
L 632.440668 -119.10981 
L 631.539257 -122.014358 
L 630.831633 -124.918907 
L 630.409576 -127.823455 
L 630.270465 -130.728003 
L 630.319996 -133.632551 
L 630.421134 -136.537099 
L 630.461353 -139.441647 
L 630.397321 -142.346195 
L 630.250659 -145.250743 
L 630.060084 -148.155291 
L 629.822635 -151.059839 
L 629.462936 -153.964388 
L 628.852651 -156.868936 
L 627.873463 -159.773484 
L 626.492047 -162.678032 
L 624.807322 -165.58258 
L 623.042711 -168.487128 
L 621.482231 -171.391676 
L 620.374474 -174.296224 
L 619.840023 -177.200772 
L 619.812941 -180.10532 
L 620.033514 -183.009868 
L 620.095983 -185.914417 
L 619.542476 -188.818965 
L 617.979247 -191.723513 
L 615.176886 -194.628061 
L 611.116486 -197.532609 
L 605.969382 -200.437157 
L 600.037911 -203.341705 
L 593.707439 -206.246253 
L 587.441207 -209.150801 
L 581.799052 -212.055349 
L 577.420096 -214.959898 
L 574.917672 -217.864446 
L 574.695 -220.768994 
L 576.762927 -223.673542 
L 580.67119 -226.57809 
L 585.620629 -229.482638 
L 590.724287 -232.387186 
L 595.292812 -235.291734 
L 599.000317 -238.196282 
L 601.859984 -241.10083 
L 604.056635 -244.005378 
L 605.76377 -246.909927 
L 607.061716 -249.814475 
L 607.985991 -252.719023 
L 608.638552 -255.623571 
L 609.255488 -258.528119 
L 610.162827 -261.432667 
L 611.634495 -264.337215 
L 613.735844 -267.241763 
L 616.249487 -270.146311 
L 618.732833 -273.050859 
L 620.681994 -275.955407 
L 621.721649 -278.859956 
L 621.734178 -281.764504 
L 620.880073 -284.669052 
L 619.517001 -287.5736 
L 618.066943 -290.478148 
L 616.893336 -293.382696 
L 616.233055 -296.287244 
L 616.193065 -299.191792 
L 616.787332 -302.09634 
L 617.974838 -305.000888 
L 619.672188 -307.905437 
L 621.743637 -310.809985 
L 623.994464 -313.714533 
L 626.192776 -316.619081 
L 628.122205 -319.523629 
L 629.642446 -322.428177 
L 630.725604 -325.332725 
L 631.449043 -328.237273 
L 631.949559 -331.141821 
L 632.363397 -334.046369 
L 632.780839 -336.950917 
L 633.232208 -339.855466 
L 633.702928 -342.760014 
L 634.161109 -345.664562 
L 634.579698 -348.56911 
L 634.944703 -351.473658 
L 635.252333 -354.378206 
L 635.503145 -357.282754 
L 636.075 -357.282754 
L 636.075 -357.282754 
L 636.075 -354.378206 
L 636.075 -351.473658 
L 636.075 -348.56911 
L 636.075 -345.664562 
L 636.075 -342.760014 
L 636.075 -339.855466 
L 636.075 -336.950917 
L 636.075 -334.046369 
L 636.075 -331.141821 
L 636.075 -328.237273 
L 636.075 -325.332725 
L 636.075 -322.428177 
L 636.075 -319.523629 
L 636.075 -316.619081 
L 636.075 -313.714533 
L 636.075 -310.809985 
L 636.075 -307.905437 
L 636.075 -305.000888 
L 636.075 -302.09634 
L 636.075 -299.191792 
L 636.075 -296.287244 
L 636.075 -293.382696 
L 636.075 -290.478148 
L 636.075 -287.5736 
L 636.075 -284.669052 
L 636.075 -281.764504 
L 636.075 -278.859956 
L 636.075 -275.955407 
L 636.075 -273.050859 
L 636.075 -270.146311 
L 636.075 -267.241763 
L 636.075 -264.337215 
L 636.075 -261.432667 
L 636.075 -258.528119 
L 636.075 -255.623571 
L 636.075 -252.719023 
L 636.075 -249.814475 
L 636.075 -246.909927 
L 636.075 -244.005378 
L 636.075 -241.10083 
L 636.075 -238.196282 
L 636.075 -235.291734 
L 636.075 -232.387186 
L 636.075 -229.482638 
L 636.075 -226.57809 
L 636.075 -223.673542 
L 636.075 -220.768994 
L 636.075 -217.864446 
L 636.075 -214.959898 
L 636.075 -212.055349 
L 636.075 -209.150801 
L 636.075 -206.246253 
L 636.075 -203.341705 
L 636.075 -200.437157 
L 636.075 -197.532609 
L 636.075 -194.628061 
L 636.075 -191.723513 
L 636.075 -188.818965 
L 636.075 -185.914417 
L 636.075 -183.009868 
L 636.075 -180.10532 
L 636.075 -177.200772 
L 636.075 -174.296224 
L 636.075 -171.391676 
L 636.075 -168.487128 
L 636.075 -165.58258 
L 636.075 -162.678032 
L 636.075 -159.773484 
L 636.075 -156.868936 
L 636.075 -153.964388 
L 636.075 -151.059839 
L 636.075 -148.155291 
L 636.075 -145.250743 
L 636.075 -142.346195 
L 636.075 -139.441647 
L 636.075 -136.537099 
L 636.075 -133.632551 
L 636.075 -130.728003 
L 636.075 -127.823455 
L 636.075 -124.918907 
L 636.075 -122.014358 
L 636.075 -119.10981 
L 636.075 -116.205262 
L 636.075 -113.300714 
L 636.075 -110.396166 
L 636.075 -107.491618 
L 636.075 -104.58707 
L 636.075 -101.682522 
L 636.075 -98.777974 
L 636.075 -95.873426 
L 636.075 -92.968878 
L 636.075 -90.064329 
L 636.075 -87.159781 
L 636.075 -84.255233 
L 636.075 -81.350685 
L 636.075 -78.446137 
L 636.075 -75.541589 
L 636.075 -72.637041 
L 636.075 -69.732493 
z
" id="m1025fd1414" style="stroke:#363636;"/>
    </defs>
    <g clip-path="url(#p5fae59469f)">
     <use style="fill:#176d9c;stroke:#363636;" x="0" xlink:href="#m1025fd1414" y="432"/>
    </g>
   </g>
   <g id="PolyCollection_8">
    <defs>
     <path d="M 639.511642 -69.312071 
L 636.075 -69.312071 
L 636.075 -72.297282 
L 636.075 -75.282493 
L 636.075 -78.267703 
L 636.075 -81.252914 
L 636.075 -84.238125 
L 636.075 -87.223336 
L 636.075 -90.208546 
L 636.075 -93.193757 
L 636.075 -96.178968 
L 636.075 -99.164178 
L 636.075 -102.149389 
L 636.075 -105.1346 
L 636.075 -108.11981 
L 636.075 -111.105021 
L 636.075 -114.090232 
L 636.075 -117.075442 
L 636.075 -120.060653 
L 636.075 -123.045864 
L 636.075 -126.031074 
L 636.075 -129.016285 
L 636.075 -132.001496 
L 636.075 -134.986706 
L 636.075 -137.971917 
L 636.075 -140.957128 
L 636.075 -143.942338 
L 636.075 -146.927549 
L 636.075 -149.91276 
L 636.075 -152.89797 
L 636.075 -155.883181 
L 636.075 -158.868392 
L 636.075 -161.853602 
L 636.075 -164.838813 
L 636.075 -167.824024 
L 636.075 -170.809234 
L 636.075 -173.794445 
L 636.075 -176.779656 
L 636.075 -179.764867 
L 636.075 -182.750077 
L 636.075 -185.735288 
L 636.075 -188.720499 
L 636.075 -191.705709 
L 636.075 -194.69092 
L 636.075 -197.676131 
L 636.075 -200.661341 
L 636.075 -203.646552 
L 636.075 -206.631763 
L 636.075 -209.616973 
L 636.075 -212.602184 
L 636.075 -215.587395 
L 636.075 -218.572605 
L 636.075 -221.557816 
L 636.075 -224.543027 
L 636.075 -227.528237 
L 636.075 -230.513448 
L 636.075 -233.498659 
L 636.075 -236.483869 
L 636.075 -239.46908 
L 636.075 -242.454291 
L 636.075 -245.439501 
L 636.075 -248.424712 
L 636.075 -251.409923 
L 636.075 -254.395133 
L 636.075 -257.380344 
L 636.075 -260.365555 
L 636.075 -263.350766 
L 636.075 -266.335976 
L 636.075 -269.321187 
L 636.075 -272.306398 
L 636.075 -275.291608 
L 636.075 -278.276819 
L 636.075 -281.26203 
L 636.075 -284.24724 
L 636.075 -287.232451 
L 636.075 -290.217662 
L 636.075 -293.202872 
L 636.075 -296.188083 
L 636.075 -299.173294 
L 636.075 -302.158504 
L 636.075 -305.143715 
L 636.075 -308.128926 
L 636.075 -311.114136 
L 636.075 -314.099347 
L 636.075 -317.084558 
L 636.075 -320.069768 
L 636.075 -323.054979 
L 636.075 -326.04019 
L 636.075 -329.0254 
L 636.075 -332.010611 
L 636.075 -334.995822 
L 636.075 -337.981032 
L 636.075 -340.966243 
L 636.075 -343.951454 
L 636.075 -346.936664 
L 636.075 -349.921875 
L 636.075 -352.907086 
L 636.075 -355.892297 
L 636.075 -358.877507 
L 636.075 -361.862718 
L 636.075 -364.847929 
L 636.513807 -364.847929 
L 636.513807 -364.847929 
L 636.719882 -361.862718 
L 636.967323 -358.877507 
L 637.24591 -355.892297 
L 637.544858 -352.907086 
L 637.856448 -349.921875 
L 638.175805 -346.936664 
L 638.496248 -343.951454 
L 638.804714 -340.966243 
L 639.084965 -337.981032 
L 639.333202 -334.995822 
L 639.581116 -332.010611 
L 639.91134 -329.0254 
L 640.448581 -326.04019 
L 641.320527 -323.054979 
L 642.601102 -320.069768 
L 644.262902 -317.084558 
L 646.165029 -314.099347 
L 648.085481 -311.114136 
L 649.783711 -308.128926 
L 651.064029 -305.143715 
L 651.813824 -302.158504 
L 652.008724 -299.173294 
L 651.69622 -296.188083 
L 650.976982 -293.202872 
L 649.99636 -290.217662 
L 648.944652 -287.232451 
L 648.05375 -284.24724 
L 647.576025 -281.26203 
L 647.7399 -278.276819 
L 648.691879 -275.291608 
L 650.448837 -272.306398 
L 652.886781 -269.321187 
L 655.777521 -266.335976 
L 658.859037 -263.350766 
L 661.905657 -260.365555 
L 664.76567 -257.380344 
L 667.357656 -254.395133 
L 669.647011 -251.409923 
L 671.638591 -248.424712 
L 673.405793 -245.439501 
L 675.136352 -242.454291 
L 677.138335 -239.46908 
L 679.75226 -236.483869 
L 683.17142 -233.498659 
L 687.252625 -230.513448 
L 691.440545 -227.528237 
L 694.884794 -224.543027 
L 696.717654 -221.557816 
L 696.35895 -218.572605 
L 693.698129 -215.587395 
L 689.082829 -212.602184 
L 683.156615 -209.616973 
L 676.655882 -206.631763 
L 670.260984 -203.646552 
L 664.528127 -200.661341 
L 659.867208 -197.676131 
L 656.518949 -194.69092 
L 654.518197 -191.705709 
L 653.671058 -188.720499 
L 653.584527 -185.735288 
L 653.761066 -182.750077 
L 653.730731 -179.764867 
L 653.170588 -176.779656 
L 651.968856 -173.794445 
L 650.219162 -170.809234 
L 648.15828 -167.824024 
L 646.075841 -164.838813 
L 644.226415 -161.853602 
L 642.768662 -158.868392 
L 641.746208 -155.883181 
L 641.111012 -152.89797 
L 640.774389 -149.91276 
L 640.659528 -146.927549 
L 640.729315 -143.942338 
L 640.976817 -140.957128 
L 641.387503 -137.971917 
L 641.900117 -134.986706 
L 642.395335 -132.001496 
L 642.724263 -129.016285 
L 642.762579 -126.031074 
L 642.458714 -123.045864 
L 641.84889 -120.060653 
L 641.034448 -117.075442 
L 640.14006 -114.090232 
L 639.278573 -111.105021 
L 638.537283 -108.11981 
L 637.983013 -105.1346 
L 637.672555 -102.149389 
L 637.655143 -99.164178 
L 637.960746 -96.178968 
L 638.57703 -93.193757 
L 639.426085 -90.208546 
L 640.357129 -87.223336 
L 641.16894 -84.238125 
L 641.662656 -81.252914 
L 641.706714 -78.267703 
L 641.283517 -75.282493 
L 640.493127 -72.297282 
L 639.511642 -69.312071 
z
" id="m0fae116e2b" style="stroke:#363636;"/>
    </defs>
    <g clip-path="url(#p5fae59469f)">
     <use style="fill:#c38820;stroke:#363636;" x="0" xlink:href="#m0fae116e2b" y="432"/>
    </g>
   </g>
   <g id="patch_3">
    <path clip-path="url(#p5fae59469f)" d="M 175.725 601.413109 
L 175.725 601.413109 
L 175.725 601.413109 
L 175.725 601.413109 
z
" style="fill:#176d9c;stroke:#363636;stroke-linejoin:miter;stroke-width:0.5;"/>
   </g>
   <g id="patch_4">
    <path clip-path="url(#p5fae59469f)" d="M 175.725 601.413109 
L 175.725 601.413109 
L 175.725 601.413109 
L 175.725 601.413109 
z
" style="fill:#c38820;stroke:#363636;stroke-linejoin:miter;stroke-width:0.5;"/>
   </g>
   <g id="line2d_7">
    <path clip-path="url(#p5fae59469f)" d="M 142.340589 228.68273 
L 175.725 228.68273 
" style="fill:none;stroke:#363636;stroke-dasharray:1.5,1.5;stroke-dashoffset:0;"/>
   </g>
   <g id="line2d_8">
    <path clip-path="url(#p5fae59469f)" d="M 116.165553 207.388705 
L 175.725 207.388705 
" style="fill:none;stroke:#363636;stroke-dasharray:3,3;stroke-dashoffset:0;"/>
   </g>
   <g id="line2d_9">
    <path clip-path="url(#p5fae59469f)" d="M 144.834846 185.546234 
L 175.725 185.546234 
" style="fill:none;stroke:#363636;stroke-dasharray:1.5,1.5;stroke-dashoffset:0;"/>
   </g>
   <g id="line2d_10">
    <path clip-path="url(#p5fae59469f)" d="M 175.725 224.305816 
L 214.583479 224.305816 
" style="fill:none;stroke:#363636;stroke-dasharray:1.5,1.5;stroke-dashoffset:0;"/>
   </g>
   <g id="line2d_11">
    <path clip-path="url(#p5fae59469f)" d="M 175.725 207.388705 
L 224.83437 207.388705 
" style="fill:none;stroke:#363636;stroke-dasharray:3,3;stroke-dashoffset:0;"/>
   </g>
   <g id="line2d_12">
    <path clip-path="url(#p5fae59469f)" d="M 175.725 178.709713 
L 204.43333 178.709713 
" style="fill:none;stroke:#363636;stroke-dasharray:1.5,1.5;stroke-dashoffset:0;"/>
   </g>
   <g id="line2d_13">
    <path clip-path="url(#p5fae59469f)" d="M 292.631416 228.68273 
L 329.175 228.68273 
" style="fill:none;stroke:#363636;stroke-dasharray:1.5,1.5;stroke-dashoffset:0;"/>
   </g>
   <g id="line2d_14">
    <path clip-path="url(#p5fae59469f)" d="M 270.38302 207.090043 
L 329.175 207.090043 
" style="fill:none;stroke:#363636;stroke-dasharray:3,3;stroke-dashoffset:0;"/>
   </g>
   <g id="line2d_15">
    <path clip-path="url(#p5fae59469f)" d="M 303.418884 178.709713 
L 329.175 178.709713 
" style="fill:none;stroke:#363636;stroke-dasharray:1.5,1.5;stroke-dashoffset:0;"/>
   </g>
   <g id="line2d_16">
    <path clip-path="url(#p5fae59469f)" d="M 329.175 228.68273 
L 363.109549 228.68273 
" style="fill:none;stroke:#363636;stroke-dasharray:1.5,1.5;stroke-dashoffset:0;"/>
   </g>
   <g id="line2d_17">
    <path clip-path="url(#p5fae59469f)" d="M 329.175 209.945825 
L 387.900557 209.945825 
" style="fill:none;stroke:#363636;stroke-dasharray:3,3;stroke-dashoffset:0;"/>
   </g>
   <g id="line2d_18">
    <path clip-path="url(#p5fae59469f)" d="M 329.175 185.546234 
L 363.255395 185.546234 
" style="fill:none;stroke:#363636;stroke-dasharray:1.5,1.5;stroke-dashoffset:0;"/>
   </g>
   <g id="line2d_19">
    <path clip-path="url(#p5fae59469f)" d="M 429.077874 221.138779 
L 482.625 221.138779 
" style="fill:none;stroke:#363636;stroke-dasharray:1.5,1.5;stroke-dashoffset:0;"/>
   </g>
   <g id="line2d_20">
    <path clip-path="url(#p5fae59469f)" d="M 425.044276 208.062546 
L 482.625 208.062546 
" style="fill:none;stroke:#363636;stroke-dasharray:3,3;stroke-dashoffset:0;"/>
   </g>
   <g id="line2d_21">
    <path clip-path="url(#p5fae59469f)" d="M 466.612091 178.102804 
L 482.625 178.102804 
" style="fill:none;stroke:#363636;stroke-dasharray:1.5,1.5;stroke-dashoffset:0;"/>
   </g>
   <g id="line2d_22">
    <path clip-path="url(#p5fae59469f)" d="M 482.625 215.875755 
L 539.112369 215.875755 
" style="fill:none;stroke:#363636;stroke-dasharray:1.5,1.5;stroke-dashoffset:0;"/>
   </g>
   <g id="line2d_23">
    <path clip-path="url(#p5fae59469f)" d="M 482.625 205.849592 
L 535.278388 205.849592 
" style="fill:none;stroke:#363636;stroke-dasharray:3,3;stroke-dashoffset:0;"/>
   </g>
   <g id="line2d_24">
    <path clip-path="url(#p5fae59469f)" d="M 482.625 170.622031 
L 507.804299 170.622031 
" style="fill:none;stroke:#363636;stroke-dasharray:1.5,1.5;stroke-dashoffset:0;"/>
   </g>
   <g id="line2d_25">
    <path clip-path="url(#p5fae59469f)" d="M 587.927545 223.532319 
L 636.075 223.532319 
" style="fill:none;stroke:#363636;stroke-dasharray:1.5,1.5;stroke-dashoffset:0;"/>
   </g>
   <g id="line2d_26">
    <path clip-path="url(#p5fae59469f)" d="M 577.356048 207.388705 
L 636.075 207.388705 
" style="fill:none;stroke:#363636;stroke-dasharray:3,3;stroke-dashoffset:0;"/>
   </g>
   <g id="line2d_27">
    <path clip-path="url(#p5fae59469f)" d="M 610.421949 170.622031 
L 636.075 170.622031 
" style="fill:none;stroke:#363636;stroke-dasharray:1.5,1.5;stroke-dashoffset:0;"/>
   </g>
   <g id="line2d_28">
    <path clip-path="url(#p5fae59469f)" d="M 636.075 223.532319 
L 682.685799 223.532319 
" style="fill:none;stroke:#363636;stroke-dasharray:1.5,1.5;stroke-dashoffset:0;"/>
   </g>
   <g id="line2d_29">
    <path clip-path="url(#p5fae59469f)" d="M 636.075 208.736388 
L 694.296696 208.736388 
" style="fill:none;stroke:#363636;stroke-dasharray:3,3;stroke-dashoffset:0;"/>
   </g>
   <g id="line2d_30">
    <path clip-path="url(#p5fae59469f)" d="M 636.075 180.126375 
L 669.311291 180.126375 
" style="fill:none;stroke:#363636;stroke-dasharray:1.5,1.5;stroke-dashoffset:0;"/>
   </g>
   <g id="legend_1">
    <g id="patch_5">
     <path d="M 649.721875 108.234062 
L 705.1 108.234062 
Q 707.3 108.234062 707.3 106.034063 
L 707.3 59.54 
Q 707.3 57.34 705.1 57.34 
L 649.721875 57.34 
Q 647.521875 57.34 647.521875 59.54 
L 647.521875 106.034063 
Q 647.521875 108.234062 649.721875 108.234062 
z
" style="fill:#ffffff;opacity:0.8;stroke:#cccccc;stroke-linejoin:miter;"/>
    </g>
    <g id="text_13">
     <!-- inv_occ -->
     <g style="fill:#262626;" transform="translate(657.068125 70.329375)scale(0.12 -0.12)">
      <defs>
       <path d="M 6.640625 61.46875 
L 6.640625 71.578125 
L 15.4375 71.578125 
L 15.4375 61.46875 
z
M 6.640625 0 
L 6.640625 51.859375 
L 15.4375 51.859375 
L 15.4375 0 
z
" id="ArialMT-105"/>
       <path d="M 21 0 
L 1.265625 51.859375 
L 10.546875 51.859375 
L 21.6875 20.796875 
Q 23.484375 15.765625 25 10.359375 
Q 26.171875 14.453125 28.265625 20.21875 
L 39.796875 51.859375 
L 48.828125 51.859375 
L 29.203125 0 
z
" id="ArialMT-118"/>
       <path d="M 3.328125 25.921875 
Q 3.328125 40.328125 11.328125 47.265625 
Q 18.015625 53.03125 27.640625 53.03125 
Q 38.328125 53.03125 45.109375 46.015625 
Q 51.90625 39.015625 51.90625 26.65625 
Q 51.90625 16.65625 48.90625 10.90625 
Q 45.90625 5.171875 40.15625 2 
Q 34.421875 -1.171875 27.640625 -1.171875 
Q 16.75 -1.171875 10.03125 5.8125 
Q 3.328125 12.796875 3.328125 25.921875 
z
M 12.359375 25.921875 
Q 12.359375 15.96875 16.703125 11.015625 
Q 21.046875 6.0625 27.640625 6.0625 
Q 34.1875 6.0625 38.53125 11.03125 
Q 42.875 16.015625 42.875 26.21875 
Q 42.875 35.84375 38.5 40.796875 
Q 34.125 45.75 27.640625 45.75 
Q 21.046875 45.75 16.703125 40.8125 
Q 12.359375 35.890625 12.359375 25.921875 
z
" id="ArialMT-111"/>
       <path d="M 40.4375 19 
L 49.078125 17.875 
Q 47.65625 8.9375 41.8125 3.875 
Q 35.984375 -1.171875 27.484375 -1.171875 
Q 16.84375 -1.171875 10.375 5.78125 
Q 3.90625 12.75 3.90625 25.734375 
Q 3.90625 34.125 6.6875 40.421875 
Q 9.46875 46.734375 15.15625 49.875 
Q 20.84375 53.03125 27.546875 53.03125 
Q 35.984375 53.03125 41.359375 48.75 
Q 46.734375 44.484375 48.25 36.625 
L 39.703125 35.296875 
Q 38.484375 40.53125 35.375 43.15625 
Q 32.28125 45.796875 27.875 45.796875 
Q 21.234375 45.796875 17.078125 41.03125 
Q 12.9375 36.28125 12.9375 25.984375 
Q 12.9375 15.53125 16.9375 10.796875 
Q 20.953125 6.0625 27.390625 6.0625 
Q 32.5625 6.0625 36.03125 9.234375 
Q 39.5 12.40625 40.4375 19 
z
" id="ArialMT-99"/>
      </defs>
      <use xlink:href="#ArialMT-105"/>
      <use x="22.216797" xlink:href="#ArialMT-110"/>
      <use x="77.832031" xlink:href="#ArialMT-118"/>
      <use x="127.832031" xlink:href="#ArialMT-95"/>
      <use x="183.447266" xlink:href="#ArialMT-111"/>
      <use x="239.0625" xlink:href="#ArialMT-99"/>
      <use x="289.0625" xlink:href="#ArialMT-99"/>
     </g>
    </g>
    <g id="patch_6">
     <path d="M 651.921875 86.087969 
L 673.921875 86.087969 
L 673.921875 78.387969 
L 651.921875 78.387969 
z
" style="fill:#176d9c;stroke:#363636;stroke-linejoin:miter;stroke-width:0.5;"/>
    </g>
    <g id="text_14">
     <!-- inv -->
     <g style="fill:#262626;" transform="translate(682.721875 86.087969)scale(0.11 -0.11)">
      <use xlink:href="#ArialMT-105"/>
      <use x="22.216797" xlink:href="#ArialMT-110"/>
      <use x="77.832031" xlink:href="#ArialMT-118"/>
     </g>
    </g>
    <g id="patch_7">
     <path d="M 651.921875 101.647812 
L 673.921875 101.647812 
L 673.921875 93.947812 
L 651.921875 93.947812 
z
" style="fill:#c38820;stroke:#363636;stroke-linejoin:miter;stroke-width:0.5;"/>
    </g>
    <g id="text_15">
     <!-- own -->
     <g style="fill:#262626;" transform="translate(682.721875 101.647812)scale(0.11 -0.11)">
      <defs>
       <path d="M 16.15625 0 
L 0.296875 51.859375 
L 9.375 51.859375 
L 17.625 21.921875 
L 20.703125 10.796875 
Q 20.90625 11.625 23.390625 21.484375 
L 31.640625 51.859375 
L 40.671875 51.859375 
L 48.4375 21.78125 
L 51.03125 11.859375 
L 54 21.875 
L 62.890625 51.859375 
L 71.4375 51.859375 
L 55.21875 0 
L 46.09375 0 
L 37.84375 31.0625 
L 35.84375 39.890625 
L 25.34375 0 
z
" id="ArialMT-119"/>
      </defs>
      <use xlink:href="#ArialMT-111"/>
      <use x="55.615234" xlink:href="#ArialMT-119"/>
      <use x="127.832031" xlink:href="#ArialMT-110"/>
     </g>
    </g>
   </g>
  </g>
 </g>
 <defs>
  <clipPath id="p5fae59469f">
   <rect height="326.16" width="613.8" x="99" y="51.84"/>
  </clipPath>
 </defs>
</svg>
