<?xml version="1.0" encoding="utf-8" standalone="no"?>
<!DOCTYPE svg PUBLIC "-//W3C//DTD SVG 1.1//EN"
  "http://www.w3.org/Graphics/SVG/1.1/DTD/svg11.dtd">
<!-- Created with matplotlib (https://matplotlib.org/) -->
<svg height="432pt" version="1.1" viewBox="0 0 792 432" width="792pt" xmlns="http://www.w3.org/2000/svg" xmlns:xlink="http://www.w3.org/1999/xlink">
 <metadata>
  <rdf:RDF xmlns:cc="http://creativecommons.org/ns#" xmlns:dc="http://purl.org/dc/elements/1.1/" xmlns:rdf="http://www.w3.org/1999/02/22-rdf-syntax-ns#">
   <cc:Work>
    <dc:type rdf:resource="http://purl.org/dc/dcmitype/StillImage"/>
    <dc:date>2021-08-19T08:05:22.545487</dc:date>
    <dc:format>image/svg+xml</dc:format>
    <dc:creator>
     <cc:Agent>
      <dc:title>Matplotlib v3.3.1, https://matplotlib.org/</dc:title>
     </cc:Agent>
    </dc:creator>
   </cc:Work>
  </rdf:RDF>
 </metadata>
 <defs>
  <style type="text/css">*{stroke-linecap:butt;stroke-linejoin:round;}</style>
 </defs>
 <g id="figure_1">
  <g id="patch_1">
   <path d="M 0 432 
L 792 432 
L 792 0 
L 0 0 
z
" style="fill:#ffffff;"/>
  </g>
  <g id="axes_1">
   <g id="patch_2">
    <path d="M 99 378 
L 712.8 378 
L 712.8 51.84 
L 99 51.84 
z
" style="fill:#ffffff;"/>
   </g>
   <g id="matplotlib.axis_1">
    <g id="xtick_1">
     <g id="text_1">
      <!-- 2000-2006 -->
      <g style="fill:#262626;" transform="translate(149.425547 395.373594)scale(0.11 -0.11)">
       <defs>
        <path d="M 50.34375 8.453125 
L 50.34375 0 
L 3.03125 0 
Q 2.9375 3.171875 4.046875 6.109375 
Q 5.859375 10.9375 9.828125 15.625 
Q 13.8125 20.3125 21.34375 26.46875 
Q 33.015625 36.03125 37.109375 41.625 
Q 41.21875 47.21875 41.21875 52.203125 
Q 41.21875 57.421875 37.46875 61 
Q 33.734375 64.59375 27.734375 64.59375 
Q 21.390625 64.59375 17.578125 60.78125 
Q 13.765625 56.984375 13.71875 50.25 
L 4.6875 51.171875 
Q 5.609375 61.28125 11.65625 66.578125 
Q 17.71875 71.875 27.9375 71.875 
Q 38.234375 71.875 44.234375 66.15625 
Q 50.25 60.453125 50.25 52 
Q 50.25 47.703125 48.484375 43.546875 
Q 46.734375 39.40625 42.65625 34.8125 
Q 38.578125 30.21875 29.109375 22.21875 
Q 21.1875 15.578125 18.9375 13.203125 
Q 16.703125 10.84375 15.234375 8.453125 
z
" id="ArialMT-50"/>
        <path d="M 4.15625 35.296875 
Q 4.15625 48 6.765625 55.734375 
Q 9.375 63.484375 14.515625 67.671875 
Q 19.671875 71.875 27.484375 71.875 
Q 33.25 71.875 37.59375 69.546875 
Q 41.9375 67.234375 44.765625 62.859375 
Q 47.609375 58.5 49.21875 52.21875 
Q 50.828125 45.953125 50.828125 35.296875 
Q 50.828125 22.703125 48.234375 14.96875 
Q 45.65625 7.234375 40.5 3 
Q 35.359375 -1.21875 27.484375 -1.21875 
Q 17.140625 -1.21875 11.234375 6.203125 
Q 4.15625 15.140625 4.15625 35.296875 
z
M 13.1875 35.296875 
Q 13.1875 17.671875 17.3125 11.828125 
Q 21.4375 6 27.484375 6 
Q 33.546875 6 37.671875 11.859375 
Q 41.796875 17.71875 41.796875 35.296875 
Q 41.796875 52.984375 37.671875 58.78125 
Q 33.546875 64.59375 27.390625 64.59375 
Q 21.34375 64.59375 17.71875 59.46875 
Q 13.1875 52.9375 13.1875 35.296875 
z
" id="ArialMT-48"/>
        <path d="M 3.171875 21.484375 
L 3.171875 30.328125 
L 30.171875 30.328125 
L 30.171875 21.484375 
z
" id="ArialMT-45"/>
        <path d="M 49.75 54.046875 
L 41.015625 53.375 
Q 39.84375 58.546875 37.703125 60.890625 
Q 34.125 64.65625 28.90625 64.65625 
Q 24.703125 64.65625 21.53125 62.3125 
Q 17.390625 59.28125 14.984375 53.46875 
Q 12.59375 47.65625 12.5 36.921875 
Q 15.671875 41.75 20.265625 44.09375 
Q 24.859375 46.4375 29.890625 46.4375 
Q 38.671875 46.4375 44.84375 39.96875 
Q 51.03125 33.5 51.03125 23.25 
Q 51.03125 16.5 48.125 10.71875 
Q 45.21875 4.9375 40.140625 1.859375 
Q 35.0625 -1.21875 28.609375 -1.21875 
Q 17.625 -1.21875 10.6875 6.859375 
Q 3.765625 14.9375 3.765625 33.5 
Q 3.765625 54.25 11.421875 63.671875 
Q 18.109375 71.875 29.4375 71.875 
Q 37.890625 71.875 43.28125 67.140625 
Q 48.6875 62.40625 49.75 54.046875 
z
M 13.875 23.1875 
Q 13.875 18.65625 15.796875 14.5 
Q 17.71875 10.359375 21.1875 8.171875 
Q 24.65625 6 28.46875 6 
Q 34.03125 6 38.03125 10.484375 
Q 42.046875 14.984375 42.046875 22.703125 
Q 42.046875 30.125 38.078125 34.390625 
Q 34.125 38.671875 28.125 38.671875 
Q 22.171875 38.671875 18.015625 34.390625 
Q 13.875 30.125 13.875 23.1875 
z
" id="ArialMT-54"/>
       </defs>
       <use xlink:href="#ArialMT-50"/>
       <use x="55.615234" xlink:href="#ArialMT-48"/>
       <use x="111.230469" xlink:href="#ArialMT-48"/>
       <use x="166.845703" xlink:href="#ArialMT-48"/>
       <use x="222.460938" xlink:href="#ArialMT-45"/>
       <use x="255.761719" xlink:href="#ArialMT-50"/>
       <use x="311.376953" xlink:href="#ArialMT-48"/>
       <use x="366.992188" xlink:href="#ArialMT-48"/>
       <use x="422.607422" xlink:href="#ArialMT-54"/>
      </g>
     </g>
    </g>
    <g id="xtick_2">
     <g id="text_2">
      <!-- 2007-2009 -->
      <g style="fill:#262626;" transform="translate(302.875547 395.373594)scale(0.11 -0.11)">
       <defs>
        <path d="M 4.734375 62.203125 
L 4.734375 70.65625 
L 51.078125 70.65625 
L 51.078125 63.8125 
Q 44.234375 56.546875 37.515625 44.484375 
Q 30.8125 32.421875 27.15625 19.671875 
Q 24.515625 10.6875 23.78125 0 
L 14.75 0 
Q 14.890625 8.453125 18.0625 20.40625 
Q 21.234375 32.375 27.171875 43.484375 
Q 33.109375 54.59375 39.796875 62.203125 
z
" id="ArialMT-55"/>
        <path d="M 5.46875 16.546875 
L 13.921875 17.328125 
Q 14.984375 11.375 18.015625 8.6875 
Q 21.046875 6 25.78125 6 
Q 29.828125 6 32.875 7.859375 
Q 35.9375 9.71875 37.890625 12.8125 
Q 39.84375 15.921875 41.15625 21.1875 
Q 42.484375 26.46875 42.484375 31.9375 
Q 42.484375 32.515625 42.4375 33.6875 
Q 39.796875 29.5 35.234375 26.875 
Q 30.671875 24.265625 25.34375 24.265625 
Q 16.453125 24.265625 10.296875 30.703125 
Q 4.15625 37.15625 4.15625 47.703125 
Q 4.15625 58.59375 10.578125 65.234375 
Q 17 71.875 26.65625 71.875 
Q 33.640625 71.875 39.421875 68.109375 
Q 45.21875 64.359375 48.21875 57.390625 
Q 51.21875 50.4375 51.21875 37.25 
Q 51.21875 23.53125 48.234375 15.40625 
Q 45.265625 7.28125 39.375 3.03125 
Q 33.5 -1.21875 25.59375 -1.21875 
Q 17.1875 -1.21875 11.859375 3.4375 
Q 6.546875 8.109375 5.46875 16.546875 
z
M 41.453125 48.140625 
Q 41.453125 55.71875 37.421875 60.15625 
Q 33.40625 64.59375 27.734375 64.59375 
Q 21.875 64.59375 17.53125 59.8125 
Q 13.1875 55.03125 13.1875 47.40625 
Q 13.1875 40.578125 17.3125 36.296875 
Q 21.4375 32.03125 27.484375 32.03125 
Q 33.59375 32.03125 37.515625 36.296875 
Q 41.453125 40.578125 41.453125 48.140625 
z
" id="ArialMT-57"/>
       </defs>
       <use xlink:href="#ArialMT-50"/>
       <use x="55.615234" xlink:href="#ArialMT-48"/>
       <use x="111.230469" xlink:href="#ArialMT-48"/>
       <use x="166.845703" xlink:href="#ArialMT-55"/>
       <use x="222.460938" xlink:href="#ArialMT-45"/>
       <use x="255.761719" xlink:href="#ArialMT-50"/>
       <use x="311.376953" xlink:href="#ArialMT-48"/>
       <use x="366.992188" xlink:href="#ArialMT-48"/>
       <use x="422.607422" xlink:href="#ArialMT-57"/>
      </g>
     </g>
    </g>
    <g id="xtick_3">
     <g id="text_3">
      <!-- 2010-2013 -->
      <g style="fill:#262626;" transform="translate(456.325547 395.373594)scale(0.11 -0.11)">
       <defs>
        <path d="M 37.25 0 
L 28.46875 0 
L 28.46875 56 
Q 25.296875 52.984375 20.140625 49.953125 
Q 14.984375 46.921875 10.890625 45.40625 
L 10.890625 53.90625 
Q 18.265625 57.375 23.78125 62.296875 
Q 29.296875 67.234375 31.59375 71.875 
L 37.25 71.875 
z
" id="ArialMT-49"/>
        <path d="M 4.203125 18.890625 
L 12.984375 20.0625 
Q 14.5 12.59375 18.140625 9.296875 
Q 21.78125 6 27 6 
Q 33.203125 6 37.46875 10.296875 
Q 41.75 14.59375 41.75 20.953125 
Q 41.75 27 37.796875 30.921875 
Q 33.84375 34.859375 27.734375 34.859375 
Q 25.25 34.859375 21.53125 33.890625 
L 22.515625 41.609375 
Q 23.390625 41.5 23.921875 41.5 
Q 29.546875 41.5 34.03125 44.421875 
Q 38.53125 47.359375 38.53125 53.46875 
Q 38.53125 58.296875 35.25 61.46875 
Q 31.984375 64.65625 26.8125 64.65625 
Q 21.6875 64.65625 18.265625 61.421875 
Q 14.84375 58.203125 13.875 51.765625 
L 5.078125 53.328125 
Q 6.6875 62.15625 12.390625 67.015625 
Q 18.109375 71.875 26.609375 71.875 
Q 32.46875 71.875 37.390625 69.359375 
Q 42.328125 66.84375 44.9375 62.5 
Q 47.5625 58.15625 47.5625 53.265625 
Q 47.5625 48.640625 45.0625 44.828125 
Q 42.578125 41.015625 37.703125 38.765625 
Q 44.046875 37.3125 47.5625 32.6875 
Q 51.078125 28.078125 51.078125 21.140625 
Q 51.078125 11.765625 44.234375 5.25 
Q 37.40625 -1.265625 26.953125 -1.265625 
Q 17.53125 -1.265625 11.296875 4.34375 
Q 5.078125 9.96875 4.203125 18.890625 
z
" id="ArialMT-51"/>
       </defs>
       <use xlink:href="#ArialMT-50"/>
       <use x="55.615234" xlink:href="#ArialMT-48"/>
       <use x="111.230469" xlink:href="#ArialMT-49"/>
       <use x="166.845703" xlink:href="#ArialMT-48"/>
       <use x="222.460938" xlink:href="#ArialMT-45"/>
       <use x="255.761719" xlink:href="#ArialMT-50"/>
       <use x="311.376953" xlink:href="#ArialMT-48"/>
       <use x="366.992188" xlink:href="#ArialMT-49"/>
       <use x="422.607422" xlink:href="#ArialMT-51"/>
      </g>
     </g>
    </g>
    <g id="xtick_4">
     <g id="text_4">
      <!-- 2014-2018 -->
      <g style="fill:#262626;" transform="translate(609.775547 395.373594)scale(0.11 -0.11)">
       <defs>
        <path d="M 32.328125 0 
L 32.328125 17.140625 
L 1.265625 17.140625 
L 1.265625 25.203125 
L 33.9375 71.578125 
L 41.109375 71.578125 
L 41.109375 25.203125 
L 50.78125 25.203125 
L 50.78125 17.140625 
L 41.109375 17.140625 
L 41.109375 0 
z
M 32.328125 25.203125 
L 32.328125 57.46875 
L 9.90625 25.203125 
z
" id="ArialMT-52"/>
        <path d="M 17.671875 38.8125 
Q 12.203125 40.828125 9.5625 44.53125 
Q 6.9375 48.25 6.9375 53.421875 
Q 6.9375 61.234375 12.546875 66.546875 
Q 18.171875 71.875 27.484375 71.875 
Q 36.859375 71.875 42.578125 66.421875 
Q 48.296875 60.984375 48.296875 53.171875 
Q 48.296875 48.1875 45.671875 44.5 
Q 43.0625 40.828125 37.75 38.8125 
Q 44.34375 36.671875 47.78125 31.875 
Q 51.21875 27.09375 51.21875 20.453125 
Q 51.21875 11.28125 44.71875 5.03125 
Q 38.234375 -1.21875 27.640625 -1.21875 
Q 17.046875 -1.21875 10.546875 5.046875 
Q 4.046875 11.328125 4.046875 20.703125 
Q 4.046875 27.6875 7.59375 32.390625 
Q 11.140625 37.109375 17.671875 38.8125 
z
M 15.921875 53.71875 
Q 15.921875 48.640625 19.1875 45.40625 
Q 22.46875 42.1875 27.6875 42.1875 
Q 32.765625 42.1875 36.015625 45.375 
Q 39.265625 48.578125 39.265625 53.21875 
Q 39.265625 58.0625 35.90625 61.359375 
Q 32.5625 64.65625 27.59375 64.65625 
Q 22.5625 64.65625 19.234375 61.421875 
Q 15.921875 58.203125 15.921875 53.71875 
z
M 13.09375 20.65625 
Q 13.09375 16.890625 14.875 13.375 
Q 16.65625 9.859375 20.171875 7.921875 
Q 23.6875 6 27.734375 6 
Q 34.03125 6 38.125 10.046875 
Q 42.234375 14.109375 42.234375 20.359375 
Q 42.234375 26.703125 38.015625 30.859375 
Q 33.796875 35.015625 27.4375 35.015625 
Q 21.234375 35.015625 17.15625 30.90625 
Q 13.09375 26.8125 13.09375 20.65625 
z
" id="ArialMT-56"/>
       </defs>
       <use xlink:href="#ArialMT-50"/>
       <use x="55.615234" xlink:href="#ArialMT-48"/>
       <use x="111.230469" xlink:href="#ArialMT-49"/>
       <use x="166.845703" xlink:href="#ArialMT-52"/>
       <use x="222.460938" xlink:href="#ArialMT-45"/>
       <use x="255.761719" xlink:href="#ArialMT-50"/>
       <use x="311.376953" xlink:href="#ArialMT-48"/>
       <use x="366.992188" xlink:href="#ArialMT-49"/>
       <use x="422.607422" xlink:href="#ArialMT-56"/>
      </g>
     </g>
    </g>
    <g id="text_5">
     <!-- year -->
     <g style="fill:#262626;" transform="translate(394.229063 410.008594)scale(0.12 -0.12)">
      <defs>
       <path d="M 6.203125 -19.96875 
L 5.21875 -11.71875 
Q 8.109375 -12.5 10.25 -12.5 
Q 13.1875 -12.5 14.9375 -11.515625 
Q 16.703125 -10.546875 17.828125 -8.796875 
Q 18.65625 -7.46875 20.515625 -2.25 
Q 20.75 -1.515625 21.296875 -0.09375 
L 1.609375 51.859375 
L 11.078125 51.859375 
L 21.875 21.828125 
Q 23.96875 16.109375 25.640625 9.8125 
Q 27.15625 15.875 29.25 21.625 
L 40.328125 51.859375 
L 49.125 51.859375 
L 29.390625 -0.875 
Q 26.21875 -9.421875 24.46875 -12.640625 
Q 22.125 -17 19.09375 -19.015625 
Q 16.0625 -21.046875 11.859375 -21.046875 
Q 9.328125 -21.046875 6.203125 -19.96875 
z
" id="ArialMT-121"/>
       <path d="M 42.09375 16.703125 
L 51.171875 15.578125 
Q 49.03125 7.625 43.21875 3.21875 
Q 37.40625 -1.171875 28.375 -1.171875 
Q 17 -1.171875 10.328125 5.828125 
Q 3.65625 12.84375 3.65625 25.484375 
Q 3.65625 38.578125 10.390625 45.796875 
Q 17.140625 53.03125 27.875 53.03125 
Q 38.28125 53.03125 44.875 45.953125 
Q 51.46875 38.875 51.46875 26.03125 
Q 51.46875 25.25 51.421875 23.6875 
L 12.75 23.6875 
Q 13.234375 15.140625 17.578125 10.59375 
Q 21.921875 6.0625 28.421875 6.0625 
Q 33.25 6.0625 36.671875 8.59375 
Q 40.09375 11.140625 42.09375 16.703125 
z
M 13.234375 30.90625 
L 42.1875 30.90625 
Q 41.609375 37.453125 38.875 40.71875 
Q 34.671875 45.796875 27.984375 45.796875 
Q 21.921875 45.796875 17.796875 41.75 
Q 13.671875 37.703125 13.234375 30.90625 
z
" id="ArialMT-101"/>
       <path d="M 40.4375 6.390625 
Q 35.546875 2.25 31.03125 0.53125 
Q 26.515625 -1.171875 21.34375 -1.171875 
Q 12.796875 -1.171875 8.203125 3 
Q 3.609375 7.171875 3.609375 13.671875 
Q 3.609375 17.484375 5.34375 20.625 
Q 7.078125 23.78125 9.890625 25.6875 
Q 12.703125 27.59375 16.21875 28.5625 
Q 18.796875 29.25 24.03125 29.890625 
Q 34.671875 31.15625 39.703125 32.90625 
Q 39.75 34.71875 39.75 35.203125 
Q 39.75 40.578125 37.25 42.78125 
Q 33.890625 45.75 27.25 45.75 
Q 21.046875 45.75 18.09375 43.578125 
Q 15.140625 41.40625 13.71875 35.890625 
L 5.125 37.0625 
Q 6.296875 42.578125 8.984375 45.96875 
Q 11.671875 49.359375 16.75 51.1875 
Q 21.828125 53.03125 28.515625 53.03125 
Q 35.15625 53.03125 39.296875 51.46875 
Q 43.453125 49.90625 45.40625 47.53125 
Q 47.359375 45.171875 48.140625 41.546875 
Q 48.578125 39.3125 48.578125 33.453125 
L 48.578125 21.734375 
Q 48.578125 9.46875 49.140625 6.21875 
Q 49.703125 2.984375 51.375 0 
L 42.1875 0 
Q 40.828125 2.734375 40.4375 6.390625 
z
M 39.703125 26.03125 
Q 34.90625 24.078125 25.34375 22.703125 
Q 19.921875 21.921875 17.671875 20.9375 
Q 15.4375 19.96875 14.203125 18.09375 
Q 12.984375 16.21875 12.984375 13.921875 
Q 12.984375 10.40625 15.640625 8.0625 
Q 18.3125 5.71875 23.4375 5.71875 
Q 28.515625 5.71875 32.46875 7.9375 
Q 36.421875 10.15625 38.28125 14.015625 
Q 39.703125 17 39.703125 22.796875 
z
" id="ArialMT-97"/>
       <path d="M 6.5 0 
L 6.5 51.859375 
L 14.40625 51.859375 
L 14.40625 44 
Q 17.4375 49.515625 20 51.265625 
Q 22.5625 53.03125 25.640625 53.03125 
Q 30.078125 53.03125 34.671875 50.203125 
L 31.640625 42.046875 
Q 28.421875 43.953125 25.203125 43.953125 
Q 22.3125 43.953125 20.015625 42.21875 
Q 17.71875 40.484375 16.75 37.40625 
Q 15.28125 32.71875 15.28125 27.15625 
L 15.28125 0 
z
" id="ArialMT-114"/>
      </defs>
      <use xlink:href="#ArialMT-121"/>
      <use x="50" xlink:href="#ArialMT-101"/>
      <use x="105.615234" xlink:href="#ArialMT-97"/>
      <use x="161.230469" xlink:href="#ArialMT-114"/>
     </g>
    </g>
   </g>
   <g id="matplotlib.axis_2">
    <g id="ytick_1">
     <g id="line2d_1">
      <path clip-path="url(#p1e4688e31c)" d="M 99 359.188523 
L 712.8 359.188523 
" style="fill:none;stroke:#cccccc;stroke-linecap:round;"/>
     </g>
     <g id="text_6">
      <!-- 10000 -->
      <g style="fill:#262626;" transform="translate(58.914844 363.12532)scale(0.11 -0.11)">
       <use xlink:href="#ArialMT-49"/>
       <use x="55.615234" xlink:href="#ArialMT-48"/>
       <use x="111.230469" xlink:href="#ArialMT-48"/>
       <use x="166.845703" xlink:href="#ArialMT-48"/>
       <use x="222.460938" xlink:href="#ArialMT-48"/>
      </g>
     </g>
    </g>
    <g id="ytick_2">
     <g id="line2d_2">
      <path clip-path="url(#p1e4688e31c)" d="M 99 299.086192 
L 712.8 299.086192 
" style="fill:none;stroke:#cccccc;stroke-linecap:round;"/>
     </g>
     <g id="text_7">
      <!-- 20000 -->
      <g style="fill:#262626;" transform="translate(58.914844 303.022989)scale(0.11 -0.11)">
       <use xlink:href="#ArialMT-50"/>
       <use x="55.615234" xlink:href="#ArialMT-48"/>
       <use x="111.230469" xlink:href="#ArialMT-48"/>
       <use x="166.845703" xlink:href="#ArialMT-48"/>
       <use x="222.460938" xlink:href="#ArialMT-48"/>
      </g>
     </g>
    </g>
    <g id="ytick_3">
     <g id="line2d_3">
      <path clip-path="url(#p1e4688e31c)" d="M 99 238.983861 
L 712.8 238.983861 
" style="fill:none;stroke:#cccccc;stroke-linecap:round;"/>
     </g>
     <g id="text_8">
      <!-- 30000 -->
      <g style="fill:#262626;" transform="translate(58.914844 242.920658)scale(0.11 -0.11)">
       <use xlink:href="#ArialMT-51"/>
       <use x="55.615234" xlink:href="#ArialMT-48"/>
       <use x="111.230469" xlink:href="#ArialMT-48"/>
       <use x="166.845703" xlink:href="#ArialMT-48"/>
       <use x="222.460938" xlink:href="#ArialMT-48"/>
      </g>
     </g>
    </g>
    <g id="ytick_4">
     <g id="line2d_4">
      <path clip-path="url(#p1e4688e31c)" d="M 99 178.88153 
L 712.8 178.88153 
" style="fill:none;stroke:#cccccc;stroke-linecap:round;"/>
     </g>
     <g id="text_9">
      <!-- 40000 -->
      <g style="fill:#262626;" transform="translate(58.914844 182.818327)scale(0.11 -0.11)">
       <use xlink:href="#ArialMT-52"/>
       <use x="55.615234" xlink:href="#ArialMT-48"/>
       <use x="111.230469" xlink:href="#ArialMT-48"/>
       <use x="166.845703" xlink:href="#ArialMT-48"/>
       <use x="222.460938" xlink:href="#ArialMT-48"/>
      </g>
     </g>
    </g>
    <g id="ytick_5">
     <g id="line2d_5">
      <path clip-path="url(#p1e4688e31c)" d="M 99 118.779199 
L 712.8 118.779199 
" style="fill:none;stroke:#cccccc;stroke-linecap:round;"/>
     </g>
     <g id="text_10">
      <!-- 50000 -->
      <g style="fill:#262626;" transform="translate(58.914844 122.715996)scale(0.11 -0.11)">
       <defs>
        <path d="M 4.15625 18.75 
L 13.375 19.53125 
Q 14.40625 12.796875 18.140625 9.390625 
Q 21.875 6 27.15625 6 
Q 33.5 6 37.890625 10.78125 
Q 42.28125 15.578125 42.28125 23.484375 
Q 42.28125 31 38.0625 35.34375 
Q 33.84375 39.703125 27 39.703125 
Q 22.75 39.703125 19.328125 37.765625 
Q 15.921875 35.84375 13.96875 32.765625 
L 5.71875 33.84375 
L 12.640625 70.609375 
L 48.25 70.609375 
L 48.25 62.203125 
L 19.671875 62.203125 
L 15.828125 42.96875 
Q 22.265625 47.46875 29.34375 47.46875 
Q 38.71875 47.46875 45.15625 40.96875 
Q 51.609375 34.46875 51.609375 24.265625 
Q 51.609375 14.546875 45.953125 7.46875 
Q 39.0625 -1.21875 27.15625 -1.21875 
Q 17.390625 -1.21875 11.203125 4.25 
Q 5.03125 9.71875 4.15625 18.75 
z
" id="ArialMT-53"/>
       </defs>
       <use xlink:href="#ArialMT-53"/>
       <use x="55.615234" xlink:href="#ArialMT-48"/>
       <use x="111.230469" xlink:href="#ArialMT-48"/>
       <use x="166.845703" xlink:href="#ArialMT-48"/>
       <use x="222.460938" xlink:href="#ArialMT-48"/>
      </g>
     </g>
    </g>
    <g id="ytick_6">
     <g id="line2d_6">
      <path clip-path="url(#p1e4688e31c)" d="M 99 58.676868 
L 712.8 58.676868 
" style="fill:none;stroke:#cccccc;stroke-linecap:round;"/>
     </g>
     <g id="text_11">
      <!-- 60000 -->
      <g style="fill:#262626;" transform="translate(58.914844 62.613665)scale(0.11 -0.11)">
       <use xlink:href="#ArialMT-54"/>
       <use x="55.615234" xlink:href="#ArialMT-48"/>
       <use x="111.230469" xlink:href="#ArialMT-48"/>
       <use x="166.845703" xlink:href="#ArialMT-48"/>
       <use x="222.460938" xlink:href="#ArialMT-48"/>
      </g>
     </g>
    </g>
    <g id="text_12">
     <!-- median_hh -->
     <g style="fill:#262626;" transform="translate(52.529844 244.606875)rotate(-90)scale(0.12 -0.12)">
      <defs>
       <path d="M 6.59375 0 
L 6.59375 51.859375 
L 14.453125 51.859375 
L 14.453125 44.578125 
Q 16.890625 48.390625 20.9375 50.703125 
Q 25 53.03125 30.171875 53.03125 
Q 35.9375 53.03125 39.625 50.640625 
Q 43.3125 48.25 44.828125 43.953125 
Q 50.984375 53.03125 60.84375 53.03125 
Q 68.5625 53.03125 72.703125 48.75 
Q 76.859375 44.484375 76.859375 35.59375 
L 76.859375 0 
L 68.109375 0 
L 68.109375 32.671875 
Q 68.109375 37.9375 67.25 40.25 
Q 66.40625 42.578125 64.15625 43.984375 
Q 61.921875 45.40625 58.890625 45.40625 
Q 53.421875 45.40625 49.796875 41.765625 
Q 46.1875 38.140625 46.1875 30.125 
L 46.1875 0 
L 37.40625 0 
L 37.40625 33.6875 
Q 37.40625 39.546875 35.25 42.46875 
Q 33.109375 45.40625 28.21875 45.40625 
Q 24.515625 45.40625 21.359375 43.453125 
Q 18.21875 41.5 16.796875 37.734375 
Q 15.375 33.984375 15.375 26.90625 
L 15.375 0 
z
" id="ArialMT-109"/>
       <path d="M 40.234375 0 
L 40.234375 6.546875 
Q 35.296875 -1.171875 25.734375 -1.171875 
Q 19.53125 -1.171875 14.328125 2.25 
Q 9.125 5.671875 6.265625 11.796875 
Q 3.421875 17.921875 3.421875 25.875 
Q 3.421875 33.640625 6 39.96875 
Q 8.59375 46.296875 13.765625 49.65625 
Q 18.953125 53.03125 25.34375 53.03125 
Q 30.03125 53.03125 33.6875 51.046875 
Q 37.359375 49.078125 39.65625 45.90625 
L 39.65625 71.578125 
L 48.390625 71.578125 
L 48.390625 0 
z
M 12.453125 25.875 
Q 12.453125 15.921875 16.640625 10.984375 
Q 20.84375 6.0625 26.5625 6.0625 
Q 32.328125 6.0625 36.34375 10.765625 
Q 40.375 15.484375 40.375 25.140625 
Q 40.375 35.796875 36.265625 40.765625 
Q 32.171875 45.75 26.171875 45.75 
Q 20.3125 45.75 16.375 40.96875 
Q 12.453125 36.1875 12.453125 25.875 
z
" id="ArialMT-100"/>
       <path d="M 6.640625 61.46875 
L 6.640625 71.578125 
L 15.4375 71.578125 
L 15.4375 61.46875 
z
M 6.640625 0 
L 6.640625 51.859375 
L 15.4375 51.859375 
L 15.4375 0 
z
" id="ArialMT-105"/>
       <path d="M 6.59375 0 
L 6.59375 51.859375 
L 14.5 51.859375 
L 14.5 44.484375 
Q 20.21875 53.03125 31 53.03125 
Q 35.6875 53.03125 39.625 51.34375 
Q 43.5625 49.65625 45.515625 46.921875 
Q 47.46875 44.1875 48.25 40.4375 
Q 48.734375 37.984375 48.734375 31.890625 
L 48.734375 0 
L 39.9375 0 
L 39.9375 31.546875 
Q 39.9375 36.921875 38.90625 39.578125 
Q 37.890625 42.234375 35.28125 43.8125 
Q 32.671875 45.40625 29.15625 45.40625 
Q 23.53125 45.40625 19.453125 41.84375 
Q 15.375 38.28125 15.375 28.328125 
L 15.375 0 
z
" id="ArialMT-110"/>
       <path d="M -1.515625 -19.875 
L -1.515625 -13.53125 
L 56.734375 -13.53125 
L 56.734375 -19.875 
z
" id="ArialMT-95"/>
       <path d="M 6.59375 0 
L 6.59375 71.578125 
L 15.375 71.578125 
L 15.375 45.90625 
Q 21.53125 53.03125 30.90625 53.03125 
Q 36.671875 53.03125 40.921875 50.75 
Q 45.171875 48.484375 47 44.484375 
Q 48.828125 40.484375 48.828125 32.859375 
L 48.828125 0 
L 40.046875 0 
L 40.046875 32.859375 
Q 40.046875 39.453125 37.1875 42.453125 
Q 34.328125 45.453125 29.109375 45.453125 
Q 25.203125 45.453125 21.75 43.421875 
Q 18.3125 41.40625 16.84375 37.9375 
Q 15.375 34.46875 15.375 28.375 
L 15.375 0 
z
" id="ArialMT-104"/>
      </defs>
      <use xlink:href="#ArialMT-109"/>
      <use x="83.300781" xlink:href="#ArialMT-101"/>
      <use x="138.916016" xlink:href="#ArialMT-100"/>
      <use x="194.53125" xlink:href="#ArialMT-105"/>
      <use x="216.748047" xlink:href="#ArialMT-97"/>
      <use x="272.363281" xlink:href="#ArialMT-110"/>
      <use x="327.978516" xlink:href="#ArialMT-95"/>
      <use x="383.59375" xlink:href="#ArialMT-104"/>
      <use x="439.208984" xlink:href="#ArialMT-104"/>
     </g>
    </g>
   </g>
   <g id="PolyCollection_1">
    <defs>
     <path d="M 175.725 -68.825455 
L 175.487068 -68.825455 
L 175.418469 -71.815297 
L 175.344759 -74.80514 
L 175.263988 -77.794983 
L 175.168221 -80.784826 
L 175.042646 -83.774668 
L 174.867571 -86.764511 
L 174.623741 -89.754354 
L 174.299753 -92.744197 
L 173.89861 -95.73404 
L 173.439451 -98.723882 
L 172.951273 -101.713725 
L 172.458134 -104.703568 
L 171.959365 -107.693411 
L 171.411698 -110.683253 
L 170.721272 -113.673096 
L 169.750957 -116.662939 
L 168.343061 -119.652782 
L 166.351436 -122.642625 
L 163.67287 -125.632467 
L 160.267778 -128.62231 
L 156.164813 -131.612153 
L 151.451836 -134.601996 
L 146.263148 -137.591838 
L 140.77562 -140.581681 
L 135.220944 -143.571524 
L 129.908118 -146.561367 
L 125.235606 -149.551209 
L 121.666449 -152.541052 
L 119.650273 -155.530895 
L 119.502901 -158.520738 
L 121.284558 -161.510581 
L 124.732604 -164.500423 
L 129.290865 -167.490266 
L 134.237815 -170.480109 
L 138.869404 -173.469952 
L 142.664901 -176.459794 
L 145.371488 -179.449637 
L 146.98221 -182.43948 
L 147.631528 -185.429323 
L 147.467563 -188.419166 
L 146.56391 -191.409008 
L 144.907367 -194.398851 
L 142.457258 -197.388694 
L 139.23831 -200.378537 
L 135.4173 -203.368379 
L 131.325987 -206.358222 
L 127.41936 -209.348065 
L 124.184797 -212.337908 
L 122.033829 -215.327751 
L 121.210647 -218.317593 
L 121.743384 -221.307436 
L 123.450341 -224.297279 
L 125.997604 -227.287122 
L 128.989837 -230.276964 
L 132.06599 -233.266807 
L 134.970196 -236.25665 
L 137.577688 -239.246493 
L 139.873857 -242.236336 
L 141.903889 -245.226178 
L 143.721309 -248.216021 
L 145.36001 -251.205864 
L 146.838213 -254.195707 
L 148.183367 -257.185549 
L 149.455572 -260.175392 
L 150.7497 -263.165235 
L 152.170393 -266.155078 
L 153.790543 -269.14492 
L 155.613146 -272.134763 
L 157.554346 -275.124606 
L 159.454936 -278.114449 
L 161.115221 -281.104292 
L 162.340314 -284.094134 
L 162.981771 -287.083977 
L 162.965397 -290.07382 
L 162.300684 -293.063663 
L 161.07261 -296.053505 
L 159.420359 -299.043348 
L 157.510192 -302.033191 
L 155.510589 -305.023034 
L 153.576291 -308.012877 
L 151.843897 -311.002719 
L 150.436493 -313.992562 
L 149.470513 -316.982405 
L 149.056836 -319.972248 
L 149.290685 -322.96209 
L 150.23058 -325.951933 
L 151.873192 -328.941776 
L 154.135426 -331.931619 
L 156.854618 -334.921462 
L 159.811474 -337.911304 
L 162.770684 -340.901147 
L 165.525918 -343.89099 
L 167.933851 -346.880833 
L 169.927134 -349.870675 
L 171.505767 -352.860518 
L 172.714701 -355.850361 
L 173.618691 -358.840204 
L 174.283032 -361.830047 
L 174.763507 -364.819889 
L 175.725 -364.819889 
L 175.725 -364.819889 
L 175.725 -361.830047 
L 175.725 -358.840204 
L 175.725 -355.850361 
L 175.725 -352.860518 
L 175.725 -349.870675 
L 175.725 -346.880833 
L 175.725 -343.89099 
L 175.725 -340.901147 
L 175.725 -337.911304 
L 175.725 -334.921462 
L 175.725 -331.931619 
L 175.725 -328.941776 
L 175.725 -325.951933 
L 175.725 -322.96209 
L 175.725 -319.972248 
L 175.725 -316.982405 
L 175.725 -313.992562 
L 175.725 -311.002719 
L 175.725 -308.012877 
L 175.725 -305.023034 
L 175.725 -302.033191 
L 175.725 -299.043348 
L 175.725 -296.053505 
L 175.725 -293.063663 
L 175.725 -290.07382 
L 175.725 -287.083977 
L 175.725 -284.094134 
L 175.725 -281.104292 
L 175.725 -278.114449 
L 175.725 -275.124606 
L 175.725 -272.134763 
L 175.725 -269.14492 
L 175.725 -266.155078 
L 175.725 -263.165235 
L 175.725 -260.175392 
L 175.725 -257.185549 
L 175.725 -254.195707 
L 175.725 -251.205864 
L 175.725 -248.216021 
L 175.725 -245.226178 
L 175.725 -242.236336 
L 175.725 -239.246493 
L 175.725 -236.25665 
L 175.725 -233.266807 
L 175.725 -230.276964 
L 175.725 -227.287122 
L 175.725 -224.297279 
L 175.725 -221.307436 
L 175.725 -218.317593 
L 175.725 -215.327751 
L 175.725 -212.337908 
L 175.725 -209.348065 
L 175.725 -206.358222 
L 175.725 -203.368379 
L 175.725 -200.378537 
L 175.725 -197.388694 
L 175.725 -194.398851 
L 175.725 -191.409008 
L 175.725 -188.419166 
L 175.725 -185.429323 
L 175.725 -182.43948 
L 175.725 -179.449637 
L 175.725 -176.459794 
L 175.725 -173.469952 
L 175.725 -170.480109 
L 175.725 -167.490266 
L 175.725 -164.500423 
L 175.725 -161.510581 
L 175.725 -158.520738 
L 175.725 -155.530895 
L 175.725 -152.541052 
L 175.725 -149.551209 
L 175.725 -146.561367 
L 175.725 -143.571524 
L 175.725 -140.581681 
L 175.725 -137.591838 
L 175.725 -134.601996 
L 175.725 -131.612153 
L 175.725 -128.62231 
L 175.725 -125.632467 
L 175.725 -122.642625 
L 175.725 -119.652782 
L 175.725 -116.662939 
L 175.725 -113.673096 
L 175.725 -110.683253 
L 175.725 -107.693411 
L 175.725 -104.703568 
L 175.725 -101.713725 
L 175.725 -98.723882 
L 175.725 -95.73404 
L 175.725 -92.744197 
L 175.725 -89.754354 
L 175.725 -86.764511 
L 175.725 -83.774668 
L 175.725 -80.784826 
L 175.725 -77.794983 
L 175.725 -74.80514 
L 175.725 -71.815297 
L 175.725 -68.825455 
z
" id="m1cabcd5865" style="stroke:#363636;"/>
    </defs>
    <g clip-path="url(#p1e4688e31c)">
     <use style="fill:#176d9c;stroke:#363636;" x="0" xlink:href="#m1cabcd5865" y="432"/>
    </g>
   </g>
   <g id="PolyCollection_2">
    <defs>
     <path d="M 176.490684 -97.168466 
L 175.725 -97.168466 
L 175.725 -99.81654 
L 175.725 -102.464613 
L 175.725 -105.112687 
L 175.725 -107.760761 
L 175.725 -110.408835 
L 175.725 -113.056909 
L 175.725 -115.704983 
L 175.725 -118.353057 
L 175.725 -121.001131 
L 175.725 -123.649205 
L 175.725 -126.297279 
L 175.725 -128.945353 
L 175.725 -131.593427 
L 175.725 -134.241501 
L 175.725 -136.889575 
L 175.725 -139.537648 
L 175.725 -142.185722 
L 175.725 -144.833796 
L 175.725 -147.48187 
L 175.725 -150.129944 
L 175.725 -152.778018 
L 175.725 -155.426092 
L 175.725 -158.074166 
L 175.725 -160.72224 
L 175.725 -163.370314 
L 175.725 -166.018388 
L 175.725 -168.666462 
L 175.725 -171.314536 
L 175.725 -173.96261 
L 175.725 -176.610683 
L 175.725 -179.258757 
L 175.725 -181.906831 
L 175.725 -184.554905 
L 175.725 -187.202979 
L 175.725 -189.851053 
L 175.725 -192.499127 
L 175.725 -195.147201 
L 175.725 -197.795275 
L 175.725 -200.443349 
L 175.725 -203.091423 
L 175.725 -205.739497 
L 175.725 -208.387571 
L 175.725 -211.035645 
L 175.725 -213.683718 
L 175.725 -216.331792 
L 175.725 -218.979866 
L 175.725 -221.62794 
L 175.725 -224.276014 
L 175.725 -226.924088 
L 175.725 -229.572162 
L 175.725 -232.220236 
L 175.725 -234.86831 
L 175.725 -237.516384 
L 175.725 -240.164458 
L 175.725 -242.812532 
L 175.725 -245.460606 
L 175.725 -248.10868 
L 175.725 -250.756753 
L 175.725 -253.404827 
L 175.725 -256.052901 
L 175.725 -258.700975 
L 175.725 -261.349049 
L 175.725 -263.997123 
L 175.725 -266.645197 
L 175.725 -269.293271 
L 175.725 -271.941345 
L 175.725 -274.589419 
L 175.725 -277.237493 
L 175.725 -279.885567 
L 175.725 -282.533641 
L 175.725 -285.181714 
L 175.725 -287.829788 
L 175.725 -290.477862 
L 175.725 -293.125936 
L 175.725 -295.77401 
L 175.725 -298.422084 
L 175.725 -301.070158 
L 175.725 -303.718232 
L 175.725 -306.366306 
L 175.725 -309.01438 
L 175.725 -311.662454 
L 175.725 -314.310528 
L 175.725 -316.958602 
L 175.725 -319.606676 
L 175.725 -322.254749 
L 175.725 -324.902823 
L 175.725 -327.550897 
L 175.725 -330.198971 
L 175.725 -332.847045 
L 175.725 -335.495119 
L 175.725 -338.143193 
L 175.725 -340.791267 
L 175.725 -343.439341 
L 175.725 -346.087415 
L 175.725 -348.735489 
L 175.725 -351.383563 
L 175.725 -354.031637 
L 175.725 -356.679711 
L 175.725 -359.327784 
L 176.860351 -359.327784 
L 176.860351 -359.327784 
L 177.48804 -356.679711 
L 178.389599 -354.031637 
L 179.634303 -351.383563 
L 181.279179 -348.735489 
L 183.352129 -346.087415 
L 185.835346 -343.439341 
L 188.654373 -340.791267 
L 191.677788 -338.143193 
L 194.729993 -335.495119 
L 197.615458 -332.847045 
L 200.148669 -330.198971 
L 202.181753 -327.550897 
L 203.622425 -324.902823 
L 204.438306 -322.254749 
L 204.64834 -319.606676 
L 204.30607 -316.958602 
L 203.48151 -314.310528 
L 202.24778 -311.662454 
L 200.676026 -309.01438 
L 198.838611 -306.366306 
L 196.817302 -303.718232 
L 194.711323 -301.070158 
L 192.640219 -298.422084 
L 190.738499 -295.77401 
L 189.142054 -293.125936 
L 187.969413 -290.477862 
L 187.302747 -287.829788 
L 187.173703 -285.181714 
L 187.557919 -282.533641 
L 188.37987 -279.885567 
L 189.5274 -277.237493 
L 190.873129 -274.589419 
L 192.29821 -271.941345 
L 193.713015 -269.293271 
L 195.069578 -266.645197 
L 196.362606 -263.997123 
L 197.619264 -261.349049 
L 198.881901 -258.700975 
L 200.190789 -256.052901 
L 201.574113 -253.404827 
L 203.049405 -250.756753 
L 204.635114 -248.10868 
L 206.365439 -245.460606 
L 208.298515 -242.812532 
L 210.509543 -240.164458 
L 213.066197 -237.516384 
L 215.991675 -234.86831 
L 219.227535 -232.220236 
L 222.610959 -229.572162 
L 225.877967 -226.924088 
L 228.696353 -224.276014 
L 230.722621 -221.62794 
L 231.669422 -218.979866 
L 231.366524 -216.331792 
L 229.799977 -213.683718 
L 227.119868 -211.035645 
L 223.61493 -208.387571 
L 219.660081 -205.739497 
L 215.649304 -203.091423 
L 211.92982 -200.443349 
L 208.753723 -197.795275 
L 206.259276 -195.147201 
L 204.48615 -192.499127 
L 203.418355 -189.851053 
L 203.03855 -187.202979 
L 203.371777 -184.554905 
L 204.498638 -181.906831 
L 206.528255 -179.258757 
L 209.536997 -176.610683 
L 213.494281 -173.96261 
L 218.205006 -171.314536 
L 223.295144 -168.666462 
L 228.252702 -166.018388 
L 232.515919 -163.370314 
L 235.582419 -160.72224 
L 237.105 -158.074166 
L 236.945323 -155.426092 
L 235.173265 -152.778018 
L 232.019721 -150.129944 
L 227.805238 -147.48187 
L 222.870609 -144.833796 
L 217.528484 -142.185722 
L 212.042147 -139.537648 
L 206.625718 -136.889575 
L 201.453946 -134.241501 
L 196.670637 -131.593427 
L 192.390171 -128.945353 
L 188.692661 -126.297279 
L 185.617243 -123.649205 
L 183.158553 -121.001131 
L 181.269585 -118.353057 
L 179.871159 -115.704983 
L 178.865899 -113.056909 
L 178.153324 -110.408835 
L 177.642807 -107.760761 
L 177.262117 -105.112687 
L 176.960722 -102.464613 
L 176.708401 -99.81654 
L 176.490684 -97.168466 
z
" id="m120e302695" style="stroke:#363636;"/>
    </defs>
    <g clip-path="url(#p1e4688e31c)">
     <use style="fill:#c38820;stroke:#363636;" x="0" xlink:href="#m120e302695" y="432"/>
    </g>
   </g>
   <g id="PolyCollection_3">
    <defs>
     <path d="M 329.175 -97.674609 
L 327.528091 -97.674609 
L 327.154436 -100.147632 
L 326.791893 -102.620654 
L 326.458893 -105.093677 
L 326.158377 -107.5667 
L 325.868623 -110.039723 
L 325.537187 -112.512745 
L 325.080194 -114.985768 
L 324.388228 -117.458791 
L 323.338557 -119.931813 
L 321.811914 -122.404836 
L 319.7108 -124.877859 
L 316.975566 -127.350882 
L 313.594802 -129.823904 
L 309.607772 -132.296927 
L 305.098928 -134.76995 
L 300.187245 -137.242973 
L 295.015245 -139.715995 
L 289.742862 -142.189018 
L 284.548909 -144.662041 
L 279.638216 -147.135063 
L 275.247411 -149.608086 
L 271.639627 -152.081109 
L 269.080508 -154.554132 
L 267.795 -157.027154 
L 267.914228 -159.500177 
L 269.429527 -161.9732 
L 272.172228 -164.446222 
L 275.831118 -166.919245 
L 280.006733 -169.392268 
L 284.28799 -171.865291 
L 288.327974 -174.338313 
L 291.89572 -176.811336 
L 294.889497 -179.284359 
L 297.310725 -181.757381 
L 299.210912 -184.230404 
L 300.632188 -186.703427 
L 301.562664 -189.17645 
L 301.921548 -191.649472 
L 301.578348 -194.122495 
L 300.399426 -196.595518 
L 298.306984 -199.068541 
L 295.332317 -201.541563 
L 291.64715 -204.014586 
L 287.562877 -206.487609 
L 283.495578 -208.960631 
L 279.902946 -211.433654 
L 277.205985 -213.906677 
L 275.712499 -216.3797 
L 275.559904 -218.852722 
L 276.691447 -221.325745 
L 278.872559 -223.798768 
L 281.744391 -226.27179 
L 284.901903 -228.744813 
L 287.977202 -231.217836 
L 290.707329 -233.690859 
L 292.970272 -236.163881 
L 294.782286 -238.636904 
L 296.260935 -241.109927 
L 297.567881 -243.582949 
L 298.850383 -246.055972 
L 300.199071 -248.528995 
L 301.632571 -251.002018 
L 303.109618 -253.47504 
L 304.560067 -255.948063 
L 305.920955 -258.421086 
L 307.164017 -260.894108 
L 308.306006 -263.367131 
L 309.400499 -265.840154 
L 310.516386 -268.313177 
L 311.711858 -270.786199 
L 313.012581 -273.259222 
L 314.399892 -275.732245 
L 315.810842 -278.205268 
L 317.148524 -280.67829 
L 318.299155 -283.151313 
L 319.151849 -285.624336 
L 319.617359 -288.097358 
L 319.642677 -290.570381 
L 319.219149 -293.043404 
L 318.382789 -295.516427 
L 317.20695 -297.989449 
L 315.789299 -300.462472 
L 314.236573 -302.935495 
L 312.651161 -305.408517 
L 311.122798 -307.88154 
L 309.72671 -310.354563 
L 308.527206 -312.827586 
L 307.583783 -315.300608 
L 306.956061 -317.773631 
L 306.704394 -320.246654 
L 306.884598 -322.719676 
L 307.537424 -325.192699 
L 308.675511 -327.665722 
L 310.27196 -330.138745 
L 312.254899 -332.611767 
L 314.511049 -335.08479 
L 316.89874 -337.557813 
L 319.267813 -340.030835 
L 321.481525 -342.503858 
L 329.175 -342.503858 
L 329.175 -342.503858 
L 329.175 -340.030835 
L 329.175 -337.557813 
L 329.175 -335.08479 
L 329.175 -332.611767 
L 329.175 -330.138745 
L 329.175 -327.665722 
L 329.175 -325.192699 
L 329.175 -322.719676 
L 329.175 -320.246654 
L 329.175 -317.773631 
L 329.175 -315.300608 
L 329.175 -312.827586 
L 329.175 -310.354563 
L 329.175 -307.88154 
L 329.175 -305.408517 
L 329.175 -302.935495 
L 329.175 -300.462472 
L 329.175 -297.989449 
L 329.175 -295.516427 
L 329.175 -293.043404 
L 329.175 -290.570381 
L 329.175 -288.097358 
L 329.175 -285.624336 
L 329.175 -283.151313 
L 329.175 -280.67829 
L 329.175 -278.205268 
L 329.175 -275.732245 
L 329.175 -273.259222 
L 329.175 -270.786199 
L 329.175 -268.313177 
L 329.175 -265.840154 
L 329.175 -263.367131 
L 329.175 -260.894108 
L 329.175 -258.421086 
L 329.175 -255.948063 
L 329.175 -253.47504 
L 329.175 -251.002018 
L 329.175 -248.528995 
L 329.175 -246.055972 
L 329.175 -243.582949 
L 329.175 -241.109927 
L 329.175 -238.636904 
L 329.175 -236.163881 
L 329.175 -233.690859 
L 329.175 -231.217836 
L 329.175 -228.744813 
L 329.175 -226.27179 
L 329.175 -223.798768 
L 329.175 -221.325745 
L 329.175 -218.852722 
L 329.175 -216.3797 
L 329.175 -213.906677 
L 329.175 -211.433654 
L 329.175 -208.960631 
L 329.175 -206.487609 
L 329.175 -204.014586 
L 329.175 -201.541563 
L 329.175 -199.068541 
L 329.175 -196.595518 
L 329.175 -194.122495 
L 329.175 -191.649472 
L 329.175 -189.17645 
L 329.175 -186.703427 
L 329.175 -184.230404 
L 329.175 -181.757381 
L 329.175 -179.284359 
L 329.175 -176.811336 
L 329.175 -174.338313 
L 329.175 -171.865291 
L 329.175 -169.392268 
L 329.175 -166.919245 
L 329.175 -164.446222 
L 329.175 -161.9732 
L 329.175 -159.500177 
L 329.175 -157.027154 
L 329.175 -154.554132 
L 329.175 -152.081109 
L 329.175 -149.608086 
L 329.175 -147.135063 
L 329.175 -144.662041 
L 329.175 -142.189018 
L 329.175 -139.715995 
L 329.175 -137.242973 
L 329.175 -134.76995 
L 329.175 -132.296927 
L 329.175 -129.823904 
L 329.175 -127.350882 
L 329.175 -124.877859 
L 329.175 -122.404836 
L 329.175 -119.931813 
L 329.175 -117.458791 
L 329.175 -114.985768 
L 329.175 -112.512745 
L 329.175 -110.039723 
L 329.175 -107.5667 
L 329.175 -105.093677 
L 329.175 -102.620654 
L 329.175 -100.147632 
L 329.175 -97.674609 
z
" id="m372ff671e8" style="stroke:#363636;"/>
    </defs>
    <g clip-path="url(#p1e4688e31c)">
     <use style="fill:#176d9c;stroke:#363636;" x="0" xlink:href="#m372ff671e8" y="432"/>
    </g>
   </g>
   <g id="PolyCollection_4">
    <defs>
     <path d="M 331.259584 -96.803127 
L 329.175 -96.803127 
L 329.175 -99.513767 
L 329.175 -102.224406 
L 329.175 -104.935046 
L 329.175 -107.645685 
L 329.175 -110.356324 
L 329.175 -113.066964 
L 329.175 -115.777603 
L 329.175 -118.488242 
L 329.175 -121.198882 
L 329.175 -123.909521 
L 329.175 -126.62016 
L 329.175 -129.3308 
L 329.175 -132.041439 
L 329.175 -134.752079 
L 329.175 -137.462718 
L 329.175 -140.173357 
L 329.175 -142.883997 
L 329.175 -145.594636 
L 329.175 -148.305275 
L 329.175 -151.015915 
L 329.175 -153.726554 
L 329.175 -156.437193 
L 329.175 -159.147833 
L 329.175 -161.858472 
L 329.175 -164.569112 
L 329.175 -167.279751 
L 329.175 -169.99039 
L 329.175 -172.70103 
L 329.175 -175.411669 
L 329.175 -178.122308 
L 329.175 -180.832948 
L 329.175 -183.543587 
L 329.175 -186.254226 
L 329.175 -188.964866 
L 329.175 -191.675505 
L 329.175 -194.386145 
L 329.175 -197.096784 
L 329.175 -199.807423 
L 329.175 -202.518063 
L 329.175 -205.228702 
L 329.175 -207.939341 
L 329.175 -210.649981 
L 329.175 -213.36062 
L 329.175 -216.071259 
L 329.175 -218.781899 
L 329.175 -221.492538 
L 329.175 -224.203178 
L 329.175 -226.913817 
L 329.175 -229.624456 
L 329.175 -232.335096 
L 329.175 -235.045735 
L 329.175 -237.756374 
L 329.175 -240.467014 
L 329.175 -243.177653 
L 329.175 -245.888292 
L 329.175 -248.598932 
L 329.175 -251.309571 
L 329.175 -254.020211 
L 329.175 -256.73085 
L 329.175 -259.441489 
L 329.175 -262.152129 
L 329.175 -264.862768 
L 329.175 -267.573407 
L 329.175 -270.284047 
L 329.175 -272.994686 
L 329.175 -275.705325 
L 329.175 -278.415965 
L 329.175 -281.126604 
L 329.175 -283.837244 
L 329.175 -286.547883 
L 329.175 -289.258522 
L 329.175 -291.969162 
L 329.175 -294.679801 
L 329.175 -297.39044 
L 329.175 -300.10108 
L 329.175 -302.811719 
L 329.175 -305.522359 
L 329.175 -308.232998 
L 329.175 -310.943637 
L 329.175 -313.654277 
L 329.175 -316.364916 
L 329.175 -319.075555 
L 329.175 -321.786195 
L 329.175 -324.496834 
L 329.175 -327.207473 
L 329.175 -329.918113 
L 329.175 -332.628752 
L 329.175 -335.339392 
L 329.175 -338.050031 
L 329.175 -340.76067 
L 329.175 -343.47131 
L 329.175 -346.181949 
L 329.175 -348.892588 
L 329.175 -351.603228 
L 329.175 -354.313867 
L 329.175 -357.024506 
L 329.175 -359.735146 
L 329.175 -362.445785 
L 329.175 -365.156425 
L 331.172485 -365.156425 
L 331.172485 -365.156425 
L 331.834312 -362.445785 
L 332.636361 -359.735146 
L 333.604584 -357.024506 
L 334.775028 -354.313867 
L 336.189376 -351.603228 
L 337.882949 -348.892588 
L 339.866395 -346.181949 
L 342.10591 -343.47131 
L 344.509563 -340.76067 
L 346.927274 -338.050031 
L 349.168469 -335.339392 
L 351.035333 -332.628752 
L 352.36322 -329.918113 
L 353.056136 -327.207473 
L 353.106124 -324.496834 
L 352.590743 -321.786195 
L 351.650415 -319.075555 
L 350.454015 -316.364916 
L 349.164119 -313.654277 
L 347.911921 -310.943637 
L 346.786989 -308.232998 
L 345.841107 -305.522359 
L 345.100727 -302.811719 
L 344.580714 -300.10108 
L 344.293213 -297.39044 
L 344.248805 -294.679801 
L 344.451036 -291.969162 
L 344.888336 -289.258522 
L 345.528269 -286.547883 
L 346.317844 -283.837244 
L 347.191015 -281.126604 
L 348.08155 -278.415965 
L 348.937443 -275.705325 
L 349.73235 -272.994686 
L 350.470403 -270.284047 
L 351.182565 -267.573407 
L 351.91511 -264.862768 
L 352.713273 -262.152129 
L 353.605249 -259.441489 
L 354.592753 -256.73085 
L 355.653481 -254.020211 
L 356.757327 -251.309571 
L 357.892668 -248.598932 
L 359.093001 -245.888292 
L 360.450738 -243.177653 
L 362.106425 -240.467014 
L 364.209045 -237.756374 
L 366.854481 -235.045735 
L 370.02037 -232.335096 
L 373.521506 -229.624456 
L 377.00706 -226.913817 
L 380.00911 -224.203178 
L 382.034899 -221.492538 
L 382.679232 -218.781899 
L 381.724779 -216.071259 
L 379.200386 -213.36062 
L 375.380212 -210.649981 
L 370.724838 -207.939341 
L 365.782808 -205.228702 
L 361.081524 -202.518063 
L 357.037181 -199.807423 
L 353.905257 -197.096784 
L 351.779386 -194.386145 
L 350.631711 -191.675505 
L 350.376194 -188.964866 
L 350.9308 -186.254226 
L 352.256314 -183.543587 
L 354.358417 -180.832948 
L 357.253079 -178.122308 
L 360.909229 -175.411669 
L 365.192061 -172.70103 
L 369.831467 -169.99039 
L 374.431841 -167.279751 
L 378.524664 -164.569112 
L 381.649616 -161.858472 
L 383.439836 -159.147833 
L 383.686362 -156.437193 
L 382.365402 -153.726554 
L 379.625629 -151.015915 
L 375.745019 -148.305275 
L 371.073383 -145.594636 
L 365.976354 -142.883997 
L 360.791351 -140.173357 
L 355.799474 -137.462718 
L 351.21219 -134.752079 
L 347.169191 -132.041439 
L 343.743433 -129.3308 
L 340.950052 -126.62016 
L 338.756915 -123.909521 
L 337.09564 -121.198882 
L 335.872815 -118.488242 
L 334.981666 -115.777603 
L 334.314249 -113.066964 
L 333.773472 -110.356324 
L 333.283345 -107.645685 
L 332.795412 -104.935046 
L 332.289864 -102.224406 
L 331.771156 -99.513767 
L 331.259584 -96.803127 
z
" id="me2925d15e4" style="stroke:#363636;"/>
    </defs>
    <g clip-path="url(#p1e4688e31c)">
     <use style="fill:#c38820;stroke:#363636;" x="0" xlink:href="#me2925d15e4" y="432"/>
    </g>
   </g>
   <g id="PolyCollection_5">
    <defs>
     <path d="M 482.625 -91.690605 
L 481.544096 -91.690605 
L 481.221551 -94.454685 
L 480.873029 -97.218766 
L 480.512852 -99.982846 
L 480.149479 -102.746926 
L 479.778066 -105.511006 
L 479.374173 -108.275086 
L 478.890835 -111.039167 
L 478.260513 -113.803247 
L 477.402082 -116.567327 
L 476.231406 -119.331407 
L 474.672933 -122.095487 
L 472.669508 -124.859568 
L 470.188569 -127.623648 
L 467.224624 -130.387728 
L 463.799846 -133.151808 
L 459.965805 -135.915888 
L 455.809051 -138.679969 
L 451.461009 -141.444049 
L 447.109012 -144.208129 
L 443.001505 -146.972209 
L 439.438733 -149.736289 
L 436.742294 -152.50037 
L 435.20357 -155.26445 
L 435.020355 -158.02853 
L 436.239275 -160.79261 
L 438.724312 -163.55669 
L 442.166282 -166.320771 
L 446.13538 -169.084851 
L 450.163651 -171.848931 
L 453.833026 -174.613011 
L 456.842564 -177.377092 
L 459.036732 -180.141172 
L 460.391533 -182.905252 
L 460.970457 -185.669332 
L 460.871329 -188.433412 
L 460.185137 -191.197493 
L 458.97965 -193.961573 
L 457.308778 -196.725653 
L 455.238148 -199.489733 
L 452.872382 -202.253813 
L 450.370697 -205.017894 
L 447.943222 -207.781974 
L 445.827742 -210.546054 
L 444.252846 -213.310134 
L 443.397206 -216.074214 
L 443.355541 -218.838295 
L 444.120152 -221.602375 
L 445.583124 -224.366455 
L 447.559124 -227.130535 
L 449.823291 -229.894615 
L 452.154519 -232.658696 
L 454.372933 -235.422776 
L 456.362499 -238.186856 
L 458.074741 -240.950936 
L 459.515836 -243.715016 
L 460.724305 -246.479097 
L 461.748383 -249.243177 
L 462.630299 -252.007257 
L 463.400375 -254.771337 
L 464.079202 -257.535417 
L 464.683253 -260.299498 
L 465.229121 -263.063578 
L 465.733724 -265.827658 
L 466.210671 -268.591738 
L 466.665182 -271.355818 
L 467.090447 -274.119899 
L 467.467382 -276.883979 
L 467.768103 -279.648059 
L 467.962024 -282.412139 
L 468.022773 -285.17622 
L 467.934106 -287.9403 
L 467.693443 -290.70438 
L 467.312273 -293.46846 
L 466.813418 -296.23254 
L 466.226023 -298.996621 
L 465.57993 -301.760701 
L 464.901661 -304.524781 
L 464.213982 -307.288861 
L 463.539914 -310.052941 
L 462.910083 -312.817022 
L 462.370333 -315.581102 
L 461.985426 -318.345182 
L 461.835207 -321.109262 
L 462.002042 -323.873342 
L 462.551859 -326.637423 
L 463.514352 -329.401503 
L 464.869326 -332.165583 
L 466.544732 -334.929663 
L 468.428139 -337.693743 
L 470.388506 -340.457824 
L 472.30147 -343.221904 
L 474.070349 -345.985984 
L 475.637226 -348.750064 
L 476.982531 -351.514144 
L 478.115689 -354.278225 
L 479.061842 -357.042305 
L 479.849748 -359.806385 
L 480.50409 -362.570465 
L 481.042934 -365.334545 
L 482.625 -365.334545 
L 482.625 -365.334545 
L 482.625 -362.570465 
L 482.625 -359.806385 
L 482.625 -357.042305 
L 482.625 -354.278225 
L 482.625 -351.514144 
L 482.625 -348.750064 
L 482.625 -345.985984 
L 482.625 -343.221904 
L 482.625 -340.457824 
L 482.625 -337.693743 
L 482.625 -334.929663 
L 482.625 -332.165583 
L 482.625 -329.401503 
L 482.625 -326.637423 
L 482.625 -323.873342 
L 482.625 -321.109262 
L 482.625 -318.345182 
L 482.625 -315.581102 
L 482.625 -312.817022 
L 482.625 -310.052941 
L 482.625 -307.288861 
L 482.625 -304.524781 
L 482.625 -301.760701 
L 482.625 -298.996621 
L 482.625 -296.23254 
L 482.625 -293.46846 
L 482.625 -290.70438 
L 482.625 -287.9403 
L 482.625 -285.17622 
L 482.625 -282.412139 
L 482.625 -279.648059 
L 482.625 -276.883979 
L 482.625 -274.119899 
L 482.625 -271.355818 
L 482.625 -268.591738 
L 482.625 -265.827658 
L 482.625 -263.063578 
L 482.625 -260.299498 
L 482.625 -257.535417 
L 482.625 -254.771337 
L 482.625 -252.007257 
L 482.625 -249.243177 
L 482.625 -246.479097 
L 482.625 -243.715016 
L 482.625 -240.950936 
L 482.625 -238.186856 
L 482.625 -235.422776 
L 482.625 -232.658696 
L 482.625 -229.894615 
L 482.625 -227.130535 
L 482.625 -224.366455 
L 482.625 -221.602375 
L 482.625 -218.838295 
L 482.625 -216.074214 
L 482.625 -213.310134 
L 482.625 -210.546054 
L 482.625 -207.781974 
L 482.625 -205.017894 
L 482.625 -202.253813 
L 482.625 -199.489733 
L 482.625 -196.725653 
L 482.625 -193.961573 
L 482.625 -191.197493 
L 482.625 -188.433412 
L 482.625 -185.669332 
L 482.625 -182.905252 
L 482.625 -180.141172 
L 482.625 -177.377092 
L 482.625 -174.613011 
L 482.625 -171.848931 
L 482.625 -169.084851 
L 482.625 -166.320771 
L 482.625 -163.55669 
L 482.625 -160.79261 
L 482.625 -158.02853 
L 482.625 -155.26445 
L 482.625 -152.50037 
L 482.625 -149.736289 
L 482.625 -146.972209 
L 482.625 -144.208129 
L 482.625 -141.444049 
L 482.625 -138.679969 
L 482.625 -135.915888 
L 482.625 -133.151808 
L 482.625 -130.387728 
L 482.625 -127.623648 
L 482.625 -124.859568 
L 482.625 -122.095487 
L 482.625 -119.331407 
L 482.625 -116.567327 
L 482.625 -113.803247 
L 482.625 -111.039167 
L 482.625 -108.275086 
L 482.625 -105.511006 
L 482.625 -102.746926 
L 482.625 -99.982846 
L 482.625 -97.218766 
L 482.625 -94.454685 
L 482.625 -91.690605 
z
" id="mc97fcfd146" style="stroke:#363636;"/>
    </defs>
    <g clip-path="url(#p1e4688e31c)">
     <use style="fill:#176d9c;stroke:#363636;" x="0" xlink:href="#mc97fcfd146" y="432"/>
    </g>
   </g>
   <g id="PolyCollection_6">
    <defs>
     <path d="M 492.284171 -128.001044 
L 482.625 -128.001044 
L 482.625 -130.390009 
L 482.625 -132.778973 
L 482.625 -135.167938 
L 482.625 -137.556902 
L 482.625 -139.945866 
L 482.625 -142.334831 
L 482.625 -144.723795 
L 482.625 -147.11276 
L 482.625 -149.501724 
L 482.625 -151.890689 
L 482.625 -154.279653 
L 482.625 -156.668617 
L 482.625 -159.057582 
L 482.625 -161.446546 
L 482.625 -163.835511 
L 482.625 -166.224475 
L 482.625 -168.61344 
L 482.625 -171.002404 
L 482.625 -173.391368 
L 482.625 -175.780333 
L 482.625 -178.169297 
L 482.625 -180.558262 
L 482.625 -182.947226 
L 482.625 -185.336191 
L 482.625 -187.725155 
L 482.625 -190.114119 
L 482.625 -192.503084 
L 482.625 -194.892048 
L 482.625 -197.281013 
L 482.625 -199.669977 
L 482.625 -202.058941 
L 482.625 -204.447906 
L 482.625 -206.83687 
L 482.625 -209.225835 
L 482.625 -211.614799 
L 482.625 -214.003764 
L 482.625 -216.392728 
L 482.625 -218.781692 
L 482.625 -221.170657 
L 482.625 -223.559621 
L 482.625 -225.948586 
L 482.625 -228.33755 
L 482.625 -230.726515 
L 482.625 -233.115479 
L 482.625 -235.504443 
L 482.625 -237.893408 
L 482.625 -240.282372 
L 482.625 -242.671337 
L 482.625 -245.060301 
L 482.625 -247.449266 
L 482.625 -249.83823 
L 482.625 -252.227194 
L 482.625 -254.616159 
L 482.625 -257.005123 
L 482.625 -259.394088 
L 482.625 -261.783052 
L 482.625 -264.172017 
L 482.625 -266.560981 
L 482.625 -268.949945 
L 482.625 -271.33891 
L 482.625 -273.727874 
L 482.625 -276.116839 
L 482.625 -278.505803 
L 482.625 -280.894768 
L 482.625 -283.283732 
L 482.625 -285.672696 
L 482.625 -288.061661 
L 482.625 -290.450625 
L 482.625 -292.83959 
L 482.625 -295.228554 
L 482.625 -297.617519 
L 482.625 -300.006483 
L 482.625 -302.395447 
L 482.625 -304.784412 
L 482.625 -307.173376 
L 482.625 -309.562341 
L 482.625 -311.951305 
L 482.625 -314.34027 
L 482.625 -316.729234 
L 482.625 -319.118198 
L 482.625 -321.507163 
L 482.625 -323.896127 
L 482.625 -326.285092 
L 482.625 -328.674056 
L 482.625 -331.063021 
L 482.625 -333.451985 
L 482.625 -335.840949 
L 482.625 -338.229914 
L 482.625 -340.618878 
L 482.625 -343.007843 
L 482.625 -345.396807 
L 482.625 -347.785772 
L 482.625 -350.174736 
L 482.625 -352.5637 
L 482.625 -354.952665 
L 482.625 -357.341629 
L 482.625 -359.730594 
L 482.625 -362.119558 
L 482.625 -364.508523 
L 483.585201 -364.508523 
L 483.585201 -364.508523 
L 483.891378 -362.119558 
L 484.280175 -359.730594 
L 484.782126 -357.341629 
L 485.439455 -354.952665 
L 486.30409 -352.5637 
L 487.431257 -350.174736 
L 488.868549 -347.785772 
L 490.641932 -345.396807 
L 492.741746 -343.007843 
L 495.112647 -340.618878 
L 497.651192 -338.229914 
L 500.213105 -335.840949 
L 502.629727 -333.451985 
L 504.73047 -331.063021 
L 506.366303 -328.674056 
L 507.429099 -326.285092 
L 507.862998 -323.896127 
L 507.666371 -321.507163 
L 506.885423 -319.118198 
L 505.602288 -316.729234 
L 503.921068 -314.34027 
L 501.954823 -311.951305 
L 499.815429 -309.562341 
L 497.606928 -307.173376 
L 495.421986 -304.784412 
L 493.34048 -302.395447 
L 491.429105 -300.006483 
L 489.741175 -297.617519 
L 488.316205 -295.228554 
L 487.179416 -292.83959 
L 486.341569 -290.450625 
L 485.799681 -288.061661 
L 485.538961 -285.672696 
L 485.535963 -283.283732 
L 485.762551 -280.894768 
L 486.18997 -278.505803 
L 486.792185 -276.116839 
L 487.547765 -273.727874 
L 488.439951 -271.33891 
L 489.454977 -268.949945 
L 490.579278 -266.560981 
L 491.796585 -264.172017 
L 493.086101 -261.783052 
L 494.422882 -259.394088 
L 495.781193 -257.005123 
L 497.141065 -254.616159 
L 498.497487 -252.227194 
L 499.870721 -249.83823 
L 501.315169 -247.449266 
L 502.923343 -245.060301 
L 504.821258 -242.671337 
L 507.152452 -240.282372 
L 510.05021 -237.893408 
L 513.601114 -235.504443 
L 517.806959 -233.115479 
L 522.554893 -230.726515 
L 527.605968 -228.33755 
L 532.609363 -225.948586 
L 537.143553 -223.559621 
L 540.778473 -221.170657 
L 543.146263 -218.781692 
L 544.005 -216.392728 
L 543.280896 -214.003764 
L 541.079591 -211.614799 
L 537.664707 -209.225835 
L 533.409426 -206.83687 
L 528.73253 -204.447906 
L 524.032834 -202.058941 
L 519.635239 -199.669977 
L 515.75827 -197.281013 
L 512.507869 -194.892048 
L 509.896396 -192.503084 
L 507.880123 -190.114119 
L 506.404189 -187.725155 
L 505.442004 -185.336191 
L 505.017362 -182.947226 
L 505.202238 -180.558262 
L 506.090305 -178.169297 
L 507.753864 -175.780333 
L 510.197564 -173.391368 
L 513.32399 -171.002404 
L 516.923061 -168.61344 
L 520.690002 -166.224475 
L 524.267787 -163.835511 
L 527.302521 -161.446546 
L 529.496805 -159.057582 
L 530.647944 -156.668617 
L 530.663851 -154.279653 
L 529.557185 -151.890689 
L 527.42453 -149.501724 
L 524.420019 -147.11276 
L 520.731416 -144.723795 
L 516.562564 -142.334831 
L 512.121769 -139.945866 
L 507.613034 -137.556902 
L 503.226959 -135.167938 
L 499.130028 -132.778973 
L 495.45343 -130.390009 
L 492.284171 -128.001044 
z
" id="ma8410956ec" style="stroke:#363636;"/>
    </defs>
    <g clip-path="url(#p1e4688e31c)">
     <use style="fill:#c38820;stroke:#363636;" x="0" xlink:href="#ma8410956ec" y="432"/>
    </g>
   </g>
   <g id="PolyCollection_7">
    <defs>
     <path d="M 636.075 -92.11801 
L 635.129738 -92.11801 
L 634.812887 -94.873456 
L 634.459577 -97.628901 
L 634.082957 -100.384347 
L 633.690286 -103.139793 
L 633.273563 -105.895239 
L 632.800713 -108.650684 
L 632.210428 -111.40613 
L 631.413218 -114.161576 
L 630.299675 -116.917022 
L 628.754785 -119.672467 
L 626.675193 -122.427913 
L 623.985336 -125.183359 
L 620.648862 -127.938805 
L 616.673593 -130.694251 
L 612.111067 -133.449696 
L 607.054133 -136.205142 
L 601.637093 -138.960588 
L 596.041222 -141.716034 
L 590.504119 -144.471479 
L 585.325674 -147.226925 
L 580.859507 -149.982371 
L 577.479851 -152.737817 
L 575.521797 -155.493262 
L 575.205489 -158.248708 
L 576.56684 -161.004154 
L 579.421715 -163.7596 
L 583.382994 -166.515046 
L 587.932042 -169.270491 
L 592.52508 -172.025937 
L 596.700483 -174.781383 
L 600.152337 -177.536829 
L 602.74913 -180.292274 
L 604.4983 -183.04772 
L 605.477558 -185.803166 
L 605.764172 -188.558612 
L 605.390146 -191.314057 
L 604.337426 -194.069503 
L 602.569675 -196.824949 
L 600.083477 -199.580395 
L 596.95647 -202.335841 
L 593.373356 -205.091286 
L 589.619766 -207.846732 
L 586.044397 -210.602178 
L 582.998659 -213.357624 
L 580.768751 -216.113069 
L 579.517583 -218.868515 
L 579.25281 -221.623961 
L 579.831914 -224.379407 
L 581.005717 -227.134852 
L 582.489732 -229.890298 
L 584.042297 -232.645744 
L 585.524303 -235.40119 
L 586.920534 -238.156635 
L 588.316421 -240.912081 
L 589.841045 -243.667527 
L 591.600265 -246.422973 
L 593.62673 -249.178419 
L 595.864972 -251.933864 
L 598.193856 -254.68931 
L 600.473037 -257.444756 
L 602.591708 -260.200202 
L 604.499901 -262.955647 
L 606.212518 -265.711093 
L 607.78864 -268.466539 
L 609.297577 -271.221985 
L 610.785655 -273.97743 
L 612.254527 -276.732876 
L 613.655673 -279.488322 
L 614.899949 -282.243768 
L 615.877394 -284.999214 
L 616.481181 -287.754659 
L 616.629917 -290.510105 
L 616.2838 -293.265551 
L 615.451943 -296.020997 
L 614.190525 -298.776442 
L 612.593681 -301.531888 
L 610.78082 -304.287334 
L 608.884467 -307.04278 
L 607.041644 -309.798225 
L 605.389579 -312.553671 
L 604.06411 -315.309117 
L 603.197362 -318.064563 
L 602.911139 -320.820009 
L 603.303978 -323.575454 
L 604.432946 -326.3309 
L 606.294811 -329.086346 
L 608.813654 -331.841792 
L 611.841703 -334.597237 
L 615.176573 -337.352683 
L 618.592256 -340.108129 
L 621.875787 -342.863575 
L 624.8591 -345.61902 
L 627.437554 -348.374466 
L 629.571874 -351.129912 
L 631.276184 -353.885358 
L 632.598752 -356.640803 
L 633.60263 -359.396249 
L 634.351186 -362.151695 
L 634.900187 -364.907141 
L 636.075 -364.907141 
L 636.075 -364.907141 
L 636.075 -362.151695 
L 636.075 -359.396249 
L 636.075 -356.640803 
L 636.075 -353.885358 
L 636.075 -351.129912 
L 636.075 -348.374466 
L 636.075 -345.61902 
L 636.075 -342.863575 
L 636.075 -340.108129 
L 636.075 -337.352683 
L 636.075 -334.597237 
L 636.075 -331.841792 
L 636.075 -329.086346 
L 636.075 -326.3309 
L 636.075 -323.575454 
L 636.075 -320.820009 
L 636.075 -318.064563 
L 636.075 -315.309117 
L 636.075 -312.553671 
L 636.075 -309.798225 
L 636.075 -307.04278 
L 636.075 -304.287334 
L 636.075 -301.531888 
L 636.075 -298.776442 
L 636.075 -296.020997 
L 636.075 -293.265551 
L 636.075 -290.510105 
L 636.075 -287.754659 
L 636.075 -284.999214 
L 636.075 -282.243768 
L 636.075 -279.488322 
L 636.075 -276.732876 
L 636.075 -273.97743 
L 636.075 -271.221985 
L 636.075 -268.466539 
L 636.075 -265.711093 
L 636.075 -262.955647 
L 636.075 -260.200202 
L 636.075 -257.444756 
L 636.075 -254.68931 
L 636.075 -251.933864 
L 636.075 -249.178419 
L 636.075 -246.422973 
L 636.075 -243.667527 
L 636.075 -240.912081 
L 636.075 -238.156635 
L 636.075 -235.40119 
L 636.075 -232.645744 
L 636.075 -229.890298 
L 636.075 -227.134852 
L 636.075 -224.379407 
L 636.075 -221.623961 
L 636.075 -218.868515 
L 636.075 -216.113069 
L 636.075 -213.357624 
L 636.075 -210.602178 
L 636.075 -207.846732 
L 636.075 -205.091286 
L 636.075 -202.335841 
L 636.075 -199.580395 
L 636.075 -196.824949 
L 636.075 -194.069503 
L 636.075 -191.314057 
L 636.075 -188.558612 
L 636.075 -185.803166 
L 636.075 -183.04772 
L 636.075 -180.292274 
L 636.075 -177.536829 
L 636.075 -174.781383 
L 636.075 -172.025937 
L 636.075 -169.270491 
L 636.075 -166.515046 
L 636.075 -163.7596 
L 636.075 -161.004154 
L 636.075 -158.248708 
L 636.075 -155.493262 
L 636.075 -152.737817 
L 636.075 -149.982371 
L 636.075 -147.226925 
L 636.075 -144.471479 
L 636.075 -141.716034 
L 636.075 -138.960588 
L 636.075 -136.205142 
L 636.075 -133.449696 
L 636.075 -130.694251 
L 636.075 -127.938805 
L 636.075 -125.183359 
L 636.075 -122.427913 
L 636.075 -119.672467 
L 636.075 -116.917022 
L 636.075 -114.161576 
L 636.075 -111.40613 
L 636.075 -108.650684 
L 636.075 -105.895239 
L 636.075 -103.139793 
L 636.075 -100.384347 
L 636.075 -97.628901 
L 636.075 -94.873456 
L 636.075 -92.11801 
z
" id="mee9dcfb61d" style="stroke:#363636;"/>
    </defs>
    <g clip-path="url(#p1e4688e31c)">
     <use style="fill:#176d9c;stroke:#363636;" x="0" xlink:href="#mee9dcfb61d" y="432"/>
    </g>
   </g>
   <g id="PolyCollection_8">
    <defs>
     <path d="M 641.994543 -118.500788 
L 636.075 -118.500788 
L 636.075 -120.993223 
L 636.075 -123.485658 
L 636.075 -125.978093 
L 636.075 -128.470528 
L 636.075 -130.962964 
L 636.075 -133.455399 
L 636.075 -135.947834 
L 636.075 -138.440269 
L 636.075 -140.932704 
L 636.075 -143.425139 
L 636.075 -145.917575 
L 636.075 -148.41001 
L 636.075 -150.902445 
L 636.075 -153.39488 
L 636.075 -155.887315 
L 636.075 -158.37975 
L 636.075 -160.872186 
L 636.075 -163.364621 
L 636.075 -165.857056 
L 636.075 -168.349491 
L 636.075 -170.841926 
L 636.075 -173.334361 
L 636.075 -175.826797 
L 636.075 -178.319232 
L 636.075 -180.811667 
L 636.075 -183.304102 
L 636.075 -185.796537 
L 636.075 -188.288972 
L 636.075 -190.781408 
L 636.075 -193.273843 
L 636.075 -195.766278 
L 636.075 -198.258713 
L 636.075 -200.751148 
L 636.075 -203.243583 
L 636.075 -205.736019 
L 636.075 -208.228454 
L 636.075 -210.720889 
L 636.075 -213.213324 
L 636.075 -215.705759 
L 636.075 -218.198194 
L 636.075 -220.69063 
L 636.075 -223.183065 
L 636.075 -225.6755 
L 636.075 -228.167935 
L 636.075 -230.66037 
L 636.075 -233.152806 
L 636.075 -235.645241 
L 636.075 -238.137676 
L 636.075 -240.630111 
L 636.075 -243.122546 
L 636.075 -245.614981 
L 636.075 -248.107417 
L 636.075 -250.599852 
L 636.075 -253.092287 
L 636.075 -255.584722 
L 636.075 -258.077157 
L 636.075 -260.569592 
L 636.075 -263.062028 
L 636.075 -265.554463 
L 636.075 -268.046898 
L 636.075 -270.539333 
L 636.075 -273.031768 
L 636.075 -275.524203 
L 636.075 -278.016639 
L 636.075 -280.509074 
L 636.075 -283.001509 
L 636.075 -285.493944 
L 636.075 -287.986379 
L 636.075 -290.478814 
L 636.075 -292.97125 
L 636.075 -295.463685 
L 636.075 -297.95612 
L 636.075 -300.448555 
L 636.075 -302.94099 
L 636.075 -305.433425 
L 636.075 -307.925861 
L 636.075 -310.418296 
L 636.075 -312.910731 
L 636.075 -315.403166 
L 636.075 -317.895601 
L 636.075 -320.388036 
L 636.075 -322.880472 
L 636.075 -325.372907 
L 636.075 -327.865342 
L 636.075 -330.357777 
L 636.075 -332.850212 
L 636.075 -335.342647 
L 636.075 -337.835083 
L 636.075 -340.327518 
L 636.075 -342.819953 
L 636.075 -345.312388 
L 636.075 -347.804823 
L 636.075 -350.297258 
L 636.075 -352.789694 
L 636.075 -355.282129 
L 636.075 -357.774564 
L 636.075 -360.266999 
L 636.075 -362.759434 
L 636.075 -365.25187 
L 640.631005 -365.25187 
L 640.631005 -365.25187 
L 641.845043 -362.759434 
L 643.175518 -360.266999 
L 644.593179 -357.774564 
L 646.075805 -355.282129 
L 647.615215 -352.789694 
L 649.219705 -350.297258 
L 650.909859 -347.804823 
L 652.707713 -345.312388 
L 654.621736 -342.819953 
L 656.632079 -340.327518 
L 658.681111 -337.835083 
L 660.673117 -335.342647 
L 662.484408 -332.850212 
L 663.982004 -330.357777 
L 665.046508 -327.865342 
L 665.59369 -325.372907 
L 665.589884 -322.880472 
L 665.058081 -320.388036 
L 664.074018 -317.895601 
L 662.753766 -315.403166 
L 661.235895 -312.910731 
L 659.662116 -310.418296 
L 658.160315 -307.925861 
L 656.833181 -305.433425 
L 655.754288 -302.94099 
L 654.971632 -300.448555 
L 654.516642 -297.95612 
L 654.415035 -295.463685 
L 654.695195 -292.97125 
L 655.390307 -290.478814 
L 656.532404 -287.986379 
L 658.139189 -285.493944 
L 660.197307 -283.001509 
L 662.647612 -280.509074 
L 665.378254 -278.016639 
L 668.229652 -275.524203 
L 671.01211 -273.031768 
L 673.532884 -270.539333 
L 675.626191 -268.046898 
L 677.178389 -265.554463 
L 678.141808 -263.062028 
L 678.534346 -260.569592 
L 678.426638 -258.077157 
L 677.922542 -255.584722 
L 677.140428 -253.092287 
L 676.201327 -250.599852 
L 675.226184 -248.107417 
L 674.339712 -245.614981 
L 673.674739 -243.122546 
L 673.370099 -240.630111 
L 673.557472 -238.137676 
L 674.337255 -235.645241 
L 675.748767 -233.152806 
L 677.743781 -230.66037 
L 680.173051 -228.167935 
L 682.792865 -225.6755 
L 685.293468 -223.183065 
L 687.345129 -220.69063 
L 688.652576 -218.198194 
L 689.005991 -215.705759 
L 688.31733 -213.213324 
L 686.634244 -210.720889 
L 684.129197 -208.228454 
L 681.067071 -205.736019 
L 677.759311 -203.243583 
L 674.515292 -200.751148 
L 671.60161 -198.258713 
L 669.217382 -195.766278 
L 667.488953 -193.273843 
L 666.481839 -190.781408 
L 666.222717 -188.288972 
L 666.721422 -185.796537 
L 667.983327 -183.304102 
L 670.006251 -180.811667 
L 672.76221 -178.319232 
L 676.170784 -175.826797 
L 680.075219 -173.334361 
L 684.232857 -170.841926 
L 688.327503 -168.349491 
L 692.004282 -165.857056 
L 694.919764 -163.364621 
L 696.79463 -160.872186 
L 697.455 -158.37975 
L 696.852063 -155.887315 
L 695.056496 -153.39488 
L 692.231712 -150.902445 
L 688.595426 -148.41001 
L 684.380784 -145.917575 
L 679.806222 -143.425139 
L 675.05861 -140.932704 
L 670.289253 -138.440269 
L 665.618641 -135.947834 
L 661.144509 -133.455399 
L 656.948598 -130.962964 
L 653.099642 -128.470528 
L 649.652468 -125.978093 
L 646.644767 -123.485658 
L 644.093747 -120.993223 
L 641.994543 -118.500788 
z
" id="md88f12340d" style="stroke:#363636;"/>
    </defs>
    <g clip-path="url(#p1e4688e31c)">
     <use style="fill:#c38820;stroke:#363636;" x="0" xlink:href="#md88f12340d" y="432"/>
    </g>
   </g>
   <g id="patch_3">
    <path clip-path="url(#p1e4688e31c)" d="M 175.725 419.290854 
L 175.725 419.290854 
L 175.725 419.290854 
L 175.725 419.290854 
z
" style="fill:#176d9c;stroke:#363636;stroke-linejoin:miter;stroke-width:0.5;"/>
   </g>
   <g id="patch_4">
    <path clip-path="url(#p1e4688e31c)" d="M 175.725 419.290854 
L 175.725 419.290854 
L 175.725 419.290854 
L 175.725 419.290854 
z
" style="fill:#c38820;stroke:#363636;stroke-linejoin:miter;stroke-width:0.5;"/>
   </g>
   <g id="line2d_7">
    <path clip-path="url(#p1e4688e31c)" d="M 121.828963 271.210731 
L 175.725 271.210731 
" style="fill:none;stroke:#363636;stroke-dasharray:1.5,1.5;stroke-dashoffset:0;"/>
   </g>
   <g id="line2d_8">
    <path clip-path="url(#p1e4688e31c)" d="M 122.570741 215.712239 
L 175.725 215.712239 
" style="fill:none;stroke:#363636;stroke-dasharray:3,3;stroke-dashoffset:0;"/>
   </g>
   <g id="line2d_9">
    <path clip-path="url(#p1e4688e31c)" d="M 148.458783 175.022961 
L 175.725 175.022961 
" style="fill:none;stroke:#363636;stroke-dasharray:1.5,1.5;stroke-dashoffset:0;"/>
   </g>
   <g id="line2d_10">
    <path clip-path="url(#p1e4688e31c)" d="M 175.725 271.210731 
L 234.983844 271.210731 
" style="fill:none;stroke:#363636;stroke-dasharray:1.5,1.5;stroke-dashoffset:0;"/>
   </g>
   <g id="line2d_11">
    <path clip-path="url(#p1e4688e31c)" d="M 175.725 215.712239 
L 230.810109 215.712239 
" style="fill:none;stroke:#363636;stroke-dasharray:3,3;stroke-dashoffset:0;"/>
   </g>
   <g id="line2d_12">
    <path clip-path="url(#p1e4688e31c)" d="M 175.725 175.022961 
L 199.946131 175.022961 
" style="fill:none;stroke:#363636;stroke-dasharray:1.5,1.5;stroke-dashoffset:0;"/>
   </g>
   <g id="line2d_13">
    <path clip-path="url(#p1e4688e31c)" d="M 270.026981 271.210731 
L 329.175 271.210731 
" style="fill:none;stroke:#363636;stroke-dasharray:1.5,1.5;stroke-dashoffset:0;"/>
   </g>
   <g id="line2d_14">
    <path clip-path="url(#p1e4688e31c)" d="M 277.725676 218.759427 
L 329.175 218.759427 
" style="fill:none;stroke:#363636;stroke-dasharray:3,3;stroke-dashoffset:0;"/>
   </g>
   <g id="line2d_15">
    <path clip-path="url(#p1e4688e31c)" d="M 299.153629 186.754936 
L 329.175 186.754936 
" style="fill:none;stroke:#363636;stroke-dasharray:1.5,1.5;stroke-dashoffset:0;"/>
   </g>
   <g id="line2d_16">
    <path clip-path="url(#p1e4688e31c)" d="M 329.175 270.602195 
L 381.12487 270.602195 
" style="fill:none;stroke:#363636;stroke-dasharray:1.5,1.5;stroke-dashoffset:0;"/>
   </g>
   <g id="line2d_17">
    <path clip-path="url(#p1e4688e31c)" d="M 329.175 215.712239 
L 381.199281 215.712239 
" style="fill:none;stroke:#363636;stroke-dasharray:3,3;stroke-dashoffset:0;"/>
   </g>
   <g id="line2d_18">
    <path clip-path="url(#p1e4688e31c)" d="M 329.175 169.825612 
L 352.47789 169.825612 
" style="fill:none;stroke:#363636;stroke-dasharray:1.5,1.5;stroke-dashoffset:0;"/>
   </g>
   <g id="line2d_19">
    <path clip-path="url(#p1e4688e31c)" d="M 436.703132 271.210731 
L 482.625 271.210731 
" style="fill:none;stroke:#363636;stroke-dasharray:1.5,1.5;stroke-dashoffset:0;"/>
   </g>
   <g id="line2d_20">
    <path clip-path="url(#p1e4688e31c)" d="M 443.789484 215.712239 
L 482.625 215.712239 
" style="fill:none;stroke:#363636;stroke-dasharray:3,3;stroke-dashoffset:0;"/>
   </g>
   <g id="line2d_21">
    <path clip-path="url(#p1e4688e31c)" d="M 465.902637 166.49444 
L 482.625 166.49444 
" style="fill:none;stroke:#363636;stroke-dasharray:1.5,1.5;stroke-dashoffset:0;"/>
   </g>
   <g id="line2d_22">
    <path clip-path="url(#p1e4688e31c)" d="M 482.625 271.210731 
L 526.855746 271.210731 
" style="fill:none;stroke:#363636;stroke-dasharray:1.5,1.5;stroke-dashoffset:0;"/>
   </g>
   <g id="line2d_23">
    <path clip-path="url(#p1e4688e31c)" d="M 482.625 215.712239 
L 543.3912 215.712239 
" style="fill:none;stroke:#363636;stroke-dasharray:3,3;stroke-dashoffset:0;"/>
   </g>
   <g id="line2d_24">
    <path clip-path="url(#p1e4688e31c)" d="M 482.625 191.400846 
L 506.907178 191.400846 
" style="fill:none;stroke:#363636;stroke-dasharray:1.5,1.5;stroke-dashoffset:0;"/>
   </g>
   <g id="line2d_25">
    <path clip-path="url(#p1e4688e31c)" d="M 577.161922 270.39935 
L 636.075 270.39935 
" style="fill:none;stroke:#363636;stroke-dasharray:1.5,1.5;stroke-dashoffset:0;"/>
   </g>
   <g id="line2d_26">
    <path clip-path="url(#p1e4688e31c)" d="M 579.821032 209.683975 
L 636.075 209.683975 
" style="fill:none;stroke:#363636;stroke-dasharray:3,3;stroke-dashoffset:0;"/>
   </g>
   <g id="line2d_27">
    <path clip-path="url(#p1e4688e31c)" d="M 608.071504 163.561446 
L 636.075 163.561446 
" style="fill:none;stroke:#363636;stroke-dasharray:1.5,1.5;stroke-dashoffset:0;"/>
   </g>
   <g id="line2d_28">
    <path clip-path="url(#p1e4688e31c)" d="M 636.075 270.39935 
L 696.187433 270.39935 
" style="fill:none;stroke:#363636;stroke-dasharray:1.5,1.5;stroke-dashoffset:0;"/>
   </g>
   <g id="line2d_29">
    <path clip-path="url(#p1e4688e31c)" d="M 636.075 214.825729 
L 688.1268 214.825729 
" style="fill:none;stroke:#363636;stroke-dasharray:3,3;stroke-dashoffset:0;"/>
   </g>
   <g id="line2d_30">
    <path clip-path="url(#p1e4688e31c)" d="M 636.075 163.561446 
L 675.230679 163.561446 
" style="fill:none;stroke:#363636;stroke-dasharray:1.5,1.5;stroke-dashoffset:0;"/>
   </g>
   <g id="legend_1">
    <g id="patch_5">
     <path d="M 641.160781 108.503594 
L 705.1 108.503594 
Q 707.3 108.503594 707.3 106.303594 
L 707.3 59.54 
Q 707.3 57.34 705.1 57.34 
L 641.160781 57.34 
Q 638.960781 57.34 638.960781 59.54 
L 638.960781 106.303594 
Q 638.960781 108.503594 641.160781 108.503594 
z
" style="fill:#ffffff;opacity:0.8;stroke:#cccccc;stroke-linejoin:miter;"/>
    </g>
    <g id="text_13">
     <!-- inst_single -->
     <g style="fill:#262626;" transform="translate(644.781328 70.329375)scale(0.12 -0.12)">
      <defs>
       <path d="M 3.078125 15.484375 
L 11.765625 16.84375 
Q 12.5 11.625 15.84375 8.84375 
Q 19.1875 6.0625 25.203125 6.0625 
Q 31.25 6.0625 34.171875 8.515625 
Q 37.109375 10.984375 37.109375 14.3125 
Q 37.109375 17.28125 34.515625 19 
Q 32.71875 20.171875 25.53125 21.96875 
Q 15.875 24.421875 12.140625 26.203125 
Q 8.40625 27.984375 6.46875 31.125 
Q 4.546875 34.28125 4.546875 38.09375 
Q 4.546875 41.546875 6.125 44.5 
Q 7.71875 47.46875 10.453125 49.421875 
Q 12.5 50.921875 16.03125 51.96875 
Q 19.578125 53.03125 23.640625 53.03125 
Q 29.734375 53.03125 34.34375 51.265625 
Q 38.96875 49.515625 41.15625 46.5 
Q 43.359375 43.5 44.1875 38.484375 
L 35.59375 37.3125 
Q 35.015625 41.3125 32.203125 43.546875 
Q 29.390625 45.796875 24.265625 45.796875 
Q 18.21875 45.796875 15.625 43.796875 
Q 13.03125 41.796875 13.03125 39.109375 
Q 13.03125 37.40625 14.109375 36.03125 
Q 15.1875 34.625 17.484375 33.6875 
Q 18.796875 33.203125 25.25 31.453125 
Q 34.578125 28.953125 38.25 27.359375 
Q 41.9375 25.78125 44.03125 22.75 
Q 46.140625 19.734375 46.140625 15.234375 
Q 46.140625 10.84375 43.578125 6.953125 
Q 41.015625 3.078125 36.171875 0.953125 
Q 31.34375 -1.171875 25.25 -1.171875 
Q 15.140625 -1.171875 9.84375 3.03125 
Q 4.546875 7.234375 3.078125 15.484375 
z
" id="ArialMT-115"/>
       <path d="M 25.78125 7.859375 
L 27.046875 0.09375 
Q 23.34375 -0.6875 20.40625 -0.6875 
Q 15.625 -0.6875 12.984375 0.828125 
Q 10.359375 2.34375 9.28125 4.8125 
Q 8.203125 7.28125 8.203125 15.1875 
L 8.203125 45.015625 
L 1.765625 45.015625 
L 1.765625 51.859375 
L 8.203125 51.859375 
L 8.203125 64.703125 
L 16.9375 69.96875 
L 16.9375 51.859375 
L 25.78125 51.859375 
L 25.78125 45.015625 
L 16.9375 45.015625 
L 16.9375 14.703125 
Q 16.9375 10.9375 17.40625 9.859375 
Q 17.875 8.796875 18.921875 8.15625 
Q 19.96875 7.515625 21.921875 7.515625 
Q 23.390625 7.515625 25.78125 7.859375 
z
" id="ArialMT-116"/>
       <path d="M 4.984375 -4.296875 
L 13.53125 -5.5625 
Q 14.0625 -9.515625 16.5 -11.328125 
Q 19.78125 -13.765625 25.4375 -13.765625 
Q 31.546875 -13.765625 34.859375 -11.328125 
Q 38.1875 -8.890625 39.359375 -4.5 
Q 40.046875 -1.8125 39.984375 6.78125 
Q 34.234375 0 25.640625 0 
Q 14.9375 0 9.078125 7.71875 
Q 3.21875 15.4375 3.21875 26.21875 
Q 3.21875 33.640625 5.90625 39.90625 
Q 8.59375 46.1875 13.6875 49.609375 
Q 18.796875 53.03125 25.6875 53.03125 
Q 34.859375 53.03125 40.828125 45.609375 
L 40.828125 51.859375 
L 48.921875 51.859375 
L 48.921875 7.03125 
Q 48.921875 -5.078125 46.453125 -10.125 
Q 44 -15.1875 38.640625 -18.109375 
Q 33.296875 -21.046875 25.484375 -21.046875 
Q 16.21875 -21.046875 10.5 -16.875 
Q 4.78125 -12.703125 4.984375 -4.296875 
z
M 12.25 26.859375 
Q 12.25 16.65625 16.296875 11.96875 
Q 20.359375 7.28125 26.46875 7.28125 
Q 32.515625 7.28125 36.609375 11.9375 
Q 40.71875 16.609375 40.71875 26.5625 
Q 40.71875 36.078125 36.5 40.90625 
Q 32.28125 45.75 26.3125 45.75 
Q 20.453125 45.75 16.34375 40.984375 
Q 12.25 36.234375 12.25 26.859375 
z
" id="ArialMT-103"/>
       <path d="M 6.390625 0 
L 6.390625 71.578125 
L 15.1875 71.578125 
L 15.1875 0 
z
" id="ArialMT-108"/>
      </defs>
      <use xlink:href="#ArialMT-105"/>
      <use x="22.216797" xlink:href="#ArialMT-110"/>
      <use x="77.832031" xlink:href="#ArialMT-115"/>
      <use x="127.832031" xlink:href="#ArialMT-116"/>
      <use x="155.615234" xlink:href="#ArialMT-95"/>
      <use x="211.230469" xlink:href="#ArialMT-115"/>
      <use x="261.230469" xlink:href="#ArialMT-105"/>
      <use x="283.447266" xlink:href="#ArialMT-110"/>
      <use x="339.0625" xlink:href="#ArialMT-103"/>
      <use x="394.677734" xlink:href="#ArialMT-108"/>
      <use x="416.894531" xlink:href="#ArialMT-101"/>
     </g>
    </g>
    <g id="patch_6">
     <path d="M 643.360781 86.228594 
L 665.360781 86.228594 
L 665.360781 78.528594 
L 643.360781 78.528594 
z
" style="fill:#176d9c;stroke:#363636;stroke-linejoin:miter;stroke-width:0.5;"/>
    </g>
    <g id="text_14">
     <!-- inst -->
     <g style="fill:#262626;" transform="translate(674.160781 86.228594)scale(0.11 -0.11)">
      <use xlink:href="#ArialMT-105"/>
      <use x="22.216797" xlink:href="#ArialMT-110"/>
      <use x="77.832031" xlink:href="#ArialMT-115"/>
      <use x="127.832031" xlink:href="#ArialMT-116"/>
     </g>
    </g>
    <g id="patch_7">
     <path d="M 643.360781 101.788437 
L 665.360781 101.788437 
L 665.360781 94.088437 
L 643.360781 94.088437 
z
" style="fill:#c38820;stroke:#363636;stroke-linejoin:miter;stroke-width:0.5;"/>
    </g>
    <g id="text_15">
     <!-- single -->
     <g style="fill:#262626;" transform="translate(674.160781 101.788437)scale(0.11 -0.11)">
      <use xlink:href="#ArialMT-115"/>
      <use x="50" xlink:href="#ArialMT-105"/>
      <use x="72.216797" xlink:href="#ArialMT-110"/>
      <use x="127.832031" xlink:href="#ArialMT-103"/>
      <use x="183.447266" xlink:href="#ArialMT-108"/>
      <use x="205.664062" xlink:href="#ArialMT-101"/>
     </g>
    </g>
   </g>
  </g>
 </g>
 <defs>
  <clipPath id="p1e4688e31c">
   <rect height="326.16" width="613.8" x="99" y="51.84"/>
  </clipPath>
 </defs>
</svg>
