<?xml version="1.0" encoding="utf-8" standalone="no"?>
<!DOCTYPE svg PUBLIC "-//W3C//DTD SVG 1.1//EN"
  "http://www.w3.org/Graphics/SVG/1.1/DTD/svg11.dtd">
<!-- Created with matplotlib (https://matplotlib.org/) -->
<svg height="432pt" version="1.1" viewBox="0 0 792 432" width="792pt" xmlns="http://www.w3.org/2000/svg" xmlns:xlink="http://www.w3.org/1999/xlink">
 <metadata>
  <rdf:RDF xmlns:cc="http://creativecommons.org/ns#" xmlns:dc="http://purl.org/dc/elements/1.1/" xmlns:rdf="http://www.w3.org/1999/02/22-rdf-syntax-ns#">
   <cc:Work>
    <dc:type rdf:resource="http://purl.org/dc/dcmitype/StillImage"/>
    <dc:date>2021-08-19T08:05:02.229579</dc:date>
    <dc:format>image/svg+xml</dc:format>
    <dc:creator>
     <cc:Agent>
      <dc:title>Matplotlib v3.3.1, https://matplotlib.org/</dc:title>
     </cc:Agent>
    </dc:creator>
   </cc:Work>
  </rdf:RDF>
 </metadata>
 <defs>
  <style type="text/css">*{stroke-linecap:butt;stroke-linejoin:round;}</style>
 </defs>
 <g id="figure_1">
  <g id="patch_1">
   <path d="M 0 432 
L 792 432 
L 792 0 
L 0 0 
z
" style="fill:#ffffff;"/>
  </g>
  <g id="axes_1">
   <g id="patch_2">
    <path d="M 99 378 
L 712.8 378 
L 712.8 51.84 
L 99 51.84 
z
" style="fill:#ffffff;"/>
   </g>
   <g id="matplotlib.axis_1">
    <g id="xtick_1">
     <g id="text_1">
      <!-- 2000-2006 -->
      <g style="fill:#262626;" transform="translate(149.425547 395.373594)scale(0.11 -0.11)">
       <defs>
        <path d="M 50.34375 8.453125 
L 50.34375 0 
L 3.03125 0 
Q 2.9375 3.171875 4.046875 6.109375 
Q 5.859375 10.9375 9.828125 15.625 
Q 13.8125 20.3125 21.34375 26.46875 
Q 33.015625 36.03125 37.109375 41.625 
Q 41.21875 47.21875 41.21875 52.203125 
Q 41.21875 57.421875 37.46875 61 
Q 33.734375 64.59375 27.734375 64.59375 
Q 21.390625 64.59375 17.578125 60.78125 
Q 13.765625 56.984375 13.71875 50.25 
L 4.6875 51.171875 
Q 5.609375 61.28125 11.65625 66.578125 
Q 17.71875 71.875 27.9375 71.875 
Q 38.234375 71.875 44.234375 66.15625 
Q 50.25 60.453125 50.25 52 
Q 50.25 47.703125 48.484375 43.546875 
Q 46.734375 39.40625 42.65625 34.8125 
Q 38.578125 30.21875 29.109375 22.21875 
Q 21.1875 15.578125 18.9375 13.203125 
Q 16.703125 10.84375 15.234375 8.453125 
z
" id="ArialMT-50"/>
        <path d="M 4.15625 35.296875 
Q 4.15625 48 6.765625 55.734375 
Q 9.375 63.484375 14.515625 67.671875 
Q 19.671875 71.875 27.484375 71.875 
Q 33.25 71.875 37.59375 69.546875 
Q 41.9375 67.234375 44.765625 62.859375 
Q 47.609375 58.5 49.21875 52.21875 
Q 50.828125 45.953125 50.828125 35.296875 
Q 50.828125 22.703125 48.234375 14.96875 
Q 45.65625 7.234375 40.5 3 
Q 35.359375 -1.21875 27.484375 -1.21875 
Q 17.140625 -1.21875 11.234375 6.203125 
Q 4.15625 15.140625 4.15625 35.296875 
z
M 13.1875 35.296875 
Q 13.1875 17.671875 17.3125 11.828125 
Q 21.4375 6 27.484375 6 
Q 33.546875 6 37.671875 11.859375 
Q 41.796875 17.71875 41.796875 35.296875 
Q 41.796875 52.984375 37.671875 58.78125 
Q 33.546875 64.59375 27.390625 64.59375 
Q 21.34375 64.59375 17.71875 59.46875 
Q 13.1875 52.9375 13.1875 35.296875 
z
" id="ArialMT-48"/>
        <path d="M 3.171875 21.484375 
L 3.171875 30.328125 
L 30.171875 30.328125 
L 30.171875 21.484375 
z
" id="ArialMT-45"/>
        <path d="M 49.75 54.046875 
L 41.015625 53.375 
Q 39.84375 58.546875 37.703125 60.890625 
Q 34.125 64.65625 28.90625 64.65625 
Q 24.703125 64.65625 21.53125 62.3125 
Q 17.390625 59.28125 14.984375 53.46875 
Q 12.59375 47.65625 12.5 36.921875 
Q 15.671875 41.75 20.265625 44.09375 
Q 24.859375 46.4375 29.890625 46.4375 
Q 38.671875 46.4375 44.84375 39.96875 
Q 51.03125 33.5 51.03125 23.25 
Q 51.03125 16.5 48.125 10.71875 
Q 45.21875 4.9375 40.140625 1.859375 
Q 35.0625 -1.21875 28.609375 -1.21875 
Q 17.625 -1.21875 10.6875 6.859375 
Q 3.765625 14.9375 3.765625 33.5 
Q 3.765625 54.25 11.421875 63.671875 
Q 18.109375 71.875 29.4375 71.875 
Q 37.890625 71.875 43.28125 67.140625 
Q 48.6875 62.40625 49.75 54.046875 
z
M 13.875 23.1875 
Q 13.875 18.65625 15.796875 14.5 
Q 17.71875 10.359375 21.1875 8.171875 
Q 24.65625 6 28.46875 6 
Q 34.03125 6 38.03125 10.484375 
Q 42.046875 14.984375 42.046875 22.703125 
Q 42.046875 30.125 38.078125 34.390625 
Q 34.125 38.671875 28.125 38.671875 
Q 22.171875 38.671875 18.015625 34.390625 
Q 13.875 30.125 13.875 23.1875 
z
" id="ArialMT-54"/>
       </defs>
       <use xlink:href="#ArialMT-50"/>
       <use x="55.615234" xlink:href="#ArialMT-48"/>
       <use x="111.230469" xlink:href="#ArialMT-48"/>
       <use x="166.845703" xlink:href="#ArialMT-48"/>
       <use x="222.460938" xlink:href="#ArialMT-45"/>
       <use x="255.761719" xlink:href="#ArialMT-50"/>
       <use x="311.376953" xlink:href="#ArialMT-48"/>
       <use x="366.992188" xlink:href="#ArialMT-48"/>
       <use x="422.607422" xlink:href="#ArialMT-54"/>
      </g>
     </g>
    </g>
    <g id="xtick_2">
     <g id="text_2">
      <!-- 2007-2009 -->
      <g style="fill:#262626;" transform="translate(302.875547 395.373594)scale(0.11 -0.11)">
       <defs>
        <path d="M 4.734375 62.203125 
L 4.734375 70.65625 
L 51.078125 70.65625 
L 51.078125 63.8125 
Q 44.234375 56.546875 37.515625 44.484375 
Q 30.8125 32.421875 27.15625 19.671875 
Q 24.515625 10.6875 23.78125 0 
L 14.75 0 
Q 14.890625 8.453125 18.0625 20.40625 
Q 21.234375 32.375 27.171875 43.484375 
Q 33.109375 54.59375 39.796875 62.203125 
z
" id="ArialMT-55"/>
        <path d="M 5.46875 16.546875 
L 13.921875 17.328125 
Q 14.984375 11.375 18.015625 8.6875 
Q 21.046875 6 25.78125 6 
Q 29.828125 6 32.875 7.859375 
Q 35.9375 9.71875 37.890625 12.8125 
Q 39.84375 15.921875 41.15625 21.1875 
Q 42.484375 26.46875 42.484375 31.9375 
Q 42.484375 32.515625 42.4375 33.6875 
Q 39.796875 29.5 35.234375 26.875 
Q 30.671875 24.265625 25.34375 24.265625 
Q 16.453125 24.265625 10.296875 30.703125 
Q 4.15625 37.15625 4.15625 47.703125 
Q 4.15625 58.59375 10.578125 65.234375 
Q 17 71.875 26.65625 71.875 
Q 33.640625 71.875 39.421875 68.109375 
Q 45.21875 64.359375 48.21875 57.390625 
Q 51.21875 50.4375 51.21875 37.25 
Q 51.21875 23.53125 48.234375 15.40625 
Q 45.265625 7.28125 39.375 3.03125 
Q 33.5 -1.21875 25.59375 -1.21875 
Q 17.1875 -1.21875 11.859375 3.4375 
Q 6.546875 8.109375 5.46875 16.546875 
z
M 41.453125 48.140625 
Q 41.453125 55.71875 37.421875 60.15625 
Q 33.40625 64.59375 27.734375 64.59375 
Q 21.875 64.59375 17.53125 59.8125 
Q 13.1875 55.03125 13.1875 47.40625 
Q 13.1875 40.578125 17.3125 36.296875 
Q 21.4375 32.03125 27.484375 32.03125 
Q 33.59375 32.03125 37.515625 36.296875 
Q 41.453125 40.578125 41.453125 48.140625 
z
" id="ArialMT-57"/>
       </defs>
       <use xlink:href="#ArialMT-50"/>
       <use x="55.615234" xlink:href="#ArialMT-48"/>
       <use x="111.230469" xlink:href="#ArialMT-48"/>
       <use x="166.845703" xlink:href="#ArialMT-55"/>
       <use x="222.460938" xlink:href="#ArialMT-45"/>
       <use x="255.761719" xlink:href="#ArialMT-50"/>
       <use x="311.376953" xlink:href="#ArialMT-48"/>
       <use x="366.992188" xlink:href="#ArialMT-48"/>
       <use x="422.607422" xlink:href="#ArialMT-57"/>
      </g>
     </g>
    </g>
    <g id="xtick_3">
     <g id="text_3">
      <!-- 2010-2013 -->
      <g style="fill:#262626;" transform="translate(456.325547 395.373594)scale(0.11 -0.11)">
       <defs>
        <path d="M 37.25 0 
L 28.46875 0 
L 28.46875 56 
Q 25.296875 52.984375 20.140625 49.953125 
Q 14.984375 46.921875 10.890625 45.40625 
L 10.890625 53.90625 
Q 18.265625 57.375 23.78125 62.296875 
Q 29.296875 67.234375 31.59375 71.875 
L 37.25 71.875 
z
" id="ArialMT-49"/>
        <path d="M 4.203125 18.890625 
L 12.984375 20.0625 
Q 14.5 12.59375 18.140625 9.296875 
Q 21.78125 6 27 6 
Q 33.203125 6 37.46875 10.296875 
Q 41.75 14.59375 41.75 20.953125 
Q 41.75 27 37.796875 30.921875 
Q 33.84375 34.859375 27.734375 34.859375 
Q 25.25 34.859375 21.53125 33.890625 
L 22.515625 41.609375 
Q 23.390625 41.5 23.921875 41.5 
Q 29.546875 41.5 34.03125 44.421875 
Q 38.53125 47.359375 38.53125 53.46875 
Q 38.53125 58.296875 35.25 61.46875 
Q 31.984375 64.65625 26.8125 64.65625 
Q 21.6875 64.65625 18.265625 61.421875 
Q 14.84375 58.203125 13.875 51.765625 
L 5.078125 53.328125 
Q 6.6875 62.15625 12.390625 67.015625 
Q 18.109375 71.875 26.609375 71.875 
Q 32.46875 71.875 37.390625 69.359375 
Q 42.328125 66.84375 44.9375 62.5 
Q 47.5625 58.15625 47.5625 53.265625 
Q 47.5625 48.640625 45.0625 44.828125 
Q 42.578125 41.015625 37.703125 38.765625 
Q 44.046875 37.3125 47.5625 32.6875 
Q 51.078125 28.078125 51.078125 21.140625 
Q 51.078125 11.765625 44.234375 5.25 
Q 37.40625 -1.265625 26.953125 -1.265625 
Q 17.53125 -1.265625 11.296875 4.34375 
Q 5.078125 9.96875 4.203125 18.890625 
z
" id="ArialMT-51"/>
       </defs>
       <use xlink:href="#ArialMT-50"/>
       <use x="55.615234" xlink:href="#ArialMT-48"/>
       <use x="111.230469" xlink:href="#ArialMT-49"/>
       <use x="166.845703" xlink:href="#ArialMT-48"/>
       <use x="222.460938" xlink:href="#ArialMT-45"/>
       <use x="255.761719" xlink:href="#ArialMT-50"/>
       <use x="311.376953" xlink:href="#ArialMT-48"/>
       <use x="366.992188" xlink:href="#ArialMT-49"/>
       <use x="422.607422" xlink:href="#ArialMT-51"/>
      </g>
     </g>
    </g>
    <g id="xtick_4">
     <g id="text_4">
      <!-- 2014-2018 -->
      <g style="fill:#262626;" transform="translate(609.775547 395.373594)scale(0.11 -0.11)">
       <defs>
        <path d="M 32.328125 0 
L 32.328125 17.140625 
L 1.265625 17.140625 
L 1.265625 25.203125 
L 33.9375 71.578125 
L 41.109375 71.578125 
L 41.109375 25.203125 
L 50.78125 25.203125 
L 50.78125 17.140625 
L 41.109375 17.140625 
L 41.109375 0 
z
M 32.328125 25.203125 
L 32.328125 57.46875 
L 9.90625 25.203125 
z
" id="ArialMT-52"/>
        <path d="M 17.671875 38.8125 
Q 12.203125 40.828125 9.5625 44.53125 
Q 6.9375 48.25 6.9375 53.421875 
Q 6.9375 61.234375 12.546875 66.546875 
Q 18.171875 71.875 27.484375 71.875 
Q 36.859375 71.875 42.578125 66.421875 
Q 48.296875 60.984375 48.296875 53.171875 
Q 48.296875 48.1875 45.671875 44.5 
Q 43.0625 40.828125 37.75 38.8125 
Q 44.34375 36.671875 47.78125 31.875 
Q 51.21875 27.09375 51.21875 20.453125 
Q 51.21875 11.28125 44.71875 5.03125 
Q 38.234375 -1.21875 27.640625 -1.21875 
Q 17.046875 -1.21875 10.546875 5.046875 
Q 4.046875 11.328125 4.046875 20.703125 
Q 4.046875 27.6875 7.59375 32.390625 
Q 11.140625 37.109375 17.671875 38.8125 
z
M 15.921875 53.71875 
Q 15.921875 48.640625 19.1875 45.40625 
Q 22.46875 42.1875 27.6875 42.1875 
Q 32.765625 42.1875 36.015625 45.375 
Q 39.265625 48.578125 39.265625 53.21875 
Q 39.265625 58.0625 35.90625 61.359375 
Q 32.5625 64.65625 27.59375 64.65625 
Q 22.5625 64.65625 19.234375 61.421875 
Q 15.921875 58.203125 15.921875 53.71875 
z
M 13.09375 20.65625 
Q 13.09375 16.890625 14.875 13.375 
Q 16.65625 9.859375 20.171875 7.921875 
Q 23.6875 6 27.734375 6 
Q 34.03125 6 38.125 10.046875 
Q 42.234375 14.109375 42.234375 20.359375 
Q 42.234375 26.703125 38.015625 30.859375 
Q 33.796875 35.015625 27.4375 35.015625 
Q 21.234375 35.015625 17.15625 30.90625 
Q 13.09375 26.8125 13.09375 20.65625 
z
" id="ArialMT-56"/>
       </defs>
       <use xlink:href="#ArialMT-50"/>
       <use x="55.615234" xlink:href="#ArialMT-48"/>
       <use x="111.230469" xlink:href="#ArialMT-49"/>
       <use x="166.845703" xlink:href="#ArialMT-52"/>
       <use x="222.460938" xlink:href="#ArialMT-45"/>
       <use x="255.761719" xlink:href="#ArialMT-50"/>
       <use x="311.376953" xlink:href="#ArialMT-48"/>
       <use x="366.992188" xlink:href="#ArialMT-49"/>
       <use x="422.607422" xlink:href="#ArialMT-56"/>
      </g>
     </g>
    </g>
    <g id="text_5">
     <!-- year -->
     <g style="fill:#262626;" transform="translate(394.229063 410.008594)scale(0.12 -0.12)">
      <defs>
       <path d="M 6.203125 -19.96875 
L 5.21875 -11.71875 
Q 8.109375 -12.5 10.25 -12.5 
Q 13.1875 -12.5 14.9375 -11.515625 
Q 16.703125 -10.546875 17.828125 -8.796875 
Q 18.65625 -7.46875 20.515625 -2.25 
Q 20.75 -1.515625 21.296875 -0.09375 
L 1.609375 51.859375 
L 11.078125 51.859375 
L 21.875 21.828125 
Q 23.96875 16.109375 25.640625 9.8125 
Q 27.15625 15.875 29.25 21.625 
L 40.328125 51.859375 
L 49.125 51.859375 
L 29.390625 -0.875 
Q 26.21875 -9.421875 24.46875 -12.640625 
Q 22.125 -17 19.09375 -19.015625 
Q 16.0625 -21.046875 11.859375 -21.046875 
Q 9.328125 -21.046875 6.203125 -19.96875 
z
" id="ArialMT-121"/>
       <path d="M 42.09375 16.703125 
L 51.171875 15.578125 
Q 49.03125 7.625 43.21875 3.21875 
Q 37.40625 -1.171875 28.375 -1.171875 
Q 17 -1.171875 10.328125 5.828125 
Q 3.65625 12.84375 3.65625 25.484375 
Q 3.65625 38.578125 10.390625 45.796875 
Q 17.140625 53.03125 27.875 53.03125 
Q 38.28125 53.03125 44.875 45.953125 
Q 51.46875 38.875 51.46875 26.03125 
Q 51.46875 25.25 51.421875 23.6875 
L 12.75 23.6875 
Q 13.234375 15.140625 17.578125 10.59375 
Q 21.921875 6.0625 28.421875 6.0625 
Q 33.25 6.0625 36.671875 8.59375 
Q 40.09375 11.140625 42.09375 16.703125 
z
M 13.234375 30.90625 
L 42.1875 30.90625 
Q 41.609375 37.453125 38.875 40.71875 
Q 34.671875 45.796875 27.984375 45.796875 
Q 21.921875 45.796875 17.796875 41.75 
Q 13.671875 37.703125 13.234375 30.90625 
z
" id="ArialMT-101"/>
       <path d="M 40.4375 6.390625 
Q 35.546875 2.25 31.03125 0.53125 
Q 26.515625 -1.171875 21.34375 -1.171875 
Q 12.796875 -1.171875 8.203125 3 
Q 3.609375 7.171875 3.609375 13.671875 
Q 3.609375 17.484375 5.34375 20.625 
Q 7.078125 23.78125 9.890625 25.6875 
Q 12.703125 27.59375 16.21875 28.5625 
Q 18.796875 29.25 24.03125 29.890625 
Q 34.671875 31.15625 39.703125 32.90625 
Q 39.75 34.71875 39.75 35.203125 
Q 39.75 40.578125 37.25 42.78125 
Q 33.890625 45.75 27.25 45.75 
Q 21.046875 45.75 18.09375 43.578125 
Q 15.140625 41.40625 13.71875 35.890625 
L 5.125 37.0625 
Q 6.296875 42.578125 8.984375 45.96875 
Q 11.671875 49.359375 16.75 51.1875 
Q 21.828125 53.03125 28.515625 53.03125 
Q 35.15625 53.03125 39.296875 51.46875 
Q 43.453125 49.90625 45.40625 47.53125 
Q 47.359375 45.171875 48.140625 41.546875 
Q 48.578125 39.3125 48.578125 33.453125 
L 48.578125 21.734375 
Q 48.578125 9.46875 49.140625 6.21875 
Q 49.703125 2.984375 51.375 0 
L 42.1875 0 
Q 40.828125 2.734375 40.4375 6.390625 
z
M 39.703125 26.03125 
Q 34.90625 24.078125 25.34375 22.703125 
Q 19.921875 21.921875 17.671875 20.9375 
Q 15.4375 19.96875 14.203125 18.09375 
Q 12.984375 16.21875 12.984375 13.921875 
Q 12.984375 10.40625 15.640625 8.0625 
Q 18.3125 5.71875 23.4375 5.71875 
Q 28.515625 5.71875 32.46875 7.9375 
Q 36.421875 10.15625 38.28125 14.015625 
Q 39.703125 17 39.703125 22.796875 
z
" id="ArialMT-97"/>
       <path d="M 6.5 0 
L 6.5 51.859375 
L 14.40625 51.859375 
L 14.40625 44 
Q 17.4375 49.515625 20 51.265625 
Q 22.5625 53.03125 25.640625 53.03125 
Q 30.078125 53.03125 34.671875 50.203125 
L 31.640625 42.046875 
Q 28.421875 43.953125 25.203125 43.953125 
Q 22.3125 43.953125 20.015625 42.21875 
Q 17.71875 40.484375 16.75 37.40625 
Q 15.28125 32.71875 15.28125 27.15625 
L 15.28125 0 
z
" id="ArialMT-114"/>
      </defs>
      <use xlink:href="#ArialMT-121"/>
      <use x="50" xlink:href="#ArialMT-101"/>
      <use x="105.615234" xlink:href="#ArialMT-97"/>
      <use x="161.230469" xlink:href="#ArialMT-114"/>
     </g>
    </g>
   </g>
   <g id="matplotlib.axis_2">
    <g id="ytick_1">
     <g id="line2d_1">
      <path clip-path="url(#p887053a72d)" d="M 99 353.215928 
L 712.8 353.215928 
" style="fill:none;stroke:#cccccc;stroke-linecap:round;"/>
     </g>
     <g id="text_6">
      <!-- 0.0 -->
      <g style="fill:#262626;" transform="translate(74.21 357.152725)scale(0.11 -0.11)">
       <defs>
        <path d="M 9.078125 0 
L 9.078125 10.015625 
L 19.09375 10.015625 
L 19.09375 0 
z
" id="ArialMT-46"/>
       </defs>
       <use xlink:href="#ArialMT-48"/>
       <use x="55.615234" xlink:href="#ArialMT-46"/>
       <use x="83.398438" xlink:href="#ArialMT-48"/>
      </g>
     </g>
    </g>
    <g id="ytick_2">
     <g id="line2d_2">
      <path clip-path="url(#p887053a72d)" d="M 99 282.090561 
L 712.8 282.090561 
" style="fill:none;stroke:#cccccc;stroke-linecap:round;"/>
     </g>
     <g id="text_7">
      <!-- 0.2 -->
      <g style="fill:#262626;" transform="translate(74.21 286.027358)scale(0.11 -0.11)">
       <use xlink:href="#ArialMT-48"/>
       <use x="55.615234" xlink:href="#ArialMT-46"/>
       <use x="83.398438" xlink:href="#ArialMT-50"/>
      </g>
     </g>
    </g>
    <g id="ytick_3">
     <g id="line2d_3">
      <path clip-path="url(#p887053a72d)" d="M 99 210.965194 
L 712.8 210.965194 
" style="fill:none;stroke:#cccccc;stroke-linecap:round;"/>
     </g>
     <g id="text_8">
      <!-- 0.4 -->
      <g style="fill:#262626;" transform="translate(74.21 214.901991)scale(0.11 -0.11)">
       <use xlink:href="#ArialMT-48"/>
       <use x="55.615234" xlink:href="#ArialMT-46"/>
       <use x="83.398438" xlink:href="#ArialMT-52"/>
      </g>
     </g>
    </g>
    <g id="ytick_4">
     <g id="line2d_4">
      <path clip-path="url(#p887053a72d)" d="M 99 139.839827 
L 712.8 139.839827 
" style="fill:none;stroke:#cccccc;stroke-linecap:round;"/>
     </g>
     <g id="text_9">
      <!-- 0.6 -->
      <g style="fill:#262626;" transform="translate(74.21 143.776623)scale(0.11 -0.11)">
       <use xlink:href="#ArialMT-48"/>
       <use x="55.615234" xlink:href="#ArialMT-46"/>
       <use x="83.398438" xlink:href="#ArialMT-54"/>
      </g>
     </g>
    </g>
    <g id="ytick_5">
     <g id="line2d_5">
      <path clip-path="url(#p887053a72d)" d="M 99 68.71446 
L 712.8 68.71446 
" style="fill:none;stroke:#cccccc;stroke-linecap:round;"/>
     </g>
     <g id="text_10">
      <!-- 0.8 -->
      <g style="fill:#262626;" transform="translate(74.21 72.651256)scale(0.11 -0.11)">
       <use xlink:href="#ArialMT-48"/>
       <use x="55.615234" xlink:href="#ArialMT-46"/>
       <use x="83.398438" xlink:href="#ArialMT-56"/>
      </g>
     </g>
    </g>
    <g id="text_11">
     <!-- per_white -->
     <g style="fill:#262626;" transform="translate(67.825 240.93375)rotate(-90)scale(0.12 -0.12)">
      <defs>
       <path d="M 6.59375 -19.875 
L 6.59375 51.859375 
L 14.59375 51.859375 
L 14.59375 45.125 
Q 17.4375 49.078125 21 51.046875 
Q 24.5625 53.03125 29.640625 53.03125 
Q 36.28125 53.03125 41.359375 49.609375 
Q 46.4375 46.1875 49.015625 39.953125 
Q 51.609375 33.734375 51.609375 26.3125 
Q 51.609375 18.359375 48.75 11.984375 
Q 45.90625 5.609375 40.453125 2.21875 
Q 35.015625 -1.171875 29 -1.171875 
Q 24.609375 -1.171875 21.109375 0.6875 
Q 17.625 2.546875 15.375 5.375 
L 15.375 -19.875 
z
M 14.546875 25.640625 
Q 14.546875 15.625 18.59375 10.84375 
Q 22.65625 6.0625 28.421875 6.0625 
Q 34.28125 6.0625 38.453125 11.015625 
Q 42.625 15.96875 42.625 26.375 
Q 42.625 36.28125 38.546875 41.203125 
Q 34.46875 46.140625 28.8125 46.140625 
Q 23.1875 46.140625 18.859375 40.890625 
Q 14.546875 35.640625 14.546875 25.640625 
z
" id="ArialMT-112"/>
       <path d="M -1.515625 -19.875 
L -1.515625 -13.53125 
L 56.734375 -13.53125 
L 56.734375 -19.875 
z
" id="ArialMT-95"/>
       <path d="M 16.15625 0 
L 0.296875 51.859375 
L 9.375 51.859375 
L 17.625 21.921875 
L 20.703125 10.796875 
Q 20.90625 11.625 23.390625 21.484375 
L 31.640625 51.859375 
L 40.671875 51.859375 
L 48.4375 21.78125 
L 51.03125 11.859375 
L 54 21.875 
L 62.890625 51.859375 
L 71.4375 51.859375 
L 55.21875 0 
L 46.09375 0 
L 37.84375 31.0625 
L 35.84375 39.890625 
L 25.34375 0 
z
" id="ArialMT-119"/>
       <path d="M 6.59375 0 
L 6.59375 71.578125 
L 15.375 71.578125 
L 15.375 45.90625 
Q 21.53125 53.03125 30.90625 53.03125 
Q 36.671875 53.03125 40.921875 50.75 
Q 45.171875 48.484375 47 44.484375 
Q 48.828125 40.484375 48.828125 32.859375 
L 48.828125 0 
L 40.046875 0 
L 40.046875 32.859375 
Q 40.046875 39.453125 37.1875 42.453125 
Q 34.328125 45.453125 29.109375 45.453125 
Q 25.203125 45.453125 21.75 43.421875 
Q 18.3125 41.40625 16.84375 37.9375 
Q 15.375 34.46875 15.375 28.375 
L 15.375 0 
z
" id="ArialMT-104"/>
       <path d="M 6.640625 61.46875 
L 6.640625 71.578125 
L 15.4375 71.578125 
L 15.4375 61.46875 
z
M 6.640625 0 
L 6.640625 51.859375 
L 15.4375 51.859375 
L 15.4375 0 
z
" id="ArialMT-105"/>
       <path d="M 25.78125 7.859375 
L 27.046875 0.09375 
Q 23.34375 -0.6875 20.40625 -0.6875 
Q 15.625 -0.6875 12.984375 0.828125 
Q 10.359375 2.34375 9.28125 4.8125 
Q 8.203125 7.28125 8.203125 15.1875 
L 8.203125 45.015625 
L 1.765625 45.015625 
L 1.765625 51.859375 
L 8.203125 51.859375 
L 8.203125 64.703125 
L 16.9375 69.96875 
L 16.9375 51.859375 
L 25.78125 51.859375 
L 25.78125 45.015625 
L 16.9375 45.015625 
L 16.9375 14.703125 
Q 16.9375 10.9375 17.40625 9.859375 
Q 17.875 8.796875 18.921875 8.15625 
Q 19.96875 7.515625 21.921875 7.515625 
Q 23.390625 7.515625 25.78125 7.859375 
z
" id="ArialMT-116"/>
      </defs>
      <use xlink:href="#ArialMT-112"/>
      <use x="55.615234" xlink:href="#ArialMT-101"/>
      <use x="111.230469" xlink:href="#ArialMT-114"/>
      <use x="144.53125" xlink:href="#ArialMT-95"/>
      <use x="200.146484" xlink:href="#ArialMT-119"/>
      <use x="272.363281" xlink:href="#ArialMT-104"/>
      <use x="327.978516" xlink:href="#ArialMT-105"/>
      <use x="350.195312" xlink:href="#ArialMT-116"/>
      <use x="377.978516" xlink:href="#ArialMT-101"/>
     </g>
    </g>
   </g>
   <g id="PolyCollection_1">
    <defs>
     <path d="M 175.725 -71.985388 
L 159.365017 -71.985388 
L 152.467472 -74.916592 
L 144.479815 -77.847797 
L 136.009518 -80.779001 
L 127.897416 -83.710205 
L 121.074337 -86.64141 
L 116.372012 -89.572614 
L 114.345 -92.503818 
L 115.159335 -95.435022 
L 118.579494 -98.366227 
L 124.04955 -101.297431 
L 130.83405 -104.228635 
L 138.171168 -107.159839 
L 145.397184 -110.091044 
L 152.020083 -113.022248 
L 157.74071 -115.953452 
L 162.434394 -118.884657 
L 166.111262 -121.815861 
L 168.871096 -124.747065 
L 170.862511 -127.678269 
L 172.250299 -130.609474 
L 173.191406 -133.540678 
L 173.819147 -136.471882 
L 174.235501 -139.403087 
L 174.511117 -142.334291 
L 174.691407 -145.265495 
L 174.805622 -148.196699 
L 174.875177 -151.127904 
L 174.918372 -154.059108 
L 174.950648 -156.990312 
L 174.981627 -159.921517 
L 175.01143 -162.852721 
L 175.028756 -165.783925 
L 175.012234 -168.715129 
L 174.935209 -171.646334 
L 174.773039 -174.577538 
L 174.511218 -177.508742 
L 174.152323 -180.439946 
L 173.719769 -183.371151 
L 173.256702 -186.302355 
L 172.81935 -189.233559 
L 172.46564 -192.164764 
L 172.241609 -195.095968 
L 172.169461 -198.027172 
L 172.241269 -200.958376 
L 172.421 -203.889581 
L 172.654887 -206.820785 
L 172.887228 -209.751989 
L 173.076501 -212.683194 
L 173.206366 -215.614398 
L 173.287885 -218.545602 
L 173.352516 -221.476806 
L 173.438759 -224.408011 
L 173.577595 -227.339215 
L 173.781954 -230.270419 
L 174.043603 -233.201624 
L 174.33769 -236.132828 
L 174.632248 -239.064032 
L 174.89846 -241.995236 
L 175.117898 -244.926441 
L 175.284864 -247.857645 
L 175.404246 -250.788849 
L 175.486866 -253.720054 
L 175.544653 -256.651258 
L 175.587311 -259.582462 
L 175.621008 -262.513666 
L 175.64873 -265.444871 
L 175.671449 -268.376075 
L 175.689342 -271.307279 
L 175.702591 -274.238483 
L 175.711683 -277.169688 
L 175.717325 -280.100892 
L 175.720169 -283.032096 
L 175.720465 -285.963301 
L 175.717666 -288.894505 
L 175.709914 -291.825709 
L 175.69338 -294.756913 
L 175.661504 -297.688118 
L 175.604397 -300.619322 
L 175.508899 -303.550526 
L 175.35995 -306.481731 
L 175.143759 -309.412935 
L 174.852692 -312.344139 
L 174.490786 -315.275343 
L 174.077841 -318.206548 
L 173.649717 -321.137752 
L 173.253382 -324.068956 
L 172.937278 -327.000161 
L 172.739916 -329.931365 
L 172.680804 -332.862569 
L 172.757125 -335.793773 
L 172.947077 -338.724978 
L 173.217925 -341.656182 
L 173.535068 -344.587386 
L 173.868755 -347.51859 
L 174.196894 -350.449795 
L 174.504556 -353.380999 
L 174.781978 -356.312203 
L 175.022806 -359.243408 
L 175.223352 -362.174612 
L 175.725 -362.174612 
L 175.725 -362.174612 
L 175.725 -359.243408 
L 175.725 -356.312203 
L 175.725 -353.380999 
L 175.725 -350.449795 
L 175.725 -347.51859 
L 175.725 -344.587386 
L 175.725 -341.656182 
L 175.725 -338.724978 
L 175.725 -335.793773 
L 175.725 -332.862569 
L 175.725 -329.931365 
L 175.725 -327.000161 
L 175.725 -324.068956 
L 175.725 -321.137752 
L 175.725 -318.206548 
L 175.725 -315.275343 
L 175.725 -312.344139 
L 175.725 -309.412935 
L 175.725 -306.481731 
L 175.725 -303.550526 
L 175.725 -300.619322 
L 175.725 -297.688118 
L 175.725 -294.756913 
L 175.725 -291.825709 
L 175.725 -288.894505 
L 175.725 -285.963301 
L 175.725 -283.032096 
L 175.725 -280.100892 
L 175.725 -277.169688 
L 175.725 -274.238483 
L 175.725 -271.307279 
L 175.725 -268.376075 
L 175.725 -265.444871 
L 175.725 -262.513666 
L 175.725 -259.582462 
L 175.725 -256.651258 
L 175.725 -253.720054 
L 175.725 -250.788849 
L 175.725 -247.857645 
L 175.725 -244.926441 
L 175.725 -241.995236 
L 175.725 -239.064032 
L 175.725 -236.132828 
L 175.725 -233.201624 
L 175.725 -230.270419 
L 175.725 -227.339215 
L 175.725 -224.408011 
L 175.725 -221.476806 
L 175.725 -218.545602 
L 175.725 -215.614398 
L 175.725 -212.683194 
L 175.725 -209.751989 
L 175.725 -206.820785 
L 175.725 -203.889581 
L 175.725 -200.958376 
L 175.725 -198.027172 
L 175.725 -195.095968 
L 175.725 -192.164764 
L 175.725 -189.233559 
L 175.725 -186.302355 
L 175.725 -183.371151 
L 175.725 -180.439946 
L 175.725 -177.508742 
L 175.725 -174.577538 
L 175.725 -171.646334 
L 175.725 -168.715129 
L 175.725 -165.783925 
L 175.725 -162.852721 
L 175.725 -159.921517 
L 175.725 -156.990312 
L 175.725 -154.059108 
L 175.725 -151.127904 
L 175.725 -148.196699 
L 175.725 -145.265495 
L 175.725 -142.334291 
L 175.725 -139.403087 
L 175.725 -136.471882 
L 175.725 -133.540678 
L 175.725 -130.609474 
L 175.725 -127.678269 
L 175.725 -124.747065 
L 175.725 -121.815861 
L 175.725 -118.884657 
L 175.725 -115.953452 
L 175.725 -113.022248 
L 175.725 -110.091044 
L 175.725 -107.159839 
L 175.725 -104.228635 
L 175.725 -101.297431 
L 175.725 -98.366227 
L 175.725 -95.435022 
L 175.725 -92.503818 
L 175.725 -89.572614 
L 175.725 -86.64141 
L 175.725 -83.710205 
L 175.725 -80.779001 
L 175.725 -77.847797 
L 175.725 -74.916592 
L 175.725 -71.985388 
z
" id="m6dfad0cbe9" style="stroke:#363636;"/>
    </defs>
    <g clip-path="url(#p887053a72d)">
     <use style="fill:#176d9c;stroke:#363636;" x="0" xlink:href="#m6dfad0cbe9" y="432"/>
    </g>
   </g>
   <g id="PolyCollection_2">
    <defs>
     <path d="M 188.170954 -70.12779 
L 175.725 -70.12779 
L 175.725 -72.959865 
L 175.725 -75.791941 
L 175.725 -78.624017 
L 175.725 -81.456093 
L 175.725 -84.288169 
L 175.725 -87.120244 
L 175.725 -89.95232 
L 175.725 -92.784396 
L 175.725 -95.616472 
L 175.725 -98.448547 
L 175.725 -101.280623 
L 175.725 -104.112699 
L 175.725 -106.944775 
L 175.725 -109.776851 
L 175.725 -112.608926 
L 175.725 -115.441002 
L 175.725 -118.273078 
L 175.725 -121.105154 
L 175.725 -123.937229 
L 175.725 -126.769305 
L 175.725 -129.601381 
L 175.725 -132.433457 
L 175.725 -135.265533 
L 175.725 -138.097608 
L 175.725 -140.929684 
L 175.725 -143.76176 
L 175.725 -146.593836 
L 175.725 -149.425911 
L 175.725 -152.257987 
L 175.725 -155.090063 
L 175.725 -157.922139 
L 175.725 -160.754215 
L 175.725 -163.58629 
L 175.725 -166.418366 
L 175.725 -169.250442 
L 175.725 -172.082518 
L 175.725 -174.914593 
L 175.725 -177.746669 
L 175.725 -180.578745 
L 175.725 -183.410821 
L 175.725 -186.242896 
L 175.725 -189.074972 
L 175.725 -191.907048 
L 175.725 -194.739124 
L 175.725 -197.5712 
L 175.725 -200.403275 
L 175.725 -203.235351 
L 175.725 -206.067427 
L 175.725 -208.899503 
L 175.725 -211.731578 
L 175.725 -214.563654 
L 175.725 -217.39573 
L 175.725 -220.227806 
L 175.725 -223.059882 
L 175.725 -225.891957 
L 175.725 -228.724033 
L 175.725 -231.556109 
L 175.725 -234.388185 
L 175.725 -237.22026 
L 175.725 -240.052336 
L 175.725 -242.884412 
L 175.725 -245.716488 
L 175.725 -248.548564 
L 175.725 -251.380639 
L 175.725 -254.212715 
L 175.725 -257.044791 
L 175.725 -259.876867 
L 175.725 -262.708942 
L 175.725 -265.541018 
L 175.725 -268.373094 
L 175.725 -271.20517 
L 175.725 -274.037246 
L 175.725 -276.869321 
L 175.725 -279.701397 
L 175.725 -282.533473 
L 175.725 -285.365549 
L 175.725 -288.197624 
L 175.725 -291.0297 
L 175.725 -293.861776 
L 175.725 -296.693852 
L 175.725 -299.525928 
L 175.725 -302.358003 
L 175.725 -305.190079 
L 175.725 -308.022155 
L 175.725 -310.854231 
L 175.725 -313.686306 
L 175.725 -316.518382 
L 175.725 -319.350458 
L 175.725 -322.182534 
L 175.725 -325.014609 
L 175.725 -327.846685 
L 175.725 -330.678761 
L 175.725 -333.510837 
L 175.725 -336.342913 
L 175.725 -339.174988 
L 175.725 -342.007064 
L 175.725 -344.83914 
L 175.725 -347.671216 
L 175.725 -350.503291 
L 176.15857 -350.503291 
L 176.15857 -350.503291 
L 176.311742 -347.671216 
L 176.485141 -344.83914 
L 176.667827 -342.007064 
L 176.844699 -339.174988 
L 176.998358 -336.342913 
L 177.111868 -333.510837 
L 177.171837 -330.678761 
L 177.171031 -327.846685 
L 177.109823 -325.014609 
L 176.996084 -322.182534 
L 176.843568 -319.350458 
L 176.669276 -316.518382 
L 176.490545 -313.686306 
L 176.322577 -310.854231 
L 176.176949 -308.022155 
L 176.061241 -305.190079 
L 175.979619 -302.358003 
L 175.933971 -299.525928 
L 175.925085 -296.693852 
L 175.953454 -293.861776 
L 176.019448 -291.0297 
L 176.122834 -288.197624 
L 176.261913 -285.365549 
L 176.432712 -282.533473 
L 176.628828 -279.701397 
L 176.842412 -276.869321 
L 177.066519 -274.037246 
L 177.298559 -271.20517 
L 177.544064 -268.373094 
L 177.819593 -265.541018 
L 178.153459 -262.708942 
L 178.583315 -259.876867 
L 179.150259 -257.044791 
L 179.890108 -254.212715 
L 180.823315 -251.380639 
L 181.945705 -248.548564 
L 183.222378 -245.716488 
L 184.586793 -242.884412 
L 185.946141 -240.052336 
L 187.192803 -237.22026 
L 188.220155 -234.388185 
L 188.939688 -231.556109 
L 189.295717 -228.724033 
L 189.274245 -225.891957 
L 188.903857 -223.059882 
L 188.24851 -220.227806 
L 187.394184 -217.39573 
L 186.43279 -214.563654 
L 185.447169 -211.731578 
L 184.500265 -208.899503 
L 183.630151 -206.067427 
L 182.850904 -203.235351 
L 182.158039 -200.403275 
L 181.536471 -197.5712 
L 180.968818 -194.739124 
L 180.442242 -191.907048 
L 179.952567 -189.074972 
L 179.505155 -186.242896 
L 179.112688 -183.410821 
L 178.790651 -180.578745 
L 178.55177 -177.746669 
L 178.400859 -174.914593 
L 178.331492 -172.082518 
L 178.325444 -169.250442 
L 178.355201 -166.418366 
L 178.389029 -163.58629 
L 178.397393 -160.754215 
L 178.359186 -157.922139 
L 178.266297 -155.090063 
L 178.125588 -152.257987 
L 177.958176 -149.425911 
L 177.796653 -146.593836 
L 177.681442 -143.76176 
L 177.65752 -140.929684 
L 177.772457 -138.097608 
L 178.076108 -135.265533 
L 178.621671 -132.433457 
L 179.467203 -129.601381 
L 180.676278 -126.769305 
L 182.31614 -123.937229 
L 184.451688 -121.105154 
L 187.134052 -118.273078 
L 190.383602 -115.441002 
L 194.169137 -112.608926 
L 198.387324 -109.776851 
L 202.848575 -106.944775 
L 207.276325 -104.112699 
L 211.325193 -101.280623 
L 214.619504 -98.448547 
L 216.807776 -95.616472 
L 217.622889 -92.784396 
L 216.933982 -89.95232 
L 214.776378 -87.120244 
L 211.35068 -84.288169 
L 206.990134 -81.456093 
L 202.103952 -78.624017 
L 197.110482 -75.791941 
L 192.375885 -72.959865 
L 188.170954 -70.12779 
z
" id="medbcf4de04" style="stroke:#363636;"/>
    </defs>
    <g clip-path="url(#p887053a72d)">
     <use style="fill:#c38820;stroke:#363636;" x="0" xlink:href="#medbcf4de04" y="432"/>
    </g>
   </g>
   <g id="PolyCollection_3">
    <defs>
     <path d="M 329.175 -73.155151 
L 314.976156 -73.155151 
L 308.01349 -76.062724 
L 299.67046 -78.970297 
L 290.620885 -81.877869 
L 281.863037 -84.785442 
L 274.529348 -87.693015 
L 269.626512 -90.600587 
L 267.795 -93.50816 
L 269.171264 -96.415733 
L 273.391697 -99.323306 
L 279.720621 -102.230878 
L 287.244701 -105.138451 
L 295.067229 -108.046024 
L 302.45268 -110.953596 
L 308.900228 -113.861169 
L 314.151305 -116.768742 
L 318.153056 -119.676314 
L 321.003403 -122.583887 
L 322.896053 -125.49146 
L 324.071693 -128.399033 
L 324.773867 -131.306605 
L 325.209297 -134.214178 
L 325.519078 -137.121751 
L 325.770626 -140.029323 
L 325.974609 -142.936896 
L 326.119103 -145.844469 
L 326.20373 -148.752041 
L 326.256971 -151.659614 
L 326.330275 -154.567187 
L 326.475869 -157.47476 
L 326.722863 -160.382332 
L 327.064752 -163.289905 
L 327.4631 -166.197478 
L 327.863184 -169.10505 
L 328.212734 -172.012623 
L 328.475848 -174.920196 
L 328.638575 -177.827769 
L 328.707162 -180.735341 
L 328.702188 -183.642914 
L 328.651677 -186.550487 
L 328.584911 -189.458059 
L 328.527439 -192.365632 
L 328.497311 -195.273205 
L 328.50263 -198.180777 
L 328.540706 -201.08835 
L 328.59915 -203.995923 
L 328.659078 -206.903496 
L 328.700148 -209.811068 
L 328.706578 -212.718641 
L 328.67258 -215.626214 
L 328.605317 -218.533786 
L 328.523795 -221.441359 
L 328.453341 -224.348932 
L 328.417216 -227.256504 
L 328.428545 -230.164077 
L 328.486033 -233.07165 
L 328.575392 -235.979223 
L 328.6757 -238.886795 
L 328.767586 -241.794368 
L 328.839526 -244.701941 
L 328.889881 -247.609513 
L 328.924618 -250.517086 
L 328.952621 -253.424659 
L 328.981151 -256.332231 
L 329.013342 -259.239804 
L 329.048206 -262.147377 
L 329.08239 -265.05495 
L 329.112349 -267.962522 
L 329.135854 -270.870095 
L 329.15244 -273.777668 
L 329.163015 -276.68524 
L 329.169121 -279.592813 
L 329.172289 -282.500386 
L 329.173655 -285.407959 
L 329.173759 -288.315531 
L 329.172354 -291.223104 
L 329.167945 -294.130677 
L 329.156869 -297.038249 
L 329.131801 -299.945822 
L 329.080016 -302.853395 
L 328.982351 -305.760967 
L 328.814526 -308.66854 
L 328.552598 -311.576113 
L 328.183038 -314.483686 
L 327.715054 -317.391258 
L 327.189543 -320.298831 
L 326.677875 -323.206404 
L 326.266913 -326.113976 
L 326.033643 -329.021549 
L 326.019688 -331.929122 
L 326.217749 -334.836694 
L 326.576497 -337.744267 
L 327.020812 -340.65184 
L 327.476879 -343.559413 
L 327.890875 -346.466985 
L 328.23551 -349.374558 
L 328.505827 -352.282131 
L 328.709947 -355.189703 
L 328.860445 -358.097276 
L 328.969232 -361.004849 
L 329.175 -361.004849 
L 329.175 -361.004849 
L 329.175 -358.097276 
L 329.175 -355.189703 
L 329.175 -352.282131 
L 329.175 -349.374558 
L 329.175 -346.466985 
L 329.175 -343.559413 
L 329.175 -340.65184 
L 329.175 -337.744267 
L 329.175 -334.836694 
L 329.175 -331.929122 
L 329.175 -329.021549 
L 329.175 -326.113976 
L 329.175 -323.206404 
L 329.175 -320.298831 
L 329.175 -317.391258 
L 329.175 -314.483686 
L 329.175 -311.576113 
L 329.175 -308.66854 
L 329.175 -305.760967 
L 329.175 -302.853395 
L 329.175 -299.945822 
L 329.175 -297.038249 
L 329.175 -294.130677 
L 329.175 -291.223104 
L 329.175 -288.315531 
L 329.175 -285.407959 
L 329.175 -282.500386 
L 329.175 -279.592813 
L 329.175 -276.68524 
L 329.175 -273.777668 
L 329.175 -270.870095 
L 329.175 -267.962522 
L 329.175 -265.05495 
L 329.175 -262.147377 
L 329.175 -259.239804 
L 329.175 -256.332231 
L 329.175 -253.424659 
L 329.175 -250.517086 
L 329.175 -247.609513 
L 329.175 -244.701941 
L 329.175 -241.794368 
L 329.175 -238.886795 
L 329.175 -235.979223 
L 329.175 -233.07165 
L 329.175 -230.164077 
L 329.175 -227.256504 
L 329.175 -224.348932 
L 329.175 -221.441359 
L 329.175 -218.533786 
L 329.175 -215.626214 
L 329.175 -212.718641 
L 329.175 -209.811068 
L 329.175 -206.903496 
L 329.175 -203.995923 
L 329.175 -201.08835 
L 329.175 -198.180777 
L 329.175 -195.273205 
L 329.175 -192.365632 
L 329.175 -189.458059 
L 329.175 -186.550487 
L 329.175 -183.642914 
L 329.175 -180.735341 
L 329.175 -177.827769 
L 329.175 -174.920196 
L 329.175 -172.012623 
L 329.175 -169.10505 
L 329.175 -166.197478 
L 329.175 -163.289905 
L 329.175 -160.382332 
L 329.175 -157.47476 
L 329.175 -154.567187 
L 329.175 -151.659614 
L 329.175 -148.752041 
L 329.175 -145.844469 
L 329.175 -142.936896 
L 329.175 -140.029323 
L 329.175 -137.121751 
L 329.175 -134.214178 
L 329.175 -131.306605 
L 329.175 -128.399033 
L 329.175 -125.49146 
L 329.175 -122.583887 
L 329.175 -119.676314 
L 329.175 -116.768742 
L 329.175 -113.861169 
L 329.175 -110.953596 
L 329.175 -108.046024 
L 329.175 -105.138451 
L 329.175 -102.230878 
L 329.175 -99.323306 
L 329.175 -96.415733 
L 329.175 -93.50816 
L 329.175 -90.600587 
L 329.175 -87.693015 
L 329.175 -84.785442 
L 329.175 -81.877869 
L 329.175 -78.970297 
L 329.175 -76.062724 
L 329.175 -73.155151 
z
" id="mb04217f72e" style="stroke:#363636;"/>
    </defs>
    <g clip-path="url(#p887053a72d)">
     <use style="fill:#176d9c;stroke:#363636;" x="0" xlink:href="#mb04217f72e" y="432"/>
    </g>
   </g>
   <g id="PolyCollection_4">
    <defs>
     <path d="M 344.556275 -72.971084 
L 329.175 -72.971084 
L 329.175 -75.745719 
L 329.175 -78.520355 
L 329.175 -81.29499 
L 329.175 -84.069625 
L 329.175 -86.844261 
L 329.175 -89.618896 
L 329.175 -92.393532 
L 329.175 -95.168167 
L 329.175 -97.942803 
L 329.175 -100.717438 
L 329.175 -103.492074 
L 329.175 -106.266709 
L 329.175 -109.041345 
L 329.175 -111.81598 
L 329.175 -114.590616 
L 329.175 -117.365251 
L 329.175 -120.139887 
L 329.175 -122.914522 
L 329.175 -125.689158 
L 329.175 -128.463793 
L 329.175 -131.238429 
L 329.175 -134.013064 
L 329.175 -136.7877 
L 329.175 -139.562335 
L 329.175 -142.336971 
L 329.175 -145.111606 
L 329.175 -147.886242 
L 329.175 -150.660877 
L 329.175 -153.435513 
L 329.175 -156.210148 
L 329.175 -158.984784 
L 329.175 -161.759419 
L 329.175 -164.534055 
L 329.175 -167.30869 
L 329.175 -170.083326 
L 329.175 -172.857961 
L 329.175 -175.632597 
L 329.175 -178.407232 
L 329.175 -181.181868 
L 329.175 -183.956503 
L 329.175 -186.731139 
L 329.175 -189.505774 
L 329.175 -192.28041 
L 329.175 -195.055045 
L 329.175 -197.829681 
L 329.175 -200.604316 
L 329.175 -203.378952 
L 329.175 -206.153587 
L 329.175 -208.928223 
L 329.175 -211.702858 
L 329.175 -214.477494 
L 329.175 -217.252129 
L 329.175 -220.026765 
L 329.175 -222.8014 
L 329.175 -225.576036 
L 329.175 -228.350671 
L 329.175 -231.125307 
L 329.175 -233.899942 
L 329.175 -236.674578 
L 329.175 -239.449213 
L 329.175 -242.223849 
L 329.175 -244.998484 
L 329.175 -247.77312 
L 329.175 -250.547755 
L 329.175 -253.322391 
L 329.175 -256.097026 
L 329.175 -258.871662 
L 329.175 -261.646297 
L 329.175 -264.420933 
L 329.175 -267.195568 
L 329.175 -269.970204 
L 329.175 -272.744839 
L 329.175 -275.519475 
L 329.175 -278.29411 
L 329.175 -281.068746 
L 329.175 -283.843381 
L 329.175 -286.618017 
L 329.175 -289.392652 
L 329.175 -292.167288 
L 329.175 -294.941923 
L 329.175 -297.716559 
L 329.175 -300.491194 
L 329.175 -303.26583 
L 329.175 -306.040465 
L 329.175 -308.815101 
L 329.175 -311.589736 
L 329.175 -314.364372 
L 329.175 -317.139007 
L 329.175 -319.913643 
L 329.175 -322.688278 
L 329.175 -325.462914 
L 329.175 -328.237549 
L 329.175 -331.012185 
L 329.175 -333.78682 
L 329.175 -336.561456 
L 329.175 -339.336091 
L 329.175 -342.110727 
L 329.175 -344.885362 
L 329.175 -347.659998 
L 329.411637 -347.659998 
L 329.411637 -347.659998 
L 329.513304 -344.885362 
L 329.627958 -342.110727 
L 329.742819 -339.336091 
L 329.841222 -336.561456 
L 329.906362 -333.78682 
L 329.925916 -331.012185 
L 329.895835 -328.237549 
L 329.821711 -325.462914 
L 329.717082 -322.688278 
L 329.599394 -319.913643 
L 329.485273 -317.139007 
L 329.386895 -314.364372 
L 329.310486 -311.589736 
L 329.256978 -308.815101 
L 329.224047 -306.040465 
L 329.2085 -303.26583 
L 329.208266 -300.491194 
L 329.223553 -297.716559 
L 329.257107 -294.941923 
L 329.313588 -292.167288 
L 329.398206 -289.392652 
L 329.514855 -286.618017 
L 329.664122 -283.843381 
L 329.841655 -281.068746 
L 330.037297 -278.29411 
L 330.235259 -275.519475 
L 330.415535 -272.744839 
L 330.556805 -269.970204 
L 330.640956 -267.195568 
L 330.658976 -264.420933 
L 330.617084 -261.646297 
L 330.541241 -258.871662 
L 330.477942 -256.097026 
L 330.48975 -253.322391 
L 330.645102 -250.547755 
L 331.003081 -247.77312 
L 331.595184 -244.998484 
L 332.407957 -242.223849 
L 333.372346 -239.449213 
L 334.366403 -236.674578 
L 335.235627 -233.899942 
L 335.829143 -231.125307 
L 336.042028 -228.350671 
L 335.848783 -225.576036 
L 335.314027 -222.8014 
L 334.574619 -220.026765 
L 333.798938 -217.252129 
L 333.138184 -214.477494 
L 332.686883 -211.702858 
L 332.464988 -208.928223 
L 332.424823 -206.153587 
L 332.477209 -203.378952 
L 332.52546 -200.604316 
L 332.495091 -197.829681 
L 332.350493 -195.055045 
L 332.095789 -192.28041 
L 331.763152 -189.505774 
L 331.395661 -186.731139 
L 331.032108 -183.956503 
L 330.698472 -181.181868 
L 330.406793 -178.407232 
L 330.159001 -175.632597 
L 329.952114 -172.857961 
L 329.782083 -170.083326 
L 329.645434 -167.30869 
L 329.539412 -164.534055 
L 329.46182 -161.759419 
L 329.411243 -158.984784 
L 329.387514 -156.210148 
L 329.391847 -153.435513 
L 329.426271 -150.660877 
L 329.492729 -147.886242 
L 329.592938 -145.111606 
L 329.730265 -142.336971 
L 329.914271 -139.562335 
L 330.167333 -136.7877 
L 330.531422 -134.013064 
L 331.072732 -131.238429 
L 331.882658 -128.463793 
L 333.075287 -125.689158 
L 334.782687 -122.914522 
L 337.148472 -120.139887 
L 340.317383 -117.365251 
L 344.415661 -114.590616 
L 349.516559 -111.81598 
L 355.589782 -109.041345 
L 362.442769 -106.266709 
L 369.672889 -103.492074 
L 376.657406 -100.717438 
L 382.606395 -97.942803 
L 386.688114 -95.168167 
L 388.208367 -92.393532 
L 386.795066 -89.618896 
L 382.523102 -86.844261 
L 375.926077 -84.069625 
L 367.8807 -81.29499 
L 359.399775 -78.520355 
L 351.405317 -75.745719 
L 344.556275 -72.971084 
z
" id="mf450fbc006" style="stroke:#363636;"/>
    </defs>
    <g clip-path="url(#p887053a72d)">
     <use style="fill:#c38820;stroke:#363636;" x="0" xlink:href="#mf450fbc006" y="432"/>
    </g>
   </g>
   <g id="PolyCollection_5">
    <defs>
     <path d="M 482.625 -71.348907 
L 466.323417 -71.348907 
L 459.769622 -74.292969 
L 452.1855 -77.237032 
L 444.080008 -80.181094 
L 436.171906 -83.125157 
L 429.283952 -86.069219 
L 424.193533 -89.013282 
L 421.479075 -91.957344 
L 421.406292 -94.901407 
L 423.886428 -97.845469 
L 428.514914 -100.789532 
L 434.673445 -103.733594 
L 441.661558 -106.677657 
L 448.820539 -109.621719 
L 455.621907 -112.565782 
L 461.708797 -115.509844 
L 466.894239 -118.453907 
L 471.130481 -121.397969 
L 474.466252 -124.342032 
L 477.00569 -127.286094 
L 478.876504 -130.230157 
L 480.209089 -133.174219 
L 481.124616 -136.118282 
L 481.728991 -139.062344 
L 482.110146 -142.006407 
L 482.337288 -144.950469 
L 482.461547 -147.894532 
L 482.517791 -150.838594 
L 482.527358 -153.782657 
L 482.501347 -156.726719 
L 482.444106 -159.670781 
L 482.356568 -162.614844 
L 482.239093 -165.558906 
L 482.093502 -168.502969 
L 481.923998 -171.447031 
L 481.736946 -174.391094 
L 481.539806 -177.335156 
L 481.339868 -180.279219 
L 481.143513 -183.223281 
L 480.956444 -186.167344 
L 480.784721 -189.111406 
L 480.63589 -192.055469 
L 480.519346 -194.999531 
L 480.445362 -197.943594 
L 480.422983 -200.887656 
L 480.457566 -203.831719 
L 480.548992 -206.775781 
L 480.691242 -209.719844 
L 480.873412 -212.663906 
L 481.081663 -215.607969 
L 481.30139 -218.552031 
L 481.519012 -221.496094 
L 481.723105 -224.440156 
L 481.90492 -227.384219 
L 482.05846 -230.328281 
L 482.180323 -233.272344 
L 482.269392 -236.216406 
L 482.326388 -239.160469 
L 482.353235 -242.104531 
L 482.352254 -245.048594 
L 482.325386 -247.992656 
L 482.273777 -250.936719 
L 482.198148 -253.880781 
L 482.100113 -256.824844 
L 481.984133 -259.768906 
L 481.85927 -262.712969 
L 481.739619 -265.657031 
L 481.642664 -268.601094 
L 481.585603 -271.545156 
L 481.58076 -274.489219 
L 481.63181 -277.433281 
L 481.732352 -280.377343 
L 481.867411 -283.321406 
L 482.017185 -286.265468 
L 482.161447 -289.209531 
L 482.282898 -292.153593 
L 482.368408 -295.097656 
L 482.408156 -298.041718 
L 482.393581 -300.985781 
L 482.315588 -303.929843 
L 482.164317 -306.873906 
L 481.931196 -309.817968 
L 481.613057 -312.762031 
L 481.217039 -315.706093 
L 480.764305 -318.650156 
L 480.29054 -321.594218 
L 479.842084 -324.538281 
L 479.468136 -327.482343 
L 479.211094 -330.426406 
L 479.09805 -333.370468 
L 479.136094 -336.314531 
L 479.312621 -339.258593 
L 479.599977 -342.202656 
L 479.962415 -345.146718 
L 480.362999 -348.090781 
L 480.768796 -351.034843 
L 481.153745 -353.978906 
L 481.499558 -356.922968 
L 481.795382 -359.867031 
L 482.036858 -362.811093 
L 482.625 -362.811093 
L 482.625 -362.811093 
L 482.625 -359.867031 
L 482.625 -356.922968 
L 482.625 -353.978906 
L 482.625 -351.034843 
L 482.625 -348.090781 
L 482.625 -345.146718 
L 482.625 -342.202656 
L 482.625 -339.258593 
L 482.625 -336.314531 
L 482.625 -333.370468 
L 482.625 -330.426406 
L 482.625 -327.482343 
L 482.625 -324.538281 
L 482.625 -321.594218 
L 482.625 -318.650156 
L 482.625 -315.706093 
L 482.625 -312.762031 
L 482.625 -309.817968 
L 482.625 -306.873906 
L 482.625 -303.929843 
L 482.625 -300.985781 
L 482.625 -298.041718 
L 482.625 -295.097656 
L 482.625 -292.153593 
L 482.625 -289.209531 
L 482.625 -286.265468 
L 482.625 -283.321406 
L 482.625 -280.377343 
L 482.625 -277.433281 
L 482.625 -274.489219 
L 482.625 -271.545156 
L 482.625 -268.601094 
L 482.625 -265.657031 
L 482.625 -262.712969 
L 482.625 -259.768906 
L 482.625 -256.824844 
L 482.625 -253.880781 
L 482.625 -250.936719 
L 482.625 -247.992656 
L 482.625 -245.048594 
L 482.625 -242.104531 
L 482.625 -239.160469 
L 482.625 -236.216406 
L 482.625 -233.272344 
L 482.625 -230.328281 
L 482.625 -227.384219 
L 482.625 -224.440156 
L 482.625 -221.496094 
L 482.625 -218.552031 
L 482.625 -215.607969 
L 482.625 -212.663906 
L 482.625 -209.719844 
L 482.625 -206.775781 
L 482.625 -203.831719 
L 482.625 -200.887656 
L 482.625 -197.943594 
L 482.625 -194.999531 
L 482.625 -192.055469 
L 482.625 -189.111406 
L 482.625 -186.167344 
L 482.625 -183.223281 
L 482.625 -180.279219 
L 482.625 -177.335156 
L 482.625 -174.391094 
L 482.625 -171.447031 
L 482.625 -168.502969 
L 482.625 -165.558906 
L 482.625 -162.614844 
L 482.625 -159.670781 
L 482.625 -156.726719 
L 482.625 -153.782657 
L 482.625 -150.838594 
L 482.625 -147.894532 
L 482.625 -144.950469 
L 482.625 -142.006407 
L 482.625 -139.062344 
L 482.625 -136.118282 
L 482.625 -133.174219 
L 482.625 -130.230157 
L 482.625 -127.286094 
L 482.625 -124.342032 
L 482.625 -121.397969 
L 482.625 -118.453907 
L 482.625 -115.509844 
L 482.625 -112.565782 
L 482.625 -109.621719 
L 482.625 -106.677657 
L 482.625 -103.733594 
L 482.625 -100.789532 
L 482.625 -97.845469 
L 482.625 -94.901407 
L 482.625 -91.957344 
L 482.625 -89.013282 
L 482.625 -86.069219 
L 482.625 -83.125157 
L 482.625 -80.181094 
L 482.625 -77.237032 
L 482.625 -74.292969 
L 482.625 -71.348907 
z
" id="m3e042e3e17" style="stroke:#363636;"/>
    </defs>
    <g clip-path="url(#p887053a72d)">
     <use style="fill:#176d9c;stroke:#363636;" x="0" xlink:href="#m3e042e3e17" y="432"/>
    </g>
   </g>
   <g id="PolyCollection_6">
    <defs>
     <path d="M 496.130928 -73.236949 
L 482.625 -73.236949 
L 482.625 -76.006213 
L 482.625 -78.775478 
L 482.625 -81.544742 
L 482.625 -84.314007 
L 482.625 -87.083271 
L 482.625 -89.852536 
L 482.625 -92.6218 
L 482.625 -95.391065 
L 482.625 -98.160329 
L 482.625 -100.929594 
L 482.625 -103.698858 
L 482.625 -106.468123 
L 482.625 -109.237387 
L 482.625 -112.006652 
L 482.625 -114.775916 
L 482.625 -117.54518 
L 482.625 -120.314445 
L 482.625 -123.083709 
L 482.625 -125.852974 
L 482.625 -128.622238 
L 482.625 -131.391503 
L 482.625 -134.160767 
L 482.625 -136.930032 
L 482.625 -139.699296 
L 482.625 -142.468561 
L 482.625 -145.237825 
L 482.625 -148.00709 
L 482.625 -150.776354 
L 482.625 -153.545619 
L 482.625 -156.314883 
L 482.625 -159.084148 
L 482.625 -161.853412 
L 482.625 -164.622677 
L 482.625 -167.391941 
L 482.625 -170.161206 
L 482.625 -172.93047 
L 482.625 -175.699735 
L 482.625 -178.468999 
L 482.625 -181.238264 
L 482.625 -184.007528 
L 482.625 -186.776792 
L 482.625 -189.546057 
L 482.625 -192.315321 
L 482.625 -195.084586 
L 482.625 -197.85385 
L 482.625 -200.623115 
L 482.625 -203.392379 
L 482.625 -206.161644 
L 482.625 -208.930908 
L 482.625 -211.700173 
L 482.625 -214.469437 
L 482.625 -217.238702 
L 482.625 -220.007966 
L 482.625 -222.777231 
L 482.625 -225.546495 
L 482.625 -228.31576 
L 482.625 -231.085024 
L 482.625 -233.854289 
L 482.625 -236.623553 
L 482.625 -239.392818 
L 482.625 -242.162082 
L 482.625 -244.931347 
L 482.625 -247.700611 
L 482.625 -250.469876 
L 482.625 -253.23914 
L 482.625 -256.008405 
L 482.625 -258.777669 
L 482.625 -261.546933 
L 482.625 -264.316198 
L 482.625 -267.085462 
L 482.625 -269.854727 
L 482.625 -272.623991 
L 482.625 -275.393256 
L 482.625 -278.16252 
L 482.625 -280.931785 
L 482.625 -283.701049 
L 482.625 -286.470314 
L 482.625 -289.239578 
L 482.625 -292.008843 
L 482.625 -294.778107 
L 482.625 -297.547372 
L 482.625 -300.316636 
L 482.625 -303.085901 
L 482.625 -305.855165 
L 482.625 -308.62443 
L 482.625 -311.393694 
L 482.625 -314.162959 
L 482.625 -316.932223 
L 482.625 -319.701488 
L 482.625 -322.470752 
L 482.625 -325.240017 
L 482.625 -328.009281 
L 482.625 -330.778546 
L 482.625 -333.54781 
L 482.625 -336.317074 
L 482.625 -339.086339 
L 482.625 -341.855603 
L 482.625 -344.624868 
L 482.625 -347.394132 
L 483.233704 -347.394132 
L 483.233704 -347.394132 
L 483.414307 -344.624868 
L 483.579393 -341.855603 
L 483.702629 -339.086339 
L 483.763089 -336.317074 
L 483.751202 -333.54781 
L 483.671127 -330.778546 
L 483.538792 -328.009281 
L 483.376752 -325.240017 
L 483.20813 -322.470752 
L 483.05177 -319.701488 
L 482.919712 -316.932223 
L 482.816993 -314.162959 
L 482.743087 -311.393694 
L 482.69407 -308.62443 
L 482.664823 -305.855165 
L 482.650802 -303.085901 
L 482.649174 -300.316636 
L 482.659266 -297.547372 
L 482.682264 -294.778107 
L 482.720171 -292.008843 
L 482.774113 -289.239578 
L 482.842379 -286.470314 
L 482.918973 -283.701049 
L 482.993543 -280.931785 
L 483.053255 -278.16252 
L 483.08628 -275.393256 
L 483.085652 -272.623991 
L 483.051853 -269.854727 
L 482.993026 -267.085462 
L 482.923009 -264.316198 
L 482.858623 -261.546933 
L 482.818051 -258.777669 
L 482.821498 -256.008405 
L 482.893724 -253.23914 
L 483.06635 -250.469876 
L 483.376768 -247.700611 
L 483.860825 -244.931347 
L 484.538817 -242.162082 
L 485.398404 -239.392818 
L 486.382144 -236.623553 
L 487.388623 -233.854289 
L 488.292226 -231.085024 
L 488.977957 -228.31576 
L 489.378648 -225.546495 
L 489.498179 -222.777231 
L 489.409272 -220.007966 
L 489.225772 -217.238702 
L 489.060925 -214.469437 
L 488.988721 -211.700173 
L 489.022922 -208.930908 
L 489.120135 -206.161644 
L 489.203408 -203.392379 
L 489.195254 -200.623115 
L 489.046208 -197.85385 
L 488.747994 -195.084586 
L 488.328023 -192.315321 
L 487.830761 -189.546057 
L 487.297037 -186.776792 
L 486.751778 -184.007528 
L 486.204533 -181.238264 
L 485.659479 -178.468999 
L 485.126864 -175.699735 
L 484.628382 -172.93047 
L 484.193652 -170.161206 
L 483.850554 -167.391941 
L 483.615257 -164.622677 
L 483.487283 -161.853412 
L 483.451705 -159.084148 
L 483.486799 -156.314883 
L 483.57298 -153.545619 
L 483.698678 -150.776354 
L 483.861023 -148.00709 
L 484.06265 -145.237825 
L 484.308852 -142.468561 
L 484.609576 -139.699296 
L 484.987833 -136.930032 
L 485.491366 -134.160767 
L 486.201367 -131.391503 
L 487.233036 -128.622238 
L 488.72737 -125.852974 
L 490.838063 -123.083709 
L 493.717527 -120.314445 
L 497.501197 -117.54518 
L 502.283475 -114.775916 
L 508.078134 -112.006652 
L 514.763979 -109.237387 
L 522.030091 -106.468123 
L 529.346466 -103.698858 
L 535.987556 -100.929594 
L 541.124517 -98.160329 
L 543.979092 -95.391065 
L 544.005 -92.6218 
L 541.042489 -89.852536 
L 535.389695 -87.083271 
L 527.756668 -84.314007 
L 519.108961 -81.544742 
L 510.449974 -78.775478 
L 502.613718 -76.006213 
L 496.130928 -73.236949 
z
" id="mb8e6c6c0aa" style="stroke:#363636;"/>
    </defs>
    <g clip-path="url(#p887053a72d)">
     <use style="fill:#c38820;stroke:#363636;" x="0" xlink:href="#mb8e6c6c0aa" y="432"/>
    </g>
   </g>
   <g id="PolyCollection_7">
    <defs>
     <path d="M 636.075 -68.825455 
L 621.171936 -68.825455 
L 616.38828 -71.820496 
L 611.029917 -74.815537 
L 605.377742 -77.810579 
L 599.808938 -80.80562 
L 594.756712 -83.800661 
L 590.652866 -86.795702 
L 587.86395 -89.790744 
L 586.634511 -92.785785 
L 587.050039 -95.780826 
L 589.027568 -98.775868 
L 592.335055 -101.770909 
L 596.63384 -104.76595 
L 601.53361 -107.760992 
L 606.647834 -110.756033 
L 611.639368 -113.751074 
L 616.249955 -116.746116 
L 620.311991 -119.741157 
L 623.744887 -122.736198 
L 626.540683 -125.73124 
L 628.744218 -128.726281 
L 630.432511 -131.721322 
L 631.69663 -134.716364 
L 632.627831 -137.711405 
L 633.308451 -140.706446 
L 633.807117 -143.701488 
L 634.177304 -146.696529 
L 634.458099 -149.69157 
L 634.67614 -152.686612 
L 634.847961 -155.681653 
L 634.982314 -158.676694 
L 635.082295 -161.671736 
L 635.147285 -164.666777 
L 635.1747 -167.661818 
L 635.161562 -170.65686 
L 635.105803 -173.651901 
L 635.007221 -176.646942 
L 634.868046 -179.641983 
L 634.693068 -182.637025 
L 634.48937 -185.632066 
L 634.265699 -188.627107 
L 634.031551 -191.622149 
L 633.796094 -194.61719 
L 633.567137 -197.612231 
L 633.350412 -200.607273 
L 633.149438 -203.602314 
L 632.966132 -206.597355 
L 632.802113 -209.592397 
L 632.660337 -212.587438 
L 632.546476 -215.582479 
L 632.469418 -218.577521 
L 632.440414 -221.572562 
L 632.470859 -224.567603 
L 632.569174 -227.562645 
L 632.737657 -230.557686 
L 632.970314 -233.552727 
L 633.252451 -236.547769 
L 633.562305 -239.54281 
L 633.874402 -242.537851 
L 634.163829 -245.532893 
L 634.410385 -248.527934 
L 634.601688 -251.522975 
L 634.734628 -254.518017 
L 634.815011 -257.513058 
L 634.855651 -260.508099 
L 634.873418 -263.50314 
L 634.885895 -266.498182 
L 634.908262 -269.493223 
L 634.950896 -272.488264 
L 635.018008 -275.483306 
L 635.107368 -278.478347 
L 635.21101 -281.473388 
L 635.316581 -284.46843 
L 635.408958 -287.463471 
L 635.471809 -290.458512 
L 635.488898 -293.453554 
L 635.445166 -296.448595 
L 635.327747 -299.443636 
L 635.127179 -302.438678 
L 634.838935 -305.433719 
L 634.465216 -308.42876 
L 634.016659 -311.423802 
L 633.513401 -314.418843 
L 632.984906 -317.413884 
L 632.468092 -320.408926 
L 632.003728 -323.403967 
L 631.6315 -326.399008 
L 631.384617 -329.39405 
L 631.285045 -332.389091 
L 631.340406 -335.384132 
L 631.543193 -338.379174 
L 631.872418 -341.374215 
L 632.297237 -344.369256 
L 632.7817 -347.364298 
L 633.289625 -350.359339 
L 633.788713 -353.35438 
L 634.253378 -356.349421 
L 634.666066 -359.344463 
L 635.01725 -362.339504 
L 635.304418 -365.334545 
L 636.075 -365.334545 
L 636.075 -365.334545 
L 636.075 -362.339504 
L 636.075 -359.344463 
L 636.075 -356.349421 
L 636.075 -353.35438 
L 636.075 -350.359339 
L 636.075 -347.364298 
L 636.075 -344.369256 
L 636.075 -341.374215 
L 636.075 -338.379174 
L 636.075 -335.384132 
L 636.075 -332.389091 
L 636.075 -329.39405 
L 636.075 -326.399008 
L 636.075 -323.403967 
L 636.075 -320.408926 
L 636.075 -317.413884 
L 636.075 -314.418843 
L 636.075 -311.423802 
L 636.075 -308.42876 
L 636.075 -305.433719 
L 636.075 -302.438678 
L 636.075 -299.443636 
L 636.075 -296.448595 
L 636.075 -293.453554 
L 636.075 -290.458512 
L 636.075 -287.463471 
L 636.075 -284.46843 
L 636.075 -281.473388 
L 636.075 -278.478347 
L 636.075 -275.483306 
L 636.075 -272.488264 
L 636.075 -269.493223 
L 636.075 -266.498182 
L 636.075 -263.50314 
L 636.075 -260.508099 
L 636.075 -257.513058 
L 636.075 -254.518017 
L 636.075 -251.522975 
L 636.075 -248.527934 
L 636.075 -245.532893 
L 636.075 -242.537851 
L 636.075 -239.54281 
L 636.075 -236.547769 
L 636.075 -233.552727 
L 636.075 -230.557686 
L 636.075 -227.562645 
L 636.075 -224.567603 
L 636.075 -221.572562 
L 636.075 -218.577521 
L 636.075 -215.582479 
L 636.075 -212.587438 
L 636.075 -209.592397 
L 636.075 -206.597355 
L 636.075 -203.602314 
L 636.075 -200.607273 
L 636.075 -197.612231 
L 636.075 -194.61719 
L 636.075 -191.622149 
L 636.075 -188.627107 
L 636.075 -185.632066 
L 636.075 -182.637025 
L 636.075 -179.641983 
L 636.075 -176.646942 
L 636.075 -173.651901 
L 636.075 -170.65686 
L 636.075 -167.661818 
L 636.075 -164.666777 
L 636.075 -161.671736 
L 636.075 -158.676694 
L 636.075 -155.681653 
L 636.075 -152.686612 
L 636.075 -149.69157 
L 636.075 -146.696529 
L 636.075 -143.701488 
L 636.075 -140.706446 
L 636.075 -137.711405 
L 636.075 -134.716364 
L 636.075 -131.721322 
L 636.075 -128.726281 
L 636.075 -125.73124 
L 636.075 -122.736198 
L 636.075 -119.741157 
L 636.075 -116.746116 
L 636.075 -113.751074 
L 636.075 -110.756033 
L 636.075 -107.760992 
L 636.075 -104.76595 
L 636.075 -101.770909 
L 636.075 -98.775868 
L 636.075 -95.780826 
L 636.075 -92.785785 
L 636.075 -89.790744 
L 636.075 -86.795702 
L 636.075 -83.800661 
L 636.075 -80.80562 
L 636.075 -77.810579 
L 636.075 -74.815537 
L 636.075 -71.820496 
L 636.075 -68.825455 
z
" id="meb11fe9901" style="stroke:#363636;"/>
    </defs>
    <g clip-path="url(#p887053a72d)">
     <use style="fill:#176d9c;stroke:#363636;" x="0" xlink:href="#meb11fe9901" y="432"/>
    </g>
   </g>
   <g id="PolyCollection_8">
    <defs>
     <path d="M 652.379653 -73.085615 
L 636.075 -73.085615 
L 636.075 -75.857936 
L 636.075 -78.630258 
L 636.075 -81.40258 
L 636.075 -84.174902 
L 636.075 -86.947223 
L 636.075 -89.719545 
L 636.075 -92.491867 
L 636.075 -95.264189 
L 636.075 -98.03651 
L 636.075 -100.808832 
L 636.075 -103.581154 
L 636.075 -106.353476 
L 636.075 -109.125797 
L 636.075 -111.898119 
L 636.075 -114.670441 
L 636.075 -117.442762 
L 636.075 -120.215084 
L 636.075 -122.987406 
L 636.075 -125.759728 
L 636.075 -128.532049 
L 636.075 -131.304371 
L 636.075 -134.076693 
L 636.075 -136.849015 
L 636.075 -139.621336 
L 636.075 -142.393658 
L 636.075 -145.16598 
L 636.075 -147.938302 
L 636.075 -150.710623 
L 636.075 -153.482945 
L 636.075 -156.255267 
L 636.075 -159.027589 
L 636.075 -161.79991 
L 636.075 -164.572232 
L 636.075 -167.344554 
L 636.075 -170.116875 
L 636.075 -172.889197 
L 636.075 -175.661519 
L 636.075 -178.433841 
L 636.075 -181.206162 
L 636.075 -183.978484 
L 636.075 -186.750806 
L 636.075 -189.523128 
L 636.075 -192.295449 
L 636.075 -195.067771 
L 636.075 -197.840093 
L 636.075 -200.612415 
L 636.075 -203.384736 
L 636.075 -206.157058 
L 636.075 -208.92938 
L 636.075 -211.701701 
L 636.075 -214.474023 
L 636.075 -217.246345 
L 636.075 -220.018667 
L 636.075 -222.790988 
L 636.075 -225.56331 
L 636.075 -228.335632 
L 636.075 -231.107954 
L 636.075 -233.880275 
L 636.075 -236.652597 
L 636.075 -239.424919 
L 636.075 -242.197241 
L 636.075 -244.969562 
L 636.075 -247.741884 
L 636.075 -250.514206 
L 636.075 -253.286527 
L 636.075 -256.058849 
L 636.075 -258.831171 
L 636.075 -261.603493 
L 636.075 -264.375814 
L 636.075 -267.148136 
L 636.075 -269.920458 
L 636.075 -272.69278 
L 636.075 -275.465101 
L 636.075 -278.237423 
L 636.075 -281.009745 
L 636.075 -283.782067 
L 636.075 -286.554388 
L 636.075 -289.32671 
L 636.075 -292.099032 
L 636.075 -294.871353 
L 636.075 -297.643675 
L 636.075 -300.415997 
L 636.075 -303.188319 
L 636.075 -305.96064 
L 636.075 -308.732962 
L 636.075 -311.505284 
L 636.075 -314.277606 
L 636.075 -317.049927 
L 636.075 -319.822249 
L 636.075 -322.594571 
L 636.075 -325.366893 
L 636.075 -328.139214 
L 636.075 -330.911536 
L 636.075 -333.683858 
L 636.075 -336.456179 
L 636.075 -339.228501 
L 636.075 -342.000823 
L 636.075 -344.773145 
L 636.075 -347.545466 
L 636.262329 -347.545466 
L 636.262329 -347.545466 
L 636.317208 -344.773145 
L 636.367554 -342.000823 
L 636.405549 -339.228501 
L 636.424883 -336.456179 
L 636.422515 -333.683858 
L 636.399428 -330.911536 
L 636.360143 -328.139214 
L 636.311282 -325.366893 
L 636.2598 -322.594571 
L 636.21151 -319.822249 
L 636.170262 -317.049927 
L 636.13781 -314.277606 
L 636.114197 -311.505284 
L 636.098395 -308.732962 
L 636.088985 -305.96064 
L 636.08472 -303.188319 
L 636.084917 -300.415997 
L 636.089604 -297.643675 
L 636.099414 -294.871353 
L 636.115188 -292.099032 
L 636.137339 -289.32671 
L 636.165124 -286.554388 
L 636.196119 -283.782067 
L 636.22624 -281.009745 
L 636.250523 -278.237423 
L 636.264573 -275.465101 
L 636.266296 -272.69278 
L 636.257449 -269.920458 
L 636.244808 -267.148136 
L 636.241227 -264.375814 
L 636.26716 -261.603493 
L 636.352912 -258.831171 
L 636.540857 -256.058849 
L 636.885417 -253.286527 
L 637.447698 -250.514206 
L 638.282247 -247.741884 
L 639.416332 -244.969562 
L 640.826748 -242.197241 
L 642.423491 -239.424919 
L 644.050687 -236.652597 
L 645.510694 -233.880275 
L 646.608053 -231.107954 
L 647.199912 -228.335632 
L 647.234476 -225.56331 
L 646.762598 -222.790988 
L 645.918591 -220.018667 
L 644.878944 -217.246345 
L 643.815244 -214.474023 
L 642.857044 -211.701701 
L 642.073565 -208.92938 
L 641.474759 -206.157058 
L 641.026373 -203.384736 
L 640.671494 -200.612415 
L 640.351741 -197.840093 
L 640.023312 -195.067771 
L 639.665726 -192.295449 
L 639.283564 -189.523128 
L 638.903184 -186.750806 
L 638.566615 -183.978484 
L 638.323791 -181.206162 
L 638.223009 -178.433841 
L 638.299215 -175.661519 
L 638.561287 -172.889197 
L 638.981941 -170.116875 
L 639.49564 -167.344554 
L 640.008736 -164.572232 
L 640.421715 -161.79991 
L 640.657411 -159.027589 
L 640.684755 -156.255267 
L 640.527851 -153.482945 
L 640.255665 -150.710623 
L 639.956017 -147.938302 
L 639.704959 -145.16598 
L 639.545126 -142.393658 
L 639.482842 -139.621336 
L 639.505052 -136.849015 
L 639.607949 -134.076693 
L 639.824179 -131.304371 
L 640.237494 -128.532049 
L 640.981125 -125.759728 
L 642.224132 -122.987406 
L 644.153174 -120.215084 
L 646.953677 -117.442762 
L 650.787378 -114.670441 
L 655.758464 -111.898119 
L 661.862902 -109.125797 
L 668.925702 -106.353476 
L 676.544872 -103.581154 
L 684.071799 -100.808832 
L 690.65828 -98.03651 
L 695.384906 -95.264189 
L 697.455 -92.491867 
L 696.403157 -89.719545 
L 692.245865 -86.947223 
L 685.510474 -84.174902 
L 677.120408 -81.40258 
L 668.171696 -78.630258 
L 659.679408 -75.857936 
L 652.379653 -73.085615 
z
" id="mf279e096f2" style="stroke:#363636;"/>
    </defs>
    <g clip-path="url(#p887053a72d)">
     <use style="fill:#c38820;stroke:#363636;" x="0" xlink:href="#mf279e096f2" y="432"/>
    </g>
   </g>
   <g id="patch_3">
    <path clip-path="url(#p887053a72d)" d="M 175.725 353.215928 
L 175.725 353.215928 
L 175.725 353.215928 
L 175.725 353.215928 
z
" style="fill:#176d9c;stroke:#363636;stroke-linejoin:miter;stroke-width:0.5;"/>
   </g>
   <g id="patch_4">
    <path clip-path="url(#p887053a72d)" d="M 175.725 353.215928 
L 175.725 353.215928 
L 175.725 353.215928 
L 175.725 353.215928 
z
" style="fill:#c38820;stroke:#363636;stroke-linejoin:miter;stroke-width:0.5;"/>
   </g>
   <g id="line2d_6">
    <path clip-path="url(#p887053a72d)" d="M 116.965542 342.524403 
L 175.725 342.524403 
" style="fill:none;stroke:#363636;stroke-dasharray:1.5,1.5;stroke-dashoffset:0;"/>
   </g>
   <g id="line2d_7">
    <path clip-path="url(#p887053a72d)" d="M 114.9588 338.273624 
L 175.725 338.273624 
" style="fill:none;stroke:#363636;stroke-dasharray:3,3;stroke-dashoffset:0;"/>
   </g>
   <g id="line2d_8">
    <path clip-path="url(#p887053a72d)" d="M 124.566304 329.311646 
L 175.725 329.311646 
" style="fill:none;stroke:#363636;stroke-dasharray:1.5,1.5;stroke-dashoffset:0;"/>
   </g>
   <g id="line2d_9">
    <path clip-path="url(#p887053a72d)" d="M 175.725 342.116746 
L 216.521892 342.116746 
" style="fill:none;stroke:#363636;stroke-dasharray:1.5,1.5;stroke-dashoffset:0;"/>
   </g>
   <g id="line2d_10">
    <path clip-path="url(#p887053a72d)" d="M 175.725 333.188829 
L 214.230559 333.188829 
" style="fill:none;stroke:#363636;stroke-dasharray:3,3;stroke-dashoffset:0;"/>
   </g>
   <g id="line2d_11">
    <path clip-path="url(#p887053a72d)" d="M 175.725 221.899841 
L 184.412513 221.899841 
" style="fill:none;stroke:#363636;stroke-dasharray:1.5,1.5;stroke-dashoffset:0;"/>
   </g>
   <g id="line2d_12">
    <path clip-path="url(#p887053a72d)" d="M 270.221997 342.488734 
L 329.175 342.488734 
" style="fill:none;stroke:#363636;stroke-dasharray:1.5,1.5;stroke-dashoffset:0;"/>
   </g>
   <g id="line2d_13">
    <path clip-path="url(#p887053a72d)" d="M 268.4088 337.071456 
L 329.175 337.071456 
" style="fill:none;stroke:#363636;stroke-dasharray:3,3;stroke-dashoffset:0;"/>
   </g>
   <g id="line2d_14">
    <path clip-path="url(#p887053a72d)" d="M 280.215164 329.311646 
L 329.175 329.311646 
" style="fill:none;stroke:#363636;stroke-dasharray:1.5,1.5;stroke-dashoffset:0;"/>
   </g>
   <g id="line2d_15">
    <path clip-path="url(#p887053a72d)" d="M 329.175 342.488734 
L 386.218865 342.488734 
" style="fill:none;stroke:#363636;stroke-dasharray:1.5,1.5;stroke-dashoffset:0;"/>
   </g>
   <g id="line2d_16">
    <path clip-path="url(#p887053a72d)" d="M 329.175 338.710755 
L 387.618033 338.710755 
" style="fill:none;stroke:#363636;stroke-dasharray:3,3;stroke-dashoffset:0;"/>
   </g>
   <g id="line2d_17">
    <path clip-path="url(#p887053a72d)" d="M 329.175 328.641238 
L 369.26791 328.641238 
" style="fill:none;stroke:#363636;stroke-dasharray:1.5,1.5;stroke-dashoffset:0;"/>
   </g>
   <g id="line2d_18">
    <path clip-path="url(#p887053a72d)" d="M 424.777848 342.488734 
L 482.625 342.488734 
" style="fill:none;stroke:#363636;stroke-dasharray:1.5,1.5;stroke-dashoffset:0;"/>
   </g>
   <g id="line2d_19">
    <path clip-path="url(#p887053a72d)" d="M 422.018479 338.273624 
L 482.625 338.273624 
" style="fill:none;stroke:#363636;stroke-dasharray:3,3;stroke-dashoffset:0;"/>
   </g>
   <g id="line2d_20">
    <path clip-path="url(#p887053a72d)" d="M 435.152961 329.311646 
L 482.625 329.311646 
" style="fill:none;stroke:#363636;stroke-dasharray:1.5,1.5;stroke-dashoffset:0;"/>
   </g>
   <g id="line2d_21">
    <path clip-path="url(#p887053a72d)" d="M 482.625 341.37563 
L 540.458314 341.37563 
" style="fill:none;stroke:#363636;stroke-dasharray:1.5,1.5;stroke-dashoffset:0;"/>
   </g>
   <g id="line2d_22">
    <path clip-path="url(#p887053a72d)" d="M 482.625 334.668882 
L 540.539521 334.668882 
" style="fill:none;stroke:#363636;stroke-dasharray:3,3;stroke-dashoffset:0;"/>
   </g>
   <g id="line2d_23">
    <path clip-path="url(#p887053a72d)" d="M 482.625 319.44597 
L 507.823602 319.44597 
" style="fill:none;stroke:#363636;stroke-dasharray:1.5,1.5;stroke-dashoffset:0;"/>
   </g>
   <g id="line2d_24">
    <path clip-path="url(#p887053a72d)" d="M 588.346061 342.488734 
L 636.075 342.488734 
" style="fill:none;stroke:#363636;stroke-dasharray:1.5,1.5;stroke-dashoffset:0;"/>
   </g>
   <g id="line2d_25">
    <path clip-path="url(#p887053a72d)" d="M 587.540289 337.071456 
L 636.075 337.071456 
" style="fill:none;stroke:#363636;stroke-dasharray:3,3;stroke-dashoffset:0;"/>
   </g>
   <g id="line2d_26">
    <path clip-path="url(#p887053a72d)" d="M 606.942105 319.75269 
L 636.075 319.75269 
" style="fill:none;stroke:#363636;stroke-dasharray:1.5,1.5;stroke-dashoffset:0;"/>
   </g>
   <g id="line2d_27">
    <path clip-path="url(#p887053a72d)" d="M 636.075 342.488734 
L 695.799876 342.488734 
" style="fill:none;stroke:#363636;stroke-dasharray:1.5,1.5;stroke-dashoffset:0;"/>
   </g>
   <g id="line2d_28">
    <path clip-path="url(#p887053a72d)" d="M 636.075 337.66877 
L 694.791807 337.66877 
" style="fill:none;stroke:#363636;stroke-dasharray:3,3;stroke-dashoffset:0;"/>
   </g>
   <g id="line2d_29">
    <path clip-path="url(#p887053a72d)" d="M 636.075 297.370492 
L 639.57262 297.370492 
" style="fill:none;stroke:#363636;stroke-dasharray:1.5,1.5;stroke-dashoffset:0;"/>
   </g>
   <g id="legend_1">
    <g id="patch_5">
     <path d="M 649.721875 108.234062 
L 705.1 108.234062 
Q 707.3 108.234062 707.3 106.034063 
L 707.3 59.54 
Q 707.3 57.34 705.1 57.34 
L 649.721875 57.34 
Q 647.521875 57.34 647.521875 59.54 
L 647.521875 106.034063 
Q 647.521875 108.234062 649.721875 108.234062 
z
" style="fill:#ffffff;opacity:0.8;stroke:#cccccc;stroke-linejoin:miter;"/>
    </g>
    <g id="text_12">
     <!-- inv_occ -->
     <g style="fill:#262626;" transform="translate(657.068125 70.329375)scale(0.12 -0.12)">
      <defs>
       <path d="M 6.59375 0 
L 6.59375 51.859375 
L 14.5 51.859375 
L 14.5 44.484375 
Q 20.21875 53.03125 31 53.03125 
Q 35.6875 53.03125 39.625 51.34375 
Q 43.5625 49.65625 45.515625 46.921875 
Q 47.46875 44.1875 48.25 40.4375 
Q 48.734375 37.984375 48.734375 31.890625 
L 48.734375 0 
L 39.9375 0 
L 39.9375 31.546875 
Q 39.9375 36.921875 38.90625 39.578125 
Q 37.890625 42.234375 35.28125 43.8125 
Q 32.671875 45.40625 29.15625 45.40625 
Q 23.53125 45.40625 19.453125 41.84375 
Q 15.375 38.28125 15.375 28.328125 
L 15.375 0 
z
" id="ArialMT-110"/>
       <path d="M 21 0 
L 1.265625 51.859375 
L 10.546875 51.859375 
L 21.6875 20.796875 
Q 23.484375 15.765625 25 10.359375 
Q 26.171875 14.453125 28.265625 20.21875 
L 39.796875 51.859375 
L 48.828125 51.859375 
L 29.203125 0 
z
" id="ArialMT-118"/>
       <path d="M 3.328125 25.921875 
Q 3.328125 40.328125 11.328125 47.265625 
Q 18.015625 53.03125 27.640625 53.03125 
Q 38.328125 53.03125 45.109375 46.015625 
Q 51.90625 39.015625 51.90625 26.65625 
Q 51.90625 16.65625 48.90625 10.90625 
Q 45.90625 5.171875 40.15625 2 
Q 34.421875 -1.171875 27.640625 -1.171875 
Q 16.75 -1.171875 10.03125 5.8125 
Q 3.328125 12.796875 3.328125 25.921875 
z
M 12.359375 25.921875 
Q 12.359375 15.96875 16.703125 11.015625 
Q 21.046875 6.0625 27.640625 6.0625 
Q 34.1875 6.0625 38.53125 11.03125 
Q 42.875 16.015625 42.875 26.21875 
Q 42.875 35.84375 38.5 40.796875 
Q 34.125 45.75 27.640625 45.75 
Q 21.046875 45.75 16.703125 40.8125 
Q 12.359375 35.890625 12.359375 25.921875 
z
" id="ArialMT-111"/>
       <path d="M 40.4375 19 
L 49.078125 17.875 
Q 47.65625 8.9375 41.8125 3.875 
Q 35.984375 -1.171875 27.484375 -1.171875 
Q 16.84375 -1.171875 10.375 5.78125 
Q 3.90625 12.75 3.90625 25.734375 
Q 3.90625 34.125 6.6875 40.421875 
Q 9.46875 46.734375 15.15625 49.875 
Q 20.84375 53.03125 27.546875 53.03125 
Q 35.984375 53.03125 41.359375 48.75 
Q 46.734375 44.484375 48.25 36.625 
L 39.703125 35.296875 
Q 38.484375 40.53125 35.375 43.15625 
Q 32.28125 45.796875 27.875 45.796875 
Q 21.234375 45.796875 17.078125 41.03125 
Q 12.9375 36.28125 12.9375 25.984375 
Q 12.9375 15.53125 16.9375 10.796875 
Q 20.953125 6.0625 27.390625 6.0625 
Q 32.5625 6.0625 36.03125 9.234375 
Q 39.5 12.40625 40.4375 19 
z
" id="ArialMT-99"/>
      </defs>
      <use xlink:href="#ArialMT-105"/>
      <use x="22.216797" xlink:href="#ArialMT-110"/>
      <use x="77.832031" xlink:href="#ArialMT-118"/>
      <use x="127.832031" xlink:href="#ArialMT-95"/>
      <use x="183.447266" xlink:href="#ArialMT-111"/>
      <use x="239.0625" xlink:href="#ArialMT-99"/>
      <use x="289.0625" xlink:href="#ArialMT-99"/>
     </g>
    </g>
    <g id="patch_6">
     <path d="M 651.921875 86.087969 
L 673.921875 86.087969 
L 673.921875 78.387969 
L 651.921875 78.387969 
z
" style="fill:#176d9c;stroke:#363636;stroke-linejoin:miter;stroke-width:0.5;"/>
    </g>
    <g id="text_13">
     <!-- inv -->
     <g style="fill:#262626;" transform="translate(682.721875 86.087969)scale(0.11 -0.11)">
      <use xlink:href="#ArialMT-105"/>
      <use x="22.216797" xlink:href="#ArialMT-110"/>
      <use x="77.832031" xlink:href="#ArialMT-118"/>
     </g>
    </g>
    <g id="patch_7">
     <path d="M 651.921875 101.647812 
L 673.921875 101.647812 
L 673.921875 93.947812 
L 651.921875 93.947812 
z
" style="fill:#c38820;stroke:#363636;stroke-linejoin:miter;stroke-width:0.5;"/>
    </g>
    <g id="text_14">
     <!-- own -->
     <g style="fill:#262626;" transform="translate(682.721875 101.647812)scale(0.11 -0.11)">
      <use xlink:href="#ArialMT-111"/>
      <use x="55.615234" xlink:href="#ArialMT-119"/>
      <use x="127.832031" xlink:href="#ArialMT-110"/>
     </g>
    </g>
   </g>
  </g>
 </g>
 <defs>
  <clipPath id="p887053a72d">
   <rect height="326.16" width="613.8" x="99" y="51.84"/>
  </clipPath>
 </defs>
</svg>
