<?xml version="1.0" encoding="utf-8" standalone="no"?>
<!DOCTYPE svg PUBLIC "-//W3C//DTD SVG 1.1//EN"
  "http://www.w3.org/Graphics/SVG/1.1/DTD/svg11.dtd">
<!-- Created with matplotlib (https://matplotlib.org/) -->
<svg height="432pt" version="1.1" viewBox="0 0 792 432" width="792pt" xmlns="http://www.w3.org/2000/svg" xmlns:xlink="http://www.w3.org/1999/xlink">
 <metadata>
  <rdf:RDF xmlns:cc="http://creativecommons.org/ns#" xmlns:dc="http://purl.org/dc/elements/1.1/" xmlns:rdf="http://www.w3.org/1999/02/22-rdf-syntax-ns#">
   <cc:Work>
    <dc:type rdf:resource="http://purl.org/dc/dcmitype/StillImage"/>
    <dc:date>2021-08-19T08:05:05.924626</dc:date>
    <dc:format>image/svg+xml</dc:format>
    <dc:creator>
     <cc:Agent>
      <dc:title>Matplotlib v3.3.1, https://matplotlib.org/</dc:title>
     </cc:Agent>
    </dc:creator>
   </cc:Work>
  </rdf:RDF>
 </metadata>
 <defs>
  <style type="text/css">*{stroke-linecap:butt;stroke-linejoin:round;}</style>
 </defs>
 <g id="figure_1">
  <g id="patch_1">
   <path d="M 0 432 
L 792 432 
L 792 0 
L 0 0 
z
" style="fill:#ffffff;"/>
  </g>
  <g id="axes_1">
   <g id="patch_2">
    <path d="M 99 378 
L 712.8 378 
L 712.8 51.84 
L 99 51.84 
z
" style="fill:#ffffff;"/>
   </g>
   <g id="matplotlib.axis_1">
    <g id="xtick_1">
     <g id="text_1">
      <!-- 2000-2006 -->
      <g style="fill:#262626;" transform="translate(149.425547 395.373594)scale(0.11 -0.11)">
       <defs>
        <path d="M 50.34375 8.453125 
L 50.34375 0 
L 3.03125 0 
Q 2.9375 3.171875 4.046875 6.109375 
Q 5.859375 10.9375 9.828125 15.625 
Q 13.8125 20.3125 21.34375 26.46875 
Q 33.015625 36.03125 37.109375 41.625 
Q 41.21875 47.21875 41.21875 52.203125 
Q 41.21875 57.421875 37.46875 61 
Q 33.734375 64.59375 27.734375 64.59375 
Q 21.390625 64.59375 17.578125 60.78125 
Q 13.765625 56.984375 13.71875 50.25 
L 4.6875 51.171875 
Q 5.609375 61.28125 11.65625 66.578125 
Q 17.71875 71.875 27.9375 71.875 
Q 38.234375 71.875 44.234375 66.15625 
Q 50.25 60.453125 50.25 52 
Q 50.25 47.703125 48.484375 43.546875 
Q 46.734375 39.40625 42.65625 34.8125 
Q 38.578125 30.21875 29.109375 22.21875 
Q 21.1875 15.578125 18.9375 13.203125 
Q 16.703125 10.84375 15.234375 8.453125 
z
" id="ArialMT-50"/>
        <path d="M 4.15625 35.296875 
Q 4.15625 48 6.765625 55.734375 
Q 9.375 63.484375 14.515625 67.671875 
Q 19.671875 71.875 27.484375 71.875 
Q 33.25 71.875 37.59375 69.546875 
Q 41.9375 67.234375 44.765625 62.859375 
Q 47.609375 58.5 49.21875 52.21875 
Q 50.828125 45.953125 50.828125 35.296875 
Q 50.828125 22.703125 48.234375 14.96875 
Q 45.65625 7.234375 40.5 3 
Q 35.359375 -1.21875 27.484375 -1.21875 
Q 17.140625 -1.21875 11.234375 6.203125 
Q 4.15625 15.140625 4.15625 35.296875 
z
M 13.1875 35.296875 
Q 13.1875 17.671875 17.3125 11.828125 
Q 21.4375 6 27.484375 6 
Q 33.546875 6 37.671875 11.859375 
Q 41.796875 17.71875 41.796875 35.296875 
Q 41.796875 52.984375 37.671875 58.78125 
Q 33.546875 64.59375 27.390625 64.59375 
Q 21.34375 64.59375 17.71875 59.46875 
Q 13.1875 52.9375 13.1875 35.296875 
z
" id="ArialMT-48"/>
        <path d="M 3.171875 21.484375 
L 3.171875 30.328125 
L 30.171875 30.328125 
L 30.171875 21.484375 
z
" id="ArialMT-45"/>
        <path d="M 49.75 54.046875 
L 41.015625 53.375 
Q 39.84375 58.546875 37.703125 60.890625 
Q 34.125 64.65625 28.90625 64.65625 
Q 24.703125 64.65625 21.53125 62.3125 
Q 17.390625 59.28125 14.984375 53.46875 
Q 12.59375 47.65625 12.5 36.921875 
Q 15.671875 41.75 20.265625 44.09375 
Q 24.859375 46.4375 29.890625 46.4375 
Q 38.671875 46.4375 44.84375 39.96875 
Q 51.03125 33.5 51.03125 23.25 
Q 51.03125 16.5 48.125 10.71875 
Q 45.21875 4.9375 40.140625 1.859375 
Q 35.0625 -1.21875 28.609375 -1.21875 
Q 17.625 -1.21875 10.6875 6.859375 
Q 3.765625 14.9375 3.765625 33.5 
Q 3.765625 54.25 11.421875 63.671875 
Q 18.109375 71.875 29.4375 71.875 
Q 37.890625 71.875 43.28125 67.140625 
Q 48.6875 62.40625 49.75 54.046875 
z
M 13.875 23.1875 
Q 13.875 18.65625 15.796875 14.5 
Q 17.71875 10.359375 21.1875 8.171875 
Q 24.65625 6 28.46875 6 
Q 34.03125 6 38.03125 10.484375 
Q 42.046875 14.984375 42.046875 22.703125 
Q 42.046875 30.125 38.078125 34.390625 
Q 34.125 38.671875 28.125 38.671875 
Q 22.171875 38.671875 18.015625 34.390625 
Q 13.875 30.125 13.875 23.1875 
z
" id="ArialMT-54"/>
       </defs>
       <use xlink:href="#ArialMT-50"/>
       <use x="55.615234" xlink:href="#ArialMT-48"/>
       <use x="111.230469" xlink:href="#ArialMT-48"/>
       <use x="166.845703" xlink:href="#ArialMT-48"/>
       <use x="222.460938" xlink:href="#ArialMT-45"/>
       <use x="255.761719" xlink:href="#ArialMT-50"/>
       <use x="311.376953" xlink:href="#ArialMT-48"/>
       <use x="366.992188" xlink:href="#ArialMT-48"/>
       <use x="422.607422" xlink:href="#ArialMT-54"/>
      </g>
     </g>
    </g>
    <g id="xtick_2">
     <g id="text_2">
      <!-- 2007-2009 -->
      <g style="fill:#262626;" transform="translate(302.875547 395.373594)scale(0.11 -0.11)">
       <defs>
        <path d="M 4.734375 62.203125 
L 4.734375 70.65625 
L 51.078125 70.65625 
L 51.078125 63.8125 
Q 44.234375 56.546875 37.515625 44.484375 
Q 30.8125 32.421875 27.15625 19.671875 
Q 24.515625 10.6875 23.78125 0 
L 14.75 0 
Q 14.890625 8.453125 18.0625 20.40625 
Q 21.234375 32.375 27.171875 43.484375 
Q 33.109375 54.59375 39.796875 62.203125 
z
" id="ArialMT-55"/>
        <path d="M 5.46875 16.546875 
L 13.921875 17.328125 
Q 14.984375 11.375 18.015625 8.6875 
Q 21.046875 6 25.78125 6 
Q 29.828125 6 32.875 7.859375 
Q 35.9375 9.71875 37.890625 12.8125 
Q 39.84375 15.921875 41.15625 21.1875 
Q 42.484375 26.46875 42.484375 31.9375 
Q 42.484375 32.515625 42.4375 33.6875 
Q 39.796875 29.5 35.234375 26.875 
Q 30.671875 24.265625 25.34375 24.265625 
Q 16.453125 24.265625 10.296875 30.703125 
Q 4.15625 37.15625 4.15625 47.703125 
Q 4.15625 58.59375 10.578125 65.234375 
Q 17 71.875 26.65625 71.875 
Q 33.640625 71.875 39.421875 68.109375 
Q 45.21875 64.359375 48.21875 57.390625 
Q 51.21875 50.4375 51.21875 37.25 
Q 51.21875 23.53125 48.234375 15.40625 
Q 45.265625 7.28125 39.375 3.03125 
Q 33.5 -1.21875 25.59375 -1.21875 
Q 17.1875 -1.21875 11.859375 3.4375 
Q 6.546875 8.109375 5.46875 16.546875 
z
M 41.453125 48.140625 
Q 41.453125 55.71875 37.421875 60.15625 
Q 33.40625 64.59375 27.734375 64.59375 
Q 21.875 64.59375 17.53125 59.8125 
Q 13.1875 55.03125 13.1875 47.40625 
Q 13.1875 40.578125 17.3125 36.296875 
Q 21.4375 32.03125 27.484375 32.03125 
Q 33.59375 32.03125 37.515625 36.296875 
Q 41.453125 40.578125 41.453125 48.140625 
z
" id="ArialMT-57"/>
       </defs>
       <use xlink:href="#ArialMT-50"/>
       <use x="55.615234" xlink:href="#ArialMT-48"/>
       <use x="111.230469" xlink:href="#ArialMT-48"/>
       <use x="166.845703" xlink:href="#ArialMT-55"/>
       <use x="222.460938" xlink:href="#ArialMT-45"/>
       <use x="255.761719" xlink:href="#ArialMT-50"/>
       <use x="311.376953" xlink:href="#ArialMT-48"/>
       <use x="366.992188" xlink:href="#ArialMT-48"/>
       <use x="422.607422" xlink:href="#ArialMT-57"/>
      </g>
     </g>
    </g>
    <g id="xtick_3">
     <g id="text_3">
      <!-- 2010-2013 -->
      <g style="fill:#262626;" transform="translate(456.325547 395.373594)scale(0.11 -0.11)">
       <defs>
        <path d="M 37.25 0 
L 28.46875 0 
L 28.46875 56 
Q 25.296875 52.984375 20.140625 49.953125 
Q 14.984375 46.921875 10.890625 45.40625 
L 10.890625 53.90625 
Q 18.265625 57.375 23.78125 62.296875 
Q 29.296875 67.234375 31.59375 71.875 
L 37.25 71.875 
z
" id="ArialMT-49"/>
        <path d="M 4.203125 18.890625 
L 12.984375 20.0625 
Q 14.5 12.59375 18.140625 9.296875 
Q 21.78125 6 27 6 
Q 33.203125 6 37.46875 10.296875 
Q 41.75 14.59375 41.75 20.953125 
Q 41.75 27 37.796875 30.921875 
Q 33.84375 34.859375 27.734375 34.859375 
Q 25.25 34.859375 21.53125 33.890625 
L 22.515625 41.609375 
Q 23.390625 41.5 23.921875 41.5 
Q 29.546875 41.5 34.03125 44.421875 
Q 38.53125 47.359375 38.53125 53.46875 
Q 38.53125 58.296875 35.25 61.46875 
Q 31.984375 64.65625 26.8125 64.65625 
Q 21.6875 64.65625 18.265625 61.421875 
Q 14.84375 58.203125 13.875 51.765625 
L 5.078125 53.328125 
Q 6.6875 62.15625 12.390625 67.015625 
Q 18.109375 71.875 26.609375 71.875 
Q 32.46875 71.875 37.390625 69.359375 
Q 42.328125 66.84375 44.9375 62.5 
Q 47.5625 58.15625 47.5625 53.265625 
Q 47.5625 48.640625 45.0625 44.828125 
Q 42.578125 41.015625 37.703125 38.765625 
Q 44.046875 37.3125 47.5625 32.6875 
Q 51.078125 28.078125 51.078125 21.140625 
Q 51.078125 11.765625 44.234375 5.25 
Q 37.40625 -1.265625 26.953125 -1.265625 
Q 17.53125 -1.265625 11.296875 4.34375 
Q 5.078125 9.96875 4.203125 18.890625 
z
" id="ArialMT-51"/>
       </defs>
       <use xlink:href="#ArialMT-50"/>
       <use x="55.615234" xlink:href="#ArialMT-48"/>
       <use x="111.230469" xlink:href="#ArialMT-49"/>
       <use x="166.845703" xlink:href="#ArialMT-48"/>
       <use x="222.460938" xlink:href="#ArialMT-45"/>
       <use x="255.761719" xlink:href="#ArialMT-50"/>
       <use x="311.376953" xlink:href="#ArialMT-48"/>
       <use x="366.992188" xlink:href="#ArialMT-49"/>
       <use x="422.607422" xlink:href="#ArialMT-51"/>
      </g>
     </g>
    </g>
    <g id="xtick_4">
     <g id="text_4">
      <!-- 2014-2018 -->
      <g style="fill:#262626;" transform="translate(609.775547 395.373594)scale(0.11 -0.11)">
       <defs>
        <path d="M 32.328125 0 
L 32.328125 17.140625 
L 1.265625 17.140625 
L 1.265625 25.203125 
L 33.9375 71.578125 
L 41.109375 71.578125 
L 41.109375 25.203125 
L 50.78125 25.203125 
L 50.78125 17.140625 
L 41.109375 17.140625 
L 41.109375 0 
z
M 32.328125 25.203125 
L 32.328125 57.46875 
L 9.90625 25.203125 
z
" id="ArialMT-52"/>
        <path d="M 17.671875 38.8125 
Q 12.203125 40.828125 9.5625 44.53125 
Q 6.9375 48.25 6.9375 53.421875 
Q 6.9375 61.234375 12.546875 66.546875 
Q 18.171875 71.875 27.484375 71.875 
Q 36.859375 71.875 42.578125 66.421875 
Q 48.296875 60.984375 48.296875 53.171875 
Q 48.296875 48.1875 45.671875 44.5 
Q 43.0625 40.828125 37.75 38.8125 
Q 44.34375 36.671875 47.78125 31.875 
Q 51.21875 27.09375 51.21875 20.453125 
Q 51.21875 11.28125 44.71875 5.03125 
Q 38.234375 -1.21875 27.640625 -1.21875 
Q 17.046875 -1.21875 10.546875 5.046875 
Q 4.046875 11.328125 4.046875 20.703125 
Q 4.046875 27.6875 7.59375 32.390625 
Q 11.140625 37.109375 17.671875 38.8125 
z
M 15.921875 53.71875 
Q 15.921875 48.640625 19.1875 45.40625 
Q 22.46875 42.1875 27.6875 42.1875 
Q 32.765625 42.1875 36.015625 45.375 
Q 39.265625 48.578125 39.265625 53.21875 
Q 39.265625 58.0625 35.90625 61.359375 
Q 32.5625 64.65625 27.59375 64.65625 
Q 22.5625 64.65625 19.234375 61.421875 
Q 15.921875 58.203125 15.921875 53.71875 
z
M 13.09375 20.65625 
Q 13.09375 16.890625 14.875 13.375 
Q 16.65625 9.859375 20.171875 7.921875 
Q 23.6875 6 27.734375 6 
Q 34.03125 6 38.125 10.046875 
Q 42.234375 14.109375 42.234375 20.359375 
Q 42.234375 26.703125 38.015625 30.859375 
Q 33.796875 35.015625 27.4375 35.015625 
Q 21.234375 35.015625 17.15625 30.90625 
Q 13.09375 26.8125 13.09375 20.65625 
z
" id="ArialMT-56"/>
       </defs>
       <use xlink:href="#ArialMT-50"/>
       <use x="55.615234" xlink:href="#ArialMT-48"/>
       <use x="111.230469" xlink:href="#ArialMT-49"/>
       <use x="166.845703" xlink:href="#ArialMT-52"/>
       <use x="222.460938" xlink:href="#ArialMT-45"/>
       <use x="255.761719" xlink:href="#ArialMT-50"/>
       <use x="311.376953" xlink:href="#ArialMT-48"/>
       <use x="366.992188" xlink:href="#ArialMT-49"/>
       <use x="422.607422" xlink:href="#ArialMT-56"/>
      </g>
     </g>
    </g>
    <g id="text_5">
     <!-- year -->
     <g style="fill:#262626;" transform="translate(394.229063 410.008594)scale(0.12 -0.12)">
      <defs>
       <path d="M 6.203125 -19.96875 
L 5.21875 -11.71875 
Q 8.109375 -12.5 10.25 -12.5 
Q 13.1875 -12.5 14.9375 -11.515625 
Q 16.703125 -10.546875 17.828125 -8.796875 
Q 18.65625 -7.46875 20.515625 -2.25 
Q 20.75 -1.515625 21.296875 -0.09375 
L 1.609375 51.859375 
L 11.078125 51.859375 
L 21.875 21.828125 
Q 23.96875 16.109375 25.640625 9.8125 
Q 27.15625 15.875 29.25 21.625 
L 40.328125 51.859375 
L 49.125 51.859375 
L 29.390625 -0.875 
Q 26.21875 -9.421875 24.46875 -12.640625 
Q 22.125 -17 19.09375 -19.015625 
Q 16.0625 -21.046875 11.859375 -21.046875 
Q 9.328125 -21.046875 6.203125 -19.96875 
z
" id="ArialMT-121"/>
       <path d="M 42.09375 16.703125 
L 51.171875 15.578125 
Q 49.03125 7.625 43.21875 3.21875 
Q 37.40625 -1.171875 28.375 -1.171875 
Q 17 -1.171875 10.328125 5.828125 
Q 3.65625 12.84375 3.65625 25.484375 
Q 3.65625 38.578125 10.390625 45.796875 
Q 17.140625 53.03125 27.875 53.03125 
Q 38.28125 53.03125 44.875 45.953125 
Q 51.46875 38.875 51.46875 26.03125 
Q 51.46875 25.25 51.421875 23.6875 
L 12.75 23.6875 
Q 13.234375 15.140625 17.578125 10.59375 
Q 21.921875 6.0625 28.421875 6.0625 
Q 33.25 6.0625 36.671875 8.59375 
Q 40.09375 11.140625 42.09375 16.703125 
z
M 13.234375 30.90625 
L 42.1875 30.90625 
Q 41.609375 37.453125 38.875 40.71875 
Q 34.671875 45.796875 27.984375 45.796875 
Q 21.921875 45.796875 17.796875 41.75 
Q 13.671875 37.703125 13.234375 30.90625 
z
" id="ArialMT-101"/>
       <path d="M 40.4375 6.390625 
Q 35.546875 2.25 31.03125 0.53125 
Q 26.515625 -1.171875 21.34375 -1.171875 
Q 12.796875 -1.171875 8.203125 3 
Q 3.609375 7.171875 3.609375 13.671875 
Q 3.609375 17.484375 5.34375 20.625 
Q 7.078125 23.78125 9.890625 25.6875 
Q 12.703125 27.59375 16.21875 28.5625 
Q 18.796875 29.25 24.03125 29.890625 
Q 34.671875 31.15625 39.703125 32.90625 
Q 39.75 34.71875 39.75 35.203125 
Q 39.75 40.578125 37.25 42.78125 
Q 33.890625 45.75 27.25 45.75 
Q 21.046875 45.75 18.09375 43.578125 
Q 15.140625 41.40625 13.71875 35.890625 
L 5.125 37.0625 
Q 6.296875 42.578125 8.984375 45.96875 
Q 11.671875 49.359375 16.75 51.1875 
Q 21.828125 53.03125 28.515625 53.03125 
Q 35.15625 53.03125 39.296875 51.46875 
Q 43.453125 49.90625 45.40625 47.53125 
Q 47.359375 45.171875 48.140625 41.546875 
Q 48.578125 39.3125 48.578125 33.453125 
L 48.578125 21.734375 
Q 48.578125 9.46875 49.140625 6.21875 
Q 49.703125 2.984375 51.375 0 
L 42.1875 0 
Q 40.828125 2.734375 40.4375 6.390625 
z
M 39.703125 26.03125 
Q 34.90625 24.078125 25.34375 22.703125 
Q 19.921875 21.921875 17.671875 20.9375 
Q 15.4375 19.96875 14.203125 18.09375 
Q 12.984375 16.21875 12.984375 13.921875 
Q 12.984375 10.40625 15.640625 8.0625 
Q 18.3125 5.71875 23.4375 5.71875 
Q 28.515625 5.71875 32.46875 7.9375 
Q 36.421875 10.15625 38.28125 14.015625 
Q 39.703125 17 39.703125 22.796875 
z
" id="ArialMT-97"/>
       <path d="M 6.5 0 
L 6.5 51.859375 
L 14.40625 51.859375 
L 14.40625 44 
Q 17.4375 49.515625 20 51.265625 
Q 22.5625 53.03125 25.640625 53.03125 
Q 30.078125 53.03125 34.671875 50.203125 
L 31.640625 42.046875 
Q 28.421875 43.953125 25.203125 43.953125 
Q 22.3125 43.953125 20.015625 42.21875 
Q 17.71875 40.484375 16.75 37.40625 
Q 15.28125 32.71875 15.28125 27.15625 
L 15.28125 0 
z
" id="ArialMT-114"/>
      </defs>
      <use xlink:href="#ArialMT-121"/>
      <use x="50" xlink:href="#ArialMT-101"/>
      <use x="105.615234" xlink:href="#ArialMT-97"/>
      <use x="161.230469" xlink:href="#ArialMT-114"/>
     </g>
    </g>
   </g>
   <g id="matplotlib.axis_2">
    <g id="ytick_1">
     <g id="line2d_1">
      <path clip-path="url(#p2f69f3b342)" d="M 99 337.750916 
L 712.8 337.750916 
" style="fill:none;stroke:#cccccc;stroke-linecap:round;"/>
     </g>
     <g id="text_6">
      <!-- 0.05 -->
      <g style="fill:#262626;" transform="translate(68.092969 341.687712)scale(0.11 -0.11)">
       <defs>
        <path d="M 9.078125 0 
L 9.078125 10.015625 
L 19.09375 10.015625 
L 19.09375 0 
z
" id="ArialMT-46"/>
        <path d="M 4.15625 18.75 
L 13.375 19.53125 
Q 14.40625 12.796875 18.140625 9.390625 
Q 21.875 6 27.15625 6 
Q 33.5 6 37.890625 10.78125 
Q 42.28125 15.578125 42.28125 23.484375 
Q 42.28125 31 38.0625 35.34375 
Q 33.84375 39.703125 27 39.703125 
Q 22.75 39.703125 19.328125 37.765625 
Q 15.921875 35.84375 13.96875 32.765625 
L 5.71875 33.84375 
L 12.640625 70.609375 
L 48.25 70.609375 
L 48.25 62.203125 
L 19.671875 62.203125 
L 15.828125 42.96875 
Q 22.265625 47.46875 29.34375 47.46875 
Q 38.71875 47.46875 45.15625 40.96875 
Q 51.609375 34.46875 51.609375 24.265625 
Q 51.609375 14.546875 45.953125 7.46875 
Q 39.0625 -1.21875 27.15625 -1.21875 
Q 17.390625 -1.21875 11.203125 4.25 
Q 5.03125 9.71875 4.15625 18.75 
z
" id="ArialMT-53"/>
       </defs>
       <use xlink:href="#ArialMT-48"/>
       <use x="55.615234" xlink:href="#ArialMT-46"/>
       <use x="83.398438" xlink:href="#ArialMT-48"/>
       <use x="139.013672" xlink:href="#ArialMT-53"/>
      </g>
     </g>
    </g>
    <g id="ytick_2">
     <g id="line2d_2">
      <path clip-path="url(#p2f69f3b342)" d="M 99 288.611965 
L 712.8 288.611965 
" style="fill:none;stroke:#cccccc;stroke-linecap:round;"/>
     </g>
     <g id="text_7">
      <!-- 0.10 -->
      <g style="fill:#262626;" transform="translate(68.092969 292.548762)scale(0.11 -0.11)">
       <use xlink:href="#ArialMT-48"/>
       <use x="55.615234" xlink:href="#ArialMT-46"/>
       <use x="83.398438" xlink:href="#ArialMT-49"/>
       <use x="139.013672" xlink:href="#ArialMT-48"/>
      </g>
     </g>
    </g>
    <g id="ytick_3">
     <g id="line2d_3">
      <path clip-path="url(#p2f69f3b342)" d="M 99 239.473015 
L 712.8 239.473015 
" style="fill:none;stroke:#cccccc;stroke-linecap:round;"/>
     </g>
     <g id="text_8">
      <!-- 0.15 -->
      <g style="fill:#262626;" transform="translate(68.092969 243.409812)scale(0.11 -0.11)">
       <use xlink:href="#ArialMT-48"/>
       <use x="55.615234" xlink:href="#ArialMT-46"/>
       <use x="83.398438" xlink:href="#ArialMT-49"/>
       <use x="139.013672" xlink:href="#ArialMT-53"/>
      </g>
     </g>
    </g>
    <g id="ytick_4">
     <g id="line2d_4">
      <path clip-path="url(#p2f69f3b342)" d="M 99 190.334065 
L 712.8 190.334065 
" style="fill:none;stroke:#cccccc;stroke-linecap:round;"/>
     </g>
     <g id="text_9">
      <!-- 0.20 -->
      <g style="fill:#262626;" transform="translate(68.092969 194.270862)scale(0.11 -0.11)">
       <use xlink:href="#ArialMT-48"/>
       <use x="55.615234" xlink:href="#ArialMT-46"/>
       <use x="83.398438" xlink:href="#ArialMT-50"/>
       <use x="139.013672" xlink:href="#ArialMT-48"/>
      </g>
     </g>
    </g>
    <g id="ytick_5">
     <g id="line2d_5">
      <path clip-path="url(#p2f69f3b342)" d="M 99 141.195115 
L 712.8 141.195115 
" style="fill:none;stroke:#cccccc;stroke-linecap:round;"/>
     </g>
     <g id="text_10">
      <!-- 0.25 -->
      <g style="fill:#262626;" transform="translate(68.092969 145.131912)scale(0.11 -0.11)">
       <use xlink:href="#ArialMT-48"/>
       <use x="55.615234" xlink:href="#ArialMT-46"/>
       <use x="83.398438" xlink:href="#ArialMT-50"/>
       <use x="139.013672" xlink:href="#ArialMT-53"/>
      </g>
     </g>
    </g>
    <g id="ytick_6">
     <g id="line2d_6">
      <path clip-path="url(#p2f69f3b342)" d="M 99 92.056165 
L 712.8 92.056165 
" style="fill:none;stroke:#cccccc;stroke-linecap:round;"/>
     </g>
     <g id="text_11">
      <!-- 0.30 -->
      <g style="fill:#262626;" transform="translate(68.092969 95.992962)scale(0.11 -0.11)">
       <use xlink:href="#ArialMT-48"/>
       <use x="55.615234" xlink:href="#ArialMT-46"/>
       <use x="83.398438" xlink:href="#ArialMT-51"/>
       <use x="139.013672" xlink:href="#ArialMT-48"/>
      </g>
     </g>
    </g>
    <g id="text_12">
     <!-- per_vacant -->
     <g style="fill:#262626;" transform="translate(61.707969 244.604062)rotate(-90)scale(0.12 -0.12)">
      <defs>
       <path d="M 6.59375 -19.875 
L 6.59375 51.859375 
L 14.59375 51.859375 
L 14.59375 45.125 
Q 17.4375 49.078125 21 51.046875 
Q 24.5625 53.03125 29.640625 53.03125 
Q 36.28125 53.03125 41.359375 49.609375 
Q 46.4375 46.1875 49.015625 39.953125 
Q 51.609375 33.734375 51.609375 26.3125 
Q 51.609375 18.359375 48.75 11.984375 
Q 45.90625 5.609375 40.453125 2.21875 
Q 35.015625 -1.171875 29 -1.171875 
Q 24.609375 -1.171875 21.109375 0.6875 
Q 17.625 2.546875 15.375 5.375 
L 15.375 -19.875 
z
M 14.546875 25.640625 
Q 14.546875 15.625 18.59375 10.84375 
Q 22.65625 6.0625 28.421875 6.0625 
Q 34.28125 6.0625 38.453125 11.015625 
Q 42.625 15.96875 42.625 26.375 
Q 42.625 36.28125 38.546875 41.203125 
Q 34.46875 46.140625 28.8125 46.140625 
Q 23.1875 46.140625 18.859375 40.890625 
Q 14.546875 35.640625 14.546875 25.640625 
z
" id="ArialMT-112"/>
       <path d="M -1.515625 -19.875 
L -1.515625 -13.53125 
L 56.734375 -13.53125 
L 56.734375 -19.875 
z
" id="ArialMT-95"/>
       <path d="M 21 0 
L 1.265625 51.859375 
L 10.546875 51.859375 
L 21.6875 20.796875 
Q 23.484375 15.765625 25 10.359375 
Q 26.171875 14.453125 28.265625 20.21875 
L 39.796875 51.859375 
L 48.828125 51.859375 
L 29.203125 0 
z
" id="ArialMT-118"/>
       <path d="M 40.4375 19 
L 49.078125 17.875 
Q 47.65625 8.9375 41.8125 3.875 
Q 35.984375 -1.171875 27.484375 -1.171875 
Q 16.84375 -1.171875 10.375 5.78125 
Q 3.90625 12.75 3.90625 25.734375 
Q 3.90625 34.125 6.6875 40.421875 
Q 9.46875 46.734375 15.15625 49.875 
Q 20.84375 53.03125 27.546875 53.03125 
Q 35.984375 53.03125 41.359375 48.75 
Q 46.734375 44.484375 48.25 36.625 
L 39.703125 35.296875 
Q 38.484375 40.53125 35.375 43.15625 
Q 32.28125 45.796875 27.875 45.796875 
Q 21.234375 45.796875 17.078125 41.03125 
Q 12.9375 36.28125 12.9375 25.984375 
Q 12.9375 15.53125 16.9375 10.796875 
Q 20.953125 6.0625 27.390625 6.0625 
Q 32.5625 6.0625 36.03125 9.234375 
Q 39.5 12.40625 40.4375 19 
z
" id="ArialMT-99"/>
       <path d="M 6.59375 0 
L 6.59375 51.859375 
L 14.5 51.859375 
L 14.5 44.484375 
Q 20.21875 53.03125 31 53.03125 
Q 35.6875 53.03125 39.625 51.34375 
Q 43.5625 49.65625 45.515625 46.921875 
Q 47.46875 44.1875 48.25 40.4375 
Q 48.734375 37.984375 48.734375 31.890625 
L 48.734375 0 
L 39.9375 0 
L 39.9375 31.546875 
Q 39.9375 36.921875 38.90625 39.578125 
Q 37.890625 42.234375 35.28125 43.8125 
Q 32.671875 45.40625 29.15625 45.40625 
Q 23.53125 45.40625 19.453125 41.84375 
Q 15.375 38.28125 15.375 28.328125 
L 15.375 0 
z
" id="ArialMT-110"/>
       <path d="M 25.78125 7.859375 
L 27.046875 0.09375 
Q 23.34375 -0.6875 20.40625 -0.6875 
Q 15.625 -0.6875 12.984375 0.828125 
Q 10.359375 2.34375 9.28125 4.8125 
Q 8.203125 7.28125 8.203125 15.1875 
L 8.203125 45.015625 
L 1.765625 45.015625 
L 1.765625 51.859375 
L 8.203125 51.859375 
L 8.203125 64.703125 
L 16.9375 69.96875 
L 16.9375 51.859375 
L 25.78125 51.859375 
L 25.78125 45.015625 
L 16.9375 45.015625 
L 16.9375 14.703125 
Q 16.9375 10.9375 17.40625 9.859375 
Q 17.875 8.796875 18.921875 8.15625 
Q 19.96875 7.515625 21.921875 7.515625 
Q 23.390625 7.515625 25.78125 7.859375 
z
" id="ArialMT-116"/>
      </defs>
      <use xlink:href="#ArialMT-112"/>
      <use x="55.615234" xlink:href="#ArialMT-101"/>
      <use x="111.230469" xlink:href="#ArialMT-114"/>
      <use x="144.53125" xlink:href="#ArialMT-95"/>
      <use x="200.146484" xlink:href="#ArialMT-118"/>
      <use x="250.146484" xlink:href="#ArialMT-97"/>
      <use x="305.761719" xlink:href="#ArialMT-99"/>
      <use x="355.761719" xlink:href="#ArialMT-97"/>
      <use x="411.376953" xlink:href="#ArialMT-110"/>
      <use x="466.992188" xlink:href="#ArialMT-116"/>
     </g>
    </g>
   </g>
   <g id="PolyCollection_1">
    <defs>
     <path d="M 175.725 -69.991083 
L 175.178825 -69.991083 
L 175.014957 -72.962576 
L 174.836815 -75.934069 
L 174.640611 -78.905563 
L 174.409414 -81.877056 
L 174.110208 -84.848549 
L 173.695993 -87.820042 
L 173.113524 -90.791536 
L 172.314813 -93.763029 
L 171.268595 -96.734522 
L 169.967668 -99.706016 
L 168.429941 -102.677509 
L 166.694365 -105.649002 
L 164.815867 -108.620495 
L 162.863904 -111.591989 
L 160.926243 -114.563482 
L 159.114256 -117.534975 
L 157.561637 -120.506468 
L 156.4084 -123.477962 
L 155.767859 -126.449455 
L 155.68369 -129.420948 
L 156.092174 -132.392442 
L 156.806641 -135.363935 
L 157.535405 -138.335428 
L 157.933923 -141.306921 
L 157.681052 -144.278415 
L 156.561777 -147.249908 
L 154.535635 -150.221401 
L 151.770718 -153.192895 
L 148.627855 -156.164388 
L 145.589771 -159.135881 
L 143.14588 -162.107374 
L 141.661342 -165.078868 
L 141.270843 -168.050361 
L 141.83495 -171.021854 
L 142.977035 -173.993347 
L 144.188823 -176.964841 
L 144.966623 -179.936334 
L 144.931454 -182.907827 
L 143.898484 -185.879321 
L 141.88657 -188.850814 
L 139.082702 -191.822307 
L 135.786805 -194.7938 
L 132.356948 -197.765294 
L 129.160799 -200.736787 
L 126.527441 -203.70828 
L 124.693182 -206.679774 
L 123.746003 -209.651267 
L 123.58795 -212.62276 
L 123.940992 -215.594253 
L 124.411045 -218.565747 
L 124.598949 -221.53724 
L 124.219912 -224.508733 
L 123.182518 -227.480226 
L 121.595074 -230.45172 
L 119.703538 -233.423213 
L 117.799373 -236.394706 
L 116.145034 -239.3662 
L 114.943774 -242.337693 
L 114.345 -245.309186 
L 114.453004 -248.280679 
L 115.312613 -251.252173 
L 116.874398 -254.223666 
L 118.970768 -257.195159 
L 121.33858 -260.166653 
L 123.698207 -263.138146 
L 125.860393 -266.109639 
L 127.807811 -269.081132 
L 129.705895 -272.052626 
L 131.833313 -275.024119 
L 134.463964 -277.995612 
L 137.754719 -280.967105 
L 141.684889 -283.938599 
L 146.06289 -286.910092 
L 150.58332 -289.881585 
L 154.901647 -292.853079 
L 158.698546 -295.824572 
L 161.722657 -298.796065 
L 163.815175 -301.767558 
L 164.923543 -304.739052 
L 165.106018 -307.710545 
L 164.522013 -310.682038 
L 163.402851 -313.653532 
L 162.005441 -316.625025 
L 160.562124 -319.596518 
L 159.245046 -322.568011 
L 158.157931 -325.539505 
L 157.354134 -328.510998 
L 156.866173 -331.482491 
L 156.727584 -334.453984 
L 156.975553 -337.425478 
L 157.636635 -340.396971 
L 158.708019 -343.368464 
L 160.147193 -346.339958 
L 161.875004 -349.311451 
L 163.78829 -352.282944 
L 165.774718 -355.254437 
L 167.724937 -358.225931 
L 169.541629 -361.197424 
L 171.147176 -364.168917 
L 175.725 -364.168917 
L 175.725 -364.168917 
L 175.725 -361.197424 
L 175.725 -358.225931 
L 175.725 -355.254437 
L 175.725 -352.282944 
L 175.725 -349.311451 
L 175.725 -346.339958 
L 175.725 -343.368464 
L 175.725 -340.396971 
L 175.725 -337.425478 
L 175.725 -334.453984 
L 175.725 -331.482491 
L 175.725 -328.510998 
L 175.725 -325.539505 
L 175.725 -322.568011 
L 175.725 -319.596518 
L 175.725 -316.625025 
L 175.725 -313.653532 
L 175.725 -310.682038 
L 175.725 -307.710545 
L 175.725 -304.739052 
L 175.725 -301.767558 
L 175.725 -298.796065 
L 175.725 -295.824572 
L 175.725 -292.853079 
L 175.725 -289.881585 
L 175.725 -286.910092 
L 175.725 -283.938599 
L 175.725 -280.967105 
L 175.725 -277.995612 
L 175.725 -275.024119 
L 175.725 -272.052626 
L 175.725 -269.081132 
L 175.725 -266.109639 
L 175.725 -263.138146 
L 175.725 -260.166653 
L 175.725 -257.195159 
L 175.725 -254.223666 
L 175.725 -251.252173 
L 175.725 -248.280679 
L 175.725 -245.309186 
L 175.725 -242.337693 
L 175.725 -239.3662 
L 175.725 -236.394706 
L 175.725 -233.423213 
L 175.725 -230.45172 
L 175.725 -227.480226 
L 175.725 -224.508733 
L 175.725 -221.53724 
L 175.725 -218.565747 
L 175.725 -215.594253 
L 175.725 -212.62276 
L 175.725 -209.651267 
L 175.725 -206.679774 
L 175.725 -203.70828 
L 175.725 -200.736787 
L 175.725 -197.765294 
L 175.725 -194.7938 
L 175.725 -191.822307 
L 175.725 -188.850814 
L 175.725 -185.879321 
L 175.725 -182.907827 
L 175.725 -179.936334 
L 175.725 -176.964841 
L 175.725 -173.993347 
L 175.725 -171.021854 
L 175.725 -168.050361 
L 175.725 -165.078868 
L 175.725 -162.107374 
L 175.725 -159.135881 
L 175.725 -156.164388 
L 175.725 -153.192895 
L 175.725 -150.221401 
L 175.725 -147.249908 
L 175.725 -144.278415 
L 175.725 -141.306921 
L 175.725 -138.335428 
L 175.725 -135.363935 
L 175.725 -132.392442 
L 175.725 -129.420948 
L 175.725 -126.449455 
L 175.725 -123.477962 
L 175.725 -120.506468 
L 175.725 -117.534975 
L 175.725 -114.563482 
L 175.725 -111.591989 
L 175.725 -108.620495 
L 175.725 -105.649002 
L 175.725 -102.677509 
L 175.725 -99.706016 
L 175.725 -96.734522 
L 175.725 -93.763029 
L 175.725 -90.791536 
L 175.725 -87.820042 
L 175.725 -84.848549 
L 175.725 -81.877056 
L 175.725 -78.905563 
L 175.725 -75.934069 
L 175.725 -72.962576 
L 175.725 -69.991083 
z
" id="mecc6da2b53" style="stroke:#363636;"/>
    </defs>
    <g clip-path="url(#p2f69f3b342)">
     <use style="fill:#176d9c;stroke:#363636;" x="0" xlink:href="#mecc6da2b53" y="432"/>
    </g>
   </g>
   <g id="PolyCollection_2">
    <defs>
     <path d="M 176.925184 -68.825455 
L 175.725 -68.825455 
L 175.725 -71.820496 
L 175.725 -74.815537 
L 175.725 -77.810579 
L 175.725 -80.80562 
L 175.725 -83.800661 
L 175.725 -86.795702 
L 175.725 -89.790744 
L 175.725 -92.785785 
L 175.725 -95.780826 
L 175.725 -98.775868 
L 175.725 -101.770909 
L 175.725 -104.76595 
L 175.725 -107.760992 
L 175.725 -110.756033 
L 175.725 -113.751074 
L 175.725 -116.746116 
L 175.725 -119.741157 
L 175.725 -122.736198 
L 175.725 -125.73124 
L 175.725 -128.726281 
L 175.725 -131.721322 
L 175.725 -134.716364 
L 175.725 -137.711405 
L 175.725 -140.706446 
L 175.725 -143.701488 
L 175.725 -146.696529 
L 175.725 -149.69157 
L 175.725 -152.686612 
L 175.725 -155.681653 
L 175.725 -158.676694 
L 175.725 -161.671736 
L 175.725 -164.666777 
L 175.725 -167.661818 
L 175.725 -170.65686 
L 175.725 -173.651901 
L 175.725 -176.646942 
L 175.725 -179.641983 
L 175.725 -182.637025 
L 175.725 -185.632066 
L 175.725 -188.627107 
L 175.725 -191.622149 
L 175.725 -194.61719 
L 175.725 -197.612231 
L 175.725 -200.607273 
L 175.725 -203.602314 
L 175.725 -206.597355 
L 175.725 -209.592397 
L 175.725 -212.587438 
L 175.725 -215.582479 
L 175.725 -218.577521 
L 175.725 -221.572562 
L 175.725 -224.567603 
L 175.725 -227.562645 
L 175.725 -230.557686 
L 175.725 -233.552727 
L 175.725 -236.547769 
L 175.725 -239.54281 
L 175.725 -242.537851 
L 175.725 -245.532893 
L 175.725 -248.527934 
L 175.725 -251.522975 
L 175.725 -254.518017 
L 175.725 -257.513058 
L 175.725 -260.508099 
L 175.725 -263.50314 
L 175.725 -266.498182 
L 175.725 -269.493223 
L 175.725 -272.488264 
L 175.725 -275.483306 
L 175.725 -278.478347 
L 175.725 -281.473388 
L 175.725 -284.46843 
L 175.725 -287.463471 
L 175.725 -290.458512 
L 175.725 -293.453554 
L 175.725 -296.448595 
L 175.725 -299.443636 
L 175.725 -302.438678 
L 175.725 -305.433719 
L 175.725 -308.42876 
L 175.725 -311.423802 
L 175.725 -314.418843 
L 175.725 -317.413884 
L 175.725 -320.408926 
L 175.725 -323.403967 
L 175.725 -326.399008 
L 175.725 -329.39405 
L 175.725 -332.389091 
L 175.725 -335.384132 
L 175.725 -338.379174 
L 175.725 -341.374215 
L 175.725 -344.369256 
L 175.725 -347.364298 
L 175.725 -350.359339 
L 175.725 -353.35438 
L 175.725 -356.349421 
L 175.725 -359.344463 
L 175.725 -362.339504 
L 175.725 -365.334545 
L 178.261165 -365.334545 
L 178.261165 -365.334545 
L 179.088378 -362.339504 
L 180.021105 -359.344463 
L 181.022697 -356.349421 
L 182.046077 -353.35438 
L 183.038262 -350.359339 
L 183.945875 -347.364298 
L 184.721008 -344.369256 
L 185.3265 -341.374215 
L 185.739368 -338.379174 
L 185.951332 -335.384132 
L 185.966443 -332.389091 
L 185.797409 -329.39405 
L 185.463384 -326.399008 
L 184.991552 -323.403967 
L 184.422678 -320.408926 
L 183.8179 -317.413884 
L 183.262224 -314.418843 
L 182.860758 -311.423802 
L 182.726574 -308.42876 
L 182.962691 -305.433719 
L 183.643084 -302.438678 
L 184.797787 -299.443636 
L 186.405452 -296.448595 
L 188.394514 -293.453554 
L 190.6527 -290.458512 
L 193.044069 -287.463471 
L 195.432166 -284.46843 
L 197.706125 -281.473388 
L 199.80373 -278.478347 
L 201.723391 -275.483306 
L 203.518076 -272.488264 
L 205.269795 -269.493223 
L 207.051607 -266.498182 
L 208.891147 -263.50314 
L 210.750871 -260.508099 
L 212.533872 -257.513058 
L 214.11282 -254.518017 
L 215.369366 -251.522975 
L 216.227742 -248.527934 
L 216.671089 -245.532893 
L 216.738888 -242.537851 
L 216.512512 -239.54281 
L 216.098413 -236.547769 
L 215.614461 -233.552727 
L 215.178337 -230.557686 
L 214.893212 -227.562645 
L 214.8279 -224.567603 
L 214.994932 -221.572562 
L 215.335695 -218.577521 
L 215.722745 -215.582479 
L 215.984289 -212.587438 
L 215.947219 -209.592397 
L 215.48741 -206.597355 
L 214.572882 -203.602314 
L 213.287702 -200.607273 
L 211.83044 -197.612231 
L 210.487455 -194.61719 
L 209.58591 -191.622149 
L 209.433826 -188.627107 
L 210.255682 -185.632066 
L 212.133714 -182.637025 
L 214.967112 -179.641983 
L 218.462102 -176.646942 
L 222.16255 -173.651901 
L 225.521913 -170.65686 
L 228.004655 -167.661818 
L 229.193609 -164.666777 
L 228.874983 -161.671736 
L 227.078017 -158.676694 
L 224.060366 -155.681653 
L 220.247263 -152.686612 
L 216.14526 -149.69157 
L 212.255221 -146.696529 
L 209.003804 -143.701488 
L 206.702029 -140.706446 
L 205.528967 -137.711405 
L 205.532276 -134.716364 
L 206.636618 -131.721322 
L 208.654419 -128.726281 
L 211.298482 -125.73124 
L 214.199999 -122.736198 
L 216.936928 -119.741157 
L 219.075923 -116.746116 
L 220.226352 -113.751074 
L 220.098968 -110.756033 
L 218.556711 -107.760992 
L 215.643478 -104.76595 
L 211.580227 -101.770909 
L 206.726002 -98.775868 
L 201.511828 -95.780826 
L 196.363869 -92.785785 
L 191.635226 -89.790744 
L 187.562125 -86.795702 
L 184.251519 -83.800661 
L 181.697151 -80.80562 
L 179.813672 -77.810579 
L 178.475811 -74.815537 
L 177.551797 -71.820496 
L 176.925184 -68.825455 
z
" id="mdeb60bdd4f" style="stroke:#363636;"/>
    </defs>
    <g clip-path="url(#p2f69f3b342)">
     <use style="fill:#c38820;stroke:#363636;" x="0" xlink:href="#mdeb60bdd4f" y="432"/>
    </g>
   </g>
   <g id="PolyCollection_3">
    <defs>
     <path d="M 329.175 -69.864817 
L 328.107424 -69.864817 
L 327.799263 -72.838861 
L 327.480135 -75.812905 
L 327.161606 -78.786949 
L 326.843633 -81.760993 
L 326.512154 -84.735037 
L 326.142759 -87.709081 
L 325.709237 -90.683125 
L 325.19264 -93.657169 
L 324.585546 -96.631214 
L 323.888628 -99.605258 
L 323.101554 -102.579302 
L 322.214822 -105.553346 
L 321.210285 -108.52739 
L 320.074247 -111.501434 
L 318.819687 -114.475478 
L 317.50718 -117.449522 
L 316.251769 -120.423566 
L 315.207395 -123.397611 
L 314.530063 -126.371655 
L 314.33104 -129.345699 
L 314.636873 -132.319743 
L 315.371007 -135.293787 
L 316.36352 -138.267831 
L 317.385406 -141.241875 
L 318.196642 -144.215919 
L 318.595447 -147.189963 
L 318.458425 -150.164008 
L 317.764752 -153.138052 
L 316.600063 -156.112096 
L 315.137473 -159.08614 
L 313.596186 -162.060184 
L 312.183854 -165.034228 
L 311.035955 -168.008272 
L 310.170132 -170.982316 
L 309.471687 -173.95636 
L 308.717209 -176.930405 
L 307.630212 -179.904449 
L 305.951945 -182.878493 
L 303.507322 -185.852537 
L 300.250849 -188.826581 
L 296.286136 -191.800625 
L 291.85937 -194.774669 
L 287.328853 -197.748713 
L 283.111351 -200.722757 
L 279.606676 -203.696802 
L 277.108771 -206.670846 
L 275.723431 -209.64489 
L 275.322362 -212.618934 
L 275.561038 -215.592978 
L 275.968755 -218.567022 
L 276.088535 -221.541066 
L 275.617369 -224.51511 
L 274.490897 -227.489154 
L 272.878878 -230.463198 
L 271.099288 -233.437243 
L 269.496761 -236.411287 
L 268.342895 -239.385331 
L 267.795 -242.359375 
L 267.910853 -245.333419 
L 268.686032 -248.307463 
L 270.07704 -251.281507 
L 271.996792 -254.255551 
L 274.29949 -257.229595 
L 276.785638 -260.20364 
L 279.245085 -263.177684 
L 281.526586 -266.151728 
L 283.598698 -269.125772 
L 285.566219 -272.099816 
L 287.629316 -275.07386 
L 290.003264 -278.047904 
L 292.835501 -281.021948 
L 296.153433 -283.995992 
L 299.85628 -286.970037 
L 303.742306 -289.944081 
L 307.552077 -292.918125 
L 311.011817 -295.892169 
L 313.871175 -298.866213 
L 315.936785 -301.840257 
L 317.101883 -304.814301 
L 317.366104 -307.788345 
L 316.83567 -310.762389 
L 315.698103 -313.736434 
L 314.176559 -316.710478 
L 312.480174 -319.684522 
L 310.770468 -322.658566 
L 309.156023 -325.63261 
L 307.712436 -328.606654 
L 306.511196 -331.580698 
L 305.638229 -334.554742 
L 305.191727 -337.528786 
L 305.262684 -340.502831 
L 305.910619 -343.476875 
L 307.14641 -346.450919 
L 308.926688 -349.424963 
L 311.157328 -352.399007 
L 313.702053 -355.373051 
L 316.395057 -358.347095 
L 319.059 -361.321139 
L 321.52829 -364.295183 
L 329.175 -364.295183 
L 329.175 -364.295183 
L 329.175 -361.321139 
L 329.175 -358.347095 
L 329.175 -355.373051 
L 329.175 -352.399007 
L 329.175 -349.424963 
L 329.175 -346.450919 
L 329.175 -343.476875 
L 329.175 -340.502831 
L 329.175 -337.528786 
L 329.175 -334.554742 
L 329.175 -331.580698 
L 329.175 -328.606654 
L 329.175 -325.63261 
L 329.175 -322.658566 
L 329.175 -319.684522 
L 329.175 -316.710478 
L 329.175 -313.736434 
L 329.175 -310.762389 
L 329.175 -307.788345 
L 329.175 -304.814301 
L 329.175 -301.840257 
L 329.175 -298.866213 
L 329.175 -295.892169 
L 329.175 -292.918125 
L 329.175 -289.944081 
L 329.175 -286.970037 
L 329.175 -283.995992 
L 329.175 -281.021948 
L 329.175 -278.047904 
L 329.175 -275.07386 
L 329.175 -272.099816 
L 329.175 -269.125772 
L 329.175 -266.151728 
L 329.175 -263.177684 
L 329.175 -260.20364 
L 329.175 -257.229595 
L 329.175 -254.255551 
L 329.175 -251.281507 
L 329.175 -248.307463 
L 329.175 -245.333419 
L 329.175 -242.359375 
L 329.175 -239.385331 
L 329.175 -236.411287 
L 329.175 -233.437243 
L 329.175 -230.463198 
L 329.175 -227.489154 
L 329.175 -224.51511 
L 329.175 -221.541066 
L 329.175 -218.567022 
L 329.175 -215.592978 
L 329.175 -212.618934 
L 329.175 -209.64489 
L 329.175 -206.670846 
L 329.175 -203.696802 
L 329.175 -200.722757 
L 329.175 -197.748713 
L 329.175 -194.774669 
L 329.175 -191.800625 
L 329.175 -188.826581 
L 329.175 -185.852537 
L 329.175 -182.878493 
L 329.175 -179.904449 
L 329.175 -176.930405 
L 329.175 -173.95636 
L 329.175 -170.982316 
L 329.175 -168.008272 
L 329.175 -165.034228 
L 329.175 -162.060184 
L 329.175 -159.08614 
L 329.175 -156.112096 
L 329.175 -153.138052 
L 329.175 -150.164008 
L 329.175 -147.189963 
L 329.175 -144.215919 
L 329.175 -141.241875 
L 329.175 -138.267831 
L 329.175 -135.293787 
L 329.175 -132.319743 
L 329.175 -129.345699 
L 329.175 -126.371655 
L 329.175 -123.397611 
L 329.175 -120.423566 
L 329.175 -117.449522 
L 329.175 -114.475478 
L 329.175 -111.501434 
L 329.175 -108.52739 
L 329.175 -105.553346 
L 329.175 -102.579302 
L 329.175 -99.605258 
L 329.175 -96.631214 
L 329.175 -93.657169 
L 329.175 -90.683125 
L 329.175 -87.709081 
L 329.175 -84.735037 
L 329.175 -81.760993 
L 329.175 -78.786949 
L 329.175 -75.812905 
L 329.175 -72.838861 
L 329.175 -69.864817 
z
" id="m701c84c4fa" style="stroke:#363636;"/>
    </defs>
    <g clip-path="url(#p2f69f3b342)">
     <use style="fill:#176d9c;stroke:#363636;" x="0" xlink:href="#m701c84c4fa" y="432"/>
    </g>
   </g>
   <g id="PolyCollection_4">
    <defs>
     <path d="M 329.860037 -69.270904 
L 329.175 -69.270904 
L 329.175 -72.256947 
L 329.175 -75.242989 
L 329.175 -78.229031 
L 329.175 -81.215074 
L 329.175 -84.201116 
L 329.175 -87.187158 
L 329.175 -90.173201 
L 329.175 -93.159243 
L 329.175 -96.145285 
L 329.175 -99.131328 
L 329.175 -102.11737 
L 329.175 -105.103412 
L 329.175 -108.089455 
L 329.175 -111.075497 
L 329.175 -114.061539 
L 329.175 -117.047582 
L 329.175 -120.033624 
L 329.175 -123.019666 
L 329.175 -126.005709 
L 329.175 -128.991751 
L 329.175 -131.977793 
L 329.175 -134.963836 
L 329.175 -137.949878 
L 329.175 -140.93592 
L 329.175 -143.921963 
L 329.175 -146.908005 
L 329.175 -149.894047 
L 329.175 -152.88009 
L 329.175 -155.866132 
L 329.175 -158.852174 
L 329.175 -161.838217 
L 329.175 -164.824259 
L 329.175 -167.810301 
L 329.175 -170.796344 
L 329.175 -173.782386 
L 329.175 -176.768428 
L 329.175 -179.754471 
L 329.175 -182.740513 
L 329.175 -185.726555 
L 329.175 -188.712598 
L 329.175 -191.69864 
L 329.175 -194.684682 
L 329.175 -197.670725 
L 329.175 -200.656767 
L 329.175 -203.642809 
L 329.175 -206.628852 
L 329.175 -209.614894 
L 329.175 -212.600936 
L 329.175 -215.586979 
L 329.175 -218.573021 
L 329.175 -221.559064 
L 329.175 -224.545106 
L 329.175 -227.531148 
L 329.175 -230.517191 
L 329.175 -233.503233 
L 329.175 -236.489275 
L 329.175 -239.475318 
L 329.175 -242.46136 
L 329.175 -245.447402 
L 329.175 -248.433445 
L 329.175 -251.419487 
L 329.175 -254.405529 
L 329.175 -257.391572 
L 329.175 -260.377614 
L 329.175 -263.363656 
L 329.175 -266.349699 
L 329.175 -269.335741 
L 329.175 -272.321783 
L 329.175 -275.307826 
L 329.175 -278.293868 
L 329.175 -281.27991 
L 329.175 -284.265953 
L 329.175 -287.251995 
L 329.175 -290.238037 
L 329.175 -293.22408 
L 329.175 -296.210122 
L 329.175 -299.196164 
L 329.175 -302.182207 
L 329.175 -305.168249 
L 329.175 -308.154291 
L 329.175 -311.140334 
L 329.175 -314.126376 
L 329.175 -317.112418 
L 329.175 -320.098461 
L 329.175 -323.084503 
L 329.175 -326.070545 
L 329.175 -329.056588 
L 329.175 -332.04263 
L 329.175 -335.028672 
L 329.175 -338.014715 
L 329.175 -341.000757 
L 329.175 -343.986799 
L 329.175 -346.972842 
L 329.175 -349.958884 
L 329.175 -352.944926 
L 329.175 -355.930969 
L 329.175 -358.917011 
L 329.175 -361.903053 
L 329.175 -364.889096 
L 333.006359 -364.889096 
L 333.006359 -364.889096 
L 334.294673 -361.903053 
L 335.750735 -358.917011 
L 337.314295 -355.930969 
L 338.907259 -352.944926 
L 340.440523 -349.958884 
L 341.822816 -346.972842 
L 342.97122 -343.986799 
L 343.822038 -341.000757 
L 344.339137 -338.014715 
L 344.516479 -335.028672 
L 344.37344 -332.04263 
L 343.945435 -329.056588 
L 343.27569 -326.070545 
L 342.414142 -323.084503 
L 341.4252 -320.098461 
L 340.399992 -317.112418 
L 339.464494 -314.126376 
L 338.775725 -311.140334 
L 338.503641 -308.154291 
L 338.803158 -305.168249 
L 339.784865 -302.182207 
L 341.492519 -299.196164 
L 343.891644 -296.210122 
L 346.869676 -293.22408 
L 350.246728 -290.238037 
L 353.797084 -287.251995 
L 357.282239 -284.265953 
L 360.493594 -281.27991 
L 363.296534 -278.293868 
L 365.661143 -275.307826 
L 367.66395 -272.321783 
L 369.453607 -269.335741 
L 371.188912 -266.349699 
L 372.972342 -263.363656 
L 374.806857 -260.377614 
L 376.594088 -257.391572 
L 378.172484 -254.405529 
L 379.37564 -251.419487 
L 380.084466 -248.433445 
L 380.255197 -245.447402 
L 379.921766 -242.46136 
L 379.184157 -239.475318 
L 378.195581 -236.489275 
L 377.151562 -233.503233 
L 376.27263 -230.517191 
L 375.769661 -227.531148 
L 375.79055 -224.545106 
L 376.36283 -221.559064 
L 377.357556 -218.573021 
L 378.496963 -215.586979 
L 379.412021 -212.600936 
L 379.734814 -209.614894 
L 379.195635 -206.628852 
L 377.693067 -203.642809 
L 375.316755 -200.656767 
L 372.320529 -197.670725 
L 369.059455 -194.684682 
L 365.912175 -191.69864 
L 363.208319 -188.712598 
L 361.17336 -185.726555 
L 359.895591 -182.740513 
L 359.315847 -179.754471 
L 359.240579 -176.768428 
L 359.379449 -173.782386 
L 359.405852 -170.796344 
L 359.031734 -167.810301 
L 358.079766 -164.824259 
L 356.53192 -161.838217 
L 354.537765 -158.852174 
L 352.377729 -155.866132 
L 350.391452 -152.88009 
L 348.892634 -149.894047 
L 348.095168 -146.908005 
L 348.070144 -143.921963 
L 348.74242 -140.93592 
L 349.922964 -137.949878 
L 351.363153 -134.963836 
L 352.812345 -131.977793 
L 354.061447 -128.991751 
L 354.962387 -126.005709 
L 355.423761 -123.019666 
L 355.392445 -120.033624 
L 354.835527 -117.047582 
L 353.73428 -114.061539 
L 352.093471 -111.075497 
L 349.959422 -108.089455 
L 347.434271 -105.103412 
L 344.674959 -102.11737 
L 341.872856 -99.131328 
L 339.219457 -96.145285 
L 336.870165 -93.159243 
L 334.918717 -90.173201 
L 333.389773 -87.187158 
L 332.249507 -84.201116 
L 331.42775 -81.215074 
L 330.842642 -78.229031 
L 330.420124 -75.242989 
L 330.104467 -72.256947 
L 329.860037 -69.270904 
z
" id="m8feb3a9e66" style="stroke:#363636;"/>
    </defs>
    <g clip-path="url(#p2f69f3b342)">
     <use style="fill:#c38820;stroke:#363636;" x="0" xlink:href="#m8feb3a9e66" y="432"/>
    </g>
   </g>
   <g id="PolyCollection_5">
    <defs>
     <path d="M 482.625 -70.557437 
L 482.244837 -70.557437 
L 482.110752 -73.517488 
L 481.951605 -76.47754 
L 481.75951 -79.437592 
L 481.519443 -82.397644 
L 481.211297 -85.357696 
L 480.815997 -88.317747 
L 480.323262 -91.277799 
L 479.736339 -94.237851 
L 479.069052 -97.197903 
L 478.333858 -100.157954 
L 477.52505 -103.118006 
L 476.60598 -106.078058 
L 475.510333 -109.03811 
L 474.16337 -111.998162 
L 472.520566 -114.958213 
L 470.61116 -117.918265 
L 468.567364 -120.878317 
L 466.620734 -123.838369 
L 465.057492 -126.798421 
L 464.141722 -129.758472 
L 464.031481 -132.718524 
L 464.71916 -135.678576 
L 466.019295 -138.638628 
L 467.608425 -141.598679 
L 469.102338 -144.558731 
L 470.145383 -147.518783 
L 470.487118 -150.478835 
L 470.029106 -153.438887 
L 468.833332 -156.398938 
L 467.090903 -159.35899 
L 465.057421 -162.319042 
L 462.971167 -165.279094 
L 460.979238 -168.239146 
L 459.09811 -171.199197 
L 457.223466 -174.159249 
L 455.182873 -177.119301 
L 452.805634 -180.079353 
L 449.979498 -183.039404 
L 446.677054 -185.999456 
L 442.95595 -188.959508 
L 438.951034 -191.91956 
L 434.873334 -194.879612 
L 431.014061 -197.839663 
L 427.735119 -200.799715 
L 425.424644 -203.759767 
L 424.411208 -206.719819 
L 424.856223 -209.679871 
L 426.666063 -212.639922 
L 429.469022 -215.599974 
L 432.681254 -218.560026 
L 435.646917 -221.520078 
L 437.80042 -224.480129 
L 438.786029 -227.440181 
L 438.493538 -230.400233 
L 437.016432 -233.360285 
L 434.580154 -236.320337 
L 431.493404 -239.280388 
L 428.140671 -242.24044 
L 424.986271 -245.200492 
L 422.538199 -248.160544 
L 421.245 -251.120596 
L 421.355063 -254.080647 
L 422.813099 -257.040699 
L 425.265914 -260.000751 
L 428.195033 -262.960803 
L 431.121157 -265.920854 
L 433.782236 -268.880906 
L 436.201101 -271.840958 
L 438.620085 -274.80101 
L 441.3493 -277.761062 
L 444.611236 -280.721113 
L 448.450625 -283.681165 
L 452.731242 -286.641217 
L 457.194181 -289.601269 
L 461.532435 -292.561321 
L 465.448487 -295.521372 
L 468.688043 -298.481424 
L 471.061855 -301.441476 
L 472.467749 -304.401528 
L 472.91161 -307.361579 
L 472.513684 -310.321631 
L 471.486535 -313.281683 
L 470.084828 -316.241735 
L 468.545432 -319.201787 
L 467.045774 -322.161838 
L 465.700114 -325.12189 
L 464.590694 -328.081942 
L 463.807865 -331.041994 
L 463.467029 -334.002046 
L 463.686412 -336.962097 
L 464.53761 -339.922149 
L 466.000467 -342.882201 
L 467.95137 -345.842253 
L 470.192459 -348.802304 
L 472.505189 -351.762356 
L 474.701375 -354.722408 
L 476.652208 -357.68246 
L 478.291852 -360.642512 
L 479.604778 -363.602563 
L 482.625 -363.602563 
L 482.625 -363.602563 
L 482.625 -360.642512 
L 482.625 -357.68246 
L 482.625 -354.722408 
L 482.625 -351.762356 
L 482.625 -348.802304 
L 482.625 -345.842253 
L 482.625 -342.882201 
L 482.625 -339.922149 
L 482.625 -336.962097 
L 482.625 -334.002046 
L 482.625 -331.041994 
L 482.625 -328.081942 
L 482.625 -325.12189 
L 482.625 -322.161838 
L 482.625 -319.201787 
L 482.625 -316.241735 
L 482.625 -313.281683 
L 482.625 -310.321631 
L 482.625 -307.361579 
L 482.625 -304.401528 
L 482.625 -301.441476 
L 482.625 -298.481424 
L 482.625 -295.521372 
L 482.625 -292.561321 
L 482.625 -289.601269 
L 482.625 -286.641217 
L 482.625 -283.681165 
L 482.625 -280.721113 
L 482.625 -277.761062 
L 482.625 -274.80101 
L 482.625 -271.840958 
L 482.625 -268.880906 
L 482.625 -265.920854 
L 482.625 -262.960803 
L 482.625 -260.000751 
L 482.625 -257.040699 
L 482.625 -254.080647 
L 482.625 -251.120596 
L 482.625 -248.160544 
L 482.625 -245.200492 
L 482.625 -242.24044 
L 482.625 -239.280388 
L 482.625 -236.320337 
L 482.625 -233.360285 
L 482.625 -230.400233 
L 482.625 -227.440181 
L 482.625 -224.480129 
L 482.625 -221.520078 
L 482.625 -218.560026 
L 482.625 -215.599974 
L 482.625 -212.639922 
L 482.625 -209.679871 
L 482.625 -206.719819 
L 482.625 -203.759767 
L 482.625 -200.799715 
L 482.625 -197.839663 
L 482.625 -194.879612 
L 482.625 -191.91956 
L 482.625 -188.959508 
L 482.625 -185.999456 
L 482.625 -183.039404 
L 482.625 -180.079353 
L 482.625 -177.119301 
L 482.625 -174.159249 
L 482.625 -171.199197 
L 482.625 -168.239146 
L 482.625 -165.279094 
L 482.625 -162.319042 
L 482.625 -159.35899 
L 482.625 -156.398938 
L 482.625 -153.438887 
L 482.625 -150.478835 
L 482.625 -147.518783 
L 482.625 -144.558731 
L 482.625 -141.598679 
L 482.625 -138.638628 
L 482.625 -135.678576 
L 482.625 -132.718524 
L 482.625 -129.758472 
L 482.625 -126.798421 
L 482.625 -123.838369 
L 482.625 -120.878317 
L 482.625 -117.918265 
L 482.625 -114.958213 
L 482.625 -111.998162 
L 482.625 -109.03811 
L 482.625 -106.078058 
L 482.625 -103.118006 
L 482.625 -100.157954 
L 482.625 -97.197903 
L 482.625 -94.237851 
L 482.625 -91.277799 
L 482.625 -88.317747 
L 482.625 -85.357696 
L 482.625 -82.397644 
L 482.625 -79.437592 
L 482.625 -76.47754 
L 482.625 -73.517488 
L 482.625 -70.557437 
z
" id="mb232abf759" style="stroke:#363636;"/>
    </defs>
    <g clip-path="url(#p2f69f3b342)">
     <use style="fill:#176d9c;stroke:#363636;" x="0" xlink:href="#mb232abf759" y="432"/>
    </g>
   </g>
   <g id="PolyCollection_6">
    <defs>
     <path d="M 483.146834 -69.673875 
L 482.625 -69.673875 
L 482.625 -72.651776 
L 482.625 -75.629678 
L 482.625 -78.607579 
L 482.625 -81.585481 
L 482.625 -84.563382 
L 482.625 -87.541284 
L 482.625 -90.519185 
L 482.625 -93.497087 
L 482.625 -96.474988 
L 482.625 -99.45289 
L 482.625 -102.430791 
L 482.625 -105.408693 
L 482.625 -108.386594 
L 482.625 -111.364496 
L 482.625 -114.342397 
L 482.625 -117.320299 
L 482.625 -120.2982 
L 482.625 -123.276102 
L 482.625 -126.254004 
L 482.625 -129.231905 
L 482.625 -132.209807 
L 482.625 -135.187708 
L 482.625 -138.16561 
L 482.625 -141.143511 
L 482.625 -144.121413 
L 482.625 -147.099314 
L 482.625 -150.077216 
L 482.625 -153.055117 
L 482.625 -156.033019 
L 482.625 -159.01092 
L 482.625 -161.988822 
L 482.625 -164.966723 
L 482.625 -167.944625 
L 482.625 -170.922526 
L 482.625 -173.900428 
L 482.625 -176.878329 
L 482.625 -179.856231 
L 482.625 -182.834132 
L 482.625 -185.812034 
L 482.625 -188.789936 
L 482.625 -191.767837 
L 482.625 -194.745739 
L 482.625 -197.72364 
L 482.625 -200.701542 
L 482.625 -203.679443 
L 482.625 -206.657345 
L 482.625 -209.635246 
L 482.625 -212.613148 
L 482.625 -215.591049 
L 482.625 -218.568951 
L 482.625 -221.546852 
L 482.625 -224.524754 
L 482.625 -227.502655 
L 482.625 -230.480557 
L 482.625 -233.458458 
L 482.625 -236.43636 
L 482.625 -239.414261 
L 482.625 -242.392163 
L 482.625 -245.370064 
L 482.625 -248.347966 
L 482.625 -251.325868 
L 482.625 -254.303769 
L 482.625 -257.281671 
L 482.625 -260.259572 
L 482.625 -263.237474 
L 482.625 -266.215375 
L 482.625 -269.193277 
L 482.625 -272.171178 
L 482.625 -275.14908 
L 482.625 -278.126981 
L 482.625 -281.104883 
L 482.625 -284.082784 
L 482.625 -287.060686 
L 482.625 -290.038587 
L 482.625 -293.016489 
L 482.625 -295.99439 
L 482.625 -298.972292 
L 482.625 -301.950193 
L 482.625 -304.928095 
L 482.625 -307.905996 
L 482.625 -310.883898 
L 482.625 -313.8618 
L 482.625 -316.839701 
L 482.625 -319.817603 
L 482.625 -322.795504 
L 482.625 -325.773406 
L 482.625 -328.751307 
L 482.625 -331.729209 
L 482.625 -334.70711 
L 482.625 -337.685012 
L 482.625 -340.662913 
L 482.625 -343.640815 
L 482.625 -346.618716 
L 482.625 -349.596618 
L 482.625 -352.574519 
L 482.625 -355.552421 
L 482.625 -358.530322 
L 482.625 -361.508224 
L 482.625 -364.486125 
L 486.254173 -364.486125 
L 486.254173 -364.486125 
L 487.565821 -361.508224 
L 489.08968 -358.530322 
L 490.776881 -355.552421 
L 492.555204 -352.574519 
L 494.332823 -349.596618 
L 496.006192 -346.618716 
L 497.472882 -343.640815 
L 498.647433 -340.662913 
L 499.474725 -337.685012 
L 499.934353 -334.70711 
L 500.033293 -331.729209 
L 499.791432 -328.751307 
L 499.230509 -325.773406 
L 498.376392 -322.795504 
L 497.276524 -319.817603 
L 496.023461 -316.839701 
L 494.769149 -313.8618 
L 493.717534 -310.883898 
L 493.093681 -307.905996 
L 493.099249 -304.928095 
L 493.870007 -301.950193 
L 495.44864 -298.972292 
L 497.778257 -295.99439 
L 500.71455 -293.016489 
L 504.051521 -290.038587 
L 507.557059 -287.060686 
L 511.016184 -284.082784 
L 514.277366 -281.104883 
L 517.290572 -278.126981 
L 520.119466 -275.14908 
L 522.912054 -272.171178 
L 525.828003 -269.193277 
L 528.942804 -266.215375 
L 532.167247 -263.237474 
L 535.222709 -260.259572 
L 537.693313 -257.281671 
L 539.142891 -254.303769 
L 539.254611 -251.325868 
L 537.940711 -248.347966 
L 535.384271 -245.370064 
L 532.005343 -242.392163 
L 528.372503 -239.414261 
L 525.093501 -236.43636 
L 522.712929 -233.458458 
L 521.629911 -230.480557 
L 522.037866 -227.502655 
L 523.887836 -224.524754 
L 526.883131 -221.546852 
L 530.51625 -218.568951 
L 534.15216 -215.591049 
L 537.146222 -212.613148 
L 538.969126 -209.635246 
L 539.305043 -206.657345 
L 538.096986 -203.679443 
L 535.531538 -200.701542 
L 531.974786 -197.72364 
L 527.883812 -194.745739 
L 523.719299 -191.767837 
L 519.876458 -188.789936 
L 516.639547 -185.812034 
L 514.156726 -182.834132 
L 512.430689 -179.856231 
L 511.325244 -176.878329 
L 510.593012 -173.900428 
L 509.928681 -170.922526 
L 509.043518 -167.944625 
L 507.744441 -164.966723 
L 505.992892 -161.988822 
L 503.921452 -159.01092 
L 501.799816 -156.033019 
L 499.959945 -153.055117 
L 498.70428 -150.077216 
L 498.22504 -147.099314 
L 498.556714 -144.121413 
L 499.572083 -141.143511 
L 501.019168 -138.16561 
L 502.585854 -135.187708 
L 503.972233 -132.209807 
L 504.949498 -129.231905 
L 505.389532 -126.254004 
L 505.260584 -123.276102 
L 504.597668 -120.2982 
L 503.465619 -117.320299 
L 501.932996 -114.342397 
L 500.066175 -111.364496 
L 497.940079 -108.386594 
L 495.652531 -105.408693 
L 493.328425 -102.430791 
L 491.107246 -99.45289 
L 489.11792 -96.474988 
L 487.452145 -93.497087 
L 486.147766 -90.519185 
L 485.188256 -87.541284 
L 484.516793 -84.563382 
L 484.057917 -81.585481 
L 483.738352 -78.607579 
L 483.500929 -75.629678 
L 483.309563 -72.651776 
L 483.146834 -69.673875 
z
" id="md2ff698eb5" style="stroke:#363636;"/>
    </defs>
    <g clip-path="url(#p2f69f3b342)">
     <use style="fill:#c38820;stroke:#363636;" x="0" xlink:href="#md2ff698eb5" y="432"/>
    </g>
   </g>
   <g id="PolyCollection_7">
    <defs>
     <path d="M 636.075 -69.409925 
L 635.264893 -69.409925 
L 634.981755 -72.393159 
L 634.628088 -75.376393 
L 634.175366 -78.359627 
L 633.577984 -81.342861 
L 632.774663 -84.326094 
L 631.696867 -87.309328 
L 630.283536 -90.292562 
L 628.498338 -93.275796 
L 626.343676 -96.25903 
L 623.866338 -99.242264 
L 621.152847 -102.225497 
L 618.317075 -105.208731 
L 615.485789 -108.191965 
L 612.787732 -111.175199 
L 610.348409 -114.158433 
L 608.287929 -117.141667 
L 606.716278 -120.1249 
L 605.72119 -123.108134 
L 605.348324 -126.091368 
L 605.579022 -129.074602 
L 606.314559 -132.057836 
L 607.375515 -135.04107 
L 608.521013 -138.024303 
L 609.486885 -141.007537 
L 610.036135 -143.990771 
L 610.010634 -146.974005 
L 609.370558 -149.957239 
L 608.20854 -152.940473 
L 606.730203 -155.923706 
L 605.201716 -158.90694 
L 603.876414 -161.890174 
L 602.921829 -164.873408 
L 602.370675 -167.856642 
L 602.11214 -170.839876 
L 601.925297 -173.823109 
L 601.541264 -176.806343 
L 600.712049 -179.789577 
L 599.265754 -182.772811 
L 597.137861 -185.756045 
L 594.379884 -188.739279 
L 591.152964 -191.722512 
L 587.712135 -194.705746 
L 584.380432 -197.68898 
L 581.507245 -200.672214 
L 579.407879 -203.655448 
L 578.291356 -206.638682 
L 578.19581 -209.621915 
L 578.957241 -212.605149 
L 580.231814 -215.588383 
L 581.574176 -218.571617 
L 582.551278 -221.554851 
L 582.854285 -224.538085 
L 582.369891 -227.521318 
L 581.189108 -230.504552 
L 579.558236 -233.487786 
L 577.799396 -236.47102 
L 576.234431 -239.454254 
L 575.134217 -242.437488 
L 574.695 -245.420721 
L 575.02858 -248.403955 
L 576.153472 -251.387189 
L 577.986931 -254.370423 
L 580.350862 -257.353657 
L 583.005909 -260.336891 
L 585.714343 -263.320124 
L 588.312574 -266.303358 
L 590.762335 -269.286592 
L 593.15524 -272.269826 
L 595.666275 -275.25306 
L 598.475751 -278.236294 
L 601.692596 -281.219527 
L 605.307994 -284.202761 
L 609.191554 -287.185995 
L 613.123144 -290.169229 
L 616.842499 -293.152463 
L 620.098857 -296.135697 
L 622.690318 -299.11893 
L 624.490298 -302.102164 
L 625.461747 -305.085398 
L 625.658853 -308.068632 
L 625.214593 -311.051866 
L 624.314105 -314.0351 
L 623.15892 -317.018333 
L 621.93218 -320.001567 
L 620.776041 -322.984801 
L 619.78743 -325.968035 
L 619.029568 -328.951269 
L 618.54932 -331.934503 
L 618.389004 -334.917736 
L 618.586493 -337.90097 
L 619.165429 -340.884204 
L 620.123 -343.867438 
L 621.422878 -346.850672 
L 622.996744 -349.833906 
L 624.752899 -352.817139 
L 626.588103 -355.800373 
L 628.39937 -358.783607 
L 630.094335 -361.766841 
L 631.599858 -364.750075 
L 636.075 -364.750075 
L 636.075 -364.750075 
L 636.075 -361.766841 
L 636.075 -358.783607 
L 636.075 -355.800373 
L 636.075 -352.817139 
L 636.075 -349.833906 
L 636.075 -346.850672 
L 636.075 -343.867438 
L 636.075 -340.884204 
L 636.075 -337.90097 
L 636.075 -334.917736 
L 636.075 -331.934503 
L 636.075 -328.951269 
L 636.075 -325.968035 
L 636.075 -322.984801 
L 636.075 -320.001567 
L 636.075 -317.018333 
L 636.075 -314.0351 
L 636.075 -311.051866 
L 636.075 -308.068632 
L 636.075 -305.085398 
L 636.075 -302.102164 
L 636.075 -299.11893 
L 636.075 -296.135697 
L 636.075 -293.152463 
L 636.075 -290.169229 
L 636.075 -287.185995 
L 636.075 -284.202761 
L 636.075 -281.219527 
L 636.075 -278.236294 
L 636.075 -275.25306 
L 636.075 -272.269826 
L 636.075 -269.286592 
L 636.075 -266.303358 
L 636.075 -263.320124 
L 636.075 -260.336891 
L 636.075 -257.353657 
L 636.075 -254.370423 
L 636.075 -251.387189 
L 636.075 -248.403955 
L 636.075 -245.420721 
L 636.075 -242.437488 
L 636.075 -239.454254 
L 636.075 -236.47102 
L 636.075 -233.487786 
L 636.075 -230.504552 
L 636.075 -227.521318 
L 636.075 -224.538085 
L 636.075 -221.554851 
L 636.075 -218.571617 
L 636.075 -215.588383 
L 636.075 -212.605149 
L 636.075 -209.621915 
L 636.075 -206.638682 
L 636.075 -203.655448 
L 636.075 -200.672214 
L 636.075 -197.68898 
L 636.075 -194.705746 
L 636.075 -191.722512 
L 636.075 -188.739279 
L 636.075 -185.756045 
L 636.075 -182.772811 
L 636.075 -179.789577 
L 636.075 -176.806343 
L 636.075 -173.823109 
L 636.075 -170.839876 
L 636.075 -167.856642 
L 636.075 -164.873408 
L 636.075 -161.890174 
L 636.075 -158.90694 
L 636.075 -155.923706 
L 636.075 -152.940473 
L 636.075 -149.957239 
L 636.075 -146.974005 
L 636.075 -143.990771 
L 636.075 -141.007537 
L 636.075 -138.024303 
L 636.075 -135.04107 
L 636.075 -132.057836 
L 636.075 -129.074602 
L 636.075 -126.091368 
L 636.075 -123.108134 
L 636.075 -120.1249 
L 636.075 -117.141667 
L 636.075 -114.158433 
L 636.075 -111.175199 
L 636.075 -108.191965 
L 636.075 -105.208731 
L 636.075 -102.225497 
L 636.075 -99.242264 
L 636.075 -96.25903 
L 636.075 -93.275796 
L 636.075 -90.292562 
L 636.075 -87.309328 
L 636.075 -84.326094 
L 636.075 -81.342861 
L 636.075 -78.359627 
L 636.075 -75.376393 
L 636.075 -72.393159 
L 636.075 -69.409925 
z
" id="m9779b3eccf" style="stroke:#363636;"/>
    </defs>
    <g clip-path="url(#p2f69f3b342)">
     <use style="fill:#176d9c;stroke:#363636;" x="0" xlink:href="#m9779b3eccf" y="432"/>
    </g>
   </g>
   <g id="PolyCollection_8">
    <defs>
     <path d="M 637.077527 -69.31755 
L 636.075 -69.31755 
L 636.075 -72.30265 
L 636.075 -75.28775 
L 636.075 -78.27285 
L 636.075 -81.25795 
L 636.075 -84.24305 
L 636.075 -87.22815 
L 636.075 -90.21325 
L 636.075 -93.19835 
L 636.075 -96.18345 
L 636.075 -99.16855 
L 636.075 -102.15365 
L 636.075 -105.13875 
L 636.075 -108.12385 
L 636.075 -111.10895 
L 636.075 -114.09405 
L 636.075 -117.07915 
L 636.075 -120.06425 
L 636.075 -123.04935 
L 636.075 -126.03445 
L 636.075 -129.01955 
L 636.075 -132.00465 
L 636.075 -134.98975 
L 636.075 -137.97485 
L 636.075 -140.95995 
L 636.075 -143.94505 
L 636.075 -146.93015 
L 636.075 -149.91525 
L 636.075 -152.90035 
L 636.075 -155.88545 
L 636.075 -158.87055 
L 636.075 -161.85565 
L 636.075 -164.84075 
L 636.075 -167.82585 
L 636.075 -170.81095 
L 636.075 -173.79605 
L 636.075 -176.78115 
L 636.075 -179.76625 
L 636.075 -182.75135 
L 636.075 -185.73645 
L 636.075 -188.72155 
L 636.075 -191.70665 
L 636.075 -194.69175 
L 636.075 -197.67685 
L 636.075 -200.66195 
L 636.075 -203.64705 
L 636.075 -206.63215 
L 636.075 -209.61725 
L 636.075 -212.60235 
L 636.075 -215.58745 
L 636.075 -218.57255 
L 636.075 -221.55765 
L 636.075 -224.54275 
L 636.075 -227.52785 
L 636.075 -230.51295 
L 636.075 -233.49805 
L 636.075 -236.48315 
L 636.075 -239.46825 
L 636.075 -242.45335 
L 636.075 -245.43845 
L 636.075 -248.42355 
L 636.075 -251.40865 
L 636.075 -254.39375 
L 636.075 -257.37885 
L 636.075 -260.36395 
L 636.075 -263.34905 
L 636.075 -266.33415 
L 636.075 -269.31925 
L 636.075 -272.30435 
L 636.075 -275.28945 
L 636.075 -278.27455 
L 636.075 -281.25965 
L 636.075 -284.24475 
L 636.075 -287.22985 
L 636.075 -290.21495 
L 636.075 -293.20005 
L 636.075 -296.18515 
L 636.075 -299.17025 
L 636.075 -302.15535 
L 636.075 -305.14045 
L 636.075 -308.12555 
L 636.075 -311.11065 
L 636.075 -314.09575 
L 636.075 -317.08085 
L 636.075 -320.06595 
L 636.075 -323.05105 
L 636.075 -326.03615 
L 636.075 -329.02125 
L 636.075 -332.00635 
L 636.075 -334.99145 
L 636.075 -337.97655 
L 636.075 -340.96165 
L 636.075 -343.94675 
L 636.075 -346.93185 
L 636.075 -349.91695 
L 636.075 -352.90205 
L 636.075 -355.88715 
L 636.075 -358.87225 
L 636.075 -361.85735 
L 636.075 -364.84245 
L 640.201915 -364.84245 
L 640.201915 -364.84245 
L 641.509678 -361.85735 
L 642.936917 -358.87225 
L 644.406604 -355.88715 
L 645.83249 -352.90205 
L 647.130177 -349.91695 
L 648.227024 -346.93185 
L 649.069726 -343.94675 
L 649.628906 -340.96165 
L 649.899926 -337.97655 
L 649.899111 -334.99145 
L 649.65591 -332.00635 
L 649.203938 -329.02125 
L 648.575813 -326.03615 
L 647.805951 -323.05105 
L 646.941495 -320.06595 
L 646.056218 -317.08085 
L 645.259038 -314.09575 
L 644.690124 -311.11065 
L 644.503003 -308.12555 
L 644.83748 -305.14045 
L 645.791835 -302.15535 
L 647.402095 -299.17025 
L 649.632394 -296.18515 
L 652.376699 -293.20005 
L 655.470839 -290.21495 
L 658.714672 -287.22985 
L 661.904834 -284.24475 
L 664.87584 -281.25965 
L 667.541196 -278.27455 
L 669.920076 -275.28945 
L 672.134522 -272.30435 
L 674.370382 -269.31925 
L 676.810299 -266.33415 
L 679.561268 -263.34905 
L 682.604197 -260.36395 
L 685.784518 -257.37885 
L 688.845435 -254.39375 
L 691.488595 -251.40865 
L 693.439959 -248.42355 
L 694.50357 -245.43845 
L 694.597107 -242.45335 
L 693.771237 -239.46825 
L 692.214645 -236.48315 
L 690.240389 -233.49805 
L 688.244992 -230.51295 
L 686.636442 -227.52785 
L 685.741018 -224.54275 
L 685.714222 -221.55765 
L 686.487669 -218.57255 
L 687.775796 -215.58745 
L 689.145907 -212.60235 
L 690.13181 -209.61725 
L 690.355718 -206.63215 
L 689.621937 -203.64705 
L 687.958316 -200.66195 
L 685.600816 -197.67685 
L 682.933739 -194.69175 
L 680.406581 -191.70665 
L 678.447006 -188.72155 
L 677.382448 -185.73645 
L 677.376898 -182.75135 
L 678.388897 -179.76625 
L 680.16015 -176.78115 
L 682.245842 -173.79605 
L 684.091723 -170.81095 
L 685.148517 -167.82585 
L 684.997433 -164.84075 
L 683.450932 -161.85565 
L 680.597279 -158.87055 
L 676.775355 -155.88545 
L 672.489716 -152.90035 
L 668.294475 -149.91525 
L 664.68104 -146.93015 
L 661.998027 -143.94505 
L 660.416812 -140.95995 
L 659.940008 -137.97485 
L 660.438387 -134.98975 
L 661.697161 -132.00465 
L 663.455177 -129.01955 
L 665.428775 -126.03445 
L 667.322439 -123.04935 
L 668.836649 -120.06425 
L 669.685428 -117.07915 
L 669.630169 -114.09405 
L 668.525024 -111.10895 
L 666.358292 -108.12385 
L 663.270544 -105.13875 
L 659.536538 -102.15365 
L 655.511854 -99.16855 
L 651.559515 -96.18345 
L 647.97964 -93.19835 
L 644.962875 -90.21325 
L 642.577902 -87.22815 
L 640.790316 -84.24305 
L 639.500528 -81.25795 
L 638.585192 -78.27285 
L 637.929765 -75.28775 
L 637.446368 -72.30265 
L 637.077527 -69.31755 
z
" id="mf1fadcb024" style="stroke:#363636;"/>
    </defs>
    <g clip-path="url(#p2f69f3b342)">
     <use style="fill:#c38820;stroke:#363636;" x="0" xlink:href="#mf1fadcb024" y="432"/>
    </g>
   </g>
   <g id="patch_3">
    <path clip-path="url(#p2f69f3b342)" d="M 175.725 386.889866 
L 175.725 386.889866 
L 175.725 386.889866 
L 175.725 386.889866 
z
" style="fill:#176d9c;stroke:#363636;stroke-linejoin:miter;stroke-width:0.5;"/>
   </g>
   <g id="patch_4">
    <path clip-path="url(#p2f69f3b342)" d="M 175.725 386.889866 
L 175.725 386.889866 
L 175.725 386.889866 
L 175.725 386.889866 
z
" style="fill:#c38820;stroke:#363636;stroke-linejoin:miter;stroke-width:0.5;"/>
   </g>
   <g id="line2d_7">
    <path clip-path="url(#p2f69f3b342)" d="M 136.186187 237.892743 
L 175.725 237.892743 
" style="fill:none;stroke:#363636;stroke-dasharray:1.5,1.5;stroke-dashoffset:0;"/>
   </g>
   <g id="line2d_8">
    <path clip-path="url(#p2f69f3b342)" d="M 120.263752 199.508743 
L 175.725 199.508743 
" style="fill:none;stroke:#363636;stroke-dasharray:3,3;stroke-dashoffset:0;"/>
   </g>
   <g id="line2d_9">
    <path clip-path="url(#p2f69f3b342)" d="M 128.286983 161.825972 
L 175.725 161.825972 
" style="fill:none;stroke:#363636;stroke-dasharray:1.5,1.5;stroke-dashoffset:0;"/>
   </g>
   <g id="line2d_10">
    <path clip-path="url(#p2f69f3b342)" d="M 175.725 286.227865 
L 211.889919 286.227865 
" style="fill:none;stroke:#363636;stroke-dasharray:1.5,1.5;stroke-dashoffset:0;"/>
   </g>
   <g id="line2d_11">
    <path clip-path="url(#p2f69f3b342)" d="M 175.725 237.892743 
L 210.13983 237.892743 
" style="fill:none;stroke:#363636;stroke-dasharray:3,3;stroke-dashoffset:0;"/>
   </g>
   <g id="line2d_12">
    <path clip-path="url(#p2f69f3b342)" d="M 175.725 188.387968 
L 216.328749 188.387968 
" style="fill:none;stroke:#363636;stroke-dasharray:1.5,1.5;stroke-dashoffset:0;"/>
   </g>
   <g id="line2d_13">
    <path clip-path="url(#p2f69f3b342)" d="M 277.629433 226.524604 
L 329.175 226.524604 
" style="fill:none;stroke:#363636;stroke-dasharray:1.5,1.5;stroke-dashoffset:0;"/>
   </g>
   <g id="line2d_14">
    <path clip-path="url(#p2f69f3b342)" d="M 270.093544 195.901852 
L 329.175 195.901852 
" style="fill:none;stroke:#363636;stroke-dasharray:3,3;stroke-dashoffset:0;"/>
   </g>
   <g id="line2d_15">
    <path clip-path="url(#p2f69f3b342)" d="M 288.044773 156.273854 
L 329.175 156.273854 
" style="fill:none;stroke:#363636;stroke-dasharray:1.5,1.5;stroke-dashoffset:0;"/>
   </g>
   <g id="line2d_16">
    <path clip-path="url(#p2f69f3b342)" d="M 329.175 261.900536 
L 359.103543 261.900536 
" style="fill:none;stroke:#363636;stroke-dasharray:1.5,1.5;stroke-dashoffset:0;"/>
   </g>
   <g id="line2d_17">
    <path clip-path="url(#p2f69f3b342)" d="M 329.175 216.572193 
L 378.003743 216.572193 
" style="fill:none;stroke:#363636;stroke-dasharray:3,3;stroke-dashoffset:0;"/>
   </g>
   <g id="line2d_18">
    <path clip-path="url(#p2f69f3b342)" d="M 329.175 176.760491 
L 377.68251 176.760491 
" style="fill:none;stroke:#363636;stroke-dasharray:1.5,1.5;stroke-dashoffset:0;"/>
   </g>
   <g id="line2d_19">
    <path clip-path="url(#p2f69f3b342)" d="M 431.53017 234.608471 
L 482.625 234.608471 
" style="fill:none;stroke:#363636;stroke-dasharray:1.5,1.5;stroke-dashoffset:0;"/>
   </g>
   <g id="line2d_20">
    <path clip-path="url(#p2f69f3b342)" d="M 437.472518 199.508743 
L 482.625 199.508743 
" style="fill:none;stroke:#363636;stroke-dasharray:3,3;stroke-dashoffset:0;"/>
   </g>
   <g id="line2d_21">
    <path clip-path="url(#p2f69f3b342)" d="M 434.270663 161.825972 
L 482.625 161.825972 
" style="fill:none;stroke:#363636;stroke-dasharray:1.5,1.5;stroke-dashoffset:0;"/>
   </g>
   <g id="line2d_22">
    <path clip-path="url(#p2f69f3b342)" d="M 482.625 246.282533 
L 516.299402 246.282533 
" style="fill:none;stroke:#363636;stroke-dasharray:1.5,1.5;stroke-dashoffset:0;"/>
   </g>
   <g id="line2d_23">
    <path clip-path="url(#p2f69f3b342)" d="M 482.625 216.572193 
L 533.636889 216.572193 
" style="fill:none;stroke:#363636;stroke-dasharray:3,3;stroke-dashoffset:0;"/>
   </g>
   <g id="line2d_24">
    <path clip-path="url(#p2f69f3b342)" d="M 482.625 172.102079 
L 534.696731 172.102079 
" style="fill:none;stroke:#363636;stroke-dasharray:1.5,1.5;stroke-dashoffset:0;"/>
   </g>
   <g id="line2d_25">
    <path clip-path="url(#p2f69f3b342)" d="M 602.451769 261.900536 
L 636.075 261.900536 
" style="fill:none;stroke:#363636;stroke-dasharray:1.5,1.5;stroke-dashoffset:0;"/>
   </g>
   <g id="line2d_26">
    <path clip-path="url(#p2f69f3b342)" d="M 580.790246 216.572193 
L 636.075 216.572193 
" style="fill:none;stroke:#363636;stroke-dasharray:3,3;stroke-dashoffset:0;"/>
   </g>
   <g id="line2d_27">
    <path clip-path="url(#p2f69f3b342)" d="M 578.567812 176.760491 
L 636.075 176.760491 
" style="fill:none;stroke:#363636;stroke-dasharray:1.5,1.5;stroke-dashoffset:0;"/>
   </g>
   <g id="line2d_28">
    <path clip-path="url(#p2f69f3b342)" d="M 636.075 266.063356 
L 684.508209 266.063356 
" style="fill:none;stroke:#363636;stroke-dasharray:1.5,1.5;stroke-dashoffset:0;"/>
   </g>
   <g id="line2d_29">
    <path clip-path="url(#p2f69f3b342)" d="M 636.075 223.245734 
L 689.591242 223.245734 
" style="fill:none;stroke:#363636;stroke-dasharray:3,3;stroke-dashoffset:0;"/>
   </g>
   <g id="line2d_30">
    <path clip-path="url(#p2f69f3b342)" d="M 636.075 179.440053 
L 690.93446 179.440053 
" style="fill:none;stroke:#363636;stroke-dasharray:1.5,1.5;stroke-dashoffset:0;"/>
   </g>
   <g id="legend_1">
    <g id="patch_5">
     <path d="M 649.721875 108.234062 
L 705.1 108.234062 
Q 707.3 108.234062 707.3 106.034063 
L 707.3 59.54 
Q 707.3 57.34 705.1 57.34 
L 649.721875 57.34 
Q 647.521875 57.34 647.521875 59.54 
L 647.521875 106.034063 
Q 647.521875 108.234062 649.721875 108.234062 
z
" style="fill:#ffffff;opacity:0.8;stroke:#cccccc;stroke-linejoin:miter;"/>
    </g>
    <g id="text_13">
     <!-- inv_occ -->
     <g style="fill:#262626;" transform="translate(657.068125 70.329375)scale(0.12 -0.12)">
      <defs>
       <path d="M 6.640625 61.46875 
L 6.640625 71.578125 
L 15.4375 71.578125 
L 15.4375 61.46875 
z
M 6.640625 0 
L 6.640625 51.859375 
L 15.4375 51.859375 
L 15.4375 0 
z
" id="ArialMT-105"/>
       <path d="M 3.328125 25.921875 
Q 3.328125 40.328125 11.328125 47.265625 
Q 18.015625 53.03125 27.640625 53.03125 
Q 38.328125 53.03125 45.109375 46.015625 
Q 51.90625 39.015625 51.90625 26.65625 
Q 51.90625 16.65625 48.90625 10.90625 
Q 45.90625 5.171875 40.15625 2 
Q 34.421875 -1.171875 27.640625 -1.171875 
Q 16.75 -1.171875 10.03125 5.8125 
Q 3.328125 12.796875 3.328125 25.921875 
z
M 12.359375 25.921875 
Q 12.359375 15.96875 16.703125 11.015625 
Q 21.046875 6.0625 27.640625 6.0625 
Q 34.1875 6.0625 38.53125 11.03125 
Q 42.875 16.015625 42.875 26.21875 
Q 42.875 35.84375 38.5 40.796875 
Q 34.125 45.75 27.640625 45.75 
Q 21.046875 45.75 16.703125 40.8125 
Q 12.359375 35.890625 12.359375 25.921875 
z
" id="ArialMT-111"/>
      </defs>
      <use xlink:href="#ArialMT-105"/>
      <use x="22.216797" xlink:href="#ArialMT-110"/>
      <use x="77.832031" xlink:href="#ArialMT-118"/>
      <use x="127.832031" xlink:href="#ArialMT-95"/>
      <use x="183.447266" xlink:href="#ArialMT-111"/>
      <use x="239.0625" xlink:href="#ArialMT-99"/>
      <use x="289.0625" xlink:href="#ArialMT-99"/>
     </g>
    </g>
    <g id="patch_6">
     <path d="M 651.921875 86.087969 
L 673.921875 86.087969 
L 673.921875 78.387969 
L 651.921875 78.387969 
z
" style="fill:#176d9c;stroke:#363636;stroke-linejoin:miter;stroke-width:0.5;"/>
    </g>
    <g id="text_14">
     <!-- inv -->
     <g style="fill:#262626;" transform="translate(682.721875 86.087969)scale(0.11 -0.11)">
      <use xlink:href="#ArialMT-105"/>
      <use x="22.216797" xlink:href="#ArialMT-110"/>
      <use x="77.832031" xlink:href="#ArialMT-118"/>
     </g>
    </g>
    <g id="patch_7">
     <path d="M 651.921875 101.647812 
L 673.921875 101.647812 
L 673.921875 93.947812 
L 651.921875 93.947812 
z
" style="fill:#c38820;stroke:#363636;stroke-linejoin:miter;stroke-width:0.5;"/>
    </g>
    <g id="text_15">
     <!-- own -->
     <g style="fill:#262626;" transform="translate(682.721875 101.647812)scale(0.11 -0.11)">
      <defs>
       <path d="M 16.15625 0 
L 0.296875 51.859375 
L 9.375 51.859375 
L 17.625 21.921875 
L 20.703125 10.796875 
Q 20.90625 11.625 23.390625 21.484375 
L 31.640625 51.859375 
L 40.671875 51.859375 
L 48.4375 21.78125 
L 51.03125 11.859375 
L 54 21.875 
L 62.890625 51.859375 
L 71.4375 51.859375 
L 55.21875 0 
L 46.09375 0 
L 37.84375 31.0625 
L 35.84375 39.890625 
L 25.34375 0 
z
" id="ArialMT-119"/>
      </defs>
      <use xlink:href="#ArialMT-111"/>
      <use x="55.615234" xlink:href="#ArialMT-119"/>
      <use x="127.832031" xlink:href="#ArialMT-110"/>
     </g>
    </g>
   </g>
  </g>
 </g>
 <defs>
  <clipPath id="p2f69f3b342">
   <rect height="326.16" width="613.8" x="99" y="51.84"/>
  </clipPath>
 </defs>
</svg>
