<?xml version="1.0" encoding="utf-8" standalone="no"?>
<!DOCTYPE svg PUBLIC "-//W3C//DTD SVG 1.1//EN"
  "http://www.w3.org/Graphics/SVG/1.1/DTD/svg11.dtd">
<!-- Created with matplotlib (https://matplotlib.org/) -->
<svg height="432pt" version="1.1" viewBox="0 0 792 432" width="792pt" xmlns="http://www.w3.org/2000/svg" xmlns:xlink="http://www.w3.org/1999/xlink">
 <metadata>
  <rdf:RDF xmlns:cc="http://creativecommons.org/ns#" xmlns:dc="http://purl.org/dc/elements/1.1/" xmlns:rdf="http://www.w3.org/1999/02/22-rdf-syntax-ns#">
   <cc:Work>
    <dc:type rdf:resource="http://purl.org/dc/dcmitype/StillImage"/>
    <dc:date>2021-08-19T08:05:07.560853</dc:date>
    <dc:format>image/svg+xml</dc:format>
    <dc:creator>
     <cc:Agent>
      <dc:title>Matplotlib v3.3.1, https://matplotlib.org/</dc:title>
     </cc:Agent>
    </dc:creator>
   </cc:Work>
  </rdf:RDF>
 </metadata>
 <defs>
  <style type="text/css">*{stroke-linecap:butt;stroke-linejoin:round;}</style>
 </defs>
 <g id="figure_1">
  <g id="patch_1">
   <path d="M 0 432 
L 792 432 
L 792 0 
L 0 0 
z
" style="fill:#ffffff;"/>
  </g>
  <g id="axes_1">
   <g id="patch_2">
    <path d="M 99 378 
L 712.8 378 
L 712.8 51.84 
L 99 51.84 
z
" style="fill:#ffffff;"/>
   </g>
   <g id="matplotlib.axis_1">
    <g id="xtick_1">
     <g id="text_1">
      <!-- 2000-2006 -->
      <g style="fill:#262626;" transform="translate(149.425547 395.373594)scale(0.11 -0.11)">
       <defs>
        <path d="M 50.34375 8.453125 
L 50.34375 0 
L 3.03125 0 
Q 2.9375 3.171875 4.046875 6.109375 
Q 5.859375 10.9375 9.828125 15.625 
Q 13.8125 20.3125 21.34375 26.46875 
Q 33.015625 36.03125 37.109375 41.625 
Q 41.21875 47.21875 41.21875 52.203125 
Q 41.21875 57.421875 37.46875 61 
Q 33.734375 64.59375 27.734375 64.59375 
Q 21.390625 64.59375 17.578125 60.78125 
Q 13.765625 56.984375 13.71875 50.25 
L 4.6875 51.171875 
Q 5.609375 61.28125 11.65625 66.578125 
Q 17.71875 71.875 27.9375 71.875 
Q 38.234375 71.875 44.234375 66.15625 
Q 50.25 60.453125 50.25 52 
Q 50.25 47.703125 48.484375 43.546875 
Q 46.734375 39.40625 42.65625 34.8125 
Q 38.578125 30.21875 29.109375 22.21875 
Q 21.1875 15.578125 18.9375 13.203125 
Q 16.703125 10.84375 15.234375 8.453125 
z
" id="ArialMT-50"/>
        <path d="M 4.15625 35.296875 
Q 4.15625 48 6.765625 55.734375 
Q 9.375 63.484375 14.515625 67.671875 
Q 19.671875 71.875 27.484375 71.875 
Q 33.25 71.875 37.59375 69.546875 
Q 41.9375 67.234375 44.765625 62.859375 
Q 47.609375 58.5 49.21875 52.21875 
Q 50.828125 45.953125 50.828125 35.296875 
Q 50.828125 22.703125 48.234375 14.96875 
Q 45.65625 7.234375 40.5 3 
Q 35.359375 -1.21875 27.484375 -1.21875 
Q 17.140625 -1.21875 11.234375 6.203125 
Q 4.15625 15.140625 4.15625 35.296875 
z
M 13.1875 35.296875 
Q 13.1875 17.671875 17.3125 11.828125 
Q 21.4375 6 27.484375 6 
Q 33.546875 6 37.671875 11.859375 
Q 41.796875 17.71875 41.796875 35.296875 
Q 41.796875 52.984375 37.671875 58.78125 
Q 33.546875 64.59375 27.390625 64.59375 
Q 21.34375 64.59375 17.71875 59.46875 
Q 13.1875 52.9375 13.1875 35.296875 
z
" id="ArialMT-48"/>
        <path d="M 3.171875 21.484375 
L 3.171875 30.328125 
L 30.171875 30.328125 
L 30.171875 21.484375 
z
" id="ArialMT-45"/>
        <path d="M 49.75 54.046875 
L 41.015625 53.375 
Q 39.84375 58.546875 37.703125 60.890625 
Q 34.125 64.65625 28.90625 64.65625 
Q 24.703125 64.65625 21.53125 62.3125 
Q 17.390625 59.28125 14.984375 53.46875 
Q 12.59375 47.65625 12.5 36.921875 
Q 15.671875 41.75 20.265625 44.09375 
Q 24.859375 46.4375 29.890625 46.4375 
Q 38.671875 46.4375 44.84375 39.96875 
Q 51.03125 33.5 51.03125 23.25 
Q 51.03125 16.5 48.125 10.71875 
Q 45.21875 4.9375 40.140625 1.859375 
Q 35.0625 -1.21875 28.609375 -1.21875 
Q 17.625 -1.21875 10.6875 6.859375 
Q 3.765625 14.9375 3.765625 33.5 
Q 3.765625 54.25 11.421875 63.671875 
Q 18.109375 71.875 29.4375 71.875 
Q 37.890625 71.875 43.28125 67.140625 
Q 48.6875 62.40625 49.75 54.046875 
z
M 13.875 23.1875 
Q 13.875 18.65625 15.796875 14.5 
Q 17.71875 10.359375 21.1875 8.171875 
Q 24.65625 6 28.46875 6 
Q 34.03125 6 38.03125 10.484375 
Q 42.046875 14.984375 42.046875 22.703125 
Q 42.046875 30.125 38.078125 34.390625 
Q 34.125 38.671875 28.125 38.671875 
Q 22.171875 38.671875 18.015625 34.390625 
Q 13.875 30.125 13.875 23.1875 
z
" id="ArialMT-54"/>
       </defs>
       <use xlink:href="#ArialMT-50"/>
       <use x="55.615234" xlink:href="#ArialMT-48"/>
       <use x="111.230469" xlink:href="#ArialMT-48"/>
       <use x="166.845703" xlink:href="#ArialMT-48"/>
       <use x="222.460938" xlink:href="#ArialMT-45"/>
       <use x="255.761719" xlink:href="#ArialMT-50"/>
       <use x="311.376953" xlink:href="#ArialMT-48"/>
       <use x="366.992188" xlink:href="#ArialMT-48"/>
       <use x="422.607422" xlink:href="#ArialMT-54"/>
      </g>
     </g>
    </g>
    <g id="xtick_2">
     <g id="text_2">
      <!-- 2007-2009 -->
      <g style="fill:#262626;" transform="translate(302.875547 395.373594)scale(0.11 -0.11)">
       <defs>
        <path d="M 4.734375 62.203125 
L 4.734375 70.65625 
L 51.078125 70.65625 
L 51.078125 63.8125 
Q 44.234375 56.546875 37.515625 44.484375 
Q 30.8125 32.421875 27.15625 19.671875 
Q 24.515625 10.6875 23.78125 0 
L 14.75 0 
Q 14.890625 8.453125 18.0625 20.40625 
Q 21.234375 32.375 27.171875 43.484375 
Q 33.109375 54.59375 39.796875 62.203125 
z
" id="ArialMT-55"/>
        <path d="M 5.46875 16.546875 
L 13.921875 17.328125 
Q 14.984375 11.375 18.015625 8.6875 
Q 21.046875 6 25.78125 6 
Q 29.828125 6 32.875 7.859375 
Q 35.9375 9.71875 37.890625 12.8125 
Q 39.84375 15.921875 41.15625 21.1875 
Q 42.484375 26.46875 42.484375 31.9375 
Q 42.484375 32.515625 42.4375 33.6875 
Q 39.796875 29.5 35.234375 26.875 
Q 30.671875 24.265625 25.34375 24.265625 
Q 16.453125 24.265625 10.296875 30.703125 
Q 4.15625 37.15625 4.15625 47.703125 
Q 4.15625 58.59375 10.578125 65.234375 
Q 17 71.875 26.65625 71.875 
Q 33.640625 71.875 39.421875 68.109375 
Q 45.21875 64.359375 48.21875 57.390625 
Q 51.21875 50.4375 51.21875 37.25 
Q 51.21875 23.53125 48.234375 15.40625 
Q 45.265625 7.28125 39.375 3.03125 
Q 33.5 -1.21875 25.59375 -1.21875 
Q 17.1875 -1.21875 11.859375 3.4375 
Q 6.546875 8.109375 5.46875 16.546875 
z
M 41.453125 48.140625 
Q 41.453125 55.71875 37.421875 60.15625 
Q 33.40625 64.59375 27.734375 64.59375 
Q 21.875 64.59375 17.53125 59.8125 
Q 13.1875 55.03125 13.1875 47.40625 
Q 13.1875 40.578125 17.3125 36.296875 
Q 21.4375 32.03125 27.484375 32.03125 
Q 33.59375 32.03125 37.515625 36.296875 
Q 41.453125 40.578125 41.453125 48.140625 
z
" id="ArialMT-57"/>
       </defs>
       <use xlink:href="#ArialMT-50"/>
       <use x="55.615234" xlink:href="#ArialMT-48"/>
       <use x="111.230469" xlink:href="#ArialMT-48"/>
       <use x="166.845703" xlink:href="#ArialMT-55"/>
       <use x="222.460938" xlink:href="#ArialMT-45"/>
       <use x="255.761719" xlink:href="#ArialMT-50"/>
       <use x="311.376953" xlink:href="#ArialMT-48"/>
       <use x="366.992188" xlink:href="#ArialMT-48"/>
       <use x="422.607422" xlink:href="#ArialMT-57"/>
      </g>
     </g>
    </g>
    <g id="xtick_3">
     <g id="text_3">
      <!-- 2010-2013 -->
      <g style="fill:#262626;" transform="translate(456.325547 395.373594)scale(0.11 -0.11)">
       <defs>
        <path d="M 37.25 0 
L 28.46875 0 
L 28.46875 56 
Q 25.296875 52.984375 20.140625 49.953125 
Q 14.984375 46.921875 10.890625 45.40625 
L 10.890625 53.90625 
Q 18.265625 57.375 23.78125 62.296875 
Q 29.296875 67.234375 31.59375 71.875 
L 37.25 71.875 
z
" id="ArialMT-49"/>
        <path d="M 4.203125 18.890625 
L 12.984375 20.0625 
Q 14.5 12.59375 18.140625 9.296875 
Q 21.78125 6 27 6 
Q 33.203125 6 37.46875 10.296875 
Q 41.75 14.59375 41.75 20.953125 
Q 41.75 27 37.796875 30.921875 
Q 33.84375 34.859375 27.734375 34.859375 
Q 25.25 34.859375 21.53125 33.890625 
L 22.515625 41.609375 
Q 23.390625 41.5 23.921875 41.5 
Q 29.546875 41.5 34.03125 44.421875 
Q 38.53125 47.359375 38.53125 53.46875 
Q 38.53125 58.296875 35.25 61.46875 
Q 31.984375 64.65625 26.8125 64.65625 
Q 21.6875 64.65625 18.265625 61.421875 
Q 14.84375 58.203125 13.875 51.765625 
L 5.078125 53.328125 
Q 6.6875 62.15625 12.390625 67.015625 
Q 18.109375 71.875 26.609375 71.875 
Q 32.46875 71.875 37.390625 69.359375 
Q 42.328125 66.84375 44.9375 62.5 
Q 47.5625 58.15625 47.5625 53.265625 
Q 47.5625 48.640625 45.0625 44.828125 
Q 42.578125 41.015625 37.703125 38.765625 
Q 44.046875 37.3125 47.5625 32.6875 
Q 51.078125 28.078125 51.078125 21.140625 
Q 51.078125 11.765625 44.234375 5.25 
Q 37.40625 -1.265625 26.953125 -1.265625 
Q 17.53125 -1.265625 11.296875 4.34375 
Q 5.078125 9.96875 4.203125 18.890625 
z
" id="ArialMT-51"/>
       </defs>
       <use xlink:href="#ArialMT-50"/>
       <use x="55.615234" xlink:href="#ArialMT-48"/>
       <use x="111.230469" xlink:href="#ArialMT-49"/>
       <use x="166.845703" xlink:href="#ArialMT-48"/>
       <use x="222.460938" xlink:href="#ArialMT-45"/>
       <use x="255.761719" xlink:href="#ArialMT-50"/>
       <use x="311.376953" xlink:href="#ArialMT-48"/>
       <use x="366.992188" xlink:href="#ArialMT-49"/>
       <use x="422.607422" xlink:href="#ArialMT-51"/>
      </g>
     </g>
    </g>
    <g id="xtick_4">
     <g id="text_4">
      <!-- 2014-2018 -->
      <g style="fill:#262626;" transform="translate(609.775547 395.373594)scale(0.11 -0.11)">
       <defs>
        <path d="M 32.328125 0 
L 32.328125 17.140625 
L 1.265625 17.140625 
L 1.265625 25.203125 
L 33.9375 71.578125 
L 41.109375 71.578125 
L 41.109375 25.203125 
L 50.78125 25.203125 
L 50.78125 17.140625 
L 41.109375 17.140625 
L 41.109375 0 
z
M 32.328125 25.203125 
L 32.328125 57.46875 
L 9.90625 25.203125 
z
" id="ArialMT-52"/>
        <path d="M 17.671875 38.8125 
Q 12.203125 40.828125 9.5625 44.53125 
Q 6.9375 48.25 6.9375 53.421875 
Q 6.9375 61.234375 12.546875 66.546875 
Q 18.171875 71.875 27.484375 71.875 
Q 36.859375 71.875 42.578125 66.421875 
Q 48.296875 60.984375 48.296875 53.171875 
Q 48.296875 48.1875 45.671875 44.5 
Q 43.0625 40.828125 37.75 38.8125 
Q 44.34375 36.671875 47.78125 31.875 
Q 51.21875 27.09375 51.21875 20.453125 
Q 51.21875 11.28125 44.71875 5.03125 
Q 38.234375 -1.21875 27.640625 -1.21875 
Q 17.046875 -1.21875 10.546875 5.046875 
Q 4.046875 11.328125 4.046875 20.703125 
Q 4.046875 27.6875 7.59375 32.390625 
Q 11.140625 37.109375 17.671875 38.8125 
z
M 15.921875 53.71875 
Q 15.921875 48.640625 19.1875 45.40625 
Q 22.46875 42.1875 27.6875 42.1875 
Q 32.765625 42.1875 36.015625 45.375 
Q 39.265625 48.578125 39.265625 53.21875 
Q 39.265625 58.0625 35.90625 61.359375 
Q 32.5625 64.65625 27.59375 64.65625 
Q 22.5625 64.65625 19.234375 61.421875 
Q 15.921875 58.203125 15.921875 53.71875 
z
M 13.09375 20.65625 
Q 13.09375 16.890625 14.875 13.375 
Q 16.65625 9.859375 20.171875 7.921875 
Q 23.6875 6 27.734375 6 
Q 34.03125 6 38.125 10.046875 
Q 42.234375 14.109375 42.234375 20.359375 
Q 42.234375 26.703125 38.015625 30.859375 
Q 33.796875 35.015625 27.4375 35.015625 
Q 21.234375 35.015625 17.15625 30.90625 
Q 13.09375 26.8125 13.09375 20.65625 
z
" id="ArialMT-56"/>
       </defs>
       <use xlink:href="#ArialMT-50"/>
       <use x="55.615234" xlink:href="#ArialMT-48"/>
       <use x="111.230469" xlink:href="#ArialMT-49"/>
       <use x="166.845703" xlink:href="#ArialMT-52"/>
       <use x="222.460938" xlink:href="#ArialMT-45"/>
       <use x="255.761719" xlink:href="#ArialMT-50"/>
       <use x="311.376953" xlink:href="#ArialMT-48"/>
       <use x="366.992188" xlink:href="#ArialMT-49"/>
       <use x="422.607422" xlink:href="#ArialMT-56"/>
      </g>
     </g>
    </g>
    <g id="text_5">
     <!-- year -->
     <g style="fill:#262626;" transform="translate(394.229063 410.008594)scale(0.12 -0.12)">
      <defs>
       <path d="M 6.203125 -19.96875 
L 5.21875 -11.71875 
Q 8.109375 -12.5 10.25 -12.5 
Q 13.1875 -12.5 14.9375 -11.515625 
Q 16.703125 -10.546875 17.828125 -8.796875 
Q 18.65625 -7.46875 20.515625 -2.25 
Q 20.75 -1.515625 21.296875 -0.09375 
L 1.609375 51.859375 
L 11.078125 51.859375 
L 21.875 21.828125 
Q 23.96875 16.109375 25.640625 9.8125 
Q 27.15625 15.875 29.25 21.625 
L 40.328125 51.859375 
L 49.125 51.859375 
L 29.390625 -0.875 
Q 26.21875 -9.421875 24.46875 -12.640625 
Q 22.125 -17 19.09375 -19.015625 
Q 16.0625 -21.046875 11.859375 -21.046875 
Q 9.328125 -21.046875 6.203125 -19.96875 
z
" id="ArialMT-121"/>
       <path d="M 42.09375 16.703125 
L 51.171875 15.578125 
Q 49.03125 7.625 43.21875 3.21875 
Q 37.40625 -1.171875 28.375 -1.171875 
Q 17 -1.171875 10.328125 5.828125 
Q 3.65625 12.84375 3.65625 25.484375 
Q 3.65625 38.578125 10.390625 45.796875 
Q 17.140625 53.03125 27.875 53.03125 
Q 38.28125 53.03125 44.875 45.953125 
Q 51.46875 38.875 51.46875 26.03125 
Q 51.46875 25.25 51.421875 23.6875 
L 12.75 23.6875 
Q 13.234375 15.140625 17.578125 10.59375 
Q 21.921875 6.0625 28.421875 6.0625 
Q 33.25 6.0625 36.671875 8.59375 
Q 40.09375 11.140625 42.09375 16.703125 
z
M 13.234375 30.90625 
L 42.1875 30.90625 
Q 41.609375 37.453125 38.875 40.71875 
Q 34.671875 45.796875 27.984375 45.796875 
Q 21.921875 45.796875 17.796875 41.75 
Q 13.671875 37.703125 13.234375 30.90625 
z
" id="ArialMT-101"/>
       <path d="M 40.4375 6.390625 
Q 35.546875 2.25 31.03125 0.53125 
Q 26.515625 -1.171875 21.34375 -1.171875 
Q 12.796875 -1.171875 8.203125 3 
Q 3.609375 7.171875 3.609375 13.671875 
Q 3.609375 17.484375 5.34375 20.625 
Q 7.078125 23.78125 9.890625 25.6875 
Q 12.703125 27.59375 16.21875 28.5625 
Q 18.796875 29.25 24.03125 29.890625 
Q 34.671875 31.15625 39.703125 32.90625 
Q 39.75 34.71875 39.75 35.203125 
Q 39.75 40.578125 37.25 42.78125 
Q 33.890625 45.75 27.25 45.75 
Q 21.046875 45.75 18.09375 43.578125 
Q 15.140625 41.40625 13.71875 35.890625 
L 5.125 37.0625 
Q 6.296875 42.578125 8.984375 45.96875 
Q 11.671875 49.359375 16.75 51.1875 
Q 21.828125 53.03125 28.515625 53.03125 
Q 35.15625 53.03125 39.296875 51.46875 
Q 43.453125 49.90625 45.40625 47.53125 
Q 47.359375 45.171875 48.140625 41.546875 
Q 48.578125 39.3125 48.578125 33.453125 
L 48.578125 21.734375 
Q 48.578125 9.46875 49.140625 6.21875 
Q 49.703125 2.984375 51.375 0 
L 42.1875 0 
Q 40.828125 2.734375 40.4375 6.390625 
z
M 39.703125 26.03125 
Q 34.90625 24.078125 25.34375 22.703125 
Q 19.921875 21.921875 17.671875 20.9375 
Q 15.4375 19.96875 14.203125 18.09375 
Q 12.984375 16.21875 12.984375 13.921875 
Q 12.984375 10.40625 15.640625 8.0625 
Q 18.3125 5.71875 23.4375 5.71875 
Q 28.515625 5.71875 32.46875 7.9375 
Q 36.421875 10.15625 38.28125 14.015625 
Q 39.703125 17 39.703125 22.796875 
z
" id="ArialMT-97"/>
       <path d="M 6.5 0 
L 6.5 51.859375 
L 14.40625 51.859375 
L 14.40625 44 
Q 17.4375 49.515625 20 51.265625 
Q 22.5625 53.03125 25.640625 53.03125 
Q 30.078125 53.03125 34.671875 50.203125 
L 31.640625 42.046875 
Q 28.421875 43.953125 25.203125 43.953125 
Q 22.3125 43.953125 20.015625 42.21875 
Q 17.71875 40.484375 16.75 37.40625 
Q 15.28125 32.71875 15.28125 27.15625 
L 15.28125 0 
z
" id="ArialMT-114"/>
      </defs>
      <use xlink:href="#ArialMT-121"/>
      <use x="50" xlink:href="#ArialMT-101"/>
      <use x="105.615234" xlink:href="#ArialMT-97"/>
      <use x="161.230469" xlink:href="#ArialMT-114"/>
     </g>
    </g>
   </g>
   <g id="matplotlib.axis_2">
    <g id="ytick_1">
     <g id="line2d_1">
      <path clip-path="url(#pd7402d8224)" d="M 99 359.148031 
L 712.8 359.148031 
" style="fill:none;stroke:#cccccc;stroke-linecap:round;"/>
     </g>
     <g id="text_6">
      <!-- 10000 -->
      <g style="fill:#262626;" transform="translate(58.914844 363.084827)scale(0.11 -0.11)">
       <use xlink:href="#ArialMT-49"/>
       <use x="55.615234" xlink:href="#ArialMT-48"/>
       <use x="111.230469" xlink:href="#ArialMT-48"/>
       <use x="166.845703" xlink:href="#ArialMT-48"/>
       <use x="222.460938" xlink:href="#ArialMT-48"/>
      </g>
     </g>
    </g>
    <g id="ytick_2">
     <g id="line2d_2">
      <path clip-path="url(#pd7402d8224)" d="M 99 299.034345 
L 712.8 299.034345 
" style="fill:none;stroke:#cccccc;stroke-linecap:round;"/>
     </g>
     <g id="text_7">
      <!-- 20000 -->
      <g style="fill:#262626;" transform="translate(58.914844 302.971142)scale(0.11 -0.11)">
       <use xlink:href="#ArialMT-50"/>
       <use x="55.615234" xlink:href="#ArialMT-48"/>
       <use x="111.230469" xlink:href="#ArialMT-48"/>
       <use x="166.845703" xlink:href="#ArialMT-48"/>
       <use x="222.460938" xlink:href="#ArialMT-48"/>
      </g>
     </g>
    </g>
    <g id="ytick_3">
     <g id="line2d_3">
      <path clip-path="url(#pd7402d8224)" d="M 99 238.920659 
L 712.8 238.920659 
" style="fill:none;stroke:#cccccc;stroke-linecap:round;"/>
     </g>
     <g id="text_8">
      <!-- 30000 -->
      <g style="fill:#262626;" transform="translate(58.914844 242.857456)scale(0.11 -0.11)">
       <use xlink:href="#ArialMT-51"/>
       <use x="55.615234" xlink:href="#ArialMT-48"/>
       <use x="111.230469" xlink:href="#ArialMT-48"/>
       <use x="166.845703" xlink:href="#ArialMT-48"/>
       <use x="222.460938" xlink:href="#ArialMT-48"/>
      </g>
     </g>
    </g>
    <g id="ytick_4">
     <g id="line2d_4">
      <path clip-path="url(#pd7402d8224)" d="M 99 178.806974 
L 712.8 178.806974 
" style="fill:none;stroke:#cccccc;stroke-linecap:round;"/>
     </g>
     <g id="text_9">
      <!-- 40000 -->
      <g style="fill:#262626;" transform="translate(58.914844 182.743771)scale(0.11 -0.11)">
       <use xlink:href="#ArialMT-52"/>
       <use x="55.615234" xlink:href="#ArialMT-48"/>
       <use x="111.230469" xlink:href="#ArialMT-48"/>
       <use x="166.845703" xlink:href="#ArialMT-48"/>
       <use x="222.460938" xlink:href="#ArialMT-48"/>
      </g>
     </g>
    </g>
    <g id="ytick_5">
     <g id="line2d_5">
      <path clip-path="url(#pd7402d8224)" d="M 99 118.693288 
L 712.8 118.693288 
" style="fill:none;stroke:#cccccc;stroke-linecap:round;"/>
     </g>
     <g id="text_10">
      <!-- 50000 -->
      <g style="fill:#262626;" transform="translate(58.914844 122.630085)scale(0.11 -0.11)">
       <defs>
        <path d="M 4.15625 18.75 
L 13.375 19.53125 
Q 14.40625 12.796875 18.140625 9.390625 
Q 21.875 6 27.15625 6 
Q 33.5 6 37.890625 10.78125 
Q 42.28125 15.578125 42.28125 23.484375 
Q 42.28125 31 38.0625 35.34375 
Q 33.84375 39.703125 27 39.703125 
Q 22.75 39.703125 19.328125 37.765625 
Q 15.921875 35.84375 13.96875 32.765625 
L 5.71875 33.84375 
L 12.640625 70.609375 
L 48.25 70.609375 
L 48.25 62.203125 
L 19.671875 62.203125 
L 15.828125 42.96875 
Q 22.265625 47.46875 29.34375 47.46875 
Q 38.71875 47.46875 45.15625 40.96875 
Q 51.609375 34.46875 51.609375 24.265625 
Q 51.609375 14.546875 45.953125 7.46875 
Q 39.0625 -1.21875 27.15625 -1.21875 
Q 17.390625 -1.21875 11.203125 4.25 
Q 5.03125 9.71875 4.15625 18.75 
z
" id="ArialMT-53"/>
       </defs>
       <use xlink:href="#ArialMT-53"/>
       <use x="55.615234" xlink:href="#ArialMT-48"/>
       <use x="111.230469" xlink:href="#ArialMT-48"/>
       <use x="166.845703" xlink:href="#ArialMT-48"/>
       <use x="222.460938" xlink:href="#ArialMT-48"/>
      </g>
     </g>
    </g>
    <g id="ytick_6">
     <g id="line2d_6">
      <path clip-path="url(#pd7402d8224)" d="M 99 58.579603 
L 712.8 58.579603 
" style="fill:none;stroke:#cccccc;stroke-linecap:round;"/>
     </g>
     <g id="text_11">
      <!-- 60000 -->
      <g style="fill:#262626;" transform="translate(58.914844 62.5164)scale(0.11 -0.11)">
       <use xlink:href="#ArialMT-54"/>
       <use x="55.615234" xlink:href="#ArialMT-48"/>
       <use x="111.230469" xlink:href="#ArialMT-48"/>
       <use x="166.845703" xlink:href="#ArialMT-48"/>
       <use x="222.460938" xlink:href="#ArialMT-48"/>
      </g>
     </g>
    </g>
    <g id="text_12">
     <!-- median_hh -->
     <g style="fill:#262626;" transform="translate(52.529844 244.606875)rotate(-90)scale(0.12 -0.12)">
      <defs>
       <path d="M 6.59375 0 
L 6.59375 51.859375 
L 14.453125 51.859375 
L 14.453125 44.578125 
Q 16.890625 48.390625 20.9375 50.703125 
Q 25 53.03125 30.171875 53.03125 
Q 35.9375 53.03125 39.625 50.640625 
Q 43.3125 48.25 44.828125 43.953125 
Q 50.984375 53.03125 60.84375 53.03125 
Q 68.5625 53.03125 72.703125 48.75 
Q 76.859375 44.484375 76.859375 35.59375 
L 76.859375 0 
L 68.109375 0 
L 68.109375 32.671875 
Q 68.109375 37.9375 67.25 40.25 
Q 66.40625 42.578125 64.15625 43.984375 
Q 61.921875 45.40625 58.890625 45.40625 
Q 53.421875 45.40625 49.796875 41.765625 
Q 46.1875 38.140625 46.1875 30.125 
L 46.1875 0 
L 37.40625 0 
L 37.40625 33.6875 
Q 37.40625 39.546875 35.25 42.46875 
Q 33.109375 45.40625 28.21875 45.40625 
Q 24.515625 45.40625 21.359375 43.453125 
Q 18.21875 41.5 16.796875 37.734375 
Q 15.375 33.984375 15.375 26.90625 
L 15.375 0 
z
" id="ArialMT-109"/>
       <path d="M 40.234375 0 
L 40.234375 6.546875 
Q 35.296875 -1.171875 25.734375 -1.171875 
Q 19.53125 -1.171875 14.328125 2.25 
Q 9.125 5.671875 6.265625 11.796875 
Q 3.421875 17.921875 3.421875 25.875 
Q 3.421875 33.640625 6 39.96875 
Q 8.59375 46.296875 13.765625 49.65625 
Q 18.953125 53.03125 25.34375 53.03125 
Q 30.03125 53.03125 33.6875 51.046875 
Q 37.359375 49.078125 39.65625 45.90625 
L 39.65625 71.578125 
L 48.390625 71.578125 
L 48.390625 0 
z
M 12.453125 25.875 
Q 12.453125 15.921875 16.640625 10.984375 
Q 20.84375 6.0625 26.5625 6.0625 
Q 32.328125 6.0625 36.34375 10.765625 
Q 40.375 15.484375 40.375 25.140625 
Q 40.375 35.796875 36.265625 40.765625 
Q 32.171875 45.75 26.171875 45.75 
Q 20.3125 45.75 16.375 40.96875 
Q 12.453125 36.1875 12.453125 25.875 
z
" id="ArialMT-100"/>
       <path d="M 6.640625 61.46875 
L 6.640625 71.578125 
L 15.4375 71.578125 
L 15.4375 61.46875 
z
M 6.640625 0 
L 6.640625 51.859375 
L 15.4375 51.859375 
L 15.4375 0 
z
" id="ArialMT-105"/>
       <path d="M 6.59375 0 
L 6.59375 51.859375 
L 14.5 51.859375 
L 14.5 44.484375 
Q 20.21875 53.03125 31 53.03125 
Q 35.6875 53.03125 39.625 51.34375 
Q 43.5625 49.65625 45.515625 46.921875 
Q 47.46875 44.1875 48.25 40.4375 
Q 48.734375 37.984375 48.734375 31.890625 
L 48.734375 0 
L 39.9375 0 
L 39.9375 31.546875 
Q 39.9375 36.921875 38.90625 39.578125 
Q 37.890625 42.234375 35.28125 43.8125 
Q 32.671875 45.40625 29.15625 45.40625 
Q 23.53125 45.40625 19.453125 41.84375 
Q 15.375 38.28125 15.375 28.328125 
L 15.375 0 
z
" id="ArialMT-110"/>
       <path d="M -1.515625 -19.875 
L -1.515625 -13.53125 
L 56.734375 -13.53125 
L 56.734375 -19.875 
z
" id="ArialMT-95"/>
       <path d="M 6.59375 0 
L 6.59375 71.578125 
L 15.375 71.578125 
L 15.375 45.90625 
Q 21.53125 53.03125 30.90625 53.03125 
Q 36.671875 53.03125 40.921875 50.75 
Q 45.171875 48.484375 47 44.484375 
Q 48.828125 40.484375 48.828125 32.859375 
L 48.828125 0 
L 40.046875 0 
L 40.046875 32.859375 
Q 40.046875 39.453125 37.1875 42.453125 
Q 34.328125 45.453125 29.109375 45.453125 
Q 25.203125 45.453125 21.75 43.421875 
Q 18.3125 41.40625 16.84375 37.9375 
Q 15.375 34.46875 15.375 28.375 
L 15.375 0 
z
" id="ArialMT-104"/>
      </defs>
      <use xlink:href="#ArialMT-109"/>
      <use x="83.300781" xlink:href="#ArialMT-101"/>
      <use x="138.916016" xlink:href="#ArialMT-100"/>
      <use x="194.53125" xlink:href="#ArialMT-105"/>
      <use x="216.748047" xlink:href="#ArialMT-97"/>
      <use x="272.363281" xlink:href="#ArialMT-110"/>
      <use x="327.978516" xlink:href="#ArialMT-95"/>
      <use x="383.59375" xlink:href="#ArialMT-104"/>
      <use x="439.208984" xlink:href="#ArialMT-104"/>
     </g>
    </g>
   </g>
   <g id="PolyCollection_1">
    <defs>
     <path d="M 175.725 -68.825455 
L 175.483048 -68.825455 
L 175.413289 -71.816665 
L 175.338122 -74.807875 
L 175.255482 -77.799086 
L 175.157297 -80.790296 
L 175.02862 -83.781507 
L 174.849626 -86.772717 
L 174.600902 -89.763928 
L 174.270772 -92.755138 
L 173.861696 -95.746349 
L 173.391818 -98.737559 
L 172.888502 -101.728769 
L 172.373487 -104.71998 
L 171.84322 -107.71119 
L 171.251396 -110.702401 
L 170.501587 -113.693611 
L 169.455262 -116.684822 
L 167.954969 -119.676032 
L 165.856359 -122.667243 
L 163.058777 -125.658453 
L 159.524552 -128.649663 
L 155.282198 -131.640874 
L 150.416764 -134.632084 
L 145.057864 -137.623295 
L 139.378065 -140.614505 
L 133.608115 -143.605716 
L 128.061889 -146.596926 
L 123.149336 -149.588136 
L 119.35026 -152.579347 
L 117.133326 -155.570557 
L 116.832048 -158.561768 
L 118.51988 -161.552978 
L 121.940993 -164.544189 
L 126.538916 -167.535399 
L 131.585045 -170.52661 
L 136.362505 -173.51782 
L 140.333535 -176.50903 
L 143.226032 -179.500241 
L 145.013655 -182.491451 
L 145.813438 -185.482662 
L 145.759677 -188.473872 
L 144.916777 -191.465083 
L 143.267494 -194.456293 
L 140.772495 -197.447504 
L 137.463338 -200.438714 
L 133.51902 -203.429924 
L 129.288216 -206.421135 
L 125.245864 -209.412345 
L 121.899644 -212.403556 
L 119.678422 -215.394766 
L 118.837675 -218.385977 
L 119.408878 -221.377187 
L 121.205684 -224.368398 
L 123.883375 -227.359608 
L 127.03274 -230.350818 
L 130.279036 -233.342029 
L 133.355229 -236.333239 
L 136.128774 -239.32445 
L 138.580116 -242.31566 
L 140.751011 -245.306871 
L 142.691718 -248.298081 
L 144.432246 -251.289292 
L 145.9863 -254.280502 
L 147.376936 -257.271712 
L 148.661318 -260.262923 
L 149.934444 -263.254133 
L 151.305514 -266.245344 
L 152.856839 -269.236554 
L 154.604554 -272.227765 
L 156.478814 -275.218975 
L 158.33141 -278.210186 
L 159.967109 -281.201396 
L 161.18739 -284.192606 
L 161.833454 -287.183817 
L 161.818001 -290.175027 
L 161.139731 -293.166238 
L 159.879048 -296.157448 
L 158.177841 -299.148659 
L 156.210123 -302.139869 
L 154.152839 -305.13108 
L 152.165728 -308.12229 
L 150.385119 -311.1135 
L 148.930146 -314.104711 
L 147.913841 -317.095921 
L 147.448865 -320.087132 
L 147.639868 -323.078342 
L 148.561136 -326.069553 
L 150.226646 -329.060763 
L 152.565864 -332.051973 
L 155.418891 -335.043184 
L 158.557708 -338.034394 
L 161.728982 -341.025605 
L 164.704029 -344.016815 
L 167.318512 -347.008026 
L 169.489776 -349.999236 
L 171.210156 -352.990447 
L 172.524082 -355.981657 
L 173.500826 -358.972867 
L 174.212644 -361.964078 
L 174.722543 -364.955288 
L 175.725 -364.955288 
L 175.725 -364.955288 
L 175.725 -361.964078 
L 175.725 -358.972867 
L 175.725 -355.981657 
L 175.725 -352.990447 
L 175.725 -349.999236 
L 175.725 -347.008026 
L 175.725 -344.016815 
L 175.725 -341.025605 
L 175.725 -338.034394 
L 175.725 -335.043184 
L 175.725 -332.051973 
L 175.725 -329.060763 
L 175.725 -326.069553 
L 175.725 -323.078342 
L 175.725 -320.087132 
L 175.725 -317.095921 
L 175.725 -314.104711 
L 175.725 -311.1135 
L 175.725 -308.12229 
L 175.725 -305.13108 
L 175.725 -302.139869 
L 175.725 -299.148659 
L 175.725 -296.157448 
L 175.725 -293.166238 
L 175.725 -290.175027 
L 175.725 -287.183817 
L 175.725 -284.192606 
L 175.725 -281.201396 
L 175.725 -278.210186 
L 175.725 -275.218975 
L 175.725 -272.227765 
L 175.725 -269.236554 
L 175.725 -266.245344 
L 175.725 -263.254133 
L 175.725 -260.262923 
L 175.725 -257.271712 
L 175.725 -254.280502 
L 175.725 -251.289292 
L 175.725 -248.298081 
L 175.725 -245.306871 
L 175.725 -242.31566 
L 175.725 -239.32445 
L 175.725 -236.333239 
L 175.725 -233.342029 
L 175.725 -230.350818 
L 175.725 -227.359608 
L 175.725 -224.368398 
L 175.725 -221.377187 
L 175.725 -218.385977 
L 175.725 -215.394766 
L 175.725 -212.403556 
L 175.725 -209.412345 
L 175.725 -206.421135 
L 175.725 -203.429924 
L 175.725 -200.438714 
L 175.725 -197.447504 
L 175.725 -194.456293 
L 175.725 -191.465083 
L 175.725 -188.473872 
L 175.725 -185.482662 
L 175.725 -182.491451 
L 175.725 -179.500241 
L 175.725 -176.50903 
L 175.725 -173.51782 
L 175.725 -170.52661 
L 175.725 -167.535399 
L 175.725 -164.544189 
L 175.725 -161.552978 
L 175.725 -158.561768 
L 175.725 -155.570557 
L 175.725 -152.579347 
L 175.725 -149.588136 
L 175.725 -146.596926 
L 175.725 -143.605716 
L 175.725 -140.614505 
L 175.725 -137.623295 
L 175.725 -134.632084 
L 175.725 -131.640874 
L 175.725 -128.649663 
L 175.725 -125.658453 
L 175.725 -122.667243 
L 175.725 -119.676032 
L 175.725 -116.684822 
L 175.725 -113.693611 
L 175.725 -110.702401 
L 175.725 -107.71119 
L 175.725 -104.71998 
L 175.725 -101.728769 
L 175.725 -98.737559 
L 175.725 -95.746349 
L 175.725 -92.755138 
L 175.725 -89.763928 
L 175.725 -86.772717 
L 175.725 -83.781507 
L 175.725 -80.790296 
L 175.725 -77.799086 
L 175.725 -74.807875 
L 175.725 -71.816665 
L 175.725 -68.825455 
z
" id="mcad6d8557d" style="stroke:#363636;"/>
    </defs>
    <g clip-path="url(#pd7402d8224)">
     <use style="fill:#176d9c;stroke:#363636;" x="0" xlink:href="#mcad6d8557d" y="432"/>
    </g>
   </g>
   <g id="PolyCollection_2">
    <defs>
     <path d="M 176.416064 -97.158105 
L 175.725 -97.158105 
L 175.725 -99.862995 
L 175.725 -102.567884 
L 175.725 -105.272774 
L 175.725 -107.977664 
L 175.725 -110.682554 
L 175.725 -113.387444 
L 175.725 -116.092333 
L 175.725 -118.797223 
L 175.725 -121.502113 
L 175.725 -124.207003 
L 175.725 -126.911893 
L 175.725 -129.616782 
L 175.725 -132.321672 
L 175.725 -135.026562 
L 175.725 -137.731452 
L 175.725 -140.436342 
L 175.725 -143.141232 
L 175.725 -145.846121 
L 175.725 -148.551011 
L 175.725 -151.255901 
L 175.725 -153.960791 
L 175.725 -156.665681 
L 175.725 -159.37057 
L 175.725 -162.07546 
L 175.725 -164.78035 
L 175.725 -167.48524 
L 175.725 -170.19013 
L 175.725 -172.895019 
L 175.725 -175.599909 
L 175.725 -178.304799 
L 175.725 -181.009689 
L 175.725 -183.714579 
L 175.725 -186.419468 
L 175.725 -189.124358 
L 175.725 -191.829248 
L 175.725 -194.534138 
L 175.725 -197.239028 
L 175.725 -199.943917 
L 175.725 -202.648807 
L 175.725 -205.353697 
L 175.725 -208.058587 
L 175.725 -210.763477 
L 175.725 -213.468366 
L 175.725 -216.173256 
L 175.725 -218.878146 
L 175.725 -221.583036 
L 175.725 -224.287926 
L 175.725 -226.992815 
L 175.725 -229.697705 
L 175.725 -232.402595 
L 175.725 -235.107485 
L 175.725 -237.812375 
L 175.725 -240.517264 
L 175.725 -243.222154 
L 175.725 -245.927044 
L 175.725 -248.631934 
L 175.725 -251.336824 
L 175.725 -254.041713 
L 175.725 -256.746603 
L 175.725 -259.451493 
L 175.725 -262.156383 
L 175.725 -264.861273 
L 175.725 -267.566162 
L 175.725 -270.271052 
L 175.725 -272.975942 
L 175.725 -275.680832 
L 175.725 -278.385722 
L 175.725 -281.090611 
L 175.725 -283.795501 
L 175.725 -286.500391 
L 175.725 -289.205281 
L 175.725 -291.910171 
L 175.725 -294.61506 
L 175.725 -297.31995 
L 175.725 -300.02484 
L 175.725 -302.72973 
L 175.725 -305.43462 
L 175.725 -308.139509 
L 175.725 -310.844399 
L 175.725 -313.549289 
L 175.725 -316.254179 
L 175.725 -318.959069 
L 175.725 -321.663958 
L 175.725 -324.368848 
L 175.725 -327.073738 
L 175.725 -329.778628 
L 175.725 -332.483518 
L 175.725 -335.188407 
L 175.725 -337.893297 
L 175.725 -340.598187 
L 175.725 -343.303077 
L 175.725 -346.007967 
L 175.725 -348.712856 
L 175.725 -351.417746 
L 175.725 -354.122636 
L 175.725 -356.827526 
L 175.725 -359.532416 
L 175.725 -362.237306 
L 175.725 -364.942195 
L 177.065876 -364.942195 
L 177.065876 -364.942195 
L 177.633891 -362.237306 
L 178.409774 -359.532416 
L 179.461527 -356.827526 
L 180.865467 -354.122636 
L 182.6929 -351.417746 
L 184.990104 -348.712856 
L 187.756021 -346.007967 
L 190.925039 -343.303077 
L 194.362702 -340.598187 
L 197.87905 -337.893297 
L 201.258229 -335.188407 
L 204.296364 -332.483518 
L 206.835851 -329.778628 
L 208.785202 -327.073738 
L 210.119414 -324.368848 
L 210.863554 -321.663958 
L 211.068419 -318.959069 
L 210.78887 -316.254179 
L 210.072562 -313.549289 
L 208.961311 -310.844399 
L 207.501912 -308.139509 
L 205.759988 -305.43462 
L 203.830007 -302.72973 
L 201.836383 -300.02484 
L 199.923633 -297.31995 
L 198.237046 -294.61506 
L 196.898405 -291.910171 
L 195.983284 -289.205281 
L 195.506725 -286.500391 
L 195.422326 -283.795501 
L 195.636494 -281.090611 
L 196.035577 -278.385722 
L 196.520019 -275.680832 
L 197.037227 -272.975942 
L 197.604208 -270.271052 
L 198.312411 -267.566162 
L 199.310934 -264.861273 
L 200.769906 -262.156383 
L 202.832347 -259.451493 
L 205.567945 -256.746603 
L 208.943409 -254.041713 
L 212.819851 -251.336824 
L 216.978659 -248.631934 
L 221.166812 -245.927044 
L 225.145195 -243.222154 
L 228.722938 -240.517264 
L 231.767707 -237.812375 
L 234.193071 -235.107485 
L 235.934219 -232.402595 
L 236.927397 -229.697705 
L 237.105 -226.992815 
L 236.409504 -224.287926 
L 234.820068 -221.583036 
L 232.380058 -218.878146 
L 229.213735 -216.173256 
L 225.524791 -213.468366 
L 221.575536 -210.763477 
L 217.650822 -208.058587 
L 214.014265 -205.353697 
L 210.866089 -202.648807 
L 208.312465 -199.943917 
L 206.35513 -197.239028 
L 204.90657 -194.534138 
L 203.829592 -191.829248 
L 202.991976 -189.124358 
L 202.319803 -186.419468 
L 201.830816 -183.714579 
L 201.633785 -181.009689 
L 201.890921 -178.304799 
L 202.754024 -175.599909 
L 204.29575 -172.895019 
L 206.460414 -170.19013 
L 209.052333 -167.48524 
L 211.766204 -164.78035 
L 214.248858 -162.07546 
L 216.17125 -159.37057 
L 217.287807 -156.665681 
L 217.467438 -153.960791 
L 216.692785 -151.255901 
L 215.035941 -148.551011 
L 212.624946 -145.846121 
L 209.614474 -143.141232 
L 206.167843 -140.436342 
L 202.449977 -137.731452 
L 198.625817 -135.026562 
L 194.857688 -132.321672 
L 191.297799 -129.616782 
L 188.076088 -126.911893 
L 185.286957 -124.207003 
L 182.979588 -121.502113 
L 181.155413 -118.797223 
L 179.773869 -116.092333 
L 178.764846 -113.387444 
L 178.044461 -110.682554 
L 177.5302 -107.977664 
L 177.152256 -105.272774 
L 176.859403 -102.567884 
L 176.619505 -99.862995 
L 176.416064 -97.158105 
z
" id="mfb5ada0a9e" style="stroke:#363636;"/>
    </defs>
    <g clip-path="url(#pd7402d8224)">
     <use style="fill:#c38820;stroke:#363636;" x="0" xlink:href="#mfb5ada0a9e" y="432"/>
    </g>
   </g>
   <g id="PolyCollection_3">
    <defs>
     <path d="M 329.175 -97.492112 
L 327.53773 -97.492112 
L 327.116362 -100.190255 
L 326.68531 -102.888397 
L 326.253374 -105.586539 
L 325.80616 -108.284681 
L 325.296291 -110.982823 
L 324.64004 -113.680965 
L 323.722994 -116.379108 
L 322.414813 -119.07725 
L 320.590328 -121.775392 
L 318.152034 -124.473534 
L 315.048375 -127.171676 
L 311.283296 -129.869818 
L 306.915323 -132.567961 
L 302.048222 -135.266103 
L 296.818787 -137.964245 
L 291.388849 -140.662387 
L 285.946623 -143.360529 
L 280.716691 -146.058672 
L 275.970288 -148.756814 
L 272.022163 -151.454956 
L 269.201605 -154.153098 
L 267.795 -156.85124 
L 267.972375 -159.549382 
L 269.723398 -162.247525 
L 272.831144 -164.945667 
L 276.900925 -167.643809 
L 281.440321 -170.341951 
L 285.964933 -173.040093 
L 290.092985 -175.738235 
L 293.596383 -178.436378 
L 296.39413 -181.13452 
L 298.49752 -183.832662 
L 299.934927 -186.530804 
L 300.689992 -189.228946 
L 300.679171 -191.927089 
L 299.777297 -194.625231 
L 297.880442 -197.323373 
L 294.98145 -200.021515 
L 291.22923 -202.719657 
L 286.948686 -205.417799 
L 282.61082 -208.115942 
L 278.757551 -210.814084 
L 275.898853 -213.512226 
L 274.408026 -216.210368 
L 274.442567 -218.90851 
L 275.912685 -221.606652 
L 278.507599 -224.304795 
L 281.773961 -227.002937 
L 285.225306 -229.701079 
L 288.451659 -232.399221 
L 291.198182 -235.097363 
L 293.392068 -237.795506 
L 295.114371 -240.493648 
L 296.532008 -243.19179 
L 297.817613 -245.889932 
L 299.086497 -248.588074 
L 300.370426 -251.286216 
L 301.631529 -253.984359 
L 302.803637 -256.682501 
L 303.839318 -259.380643 
L 304.74189 -262.078785 
L 305.570934 -264.776927 
L 306.422246 -267.475069 
L 307.392935 -270.173212 
L 308.546101 -272.871354 
L 309.887064 -275.569496 
L 311.357118 -278.267638 
L 312.844423 -280.96578 
L 314.207206 -283.663923 
L 315.302517 -286.362065 
L 316.013736 -289.060207 
L 316.271114 -291.758349 
L 316.061492 -294.456491 
L 315.425941 -297.154633 
L 314.447158 -299.852776 
L 313.231253 -302.550918 
L 311.889964 -305.24906 
L 310.528564 -307.947202 
L 309.241941 -310.645344 
L 308.117646 -313.343486 
L 307.241675 -316.041629 
L 306.701593 -318.739771 
L 306.582739 -321.437913 
L 306.956217 -324.136055 
L 307.861257 -326.834197 
L 309.287784 -329.53234 
L 311.16641 -332.230482 
L 313.371587 -334.928624 
L 315.739387 -337.626766 
L 318.095997 -340.324908 
L 320.288668 -343.02305 
L 322.209829 -345.721193 
L 323.807816 -348.419335 
L 325.082817 -351.117477 
L 326.07186 -353.815619 
L 326.829586 -356.513761 
L 327.411366 -359.211903 
L 327.862796 -361.910046 
L 328.216231 -364.608188 
L 329.175 -364.608188 
L 329.175 -364.608188 
L 329.175 -361.910046 
L 329.175 -359.211903 
L 329.175 -356.513761 
L 329.175 -353.815619 
L 329.175 -351.117477 
L 329.175 -348.419335 
L 329.175 -345.721193 
L 329.175 -343.02305 
L 329.175 -340.324908 
L 329.175 -337.626766 
L 329.175 -334.928624 
L 329.175 -332.230482 
L 329.175 -329.53234 
L 329.175 -326.834197 
L 329.175 -324.136055 
L 329.175 -321.437913 
L 329.175 -318.739771 
L 329.175 -316.041629 
L 329.175 -313.343486 
L 329.175 -310.645344 
L 329.175 -307.947202 
L 329.175 -305.24906 
L 329.175 -302.550918 
L 329.175 -299.852776 
L 329.175 -297.154633 
L 329.175 -294.456491 
L 329.175 -291.758349 
L 329.175 -289.060207 
L 329.175 -286.362065 
L 329.175 -283.663923 
L 329.175 -280.96578 
L 329.175 -278.267638 
L 329.175 -275.569496 
L 329.175 -272.871354 
L 329.175 -270.173212 
L 329.175 -267.475069 
L 329.175 -264.776927 
L 329.175 -262.078785 
L 329.175 -259.380643 
L 329.175 -256.682501 
L 329.175 -253.984359 
L 329.175 -251.286216 
L 329.175 -248.588074 
L 329.175 -245.889932 
L 329.175 -243.19179 
L 329.175 -240.493648 
L 329.175 -237.795506 
L 329.175 -235.097363 
L 329.175 -232.399221 
L 329.175 -229.701079 
L 329.175 -227.002937 
L 329.175 -224.304795 
L 329.175 -221.606652 
L 329.175 -218.90851 
L 329.175 -216.210368 
L 329.175 -213.512226 
L 329.175 -210.814084 
L 329.175 -208.115942 
L 329.175 -205.417799 
L 329.175 -202.719657 
L 329.175 -200.021515 
L 329.175 -197.323373 
L 329.175 -194.625231 
L 329.175 -191.927089 
L 329.175 -189.228946 
L 329.175 -186.530804 
L 329.175 -183.832662 
L 329.175 -181.13452 
L 329.175 -178.436378 
L 329.175 -175.738235 
L 329.175 -173.040093 
L 329.175 -170.341951 
L 329.175 -167.643809 
L 329.175 -164.945667 
L 329.175 -162.247525 
L 329.175 -159.549382 
L 329.175 -156.85124 
L 329.175 -154.153098 
L 329.175 -151.454956 
L 329.175 -148.756814 
L 329.175 -146.058672 
L 329.175 -143.360529 
L 329.175 -140.662387 
L 329.175 -137.964245 
L 329.175 -135.266103 
L 329.175 -132.567961 
L 329.175 -129.869818 
L 329.175 -127.171676 
L 329.175 -124.473534 
L 329.175 -121.775392 
L 329.175 -119.07725 
L 329.175 -116.379108 
L 329.175 -113.680965 
L 329.175 -110.982823 
L 329.175 -108.284681 
L 329.175 -105.586539 
L 329.175 -102.888397 
L 329.175 -100.190255 
L 329.175 -97.492112 
z
" id="m6c1840306c" style="stroke:#363636;"/>
    </defs>
    <g clip-path="url(#pd7402d8224)">
     <use style="fill:#176d9c;stroke:#363636;" x="0" xlink:href="#m6c1840306c" y="432"/>
    </g>
   </g>
   <g id="PolyCollection_4">
    <defs>
     <path d="M 331.000986 -92.099075 
L 329.175 -92.099075 
L 329.175 -94.856315 
L 329.175 -97.613556 
L 329.175 -100.370796 
L 329.175 -103.128037 
L 329.175 -105.885278 
L 329.175 -108.642518 
L 329.175 -111.399759 
L 329.175 -114.156999 
L 329.175 -116.91424 
L 329.175 -119.671481 
L 329.175 -122.428721 
L 329.175 -125.185962 
L 329.175 -127.943202 
L 329.175 -130.700443 
L 329.175 -133.457683 
L 329.175 -136.214924 
L 329.175 -138.972165 
L 329.175 -141.729405 
L 329.175 -144.486646 
L 329.175 -147.243886 
L 329.175 -150.001127 
L 329.175 -152.758367 
L 329.175 -155.515608 
L 329.175 -158.272849 
L 329.175 -161.030089 
L 329.175 -163.78733 
L 329.175 -166.54457 
L 329.175 -169.301811 
L 329.175 -172.059051 
L 329.175 -174.816292 
L 329.175 -177.573533 
L 329.175 -180.330773 
L 329.175 -183.088014 
L 329.175 -185.845254 
L 329.175 -188.602495 
L 329.175 -191.359736 
L 329.175 -194.116976 
L 329.175 -196.874217 
L 329.175 -199.631457 
L 329.175 -202.388698 
L 329.175 -205.145938 
L 329.175 -207.903179 
L 329.175 -210.66042 
L 329.175 -213.41766 
L 329.175 -216.174901 
L 329.175 -218.932141 
L 329.175 -221.689382 
L 329.175 -224.446622 
L 329.175 -227.203863 
L 329.175 -229.961104 
L 329.175 -232.718344 
L 329.175 -235.475585 
L 329.175 -238.232825 
L 329.175 -240.990066 
L 329.175 -243.747306 
L 329.175 -246.504547 
L 329.175 -249.261788 
L 329.175 -252.019028 
L 329.175 -254.776269 
L 329.175 -257.533509 
L 329.175 -260.29075 
L 329.175 -263.047991 
L 329.175 -265.805231 
L 329.175 -268.562472 
L 329.175 -271.319712 
L 329.175 -274.076953 
L 329.175 -276.834193 
L 329.175 -279.591434 
L 329.175 -282.348675 
L 329.175 -285.105915 
L 329.175 -287.863156 
L 329.175 -290.620396 
L 329.175 -293.377637 
L 329.175 -296.134877 
L 329.175 -298.892118 
L 329.175 -301.649359 
L 329.175 -304.406599 
L 329.175 -307.16384 
L 329.175 -309.92108 
L 329.175 -312.678321 
L 329.175 -315.435561 
L 329.175 -318.192802 
L 329.175 -320.950043 
L 329.175 -323.707283 
L 329.175 -326.464524 
L 329.175 -329.221764 
L 329.175 -331.979005 
L 329.175 -334.736245 
L 329.175 -337.493486 
L 329.175 -340.250727 
L 329.175 -343.007967 
L 329.175 -345.765208 
L 329.175 -348.522448 
L 329.175 -351.279689 
L 329.175 -354.03693 
L 329.175 -356.79417 
L 329.175 -359.551411 
L 329.175 -362.308651 
L 329.175 -365.065892 
L 330.03847 -365.065892 
L 330.03847 -365.065892 
L 330.437765 -362.308651 
L 331.011707 -359.551411 
L 331.831874 -356.79417 
L 332.983066 -354.03693 
L 334.550456 -351.279689 
L 336.598456 -348.522448 
L 339.145084 -345.765208 
L 342.139358 -343.007967 
L 345.450859 -340.250727 
L 348.878508 -337.493486 
L 352.179668 -334.736245 
L 355.113014 -331.979005 
L 357.482619 -329.221764 
L 359.169422 -326.464524 
L 360.14075 -323.707283 
L 360.436985 -320.950043 
L 360.142985 -318.192802 
L 359.356789 -315.435561 
L 358.167568 -312.678321 
L 356.64931 -309.92108 
L 354.869296 -307.16384 
L 352.904094 -304.406599 
L 350.853237 -301.649359 
L 348.842442 -298.892118 
L 347.013272 -296.134877 
L 345.501991 -293.377637 
L 344.414808 -290.620396 
L 343.807953 -287.863156 
L 343.67916 -285.105915 
L 343.97321 -282.348675 
L 344.599893 -279.591434 
L 345.459455 -276.834193 
L 346.468907 -274.076953 
L 347.582365 -271.319712 
L 348.799888 -268.562472 
L 350.161875 -265.805231 
L 351.73002 -263.047991 
L 353.560415 -260.29075 
L 355.678011 -257.533509 
L 358.062478 -254.776269 
L 360.651998 -252.019028 
L 363.364238 -249.261788 
L 366.125511 -246.504547 
L 368.893863 -243.747306 
L 371.663005 -240.990066 
L 374.441972 -238.232825 
L 377.216987 -235.475585 
L 379.911704 -232.718344 
L 382.364918 -229.961104 
L 384.339115 -227.203863 
L 385.56148 -224.446622 
L 385.786366 -221.689382 
L 384.860297 -218.932141 
L 382.769885 -216.174901 
L 379.659066 -213.41766 
L 375.81142 -210.66042 
L 371.602491 -207.903179 
L 367.433661 -205.145938 
L 363.662628 -202.388698 
L 360.546289 -199.631457 
L 358.209758 -196.874217 
L 356.649988 -194.116976 
L 355.773581 -191.359736 
L 355.457545 -188.602495 
L 355.612257 -185.845254 
L 356.222589 -183.088014 
L 357.348992 -180.330773 
L 359.084889 -177.573533 
L 361.48478 -174.816292 
L 364.491421 -172.059051 
L 367.893311 -169.301811 
L 371.333367 -166.54457 
L 374.36979 -163.78733 
L 376.569362 -161.030089 
L 377.601066 -158.272849 
L 377.299225 -155.515608 
L 375.679283 -152.758367 
L 372.908544 -150.001127 
L 369.2498 -147.243886 
L 365.001266 -144.486646 
L 360.451114 -141.729405 
L 355.853551 -138.972165 
L 351.422517 -136.214924 
L 347.333429 -133.457683 
L 343.724186 -130.700443 
L 340.691457 -127.943202 
L 338.283661 -125.185962 
L 336.495215 -122.428721 
L 335.266751 -119.671481 
L 334.493821 -116.91424 
L 334.043584 -114.156999 
L 333.776335 -111.399759 
L 333.567221 -108.642518 
L 333.323407 -105.885278 
L 332.993216 -103.128037 
L 332.565911 -100.370796 
L 332.063315 -97.613556 
L 331.526406 -94.856315 
L 331.000986 -92.099075 
z
" id="m94014bdb89" style="stroke:#363636;"/>
    </defs>
    <g clip-path="url(#pd7402d8224)">
     <use style="fill:#c38820;stroke:#363636;" x="0" xlink:href="#m94014bdb89" y="432"/>
    </g>
   </g>
   <g id="PolyCollection_5">
    <defs>
     <path d="M 482.625 -91.830421 
L 481.440812 -91.830421 
L 481.085166 -94.593089 
L 480.701277 -97.355757 
L 480.305466 -100.118425 
L 479.907355 -102.881093 
L 479.501318 -105.643761 
L 479.05923 -108.406429 
L 478.527129 -111.169097 
L 477.827555 -113.931765 
L 476.867768 -116.694432 
L 475.552173 -119.4571 
L 473.795925 -122.219768 
L 471.536403 -124.982436 
L 468.74029 -127.745104 
L 465.406036 -130.507772 
L 461.563765 -133.27044 
L 457.276189 -136.033108 
L 452.643849 -138.795776 
L 447.815559 -141.558444 
L 443.000688 -144.321112 
L 438.475462 -147.08378 
L 434.573202 -149.846448 
L 431.650672 -152.609115 
L 430.030176 -155.371783 
L 429.9279 -158.134451 
L 431.388616 -160.897119 
L 434.250178 -163.659787 
L 438.154902 -166.422455 
L 442.610205 -169.185123 
L 447.083204 -171.947791 
L 451.101162 -174.710459 
L 454.327519 -177.473127 
L 456.593007 -180.235795 
L 457.878733 -182.998463 
L 458.265406 -185.76113 
L 457.873086 -188.523798 
L 456.815235 -191.286466 
L 455.181095 -194.049134 
L 453.046593 -196.811802 
L 450.502354 -199.57447 
L 447.682169 -202.337138 
L 444.777241 -205.099806 
L 442.028571 -207.862474 
L 439.698321 -210.625142 
L 438.027862 -213.38781 
L 437.193914 -216.150478 
L 437.274482 -218.913146 
L 438.233717 -221.675813 
L 439.930139 -224.438481 
L 442.146674 -227.201149 
L 444.635103 -229.963817 
L 447.163405 -232.726485 
L 449.553726 -235.489153 
L 451.701899 -238.251821 
L 453.575634 -241.014489 
L 455.195533 -243.777157 
L 456.608086 -246.539825 
L 457.861041 -249.302493 
L 458.988639 -252.065161 
L 460.008885 -254.827829 
L 460.929729 -257.590496 
L 461.758099 -260.353164 
L 462.505994 -263.115832 
L 463.190692 -265.8785 
L 463.829619 -268.641168 
L 464.43302 -271.403836 
L 464.998123 -274.166504 
L 465.507406 -276.929172 
L 465.93157 -279.69184 
L 466.23616 -282.454508 
L 466.389723 -285.217176 
L 466.371287 -287.979844 
L 466.175288 -290.742512 
L 465.81281 -293.505179 
L 465.308918 -296.267847 
L 464.69692 -299.030515 
L 464.011565 -301.793183 
L 463.283811 -304.555851 
L 462.539696 -307.318519 
L 461.804466 -310.081187 
L 461.110873 -312.843855 
L 460.50816 -315.606523 
L 460.066861 -318.369191 
L 459.875106 -321.131859 
L 460.02485 -323.894527 
L 460.590536 -326.657195 
L 461.606556 -329.419862 
L 463.05157 -332.18253 
L 464.846235 -334.945198 
L 466.866402 -337.707866 
L 468.968151 -340.470534 
L 471.016652 -343.233202 
L 472.909713 -345.99587 
L 474.58944 -348.758538 
L 476.040382 -351.521206 
L 477.277481 -354.283874 
L 478.33004 -357.046542 
L 479.22785 -359.80921 
L 479.99322 -362.571878 
L 480.639457 -365.334545 
L 482.625 -365.334545 
L 482.625 -365.334545 
L 482.625 -362.571878 
L 482.625 -359.80921 
L 482.625 -357.046542 
L 482.625 -354.283874 
L 482.625 -351.521206 
L 482.625 -348.758538 
L 482.625 -345.99587 
L 482.625 -343.233202 
L 482.625 -340.470534 
L 482.625 -337.707866 
L 482.625 -334.945198 
L 482.625 -332.18253 
L 482.625 -329.419862 
L 482.625 -326.657195 
L 482.625 -323.894527 
L 482.625 -321.131859 
L 482.625 -318.369191 
L 482.625 -315.606523 
L 482.625 -312.843855 
L 482.625 -310.081187 
L 482.625 -307.318519 
L 482.625 -304.555851 
L 482.625 -301.793183 
L 482.625 -299.030515 
L 482.625 -296.267847 
L 482.625 -293.505179 
L 482.625 -290.742512 
L 482.625 -287.979844 
L 482.625 -285.217176 
L 482.625 -282.454508 
L 482.625 -279.69184 
L 482.625 -276.929172 
L 482.625 -274.166504 
L 482.625 -271.403836 
L 482.625 -268.641168 
L 482.625 -265.8785 
L 482.625 -263.115832 
L 482.625 -260.353164 
L 482.625 -257.590496 
L 482.625 -254.827829 
L 482.625 -252.065161 
L 482.625 -249.302493 
L 482.625 -246.539825 
L 482.625 -243.777157 
L 482.625 -241.014489 
L 482.625 -238.251821 
L 482.625 -235.489153 
L 482.625 -232.726485 
L 482.625 -229.963817 
L 482.625 -227.201149 
L 482.625 -224.438481 
L 482.625 -221.675813 
L 482.625 -218.913146 
L 482.625 -216.150478 
L 482.625 -213.38781 
L 482.625 -210.625142 
L 482.625 -207.862474 
L 482.625 -205.099806 
L 482.625 -202.337138 
L 482.625 -199.57447 
L 482.625 -196.811802 
L 482.625 -194.049134 
L 482.625 -191.286466 
L 482.625 -188.523798 
L 482.625 -185.76113 
L 482.625 -182.998463 
L 482.625 -180.235795 
L 482.625 -177.473127 
L 482.625 -174.710459 
L 482.625 -171.947791 
L 482.625 -169.185123 
L 482.625 -166.422455 
L 482.625 -163.659787 
L 482.625 -160.897119 
L 482.625 -158.134451 
L 482.625 -155.371783 
L 482.625 -152.609115 
L 482.625 -149.846448 
L 482.625 -147.08378 
L 482.625 -144.321112 
L 482.625 -141.558444 
L 482.625 -138.795776 
L 482.625 -136.033108 
L 482.625 -133.27044 
L 482.625 -130.507772 
L 482.625 -127.745104 
L 482.625 -124.982436 
L 482.625 -122.219768 
L 482.625 -119.4571 
L 482.625 -116.694432 
L 482.625 -113.931765 
L 482.625 -111.169097 
L 482.625 -108.406429 
L 482.625 -105.643761 
L 482.625 -102.881093 
L 482.625 -100.118425 
L 482.625 -97.355757 
L 482.625 -94.593089 
L 482.625 -91.830421 
z
" id="mec150270b6" style="stroke:#363636;"/>
    </defs>
    <g clip-path="url(#pd7402d8224)">
     <use style="fill:#176d9c;stroke:#363636;" x="0" xlink:href="#mec150270b6" y="432"/>
    </g>
   </g>
   <g id="PolyCollection_6">
    <defs>
     <path d="M 484.707472 -92.758586 
L 482.625 -92.758586 
L 482.625 -95.276317 
L 482.625 -97.794049 
L 482.625 -100.311781 
L 482.625 -102.829513 
L 482.625 -105.347245 
L 482.625 -107.864976 
L 482.625 -110.382708 
L 482.625 -112.90044 
L 482.625 -115.418172 
L 482.625 -117.935904 
L 482.625 -120.453635 
L 482.625 -122.971367 
L 482.625 -125.489099 
L 482.625 -128.006831 
L 482.625 -130.524563 
L 482.625 -133.042294 
L 482.625 -135.560026 
L 482.625 -138.077758 
L 482.625 -140.59549 
L 482.625 -143.113221 
L 482.625 -145.630953 
L 482.625 -148.148685 
L 482.625 -150.666417 
L 482.625 -153.184149 
L 482.625 -155.70188 
L 482.625 -158.219612 
L 482.625 -160.737344 
L 482.625 -163.255076 
L 482.625 -165.772808 
L 482.625 -168.290539 
L 482.625 -170.808271 
L 482.625 -173.326003 
L 482.625 -175.843735 
L 482.625 -178.361467 
L 482.625 -180.879198 
L 482.625 -183.39693 
L 482.625 -185.914662 
L 482.625 -188.432394 
L 482.625 -190.950126 
L 482.625 -193.467857 
L 482.625 -195.985589 
L 482.625 -198.503321 
L 482.625 -201.021053 
L 482.625 -203.538784 
L 482.625 -206.056516 
L 482.625 -208.574248 
L 482.625 -211.09198 
L 482.625 -213.609712 
L 482.625 -216.127443 
L 482.625 -218.645175 
L 482.625 -221.162907 
L 482.625 -223.680639 
L 482.625 -226.198371 
L 482.625 -228.716102 
L 482.625 -231.233834 
L 482.625 -233.751566 
L 482.625 -236.269298 
L 482.625 -238.78703 
L 482.625 -241.304761 
L 482.625 -243.822493 
L 482.625 -246.340225 
L 482.625 -248.857957 
L 482.625 -251.375689 
L 482.625 -253.89342 
L 482.625 -256.411152 
L 482.625 -258.928884 
L 482.625 -261.446616 
L 482.625 -263.964348 
L 482.625 -266.482079 
L 482.625 -268.999811 
L 482.625 -271.517543 
L 482.625 -274.035275 
L 482.625 -276.553006 
L 482.625 -279.070738 
L 482.625 -281.58847 
L 482.625 -284.106202 
L 482.625 -286.623934 
L 482.625 -289.141665 
L 482.625 -291.659397 
L 482.625 -294.177129 
L 482.625 -296.694861 
L 482.625 -299.212593 
L 482.625 -301.730324 
L 482.625 -304.248056 
L 482.625 -306.765788 
L 482.625 -309.28352 
L 482.625 -311.801252 
L 482.625 -314.318983 
L 482.625 -316.836715 
L 482.625 -319.354447 
L 482.625 -321.872179 
L 482.625 -324.389911 
L 482.625 -326.907642 
L 482.625 -329.425374 
L 482.625 -331.943106 
L 482.625 -334.460838 
L 482.625 -336.97857 
L 482.625 -339.496301 
L 482.625 -342.014033 
L 492.483513 -342.014033 
L 492.483513 -342.014033 
L 495.038309 -339.496301 
L 497.618379 -336.97857 
L 500.028699 -334.460838 
L 502.083115 -331.943106 
L 503.637896 -329.425374 
L 504.616038 -326.907642 
L 505.015543 -324.389911 
L 504.90018 -321.872179 
L 504.377033 -319.354447 
L 503.568928 -316.836715 
L 502.590382 -314.318983 
L 501.533091 -311.801252 
L 500.462553 -309.28352 
L 499.423205 -306.765788 
L 498.446939 -304.248056 
L 497.559815 -301.730324 
L 496.783756 -299.212593 
L 496.133024 -296.694861 
L 495.608006 -294.177129 
L 495.190218 -291.659397 
L 494.842202 -289.141665 
L 494.514186 -286.623934 
L 494.156842 -284.106202 
L 493.737079 -281.58847 
L 493.252303 -279.070738 
L 492.7386 -276.553006 
L 492.269764 -274.035275 
L 491.946703 -271.517543 
L 491.879514 -268.999811 
L 492.166693 -266.482079 
L 492.876671 -263.964348 
L 494.036214 -261.446616 
L 495.628419 -258.928884 
L 497.600782 -256.411152 
L 499.881578 -253.89342 
L 502.400885 -251.375689 
L 505.111079 -248.857957 
L 508.000911 -246.340225 
L 511.097701 -243.822493 
L 514.454354 -241.304761 
L 518.121907 -238.78703 
L 522.113239 -236.269298 
L 526.367915 -233.751566 
L 530.729886 -231.233834 
L 534.947608 -228.716102 
L 538.70031 -226.198371 
L 541.646452 -223.680639 
L 543.483527 -221.162907 
L 544.005 -218.645175 
L 543.141201 -216.127443 
L 540.975702 -213.609712 
L 537.734947 -211.09198 
L 533.754389 -208.574248 
L 529.428086 -206.056516 
L 525.150551 -203.538784 
L 521.260694 -201.021053 
L 517.998068 -198.503321 
L 515.480894 -195.985589 
L 513.712082 -193.467857 
L 512.613107 -190.950126 
L 512.077051 -188.432394 
L 512.024383 -185.914662 
L 512.441719 -183.39693 
L 513.387567 -180.879198 
L 514.959646 -178.361467 
L 517.232649 -175.843735 
L 520.187697 -173.326003 
L 523.660242 -170.808271 
L 527.328752 -168.290539 
L 530.753248 -165.772808 
L 533.455426 -163.255076 
L 535.017177 -160.737344 
L 535.16787 -158.219612 
L 533.835049 -155.70188 
L 531.146316 -153.184149 
L 527.386446 -150.666417 
L 522.926825 -148.148685 
L 518.149738 -145.630953 
L 513.387177 -143.113221 
L 508.88542 -140.59549 
L 504.796863 -138.077758 
L 501.192941 -135.560026 
L 498.088295 -133.042294 
L 495.466332 -130.524563 
L 493.298865 -128.006831 
L 491.556267 -125.489099 
L 490.208293 -122.971367 
L 489.218712 -120.453635 
L 488.538433 -117.935904 
L 488.101729 -115.418172 
L 487.828433 -112.90044 
L 487.632432 -110.382708 
L 487.434128 -107.864976 
L 487.173015 -105.347245 
L 486.816384 -102.829513 
L 486.361607 -100.311781 
L 485.831656 -97.794049 
L 485.265642 -95.276317 
L 484.707472 -92.758586 
z
" id="maa8ca8f4b1" style="stroke:#363636;"/>
    </defs>
    <g clip-path="url(#pd7402d8224)">
     <use style="fill:#c38820;stroke:#363636;" x="0" xlink:href="#maa8ca8f4b1" y="432"/>
    </g>
   </g>
   <g id="PolyCollection_7">
    <defs>
     <path d="M 636.075 -92.10088 
L 635.284036 -92.10088 
L 635.017727 -94.858084 
L 634.717785 -97.615288 
L 634.392407 -100.372492 
L 634.043771 -103.129696 
L 633.660278 -105.886901 
L 633.209546 -108.644105 
L 632.634791 -111.401309 
L 631.856787 -114.158513 
L 630.78216 -116.915717 
L 629.316814 -119.672921 
L 627.381474 -122.430125 
L 624.92541 -125.187329 
L 621.93491 -127.944533 
L 618.434945 -130.701738 
L 614.485241 -133.458942 
L 610.174516 -136.216146 
L 605.617673 -138.97335 
L 600.959246 -141.730554 
L 596.382289 -144.487758 
L 592.116539 -147.244962 
L 588.435902 -150.002166 
L 585.635877 -152.75937 
L 583.98799 -155.516574 
L 583.678994 -158.273779 
L 584.752825 -161.030983 
L 587.077552 -163.788187 
L 590.354075 -166.545391 
L 594.169232 -169.302595 
L 598.078895 -172.059799 
L 601.694478 -174.817003 
L 604.744837 -177.574207 
L 607.09571 -180.331411 
L 608.725979 -183.088616 
L 609.676394 -185.84582 
L 609.995119 -188.603024 
L 609.702485 -191.360228 
L 608.786705 -194.117432 
L 607.228332 -196.874636 
L 605.040091 -199.63184 
L 602.304091 -202.389044 
L 599.190981 -205.146248 
L 595.952809 -207.903452 
L 592.890031 -210.660657 
L 590.300436 -213.417861 
L 588.422628 -216.175065 
L 587.388561 -218.932269 
L 587.198377 -221.689473 
L 587.726064 -224.446677 
L 588.75639 -227.203881 
L 590.043959 -229.961085 
L 591.377129 -232.718289 
L 592.62663 -235.475494 
L 593.763383 -238.232698 
L 594.841095 -240.989902 
L 595.952709 -243.747106 
L 597.179697 -246.50431 
L 598.554904 -249.261514 
L 600.052398 -252.018718 
L 601.605043 -254.775922 
L 603.138415 -257.533126 
L 604.603866 -260.290331 
L 605.996025 -263.047535 
L 607.348742 -265.804739 
L 608.713567 -268.561943 
L 610.131543 -271.319147 
L 611.610049 -274.076351 
L 613.112523 -276.833555 
L 614.562808 -279.590759 
L 615.860715 -282.347963 
L 616.90275 -285.105167 
L 617.601945 -287.862372 
L 617.902428 -290.619576 
L 617.786629 -293.37678 
L 617.275137 -296.133984 
L 616.420871 -298.891188 
L 615.300223 -301.648392 
L 614.004084 -304.405596 
L 612.631063 -307.1628 
L 611.283892 -309.920004 
L 610.06841 -312.677209 
L 609.093109 -315.434413 
L 608.4665 -318.191617 
L 608.289972 -320.948821 
L 608.645341 -323.706025 
L 609.578755 -326.463229 
L 611.085261 -329.220433 
L 613.099892 -331.977637 
L 615.500481 -334.734841 
L 618.124064 -337.492045 
L 620.793892 -340.24925 
L 623.349676 -343.006454 
L 625.672127 -345.763658 
L 627.694978 -348.520862 
L 629.402574 -351.278066 
L 630.816319 -354.03527 
L 631.976574 -356.792474 
L 632.926625 -359.549678 
L 633.702874 -362.306882 
L 634.331964 -365.064087 
L 636.075 -365.064087 
L 636.075 -365.064087 
L 636.075 -362.306882 
L 636.075 -359.549678 
L 636.075 -356.792474 
L 636.075 -354.03527 
L 636.075 -351.278066 
L 636.075 -348.520862 
L 636.075 -345.763658 
L 636.075 -343.006454 
L 636.075 -340.24925 
L 636.075 -337.492045 
L 636.075 -334.734841 
L 636.075 -331.977637 
L 636.075 -329.220433 
L 636.075 -326.463229 
L 636.075 -323.706025 
L 636.075 -320.948821 
L 636.075 -318.191617 
L 636.075 -315.434413 
L 636.075 -312.677209 
L 636.075 -309.920004 
L 636.075 -307.1628 
L 636.075 -304.405596 
L 636.075 -301.648392 
L 636.075 -298.891188 
L 636.075 -296.133984 
L 636.075 -293.37678 
L 636.075 -290.619576 
L 636.075 -287.862372 
L 636.075 -285.105167 
L 636.075 -282.347963 
L 636.075 -279.590759 
L 636.075 -276.833555 
L 636.075 -274.076351 
L 636.075 -271.319147 
L 636.075 -268.561943 
L 636.075 -265.804739 
L 636.075 -263.047535 
L 636.075 -260.290331 
L 636.075 -257.533126 
L 636.075 -254.775922 
L 636.075 -252.018718 
L 636.075 -249.261514 
L 636.075 -246.50431 
L 636.075 -243.747106 
L 636.075 -240.989902 
L 636.075 -238.232698 
L 636.075 -235.475494 
L 636.075 -232.718289 
L 636.075 -229.961085 
L 636.075 -227.203881 
L 636.075 -224.446677 
L 636.075 -221.689473 
L 636.075 -218.932269 
L 636.075 -216.175065 
L 636.075 -213.417861 
L 636.075 -210.660657 
L 636.075 -207.903452 
L 636.075 -205.146248 
L 636.075 -202.389044 
L 636.075 -199.63184 
L 636.075 -196.874636 
L 636.075 -194.117432 
L 636.075 -191.360228 
L 636.075 -188.603024 
L 636.075 -185.84582 
L 636.075 -183.088616 
L 636.075 -180.331411 
L 636.075 -177.574207 
L 636.075 -174.817003 
L 636.075 -172.059799 
L 636.075 -169.302595 
L 636.075 -166.545391 
L 636.075 -163.788187 
L 636.075 -161.030983 
L 636.075 -158.273779 
L 636.075 -155.516574 
L 636.075 -152.75937 
L 636.075 -150.002166 
L 636.075 -147.244962 
L 636.075 -144.487758 
L 636.075 -141.730554 
L 636.075 -138.97335 
L 636.075 -136.216146 
L 636.075 -133.458942 
L 636.075 -130.701738 
L 636.075 -127.944533 
L 636.075 -125.187329 
L 636.075 -122.430125 
L 636.075 -119.672921 
L 636.075 -116.915717 
L 636.075 -114.158513 
L 636.075 -111.401309 
L 636.075 -108.644105 
L 636.075 -105.886901 
L 636.075 -103.129696 
L 636.075 -100.372492 
L 636.075 -97.615288 
L 636.075 -94.858084 
L 636.075 -92.10088 
z
" id="maeb4b9f4a9" style="stroke:#363636;"/>
    </defs>
    <g clip-path="url(#pd7402d8224)">
     <use style="fill:#176d9c;stroke:#363636;" x="0" xlink:href="#maeb4b9f4a9" y="432"/>
    </g>
   </g>
   <g id="PolyCollection_8">
    <defs>
     <path d="M 636.842204 -97.328074 
L 636.075 -97.328074 
L 636.075 -99.809478 
L 636.075 -102.290881 
L 636.075 -104.772285 
L 636.075 -107.253688 
L 636.075 -109.735092 
L 636.075 -112.216496 
L 636.075 -114.697899 
L 636.075 -117.179303 
L 636.075 -119.660706 
L 636.075 -122.14211 
L 636.075 -124.623513 
L 636.075 -127.104917 
L 636.075 -129.58632 
L 636.075 -132.067724 
L 636.075 -134.549128 
L 636.075 -137.030531 
L 636.075 -139.511935 
L 636.075 -141.993338 
L 636.075 -144.474742 
L 636.075 -146.956145 
L 636.075 -149.437549 
L 636.075 -151.918952 
L 636.075 -154.400356 
L 636.075 -156.88176 
L 636.075 -159.363163 
L 636.075 -161.844567 
L 636.075 -164.32597 
L 636.075 -166.807374 
L 636.075 -169.288777 
L 636.075 -171.770181 
L 636.075 -174.251584 
L 636.075 -176.732988 
L 636.075 -179.214392 
L 636.075 -181.695795 
L 636.075 -184.177199 
L 636.075 -186.658602 
L 636.075 -189.140006 
L 636.075 -191.621409 
L 636.075 -194.102813 
L 636.075 -196.584216 
L 636.075 -199.06562 
L 636.075 -201.547024 
L 636.075 -204.028427 
L 636.075 -206.509831 
L 636.075 -208.991234 
L 636.075 -211.472638 
L 636.075 -213.954041 
L 636.075 -216.435445 
L 636.075 -218.916848 
L 636.075 -221.398252 
L 636.075 -223.879656 
L 636.075 -226.361059 
L 636.075 -228.842463 
L 636.075 -231.323866 
L 636.075 -233.80527 
L 636.075 -236.286673 
L 636.075 -238.768077 
L 636.075 -241.24948 
L 636.075 -243.730884 
L 636.075 -246.212288 
L 636.075 -248.693691 
L 636.075 -251.175095 
L 636.075 -253.656498 
L 636.075 -256.137902 
L 636.075 -258.619305 
L 636.075 -261.100709 
L 636.075 -263.582112 
L 636.075 -266.063516 
L 636.075 -268.54492 
L 636.075 -271.026323 
L 636.075 -273.507727 
L 636.075 -275.98913 
L 636.075 -278.470534 
L 636.075 -280.951937 
L 636.075 -283.433341 
L 636.075 -285.914744 
L 636.075 -288.396148 
L 636.075 -290.877552 
L 636.075 -293.358955 
L 636.075 -295.840359 
L 636.075 -298.321762 
L 636.075 -300.803166 
L 636.075 -303.284569 
L 636.075 -305.765973 
L 636.075 -308.247376 
L 636.075 -310.72878 
L 636.075 -313.210184 
L 636.075 -315.691587 
L 636.075 -318.172991 
L 636.075 -320.654394 
L 636.075 -323.135798 
L 636.075 -325.617201 
L 636.075 -328.098605 
L 636.075 -330.580008 
L 636.075 -333.061412 
L 636.075 -335.542816 
L 636.075 -338.024219 
L 636.075 -340.505623 
L 636.075 -342.987026 
L 649.505866 -342.987026 
L 649.505866 -342.987026 
L 652.956545 -340.505623 
L 656.532817 -338.024219 
L 660.020891 -335.542816 
L 663.204958 -333.061412 
L 665.898996 -330.580008 
L 667.971249 -328.098605 
L 669.355348 -325.617201 
L 670.046524 -323.135798 
L 670.086244 -320.654394 
L 669.542 -318.172991 
L 668.489574 -315.691587 
L 667.003012 -313.210184 
L 665.15386 -310.72878 
L 663.017463 -308.247376 
L 660.681657 -305.765973 
L 658.25268 -303.284569 
L 655.854442 -300.803166 
L 653.619817 -298.321762 
L 651.675493 -295.840359 
L 650.124144 -293.358955 
L 649.028741 -290.877552 
L 648.403351 -288.396148 
L 648.213122 -285.914744 
L 648.383826 -283.433341 
L 648.819133 -280.951937 
L 649.422189 -278.470534 
L 650.117333 -275.98913 
L 650.867826 -273.507727 
L 651.68596 -271.026323 
L 652.632953 -268.54492 
L 653.807526 -266.063516 
L 655.324241 -263.582112 
L 657.285332 -261.100709 
L 659.752232 -258.619305 
L 662.724313 -256.137902 
L 666.131436 -253.656498 
L 669.843501 -251.175095 
L 673.695004 -248.693691 
L 677.517428 -246.212288 
L 681.16924 -243.730884 
L 684.553861 -241.24948 
L 687.620243 -238.768077 
L 690.347111 -236.286673 
L 692.717908 -233.80527 
L 694.696717 -231.323866 
L 696.214616 -228.842463 
L 697.171793 -226.361059 
L 697.455 -223.879656 
L 696.964969 -221.398252 
L 695.645753 -218.916848 
L 693.508048 -216.435445 
L 690.640766 -213.954041 
L 687.208211 -211.472638 
L 683.433323 -208.991234 
L 679.569925 -206.509831 
L 675.868914 -204.028427 
L 672.544642 -201.547024 
L 669.748347 -199.06562 
L 667.554692 -196.584216 
L 665.965038 -194.102813 
L 664.926965 -191.621409 
L 664.364845 -189.140006 
L 664.212395 -186.658602 
L 664.436756 -184.177199 
L 665.045691 -181.695795 
L 666.074631 -179.214392 
L 667.55711 -176.732988 
L 669.488226 -174.251584 
L 671.79399 -171.770181 
L 674.318262 -169.288777 
L 676.833672 -166.807374 
L 679.074985 -164.32597 
L 680.785773 -161.844567 
L 681.764643 -159.363163 
L 681.89762 -156.88176 
L 681.168322 -154.400356 
L 679.645371 -151.918952 
L 677.453883 -149.437549 
L 674.742096 -146.956145 
L 671.65393 -144.474742 
L 668.314071 -141.993338 
L 664.826357 -139.511935 
L 661.281168 -137.030531 
L 657.765126 -134.549128 
L 654.367072 -132.067724 
L 651.17717 -129.58632 
L 648.279518 -127.104917 
L 645.741381 -124.623513 
L 643.60323 -122.14211 
L 641.873132 -119.660706 
L 640.527255 -117.179303 
L 639.516215 -114.697899 
L 638.775295 -112.216496 
L 638.235834 -109.735092 
L 637.835143 -107.253688 
L 637.523172 -104.772285 
L 637.265232 -102.290881 
L 637.041181 -99.809478 
L 636.842204 -97.328074 
z
" id="mace3be91d4" style="stroke:#363636;"/>
    </defs>
    <g clip-path="url(#pd7402d8224)">
     <use style="fill:#c38820;stroke:#363636;" x="0" xlink:href="#mace3be91d4" y="432"/>
    </g>
   </g>
   <g id="patch_3">
    <path clip-path="url(#pd7402d8224)" d="M 175.725 419.261716 
L 175.725 419.261716 
L 175.725 419.261716 
L 175.725 419.261716 
z
" style="fill:#176d9c;stroke:#363636;stroke-linejoin:miter;stroke-width:0.5;"/>
   </g>
   <g id="patch_4">
    <path clip-path="url(#pd7402d8224)" d="M 175.725 419.261716 
L 175.725 419.261716 
L 175.725 419.261716 
L 175.725 419.261716 
z
" style="fill:#c38820;stroke:#363636;stroke-linejoin:miter;stroke-width:0.5;"/>
   </g>
   <g id="line2d_7">
    <path clip-path="url(#pd7402d8224)" d="M 119.091932 271.153618 
L 175.725 271.153618 
" style="fill:none;stroke:#363636;stroke-dasharray:1.5,1.5;stroke-dashoffset:0;"/>
   </g>
   <g id="line2d_8">
    <path clip-path="url(#pd7402d8224)" d="M 120.238888 215.64464 
L 175.725 215.64464 
" style="fill:none;stroke:#363636;stroke-dasharray:3,3;stroke-dashoffset:0;"/>
   </g>
   <g id="line2d_9">
    <path clip-path="url(#pd7402d8224)" d="M 147.660416 174.947675 
L 175.725 174.947675 
" style="fill:none;stroke:#363636;stroke-dasharray:1.5,1.5;stroke-dashoffset:0;"/>
   </g>
   <g id="line2d_10">
    <path clip-path="url(#pd7402d8224)" d="M 175.725 245.497097 
L 202.053855 245.497097 
" style="fill:none;stroke:#363636;stroke-dasharray:1.5,1.5;stroke-dashoffset:0;"/>
   </g>
   <g id="line2d_11">
    <path clip-path="url(#pd7402d8224)" d="M 175.725 203.65196 
L 236.315373 203.65196 
" style="fill:none;stroke:#363636;stroke-dasharray:3,3;stroke-dashoffset:0;"/>
   </g>
   <g id="line2d_12">
    <path clip-path="url(#pd7402d8224)" d="M 175.725 151.870031 
L 195.437379 151.870031 
" style="fill:none;stroke:#363636;stroke-dasharray:1.5,1.5;stroke-dashoffset:0;"/>
   </g>
   <g id="line2d_13">
    <path clip-path="url(#pd7402d8224)" d="M 268.584401 271.153618 
L 329.175 271.153618 
" style="fill:none;stroke:#363636;stroke-dasharray:1.5,1.5;stroke-dashoffset:0;"/>
   </g>
   <g id="line2d_14">
    <path clip-path="url(#pd7402d8224)" d="M 274.955695 215.64464 
L 329.175 215.64464 
" style="fill:none;stroke:#363636;stroke-dasharray:3,3;stroke-dashoffset:0;"/>
   </g>
   <g id="line2d_15">
    <path clip-path="url(#pd7402d8224)" d="M 298.131187 186.681867 
L 329.175 186.681867 
" style="fill:none;stroke:#363636;stroke-dasharray:1.5,1.5;stroke-dashoffset:0;"/>
   </g>
   <g id="line2d_16">
    <path clip-path="url(#pd7402d8224)" d="M 329.175 270.342083 
L 376.095419 270.342083 
" style="fill:none;stroke:#363636;stroke-dasharray:1.5,1.5;stroke-dashoffset:0;"/>
   </g>
   <g id="line2d_17">
    <path clip-path="url(#pd7402d8224)" d="M 329.175 209.615238 
L 385.220253 209.615238 
" style="fill:none;stroke:#363636;stroke-dasharray:3,3;stroke-dashoffset:0;"/>
   </g>
   <g id="line2d_18">
    <path clip-path="url(#pd7402d8224)" d="M 329.175 163.483995 
L 348.60364 163.483995 
" style="fill:none;stroke:#363636;stroke-dasharray:1.5,1.5;stroke-dashoffset:0;"/>
   </g>
   <g id="line2d_19">
    <path clip-path="url(#pd7402d8224)" d="M 431.90098 271.153618 
L 482.625 271.153618 
" style="fill:none;stroke:#363636;stroke-dasharray:1.5,1.5;stroke-dashoffset:0;"/>
   </g>
   <g id="line2d_20">
    <path clip-path="url(#pd7402d8224)" d="M 437.648225 215.64464 
L 482.625 215.64464 
" style="fill:none;stroke:#363636;stroke-dasharray:3,3;stroke-dashoffset:0;"/>
   </g>
   <g id="line2d_21">
    <path clip-path="url(#pd7402d8224)" d="M 463.385035 166.417543 
L 482.625 166.417543 
" style="fill:none;stroke:#363636;stroke-dasharray:1.5,1.5;stroke-dashoffset:0;"/>
   </g>
   <g id="line2d_22">
    <path clip-path="url(#pd7402d8224)" d="M 482.625 270.342083 
L 534.493256 270.342083 
" style="fill:none;stroke:#363636;stroke-dasharray:1.5,1.5;stroke-dashoffset:0;"/>
   </g>
   <g id="line2d_23">
    <path clip-path="url(#pd7402d8224)" d="M 482.625 215.64464 
L 542.536039 215.64464 
" style="fill:none;stroke:#363636;stroke-dasharray:3,3;stroke-dashoffset:0;"/>
   </g>
   <g id="line2d_24">
    <path clip-path="url(#pd7402d8224)" d="M 482.625 186.681867 
L 507.747152 186.681867 
" style="fill:none;stroke:#363636;stroke-dasharray:1.5,1.5;stroke-dashoffset:0;"/>
   </g>
   <g id="line2d_25">
    <path clip-path="url(#pd7402d8224)" d="M 585.266047 270.342083 
L 636.075 270.342083 
" style="fill:none;stroke:#363636;stroke-dasharray:1.5,1.5;stroke-dashoffset:0;"/>
   </g>
   <g id="line2d_26">
    <path clip-path="url(#pd7402d8224)" d="M 587.687143 209.615238 
L 636.075 209.615238 
" style="fill:none;stroke:#363636;stroke-dasharray:3,3;stroke-dashoffset:0;"/>
   </g>
   <g id="line2d_27">
    <path clip-path="url(#pd7402d8224)" d="M 608.987182 163.483995 
L 636.075 163.483995 
" style="fill:none;stroke:#363636;stroke-dasharray:1.5,1.5;stroke-dashoffset:0;"/>
   </g>
   <g id="line2d_28">
    <path clip-path="url(#pd7402d8224)" d="M 636.075 255.824628 
L 667.242288 255.824628 
" style="fill:none;stroke:#363636;stroke-dasharray:1.5,1.5;stroke-dashoffset:0;"/>
   </g>
   <g id="line2d_29">
    <path clip-path="url(#pd7402d8224)" d="M 636.075 208.521169 
L 696.8412 208.521169 
" style="fill:none;stroke:#363636;stroke-dasharray:3,3;stroke-dashoffset:0;"/>
   </g>
   <g id="line2d_30">
    <path clip-path="url(#pd7402d8224)" d="M 636.075 163.483995 
L 652.467374 163.483995 
" style="fill:none;stroke:#363636;stroke-dasharray:1.5,1.5;stroke-dashoffset:0;"/>
   </g>
   <g id="legend_1">
    <g id="patch_5">
     <path d="M 649.721875 108.234062 
L 705.1 108.234062 
Q 707.3 108.234062 707.3 106.034063 
L 707.3 59.54 
Q 707.3 57.34 705.1 57.34 
L 649.721875 57.34 
Q 647.521875 57.34 647.521875 59.54 
L 647.521875 106.034063 
Q 647.521875 108.234062 649.721875 108.234062 
z
" style="fill:#ffffff;opacity:0.8;stroke:#cccccc;stroke-linejoin:miter;"/>
    </g>
    <g id="text_13">
     <!-- inv_occ -->
     <g style="fill:#262626;" transform="translate(657.068125 70.329375)scale(0.12 -0.12)">
      <defs>
       <path d="M 21 0 
L 1.265625 51.859375 
L 10.546875 51.859375 
L 21.6875 20.796875 
Q 23.484375 15.765625 25 10.359375 
Q 26.171875 14.453125 28.265625 20.21875 
L 39.796875 51.859375 
L 48.828125 51.859375 
L 29.203125 0 
z
" id="ArialMT-118"/>
       <path d="M 3.328125 25.921875 
Q 3.328125 40.328125 11.328125 47.265625 
Q 18.015625 53.03125 27.640625 53.03125 
Q 38.328125 53.03125 45.109375 46.015625 
Q 51.90625 39.015625 51.90625 26.65625 
Q 51.90625 16.65625 48.90625 10.90625 
Q 45.90625 5.171875 40.15625 2 
Q 34.421875 -1.171875 27.640625 -1.171875 
Q 16.75 -1.171875 10.03125 5.8125 
Q 3.328125 12.796875 3.328125 25.921875 
z
M 12.359375 25.921875 
Q 12.359375 15.96875 16.703125 11.015625 
Q 21.046875 6.0625 27.640625 6.0625 
Q 34.1875 6.0625 38.53125 11.03125 
Q 42.875 16.015625 42.875 26.21875 
Q 42.875 35.84375 38.5 40.796875 
Q 34.125 45.75 27.640625 45.75 
Q 21.046875 45.75 16.703125 40.8125 
Q 12.359375 35.890625 12.359375 25.921875 
z
" id="ArialMT-111"/>
       <path d="M 40.4375 19 
L 49.078125 17.875 
Q 47.65625 8.9375 41.8125 3.875 
Q 35.984375 -1.171875 27.484375 -1.171875 
Q 16.84375 -1.171875 10.375 5.78125 
Q 3.90625 12.75 3.90625 25.734375 
Q 3.90625 34.125 6.6875 40.421875 
Q 9.46875 46.734375 15.15625 49.875 
Q 20.84375 53.03125 27.546875 53.03125 
Q 35.984375 53.03125 41.359375 48.75 
Q 46.734375 44.484375 48.25 36.625 
L 39.703125 35.296875 
Q 38.484375 40.53125 35.375 43.15625 
Q 32.28125 45.796875 27.875 45.796875 
Q 21.234375 45.796875 17.078125 41.03125 
Q 12.9375 36.28125 12.9375 25.984375 
Q 12.9375 15.53125 16.9375 10.796875 
Q 20.953125 6.0625 27.390625 6.0625 
Q 32.5625 6.0625 36.03125 9.234375 
Q 39.5 12.40625 40.4375 19 
z
" id="ArialMT-99"/>
      </defs>
      <use xlink:href="#ArialMT-105"/>
      <use x="22.216797" xlink:href="#ArialMT-110"/>
      <use x="77.832031" xlink:href="#ArialMT-118"/>
      <use x="127.832031" xlink:href="#ArialMT-95"/>
      <use x="183.447266" xlink:href="#ArialMT-111"/>
      <use x="239.0625" xlink:href="#ArialMT-99"/>
      <use x="289.0625" xlink:href="#ArialMT-99"/>
     </g>
    </g>
    <g id="patch_6">
     <path d="M 651.921875 86.087969 
L 673.921875 86.087969 
L 673.921875 78.387969 
L 651.921875 78.387969 
z
" style="fill:#176d9c;stroke:#363636;stroke-linejoin:miter;stroke-width:0.5;"/>
    </g>
    <g id="text_14">
     <!-- inv -->
     <g style="fill:#262626;" transform="translate(682.721875 86.087969)scale(0.11 -0.11)">
      <use xlink:href="#ArialMT-105"/>
      <use x="22.216797" xlink:href="#ArialMT-110"/>
      <use x="77.832031" xlink:href="#ArialMT-118"/>
     </g>
    </g>
    <g id="patch_7">
     <path d="M 651.921875 101.647812 
L 673.921875 101.647812 
L 673.921875 93.947812 
L 651.921875 93.947812 
z
" style="fill:#c38820;stroke:#363636;stroke-linejoin:miter;stroke-width:0.5;"/>
    </g>
    <g id="text_15">
     <!-- own -->
     <g style="fill:#262626;" transform="translate(682.721875 101.647812)scale(0.11 -0.11)">
      <defs>
       <path d="M 16.15625 0 
L 0.296875 51.859375 
L 9.375 51.859375 
L 17.625 21.921875 
L 20.703125 10.796875 
Q 20.90625 11.625 23.390625 21.484375 
L 31.640625 51.859375 
L 40.671875 51.859375 
L 48.4375 21.78125 
L 51.03125 11.859375 
L 54 21.875 
L 62.890625 51.859375 
L 71.4375 51.859375 
L 55.21875 0 
L 46.09375 0 
L 37.84375 31.0625 
L 35.84375 39.890625 
L 25.34375 0 
z
" id="ArialMT-119"/>
      </defs>
      <use xlink:href="#ArialMT-111"/>
      <use x="55.615234" xlink:href="#ArialMT-119"/>
      <use x="127.832031" xlink:href="#ArialMT-110"/>
     </g>
    </g>
   </g>
  </g>
 </g>
 <defs>
  <clipPath id="pd7402d8224">
   <rect height="326.16" width="613.8" x="99" y="51.84"/>
  </clipPath>
 </defs>
</svg>
