<?xml version="1.0" encoding="utf-8" standalone="no"?>
<!DOCTYPE svg PUBLIC "-//W3C//DTD SVG 1.1//EN"
  "http://www.w3.org/Graphics/SVG/1.1/DTD/svg11.dtd">
<!-- Created with matplotlib (https://matplotlib.org/) -->
<svg height="432pt" version="1.1" viewBox="0 0 792 432" width="792pt" xmlns="http://www.w3.org/2000/svg" xmlns:xlink="http://www.w3.org/1999/xlink">
 <metadata>
  <rdf:RDF xmlns:cc="http://creativecommons.org/ns#" xmlns:dc="http://purl.org/dc/elements/1.1/" xmlns:rdf="http://www.w3.org/1999/02/22-rdf-syntax-ns#">
   <cc:Work>
    <dc:type rdf:resource="http://purl.org/dc/dcmitype/StillImage"/>
    <dc:date>2021-08-19T08:05:16.377343</dc:date>
    <dc:format>image/svg+xml</dc:format>
    <dc:creator>
     <cc:Agent>
      <dc:title>Matplotlib v3.3.1, https://matplotlib.org/</dc:title>
     </cc:Agent>
    </dc:creator>
   </cc:Work>
  </rdf:RDF>
 </metadata>
 <defs>
  <style type="text/css">*{stroke-linecap:butt;stroke-linejoin:round;}</style>
 </defs>
 <g id="figure_1">
  <g id="patch_1">
   <path d="M 0 432 
L 792 432 
L 792 0 
L 0 0 
z
" style="fill:#ffffff;"/>
  </g>
  <g id="axes_1">
   <g id="patch_2">
    <path d="M 99 378 
L 712.8 378 
L 712.8 51.84 
L 99 51.84 
z
" style="fill:#ffffff;"/>
   </g>
   <g id="matplotlib.axis_1">
    <g id="xtick_1">
     <g id="text_1">
      <!-- 2000-2006 -->
      <g style="fill:#262626;" transform="translate(149.425547 395.373594)scale(0.11 -0.11)">
       <defs>
        <path d="M 50.34375 8.453125 
L 50.34375 0 
L 3.03125 0 
Q 2.9375 3.171875 4.046875 6.109375 
Q 5.859375 10.9375 9.828125 15.625 
Q 13.8125 20.3125 21.34375 26.46875 
Q 33.015625 36.03125 37.109375 41.625 
Q 41.21875 47.21875 41.21875 52.203125 
Q 41.21875 57.421875 37.46875 61 
Q 33.734375 64.59375 27.734375 64.59375 
Q 21.390625 64.59375 17.578125 60.78125 
Q 13.765625 56.984375 13.71875 50.25 
L 4.6875 51.171875 
Q 5.609375 61.28125 11.65625 66.578125 
Q 17.71875 71.875 27.9375 71.875 
Q 38.234375 71.875 44.234375 66.15625 
Q 50.25 60.453125 50.25 52 
Q 50.25 47.703125 48.484375 43.546875 
Q 46.734375 39.40625 42.65625 34.8125 
Q 38.578125 30.21875 29.109375 22.21875 
Q 21.1875 15.578125 18.9375 13.203125 
Q 16.703125 10.84375 15.234375 8.453125 
z
" id="ArialMT-50"/>
        <path d="M 4.15625 35.296875 
Q 4.15625 48 6.765625 55.734375 
Q 9.375 63.484375 14.515625 67.671875 
Q 19.671875 71.875 27.484375 71.875 
Q 33.25 71.875 37.59375 69.546875 
Q 41.9375 67.234375 44.765625 62.859375 
Q 47.609375 58.5 49.21875 52.21875 
Q 50.828125 45.953125 50.828125 35.296875 
Q 50.828125 22.703125 48.234375 14.96875 
Q 45.65625 7.234375 40.5 3 
Q 35.359375 -1.21875 27.484375 -1.21875 
Q 17.140625 -1.21875 11.234375 6.203125 
Q 4.15625 15.140625 4.15625 35.296875 
z
M 13.1875 35.296875 
Q 13.1875 17.671875 17.3125 11.828125 
Q 21.4375 6 27.484375 6 
Q 33.546875 6 37.671875 11.859375 
Q 41.796875 17.71875 41.796875 35.296875 
Q 41.796875 52.984375 37.671875 58.78125 
Q 33.546875 64.59375 27.390625 64.59375 
Q 21.34375 64.59375 17.71875 59.46875 
Q 13.1875 52.9375 13.1875 35.296875 
z
" id="ArialMT-48"/>
        <path d="M 3.171875 21.484375 
L 3.171875 30.328125 
L 30.171875 30.328125 
L 30.171875 21.484375 
z
" id="ArialMT-45"/>
        <path d="M 49.75 54.046875 
L 41.015625 53.375 
Q 39.84375 58.546875 37.703125 60.890625 
Q 34.125 64.65625 28.90625 64.65625 
Q 24.703125 64.65625 21.53125 62.3125 
Q 17.390625 59.28125 14.984375 53.46875 
Q 12.59375 47.65625 12.5 36.921875 
Q 15.671875 41.75 20.265625 44.09375 
Q 24.859375 46.4375 29.890625 46.4375 
Q 38.671875 46.4375 44.84375 39.96875 
Q 51.03125 33.5 51.03125 23.25 
Q 51.03125 16.5 48.125 10.71875 
Q 45.21875 4.9375 40.140625 1.859375 
Q 35.0625 -1.21875 28.609375 -1.21875 
Q 17.625 -1.21875 10.6875 6.859375 
Q 3.765625 14.9375 3.765625 33.5 
Q 3.765625 54.25 11.421875 63.671875 
Q 18.109375 71.875 29.4375 71.875 
Q 37.890625 71.875 43.28125 67.140625 
Q 48.6875 62.40625 49.75 54.046875 
z
M 13.875 23.1875 
Q 13.875 18.65625 15.796875 14.5 
Q 17.71875 10.359375 21.1875 8.171875 
Q 24.65625 6 28.46875 6 
Q 34.03125 6 38.03125 10.484375 
Q 42.046875 14.984375 42.046875 22.703125 
Q 42.046875 30.125 38.078125 34.390625 
Q 34.125 38.671875 28.125 38.671875 
Q 22.171875 38.671875 18.015625 34.390625 
Q 13.875 30.125 13.875 23.1875 
z
" id="ArialMT-54"/>
       </defs>
       <use xlink:href="#ArialMT-50"/>
       <use x="55.615234" xlink:href="#ArialMT-48"/>
       <use x="111.230469" xlink:href="#ArialMT-48"/>
       <use x="166.845703" xlink:href="#ArialMT-48"/>
       <use x="222.460938" xlink:href="#ArialMT-45"/>
       <use x="255.761719" xlink:href="#ArialMT-50"/>
       <use x="311.376953" xlink:href="#ArialMT-48"/>
       <use x="366.992188" xlink:href="#ArialMT-48"/>
       <use x="422.607422" xlink:href="#ArialMT-54"/>
      </g>
     </g>
    </g>
    <g id="xtick_2">
     <g id="text_2">
      <!-- 2007-2009 -->
      <g style="fill:#262626;" transform="translate(302.875547 395.373594)scale(0.11 -0.11)">
       <defs>
        <path d="M 4.734375 62.203125 
L 4.734375 70.65625 
L 51.078125 70.65625 
L 51.078125 63.8125 
Q 44.234375 56.546875 37.515625 44.484375 
Q 30.8125 32.421875 27.15625 19.671875 
Q 24.515625 10.6875 23.78125 0 
L 14.75 0 
Q 14.890625 8.453125 18.0625 20.40625 
Q 21.234375 32.375 27.171875 43.484375 
Q 33.109375 54.59375 39.796875 62.203125 
z
" id="ArialMT-55"/>
        <path d="M 5.46875 16.546875 
L 13.921875 17.328125 
Q 14.984375 11.375 18.015625 8.6875 
Q 21.046875 6 25.78125 6 
Q 29.828125 6 32.875 7.859375 
Q 35.9375 9.71875 37.890625 12.8125 
Q 39.84375 15.921875 41.15625 21.1875 
Q 42.484375 26.46875 42.484375 31.9375 
Q 42.484375 32.515625 42.4375 33.6875 
Q 39.796875 29.5 35.234375 26.875 
Q 30.671875 24.265625 25.34375 24.265625 
Q 16.453125 24.265625 10.296875 30.703125 
Q 4.15625 37.15625 4.15625 47.703125 
Q 4.15625 58.59375 10.578125 65.234375 
Q 17 71.875 26.65625 71.875 
Q 33.640625 71.875 39.421875 68.109375 
Q 45.21875 64.359375 48.21875 57.390625 
Q 51.21875 50.4375 51.21875 37.25 
Q 51.21875 23.53125 48.234375 15.40625 
Q 45.265625 7.28125 39.375 3.03125 
Q 33.5 -1.21875 25.59375 -1.21875 
Q 17.1875 -1.21875 11.859375 3.4375 
Q 6.546875 8.109375 5.46875 16.546875 
z
M 41.453125 48.140625 
Q 41.453125 55.71875 37.421875 60.15625 
Q 33.40625 64.59375 27.734375 64.59375 
Q 21.875 64.59375 17.53125 59.8125 
Q 13.1875 55.03125 13.1875 47.40625 
Q 13.1875 40.578125 17.3125 36.296875 
Q 21.4375 32.03125 27.484375 32.03125 
Q 33.59375 32.03125 37.515625 36.296875 
Q 41.453125 40.578125 41.453125 48.140625 
z
" id="ArialMT-57"/>
       </defs>
       <use xlink:href="#ArialMT-50"/>
       <use x="55.615234" xlink:href="#ArialMT-48"/>
       <use x="111.230469" xlink:href="#ArialMT-48"/>
       <use x="166.845703" xlink:href="#ArialMT-55"/>
       <use x="222.460938" xlink:href="#ArialMT-45"/>
       <use x="255.761719" xlink:href="#ArialMT-50"/>
       <use x="311.376953" xlink:href="#ArialMT-48"/>
       <use x="366.992188" xlink:href="#ArialMT-48"/>
       <use x="422.607422" xlink:href="#ArialMT-57"/>
      </g>
     </g>
    </g>
    <g id="xtick_3">
     <g id="text_3">
      <!-- 2010-2013 -->
      <g style="fill:#262626;" transform="translate(456.325547 395.373594)scale(0.11 -0.11)">
       <defs>
        <path d="M 37.25 0 
L 28.46875 0 
L 28.46875 56 
Q 25.296875 52.984375 20.140625 49.953125 
Q 14.984375 46.921875 10.890625 45.40625 
L 10.890625 53.90625 
Q 18.265625 57.375 23.78125 62.296875 
Q 29.296875 67.234375 31.59375 71.875 
L 37.25 71.875 
z
" id="ArialMT-49"/>
        <path d="M 4.203125 18.890625 
L 12.984375 20.0625 
Q 14.5 12.59375 18.140625 9.296875 
Q 21.78125 6 27 6 
Q 33.203125 6 37.46875 10.296875 
Q 41.75 14.59375 41.75 20.953125 
Q 41.75 27 37.796875 30.921875 
Q 33.84375 34.859375 27.734375 34.859375 
Q 25.25 34.859375 21.53125 33.890625 
L 22.515625 41.609375 
Q 23.390625 41.5 23.921875 41.5 
Q 29.546875 41.5 34.03125 44.421875 
Q 38.53125 47.359375 38.53125 53.46875 
Q 38.53125 58.296875 35.25 61.46875 
Q 31.984375 64.65625 26.8125 64.65625 
Q 21.6875 64.65625 18.265625 61.421875 
Q 14.84375 58.203125 13.875 51.765625 
L 5.078125 53.328125 
Q 6.6875 62.15625 12.390625 67.015625 
Q 18.109375 71.875 26.609375 71.875 
Q 32.46875 71.875 37.390625 69.359375 
Q 42.328125 66.84375 44.9375 62.5 
Q 47.5625 58.15625 47.5625 53.265625 
Q 47.5625 48.640625 45.0625 44.828125 
Q 42.578125 41.015625 37.703125 38.765625 
Q 44.046875 37.3125 47.5625 32.6875 
Q 51.078125 28.078125 51.078125 21.140625 
Q 51.078125 11.765625 44.234375 5.25 
Q 37.40625 -1.265625 26.953125 -1.265625 
Q 17.53125 -1.265625 11.296875 4.34375 
Q 5.078125 9.96875 4.203125 18.890625 
z
" id="ArialMT-51"/>
       </defs>
       <use xlink:href="#ArialMT-50"/>
       <use x="55.615234" xlink:href="#ArialMT-48"/>
       <use x="111.230469" xlink:href="#ArialMT-49"/>
       <use x="166.845703" xlink:href="#ArialMT-48"/>
       <use x="222.460938" xlink:href="#ArialMT-45"/>
       <use x="255.761719" xlink:href="#ArialMT-50"/>
       <use x="311.376953" xlink:href="#ArialMT-48"/>
       <use x="366.992188" xlink:href="#ArialMT-49"/>
       <use x="422.607422" xlink:href="#ArialMT-51"/>
      </g>
     </g>
    </g>
    <g id="xtick_4">
     <g id="text_4">
      <!-- 2014-2018 -->
      <g style="fill:#262626;" transform="translate(609.775547 395.373594)scale(0.11 -0.11)">
       <defs>
        <path d="M 32.328125 0 
L 32.328125 17.140625 
L 1.265625 17.140625 
L 1.265625 25.203125 
L 33.9375 71.578125 
L 41.109375 71.578125 
L 41.109375 25.203125 
L 50.78125 25.203125 
L 50.78125 17.140625 
L 41.109375 17.140625 
L 41.109375 0 
z
M 32.328125 25.203125 
L 32.328125 57.46875 
L 9.90625 25.203125 
z
" id="ArialMT-52"/>
        <path d="M 17.671875 38.8125 
Q 12.203125 40.828125 9.5625 44.53125 
Q 6.9375 48.25 6.9375 53.421875 
Q 6.9375 61.234375 12.546875 66.546875 
Q 18.171875 71.875 27.484375 71.875 
Q 36.859375 71.875 42.578125 66.421875 
Q 48.296875 60.984375 48.296875 53.171875 
Q 48.296875 48.1875 45.671875 44.5 
Q 43.0625 40.828125 37.75 38.8125 
Q 44.34375 36.671875 47.78125 31.875 
Q 51.21875 27.09375 51.21875 20.453125 
Q 51.21875 11.28125 44.71875 5.03125 
Q 38.234375 -1.21875 27.640625 -1.21875 
Q 17.046875 -1.21875 10.546875 5.046875 
Q 4.046875 11.328125 4.046875 20.703125 
Q 4.046875 27.6875 7.59375 32.390625 
Q 11.140625 37.109375 17.671875 38.8125 
z
M 15.921875 53.71875 
Q 15.921875 48.640625 19.1875 45.40625 
Q 22.46875 42.1875 27.6875 42.1875 
Q 32.765625 42.1875 36.015625 45.375 
Q 39.265625 48.578125 39.265625 53.21875 
Q 39.265625 58.0625 35.90625 61.359375 
Q 32.5625 64.65625 27.59375 64.65625 
Q 22.5625 64.65625 19.234375 61.421875 
Q 15.921875 58.203125 15.921875 53.71875 
z
M 13.09375 20.65625 
Q 13.09375 16.890625 14.875 13.375 
Q 16.65625 9.859375 20.171875 7.921875 
Q 23.6875 6 27.734375 6 
Q 34.03125 6 38.125 10.046875 
Q 42.234375 14.109375 42.234375 20.359375 
Q 42.234375 26.703125 38.015625 30.859375 
Q 33.796875 35.015625 27.4375 35.015625 
Q 21.234375 35.015625 17.15625 30.90625 
Q 13.09375 26.8125 13.09375 20.65625 
z
" id="ArialMT-56"/>
       </defs>
       <use xlink:href="#ArialMT-50"/>
       <use x="55.615234" xlink:href="#ArialMT-48"/>
       <use x="111.230469" xlink:href="#ArialMT-49"/>
       <use x="166.845703" xlink:href="#ArialMT-52"/>
       <use x="222.460938" xlink:href="#ArialMT-45"/>
       <use x="255.761719" xlink:href="#ArialMT-50"/>
       <use x="311.376953" xlink:href="#ArialMT-48"/>
       <use x="366.992188" xlink:href="#ArialMT-49"/>
       <use x="422.607422" xlink:href="#ArialMT-56"/>
      </g>
     </g>
    </g>
    <g id="text_5">
     <!-- year -->
     <g style="fill:#262626;" transform="translate(394.229063 410.008594)scale(0.12 -0.12)">
      <defs>
       <path d="M 6.203125 -19.96875 
L 5.21875 -11.71875 
Q 8.109375 -12.5 10.25 -12.5 
Q 13.1875 -12.5 14.9375 -11.515625 
Q 16.703125 -10.546875 17.828125 -8.796875 
Q 18.65625 -7.46875 20.515625 -2.25 
Q 20.75 -1.515625 21.296875 -0.09375 
L 1.609375 51.859375 
L 11.078125 51.859375 
L 21.875 21.828125 
Q 23.96875 16.109375 25.640625 9.8125 
Q 27.15625 15.875 29.25 21.625 
L 40.328125 51.859375 
L 49.125 51.859375 
L 29.390625 -0.875 
Q 26.21875 -9.421875 24.46875 -12.640625 
Q 22.125 -17 19.09375 -19.015625 
Q 16.0625 -21.046875 11.859375 -21.046875 
Q 9.328125 -21.046875 6.203125 -19.96875 
z
" id="ArialMT-121"/>
       <path d="M 42.09375 16.703125 
L 51.171875 15.578125 
Q 49.03125 7.625 43.21875 3.21875 
Q 37.40625 -1.171875 28.375 -1.171875 
Q 17 -1.171875 10.328125 5.828125 
Q 3.65625 12.84375 3.65625 25.484375 
Q 3.65625 38.578125 10.390625 45.796875 
Q 17.140625 53.03125 27.875 53.03125 
Q 38.28125 53.03125 44.875 45.953125 
Q 51.46875 38.875 51.46875 26.03125 
Q 51.46875 25.25 51.421875 23.6875 
L 12.75 23.6875 
Q 13.234375 15.140625 17.578125 10.59375 
Q 21.921875 6.0625 28.421875 6.0625 
Q 33.25 6.0625 36.671875 8.59375 
Q 40.09375 11.140625 42.09375 16.703125 
z
M 13.234375 30.90625 
L 42.1875 30.90625 
Q 41.609375 37.453125 38.875 40.71875 
Q 34.671875 45.796875 27.984375 45.796875 
Q 21.921875 45.796875 17.796875 41.75 
Q 13.671875 37.703125 13.234375 30.90625 
z
" id="ArialMT-101"/>
       <path d="M 40.4375 6.390625 
Q 35.546875 2.25 31.03125 0.53125 
Q 26.515625 -1.171875 21.34375 -1.171875 
Q 12.796875 -1.171875 8.203125 3 
Q 3.609375 7.171875 3.609375 13.671875 
Q 3.609375 17.484375 5.34375 20.625 
Q 7.078125 23.78125 9.890625 25.6875 
Q 12.703125 27.59375 16.21875 28.5625 
Q 18.796875 29.25 24.03125 29.890625 
Q 34.671875 31.15625 39.703125 32.90625 
Q 39.75 34.71875 39.75 35.203125 
Q 39.75 40.578125 37.25 42.78125 
Q 33.890625 45.75 27.25 45.75 
Q 21.046875 45.75 18.09375 43.578125 
Q 15.140625 41.40625 13.71875 35.890625 
L 5.125 37.0625 
Q 6.296875 42.578125 8.984375 45.96875 
Q 11.671875 49.359375 16.75 51.1875 
Q 21.828125 53.03125 28.515625 53.03125 
Q 35.15625 53.03125 39.296875 51.46875 
Q 43.453125 49.90625 45.40625 47.53125 
Q 47.359375 45.171875 48.140625 41.546875 
Q 48.578125 39.3125 48.578125 33.453125 
L 48.578125 21.734375 
Q 48.578125 9.46875 49.140625 6.21875 
Q 49.703125 2.984375 51.375 0 
L 42.1875 0 
Q 40.828125 2.734375 40.4375 6.390625 
z
M 39.703125 26.03125 
Q 34.90625 24.078125 25.34375 22.703125 
Q 19.921875 21.921875 17.671875 20.9375 
Q 15.4375 19.96875 14.203125 18.09375 
Q 12.984375 16.21875 12.984375 13.921875 
Q 12.984375 10.40625 15.640625 8.0625 
Q 18.3125 5.71875 23.4375 5.71875 
Q 28.515625 5.71875 32.46875 7.9375 
Q 36.421875 10.15625 38.28125 14.015625 
Q 39.703125 17 39.703125 22.796875 
z
" id="ArialMT-97"/>
       <path d="M 6.5 0 
L 6.5 51.859375 
L 14.40625 51.859375 
L 14.40625 44 
Q 17.4375 49.515625 20 51.265625 
Q 22.5625 53.03125 25.640625 53.03125 
Q 30.078125 53.03125 34.671875 50.203125 
L 31.640625 42.046875 
Q 28.421875 43.953125 25.203125 43.953125 
Q 22.3125 43.953125 20.015625 42.21875 
Q 17.71875 40.484375 16.75 37.40625 
Q 15.28125 32.71875 15.28125 27.15625 
L 15.28125 0 
z
" id="ArialMT-114"/>
      </defs>
      <use xlink:href="#ArialMT-121"/>
      <use x="50" xlink:href="#ArialMT-101"/>
      <use x="105.615234" xlink:href="#ArialMT-97"/>
      <use x="161.230469" xlink:href="#ArialMT-114"/>
     </g>
    </g>
   </g>
   <g id="matplotlib.axis_2">
    <g id="ytick_1">
     <g id="line2d_1">
      <path clip-path="url(#p565773bd2d)" d="M 99 332.05803 
L 712.8 332.05803 
" style="fill:none;stroke:#cccccc;stroke-linecap:round;"/>
     </g>
     <g id="text_6">
      <!-- 0.5 -->
      <g style="fill:#262626;" transform="translate(74.21 335.994826)scale(0.11 -0.11)">
       <defs>
        <path d="M 9.078125 0 
L 9.078125 10.015625 
L 19.09375 10.015625 
L 19.09375 0 
z
" id="ArialMT-46"/>
        <path d="M 4.15625 18.75 
L 13.375 19.53125 
Q 14.40625 12.796875 18.140625 9.390625 
Q 21.875 6 27.15625 6 
Q 33.5 6 37.890625 10.78125 
Q 42.28125 15.578125 42.28125 23.484375 
Q 42.28125 31 38.0625 35.34375 
Q 33.84375 39.703125 27 39.703125 
Q 22.75 39.703125 19.328125 37.765625 
Q 15.921875 35.84375 13.96875 32.765625 
L 5.71875 33.84375 
L 12.640625 70.609375 
L 48.25 70.609375 
L 48.25 62.203125 
L 19.671875 62.203125 
L 15.828125 42.96875 
Q 22.265625 47.46875 29.34375 47.46875 
Q 38.71875 47.46875 45.15625 40.96875 
Q 51.609375 34.46875 51.609375 24.265625 
Q 51.609375 14.546875 45.953125 7.46875 
Q 39.0625 -1.21875 27.15625 -1.21875 
Q 17.390625 -1.21875 11.203125 4.25 
Q 5.03125 9.71875 4.15625 18.75 
z
" id="ArialMT-53"/>
       </defs>
       <use xlink:href="#ArialMT-48"/>
       <use x="55.615234" xlink:href="#ArialMT-46"/>
       <use x="83.398438" xlink:href="#ArialMT-53"/>
      </g>
     </g>
    </g>
    <g id="ytick_2">
     <g id="line2d_2">
      <path clip-path="url(#p565773bd2d)" d="M 99 276.50768 
L 712.8 276.50768 
" style="fill:none;stroke:#cccccc;stroke-linecap:round;"/>
     </g>
     <g id="text_7">
      <!-- 0.6 -->
      <g style="fill:#262626;" transform="translate(74.21 280.444477)scale(0.11 -0.11)">
       <use xlink:href="#ArialMT-48"/>
       <use x="55.615234" xlink:href="#ArialMT-46"/>
       <use x="83.398438" xlink:href="#ArialMT-54"/>
      </g>
     </g>
    </g>
    <g id="ytick_3">
     <g id="line2d_3">
      <path clip-path="url(#p565773bd2d)" d="M 99 220.957331 
L 712.8 220.957331 
" style="fill:none;stroke:#cccccc;stroke-linecap:round;"/>
     </g>
     <g id="text_8">
      <!-- 0.7 -->
      <g style="fill:#262626;" transform="translate(74.21 224.894128)scale(0.11 -0.11)">
       <use xlink:href="#ArialMT-48"/>
       <use x="55.615234" xlink:href="#ArialMT-46"/>
       <use x="83.398438" xlink:href="#ArialMT-55"/>
      </g>
     </g>
    </g>
    <g id="ytick_4">
     <g id="line2d_4">
      <path clip-path="url(#p565773bd2d)" d="M 99 165.406982 
L 712.8 165.406982 
" style="fill:none;stroke:#cccccc;stroke-linecap:round;"/>
     </g>
     <g id="text_9">
      <!-- 0.8 -->
      <g style="fill:#262626;" transform="translate(74.21 169.343778)scale(0.11 -0.11)">
       <use xlink:href="#ArialMT-48"/>
       <use x="55.615234" xlink:href="#ArialMT-46"/>
       <use x="83.398438" xlink:href="#ArialMT-56"/>
      </g>
     </g>
    </g>
    <g id="ytick_5">
     <g id="line2d_5">
      <path clip-path="url(#p565773bd2d)" d="M 99 109.856632 
L 712.8 109.856632 
" style="fill:none;stroke:#cccccc;stroke-linecap:round;"/>
     </g>
     <g id="text_10">
      <!-- 0.9 -->
      <g style="fill:#262626;" transform="translate(74.21 113.793429)scale(0.11 -0.11)">
       <use xlink:href="#ArialMT-48"/>
       <use x="55.615234" xlink:href="#ArialMT-46"/>
       <use x="83.398438" xlink:href="#ArialMT-57"/>
      </g>
     </g>
    </g>
    <g id="ytick_6">
     <g id="line2d_6">
      <path clip-path="url(#p565773bd2d)" d="M 99 54.306283 
L 712.8 54.306283 
" style="fill:none;stroke:#cccccc;stroke-linecap:round;"/>
     </g>
     <g id="text_11">
      <!-- 1.0 -->
      <g style="fill:#262626;" transform="translate(74.21 58.24308)scale(0.11 -0.11)">
       <use xlink:href="#ArialMT-49"/>
       <use x="55.615234" xlink:href="#ArialMT-46"/>
       <use x="83.398438" xlink:href="#ArialMT-48"/>
      </g>
     </g>
    </g>
    <g id="text_12">
     <!-- per_renters -->
     <g style="fill:#262626;" transform="translate(67.825 245.599687)rotate(-90)scale(0.12 -0.12)">
      <defs>
       <path d="M 6.59375 -19.875 
L 6.59375 51.859375 
L 14.59375 51.859375 
L 14.59375 45.125 
Q 17.4375 49.078125 21 51.046875 
Q 24.5625 53.03125 29.640625 53.03125 
Q 36.28125 53.03125 41.359375 49.609375 
Q 46.4375 46.1875 49.015625 39.953125 
Q 51.609375 33.734375 51.609375 26.3125 
Q 51.609375 18.359375 48.75 11.984375 
Q 45.90625 5.609375 40.453125 2.21875 
Q 35.015625 -1.171875 29 -1.171875 
Q 24.609375 -1.171875 21.109375 0.6875 
Q 17.625 2.546875 15.375 5.375 
L 15.375 -19.875 
z
M 14.546875 25.640625 
Q 14.546875 15.625 18.59375 10.84375 
Q 22.65625 6.0625 28.421875 6.0625 
Q 34.28125 6.0625 38.453125 11.015625 
Q 42.625 15.96875 42.625 26.375 
Q 42.625 36.28125 38.546875 41.203125 
Q 34.46875 46.140625 28.8125 46.140625 
Q 23.1875 46.140625 18.859375 40.890625 
Q 14.546875 35.640625 14.546875 25.640625 
z
" id="ArialMT-112"/>
       <path d="M -1.515625 -19.875 
L -1.515625 -13.53125 
L 56.734375 -13.53125 
L 56.734375 -19.875 
z
" id="ArialMT-95"/>
       <path d="M 6.59375 0 
L 6.59375 51.859375 
L 14.5 51.859375 
L 14.5 44.484375 
Q 20.21875 53.03125 31 53.03125 
Q 35.6875 53.03125 39.625 51.34375 
Q 43.5625 49.65625 45.515625 46.921875 
Q 47.46875 44.1875 48.25 40.4375 
Q 48.734375 37.984375 48.734375 31.890625 
L 48.734375 0 
L 39.9375 0 
L 39.9375 31.546875 
Q 39.9375 36.921875 38.90625 39.578125 
Q 37.890625 42.234375 35.28125 43.8125 
Q 32.671875 45.40625 29.15625 45.40625 
Q 23.53125 45.40625 19.453125 41.84375 
Q 15.375 38.28125 15.375 28.328125 
L 15.375 0 
z
" id="ArialMT-110"/>
       <path d="M 25.78125 7.859375 
L 27.046875 0.09375 
Q 23.34375 -0.6875 20.40625 -0.6875 
Q 15.625 -0.6875 12.984375 0.828125 
Q 10.359375 2.34375 9.28125 4.8125 
Q 8.203125 7.28125 8.203125 15.1875 
L 8.203125 45.015625 
L 1.765625 45.015625 
L 1.765625 51.859375 
L 8.203125 51.859375 
L 8.203125 64.703125 
L 16.9375 69.96875 
L 16.9375 51.859375 
L 25.78125 51.859375 
L 25.78125 45.015625 
L 16.9375 45.015625 
L 16.9375 14.703125 
Q 16.9375 10.9375 17.40625 9.859375 
Q 17.875 8.796875 18.921875 8.15625 
Q 19.96875 7.515625 21.921875 7.515625 
Q 23.390625 7.515625 25.78125 7.859375 
z
" id="ArialMT-116"/>
       <path d="M 3.078125 15.484375 
L 11.765625 16.84375 
Q 12.5 11.625 15.84375 8.84375 
Q 19.1875 6.0625 25.203125 6.0625 
Q 31.25 6.0625 34.171875 8.515625 
Q 37.109375 10.984375 37.109375 14.3125 
Q 37.109375 17.28125 34.515625 19 
Q 32.71875 20.171875 25.53125 21.96875 
Q 15.875 24.421875 12.140625 26.203125 
Q 8.40625 27.984375 6.46875 31.125 
Q 4.546875 34.28125 4.546875 38.09375 
Q 4.546875 41.546875 6.125 44.5 
Q 7.71875 47.46875 10.453125 49.421875 
Q 12.5 50.921875 16.03125 51.96875 
Q 19.578125 53.03125 23.640625 53.03125 
Q 29.734375 53.03125 34.34375 51.265625 
Q 38.96875 49.515625 41.15625 46.5 
Q 43.359375 43.5 44.1875 38.484375 
L 35.59375 37.3125 
Q 35.015625 41.3125 32.203125 43.546875 
Q 29.390625 45.796875 24.265625 45.796875 
Q 18.21875 45.796875 15.625 43.796875 
Q 13.03125 41.796875 13.03125 39.109375 
Q 13.03125 37.40625 14.109375 36.03125 
Q 15.1875 34.625 17.484375 33.6875 
Q 18.796875 33.203125 25.25 31.453125 
Q 34.578125 28.953125 38.25 27.359375 
Q 41.9375 25.78125 44.03125 22.75 
Q 46.140625 19.734375 46.140625 15.234375 
Q 46.140625 10.84375 43.578125 6.953125 
Q 41.015625 3.078125 36.171875 0.953125 
Q 31.34375 -1.171875 25.25 -1.171875 
Q 15.140625 -1.171875 9.84375 3.03125 
Q 4.546875 7.234375 3.078125 15.484375 
z
" id="ArialMT-115"/>
      </defs>
      <use xlink:href="#ArialMT-112"/>
      <use x="55.615234" xlink:href="#ArialMT-101"/>
      <use x="111.230469" xlink:href="#ArialMT-114"/>
      <use x="144.53125" xlink:href="#ArialMT-95"/>
      <use x="200.146484" xlink:href="#ArialMT-114"/>
      <use x="233.447266" xlink:href="#ArialMT-101"/>
      <use x="289.0625" xlink:href="#ArialMT-110"/>
      <use x="344.677734" xlink:href="#ArialMT-116"/>
      <use x="372.460938" xlink:href="#ArialMT-101"/>
      <use x="428.076172" xlink:href="#ArialMT-114"/>
      <use x="461.376953" xlink:href="#ArialMT-115"/>
     </g>
    </g>
   </g>
   <g id="PolyCollection_1">
    <defs>
     <path d="M 175.725 -69.396619 
L 174.303998 -69.396619 
L 173.870472 -72.380122 
L 173.535089 -75.363625 
L 173.385222 -78.347127 
L 173.463069 -81.33063 
L 173.74644 -84.314133 
L 174.158868 -87.297635 
L 174.602598 -90.281138 
L 174.99468 -93.26464 
L 175.28739 -96.248143 
L 175.466662 -99.231646 
L 175.535327 -102.215148 
L 175.493679 -105.198651 
L 175.328331 -108.182154 
L 175.015477 -111.165656 
L 174.538694 -114.149159 
L 173.913768 -117.132662 
L 173.205156 -120.116164 
L 172.516998 -123.099667 
L 171.953269 -126.083169 
L 171.564189 -129.066672 
L 171.313423 -132.050175 
L 171.094687 -135.033677 
L 170.795033 -138.01718 
L 170.36671 -141.000683 
L 169.858415 -143.984185 
L 169.380949 -146.967688 
L 169.025008 -149.951191 
L 168.780525 -152.934693 
L 168.508148 -155.918196 
L 167.985702 -158.901699 
L 167.012193 -161.885201 
L 165.519669 -164.868704 
L 163.635201 -167.852206 
L 161.657756 -170.835709 
L 159.957406 -173.819212 
L 158.842126 -176.802714 
L 158.447052 -179.786217 
L 158.680913 -182.76972 
L 159.236175 -185.753222 
L 159.655148 -188.736725 
L 159.441444 -191.720228 
L 158.194531 -194.70373 
L 155.719935 -197.687233 
L 152.057965 -200.670735 
L 147.412839 -203.654238 
L 142.037695 -206.637741 
L 136.173977 -209.621243 
L 130.102111 -212.604746 
L 124.256988 -215.588249 
L 119.284225 -218.571751 
L 115.933327 -221.555254 
L 114.794343 -224.538757 
L 116.008913 -227.522259 
L 119.13831 -230.505762 
L 123.305585 -233.489265 
L 127.570546 -236.472767 
L 131.338393 -239.45627 
L 134.561334 -242.439772 
L 137.617212 -245.423275 
L 140.962173 -248.406778 
L 144.797286 -251.39028 
L 148.954941 -254.373783 
L 153.037575 -257.357286 
L 156.671614 -260.340788 
L 159.692783 -263.324291 
L 162.162369 -266.307794 
L 164.24195 -269.291296 
L 166.033211 -272.274799 
L 167.484921 -275.258301 
L 168.408419 -278.241804 
L 168.577582 -281.225307 
L 167.854331 -284.208809 
L 166.280674 -287.192312 
L 164.09939 -290.175815 
L 161.695049 -293.159317 
L 159.479337 -296.14282 
L 157.771685 -299.126323 
L 156.732185 -302.109825 
L 156.376408 -305.093328 
L 156.65104 -308.076831 
L 157.509286 -311.060333 
L 158.929398 -314.043836 
L 160.868704 -317.027338 
L 163.200497 -320.010841 
L 165.695622 -322.994344 
L 168.07363 -325.977846 
L 170.093745 -328.961349 
L 171.629055 -331.944852 
L 172.684547 -334.928354 
L 173.359587 -337.911857 
L 173.785776 -340.89536 
L 174.07548 -343.878862 
L 174.299898 -346.862365 
L 174.494078 -349.845867 
L 174.67325 -352.82937 
L 174.845407 -355.812873 
L 175.014684 -358.796375 
L 175.179563 -361.779878 
L 175.332463 -364.763381 
L 175.725 -364.763381 
L 175.725 -364.763381 
L 175.725 -361.779878 
L 175.725 -358.796375 
L 175.725 -355.812873 
L 175.725 -352.82937 
L 175.725 -349.845867 
L 175.725 -346.862365 
L 175.725 -343.878862 
L 175.725 -340.89536 
L 175.725 -337.911857 
L 175.725 -334.928354 
L 175.725 -331.944852 
L 175.725 -328.961349 
L 175.725 -325.977846 
L 175.725 -322.994344 
L 175.725 -320.010841 
L 175.725 -317.027338 
L 175.725 -314.043836 
L 175.725 -311.060333 
L 175.725 -308.076831 
L 175.725 -305.093328 
L 175.725 -302.109825 
L 175.725 -299.126323 
L 175.725 -296.14282 
L 175.725 -293.159317 
L 175.725 -290.175815 
L 175.725 -287.192312 
L 175.725 -284.208809 
L 175.725 -281.225307 
L 175.725 -278.241804 
L 175.725 -275.258301 
L 175.725 -272.274799 
L 175.725 -269.291296 
L 175.725 -266.307794 
L 175.725 -263.324291 
L 175.725 -260.340788 
L 175.725 -257.357286 
L 175.725 -254.373783 
L 175.725 -251.39028 
L 175.725 -248.406778 
L 175.725 -245.423275 
L 175.725 -242.439772 
L 175.725 -239.45627 
L 175.725 -236.472767 
L 175.725 -233.489265 
L 175.725 -230.505762 
L 175.725 -227.522259 
L 175.725 -224.538757 
L 175.725 -221.555254 
L 175.725 -218.571751 
L 175.725 -215.588249 
L 175.725 -212.604746 
L 175.725 -209.621243 
L 175.725 -206.637741 
L 175.725 -203.654238 
L 175.725 -200.670735 
L 175.725 -197.687233 
L 175.725 -194.70373 
L 175.725 -191.720228 
L 175.725 -188.736725 
L 175.725 -185.753222 
L 175.725 -182.76972 
L 175.725 -179.786217 
L 175.725 -176.802714 
L 175.725 -173.819212 
L 175.725 -170.835709 
L 175.725 -167.852206 
L 175.725 -164.868704 
L 175.725 -161.885201 
L 175.725 -158.901699 
L 175.725 -155.918196 
L 175.725 -152.934693 
L 175.725 -149.951191 
L 175.725 -146.967688 
L 175.725 -143.984185 
L 175.725 -141.000683 
L 175.725 -138.01718 
L 175.725 -135.033677 
L 175.725 -132.050175 
L 175.725 -129.066672 
L 175.725 -126.083169 
L 175.725 -123.099667 
L 175.725 -120.116164 
L 175.725 -117.132662 
L 175.725 -114.149159 
L 175.725 -111.165656 
L 175.725 -108.182154 
L 175.725 -105.198651 
L 175.725 -102.215148 
L 175.725 -99.231646 
L 175.725 -96.248143 
L 175.725 -93.26464 
L 175.725 -90.281138 
L 175.725 -87.297635 
L 175.725 -84.314133 
L 175.725 -81.33063 
L 175.725 -78.347127 
L 175.725 -75.363625 
L 175.725 -72.380122 
L 175.725 -69.396619 
z
" id="m44a47bf12b" style="stroke:#363636;"/>
    </defs>
    <g clip-path="url(#p565773bd2d)">
     <use style="fill:#176d9c;stroke:#363636;" x="0" xlink:href="#m44a47bf12b" y="432"/>
    </g>
   </g>
   <g id="PolyCollection_2">
    <defs>
     <path d="M 177.083054 -69.421686 
L 175.725 -69.421686 
L 175.725 -72.404682 
L 175.725 -75.387678 
L 175.725 -78.370675 
L 175.725 -81.353671 
L 175.725 -84.336667 
L 175.725 -87.319663 
L 175.725 -90.30266 
L 175.725 -93.285656 
L 175.725 -96.268652 
L 175.725 -99.251648 
L 175.725 -102.234645 
L 175.725 -105.217641 
L 175.725 -108.200637 
L 175.725 -111.183633 
L 175.725 -114.16663 
L 175.725 -117.149626 
L 175.725 -120.132622 
L 175.725 -123.115618 
L 175.725 -126.098615 
L 175.725 -129.081611 
L 175.725 -132.064607 
L 175.725 -135.047603 
L 175.725 -138.0306 
L 175.725 -141.013596 
L 175.725 -143.996592 
L 175.725 -146.979588 
L 175.725 -149.962585 
L 175.725 -152.945581 
L 175.725 -155.928577 
L 175.725 -158.911573 
L 175.725 -161.894569 
L 175.725 -164.877566 
L 175.725 -167.860562 
L 175.725 -170.843558 
L 175.725 -173.826554 
L 175.725 -176.809551 
L 175.725 -179.792547 
L 175.725 -182.775543 
L 175.725 -185.758539 
L 175.725 -188.741536 
L 175.725 -191.724532 
L 175.725 -194.707528 
L 175.725 -197.690524 
L 175.725 -200.673521 
L 175.725 -203.656517 
L 175.725 -206.639513 
L 175.725 -209.622509 
L 175.725 -212.605506 
L 175.725 -215.588502 
L 175.725 -218.571498 
L 175.725 -221.554494 
L 175.725 -224.537491 
L 175.725 -227.520487 
L 175.725 -230.503483 
L 175.725 -233.486479 
L 175.725 -236.469476 
L 175.725 -239.452472 
L 175.725 -242.435468 
L 175.725 -245.418464 
L 175.725 -248.401461 
L 175.725 -251.384457 
L 175.725 -254.367453 
L 175.725 -257.350449 
L 175.725 -260.333446 
L 175.725 -263.316442 
L 175.725 -266.299438 
L 175.725 -269.282434 
L 175.725 -272.265431 
L 175.725 -275.248427 
L 175.725 -278.231423 
L 175.725 -281.214419 
L 175.725 -284.197415 
L 175.725 -287.180412 
L 175.725 -290.163408 
L 175.725 -293.146404 
L 175.725 -296.1294 
L 175.725 -299.112397 
L 175.725 -302.095393 
L 175.725 -305.078389 
L 175.725 -308.061385 
L 175.725 -311.044382 
L 175.725 -314.027378 
L 175.725 -317.010374 
L 175.725 -319.99337 
L 175.725 -322.976367 
L 175.725 -325.959363 
L 175.725 -328.942359 
L 175.725 -331.925355 
L 175.725 -334.908352 
L 175.725 -337.891348 
L 175.725 -340.874344 
L 175.725 -343.85734 
L 175.725 -346.840337 
L 175.725 -349.823333 
L 175.725 -352.806329 
L 175.725 -355.789325 
L 175.725 -358.772322 
L 175.725 -361.755318 
L 175.725 -364.738314 
L 176.310334 -364.738314 
L 176.310334 -364.738314 
L 176.526822 -361.755318 
L 176.746634 -358.772322 
L 176.951502 -355.789325 
L 177.133445 -352.806329 
L 177.295474 -349.823333 
L 177.448173 -346.840337 
L 177.611059 -343.85734 
L 177.825597 -340.874344 
L 178.174407 -337.891348 
L 178.787341 -334.908352 
L 179.813329 -331.925355 
L 181.354294 -328.942359 
L 183.387542 -325.959363 
L 185.725604 -322.976367 
L 188.054636 -319.99337 
L 190.047568 -317.010374 
L 191.491529 -314.027378 
L 192.347236 -311.044382 
L 192.699651 -308.061385 
L 192.639657 -305.078389 
L 192.170803 -302.095393 
L 191.215416 -299.112397 
L 189.715474 -296.1294 
L 187.750612 -293.146404 
L 185.584881 -290.163408 
L 183.607101 -287.180412 
L 182.199724 -284.197415 
L 181.608061 -281.214419 
L 181.87117 -278.231423 
L 182.838672 -275.248427 
L 184.261711 -272.265431 
L 185.921364 -269.282434 
L 187.741497 -266.299438 
L 189.828531 -263.316442 
L 192.402211 -260.333446 
L 195.636972 -257.350449 
L 199.501258 -254.367453 
L 203.711247 -251.384457 
L 207.861512 -248.401461 
L 211.671111 -245.418464 
L 215.175067 -242.435468 
L 218.699646 -239.452472 
L 222.604655 -236.469476 
L 226.954157 -233.486479 
L 231.342124 -230.503483 
L 234.995934 -227.520487 
L 237.093826 -224.537491 
L 237.105 -221.554494 
L 234.969308 -218.571498 
L 231.047985 -215.588502 
L 225.91297 -212.605506 
L 220.122277 -209.622509 
L 214.111503 -206.639513 
L 208.229496 -203.656517 
L 202.83187 -200.673521 
L 198.310391 -197.690524 
L 195.007805 -194.707528 
L 193.077433 -191.724532 
L 192.394344 -188.741536 
L 192.578764 -185.758539 
L 193.111451 -182.775543 
L 193.47934 -179.792547 
L 193.302408 -176.809551 
L 192.419336 -173.826554 
L 190.91722 -170.843558 
L 189.088553 -167.860562 
L 187.314888 -164.877566 
L 185.914278 -161.894569 
L 185.019591 -158.911573 
L 184.546369 -155.928577 
L 184.262474 -152.945581 
L 183.917751 -149.962585 
L 183.364182 -146.979588 
L 182.608248 -143.996592 
L 181.777059 -141.013596 
L 181.025924 -138.0306 
L 180.444107 -135.047603 
L 180.012134 -132.064607 
L 179.629352 -129.081611 
L 179.186072 -126.098615 
L 178.630218 -123.115618 
L 177.989462 -120.132622 
L 177.344785 -117.149626 
L 176.782196 -114.16663 
L 176.355524 -111.183633 
L 176.077034 -108.200637 
L 175.931437 -105.217641 
L 175.897859 -102.234645 
L 175.965642 -99.251648 
L 176.136929 -96.268652 
L 176.415942 -93.285656 
L 176.7904 -90.30266 
L 177.215364 -87.319663 
L 177.611559 -84.336667 
L 177.884911 -81.353671 
L 177.961394 -78.370675 
L 177.819113 -75.387678 
L 177.498331 -72.404682 
L 177.083054 -69.421686 
z
" id="m28712f1b24" style="stroke:#363636;"/>
    </defs>
    <g clip-path="url(#p565773bd2d)">
     <use style="fill:#c38820;stroke:#363636;" x="0" xlink:href="#m28712f1b24" y="432"/>
    </g>
   </g>
   <g id="PolyCollection_3">
    <defs>
     <path d="M 329.175 -69.814429 
L 328.952632 -69.814429 
L 328.882083 -72.789491 
L 328.828965 -75.764553 
L 328.808394 -78.739615 
L 328.826676 -81.714677 
L 328.878183 -84.689739 
L 328.948118 -87.664801 
L 329.019242 -90.639863 
L 329.078257 -93.614925 
L 329.118282 -96.589987 
L 329.136772 -99.565049 
L 329.130605 -102.540111 
L 329.091043 -105.515173 
L 329.001343 -108.490235 
L 328.839822 -111.465297 
L 328.589925 -114.44036 
L 328.254762 -117.415422 
L 327.867239 -120.390484 
L 327.484072 -123.365546 
L 327.159 -126.340608 
L 326.907026 -129.31567 
L 326.685087 -132.290732 
L 326.410222 -135.265794 
L 326.011411 -138.240856 
L 325.483299 -141.215918 
L 324.902392 -144.19098 
L 324.38773 -147.166042 
L 324.023966 -150.141104 
L 323.790358 -153.116166 
L 323.53948 -156.091228 
L 323.045876 -159.06629 
L 322.109553 -162.041352 
L 320.667354 -165.016414 
L 318.853596 -167.991476 
L 316.971891 -170.966538 
L 315.386517 -173.9416 
L 314.385043 -176.916662 
L 314.072762 -179.891724 
L 314.330775 -182.866787 
L 314.834539 -185.841849 
L 315.121104 -188.816911 
L 314.704518 -191.791973 
L 313.229971 -194.767035 
L 310.611047 -197.742097 
L 307.058935 -200.717159 
L 302.957183 -203.692221 
L 298.655031 -206.667283 
L 294.338931 -209.642345 
L 290.090669 -212.617407 
L 286.0784 -215.592469 
L 282.702186 -218.567531 
L 280.544444 -221.542593 
L 280.126978 -224.517655 
L 281.620187 -227.492717 
L 284.689328 -230.467779 
L 288.588337 -233.442841 
L 292.470386 -236.417903 
L 295.747589 -239.392965 
L 298.28798 -242.368027 
L 300.338735 -245.343089 
L 302.254208 -248.318151 
L 304.236857 -251.293213 
L 306.261082 -254.268276 
L 308.188095 -257.243338 
L 309.940639 -260.2184 
L 311.59254 -263.193462 
L 313.319538 -266.168524 
L 315.262528 -269.143586 
L 317.401508 -272.118648 
L 319.51774 -275.09371 
L 321.262858 -278.068772 
L 322.296504 -281.043834 
L 322.425794 -284.018896 
L 321.686374 -286.993958 
L 320.333612 -289.96902 
L 318.74916 -292.944082 
L 317.303387 -295.919144 
L 316.237342 -298.894206 
L 315.622061 -301.869268 
L 315.410547 -304.84433 
L 315.539384 -307.819392 
L 316.004226 -310.794454 
L 316.855014 -313.769516 
L 318.119518 -316.744578 
L 319.719595 -319.71964 
L 321.449591 -322.694703 
L 323.038685 -325.669765 
L 324.259233 -328.644827 
L 325.016114 -331.619889 
L 325.370039 -334.594951 
L 325.48965 -337.570013 
L 325.56449 -340.545075 
L 325.726591 -343.520137 
L 326.017678 -346.495199 
L 326.40827 -349.470261 
L 326.843408 -352.445323 
L 327.279544 -355.420385 
L 327.694021 -358.395447 
L 328.074574 -361.370509 
L 328.408172 -364.345571 
L 329.175 -364.345571 
L 329.175 -364.345571 
L 329.175 -361.370509 
L 329.175 -358.395447 
L 329.175 -355.420385 
L 329.175 -352.445323 
L 329.175 -349.470261 
L 329.175 -346.495199 
L 329.175 -343.520137 
L 329.175 -340.545075 
L 329.175 -337.570013 
L 329.175 -334.594951 
L 329.175 -331.619889 
L 329.175 -328.644827 
L 329.175 -325.669765 
L 329.175 -322.694703 
L 329.175 -319.71964 
L 329.175 -316.744578 
L 329.175 -313.769516 
L 329.175 -310.794454 
L 329.175 -307.819392 
L 329.175 -304.84433 
L 329.175 -301.869268 
L 329.175 -298.894206 
L 329.175 -295.919144 
L 329.175 -292.944082 
L 329.175 -289.96902 
L 329.175 -286.993958 
L 329.175 -284.018896 
L 329.175 -281.043834 
L 329.175 -278.068772 
L 329.175 -275.09371 
L 329.175 -272.118648 
L 329.175 -269.143586 
L 329.175 -266.168524 
L 329.175 -263.193462 
L 329.175 -260.2184 
L 329.175 -257.243338 
L 329.175 -254.268276 
L 329.175 -251.293213 
L 329.175 -248.318151 
L 329.175 -245.343089 
L 329.175 -242.368027 
L 329.175 -239.392965 
L 329.175 -236.417903 
L 329.175 -233.442841 
L 329.175 -230.467779 
L 329.175 -227.492717 
L 329.175 -224.517655 
L 329.175 -221.542593 
L 329.175 -218.567531 
L 329.175 -215.592469 
L 329.175 -212.617407 
L 329.175 -209.642345 
L 329.175 -206.667283 
L 329.175 -203.692221 
L 329.175 -200.717159 
L 329.175 -197.742097 
L 329.175 -194.767035 
L 329.175 -191.791973 
L 329.175 -188.816911 
L 329.175 -185.841849 
L 329.175 -182.866787 
L 329.175 -179.891724 
L 329.175 -176.916662 
L 329.175 -173.9416 
L 329.175 -170.966538 
L 329.175 -167.991476 
L 329.175 -165.016414 
L 329.175 -162.041352 
L 329.175 -159.06629 
L 329.175 -156.091228 
L 329.175 -153.116166 
L 329.175 -150.141104 
L 329.175 -147.166042 
L 329.175 -144.19098 
L 329.175 -141.215918 
L 329.175 -138.240856 
L 329.175 -135.265794 
L 329.175 -132.290732 
L 329.175 -129.31567 
L 329.175 -126.340608 
L 329.175 -123.365546 
L 329.175 -120.390484 
L 329.175 -117.415422 
L 329.175 -114.44036 
L 329.175 -111.465297 
L 329.175 -108.490235 
L 329.175 -105.515173 
L 329.175 -102.540111 
L 329.175 -99.565049 
L 329.175 -96.589987 
L 329.175 -93.614925 
L 329.175 -90.639863 
L 329.175 -87.664801 
L 329.175 -84.689739 
L 329.175 -81.714677 
L 329.175 -78.739615 
L 329.175 -75.764553 
L 329.175 -72.789491 
L 329.175 -69.814429 
z
" id="mc7a6f557c9" style="stroke:#363636;"/>
    </defs>
    <g clip-path="url(#p565773bd2d)">
     <use style="fill:#176d9c;stroke:#363636;" x="0" xlink:href="#mc7a6f557c9" y="432"/>
    </g>
   </g>
   <g id="PolyCollection_4">
    <defs>
     <path d="M 329.74941 -120.269636 
L 329.175 -120.269636 
L 329.175 -122.568001 
L 329.175 -124.866366 
L 329.175 -127.16473 
L 329.175 -129.463095 
L 329.175 -131.76146 
L 329.175 -134.059825 
L 329.175 -136.35819 
L 329.175 -138.656555 
L 329.175 -140.95492 
L 329.175 -143.253284 
L 329.175 -145.551649 
L 329.175 -147.850014 
L 329.175 -150.148379 
L 329.175 -152.446744 
L 329.175 -154.745109 
L 329.175 -157.043474 
L 329.175 -159.341838 
L 329.175 -161.640203 
L 329.175 -163.938568 
L 329.175 -166.236933 
L 329.175 -168.535298 
L 329.175 -170.833663 
L 329.175 -173.132028 
L 329.175 -175.430392 
L 329.175 -177.728757 
L 329.175 -180.027122 
L 329.175 -182.325487 
L 329.175 -184.623852 
L 329.175 -186.922217 
L 329.175 -189.220582 
L 329.175 -191.518946 
L 329.175 -193.817311 
L 329.175 -196.115676 
L 329.175 -198.414041 
L 329.175 -200.712406 
L 329.175 -203.010771 
L 329.175 -205.309136 
L 329.175 -207.6075 
L 329.175 -209.905865 
L 329.175 -212.20423 
L 329.175 -214.502595 
L 329.175 -216.80096 
L 329.175 -219.099325 
L 329.175 -221.39769 
L 329.175 -223.696054 
L 329.175 -225.994419 
L 329.175 -228.292784 
L 329.175 -230.591149 
L 329.175 -232.889514 
L 329.175 -235.187879 
L 329.175 -237.486244 
L 329.175 -239.784608 
L 329.175 -242.082973 
L 329.175 -244.381338 
L 329.175 -246.679703 
L 329.175 -248.978068 
L 329.175 -251.276433 
L 329.175 -253.574798 
L 329.175 -255.873162 
L 329.175 -258.171527 
L 329.175 -260.469892 
L 329.175 -262.768257 
L 329.175 -265.066622 
L 329.175 -267.364987 
L 329.175 -269.663352 
L 329.175 -271.961716 
L 329.175 -274.260081 
L 329.175 -276.558446 
L 329.175 -278.856811 
L 329.175 -281.155176 
L 329.175 -283.453541 
L 329.175 -285.751906 
L 329.175 -288.05027 
L 329.175 -290.348635 
L 329.175 -292.647 
L 329.175 -294.945365 
L 329.175 -297.24373 
L 329.175 -299.542095 
L 329.175 -301.84046 
L 329.175 -304.138824 
L 329.175 -306.437189 
L 329.175 -308.735554 
L 329.175 -311.033919 
L 329.175 -313.332284 
L 329.175 -315.630649 
L 329.175 -317.929014 
L 329.175 -320.227378 
L 329.175 -322.525743 
L 329.175 -324.824108 
L 329.175 -327.122473 
L 329.175 -329.420838 
L 329.175 -331.719203 
L 329.175 -334.017568 
L 329.175 -336.315932 
L 329.175 -338.614297 
L 329.175 -340.912662 
L 329.175 -343.211027 
L 329.175 -345.509392 
L 329.175 -347.807757 
L 329.764947 -347.807757 
L 329.764947 -347.807757 
L 329.955747 -345.509392 
L 330.142363 -343.211027 
L 330.311748 -340.912662 
L 330.466759 -338.614297 
L 330.631464 -336.315932 
L 330.848351 -334.017568 
L 331.167462 -331.719203 
L 331.630572 -329.420838 
L 332.255382 -327.122473 
L 333.025741 -324.824108 
L 333.894548 -322.525743 
L 334.80362 -320.227378 
L 335.71699 -317.929014 
L 336.652609 -315.630649 
L 337.690632 -313.332284 
L 338.942853 -311.033919 
L 340.487369 -308.735554 
L 342.294658 -306.437189 
L 344.182402 -304.138824 
L 345.829495 -301.84046 
L 346.857002 -299.542095 
L 346.954101 -297.24373 
L 346.002244 -294.945365 
L 344.144281 -292.647 
L 341.764693 -290.348635 
L 339.385847 -288.05027 
L 337.521882 -285.751906 
L 336.545035 -283.453541 
L 336.60421 -281.155176 
L 337.607861 -278.856811 
L 339.262525 -276.558446 
L 341.151952 -274.260081 
L 342.842192 -271.961716 
L 343.994735 -269.663352 
L 344.461698 -267.364987 
L 344.33278 -265.066622 
L 343.912431 -262.768257 
L 343.627464 -260.469892 
L 343.890664 -258.171527 
L 344.963276 -255.873162 
L 346.863387 -253.574798 
L 349.358417 -251.276433 
L 352.058321 -248.978068 
L 354.589683 -246.679703 
L 356.786162 -244.381338 
L 358.801696 -242.082973 
L 361.070203 -239.784608 
L 364.10718 -237.486244 
L 368.238564 -235.187879 
L 373.390041 -232.889514 
L 379.039797 -230.591149 
L 384.351608 -228.292784 
L 388.423529 -225.994419 
L 390.555 -223.696054 
L 390.44804 -221.39769 
L 388.284979 -219.099325 
L 384.651636 -216.80096 
L 380.316043 -214.502595 
L 375.937567 -212.20423 
L 371.837221 -209.905865 
L 367.950662 -207.6075 
L 363.990857 -205.309136 
L 359.720462 -203.010771 
L 355.166348 -200.712406 
L 350.652734 -198.414041 
L 346.651523 -196.115676 
L 343.55866 -193.817311 
L 341.531463 -191.518946 
L 340.461134 -189.220582 
L 340.06321 -186.922217 
L 340.010194 -184.623852 
L 340.031643 -182.325487 
L 339.950151 -180.027122 
L 339.668584 -177.728757 
L 339.145188 -175.430392 
L 338.383459 -173.132028 
L 337.438345 -170.833663 
L 336.420706 -168.535298 
L 335.480933 -166.236933 
L 334.76803 -163.938568 
L 334.379298 -161.640203 
L 334.324181 -159.341838 
L 334.519055 -157.043474 
L 334.814132 -154.745109 
L 335.039969 -152.446744 
L 335.05627 -150.148379 
L 334.788538 -147.850014 
L 334.243853 -145.551649 
L 333.502537 -143.253284 
L 332.688505 -140.95492 
L 331.927904 -138.656555 
L 331.310813 -136.35819 
L 330.870042 -134.059825 
L 330.583488 -131.76146 
L 330.395759 -129.463095 
L 330.246963 -127.16473 
L 330.095473 -124.866366 
L 329.926899 -122.568001 
L 329.74941 -120.269636 
z
" id="mdfc56fc5ce" style="stroke:#363636;"/>
    </defs>
    <g clip-path="url(#p565773bd2d)">
     <use style="fill:#c38820;stroke:#363636;" x="0" xlink:href="#mdfc56fc5ce" y="432"/>
    </g>
   </g>
   <g id="PolyCollection_5">
    <defs>
     <path d="M 482.625 -70.059633 
L 482.218157 -70.059633 
L 482.085982 -73.029742 
L 481.988252 -75.99985 
L 481.954315 -78.969958 
L 481.99512 -81.940067 
L 482.097545 -84.910175 
L 482.231171 -87.880284 
L 482.36278 -90.850392 
L 482.469211 -93.820501 
L 482.54206 -96.790609 
L 482.584322 -99.760717 
L 482.60354 -102.730826 
L 482.606 -105.700934 
L 482.593986 -108.671043 
L 482.566018 -111.641151 
L 482.519092 -114.611259 
L 482.451322 -117.581368 
L 482.36243 -120.551476 
L 482.249384 -123.521585 
L 482.097202 -126.491693 
L 481.870792 -129.461802 
L 481.518456 -132.43191 
L 480.994588 -135.402018 
L 480.29581 -138.372127 
L 479.488681 -141.342235 
L 478.70284 -144.312344 
L 478.079805 -147.282452 
L 477.696822 -150.252561 
L 477.507061 -153.222669 
L 477.336114 -156.192777 
L 476.949346 -159.162886 
L 476.166594 -162.132994 
L 474.9681 -165.103103 
L 473.530042 -168.073211 
L 472.162468 -171.043319 
L 471.180755 -174.013428 
L 470.779707 -176.983536 
L 470.964904 -179.953645 
L 471.546526 -182.923753 
L 472.169761 -185.893862 
L 472.370558 -188.86397 
L 471.673407 -191.834078 
L 469.734268 -194.804187 
L 466.471957 -197.774295 
L 462.093165 -200.744404 
L 456.970585 -203.714512 
L 451.457944 -206.684621 
L 445.799261 -209.654729 
L 440.21673 -212.624837 
L 435.093137 -215.594946 
L 431.060663 -218.565054 
L 428.868439 -221.535163 
L 429.06911 -224.505271 
L 431.702795 -227.475379 
L 436.178903 -230.445488 
L 441.460537 -233.415596 
L 446.488862 -236.385705 
L 450.62659 -239.355813 
L 453.858662 -242.325922 
L 456.626588 -245.29603 
L 459.417024 -248.266138 
L 462.392713 -251.236247 
L 465.308846 -254.206355 
L 467.738245 -257.176464 
L 469.410413 -260.146572 
L 470.411811 -263.116681 
L 471.12039 -266.086789 
L 471.945593 -269.056897 
L 473.068187 -272.027006 
L 474.346702 -274.997114 
L 475.421784 -277.967223 
L 475.921533 -280.937331 
L 475.637252 -283.907439 
L 474.595205 -286.877548 
L 473.02548 -289.847656 
L 471.267141 -292.817765 
L 469.650722 -295.787873 
L 468.39648 -298.757982 
L 467.569515 -301.72809 
L 467.118097 -304.698198 
L 466.974683 -307.668307 
L 467.148328 -310.638415 
L 467.734885 -313.608524 
L 468.834181 -316.578632 
L 470.4416 -319.548741 
L 472.402326 -322.518849 
L 474.461061 -325.488957 
L 476.36451 -328.459066 
L 477.946309 -331.429174 
L 479.15456 -334.399283 
L 480.027768 -337.369391 
L 480.647854 -340.339499 
L 481.097123 -343.309608 
L 481.434576 -346.279716 
L 481.694048 -349.249825 
L 481.895242 -352.219933 
L 482.054235 -355.190042 
L 482.185769 -358.16015 
L 482.299688 -361.130258 
L 482.398485 -364.100367 
L 482.625 -364.100367 
L 482.625 -364.100367 
L 482.625 -361.130258 
L 482.625 -358.16015 
L 482.625 -355.190042 
L 482.625 -352.219933 
L 482.625 -349.249825 
L 482.625 -346.279716 
L 482.625 -343.309608 
L 482.625 -340.339499 
L 482.625 -337.369391 
L 482.625 -334.399283 
L 482.625 -331.429174 
L 482.625 -328.459066 
L 482.625 -325.488957 
L 482.625 -322.518849 
L 482.625 -319.548741 
L 482.625 -316.578632 
L 482.625 -313.608524 
L 482.625 -310.638415 
L 482.625 -307.668307 
L 482.625 -304.698198 
L 482.625 -301.72809 
L 482.625 -298.757982 
L 482.625 -295.787873 
L 482.625 -292.817765 
L 482.625 -289.847656 
L 482.625 -286.877548 
L 482.625 -283.907439 
L 482.625 -280.937331 
L 482.625 -277.967223 
L 482.625 -274.997114 
L 482.625 -272.027006 
L 482.625 -269.056897 
L 482.625 -266.086789 
L 482.625 -263.116681 
L 482.625 -260.146572 
L 482.625 -257.176464 
L 482.625 -254.206355 
L 482.625 -251.236247 
L 482.625 -248.266138 
L 482.625 -245.29603 
L 482.625 -242.325922 
L 482.625 -239.355813 
L 482.625 -236.385705 
L 482.625 -233.415596 
L 482.625 -230.445488 
L 482.625 -227.475379 
L 482.625 -224.505271 
L 482.625 -221.535163 
L 482.625 -218.565054 
L 482.625 -215.594946 
L 482.625 -212.624837 
L 482.625 -209.654729 
L 482.625 -206.684621 
L 482.625 -203.714512 
L 482.625 -200.744404 
L 482.625 -197.774295 
L 482.625 -194.804187 
L 482.625 -191.834078 
L 482.625 -188.86397 
L 482.625 -185.893862 
L 482.625 -182.923753 
L 482.625 -179.953645 
L 482.625 -176.983536 
L 482.625 -174.013428 
L 482.625 -171.043319 
L 482.625 -168.073211 
L 482.625 -165.103103 
L 482.625 -162.132994 
L 482.625 -159.162886 
L 482.625 -156.192777 
L 482.625 -153.222669 
L 482.625 -150.252561 
L 482.625 -147.282452 
L 482.625 -144.312344 
L 482.625 -141.342235 
L 482.625 -138.372127 
L 482.625 -135.402018 
L 482.625 -132.43191 
L 482.625 -129.461802 
L 482.625 -126.491693 
L 482.625 -123.521585 
L 482.625 -120.551476 
L 482.625 -117.581368 
L 482.625 -114.611259 
L 482.625 -111.641151 
L 482.625 -108.671043 
L 482.625 -105.700934 
L 482.625 -102.730826 
L 482.625 -99.760717 
L 482.625 -96.790609 
L 482.625 -93.820501 
L 482.625 -90.850392 
L 482.625 -87.880284 
L 482.625 -84.910175 
L 482.625 -81.940067 
L 482.625 -78.969958 
L 482.625 -75.99985 
L 482.625 -73.029742 
L 482.625 -70.059633 
z
" id="m5e7a9a3812" style="stroke:#363636;"/>
    </defs>
    <g clip-path="url(#p565773bd2d)">
     <use style="fill:#176d9c;stroke:#363636;" x="0" xlink:href="#m5e7a9a3812" y="432"/>
    </g>
   </g>
   <g id="PolyCollection_6">
    <defs>
     <path d="M 485.655069 -139.869013 
L 482.625 -139.869013 
L 482.625 -141.725777 
L 482.625 -143.582541 
L 482.625 -145.439306 
L 482.625 -147.29607 
L 482.625 -149.152834 
L 482.625 -151.009598 
L 482.625 -152.866362 
L 482.625 -154.723126 
L 482.625 -156.57989 
L 482.625 -158.436654 
L 482.625 -160.293418 
L 482.625 -162.150182 
L 482.625 -164.006947 
L 482.625 -165.863711 
L 482.625 -167.720475 
L 482.625 -169.577239 
L 482.625 -171.434003 
L 482.625 -173.290767 
L 482.625 -175.147531 
L 482.625 -177.004295 
L 482.625 -178.861059 
L 482.625 -180.717823 
L 482.625 -182.574588 
L 482.625 -184.431352 
L 482.625 -186.288116 
L 482.625 -188.14488 
L 482.625 -190.001644 
L 482.625 -191.858408 
L 482.625 -193.715172 
L 482.625 -195.571936 
L 482.625 -197.4287 
L 482.625 -199.285464 
L 482.625 -201.142228 
L 482.625 -202.998993 
L 482.625 -204.855757 
L 482.625 -206.712521 
L 482.625 -208.569285 
L 482.625 -210.426049 
L 482.625 -212.282813 
L 482.625 -214.139577 
L 482.625 -215.996341 
L 482.625 -217.853105 
L 482.625 -219.709869 
L 482.625 -221.566634 
L 482.625 -223.423398 
L 482.625 -225.280162 
L 482.625 -227.136926 
L 482.625 -228.99369 
L 482.625 -230.850454 
L 482.625 -232.707218 
L 482.625 -234.563982 
L 482.625 -236.420746 
L 482.625 -238.27751 
L 482.625 -240.134275 
L 482.625 -241.991039 
L 482.625 -243.847803 
L 482.625 -245.704567 
L 482.625 -247.561331 
L 482.625 -249.418095 
L 482.625 -251.274859 
L 482.625 -253.131623 
L 482.625 -254.988387 
L 482.625 -256.845151 
L 482.625 -258.701915 
L 482.625 -260.55868 
L 482.625 -262.415444 
L 482.625 -264.272208 
L 482.625 -266.128972 
L 482.625 -267.985736 
L 482.625 -269.8425 
L 482.625 -271.699264 
L 482.625 -273.556028 
L 482.625 -275.412792 
L 482.625 -277.269556 
L 482.625 -279.126321 
L 482.625 -280.983085 
L 482.625 -282.839849 
L 482.625 -284.696613 
L 482.625 -286.553377 
L 482.625 -288.410141 
L 482.625 -290.266905 
L 482.625 -292.123669 
L 482.625 -293.980433 
L 482.625 -295.837197 
L 482.625 -297.693961 
L 482.625 -299.550726 
L 482.625 -301.40749 
L 482.625 -303.264254 
L 482.625 -305.121018 
L 482.625 -306.977782 
L 482.625 -308.834546 
L 482.625 -310.69131 
L 482.625 -312.548074 
L 482.625 -314.404838 
L 482.625 -316.261602 
L 482.625 -318.118367 
L 482.625 -319.975131 
L 482.625 -321.831895 
L 482.625 -323.688659 
L 489.184662 -323.688659 
L 489.184662 -323.688659 
L 490.998832 -321.831895 
L 492.697348 -319.975131 
L 494.063382 -318.118367 
L 494.925186 -316.261602 
L 495.205711 -314.404838 
L 494.945552 -312.548074 
L 494.289104 -310.69131 
L 493.438444 -308.834546 
L 492.592001 -306.977782 
L 491.889786 -305.121018 
L 491.382596 -303.264254 
L 491.032409 -301.40749 
L 490.740031 -299.550726 
L 490.388134 -297.693961 
L 489.884846 -295.837197 
L 489.194945 -293.980433 
L 488.351226 -292.123669 
L 487.445686 -290.266905 
L 486.606428 -288.410141 
L 485.969263 -286.553377 
L 485.65208 -284.696613 
L 485.736196 -282.839849 
L 486.254685 -280.983085 
L 487.185668 -279.126321 
L 488.449528 -277.269556 
L 489.911813 -275.412792 
L 491.395705 -273.556028 
L 492.707406 -271.699264 
L 493.674163 -269.8425 
L 494.189229 -267.985736 
L 494.25339 -266.128972 
L 494.00066 -264.272208 
L 493.697407 -262.415444 
L 493.708578 -260.55868 
L 494.431017 -258.701915 
L 496.201438 -256.845151 
L 499.195824 -254.988387 
L 503.346566 -253.131623 
L 508.309224 -251.274859 
L 513.505358 -249.418095 
L 518.246812 -247.561331 
L 521.914354 -245.704567 
L 524.134119 -243.847803 
L 524.887215 -241.991039 
L 524.51014 -240.134275 
L 523.587917 -238.27751 
L 522.784729 -236.420746 
L 522.675268 -234.563982 
L 523.626518 -232.707218 
L 525.747063 -230.850454 
L 528.891983 -228.99369 
L 532.702123 -227.136926 
L 536.665773 -225.280162 
L 540.2035 -223.423398 
L 542.776801 -221.566634 
L 544.005 -219.709869 
L 543.75442 -217.853105 
L 542.158587 -215.996341 
L 539.549279 -214.139577 
L 536.318769 -212.282813 
L 532.771036 -210.426049 
L 529.029649 -208.569285 
L 525.043344 -206.712521 
L 520.680451 -204.855757 
L 515.858817 -202.998993 
L 510.643814 -201.142228 
L 505.269535 -199.285464 
L 500.081515 -197.4287 
L 495.437174 -195.571936 
L 491.613521 -193.715172 
L 488.758055 -191.858408 
L 486.891224 -190.001644 
L 485.944049 -188.14488 
L 485.803774 -186.288116 
L 486.344611 -184.431352 
L 487.433934 -182.574588 
L 488.918913 -180.717823 
L 490.608691 -178.861059 
L 492.269681 -177.004295 
L 493.645678 -175.147531 
L 494.502466 -173.290767 
L 494.683257 -171.434003 
L 494.153308 -169.577239 
L 493.014177 -167.720475 
L 491.47991 -165.863711 
L 489.823151 -164.006947 
L 488.310241 -162.150182 
L 487.145822 -160.293418 
L 486.440008 -158.436654 
L 486.200777 -156.57989 
L 486.346719 -154.723126 
L 486.73319 -152.866362 
L 487.186105 -151.009598 
L 487.538545 -149.152834 
L 487.664464 -147.29607 
L 487.50222 -145.439306 
L 487.061495 -143.582541 
L 486.411522 -141.725777 
L 485.655069 -139.869013 
z
" id="m41b39caf1d" style="stroke:#363636;"/>
    </defs>
    <g clip-path="url(#p565773bd2d)">
     <use style="fill:#c38820;stroke:#363636;" x="0" xlink:href="#m41b39caf1d" y="432"/>
    </g>
   </g>
   <g id="PolyCollection_7">
    <defs>
     <path d="M 636.075 -68.825455 
L 633.777318 -68.825455 
L 633.111213 -71.820496 
L 632.579745 -74.815537 
L 632.306346 -77.810579 
L 632.359879 -80.80562 
L 632.726458 -83.800661 
L 633.315016 -86.795702 
L 633.993193 -89.790744 
L 634.633455 -92.785785 
L 635.146179 -95.780826 
L 635.487296 -98.775868 
L 635.643828 -101.770909 
L 635.611194 -104.76595 
L 635.377701 -107.760992 
L 634.92612 -110.756033 
L 634.252969 -113.751074 
L 633.39577 -116.746116 
L 632.450471 -119.741157 
L 631.561406 -122.736198 
L 630.878744 -125.73124 
L 630.499481 -128.726281 
L 630.423881 -131.721322 
L 630.555591 -134.716364 
L 630.748869 -137.711405 
L 630.876345 -140.706446 
L 630.877171 -143.701488 
L 630.758369 -146.696529 
L 630.552337 -149.69157 
L 630.260474 -152.686612 
L 629.820552 -155.681653 
L 629.121015 -158.676694 
L 628.058316 -161.671736 
L 626.608359 -164.666777 
L 624.873284 -167.661818 
L 623.07549 -170.65686 
L 621.496165 -173.651901 
L 620.381308 -176.646942 
L 619.850535 -179.641983 
L 619.83967 -182.637025 
L 620.094621 -185.632066 
L 620.220197 -188.627107 
L 619.774447 -191.622149 
L 618.383452 -194.61719 
L 615.837104 -197.612231 
L 612.12778 -200.607273 
L 607.421475 -203.602314 
L 601.992691 -206.597355 
L 596.177265 -209.592397 
L 590.376158 -212.587438 
L 585.088725 -215.582479 
L 580.910144 -218.577521 
L 578.435766 -221.572562 
L 578.078141 -224.567603 
L 579.878951 -227.562645 
L 583.430832 -230.557686 
L 587.980445 -233.552727 
L 592.683231 -236.547769 
L 596.885658 -239.54281 
L 600.290085 -242.537851 
L 602.930294 -245.532893 
L 605.004139 -248.527934 
L 606.69041 -251.522975 
L 608.065952 -254.518017 
L 609.151759 -257.513058 
L 610.021608 -260.508099 
L 610.86957 -263.50314 
L 611.971452 -266.498182 
L 613.555094 -269.493223 
L 615.659206 -272.488264 
L 618.07001 -275.483306 
L 620.378578 -278.478347 
L 622.132577 -281.473388 
L 623.007544 -284.46843 
L 622.91942 -287.463471 
L 622.036556 -290.458512 
L 620.699909 -293.453554 
L 619.298444 -296.448595 
L 618.157915 -299.443636 
L 617.484431 -302.438678 
L 617.369813 -305.433719 
L 617.832162 -308.42876 
L 618.851751 -311.423802 
L 620.376959 -314.418843 
L 622.305775 -317.413884 
L 624.471387 -320.408926 
L 626.658185 -323.403967 
L 628.650629 -326.399008 
L 630.292032 -329.39405 
L 631.522435 -332.389091 
L 632.377843 -335.384132 
L 632.955512 -338.379174 
L 633.366415 -341.374215 
L 633.698073 -344.369256 
L 634.000273 -347.364298 
L 634.291407 -350.359339 
L 634.573478 -353.35438 
L 634.843901 -356.349421 
L 635.099458 -359.344463 
L 635.335236 -362.339504 
L 635.543824 -365.334545 
L 636.075 -365.334545 
L 636.075 -365.334545 
L 636.075 -362.339504 
L 636.075 -359.344463 
L 636.075 -356.349421 
L 636.075 -353.35438 
L 636.075 -350.359339 
L 636.075 -347.364298 
L 636.075 -344.369256 
L 636.075 -341.374215 
L 636.075 -338.379174 
L 636.075 -335.384132 
L 636.075 -332.389091 
L 636.075 -329.39405 
L 636.075 -326.399008 
L 636.075 -323.403967 
L 636.075 -320.408926 
L 636.075 -317.413884 
L 636.075 -314.418843 
L 636.075 -311.423802 
L 636.075 -308.42876 
L 636.075 -305.433719 
L 636.075 -302.438678 
L 636.075 -299.443636 
L 636.075 -296.448595 
L 636.075 -293.453554 
L 636.075 -290.458512 
L 636.075 -287.463471 
L 636.075 -284.46843 
L 636.075 -281.473388 
L 636.075 -278.478347 
L 636.075 -275.483306 
L 636.075 -272.488264 
L 636.075 -269.493223 
L 636.075 -266.498182 
L 636.075 -263.50314 
L 636.075 -260.508099 
L 636.075 -257.513058 
L 636.075 -254.518017 
L 636.075 -251.522975 
L 636.075 -248.527934 
L 636.075 -245.532893 
L 636.075 -242.537851 
L 636.075 -239.54281 
L 636.075 -236.547769 
L 636.075 -233.552727 
L 636.075 -230.557686 
L 636.075 -227.562645 
L 636.075 -224.567603 
L 636.075 -221.572562 
L 636.075 -218.577521 
L 636.075 -215.582479 
L 636.075 -212.587438 
L 636.075 -209.592397 
L 636.075 -206.597355 
L 636.075 -203.602314 
L 636.075 -200.607273 
L 636.075 -197.612231 
L 636.075 -194.61719 
L 636.075 -191.622149 
L 636.075 -188.627107 
L 636.075 -185.632066 
L 636.075 -182.637025 
L 636.075 -179.641983 
L 636.075 -176.646942 
L 636.075 -173.651901 
L 636.075 -170.65686 
L 636.075 -167.661818 
L 636.075 -164.666777 
L 636.075 -161.671736 
L 636.075 -158.676694 
L 636.075 -155.681653 
L 636.075 -152.686612 
L 636.075 -149.69157 
L 636.075 -146.696529 
L 636.075 -143.701488 
L 636.075 -140.706446 
L 636.075 -137.711405 
L 636.075 -134.716364 
L 636.075 -131.721322 
L 636.075 -128.726281 
L 636.075 -125.73124 
L 636.075 -122.736198 
L 636.075 -119.741157 
L 636.075 -116.746116 
L 636.075 -113.751074 
L 636.075 -110.756033 
L 636.075 -107.760992 
L 636.075 -104.76595 
L 636.075 -101.770909 
L 636.075 -98.775868 
L 636.075 -95.780826 
L 636.075 -92.785785 
L 636.075 -89.790744 
L 636.075 -86.795702 
L 636.075 -83.800661 
L 636.075 -80.80562 
L 636.075 -77.810579 
L 636.075 -74.815537 
L 636.075 -71.820496 
L 636.075 -68.825455 
z
" id="mf803c3dae4" style="stroke:#363636;"/>
    </defs>
    <g clip-path="url(#p565773bd2d)">
     <use style="fill:#176d9c;stroke:#363636;" x="0" xlink:href="#mf803c3dae4" y="432"/>
    </g>
   </g>
   <g id="PolyCollection_8">
    <defs>
     <path d="M 636.62516 -69.515071 
L 636.075 -69.515071 
L 636.075 -72.34101 
L 636.075 -75.166948 
L 636.075 -77.992887 
L 636.075 -80.818826 
L 636.075 -83.644764 
L 636.075 -86.470703 
L 636.075 -89.296642 
L 636.075 -92.12258 
L 636.075 -94.948519 
L 636.075 -97.774458 
L 636.075 -100.600396 
L 636.075 -103.426335 
L 636.075 -106.252274 
L 636.075 -109.078212 
L 636.075 -111.904151 
L 636.075 -114.73009 
L 636.075 -117.556028 
L 636.075 -120.381967 
L 636.075 -123.207906 
L 636.075 -126.033844 
L 636.075 -128.859783 
L 636.075 -131.685722 
L 636.075 -134.51166 
L 636.075 -137.337599 
L 636.075 -140.163538 
L 636.075 -142.989476 
L 636.075 -145.815415 
L 636.075 -148.641354 
L 636.075 -151.467292 
L 636.075 -154.293231 
L 636.075 -157.11917 
L 636.075 -159.945108 
L 636.075 -162.771047 
L 636.075 -165.596986 
L 636.075 -168.422924 
L 636.075 -171.248863 
L 636.075 -174.074802 
L 636.075 -176.90074 
L 636.075 -179.726679 
L 636.075 -182.552618 
L 636.075 -185.378556 
L 636.075 -188.204495 
L 636.075 -191.030434 
L 636.075 -193.856372 
L 636.075 -196.682311 
L 636.075 -199.50825 
L 636.075 -202.334188 
L 636.075 -205.160127 
L 636.075 -207.986066 
L 636.075 -210.812004 
L 636.075 -213.637943 
L 636.075 -216.463882 
L 636.075 -219.28982 
L 636.075 -222.115759 
L 636.075 -224.941698 
L 636.075 -227.767636 
L 636.075 -230.593575 
L 636.075 -233.419514 
L 636.075 -236.245452 
L 636.075 -239.071391 
L 636.075 -241.89733 
L 636.075 -244.723268 
L 636.075 -247.549207 
L 636.075 -250.375146 
L 636.075 -253.201084 
L 636.075 -256.027023 
L 636.075 -258.852962 
L 636.075 -261.6789 
L 636.075 -264.504839 
L 636.075 -267.330778 
L 636.075 -270.156716 
L 636.075 -272.982655 
L 636.075 -275.808594 
L 636.075 -278.634532 
L 636.075 -281.460471 
L 636.075 -284.28641 
L 636.075 -287.112348 
L 636.075 -289.938287 
L 636.075 -292.764226 
L 636.075 -295.590164 
L 636.075 -298.416103 
L 636.075 -301.242042 
L 636.075 -304.06798 
L 636.075 -306.893919 
L 636.075 -309.719858 
L 636.075 -312.545796 
L 636.075 -315.371735 
L 636.075 -318.197673 
L 636.075 -321.023612 
L 636.075 -323.849551 
L 636.075 -326.675489 
L 636.075 -329.501428 
L 636.075 -332.327367 
L 636.075 -335.153305 
L 636.075 -337.979244 
L 636.075 -340.805183 
L 636.075 -343.631121 
L 636.075 -346.45706 
L 636.075 -349.282999 
L 639.986825 -349.282999 
L 639.986825 -349.282999 
L 641.188239 -346.45706 
L 642.219191 -343.631121 
L 642.907125 -340.805183 
L 643.19136 -337.979244 
L 643.166944 -335.153305 
L 643.058857 -332.327367 
L 643.133523 -329.501428 
L 643.590443 -326.675489 
L 644.487811 -323.849551 
L 645.736488 -321.023612 
L 647.158835 -318.197673 
L 648.573965 -315.371735 
L 649.858625 -312.545796 
L 650.951677 -309.719858 
L 651.810247 -306.893919 
L 652.360829 -304.06798 
L 652.493208 -301.242042 
L 652.114148 -298.416103 
L 651.233403 -295.590164 
L 650.027885 -292.764226 
L 648.837167 -289.938287 
L 648.077188 -287.112348 
L 648.098644 -284.28641 
L 649.044724 -281.460471 
L 650.771064 -278.634532 
L 652.874603 -275.808594 
L 654.836689 -272.982655 
L 656.230529 -270.156716 
L 656.901478 -267.330778 
L 657.030978 -264.504839 
L 657.048713 -261.6789 
L 657.43615 -258.852962 
L 658.522348 -256.027023 
L 660.376025 -253.201084 
L 662.843854 -250.375146 
L 665.702594 -247.549207 
L 668.826508 -244.723268 
L 672.261216 -241.89733 
L 676.152268 -239.071391 
L 680.570593 -236.245452 
L 685.346943 -233.419514 
L 690.024955 -230.593575 
L 693.969268 -227.767636 
L 696.572801 -224.941698 
L 697.455 -222.115759 
L 696.555535 -219.28982 
L 694.08981 -216.463882 
L 690.407322 -213.637943 
L 685.843961 -210.812004 
L 680.656311 -207.986066 
L 675.065778 -205.160127 
L 669.357499 -202.334188 
L 663.934982 -199.50825 
L 659.265111 -196.682311 
L 655.734684 -193.856372 
L 653.507299 -191.030434 
L 652.465331 -188.204495 
L 652.259217 -185.378556 
L 652.4242 -182.552618 
L 652.507131 -179.726679 
L 652.167418 -176.90074 
L 651.241438 -174.074802 
L 649.766421 -171.248863 
L 647.955953 -168.422924 
L 646.124576 -165.596986 
L 644.578993 -162.771047 
L 643.514102 -159.945108 
L 642.955399 -157.11917 
L 642.770391 -154.293231 
L 642.741012 -151.467292 
L 642.662576 -148.641354 
L 642.424348 -145.815415 
L 642.036379 -142.989476 
L 641.5938 -140.163538 
L 641.201885 -137.337599 
L 640.905945 -134.51166 
L 640.665723 -131.685722 
L 640.385347 -128.859783 
L 639.975352 -126.033844 
L 639.405995 -123.207906 
L 638.721682 -120.381967 
L 638.014551 -117.556028 
L 637.379613 -114.73009 
L 636.879064 -111.904151 
L 636.53076 -109.078212 
L 636.318428 -106.252274 
L 636.211197 -103.426335 
L 636.180402 -100.600396 
L 636.207699 -97.774458 
L 636.284347 -94.948519 
L 636.4047 -92.12258 
L 636.558032 -89.296642 
L 636.723055 -86.470703 
L 636.868645 -83.644764 
L 636.961617 -80.818826 
L 636.97841 -77.992887 
L 636.914579 -75.166948 
L 636.786644 -72.34101 
L 636.62516 -69.515071 
z
" id="mc8eff63c4d" style="stroke:#363636;"/>
    </defs>
    <g clip-path="url(#p565773bd2d)">
     <use style="fill:#c38820;stroke:#363636;" x="0" xlink:href="#mc8eff63c4d" y="432"/>
    </g>
   </g>
   <g id="patch_3">
    <path clip-path="url(#p565773bd2d)" d="M 175.725 609.809776 
L 175.725 609.809776 
L 175.725 609.809776 
L 175.725 609.809776 
z
" style="fill:#176d9c;stroke:#363636;stroke-linejoin:miter;stroke-width:0.5;"/>
   </g>
   <g id="patch_4">
    <path clip-path="url(#p565773bd2d)" d="M 175.725 609.809776 
L 175.725 609.809776 
L 175.725 609.809776 
L 175.725 609.809776 
z
" style="fill:#c38820;stroke:#363636;stroke-linejoin:miter;stroke-width:0.5;"/>
   </g>
   <g id="line2d_7">
    <path clip-path="url(#p565773bd2d)" d="M 142.374568 225.428876 
L 175.725 225.428876 
" style="fill:none;stroke:#363636;stroke-dasharray:1.5,1.5;stroke-dashoffset:0;"/>
   </g>
   <g id="line2d_8">
    <path clip-path="url(#p565773bd2d)" d="M 116.606074 203.469258 
L 175.725 203.469258 
" style="fill:none;stroke:#363636;stroke-dasharray:3,3;stroke-dashoffset:0;"/>
   </g>
   <g id="line2d_9">
    <path clip-path="url(#p565773bd2d)" d="M 145.106563 180.944052 
L 175.725 180.944052 
" style="fill:none;stroke:#363636;stroke-dasharray:1.5,1.5;stroke-dashoffset:0;"/>
   </g>
   <g id="line2d_10">
    <path clip-path="url(#p565773bd2d)" d="M 175.725 225.428876 
L 213.727638 225.428876 
" style="fill:none;stroke:#363636;stroke-dasharray:1.5,1.5;stroke-dashoffset:0;"/>
   </g>
   <g id="line2d_11">
    <path clip-path="url(#p565773bd2d)" d="M 175.725 206.106307 
L 236.480138 206.106307 
" style="fill:none;stroke:#363636;stroke-dasharray:3,3;stroke-dashoffset:0;"/>
   </g>
   <g id="line2d_12">
    <path clip-path="url(#p565773bd2d)" d="M 175.725 184.447825 
L 207.540147 184.447825 
" style="fill:none;stroke:#363636;stroke-dasharray:1.5,1.5;stroke-dashoffset:0;"/>
   </g>
   <g id="line2d_13">
    <path clip-path="url(#p565773bd2d)" d="M 298.96023 225.428876 
L 329.175 225.428876 
" style="fill:none;stroke:#363636;stroke-dasharray:1.5,1.5;stroke-dashoffset:0;"/>
   </g>
   <g id="line2d_14">
    <path clip-path="url(#p565773bd2d)" d="M 282.095735 203.161261 
L 329.175 203.161261 
" style="fill:none;stroke:#363636;stroke-dasharray:3,3;stroke-dashoffset:0;"/>
   </g>
   <g id="line2d_15">
    <path clip-path="url(#p565773bd2d)" d="M 308.397964 173.89384 
L 329.175 173.89384 
" style="fill:none;stroke:#363636;stroke-dasharray:1.5,1.5;stroke-dashoffset:0;"/>
   </g>
   <g id="line2d_16">
    <path clip-path="url(#p565773bd2d)" d="M 329.175 225.428876 
L 367.562905 225.428876 
" style="fill:none;stroke:#363636;stroke-dasharray:1.5,1.5;stroke-dashoffset:0;"/>
   </g>
   <g id="line2d_17">
    <path clip-path="url(#p565773bd2d)" d="M 329.175 206.106307 
L 387.831044 206.106307 
" style="fill:none;stroke:#363636;stroke-dasharray:3,3;stroke-dashoffset:0;"/>
   </g>
   <g id="line2d_18">
    <path clip-path="url(#p565773bd2d)" d="M 329.175 180.944052 
L 349.156582 180.944052 
" style="fill:none;stroke:#363636;stroke-dasharray:1.5,1.5;stroke-dashoffset:0;"/>
   </g>
   <g id="line2d_19">
    <path clip-path="url(#p565773bd2d)" d="M 435.568456 217.649121 
L 482.625 217.649121 
" style="fill:none;stroke:#363636;stroke-dasharray:1.5,1.5;stroke-dashoffset:0;"/>
   </g>
   <g id="line2d_20">
    <path clip-path="url(#p565773bd2d)" d="M 432.212017 204.859066 
L 482.625 204.859066 
" style="fill:none;stroke:#363636;stroke-dasharray:3,3;stroke-dashoffset:0;"/>
   </g>
   <g id="line2d_21">
    <path clip-path="url(#p565773bd2d)" d="M 462.595036 180.815747 
L 482.625 180.815747 
" style="fill:none;stroke:#363636;stroke-dasharray:1.5,1.5;stroke-dashoffset:0;"/>
   </g>
   <g id="line2d_22">
    <path clip-path="url(#p565773bd2d)" d="M 482.625 217.649121 
L 538.980036 217.649121 
" style="fill:none;stroke:#363636;stroke-dasharray:1.5,1.5;stroke-dashoffset:0;"/>
   </g>
   <g id="line2d_23">
    <path clip-path="url(#p565773bd2d)" d="M 482.625 208.252159 
L 539.627715 208.252159 
" style="fill:none;stroke:#363636;stroke-dasharray:3,3;stroke-dashoffset:0;"/>
   </g>
   <g id="line2d_24">
    <path clip-path="url(#p565773bd2d)" d="M 482.625 187.992475 
L 523.719028 187.992475 
" style="fill:none;stroke:#363636;stroke-dasharray:1.5,1.5;stroke-dashoffset:0;"/>
   </g>
   <g id="line2d_25">
    <path clip-path="url(#p565773bd2d)" d="M 602.333514 225.428876 
L 636.075 225.428876 
" style="fill:none;stroke:#363636;stroke-dasharray:1.5,1.5;stroke-dashoffset:0;"/>
   </g>
   <g id="line2d_26">
    <path clip-path="url(#p565773bd2d)" d="M 580.440912 203.469258 
L 636.075 203.469258 
" style="fill:none;stroke:#363636;stroke-dasharray:3,3;stroke-dashoffset:0;"/>
   </g>
   <g id="line2d_27">
    <path clip-path="url(#p565773bd2d)" d="M 612.212487 165.553359 
L 636.075 165.553359 
" style="fill:none;stroke:#363636;stroke-dasharray:1.5,1.5;stroke-dashoffset:0;"/>
   </g>
   <g id="line2d_28">
    <path clip-path="url(#p565773bd2d)" d="M 636.075 225.428876 
L 674.67587 225.428876 
" style="fill:none;stroke:#363636;stroke-dasharray:1.5,1.5;stroke-dashoffset:0;"/>
   </g>
   <g id="line2d_29">
    <path clip-path="url(#p565773bd2d)" d="M 636.075 206.106307 
L 695.967823 206.106307 
" style="fill:none;stroke:#363636;stroke-dasharray:3,3;stroke-dashoffset:0;"/>
   </g>
   <g id="line2d_30">
    <path clip-path="url(#p565773bd2d)" d="M 636.075 167.63848 
L 656.821418 167.63848 
" style="fill:none;stroke:#363636;stroke-dasharray:1.5,1.5;stroke-dashoffset:0;"/>
   </g>
   <g id="legend_1">
    <g id="patch_5">
     <path d="M 641.160781 108.503594 
L 705.1 108.503594 
Q 707.3 108.503594 707.3 106.303594 
L 707.3 59.54 
Q 707.3 57.34 705.1 57.34 
L 641.160781 57.34 
Q 638.960781 57.34 638.960781 59.54 
L 638.960781 106.303594 
Q 638.960781 108.503594 641.160781 108.503594 
z
" style="fill:#ffffff;opacity:0.8;stroke:#cccccc;stroke-linejoin:miter;"/>
    </g>
    <g id="text_13">
     <!-- inst_single -->
     <g style="fill:#262626;" transform="translate(644.781328 70.329375)scale(0.12 -0.12)">
      <defs>
       <path d="M 6.640625 61.46875 
L 6.640625 71.578125 
L 15.4375 71.578125 
L 15.4375 61.46875 
z
M 6.640625 0 
L 6.640625 51.859375 
L 15.4375 51.859375 
L 15.4375 0 
z
" id="ArialMT-105"/>
       <path d="M 4.984375 -4.296875 
L 13.53125 -5.5625 
Q 14.0625 -9.515625 16.5 -11.328125 
Q 19.78125 -13.765625 25.4375 -13.765625 
Q 31.546875 -13.765625 34.859375 -11.328125 
Q 38.1875 -8.890625 39.359375 -4.5 
Q 40.046875 -1.8125 39.984375 6.78125 
Q 34.234375 0 25.640625 0 
Q 14.9375 0 9.078125 7.71875 
Q 3.21875 15.4375 3.21875 26.21875 
Q 3.21875 33.640625 5.90625 39.90625 
Q 8.59375 46.1875 13.6875 49.609375 
Q 18.796875 53.03125 25.6875 53.03125 
Q 34.859375 53.03125 40.828125 45.609375 
L 40.828125 51.859375 
L 48.921875 51.859375 
L 48.921875 7.03125 
Q 48.921875 -5.078125 46.453125 -10.125 
Q 44 -15.1875 38.640625 -18.109375 
Q 33.296875 -21.046875 25.484375 -21.046875 
Q 16.21875 -21.046875 10.5 -16.875 
Q 4.78125 -12.703125 4.984375 -4.296875 
z
M 12.25 26.859375 
Q 12.25 16.65625 16.296875 11.96875 
Q 20.359375 7.28125 26.46875 7.28125 
Q 32.515625 7.28125 36.609375 11.9375 
Q 40.71875 16.609375 40.71875 26.5625 
Q 40.71875 36.078125 36.5 40.90625 
Q 32.28125 45.75 26.3125 45.75 
Q 20.453125 45.75 16.34375 40.984375 
Q 12.25 36.234375 12.25 26.859375 
z
" id="ArialMT-103"/>
       <path d="M 6.390625 0 
L 6.390625 71.578125 
L 15.1875 71.578125 
L 15.1875 0 
z
" id="ArialMT-108"/>
      </defs>
      <use xlink:href="#ArialMT-105"/>
      <use x="22.216797" xlink:href="#ArialMT-110"/>
      <use x="77.832031" xlink:href="#ArialMT-115"/>
      <use x="127.832031" xlink:href="#ArialMT-116"/>
      <use x="155.615234" xlink:href="#ArialMT-95"/>
      <use x="211.230469" xlink:href="#ArialMT-115"/>
      <use x="261.230469" xlink:href="#ArialMT-105"/>
      <use x="283.447266" xlink:href="#ArialMT-110"/>
      <use x="339.0625" xlink:href="#ArialMT-103"/>
      <use x="394.677734" xlink:href="#ArialMT-108"/>
      <use x="416.894531" xlink:href="#ArialMT-101"/>
     </g>
    </g>
    <g id="patch_6">
     <path d="M 643.360781 86.228594 
L 665.360781 86.228594 
L 665.360781 78.528594 
L 643.360781 78.528594 
z
" style="fill:#176d9c;stroke:#363636;stroke-linejoin:miter;stroke-width:0.5;"/>
    </g>
    <g id="text_14">
     <!-- inst -->
     <g style="fill:#262626;" transform="translate(674.160781 86.228594)scale(0.11 -0.11)">
      <use xlink:href="#ArialMT-105"/>
      <use x="22.216797" xlink:href="#ArialMT-110"/>
      <use x="77.832031" xlink:href="#ArialMT-115"/>
      <use x="127.832031" xlink:href="#ArialMT-116"/>
     </g>
    </g>
    <g id="patch_7">
     <path d="M 643.360781 101.788437 
L 665.360781 101.788437 
L 665.360781 94.088437 
L 643.360781 94.088437 
z
" style="fill:#c38820;stroke:#363636;stroke-linejoin:miter;stroke-width:0.5;"/>
    </g>
    <g id="text_15">
     <!-- single -->
     <g style="fill:#262626;" transform="translate(674.160781 101.788437)scale(0.11 -0.11)">
      <use xlink:href="#ArialMT-115"/>
      <use x="50" xlink:href="#ArialMT-105"/>
      <use x="72.216797" xlink:href="#ArialMT-110"/>
      <use x="127.832031" xlink:href="#ArialMT-103"/>
      <use x="183.447266" xlink:href="#ArialMT-108"/>
      <use x="205.664062" xlink:href="#ArialMT-101"/>
     </g>
    </g>
   </g>
  </g>
 </g>
 <defs>
  <clipPath id="p565773bd2d">
   <rect height="326.16" width="613.8" x="99" y="51.84"/>
  </clipPath>
 </defs>
</svg>
