<?xml version="1.0" encoding="utf-8" standalone="no"?>
<!DOCTYPE svg PUBLIC "-//W3C//DTD SVG 1.1//EN"
  "http://www.w3.org/Graphics/SVG/1.1/DTD/svg11.dtd">
<!-- Created with matplotlib (https://matplotlib.org/) -->
<svg height="432pt" version="1.1" viewBox="0 0 792 432" width="792pt" xmlns="http://www.w3.org/2000/svg" xmlns:xlink="http://www.w3.org/1999/xlink">
 <metadata>
  <rdf:RDF xmlns:cc="http://creativecommons.org/ns#" xmlns:dc="http://purl.org/dc/elements/1.1/" xmlns:rdf="http://www.w3.org/1999/02/22-rdf-syntax-ns#">
   <cc:Work>
    <dc:type rdf:resource="http://purl.org/dc/dcmitype/StillImage"/>
    <dc:date>2021-08-19T08:05:11.921331</dc:date>
    <dc:format>image/svg+xml</dc:format>
    <dc:creator>
     <cc:Agent>
      <dc:title>Matplotlib v3.3.1, https://matplotlib.org/</dc:title>
     </cc:Agent>
    </dc:creator>
   </cc:Work>
  </rdf:RDF>
 </metadata>
 <defs>
  <style type="text/css">*{stroke-linecap:butt;stroke-linejoin:round;}</style>
 </defs>
 <g id="figure_1">
  <g id="patch_1">
   <path d="M 0 432 
L 792 432 
L 792 0 
L 0 0 
z
" style="fill:#ffffff;"/>
  </g>
  <g id="axes_1">
   <g id="patch_2">
    <path d="M 99 378 
L 712.8 378 
L 712.8 51.84 
L 99 51.84 
z
" style="fill:#ffffff;"/>
   </g>
   <g id="matplotlib.axis_1">
    <g id="xtick_1">
     <g id="text_1">
      <!-- 2000-2006 -->
      <g style="fill:#262626;" transform="translate(149.425547 395.373594)scale(0.11 -0.11)">
       <defs>
        <path d="M 50.34375 8.453125 
L 50.34375 0 
L 3.03125 0 
Q 2.9375 3.171875 4.046875 6.109375 
Q 5.859375 10.9375 9.828125 15.625 
Q 13.8125 20.3125 21.34375 26.46875 
Q 33.015625 36.03125 37.109375 41.625 
Q 41.21875 47.21875 41.21875 52.203125 
Q 41.21875 57.421875 37.46875 61 
Q 33.734375 64.59375 27.734375 64.59375 
Q 21.390625 64.59375 17.578125 60.78125 
Q 13.765625 56.984375 13.71875 50.25 
L 4.6875 51.171875 
Q 5.609375 61.28125 11.65625 66.578125 
Q 17.71875 71.875 27.9375 71.875 
Q 38.234375 71.875 44.234375 66.15625 
Q 50.25 60.453125 50.25 52 
Q 50.25 47.703125 48.484375 43.546875 
Q 46.734375 39.40625 42.65625 34.8125 
Q 38.578125 30.21875 29.109375 22.21875 
Q 21.1875 15.578125 18.9375 13.203125 
Q 16.703125 10.84375 15.234375 8.453125 
z
" id="ArialMT-50"/>
        <path d="M 4.15625 35.296875 
Q 4.15625 48 6.765625 55.734375 
Q 9.375 63.484375 14.515625 67.671875 
Q 19.671875 71.875 27.484375 71.875 
Q 33.25 71.875 37.59375 69.546875 
Q 41.9375 67.234375 44.765625 62.859375 
Q 47.609375 58.5 49.21875 52.21875 
Q 50.828125 45.953125 50.828125 35.296875 
Q 50.828125 22.703125 48.234375 14.96875 
Q 45.65625 7.234375 40.5 3 
Q 35.359375 -1.21875 27.484375 -1.21875 
Q 17.140625 -1.21875 11.234375 6.203125 
Q 4.15625 15.140625 4.15625 35.296875 
z
M 13.1875 35.296875 
Q 13.1875 17.671875 17.3125 11.828125 
Q 21.4375 6 27.484375 6 
Q 33.546875 6 37.671875 11.859375 
Q 41.796875 17.71875 41.796875 35.296875 
Q 41.796875 52.984375 37.671875 58.78125 
Q 33.546875 64.59375 27.390625 64.59375 
Q 21.34375 64.59375 17.71875 59.46875 
Q 13.1875 52.9375 13.1875 35.296875 
z
" id="ArialMT-48"/>
        <path d="M 3.171875 21.484375 
L 3.171875 30.328125 
L 30.171875 30.328125 
L 30.171875 21.484375 
z
" id="ArialMT-45"/>
        <path d="M 49.75 54.046875 
L 41.015625 53.375 
Q 39.84375 58.546875 37.703125 60.890625 
Q 34.125 64.65625 28.90625 64.65625 
Q 24.703125 64.65625 21.53125 62.3125 
Q 17.390625 59.28125 14.984375 53.46875 
Q 12.59375 47.65625 12.5 36.921875 
Q 15.671875 41.75 20.265625 44.09375 
Q 24.859375 46.4375 29.890625 46.4375 
Q 38.671875 46.4375 44.84375 39.96875 
Q 51.03125 33.5 51.03125 23.25 
Q 51.03125 16.5 48.125 10.71875 
Q 45.21875 4.9375 40.140625 1.859375 
Q 35.0625 -1.21875 28.609375 -1.21875 
Q 17.625 -1.21875 10.6875 6.859375 
Q 3.765625 14.9375 3.765625 33.5 
Q 3.765625 54.25 11.421875 63.671875 
Q 18.109375 71.875 29.4375 71.875 
Q 37.890625 71.875 43.28125 67.140625 
Q 48.6875 62.40625 49.75 54.046875 
z
M 13.875 23.1875 
Q 13.875 18.65625 15.796875 14.5 
Q 17.71875 10.359375 21.1875 8.171875 
Q 24.65625 6 28.46875 6 
Q 34.03125 6 38.03125 10.484375 
Q 42.046875 14.984375 42.046875 22.703125 
Q 42.046875 30.125 38.078125 34.390625 
Q 34.125 38.671875 28.125 38.671875 
Q 22.171875 38.671875 18.015625 34.390625 
Q 13.875 30.125 13.875 23.1875 
z
" id="ArialMT-54"/>
       </defs>
       <use xlink:href="#ArialMT-50"/>
       <use x="55.615234" xlink:href="#ArialMT-48"/>
       <use x="111.230469" xlink:href="#ArialMT-48"/>
       <use x="166.845703" xlink:href="#ArialMT-48"/>
       <use x="222.460938" xlink:href="#ArialMT-45"/>
       <use x="255.761719" xlink:href="#ArialMT-50"/>
       <use x="311.376953" xlink:href="#ArialMT-48"/>
       <use x="366.992188" xlink:href="#ArialMT-48"/>
       <use x="422.607422" xlink:href="#ArialMT-54"/>
      </g>
     </g>
    </g>
    <g id="xtick_2">
     <g id="text_2">
      <!-- 2007-2009 -->
      <g style="fill:#262626;" transform="translate(302.875547 395.373594)scale(0.11 -0.11)">
       <defs>
        <path d="M 4.734375 62.203125 
L 4.734375 70.65625 
L 51.078125 70.65625 
L 51.078125 63.8125 
Q 44.234375 56.546875 37.515625 44.484375 
Q 30.8125 32.421875 27.15625 19.671875 
Q 24.515625 10.6875 23.78125 0 
L 14.75 0 
Q 14.890625 8.453125 18.0625 20.40625 
Q 21.234375 32.375 27.171875 43.484375 
Q 33.109375 54.59375 39.796875 62.203125 
z
" id="ArialMT-55"/>
        <path d="M 5.46875 16.546875 
L 13.921875 17.328125 
Q 14.984375 11.375 18.015625 8.6875 
Q 21.046875 6 25.78125 6 
Q 29.828125 6 32.875 7.859375 
Q 35.9375 9.71875 37.890625 12.8125 
Q 39.84375 15.921875 41.15625 21.1875 
Q 42.484375 26.46875 42.484375 31.9375 
Q 42.484375 32.515625 42.4375 33.6875 
Q 39.796875 29.5 35.234375 26.875 
Q 30.671875 24.265625 25.34375 24.265625 
Q 16.453125 24.265625 10.296875 30.703125 
Q 4.15625 37.15625 4.15625 47.703125 
Q 4.15625 58.59375 10.578125 65.234375 
Q 17 71.875 26.65625 71.875 
Q 33.640625 71.875 39.421875 68.109375 
Q 45.21875 64.359375 48.21875 57.390625 
Q 51.21875 50.4375 51.21875 37.25 
Q 51.21875 23.53125 48.234375 15.40625 
Q 45.265625 7.28125 39.375 3.03125 
Q 33.5 -1.21875 25.59375 -1.21875 
Q 17.1875 -1.21875 11.859375 3.4375 
Q 6.546875 8.109375 5.46875 16.546875 
z
M 41.453125 48.140625 
Q 41.453125 55.71875 37.421875 60.15625 
Q 33.40625 64.59375 27.734375 64.59375 
Q 21.875 64.59375 17.53125 59.8125 
Q 13.1875 55.03125 13.1875 47.40625 
Q 13.1875 40.578125 17.3125 36.296875 
Q 21.4375 32.03125 27.484375 32.03125 
Q 33.59375 32.03125 37.515625 36.296875 
Q 41.453125 40.578125 41.453125 48.140625 
z
" id="ArialMT-57"/>
       </defs>
       <use xlink:href="#ArialMT-50"/>
       <use x="55.615234" xlink:href="#ArialMT-48"/>
       <use x="111.230469" xlink:href="#ArialMT-48"/>
       <use x="166.845703" xlink:href="#ArialMT-55"/>
       <use x="222.460938" xlink:href="#ArialMT-45"/>
       <use x="255.761719" xlink:href="#ArialMT-50"/>
       <use x="311.376953" xlink:href="#ArialMT-48"/>
       <use x="366.992188" xlink:href="#ArialMT-48"/>
       <use x="422.607422" xlink:href="#ArialMT-57"/>
      </g>
     </g>
    </g>
    <g id="xtick_3">
     <g id="text_3">
      <!-- 2010-2013 -->
      <g style="fill:#262626;" transform="translate(456.325547 395.373594)scale(0.11 -0.11)">
       <defs>
        <path d="M 37.25 0 
L 28.46875 0 
L 28.46875 56 
Q 25.296875 52.984375 20.140625 49.953125 
Q 14.984375 46.921875 10.890625 45.40625 
L 10.890625 53.90625 
Q 18.265625 57.375 23.78125 62.296875 
Q 29.296875 67.234375 31.59375 71.875 
L 37.25 71.875 
z
" id="ArialMT-49"/>
        <path d="M 4.203125 18.890625 
L 12.984375 20.0625 
Q 14.5 12.59375 18.140625 9.296875 
Q 21.78125 6 27 6 
Q 33.203125 6 37.46875 10.296875 
Q 41.75 14.59375 41.75 20.953125 
Q 41.75 27 37.796875 30.921875 
Q 33.84375 34.859375 27.734375 34.859375 
Q 25.25 34.859375 21.53125 33.890625 
L 22.515625 41.609375 
Q 23.390625 41.5 23.921875 41.5 
Q 29.546875 41.5 34.03125 44.421875 
Q 38.53125 47.359375 38.53125 53.46875 
Q 38.53125 58.296875 35.25 61.46875 
Q 31.984375 64.65625 26.8125 64.65625 
Q 21.6875 64.65625 18.265625 61.421875 
Q 14.84375 58.203125 13.875 51.765625 
L 5.078125 53.328125 
Q 6.6875 62.15625 12.390625 67.015625 
Q 18.109375 71.875 26.609375 71.875 
Q 32.46875 71.875 37.390625 69.359375 
Q 42.328125 66.84375 44.9375 62.5 
Q 47.5625 58.15625 47.5625 53.265625 
Q 47.5625 48.640625 45.0625 44.828125 
Q 42.578125 41.015625 37.703125 38.765625 
Q 44.046875 37.3125 47.5625 32.6875 
Q 51.078125 28.078125 51.078125 21.140625 
Q 51.078125 11.765625 44.234375 5.25 
Q 37.40625 -1.265625 26.953125 -1.265625 
Q 17.53125 -1.265625 11.296875 4.34375 
Q 5.078125 9.96875 4.203125 18.890625 
z
" id="ArialMT-51"/>
       </defs>
       <use xlink:href="#ArialMT-50"/>
       <use x="55.615234" xlink:href="#ArialMT-48"/>
       <use x="111.230469" xlink:href="#ArialMT-49"/>
       <use x="166.845703" xlink:href="#ArialMT-48"/>
       <use x="222.460938" xlink:href="#ArialMT-45"/>
       <use x="255.761719" xlink:href="#ArialMT-50"/>
       <use x="311.376953" xlink:href="#ArialMT-48"/>
       <use x="366.992188" xlink:href="#ArialMT-49"/>
       <use x="422.607422" xlink:href="#ArialMT-51"/>
      </g>
     </g>
    </g>
    <g id="xtick_4">
     <g id="text_4">
      <!-- 2014-2018 -->
      <g style="fill:#262626;" transform="translate(609.775547 395.373594)scale(0.11 -0.11)">
       <defs>
        <path d="M 32.328125 0 
L 32.328125 17.140625 
L 1.265625 17.140625 
L 1.265625 25.203125 
L 33.9375 71.578125 
L 41.109375 71.578125 
L 41.109375 25.203125 
L 50.78125 25.203125 
L 50.78125 17.140625 
L 41.109375 17.140625 
L 41.109375 0 
z
M 32.328125 25.203125 
L 32.328125 57.46875 
L 9.90625 25.203125 
z
" id="ArialMT-52"/>
        <path d="M 17.671875 38.8125 
Q 12.203125 40.828125 9.5625 44.53125 
Q 6.9375 48.25 6.9375 53.421875 
Q 6.9375 61.234375 12.546875 66.546875 
Q 18.171875 71.875 27.484375 71.875 
Q 36.859375 71.875 42.578125 66.421875 
Q 48.296875 60.984375 48.296875 53.171875 
Q 48.296875 48.1875 45.671875 44.5 
Q 43.0625 40.828125 37.75 38.8125 
Q 44.34375 36.671875 47.78125 31.875 
Q 51.21875 27.09375 51.21875 20.453125 
Q 51.21875 11.28125 44.71875 5.03125 
Q 38.234375 -1.21875 27.640625 -1.21875 
Q 17.046875 -1.21875 10.546875 5.046875 
Q 4.046875 11.328125 4.046875 20.703125 
Q 4.046875 27.6875 7.59375 32.390625 
Q 11.140625 37.109375 17.671875 38.8125 
z
M 15.921875 53.71875 
Q 15.921875 48.640625 19.1875 45.40625 
Q 22.46875 42.1875 27.6875 42.1875 
Q 32.765625 42.1875 36.015625 45.375 
Q 39.265625 48.578125 39.265625 53.21875 
Q 39.265625 58.0625 35.90625 61.359375 
Q 32.5625 64.65625 27.59375 64.65625 
Q 22.5625 64.65625 19.234375 61.421875 
Q 15.921875 58.203125 15.921875 53.71875 
z
M 13.09375 20.65625 
Q 13.09375 16.890625 14.875 13.375 
Q 16.65625 9.859375 20.171875 7.921875 
Q 23.6875 6 27.734375 6 
Q 34.03125 6 38.125 10.046875 
Q 42.234375 14.109375 42.234375 20.359375 
Q 42.234375 26.703125 38.015625 30.859375 
Q 33.796875 35.015625 27.4375 35.015625 
Q 21.234375 35.015625 17.15625 30.90625 
Q 13.09375 26.8125 13.09375 20.65625 
z
" id="ArialMT-56"/>
       </defs>
       <use xlink:href="#ArialMT-50"/>
       <use x="55.615234" xlink:href="#ArialMT-48"/>
       <use x="111.230469" xlink:href="#ArialMT-49"/>
       <use x="166.845703" xlink:href="#ArialMT-52"/>
       <use x="222.460938" xlink:href="#ArialMT-45"/>
       <use x="255.761719" xlink:href="#ArialMT-50"/>
       <use x="311.376953" xlink:href="#ArialMT-48"/>
       <use x="366.992188" xlink:href="#ArialMT-49"/>
       <use x="422.607422" xlink:href="#ArialMT-56"/>
      </g>
     </g>
    </g>
    <g id="text_5">
     <!-- year -->
     <g style="fill:#262626;" transform="translate(394.229063 410.008594)scale(0.12 -0.12)">
      <defs>
       <path d="M 6.203125 -19.96875 
L 5.21875 -11.71875 
Q 8.109375 -12.5 10.25 -12.5 
Q 13.1875 -12.5 14.9375 -11.515625 
Q 16.703125 -10.546875 17.828125 -8.796875 
Q 18.65625 -7.46875 20.515625 -2.25 
Q 20.75 -1.515625 21.296875 -0.09375 
L 1.609375 51.859375 
L 11.078125 51.859375 
L 21.875 21.828125 
Q 23.96875 16.109375 25.640625 9.8125 
Q 27.15625 15.875 29.25 21.625 
L 40.328125 51.859375 
L 49.125 51.859375 
L 29.390625 -0.875 
Q 26.21875 -9.421875 24.46875 -12.640625 
Q 22.125 -17 19.09375 -19.015625 
Q 16.0625 -21.046875 11.859375 -21.046875 
Q 9.328125 -21.046875 6.203125 -19.96875 
z
" id="ArialMT-121"/>
       <path d="M 42.09375 16.703125 
L 51.171875 15.578125 
Q 49.03125 7.625 43.21875 3.21875 
Q 37.40625 -1.171875 28.375 -1.171875 
Q 17 -1.171875 10.328125 5.828125 
Q 3.65625 12.84375 3.65625 25.484375 
Q 3.65625 38.578125 10.390625 45.796875 
Q 17.140625 53.03125 27.875 53.03125 
Q 38.28125 53.03125 44.875 45.953125 
Q 51.46875 38.875 51.46875 26.03125 
Q 51.46875 25.25 51.421875 23.6875 
L 12.75 23.6875 
Q 13.234375 15.140625 17.578125 10.59375 
Q 21.921875 6.0625 28.421875 6.0625 
Q 33.25 6.0625 36.671875 8.59375 
Q 40.09375 11.140625 42.09375 16.703125 
z
M 13.234375 30.90625 
L 42.1875 30.90625 
Q 41.609375 37.453125 38.875 40.71875 
Q 34.671875 45.796875 27.984375 45.796875 
Q 21.921875 45.796875 17.796875 41.75 
Q 13.671875 37.703125 13.234375 30.90625 
z
" id="ArialMT-101"/>
       <path d="M 40.4375 6.390625 
Q 35.546875 2.25 31.03125 0.53125 
Q 26.515625 -1.171875 21.34375 -1.171875 
Q 12.796875 -1.171875 8.203125 3 
Q 3.609375 7.171875 3.609375 13.671875 
Q 3.609375 17.484375 5.34375 20.625 
Q 7.078125 23.78125 9.890625 25.6875 
Q 12.703125 27.59375 16.21875 28.5625 
Q 18.796875 29.25 24.03125 29.890625 
Q 34.671875 31.15625 39.703125 32.90625 
Q 39.75 34.71875 39.75 35.203125 
Q 39.75 40.578125 37.25 42.78125 
Q 33.890625 45.75 27.25 45.75 
Q 21.046875 45.75 18.09375 43.578125 
Q 15.140625 41.40625 13.71875 35.890625 
L 5.125 37.0625 
Q 6.296875 42.578125 8.984375 45.96875 
Q 11.671875 49.359375 16.75 51.1875 
Q 21.828125 53.03125 28.515625 53.03125 
Q 35.15625 53.03125 39.296875 51.46875 
Q 43.453125 49.90625 45.40625 47.53125 
Q 47.359375 45.171875 48.140625 41.546875 
Q 48.578125 39.3125 48.578125 33.453125 
L 48.578125 21.734375 
Q 48.578125 9.46875 49.140625 6.21875 
Q 49.703125 2.984375 51.375 0 
L 42.1875 0 
Q 40.828125 2.734375 40.4375 6.390625 
z
M 39.703125 26.03125 
Q 34.90625 24.078125 25.34375 22.703125 
Q 19.921875 21.921875 17.671875 20.9375 
Q 15.4375 19.96875 14.203125 18.09375 
Q 12.984375 16.21875 12.984375 13.921875 
Q 12.984375 10.40625 15.640625 8.0625 
Q 18.3125 5.71875 23.4375 5.71875 
Q 28.515625 5.71875 32.46875 7.9375 
Q 36.421875 10.15625 38.28125 14.015625 
Q 39.703125 17 39.703125 22.796875 
z
" id="ArialMT-97"/>
       <path d="M 6.5 0 
L 6.5 51.859375 
L 14.40625 51.859375 
L 14.40625 44 
Q 17.4375 49.515625 20 51.265625 
Q 22.5625 53.03125 25.640625 53.03125 
Q 30.078125 53.03125 34.671875 50.203125 
L 31.640625 42.046875 
Q 28.421875 43.953125 25.203125 43.953125 
Q 22.3125 43.953125 20.015625 42.21875 
Q 17.71875 40.484375 16.75 37.40625 
Q 15.28125 32.71875 15.28125 27.15625 
L 15.28125 0 
z
" id="ArialMT-114"/>
      </defs>
      <use xlink:href="#ArialMT-121"/>
      <use x="50" xlink:href="#ArialMT-101"/>
      <use x="105.615234" xlink:href="#ArialMT-97"/>
      <use x="161.230469" xlink:href="#ArialMT-114"/>
     </g>
    </g>
   </g>
   <g id="matplotlib.axis_2">
    <g id="ytick_1">
     <g id="line2d_1">
      <path clip-path="url(#pf8e28bf4f7)" d="M 99 351.391366 
L 712.8 351.391366 
" style="fill:none;stroke:#cccccc;stroke-linecap:round;"/>
     </g>
     <g id="text_6">
      <!-- 0.0 -->
      <g style="fill:#262626;" transform="translate(74.21 355.328163)scale(0.11 -0.11)">
       <defs>
        <path d="M 9.078125 0 
L 9.078125 10.015625 
L 19.09375 10.015625 
L 19.09375 0 
z
" id="ArialMT-46"/>
       </defs>
       <use xlink:href="#ArialMT-48"/>
       <use x="55.615234" xlink:href="#ArialMT-46"/>
       <use x="83.398438" xlink:href="#ArialMT-48"/>
      </g>
     </g>
    </g>
    <g id="ytick_2">
     <g id="line2d_2">
      <path clip-path="url(#pf8e28bf4f7)" d="M 99 295.595554 
L 712.8 295.595554 
" style="fill:none;stroke:#cccccc;stroke-linecap:round;"/>
     </g>
     <g id="text_7">
      <!-- 0.2 -->
      <g style="fill:#262626;" transform="translate(74.21 299.532351)scale(0.11 -0.11)">
       <use xlink:href="#ArialMT-48"/>
       <use x="55.615234" xlink:href="#ArialMT-46"/>
       <use x="83.398438" xlink:href="#ArialMT-50"/>
      </g>
     </g>
    </g>
    <g id="ytick_3">
     <g id="line2d_3">
      <path clip-path="url(#pf8e28bf4f7)" d="M 99 239.799743 
L 712.8 239.799743 
" style="fill:none;stroke:#cccccc;stroke-linecap:round;"/>
     </g>
     <g id="text_8">
      <!-- 0.4 -->
      <g style="fill:#262626;" transform="translate(74.21 243.73654)scale(0.11 -0.11)">
       <use xlink:href="#ArialMT-48"/>
       <use x="55.615234" xlink:href="#ArialMT-46"/>
       <use x="83.398438" xlink:href="#ArialMT-52"/>
      </g>
     </g>
    </g>
    <g id="ytick_4">
     <g id="line2d_4">
      <path clip-path="url(#pf8e28bf4f7)" d="M 99 184.003932 
L 712.8 184.003932 
" style="fill:none;stroke:#cccccc;stroke-linecap:round;"/>
     </g>
     <g id="text_9">
      <!-- 0.6 -->
      <g style="fill:#262626;" transform="translate(74.21 187.940729)scale(0.11 -0.11)">
       <use xlink:href="#ArialMT-48"/>
       <use x="55.615234" xlink:href="#ArialMT-46"/>
       <use x="83.398438" xlink:href="#ArialMT-54"/>
      </g>
     </g>
    </g>
    <g id="ytick_5">
     <g id="line2d_5">
      <path clip-path="url(#pf8e28bf4f7)" d="M 99 128.20812 
L 712.8 128.20812 
" style="fill:none;stroke:#cccccc;stroke-linecap:round;"/>
     </g>
     <g id="text_10">
      <!-- 0.8 -->
      <g style="fill:#262626;" transform="translate(74.21 132.144917)scale(0.11 -0.11)">
       <use xlink:href="#ArialMT-48"/>
       <use x="55.615234" xlink:href="#ArialMT-46"/>
       <use x="83.398438" xlink:href="#ArialMT-56"/>
      </g>
     </g>
    </g>
    <g id="ytick_6">
     <g id="line2d_6">
      <path clip-path="url(#pf8e28bf4f7)" d="M 99 72.412309 
L 712.8 72.412309 
" style="fill:none;stroke:#cccccc;stroke-linecap:round;"/>
     </g>
     <g id="text_11">
      <!-- 1.0 -->
      <g style="fill:#262626;" transform="translate(74.21 76.349106)scale(0.11 -0.11)">
       <use xlink:href="#ArialMT-49"/>
       <use x="55.615234" xlink:href="#ArialMT-46"/>
       <use x="83.398438" xlink:href="#ArialMT-48"/>
      </g>
     </g>
    </g>
    <g id="text_12">
     <!-- per_black -->
     <g style="fill:#262626;" transform="translate(67.825 240.93375)rotate(-90)scale(0.12 -0.12)">
      <defs>
       <path d="M 6.59375 -19.875 
L 6.59375 51.859375 
L 14.59375 51.859375 
L 14.59375 45.125 
Q 17.4375 49.078125 21 51.046875 
Q 24.5625 53.03125 29.640625 53.03125 
Q 36.28125 53.03125 41.359375 49.609375 
Q 46.4375 46.1875 49.015625 39.953125 
Q 51.609375 33.734375 51.609375 26.3125 
Q 51.609375 18.359375 48.75 11.984375 
Q 45.90625 5.609375 40.453125 2.21875 
Q 35.015625 -1.171875 29 -1.171875 
Q 24.609375 -1.171875 21.109375 0.6875 
Q 17.625 2.546875 15.375 5.375 
L 15.375 -19.875 
z
M 14.546875 25.640625 
Q 14.546875 15.625 18.59375 10.84375 
Q 22.65625 6.0625 28.421875 6.0625 
Q 34.28125 6.0625 38.453125 11.015625 
Q 42.625 15.96875 42.625 26.375 
Q 42.625 36.28125 38.546875 41.203125 
Q 34.46875 46.140625 28.8125 46.140625 
Q 23.1875 46.140625 18.859375 40.890625 
Q 14.546875 35.640625 14.546875 25.640625 
z
" id="ArialMT-112"/>
       <path d="M -1.515625 -19.875 
L -1.515625 -13.53125 
L 56.734375 -13.53125 
L 56.734375 -19.875 
z
" id="ArialMT-95"/>
       <path d="M 14.703125 0 
L 6.546875 0 
L 6.546875 71.578125 
L 15.328125 71.578125 
L 15.328125 46.046875 
Q 20.90625 53.03125 29.546875 53.03125 
Q 34.328125 53.03125 38.59375 51.09375 
Q 42.875 49.171875 45.625 45.671875 
Q 48.390625 42.1875 49.953125 37.25 
Q 51.515625 32.328125 51.515625 26.703125 
Q 51.515625 13.375 44.921875 6.09375 
Q 38.328125 -1.171875 29.109375 -1.171875 
Q 19.921875 -1.171875 14.703125 6.5 
z
M 14.59375 26.3125 
Q 14.59375 17 17.140625 12.84375 
Q 21.296875 6.0625 28.375 6.0625 
Q 34.125 6.0625 38.328125 11.0625 
Q 42.53125 16.0625 42.53125 25.984375 
Q 42.53125 36.140625 38.5 40.96875 
Q 34.46875 45.796875 28.765625 45.796875 
Q 23 45.796875 18.796875 40.796875 
Q 14.59375 35.796875 14.59375 26.3125 
z
" id="ArialMT-98"/>
       <path d="M 6.390625 0 
L 6.390625 71.578125 
L 15.1875 71.578125 
L 15.1875 0 
z
" id="ArialMT-108"/>
       <path d="M 40.4375 19 
L 49.078125 17.875 
Q 47.65625 8.9375 41.8125 3.875 
Q 35.984375 -1.171875 27.484375 -1.171875 
Q 16.84375 -1.171875 10.375 5.78125 
Q 3.90625 12.75 3.90625 25.734375 
Q 3.90625 34.125 6.6875 40.421875 
Q 9.46875 46.734375 15.15625 49.875 
Q 20.84375 53.03125 27.546875 53.03125 
Q 35.984375 53.03125 41.359375 48.75 
Q 46.734375 44.484375 48.25 36.625 
L 39.703125 35.296875 
Q 38.484375 40.53125 35.375 43.15625 
Q 32.28125 45.796875 27.875 45.796875 
Q 21.234375 45.796875 17.078125 41.03125 
Q 12.9375 36.28125 12.9375 25.984375 
Q 12.9375 15.53125 16.9375 10.796875 
Q 20.953125 6.0625 27.390625 6.0625 
Q 32.5625 6.0625 36.03125 9.234375 
Q 39.5 12.40625 40.4375 19 
z
" id="ArialMT-99"/>
       <path d="M 6.640625 0 
L 6.640625 71.578125 
L 15.4375 71.578125 
L 15.4375 30.765625 
L 36.234375 51.859375 
L 47.609375 51.859375 
L 27.78125 32.625 
L 49.609375 0 
L 38.765625 0 
L 21.625 26.515625 
L 15.4375 20.5625 
L 15.4375 0 
z
" id="ArialMT-107"/>
      </defs>
      <use xlink:href="#ArialMT-112"/>
      <use x="55.615234" xlink:href="#ArialMT-101"/>
      <use x="111.230469" xlink:href="#ArialMT-114"/>
      <use x="144.53125" xlink:href="#ArialMT-95"/>
      <use x="200.146484" xlink:href="#ArialMT-98"/>
      <use x="255.761719" xlink:href="#ArialMT-108"/>
      <use x="277.978516" xlink:href="#ArialMT-97"/>
      <use x="333.59375" xlink:href="#ArialMT-99"/>
      <use x="383.59375" xlink:href="#ArialMT-107"/>
     </g>
    </g>
   </g>
   <g id="PolyCollection_1">
    <defs>
     <path d="M 175.725 -72.282825 
L 174.044235 -72.282825 
L 173.610462 -75.20802 
L 173.183259 -78.133216 
L 172.805529 -81.058411 
L 172.520146 -83.983606 
L 172.361681 -86.908802 
L 172.34896 -89.833997 
L 172.48046 -92.759193 
L 172.733884 -95.684388 
L 173.069968 -98.609584 
L 173.439442 -101.534779 
L 173.791262 -104.459975 
L 174.080208 -107.38517 
L 174.272445 -110.310366 
L 174.34851 -113.235561 
L 174.30392 -116.160757 
L 174.148042 -119.085952 
L 173.901889 -122.011147 
L 173.595311 -124.936343 
L 173.263811 -127.861538 
L 172.945035 -130.786734 
L 172.674993 -133.711929 
L 172.484227 -136.637125 
L 172.394279 -139.56232 
L 172.414978 -142.487516 
L 172.543081 -145.412711 
L 172.762649 -148.337907 
L 173.047287 -151.263102 
L 173.36398 -154.188298 
L 173.677938 -157.113493 
L 173.957622 -160.038688 
L 174.179091 -162.963884 
L 174.328966 -165.889079 
L 174.405584 -168.814275 
L 174.41825 -171.73947 
L 174.384811 -174.664666 
L 174.328039 -177.589861 
L 174.271469 -180.515057 
L 174.235436 -183.440252 
L 174.233989 -186.365448 
L 174.273213 -189.290643 
L 174.351186 -192.215839 
L 174.459475 -195.141034 
L 174.585741 -198.066229 
L 174.716796 -200.991425 
L 174.841398 -203.91662 
L 174.952176 -206.841816 
L 175.046329 -209.767011 
L 175.125106 -212.692207 
L 175.192369 -215.617402 
L 175.252778 -218.542598 
L 175.310125 -221.467793 
L 175.366246 -224.392989 
L 175.42068 -227.318184 
L 175.470992 -230.24338 
L 175.513508 -233.168575 
L 175.54418 -236.093771 
L 175.559339 -239.018966 
L 175.55623 -241.944161 
L 175.533304 -244.869357 
L 175.490262 -247.794552 
L 175.427841 -250.719748 
L 175.347274 -253.644943 
L 175.249351 -256.570139 
L 175.133108 -259.495334 
L 174.994286 -262.42053 
L 174.823839 -265.345725 
L 174.606853 -268.270921 
L 174.322174 -271.196116 
L 173.942942 -274.121312 
L 173.438041 -277.046507 
L 172.774316 -279.971702 
L 171.919325 -282.896898 
L 170.844217 -285.822093 
L 169.526247 -288.747289 
L 167.950308 -291.672484 
L 166.10893 -294.59768 
L 164.000557 -297.522875 
L 161.626611 -300.448071 
L 158.988697 -303.373266 
L 156.087949 -306.298462 
L 152.928522 -309.223657 
L 149.526351 -312.148853 
L 145.922643 -315.074048 
L 142.199396 -317.999243 
L 138.49244 -320.924439 
L 134.9965 -323.849634 
L 131.957492 -326.77483 
L 129.649593 -329.700025 
L 128.338568 -332.625221 
L 128.237183 -335.550416 
L 129.462153 -338.475612 
L 132.003324 -341.400807 
L 135.713954 -344.326003 
L 140.32616 -347.251198 
L 145.489137 -350.176394 
L 150.821738 -353.101589 
L 155.967442 -356.026784 
L 160.639763 -358.95198 
L 164.649611 -361.877175 
L 175.725 -361.877175 
L 175.725 -361.877175 
L 175.725 -358.95198 
L 175.725 -356.026784 
L 175.725 -353.101589 
L 175.725 -350.176394 
L 175.725 -347.251198 
L 175.725 -344.326003 
L 175.725 -341.400807 
L 175.725 -338.475612 
L 175.725 -335.550416 
L 175.725 -332.625221 
L 175.725 -329.700025 
L 175.725 -326.77483 
L 175.725 -323.849634 
L 175.725 -320.924439 
L 175.725 -317.999243 
L 175.725 -315.074048 
L 175.725 -312.148853 
L 175.725 -309.223657 
L 175.725 -306.298462 
L 175.725 -303.373266 
L 175.725 -300.448071 
L 175.725 -297.522875 
L 175.725 -294.59768 
L 175.725 -291.672484 
L 175.725 -288.747289 
L 175.725 -285.822093 
L 175.725 -282.896898 
L 175.725 -279.971702 
L 175.725 -277.046507 
L 175.725 -274.121312 
L 175.725 -271.196116 
L 175.725 -268.270921 
L 175.725 -265.345725 
L 175.725 -262.42053 
L 175.725 -259.495334 
L 175.725 -256.570139 
L 175.725 -253.644943 
L 175.725 -250.719748 
L 175.725 -247.794552 
L 175.725 -244.869357 
L 175.725 -241.944161 
L 175.725 -239.018966 
L 175.725 -236.093771 
L 175.725 -233.168575 
L 175.725 -230.24338 
L 175.725 -227.318184 
L 175.725 -224.392989 
L 175.725 -221.467793 
L 175.725 -218.542598 
L 175.725 -215.617402 
L 175.725 -212.692207 
L 175.725 -209.767011 
L 175.725 -206.841816 
L 175.725 -203.91662 
L 175.725 -200.991425 
L 175.725 -198.066229 
L 175.725 -195.141034 
L 175.725 -192.215839 
L 175.725 -189.290643 
L 175.725 -186.365448 
L 175.725 -183.440252 
L 175.725 -180.515057 
L 175.725 -177.589861 
L 175.725 -174.664666 
L 175.725 -171.73947 
L 175.725 -168.814275 
L 175.725 -165.889079 
L 175.725 -162.963884 
L 175.725 -160.038688 
L 175.725 -157.113493 
L 175.725 -154.188298 
L 175.725 -151.263102 
L 175.725 -148.337907 
L 175.725 -145.412711 
L 175.725 -142.487516 
L 175.725 -139.56232 
L 175.725 -136.637125 
L 175.725 -133.711929 
L 175.725 -130.786734 
L 175.725 -127.861538 
L 175.725 -124.936343 
L 175.725 -122.011147 
L 175.725 -119.085952 
L 175.725 -116.160757 
L 175.725 -113.235561 
L 175.725 -110.310366 
L 175.725 -107.38517 
L 175.725 -104.459975 
L 175.725 -101.534779 
L 175.725 -98.609584 
L 175.725 -95.684388 
L 175.725 -92.759193 
L 175.725 -89.833997 
L 175.725 -86.908802 
L 175.725 -83.983606 
L 175.725 -81.058411 
L 175.725 -78.133216 
L 175.725 -75.20802 
L 175.725 -72.282825 
z
" id="m4ffec6ca87" style="stroke:#363636;"/>
    </defs>
    <g clip-path="url(#pf8e28bf4f7)">
     <use style="fill:#176d9c;stroke:#363636;" x="0" xlink:href="#m4ffec6ca87" y="432"/>
    </g>
   </g>
   <g id="PolyCollection_2">
    <defs>
     <path d="M 176.303751 -75.66934 
L 175.725 -75.66934 
L 175.725 -78.526121 
L 175.725 -81.382902 
L 175.725 -84.239683 
L 175.725 -87.096464 
L 175.725 -89.953245 
L 175.725 -92.810026 
L 175.725 -95.666807 
L 175.725 -98.523588 
L 175.725 -101.380369 
L 175.725 -104.23715 
L 175.725 -107.093931 
L 175.725 -109.950712 
L 175.725 -112.807493 
L 175.725 -115.664274 
L 175.725 -118.521055 
L 175.725 -121.377836 
L 175.725 -124.234617 
L 175.725 -127.091398 
L 175.725 -129.948179 
L 175.725 -132.80496 
L 175.725 -135.661741 
L 175.725 -138.518522 
L 175.725 -141.375303 
L 175.725 -144.232084 
L 175.725 -147.088865 
L 175.725 -149.945646 
L 175.725 -152.802427 
L 175.725 -155.659208 
L 175.725 -158.515989 
L 175.725 -161.37277 
L 175.725 -164.229551 
L 175.725 -167.086332 
L 175.725 -169.943113 
L 175.725 -172.799894 
L 175.725 -175.656675 
L 175.725 -178.513456 
L 175.725 -181.370237 
L 175.725 -184.227018 
L 175.725 -187.083799 
L 175.725 -189.94058 
L 175.725 -192.797361 
L 175.725 -195.654142 
L 175.725 -198.510923 
L 175.725 -201.367704 
L 175.725 -204.224485 
L 175.725 -207.081266 
L 175.725 -209.938047 
L 175.725 -212.794828 
L 175.725 -215.651609 
L 175.725 -218.508391 
L 175.725 -221.365172 
L 175.725 -224.221953 
L 175.725 -227.078734 
L 175.725 -229.935515 
L 175.725 -232.792296 
L 175.725 -235.649077 
L 175.725 -238.505858 
L 175.725 -241.362639 
L 175.725 -244.21942 
L 175.725 -247.076201 
L 175.725 -249.932982 
L 175.725 -252.789763 
L 175.725 -255.646544 
L 175.725 -258.503325 
L 175.725 -261.360106 
L 175.725 -264.216887 
L 175.725 -267.073668 
L 175.725 -269.930449 
L 175.725 -272.78723 
L 175.725 -275.644011 
L 175.725 -278.500792 
L 175.725 -281.357573 
L 175.725 -284.214354 
L 175.725 -287.071135 
L 175.725 -289.927916 
L 175.725 -292.784697 
L 175.725 -295.641478 
L 175.725 -298.498259 
L 175.725 -301.35504 
L 175.725 -304.211821 
L 175.725 -307.068602 
L 175.725 -309.925383 
L 175.725 -312.782164 
L 175.725 -315.638945 
L 175.725 -318.495726 
L 175.725 -321.352507 
L 175.725 -324.209288 
L 175.725 -327.066069 
L 175.725 -329.92285 
L 175.725 -332.779631 
L 175.725 -335.636412 
L 175.725 -338.493193 
L 175.725 -341.349974 
L 175.725 -344.206755 
L 175.725 -347.063536 
L 175.725 -349.920317 
L 175.725 -352.777098 
L 175.725 -355.633879 
L 175.725 -358.49066 
L 187.915611 -358.49066 
L 187.915611 -358.49066 
L 194.030185 -355.633879 
L 201.509468 -352.777098 
L 209.876188 -349.920317 
L 218.371225 -347.063536 
L 226.084191 -344.206755 
L 232.144429 -341.349974 
L 235.911628 -338.493193 
L 237.105 -335.636412 
L 235.834469 -332.779631 
L 232.533226 -329.92285 
L 227.823028 -327.066069 
L 222.360908 -324.209288 
L 216.713632 -321.352507 
L 211.286956 -318.495726 
L 206.311007 -315.638945 
L 201.865021 -312.782164 
L 197.921425 -309.925383 
L 194.39615 -307.068602 
L 191.197698 -304.211821 
L 188.266696 -301.35504 
L 185.595487 -298.498259 
L 183.221717 -295.641478 
L 181.201336 -292.784697 
L 179.576478 -289.927916 
L 178.354246 -287.071135 
L 177.503371 -284.214354 
L 176.964687 -281.357573 
L 176.665958 -278.500792 
L 176.533712 -275.644011 
L 176.50027 -272.78723 
L 176.508159 -269.930449 
L 176.514165 -267.073668 
L 176.492921 -264.216887 
L 176.437889 -261.360106 
L 176.357897 -258.503325 
L 176.269634 -255.646544 
L 176.188954 -252.789763 
L 176.124587 -249.932982 
L 176.076513 -247.076201 
L 176.038778 -244.21942 
L 176.004435 -241.362639 
L 175.969811 -238.505858 
L 175.9362 -235.649077 
L 175.908725 -232.792296 
L 175.893473 -229.935515 
L 175.894476 -227.078734 
L 175.911925 -224.221953 
L 175.942319 -221.365172 
L 175.980495 -218.508391 
L 176.022701 -215.651609 
L 176.069291 -212.794828 
L 176.125443 -209.938047 
L 176.199007 -207.081266 
L 176.295965 -204.224485 
L 176.415468 -201.367704 
L 176.547043 -198.510923 
L 176.671709 -195.654142 
L 176.766892 -192.797361 
L 176.81313 -189.94058 
L 176.799873 -187.083799 
L 176.728373 -184.227018 
L 176.611203 -181.370237 
L 176.469238 -178.513456 
L 176.327563 -175.656675 
L 176.211636 -172.799894 
L 176.144513 -169.943113 
L 176.145265 -167.086332 
L 176.228046 -164.229551 
L 176.400918 -161.37277 
L 176.663791 -158.515989 
L 177.005804 -155.659208 
L 177.403507 -152.802427 
L 177.821568 -149.945646 
L 178.216736 -147.088865 
L 178.544184 -144.232084 
L 178.764278 -141.375303 
L 178.848178 -138.518522 
L 178.781962 -135.661741 
L 178.569598 -132.80496 
L 178.234317 -129.948179 
L 177.81684 -127.091398 
L 177.369121 -124.234617 
L 176.944464 -121.377836 
L 176.587308 -118.521055 
L 176.326592 -115.664274 
L 176.174584 -112.807493 
L 176.129951 -109.950712 
L 176.181902 -107.093931 
L 176.312632 -104.23715 
L 176.497484 -101.380369 
L 176.70459 -98.523588 
L 176.896602 -95.666807 
L 177.036095 -92.810026 
L 177.093767 -89.953245 
L 177.056352 -87.096464 
L 176.930501 -84.239683 
L 176.740468 -81.382902 
L 176.520288 -78.526121 
L 176.303751 -75.66934 
z
" id="m0e0659f8f0" style="stroke:#363636;"/>
    </defs>
    <g clip-path="url(#pf8e28bf4f7)">
     <use style="fill:#c38820;stroke:#363636;" x="0" xlink:href="#m0e0659f8f0" y="432"/>
    </g>
   </g>
   <g id="PolyCollection_3">
    <defs>
     <path d="M 329.175 -77.347173 
L 328.579902 -77.347173 
L 328.295446 -80.170059 
L 327.996771 -82.992944 
L 327.744683 -85.815829 
L 327.602333 -88.638715 
L 327.610201 -91.4616 
L 327.767634 -94.284486 
L 328.032261 -97.107371 
L 328.338167 -99.930256 
L 328.622077 -102.753142 
L 328.842861 -105.576027 
L 328.985967 -108.398913 
L 329.054905 -111.221798 
L 329.058645 -114.044683 
L 329.003623 -116.867569 
L 328.894188 -119.690454 
L 328.739464 -122.513339 
L 328.560409 -125.336225 
L 328.3901 -128.15911 
L 328.264395 -130.981996 
L 328.207403 -133.804881 
L 328.221218 -136.627766 
L 328.287149 -139.450652 
L 328.377443 -142.273537 
L 328.469313 -145.096423 
L 328.552855 -147.919308 
L 328.629945 -150.742193 
L 328.707155 -153.565079 
L 328.787913 -156.387964 
L 328.867997 -159.21085 
L 328.935713 -162.033735 
L 328.975844 -164.85662 
L 328.975385 -167.679506 
L 328.929386 -170.502391 
L 328.845456 -173.325276 
L 328.744921 -176.148162 
L 328.658265 -178.971047 
L 328.614604 -181.793933 
L 328.629257 -184.616818 
L 328.696156 -187.439703 
L 328.789496 -190.262589 
L 328.872879 -193.085474 
L 328.910062 -195.90836 
L 328.872992 -198.731245 
L 328.747604 -201.55413 
L 328.539964 -204.377016 
L 328.281665 -207.199901 
L 328.028063 -210.022787 
L 327.843034 -212.845672 
L 327.772296 -215.668557 
L 327.818039 -218.491443 
L 327.930743 -221.314328 
L 328.025643 -224.137213 
L 328.017526 -226.960099 
L 327.858283 -229.782984 
L 327.561107 -232.60587 
L 327.200607 -235.428755 
L 326.885878 -238.25164 
L 326.713482 -241.074526 
L 326.71812 -243.897411 
L 326.845128 -246.720297 
L 326.963613 -249.543182 
L 326.921819 -252.366067 
L 326.624283 -255.188953 
L 326.094328 -258.011838 
L 325.484554 -260.834724 
L 325.018464 -263.657609 
L 324.884398 -266.480494 
L 325.137519 -269.30338 
L 325.667622 -272.126265 
L 326.251099 -274.94915 
L 326.651326 -277.772036 
L 326.704112 -280.594921 
L 326.341625 -283.417807 
L 325.553458 -286.240692 
L 324.326289 -289.063577 
L 322.617976 -291.886463 
L 320.394835 -294.709348 
L 317.702909 -297.532234 
L 314.698507 -300.355119 
L 311.582125 -303.178004 
L 308.465798 -306.00089 
L 305.282325 -308.823775 
L 301.825926 -311.646661 
L 297.89883 -314.469546 
L 293.441013 -317.292431 
L 288.549299 -320.115317 
L 283.417265 -322.938202 
L 278.305261 -325.761087 
L 273.592911 -328.583973 
L 269.84724 -331.406858 
L 267.795 -334.229744 
L 268.155595 -337.052629 
L 271.390555 -339.875514 
L 277.477459 -342.6984 
L 285.813946 -345.521285 
L 295.318917 -348.344171 
L 304.720772 -351.167056 
L 312.922746 -353.989941 
L 319.280723 -356.812827 
L 329.175 -356.812827 
L 329.175 -356.812827 
L 329.175 -353.989941 
L 329.175 -351.167056 
L 329.175 -348.344171 
L 329.175 -345.521285 
L 329.175 -342.6984 
L 329.175 -339.875514 
L 329.175 -337.052629 
L 329.175 -334.229744 
L 329.175 -331.406858 
L 329.175 -328.583973 
L 329.175 -325.761087 
L 329.175 -322.938202 
L 329.175 -320.115317 
L 329.175 -317.292431 
L 329.175 -314.469546 
L 329.175 -311.646661 
L 329.175 -308.823775 
L 329.175 -306.00089 
L 329.175 -303.178004 
L 329.175 -300.355119 
L 329.175 -297.532234 
L 329.175 -294.709348 
L 329.175 -291.886463 
L 329.175 -289.063577 
L 329.175 -286.240692 
L 329.175 -283.417807 
L 329.175 -280.594921 
L 329.175 -277.772036 
L 329.175 -274.94915 
L 329.175 -272.126265 
L 329.175 -269.30338 
L 329.175 -266.480494 
L 329.175 -263.657609 
L 329.175 -260.834724 
L 329.175 -258.011838 
L 329.175 -255.188953 
L 329.175 -252.366067 
L 329.175 -249.543182 
L 329.175 -246.720297 
L 329.175 -243.897411 
L 329.175 -241.074526 
L 329.175 -238.25164 
L 329.175 -235.428755 
L 329.175 -232.60587 
L 329.175 -229.782984 
L 329.175 -226.960099 
L 329.175 -224.137213 
L 329.175 -221.314328 
L 329.175 -218.491443 
L 329.175 -215.668557 
L 329.175 -212.845672 
L 329.175 -210.022787 
L 329.175 -207.199901 
L 329.175 -204.377016 
L 329.175 -201.55413 
L 329.175 -198.731245 
L 329.175 -195.90836 
L 329.175 -193.085474 
L 329.175 -190.262589 
L 329.175 -187.439703 
L 329.175 -184.616818 
L 329.175 -181.793933 
L 329.175 -178.971047 
L 329.175 -176.148162 
L 329.175 -173.325276 
L 329.175 -170.502391 
L 329.175 -167.679506 
L 329.175 -164.85662 
L 329.175 -162.033735 
L 329.175 -159.21085 
L 329.175 -156.387964 
L 329.175 -153.565079 
L 329.175 -150.742193 
L 329.175 -147.919308 
L 329.175 -145.096423 
L 329.175 -142.273537 
L 329.175 -139.450652 
L 329.175 -136.627766 
L 329.175 -133.804881 
L 329.175 -130.981996 
L 329.175 -128.15911 
L 329.175 -125.336225 
L 329.175 -122.513339 
L 329.175 -119.690454 
L 329.175 -116.867569 
L 329.175 -114.044683 
L 329.175 -111.221798 
L 329.175 -108.398913 
L 329.175 -105.576027 
L 329.175 -102.753142 
L 329.175 -99.930256 
L 329.175 -97.107371 
L 329.175 -94.284486 
L 329.175 -91.4616 
L 329.175 -88.638715 
L 329.175 -85.815829 
L 329.175 -82.992944 
L 329.175 -80.170059 
L 329.175 -77.347173 
z
" id="m771718db43" style="stroke:#363636;"/>
    </defs>
    <g clip-path="url(#pf8e28bf4f7)">
     <use style="fill:#176d9c;stroke:#363636;" x="0" xlink:href="#m771718db43" y="432"/>
    </g>
   </g>
   <g id="PolyCollection_4">
    <defs>
     <path d="M 332.002004 -72.6192 
L 329.175 -72.6192 
L 329.175 -75.5376 
L 329.175 -78.456 
L 329.175 -81.3744 
L 329.175 -84.2928 
L 329.175 -87.2112 
L 329.175 -90.1296 
L 329.175 -93.048 
L 329.175 -95.9664 
L 329.175 -98.8848 
L 329.175 -101.8032 
L 329.175 -104.7216 
L 329.175 -107.64 
L 329.175 -110.5584 
L 329.175 -113.4768 
L 329.175 -116.3952 
L 329.175 -119.3136 
L 329.175 -122.232 
L 329.175 -125.1504 
L 329.175 -128.0688 
L 329.175 -130.9872 
L 329.175 -133.9056 
L 329.175 -136.824 
L 329.175 -139.7424 
L 329.175 -142.6608 
L 329.175 -145.5792 
L 329.175 -148.4976 
L 329.175 -151.416 
L 329.175 -154.3344 
L 329.175 -157.2528 
L 329.175 -160.1712 
L 329.175 -163.0896 
L 329.175 -166.008 
L 329.175 -168.9264 
L 329.175 -171.8448 
L 329.175 -174.7632 
L 329.175 -177.6816 
L 329.175 -180.6 
L 329.175 -183.5184 
L 329.175 -186.4368 
L 329.175 -189.3552 
L 329.175 -192.2736 
L 329.175 -195.192 
L 329.175 -198.1104 
L 329.175 -201.0288 
L 329.175 -203.9472 
L 329.175 -206.8656 
L 329.175 -209.784 
L 329.175 -212.7024 
L 329.175 -215.6208 
L 329.175 -218.5392 
L 329.175 -221.4576 
L 329.175 -224.376 
L 329.175 -227.2944 
L 329.175 -230.2128 
L 329.175 -233.1312 
L 329.175 -236.0496 
L 329.175 -238.968 
L 329.175 -241.8864 
L 329.175 -244.8048 
L 329.175 -247.7232 
L 329.175 -250.6416 
L 329.175 -253.56 
L 329.175 -256.4784 
L 329.175 -259.3968 
L 329.175 -262.3152 
L 329.175 -265.2336 
L 329.175 -268.152 
L 329.175 -271.0704 
L 329.175 -273.9888 
L 329.175 -276.9072 
L 329.175 -279.8256 
L 329.175 -282.744 
L 329.175 -285.6624 
L 329.175 -288.5808 
L 329.175 -291.4992 
L 329.175 -294.4176 
L 329.175 -297.336 
L 329.175 -300.2544 
L 329.175 -303.1728 
L 329.175 -306.0912 
L 329.175 -309.0096 
L 329.175 -311.928 
L 329.175 -314.8464 
L 329.175 -317.7648 
L 329.175 -320.6832 
L 329.175 -323.6016 
L 329.175 -326.52 
L 329.175 -329.4384 
L 329.175 -332.3568 
L 329.175 -335.2752 
L 329.175 -338.1936 
L 329.175 -341.112 
L 329.175 -344.0304 
L 329.175 -346.9488 
L 329.175 -349.8672 
L 329.175 -352.7856 
L 329.175 -355.704 
L 329.175 -358.6224 
L 329.175 -361.5408 
L 337.505215 -361.5408 
L 337.505215 -361.5408 
L 340.991322 -358.6224 
L 345.281331 -355.704 
L 350.29073 -352.7856 
L 355.827621 -349.8672 
L 361.597551 -346.9488 
L 367.228668 -344.0304 
L 372.314842 -341.112 
L 376.469711 -338.1936 
L 379.381381 -335.2752 
L 380.856695 -332.3568 
L 380.845942 -329.4384 
L 379.443033 -326.52 
L 376.861652 -323.6016 
L 373.393289 -320.6832 
L 369.357033 -317.7648 
L 365.052421 -314.8464 
L 360.725007 -311.928 
L 356.550072 -309.0096 
L 352.634442 -306.0912 
L 349.031422 -303.1728 
L 345.761209 -300.2544 
L 342.829295 -297.336 
L 340.238049 -294.4176 
L 337.990303 -291.4992 
L 336.08689 -288.5808 
L 334.521609 -285.6624 
L 333.276903 -282.744 
L 332.322272 -279.8256 
L 331.615866 -276.9072 
L 331.108607 -273.9888 
L 330.749609 -271.0704 
L 330.491605 -268.152 
L 330.295324 -265.2336 
L 330.132099 -262.3152 
L 329.984411 -259.3968 
L 329.844531 -256.4784 
L 329.711845 -253.56 
L 329.58964 -250.6416 
L 329.482194 -247.7232 
L 329.392713 -244.8048 
L 329.322343 -241.8864 
L 329.27013 -238.968 
L 329.233585 -236.0496 
L 329.20949 -233.1312 
L 329.194622 -230.2128 
L 329.186275 -227.2944 
L 329.182544 -224.376 
L 329.182437 -221.4576 
L 329.185899 -218.5392 
L 329.193805 -215.6208 
L 329.207912 -212.7024 
L 329.230728 -209.784 
L 329.265214 -206.8656 
L 329.314228 -203.9472 
L 329.379713 -201.0288 
L 329.461731 -198.1104 
L 329.55756 -195.192 
L 329.661207 -192.2736 
L 329.76363 -189.3552 
L 329.853835 -186.4368 
L 329.920744 -183.5184 
L 329.955403 -180.6 
L 329.952952 -177.6816 
L 329.91374 -174.7632 
L 329.843242 -171.8448 
L 329.75081 -168.9264 
L 329.647635 -166.008 
L 329.544548 -163.0896 
L 329.450242 -160.1712 
L 329.370282 -157.2528 
L 329.306994 -154.3344 
L 329.260031 -151.416 
L 329.227314 -148.4976 
L 329.206017 -145.5792 
L 329.193415 -142.6608 
L 329.187529 -139.7424 
L 329.187631 -136.824 
L 329.194751 -133.9056 
L 329.212306 -130.9872 
L 329.246901 -128.0688 
L 329.309198 -125.1504 
L 329.414512 -122.232 
L 329.582616 -119.3136 
L 329.836066 -116.3952 
L 330.196532 -113.4768 
L 330.679051 -110.5584 
L 331.284976 -107.64 
L 331.995325 -104.7216 
L 332.766948 -101.8032 
L 333.533851 -98.8848 
L 334.214956 -95.9664 
L 334.727583 -93.048 
L 335.003779 -90.1296 
L 335.005074 -87.2112 
L 334.731279 -84.2928 
L 334.220523 -81.3744 
L 333.540549 -78.456 
L 332.773983 -75.5376 
L 332.002004 -72.6192 
z
" id="m76fb038ee3" style="stroke:#363636;"/>
    </defs>
    <g clip-path="url(#pf8e28bf4f7)">
     <use style="fill:#c38820;stroke:#363636;" x="0" xlink:href="#m76fb038ee3" y="432"/>
    </g>
   </g>
   <g id="PolyCollection_5">
    <defs>
     <path d="M 482.625 -73.635134 
L 480.752784 -73.635134 
L 480.209083 -76.53301 
L 479.675302 -79.430886 
L 479.217099 -82.328762 
L 478.898853 -85.226638 
L 478.768829 -88.124514 
L 478.847043 -91.02239 
L 479.119964 -93.920266 
L 479.543863 -96.818142 
L 480.055487 -99.716019 
L 480.586275 -102.613895 
L 481.075553 -105.511771 
L 481.479257 -108.409647 
L 481.773023 -111.307523 
L 481.95064 -114.205399 
L 482.020074 -117.103275 
L 481.999207 -120.001151 
L 481.912403 -122.899027 
L 481.787897 -125.796903 
L 481.655289 -128.694779 
L 481.542472 -131.592655 
L 481.472013 -134.490532 
L 481.457679 -137.388408 
L 481.502221 -140.286284 
L 481.597252 -143.18416 
L 481.725352 -146.082036 
L 481.863768 -148.979912 
L 481.988624 -151.877788 
L 482.078659 -154.775664 
L 482.11802 -157.67354 
L 482.098112 -160.571416 
L 482.018776 -163.469292 
L 481.888893 -166.367168 
L 481.726097 -169.265045 
L 481.555046 -172.162921 
L 481.403879 -175.060797 
L 481.299128 -177.958673 
L 481.260181 -180.856549 
L 481.294933 -183.754425 
L 481.398091 -186.652301 
L 481.552779 -189.550177 
L 481.734891 -192.448053 
L 481.918736 -195.345929 
L 482.08223 -198.243805 
L 482.210349 -201.141682 
L 482.296393 -204.039558 
L 482.341375 -206.937434 
L 482.352264 -209.83531 
L 482.339773 -212.733186 
L 482.316116 -215.631062 
L 482.292958 -218.528938 
L 482.279654 -221.426814 
L 482.281998 -224.32469 
L 482.301667 -227.222566 
L 482.336522 -230.120442 
L 482.381691 -233.018318 
L 482.431086 -235.916195 
L 482.47892 -238.814071 
L 482.520788 -241.711947 
L 482.554076 -244.609823 
L 482.577696 -247.507699 
L 482.591316 -250.405575 
L 482.59429 -253.303451 
L 482.584482 -256.201327 
L 482.557066 -259.099203 
L 482.503396 -261.997079 
L 482.410009 -264.894955 
L 482.257896 -267.792832 
L 482.022249 -270.690708 
L 481.672892 -273.588584 
L 481.175628 -276.48646 
L 480.494692 -279.384336 
L 479.596327 -282.282212 
L 478.453147 -285.180088 
L 477.048414 -288.077964 
L 475.378764 -290.97584 
L 473.453721 -293.873716 
L 471.290975 -296.771592 
L 468.907975 -299.669468 
L 466.312471 -302.567345 
L 463.4962 -305.465221 
L 460.435993 -308.363097 
L 457.104891 -311.260973 
L 453.492769 -314.158849 
L 449.632632 -317.056725 
L 445.626063 -319.954601 
L 441.659886 -322.852477 
L 438.006399 -325.750353 
L 435.0019 -328.648229 
L 433.002872 -331.546105 
L 432.325582 -334.443981 
L 433.181305 -337.341858 
L 435.623348 -340.239734 
L 439.521291 -343.13761 
L 444.571803 -346.035486 
L 450.345497 -348.933362 
L 456.358954 -351.831238 
L 462.153915 -354.729114 
L 467.364341 -357.62699 
L 471.75689 -360.524866 
L 482.625 -360.524866 
L 482.625 -360.524866 
L 482.625 -357.62699 
L 482.625 -354.729114 
L 482.625 -351.831238 
L 482.625 -348.933362 
L 482.625 -346.035486 
L 482.625 -343.13761 
L 482.625 -340.239734 
L 482.625 -337.341858 
L 482.625 -334.443981 
L 482.625 -331.546105 
L 482.625 -328.648229 
L 482.625 -325.750353 
L 482.625 -322.852477 
L 482.625 -319.954601 
L 482.625 -317.056725 
L 482.625 -314.158849 
L 482.625 -311.260973 
L 482.625 -308.363097 
L 482.625 -305.465221 
L 482.625 -302.567345 
L 482.625 -299.669468 
L 482.625 -296.771592 
L 482.625 -293.873716 
L 482.625 -290.97584 
L 482.625 -288.077964 
L 482.625 -285.180088 
L 482.625 -282.282212 
L 482.625 -279.384336 
L 482.625 -276.48646 
L 482.625 -273.588584 
L 482.625 -270.690708 
L 482.625 -267.792832 
L 482.625 -264.894955 
L 482.625 -261.997079 
L 482.625 -259.099203 
L 482.625 -256.201327 
L 482.625 -253.303451 
L 482.625 -250.405575 
L 482.625 -247.507699 
L 482.625 -244.609823 
L 482.625 -241.711947 
L 482.625 -238.814071 
L 482.625 -235.916195 
L 482.625 -233.018318 
L 482.625 -230.120442 
L 482.625 -227.222566 
L 482.625 -224.32469 
L 482.625 -221.426814 
L 482.625 -218.528938 
L 482.625 -215.631062 
L 482.625 -212.733186 
L 482.625 -209.83531 
L 482.625 -206.937434 
L 482.625 -204.039558 
L 482.625 -201.141682 
L 482.625 -198.243805 
L 482.625 -195.345929 
L 482.625 -192.448053 
L 482.625 -189.550177 
L 482.625 -186.652301 
L 482.625 -183.754425 
L 482.625 -180.856549 
L 482.625 -177.958673 
L 482.625 -175.060797 
L 482.625 -172.162921 
L 482.625 -169.265045 
L 482.625 -166.367168 
L 482.625 -163.469292 
L 482.625 -160.571416 
L 482.625 -157.67354 
L 482.625 -154.775664 
L 482.625 -151.877788 
L 482.625 -148.979912 
L 482.625 -146.082036 
L 482.625 -143.18416 
L 482.625 -140.286284 
L 482.625 -137.388408 
L 482.625 -134.490532 
L 482.625 -131.592655 
L 482.625 -128.694779 
L 482.625 -125.796903 
L 482.625 -122.899027 
L 482.625 -120.001151 
L 482.625 -117.103275 
L 482.625 -114.205399 
L 482.625 -111.307523 
L 482.625 -108.409647 
L 482.625 -105.511771 
L 482.625 -102.613895 
L 482.625 -99.716019 
L 482.625 -96.818142 
L 482.625 -93.920266 
L 482.625 -91.02239 
L 482.625 -88.124514 
L 482.625 -85.226638 
L 482.625 -82.328762 
L 482.625 -79.430886 
L 482.625 -76.53301 
L 482.625 -73.635134 
z
" id="m5101c426e4" style="stroke:#363636;"/>
    </defs>
    <g clip-path="url(#pf8e28bf4f7)">
     <use style="fill:#176d9c;stroke:#363636;" x="0" xlink:href="#m5101c426e4" y="432"/>
    </g>
   </g>
   <g id="PolyCollection_6">
    <defs>
     <path d="M 483.120689 -77.745491 
L 482.625 -77.745491 
L 482.625 -80.588177 
L 482.625 -83.430864 
L 482.625 -86.273551 
L 482.625 -89.116237 
L 482.625 -91.958924 
L 482.625 -94.801611 
L 482.625 -97.644298 
L 482.625 -100.486984 
L 482.625 -103.329671 
L 482.625 -106.172358 
L 482.625 -109.015045 
L 482.625 -111.857731 
L 482.625 -114.700418 
L 482.625 -117.543105 
L 482.625 -120.385791 
L 482.625 -123.228478 
L 482.625 -126.071165 
L 482.625 -128.913852 
L 482.625 -131.756538 
L 482.625 -134.599225 
L 482.625 -137.441912 
L 482.625 -140.284599 
L 482.625 -143.127285 
L 482.625 -145.969972 
L 482.625 -148.812659 
L 482.625 -151.655345 
L 482.625 -154.498032 
L 482.625 -157.340719 
L 482.625 -160.183406 
L 482.625 -163.026092 
L 482.625 -165.868779 
L 482.625 -168.711466 
L 482.625 -171.554152 
L 482.625 -174.396839 
L 482.625 -177.239526 
L 482.625 -180.082213 
L 482.625 -182.924899 
L 482.625 -185.767586 
L 482.625 -188.610273 
L 482.625 -191.45296 
L 482.625 -194.295646 
L 482.625 -197.138333 
L 482.625 -199.98102 
L 482.625 -202.823706 
L 482.625 -205.666393 
L 482.625 -208.50908 
L 482.625 -211.351767 
L 482.625 -214.194453 
L 482.625 -217.03714 
L 482.625 -219.879827 
L 482.625 -222.722514 
L 482.625 -225.5652 
L 482.625 -228.407887 
L 482.625 -231.250574 
L 482.625 -234.09326 
L 482.625 -236.935947 
L 482.625 -239.778634 
L 482.625 -242.621321 
L 482.625 -245.464007 
L 482.625 -248.306694 
L 482.625 -251.149381 
L 482.625 -253.992067 
L 482.625 -256.834754 
L 482.625 -259.677441 
L 482.625 -262.520128 
L 482.625 -265.362814 
L 482.625 -268.205501 
L 482.625 -271.048188 
L 482.625 -273.890875 
L 482.625 -276.733561 
L 482.625 -279.576248 
L 482.625 -282.418935 
L 482.625 -285.261621 
L 482.625 -288.104308 
L 482.625 -290.946995 
L 482.625 -293.789682 
L 482.625 -296.632368 
L 482.625 -299.475055 
L 482.625 -302.317742 
L 482.625 -305.160429 
L 482.625 -308.003115 
L 482.625 -310.845802 
L 482.625 -313.688489 
L 482.625 -316.531175 
L 482.625 -319.373862 
L 482.625 -322.216549 
L 482.625 -325.059236 
L 482.625 -327.901922 
L 482.625 -330.744609 
L 482.625 -333.587296 
L 482.625 -336.429982 
L 482.625 -339.272669 
L 482.625 -342.115356 
L 482.625 -344.958043 
L 482.625 -347.800729 
L 482.625 -350.643416 
L 482.625 -353.486103 
L 482.625 -356.32879 
L 482.625 -359.171476 
L 493.727133 -359.171476 
L 493.727133 -359.171476 
L 498.850428 -356.32879 
L 505.137632 -353.486103 
L 512.345573 -350.643416 
L 520.037748 -347.800729 
L 527.619696 -344.958043 
L 534.410133 -342.115356 
L 539.737736 -339.272669 
L 543.048626 -336.429982 
L 544.005 -333.587296 
L 542.551713 -330.744609 
L 538.929721 -327.901922 
L 533.627248 -325.059236 
L 527.279098 -322.216549 
L 520.542632 -319.373862 
L 513.985522 -316.531175 
L 508.012636 -313.688489 
L 502.842779 -310.845802 
L 498.529515 -308.003115 
L 495.010084 -305.160429 
L 492.163292 -302.317742 
L 489.859624 -299.475055 
L 487.992728 -296.632368 
L 486.489376 -293.789682 
L 485.302681 -290.946995 
L 484.397899 -288.104308 
L 483.739973 -285.261621 
L 483.287947 -282.418935 
L 482.996371 -279.576248 
L 482.820494 -276.733561 
L 482.721527 -273.890875 
L 482.669644 -271.048188 
L 482.644322 -268.205501 
L 482.63282 -265.362814 
L 482.627958 -262.520128 
L 482.626046 -259.677441 
L 482.625345 -256.834754 
L 482.625106 -253.992067 
L 482.625031 -251.149381 
L 482.625009 -248.306694 
L 482.625005 -245.464007 
L 482.625012 -242.621321 
L 482.625038 -239.778634 
L 482.625117 -236.935947 
L 482.625338 -234.09326 
L 482.625906 -231.250574 
L 482.627266 -228.407887 
L 482.630288 -225.5652 
L 482.636505 -222.722514 
L 482.648346 -219.879827 
L 482.669179 -217.03714 
L 482.702968 -214.194453 
L 482.753327 -211.351767 
L 482.822001 -208.50908 
L 482.907123 -205.666393 
L 483.002027 -202.823706 
L 483.095501 -199.98102 
L 483.174021 -197.138333 
L 483.225666 -194.295646 
L 483.244456 -191.45296 
L 483.233381 -188.610273 
L 483.204654 -185.767586 
L 483.17685 -182.924899 
L 483.169896 -180.082213 
L 483.199781 -177.239526 
L 483.274982 -174.396839 
L 483.395886 -171.554152 
L 483.557326 -168.711466 
L 483.75314 -165.868779 
L 483.980766 -163.026092 
L 484.24364 -160.183406 
L 484.549711 -157.340719 
L 484.905746 -154.498032 
L 485.308939 -151.655345 
L 485.739051 -148.812659 
L 486.155042 -145.969972 
L 486.499232 -143.127285 
L 486.709355 -140.284599 
L 486.735399 -137.441912 
L 486.555413 -134.599225 
L 486.184118 -131.756538 
L 485.670748 -128.913852 
L 485.086868 -126.071165 
L 484.508912 -123.228478 
L 484.001809 -120.385791 
L 483.608648 -117.543105 
L 483.348005 -114.700418 
L 483.217254 -111.857731 
L 483.198539 -109.015045 
L 483.264543 -106.172358 
L 483.382829 -103.329671 
L 483.519182 -100.486984 
L 483.640962 -97.644298 
L 483.720997 -94.801611 
L 483.741516 -91.958924 
L 483.696876 -89.116237 
L 483.593851 -86.273551 
L 483.449061 -83.430864 
L 483.284212 -80.588177 
L 483.120689 -77.745491 
z
" id="m5eacc7b84a" style="stroke:#363636;"/>
    </defs>
    <g clip-path="url(#pf8e28bf4f7)">
     <use style="fill:#c38820;stroke:#363636;" x="0" xlink:href="#m5eacc7b84a" y="432"/>
    </g>
   </g>
   <g id="PolyCollection_7">
    <defs>
     <path d="M 636.075 -70.437811 
L 632.964643 -70.437811 
L 632.227663 -73.400279 
L 631.483093 -76.362748 
L 630.785774 -79.325216 
L 630.193585 -82.287684 
L 629.758783 -85.250153 
L 629.519083 -88.212621 
L 629.490358 -91.17509 
L 629.662621 -94.137558 
L 630.000315 -97.100027 
L 630.447004 -100.062495 
L 630.933619 -103.024964 
L 631.388757 -105.987432 
L 631.749194 -108.949901 
L 631.968871 -111.912369 
L 632.025029 -114.874838 
L 631.920678 -117.837306 
L 631.683213 -120.799775 
L 631.359492 -123.762243 
L 631.008212 -126.724712 
L 630.690775 -129.68718 
L 630.462082 -132.649649 
L 630.362737 -135.612117 
L 630.4139 -138.574585 
L 630.615529 -141.537054 
L 630.948117 -144.499522 
L 631.377332 -147.461991 
L 631.860467 -150.424459 
L 632.353405 -153.386928 
L 632.816859 -156.349396 
L 633.221018 -159.311865 
L 633.548139 -162.274333 
L 633.793071 -165.236802 
L 633.961986 -168.19927 
L 634.069793 -171.161739 
L 634.136736 -174.124207 
L 634.184744 -177.086676 
L 634.234008 -180.049144 
L 634.300237 -183.011613 
L 634.392923 -185.974081 
L 634.514777 -188.93655 
L 634.662305 -191.899018 
L 634.827287 -194.861486 
L 634.998778 -197.823955 
L 635.165202 -200.786423 
L 635.316135 -203.748892 
L 635.443521 -206.71136 
L 635.542226 -209.673829 
L 635.609989 -212.636297 
L 635.646936 -215.598766 
L 635.654877 -218.561234 
L 635.636559 -221.523703 
L 635.595031 -224.486171 
L 635.533155 -227.44864 
L 635.453304 -230.411108 
L 635.357209 -233.373577 
L 635.245957 -236.336045 
L 635.120129 -239.298514 
L 634.980059 -242.260982 
L 634.826136 -245.22345 
L 634.659023 -248.185919 
L 634.479585 -251.148387 
L 634.288321 -254.110856 
L 634.084184 -257.073324 
L 633.862836 -260.035793 
L 633.614637 -262.998261 
L 633.322818 -265.96073 
L 632.962407 -268.923198 
L 632.500358 -271.885667 
L 631.897091 -274.848135 
L 631.109307 -277.810604 
L 630.09358 -280.773072 
L 628.80999 -283.735541 
L 627.225013 -286.698009 
L 625.313057 -289.660478 
L 623.056432 -292.622946 
L 620.444086 -295.585415 
L 617.470043 -298.547883 
L 614.132881 -301.510351 
L 610.437735 -304.47282 
L 606.401881 -307.435288 
L 602.064069 -310.397757 
L 597.496389 -313.360225 
L 592.816039 -316.322694 
L 588.193252 -319.285162 
L 583.851382 -322.247631 
L 580.056056 -325.210099 
L 577.092363 -328.172568 
L 575.231971 -331.135036 
L 574.695 -334.097505 
L 575.61373 -337.059973 
L 578.005781 -340.022442 
L 581.763128 -342.98491 
L 586.66019 -345.947379 
L 592.380163 -348.909847 
L 598.554766 -351.872316 
L 604.809786 -354.834784 
L 610.807962 -357.797252 
L 616.28194 -360.759721 
L 621.05284 -363.722189 
L 636.075 -363.722189 
L 636.075 -363.722189 
L 636.075 -360.759721 
L 636.075 -357.797252 
L 636.075 -354.834784 
L 636.075 -351.872316 
L 636.075 -348.909847 
L 636.075 -345.947379 
L 636.075 -342.98491 
L 636.075 -340.022442 
L 636.075 -337.059973 
L 636.075 -334.097505 
L 636.075 -331.135036 
L 636.075 -328.172568 
L 636.075 -325.210099 
L 636.075 -322.247631 
L 636.075 -319.285162 
L 636.075 -316.322694 
L 636.075 -313.360225 
L 636.075 -310.397757 
L 636.075 -307.435288 
L 636.075 -304.47282 
L 636.075 -301.510351 
L 636.075 -298.547883 
L 636.075 -295.585415 
L 636.075 -292.622946 
L 636.075 -289.660478 
L 636.075 -286.698009 
L 636.075 -283.735541 
L 636.075 -280.773072 
L 636.075 -277.810604 
L 636.075 -274.848135 
L 636.075 -271.885667 
L 636.075 -268.923198 
L 636.075 -265.96073 
L 636.075 -262.998261 
L 636.075 -260.035793 
L 636.075 -257.073324 
L 636.075 -254.110856 
L 636.075 -251.148387 
L 636.075 -248.185919 
L 636.075 -245.22345 
L 636.075 -242.260982 
L 636.075 -239.298514 
L 636.075 -236.336045 
L 636.075 -233.373577 
L 636.075 -230.411108 
L 636.075 -227.44864 
L 636.075 -224.486171 
L 636.075 -221.523703 
L 636.075 -218.561234 
L 636.075 -215.598766 
L 636.075 -212.636297 
L 636.075 -209.673829 
L 636.075 -206.71136 
L 636.075 -203.748892 
L 636.075 -200.786423 
L 636.075 -197.823955 
L 636.075 -194.861486 
L 636.075 -191.899018 
L 636.075 -188.93655 
L 636.075 -185.974081 
L 636.075 -183.011613 
L 636.075 -180.049144 
L 636.075 -177.086676 
L 636.075 -174.124207 
L 636.075 -171.161739 
L 636.075 -168.19927 
L 636.075 -165.236802 
L 636.075 -162.274333 
L 636.075 -159.311865 
L 636.075 -156.349396 
L 636.075 -153.386928 
L 636.075 -150.424459 
L 636.075 -147.461991 
L 636.075 -144.499522 
L 636.075 -141.537054 
L 636.075 -138.574585 
L 636.075 -135.612117 
L 636.075 -132.649649 
L 636.075 -129.68718 
L 636.075 -126.724712 
L 636.075 -123.762243 
L 636.075 -120.799775 
L 636.075 -117.837306 
L 636.075 -114.874838 
L 636.075 -111.912369 
L 636.075 -108.949901 
L 636.075 -105.987432 
L 636.075 -103.024964 
L 636.075 -100.062495 
L 636.075 -97.100027 
L 636.075 -94.137558 
L 636.075 -91.17509 
L 636.075 -88.212621 
L 636.075 -85.250153 
L 636.075 -82.287684 
L 636.075 -79.325216 
L 636.075 -76.362748 
L 636.075 -73.400279 
L 636.075 -70.437811 
z
" id="m5abc461a20" style="stroke:#363636;"/>
    </defs>
    <g clip-path="url(#pf8e28bf4f7)">
     <use style="fill:#176d9c;stroke:#363636;" x="0" xlink:href="#m5abc461a20" y="432"/>
    </g>
   </g>
   <g id="PolyCollection_8">
    <defs>
     <path d="M 641.067621 -68.825455 
L 636.075 -68.825455 
L 636.075 -71.820496 
L 636.075 -74.815537 
L 636.075 -77.810579 
L 636.075 -80.80562 
L 636.075 -83.800661 
L 636.075 -86.795702 
L 636.075 -89.790744 
L 636.075 -92.785785 
L 636.075 -95.780826 
L 636.075 -98.775868 
L 636.075 -101.770909 
L 636.075 -104.76595 
L 636.075 -107.760992 
L 636.075 -110.756033 
L 636.075 -113.751074 
L 636.075 -116.746116 
L 636.075 -119.741157 
L 636.075 -122.736198 
L 636.075 -125.73124 
L 636.075 -128.726281 
L 636.075 -131.721322 
L 636.075 -134.716364 
L 636.075 -137.711405 
L 636.075 -140.706446 
L 636.075 -143.701488 
L 636.075 -146.696529 
L 636.075 -149.69157 
L 636.075 -152.686612 
L 636.075 -155.681653 
L 636.075 -158.676694 
L 636.075 -161.671736 
L 636.075 -164.666777 
L 636.075 -167.661818 
L 636.075 -170.65686 
L 636.075 -173.651901 
L 636.075 -176.646942 
L 636.075 -179.641983 
L 636.075 -182.637025 
L 636.075 -185.632066 
L 636.075 -188.627107 
L 636.075 -191.622149 
L 636.075 -194.61719 
L 636.075 -197.612231 
L 636.075 -200.607273 
L 636.075 -203.602314 
L 636.075 -206.597355 
L 636.075 -209.592397 
L 636.075 -212.587438 
L 636.075 -215.582479 
L 636.075 -218.577521 
L 636.075 -221.572562 
L 636.075 -224.567603 
L 636.075 -227.562645 
L 636.075 -230.557686 
L 636.075 -233.552727 
L 636.075 -236.547769 
L 636.075 -239.54281 
L 636.075 -242.537851 
L 636.075 -245.532893 
L 636.075 -248.527934 
L 636.075 -251.522975 
L 636.075 -254.518017 
L 636.075 -257.513058 
L 636.075 -260.508099 
L 636.075 -263.50314 
L 636.075 -266.498182 
L 636.075 -269.493223 
L 636.075 -272.488264 
L 636.075 -275.483306 
L 636.075 -278.478347 
L 636.075 -281.473388 
L 636.075 -284.46843 
L 636.075 -287.463471 
L 636.075 -290.458512 
L 636.075 -293.453554 
L 636.075 -296.448595 
L 636.075 -299.443636 
L 636.075 -302.438678 
L 636.075 -305.433719 
L 636.075 -308.42876 
L 636.075 -311.423802 
L 636.075 -314.418843 
L 636.075 -317.413884 
L 636.075 -320.408926 
L 636.075 -323.403967 
L 636.075 -326.399008 
L 636.075 -329.39405 
L 636.075 -332.389091 
L 636.075 -335.384132 
L 636.075 -338.379174 
L 636.075 -341.374215 
L 636.075 -344.369256 
L 636.075 -347.364298 
L 636.075 -350.359339 
L 636.075 -353.35438 
L 636.075 -356.349421 
L 636.075 -359.344463 
L 636.075 -362.339504 
L 636.075 -365.334545 
L 649.251536 -365.334545 
L 649.251536 -365.334545 
L 653.06314 -362.339504 
L 657.40711 -359.344463 
L 662.174222 -356.349421 
L 667.199822 -353.35438 
L 672.271909 -350.359339 
L 677.14679 -347.364298 
L 681.570749 -344.369256 
L 685.304825 -341.374215 
L 688.149035 -338.379174 
L 689.962258 -335.384132 
L 690.674747 -332.389091 
L 690.291597 -329.39405 
L 688.887152 -326.399008 
L 686.591955 -323.403967 
L 683.574942 -320.408926 
L 680.024099 -317.413884 
L 676.128517 -314.418843 
L 672.06405 -311.423802 
L 667.983649 -308.42876 
L 664.012447 -305.433719 
L 660.246798 -302.438678 
L 656.756086 -299.443636 
L 653.586019 -296.448595 
L 650.762374 -293.453554 
L 648.294535 -290.458512 
L 646.17852 -287.463471 
L 644.399535 -284.46843 
L 642.934191 -281.473388 
L 641.752601 -278.478347 
L 640.820471 -275.483306 
L 640.101182 -272.488264 
L 639.557799 -269.493223 
L 639.154853 -266.498182 
L 638.859757 -263.50314 
L 638.643783 -260.508099 
L 638.482593 -257.513058 
L 638.356396 -254.518017 
L 638.249865 -251.522975 
L 638.151911 -248.527934 
L 638.055401 -245.532893 
L 637.956846 -242.537851 
L 637.856015 -239.54281 
L 637.755437 -236.547769 
L 637.659744 -233.552727 
L 637.57487 -230.557686 
L 637.507148 -227.562645 
L 637.462413 -224.567603 
L 637.445193 -221.572562 
L 637.458115 -218.577521 
L 637.501554 -215.582479 
L 637.573589 -212.587438 
L 637.67023 -209.592397 
L 637.785889 -206.597355 
L 637.914022 -203.602314 
L 638.047848 -200.607273 
L 638.181033 -197.612231 
L 638.308251 -194.61719 
L 638.425517 -191.622149 
L 638.530278 -188.627107 
L 638.621264 -185.632066 
L 638.698194 -182.637025 
L 638.761414 -179.641983 
L 638.811594 -176.646942 
L 638.849522 -173.651901 
L 638.876027 -170.65686 
L 638.891971 -167.661818 
L 638.898245 -164.666777 
L 638.895715 -161.671736 
L 638.885114 -158.676694 
L 638.866936 -155.681653 
L 638.841448 -152.686612 
L 638.808949 -149.69157 
L 638.770347 -146.696529 
L 638.728053 -143.701488 
L 638.687044 -140.706446 
L 638.655885 -137.711405 
L 638.647377 -134.716364 
L 638.678578 -131.721322 
L 638.769956 -128.726281 
L 638.943598 -125.73124 
L 639.220542 -122.736198 
L 639.617471 -119.741157 
L 640.143121 -116.746116 
L 640.794924 -113.751074 
L 641.556437 -110.756033 
L 642.396145 -107.760992 
L 643.268145 -104.76595 
L 644.115007 -101.770909 
L 644.87279 -98.775868 
L 645.477776 -95.780826 
L 645.874055 -92.785785 
L 646.020795 -89.790744 
L 645.897905 -86.795702 
L 645.509013 -83.800661 
L 644.881117 -80.80562 
L 644.060922 -77.810579 
L 643.108521 -74.815537 
L 642.08961 -71.820496 
L 641.067621 -68.825455 
z
" id="m81bc61cab2" style="stroke:#363636;"/>
    </defs>
    <g clip-path="url(#pf8e28bf4f7)">
     <use style="fill:#c38820;stroke:#363636;" x="0" xlink:href="#m81bc61cab2" y="432"/>
    </g>
   </g>
   <g id="patch_3">
    <path clip-path="url(#pf8e28bf4f7)" d="M 175.725 351.391366 
L 175.725 351.391366 
L 175.725 351.391366 
L 175.725 351.391366 
z
" style="fill:#176d9c;stroke:#363636;stroke-linejoin:miter;stroke-width:0.5;"/>
   </g>
   <g id="patch_4">
    <path clip-path="url(#pf8e28bf4f7)" d="M 175.725 351.391366 
L 175.725 351.391366 
L 175.725 351.391366 
L 175.725 351.391366 
z
" style="fill:#c38820;stroke:#363636;stroke-linejoin:miter;stroke-width:0.5;"/>
   </g>
   <g id="line2d_7">
    <path clip-path="url(#pf8e28bf4f7)" d="M 146.220666 117.287698 
L 175.725 117.287698 
" style="fill:none;stroke:#363636;stroke-dasharray:1.5,1.5;stroke-dashoffset:0;"/>
   </g>
   <g id="line2d_8">
    <path clip-path="url(#pf8e28bf4f7)" d="M 128.812432 100.270977 
L 175.725 100.270977 
" style="fill:none;stroke:#363636;stroke-dasharray:3,3;stroke-dashoffset:0;"/>
   </g>
   <g id="line2d_9">
    <path clip-path="url(#pf8e28bf4f7)" d="M 132.440541 91.192553 
L 175.725 91.192553 
" style="fill:none;stroke:#363636;stroke-dasharray:1.5,1.5;stroke-dashoffset:0;"/>
   </g>
   <g id="line2d_10">
    <path clip-path="url(#pf8e28bf4f7)" d="M 175.725 111.398749 
L 216.303746 111.398749 
" style="fill:none;stroke:#363636;stroke-dasharray:1.5,1.5;stroke-dashoffset:0;"/>
   </g>
   <g id="line2d_11">
    <path clip-path="url(#pf8e28bf4f7)" d="M 175.725 99.44392 
L 235.233375 99.44392 
" style="fill:none;stroke:#363636;stroke-dasharray:3,3;stroke-dashoffset:0;"/>
   </g>
   <g id="line2d_12">
    <path clip-path="url(#pf8e28bf4f7)" d="M 175.725 90.687675 
L 231.580235 90.687675 
" style="fill:none;stroke:#363636;stroke-dasharray:1.5,1.5;stroke-dashoffset:0;"/>
   </g>
   <g id="line2d_13">
    <path clip-path="url(#pf8e28bf4f7)" d="M 293.798353 115.031032 
L 329.175 115.031032 
" style="fill:none;stroke:#363636;stroke-dasharray:1.5,1.5;stroke-dashoffset:0;"/>
   </g>
   <g id="line2d_14">
    <path clip-path="url(#pf8e28bf4f7)" d="M 270.440518 101.51156 
L 329.175 101.51156 
" style="fill:none;stroke:#363636;stroke-dasharray:3,3;stroke-dashoffset:0;"/>
   </g>
   <g id="line2d_15">
    <path clip-path="url(#pf8e28bf4f7)" d="M 271.968399 93.143237 
L 329.175 93.143237 
" style="fill:none;stroke:#363636;stroke-dasharray:1.5,1.5;stroke-dashoffset:0;"/>
   </g>
   <g id="line2d_16">
    <path clip-path="url(#pf8e28bf4f7)" d="M 329.175 115.031032 
L 368.955213 115.031032 
" style="fill:none;stroke:#363636;stroke-dasharray:1.5,1.5;stroke-dashoffset:0;"/>
   </g>
   <g id="line2d_17">
    <path clip-path="url(#pf8e28bf4f7)" d="M 329.175 101.51156 
L 380.329232 101.51156 
" style="fill:none;stroke:#363636;stroke-dasharray:3,3;stroke-dashoffset:0;"/>
   </g>
   <g id="line2d_18">
    <path clip-path="url(#pf8e28bf4f7)" d="M 329.175 95.647354 
L 378.879317 95.647354 
" style="fill:none;stroke:#363636;stroke-dasharray:1.5,1.5;stroke-dashoffset:0;"/>
   </g>
   <g id="line2d_19">
    <path clip-path="url(#pf8e28bf4f7)" d="M 449.962555 115.031032 
L 482.625 115.031032 
" style="fill:none;stroke:#363636;stroke-dasharray:1.5,1.5;stroke-dashoffset:0;"/>
   </g>
   <g id="line2d_20">
    <path clip-path="url(#pf8e28bf4f7)" d="M 433.499093 100.270977 
L 482.625 100.270977 
" style="fill:none;stroke:#363636;stroke-dasharray:3,3;stroke-dashoffset:0;"/>
   </g>
   <g id="line2d_21">
    <path clip-path="url(#pf8e28bf4f7)" d="M 436.093364 93.143237 
L 482.625 93.143237 
" style="fill:none;stroke:#363636;stroke-dasharray:1.5,1.5;stroke-dashoffset:0;"/>
   </g>
   <g id="line2d_22">
    <path clip-path="url(#pf8e28bf4f7)" d="M 482.625 111.398749 
L 520.163456 111.398749 
" style="fill:none;stroke:#363636;stroke-dasharray:1.5,1.5;stroke-dashoffset:0;"/>
   </g>
   <g id="line2d_23">
    <path clip-path="url(#pf8e28bf4f7)" d="M 482.625 100.270977 
L 541.952446 100.270977 
" style="fill:none;stroke:#363636;stroke-dasharray:3,3;stroke-dashoffset:0;"/>
   </g>
   <g id="line2d_24">
    <path clip-path="url(#pf8e28bf4f7)" d="M 482.625 91.192553 
L 533.892282 91.192553 
" style="fill:none;stroke:#363636;stroke-dasharray:1.5,1.5;stroke-dashoffset:0;"/>
   </g>
   <g id="line2d_25">
    <path clip-path="url(#pf8e28bf4f7)" d="M 606.698613 124.851198 
L 636.075 124.851198 
" style="fill:none;stroke:#363636;stroke-dasharray:1.5,1.5;stroke-dashoffset:0;"/>
   </g>
   <g id="line2d_26">
    <path clip-path="url(#pf8e28bf4f7)" d="M 575.840401 101.51156 
L 636.075 101.51156 
" style="fill:none;stroke:#363636;stroke-dasharray:3,3;stroke-dashoffset:0;"/>
   </g>
   <g id="line2d_27">
    <path clip-path="url(#pf8e28bf4f7)" d="M 576.218343 94.288597 
L 636.075 94.288597 
" style="fill:none;stroke:#363636;stroke-dasharray:1.5,1.5;stroke-dashoffset:0;"/>
   </g>
   <g id="line2d_28">
    <path clip-path="url(#pf8e28bf4f7)" d="M 636.075 129.327769 
L 660.00508 129.327769 
" style="fill:none;stroke:#363636;stroke-dasharray:1.5,1.5;stroke-dashoffset:0;"/>
   </g>
   <g id="line2d_29">
    <path clip-path="url(#pf8e28bf4f7)" d="M 636.075 104.396395 
L 688.359031 104.396395 
" style="fill:none;stroke:#363636;stroke-dasharray:3,3;stroke-dashoffset:0;"/>
   </g>
   <g id="line2d_30">
    <path clip-path="url(#pf8e28bf4f7)" d="M 636.075 95.42968 
L 689.423385 95.42968 
" style="fill:none;stroke:#363636;stroke-dasharray:1.5,1.5;stroke-dashoffset:0;"/>
   </g>
   <g id="legend_1">
    <g id="patch_5">
     <path d="M 106.7 372.5 
L 170.639219 372.5 
Q 172.839219 372.5 172.839219 370.3 
L 172.839219 323.536406 
Q 172.839219 321.336406 170.639219 321.336406 
L 106.7 321.336406 
Q 104.5 321.336406 104.5 323.536406 
L 104.5 370.3 
Q 104.5 372.5 106.7 372.5 
z
" style="fill:#ffffff;opacity:0.8;stroke:#cccccc;stroke-linejoin:miter;"/>
    </g>
    <g id="text_13">
     <!-- inst_single -->
     <g style="fill:#262626;" transform="translate(110.320547 334.325781)scale(0.12 -0.12)">
      <defs>
       <path d="M 6.640625 61.46875 
L 6.640625 71.578125 
L 15.4375 71.578125 
L 15.4375 61.46875 
z
M 6.640625 0 
L 6.640625 51.859375 
L 15.4375 51.859375 
L 15.4375 0 
z
" id="ArialMT-105"/>
       <path d="M 6.59375 0 
L 6.59375 51.859375 
L 14.5 51.859375 
L 14.5 44.484375 
Q 20.21875 53.03125 31 53.03125 
Q 35.6875 53.03125 39.625 51.34375 
Q 43.5625 49.65625 45.515625 46.921875 
Q 47.46875 44.1875 48.25 40.4375 
Q 48.734375 37.984375 48.734375 31.890625 
L 48.734375 0 
L 39.9375 0 
L 39.9375 31.546875 
Q 39.9375 36.921875 38.90625 39.578125 
Q 37.890625 42.234375 35.28125 43.8125 
Q 32.671875 45.40625 29.15625 45.40625 
Q 23.53125 45.40625 19.453125 41.84375 
Q 15.375 38.28125 15.375 28.328125 
L 15.375 0 
z
" id="ArialMT-110"/>
       <path d="M 3.078125 15.484375 
L 11.765625 16.84375 
Q 12.5 11.625 15.84375 8.84375 
Q 19.1875 6.0625 25.203125 6.0625 
Q 31.25 6.0625 34.171875 8.515625 
Q 37.109375 10.984375 37.109375 14.3125 
Q 37.109375 17.28125 34.515625 19 
Q 32.71875 20.171875 25.53125 21.96875 
Q 15.875 24.421875 12.140625 26.203125 
Q 8.40625 27.984375 6.46875 31.125 
Q 4.546875 34.28125 4.546875 38.09375 
Q 4.546875 41.546875 6.125 44.5 
Q 7.71875 47.46875 10.453125 49.421875 
Q 12.5 50.921875 16.03125 51.96875 
Q 19.578125 53.03125 23.640625 53.03125 
Q 29.734375 53.03125 34.34375 51.265625 
Q 38.96875 49.515625 41.15625 46.5 
Q 43.359375 43.5 44.1875 38.484375 
L 35.59375 37.3125 
Q 35.015625 41.3125 32.203125 43.546875 
Q 29.390625 45.796875 24.265625 45.796875 
Q 18.21875 45.796875 15.625 43.796875 
Q 13.03125 41.796875 13.03125 39.109375 
Q 13.03125 37.40625 14.109375 36.03125 
Q 15.1875 34.625 17.484375 33.6875 
Q 18.796875 33.203125 25.25 31.453125 
Q 34.578125 28.953125 38.25 27.359375 
Q 41.9375 25.78125 44.03125 22.75 
Q 46.140625 19.734375 46.140625 15.234375 
Q 46.140625 10.84375 43.578125 6.953125 
Q 41.015625 3.078125 36.171875 0.953125 
Q 31.34375 -1.171875 25.25 -1.171875 
Q 15.140625 -1.171875 9.84375 3.03125 
Q 4.546875 7.234375 3.078125 15.484375 
z
" id="ArialMT-115"/>
       <path d="M 25.78125 7.859375 
L 27.046875 0.09375 
Q 23.34375 -0.6875 20.40625 -0.6875 
Q 15.625 -0.6875 12.984375 0.828125 
Q 10.359375 2.34375 9.28125 4.8125 
Q 8.203125 7.28125 8.203125 15.1875 
L 8.203125 45.015625 
L 1.765625 45.015625 
L 1.765625 51.859375 
L 8.203125 51.859375 
L 8.203125 64.703125 
L 16.9375 69.96875 
L 16.9375 51.859375 
L 25.78125 51.859375 
L 25.78125 45.015625 
L 16.9375 45.015625 
L 16.9375 14.703125 
Q 16.9375 10.9375 17.40625 9.859375 
Q 17.875 8.796875 18.921875 8.15625 
Q 19.96875 7.515625 21.921875 7.515625 
Q 23.390625 7.515625 25.78125 7.859375 
z
" id="ArialMT-116"/>
       <path d="M 4.984375 -4.296875 
L 13.53125 -5.5625 
Q 14.0625 -9.515625 16.5 -11.328125 
Q 19.78125 -13.765625 25.4375 -13.765625 
Q 31.546875 -13.765625 34.859375 -11.328125 
Q 38.1875 -8.890625 39.359375 -4.5 
Q 40.046875 -1.8125 39.984375 6.78125 
Q 34.234375 0 25.640625 0 
Q 14.9375 0 9.078125 7.71875 
Q 3.21875 15.4375 3.21875 26.21875 
Q 3.21875 33.640625 5.90625 39.90625 
Q 8.59375 46.1875 13.6875 49.609375 
Q 18.796875 53.03125 25.6875 53.03125 
Q 34.859375 53.03125 40.828125 45.609375 
L 40.828125 51.859375 
L 48.921875 51.859375 
L 48.921875 7.03125 
Q 48.921875 -5.078125 46.453125 -10.125 
Q 44 -15.1875 38.640625 -18.109375 
Q 33.296875 -21.046875 25.484375 -21.046875 
Q 16.21875 -21.046875 10.5 -16.875 
Q 4.78125 -12.703125 4.984375 -4.296875 
z
M 12.25 26.859375 
Q 12.25 16.65625 16.296875 11.96875 
Q 20.359375 7.28125 26.46875 7.28125 
Q 32.515625 7.28125 36.609375 11.9375 
Q 40.71875 16.609375 40.71875 26.5625 
Q 40.71875 36.078125 36.5 40.90625 
Q 32.28125 45.75 26.3125 45.75 
Q 20.453125 45.75 16.34375 40.984375 
Q 12.25 36.234375 12.25 26.859375 
z
" id="ArialMT-103"/>
      </defs>
      <use xlink:href="#ArialMT-105"/>
      <use x="22.216797" xlink:href="#ArialMT-110"/>
      <use x="77.832031" xlink:href="#ArialMT-115"/>
      <use x="127.832031" xlink:href="#ArialMT-116"/>
      <use x="155.615234" xlink:href="#ArialMT-95"/>
      <use x="211.230469" xlink:href="#ArialMT-115"/>
      <use x="261.230469" xlink:href="#ArialMT-105"/>
      <use x="283.447266" xlink:href="#ArialMT-110"/>
      <use x="339.0625" xlink:href="#ArialMT-103"/>
      <use x="394.677734" xlink:href="#ArialMT-108"/>
      <use x="416.894531" xlink:href="#ArialMT-101"/>
     </g>
    </g>
    <g id="patch_6">
     <path d="M 108.9 350.225 
L 130.9 350.225 
L 130.9 342.525 
L 108.9 342.525 
z
" style="fill:#176d9c;stroke:#363636;stroke-linejoin:miter;stroke-width:0.5;"/>
    </g>
    <g id="text_14">
     <!-- inst -->
     <g style="fill:#262626;" transform="translate(139.7 350.225)scale(0.11 -0.11)">
      <use xlink:href="#ArialMT-105"/>
      <use x="22.216797" xlink:href="#ArialMT-110"/>
      <use x="77.832031" xlink:href="#ArialMT-115"/>
      <use x="127.832031" xlink:href="#ArialMT-116"/>
     </g>
    </g>
    <g id="patch_7">
     <path d="M 108.9 365.784844 
L 130.9 365.784844 
L 130.9 358.084844 
L 108.9 358.084844 
z
" style="fill:#c38820;stroke:#363636;stroke-linejoin:miter;stroke-width:0.5;"/>
    </g>
    <g id="text_15">
     <!-- single -->
     <g style="fill:#262626;" transform="translate(139.7 365.784844)scale(0.11 -0.11)">
      <use xlink:href="#ArialMT-115"/>
      <use x="50" xlink:href="#ArialMT-105"/>
      <use x="72.216797" xlink:href="#ArialMT-110"/>
      <use x="127.832031" xlink:href="#ArialMT-103"/>
      <use x="183.447266" xlink:href="#ArialMT-108"/>
      <use x="205.664062" xlink:href="#ArialMT-101"/>
     </g>
    </g>
   </g>
  </g>
 </g>
 <defs>
  <clipPath id="pf8e28bf4f7">
   <rect height="326.16" width="613.8" x="99" y="51.84"/>
  </clipPath>
 </defs>
</svg>
