<?xml version="1.0" encoding="utf-8" standalone="no"?>
<!DOCTYPE svg PUBLIC "-//W3C//DTD SVG 1.1//EN"
  "http://www.w3.org/Graphics/SVG/1.1/DTD/svg11.dtd">
<!-- Created with matplotlib (https://matplotlib.org/) -->
<svg height="432pt" version="1.1" viewBox="0 0 792 432" width="792pt" xmlns="http://www.w3.org/2000/svg" xmlns:xlink="http://www.w3.org/1999/xlink">
 <metadata>
  <rdf:RDF xmlns:cc="http://creativecommons.org/ns#" xmlns:dc="http://purl.org/dc/elements/1.1/" xmlns:rdf="http://www.w3.org/1999/02/22-rdf-syntax-ns#">
   <cc:Work>
    <dc:type rdf:resource="http://purl.org/dc/dcmitype/StillImage"/>
    <dc:date>2021-08-19T08:05:09.762535</dc:date>
    <dc:format>image/svg+xml</dc:format>
    <dc:creator>
     <cc:Agent>
      <dc:title>Matplotlib v3.3.1, https://matplotlib.org/</dc:title>
     </cc:Agent>
    </dc:creator>
   </cc:Work>
  </rdf:RDF>
 </metadata>
 <defs>
  <style type="text/css">*{stroke-linecap:butt;stroke-linejoin:round;}</style>
 </defs>
 <g id="figure_1">
  <g id="patch_1">
   <path d="M 0 432 
L 792 432 
L 792 0 
L 0 0 
z
" style="fill:#ffffff;"/>
  </g>
  <g id="axes_1">
   <g id="patch_2">
    <path d="M 99 378 
L 712.8 378 
L 712.8 51.84 
L 99 51.84 
z
" style="fill:#ffffff;"/>
   </g>
   <g id="matplotlib.axis_1">
    <g id="xtick_1">
     <g id="text_1">
      <!-- 2000-2006 -->
      <g style="fill:#262626;" transform="translate(149.425547 395.373594)scale(0.11 -0.11)">
       <defs>
        <path d="M 50.34375 8.453125 
L 50.34375 0 
L 3.03125 0 
Q 2.9375 3.171875 4.046875 6.109375 
Q 5.859375 10.9375 9.828125 15.625 
Q 13.8125 20.3125 21.34375 26.46875 
Q 33.015625 36.03125 37.109375 41.625 
Q 41.21875 47.21875 41.21875 52.203125 
Q 41.21875 57.421875 37.46875 61 
Q 33.734375 64.59375 27.734375 64.59375 
Q 21.390625 64.59375 17.578125 60.78125 
Q 13.765625 56.984375 13.71875 50.25 
L 4.6875 51.171875 
Q 5.609375 61.28125 11.65625 66.578125 
Q 17.71875 71.875 27.9375 71.875 
Q 38.234375 71.875 44.234375 66.15625 
Q 50.25 60.453125 50.25 52 
Q 50.25 47.703125 48.484375 43.546875 
Q 46.734375 39.40625 42.65625 34.8125 
Q 38.578125 30.21875 29.109375 22.21875 
Q 21.1875 15.578125 18.9375 13.203125 
Q 16.703125 10.84375 15.234375 8.453125 
z
" id="ArialMT-50"/>
        <path d="M 4.15625 35.296875 
Q 4.15625 48 6.765625 55.734375 
Q 9.375 63.484375 14.515625 67.671875 
Q 19.671875 71.875 27.484375 71.875 
Q 33.25 71.875 37.59375 69.546875 
Q 41.9375 67.234375 44.765625 62.859375 
Q 47.609375 58.5 49.21875 52.21875 
Q 50.828125 45.953125 50.828125 35.296875 
Q 50.828125 22.703125 48.234375 14.96875 
Q 45.65625 7.234375 40.5 3 
Q 35.359375 -1.21875 27.484375 -1.21875 
Q 17.140625 -1.21875 11.234375 6.203125 
Q 4.15625 15.140625 4.15625 35.296875 
z
M 13.1875 35.296875 
Q 13.1875 17.671875 17.3125 11.828125 
Q 21.4375 6 27.484375 6 
Q 33.546875 6 37.671875 11.859375 
Q 41.796875 17.71875 41.796875 35.296875 
Q 41.796875 52.984375 37.671875 58.78125 
Q 33.546875 64.59375 27.390625 64.59375 
Q 21.34375 64.59375 17.71875 59.46875 
Q 13.1875 52.9375 13.1875 35.296875 
z
" id="ArialMT-48"/>
        <path d="M 3.171875 21.484375 
L 3.171875 30.328125 
L 30.171875 30.328125 
L 30.171875 21.484375 
z
" id="ArialMT-45"/>
        <path d="M 49.75 54.046875 
L 41.015625 53.375 
Q 39.84375 58.546875 37.703125 60.890625 
Q 34.125 64.65625 28.90625 64.65625 
Q 24.703125 64.65625 21.53125 62.3125 
Q 17.390625 59.28125 14.984375 53.46875 
Q 12.59375 47.65625 12.5 36.921875 
Q 15.671875 41.75 20.265625 44.09375 
Q 24.859375 46.4375 29.890625 46.4375 
Q 38.671875 46.4375 44.84375 39.96875 
Q 51.03125 33.5 51.03125 23.25 
Q 51.03125 16.5 48.125 10.71875 
Q 45.21875 4.9375 40.140625 1.859375 
Q 35.0625 -1.21875 28.609375 -1.21875 
Q 17.625 -1.21875 10.6875 6.859375 
Q 3.765625 14.9375 3.765625 33.5 
Q 3.765625 54.25 11.421875 63.671875 
Q 18.109375 71.875 29.4375 71.875 
Q 37.890625 71.875 43.28125 67.140625 
Q 48.6875 62.40625 49.75 54.046875 
z
M 13.875 23.1875 
Q 13.875 18.65625 15.796875 14.5 
Q 17.71875 10.359375 21.1875 8.171875 
Q 24.65625 6 28.46875 6 
Q 34.03125 6 38.03125 10.484375 
Q 42.046875 14.984375 42.046875 22.703125 
Q 42.046875 30.125 38.078125 34.390625 
Q 34.125 38.671875 28.125 38.671875 
Q 22.171875 38.671875 18.015625 34.390625 
Q 13.875 30.125 13.875 23.1875 
z
" id="ArialMT-54"/>
       </defs>
       <use xlink:href="#ArialMT-50"/>
       <use x="55.615234" xlink:href="#ArialMT-48"/>
       <use x="111.230469" xlink:href="#ArialMT-48"/>
       <use x="166.845703" xlink:href="#ArialMT-48"/>
       <use x="222.460938" xlink:href="#ArialMT-45"/>
       <use x="255.761719" xlink:href="#ArialMT-50"/>
       <use x="311.376953" xlink:href="#ArialMT-48"/>
       <use x="366.992188" xlink:href="#ArialMT-48"/>
       <use x="422.607422" xlink:href="#ArialMT-54"/>
      </g>
     </g>
    </g>
    <g id="xtick_2">
     <g id="text_2">
      <!-- 2007-2009 -->
      <g style="fill:#262626;" transform="translate(302.875547 395.373594)scale(0.11 -0.11)">
       <defs>
        <path d="M 4.734375 62.203125 
L 4.734375 70.65625 
L 51.078125 70.65625 
L 51.078125 63.8125 
Q 44.234375 56.546875 37.515625 44.484375 
Q 30.8125 32.421875 27.15625 19.671875 
Q 24.515625 10.6875 23.78125 0 
L 14.75 0 
Q 14.890625 8.453125 18.0625 20.40625 
Q 21.234375 32.375 27.171875 43.484375 
Q 33.109375 54.59375 39.796875 62.203125 
z
" id="ArialMT-55"/>
        <path d="M 5.46875 16.546875 
L 13.921875 17.328125 
Q 14.984375 11.375 18.015625 8.6875 
Q 21.046875 6 25.78125 6 
Q 29.828125 6 32.875 7.859375 
Q 35.9375 9.71875 37.890625 12.8125 
Q 39.84375 15.921875 41.15625 21.1875 
Q 42.484375 26.46875 42.484375 31.9375 
Q 42.484375 32.515625 42.4375 33.6875 
Q 39.796875 29.5 35.234375 26.875 
Q 30.671875 24.265625 25.34375 24.265625 
Q 16.453125 24.265625 10.296875 30.703125 
Q 4.15625 37.15625 4.15625 47.703125 
Q 4.15625 58.59375 10.578125 65.234375 
Q 17 71.875 26.65625 71.875 
Q 33.640625 71.875 39.421875 68.109375 
Q 45.21875 64.359375 48.21875 57.390625 
Q 51.21875 50.4375 51.21875 37.25 
Q 51.21875 23.53125 48.234375 15.40625 
Q 45.265625 7.28125 39.375 3.03125 
Q 33.5 -1.21875 25.59375 -1.21875 
Q 17.1875 -1.21875 11.859375 3.4375 
Q 6.546875 8.109375 5.46875 16.546875 
z
M 41.453125 48.140625 
Q 41.453125 55.71875 37.421875 60.15625 
Q 33.40625 64.59375 27.734375 64.59375 
Q 21.875 64.59375 17.53125 59.8125 
Q 13.1875 55.03125 13.1875 47.40625 
Q 13.1875 40.578125 17.3125 36.296875 
Q 21.4375 32.03125 27.484375 32.03125 
Q 33.59375 32.03125 37.515625 36.296875 
Q 41.453125 40.578125 41.453125 48.140625 
z
" id="ArialMT-57"/>
       </defs>
       <use xlink:href="#ArialMT-50"/>
       <use x="55.615234" xlink:href="#ArialMT-48"/>
       <use x="111.230469" xlink:href="#ArialMT-48"/>
       <use x="166.845703" xlink:href="#ArialMT-55"/>
       <use x="222.460938" xlink:href="#ArialMT-45"/>
       <use x="255.761719" xlink:href="#ArialMT-50"/>
       <use x="311.376953" xlink:href="#ArialMT-48"/>
       <use x="366.992188" xlink:href="#ArialMT-48"/>
       <use x="422.607422" xlink:href="#ArialMT-57"/>
      </g>
     </g>
    </g>
    <g id="xtick_3">
     <g id="text_3">
      <!-- 2010-2013 -->
      <g style="fill:#262626;" transform="translate(456.325547 395.373594)scale(0.11 -0.11)">
       <defs>
        <path d="M 37.25 0 
L 28.46875 0 
L 28.46875 56 
Q 25.296875 52.984375 20.140625 49.953125 
Q 14.984375 46.921875 10.890625 45.40625 
L 10.890625 53.90625 
Q 18.265625 57.375 23.78125 62.296875 
Q 29.296875 67.234375 31.59375 71.875 
L 37.25 71.875 
z
" id="ArialMT-49"/>
        <path d="M 4.203125 18.890625 
L 12.984375 20.0625 
Q 14.5 12.59375 18.140625 9.296875 
Q 21.78125 6 27 6 
Q 33.203125 6 37.46875 10.296875 
Q 41.75 14.59375 41.75 20.953125 
Q 41.75 27 37.796875 30.921875 
Q 33.84375 34.859375 27.734375 34.859375 
Q 25.25 34.859375 21.53125 33.890625 
L 22.515625 41.609375 
Q 23.390625 41.5 23.921875 41.5 
Q 29.546875 41.5 34.03125 44.421875 
Q 38.53125 47.359375 38.53125 53.46875 
Q 38.53125 58.296875 35.25 61.46875 
Q 31.984375 64.65625 26.8125 64.65625 
Q 21.6875 64.65625 18.265625 61.421875 
Q 14.84375 58.203125 13.875 51.765625 
L 5.078125 53.328125 
Q 6.6875 62.15625 12.390625 67.015625 
Q 18.109375 71.875 26.609375 71.875 
Q 32.46875 71.875 37.390625 69.359375 
Q 42.328125 66.84375 44.9375 62.5 
Q 47.5625 58.15625 47.5625 53.265625 
Q 47.5625 48.640625 45.0625 44.828125 
Q 42.578125 41.015625 37.703125 38.765625 
Q 44.046875 37.3125 47.5625 32.6875 
Q 51.078125 28.078125 51.078125 21.140625 
Q 51.078125 11.765625 44.234375 5.25 
Q 37.40625 -1.265625 26.953125 -1.265625 
Q 17.53125 -1.265625 11.296875 4.34375 
Q 5.078125 9.96875 4.203125 18.890625 
z
" id="ArialMT-51"/>
       </defs>
       <use xlink:href="#ArialMT-50"/>
       <use x="55.615234" xlink:href="#ArialMT-48"/>
       <use x="111.230469" xlink:href="#ArialMT-49"/>
       <use x="166.845703" xlink:href="#ArialMT-48"/>
       <use x="222.460938" xlink:href="#ArialMT-45"/>
       <use x="255.761719" xlink:href="#ArialMT-50"/>
       <use x="311.376953" xlink:href="#ArialMT-48"/>
       <use x="366.992188" xlink:href="#ArialMT-49"/>
       <use x="422.607422" xlink:href="#ArialMT-51"/>
      </g>
     </g>
    </g>
    <g id="xtick_4">
     <g id="text_4">
      <!-- 2014-2018 -->
      <g style="fill:#262626;" transform="translate(609.775547 395.373594)scale(0.11 -0.11)">
       <defs>
        <path d="M 32.328125 0 
L 32.328125 17.140625 
L 1.265625 17.140625 
L 1.265625 25.203125 
L 33.9375 71.578125 
L 41.109375 71.578125 
L 41.109375 25.203125 
L 50.78125 25.203125 
L 50.78125 17.140625 
L 41.109375 17.140625 
L 41.109375 0 
z
M 32.328125 25.203125 
L 32.328125 57.46875 
L 9.90625 25.203125 
z
" id="ArialMT-52"/>
        <path d="M 17.671875 38.8125 
Q 12.203125 40.828125 9.5625 44.53125 
Q 6.9375 48.25 6.9375 53.421875 
Q 6.9375 61.234375 12.546875 66.546875 
Q 18.171875 71.875 27.484375 71.875 
Q 36.859375 71.875 42.578125 66.421875 
Q 48.296875 60.984375 48.296875 53.171875 
Q 48.296875 48.1875 45.671875 44.5 
Q 43.0625 40.828125 37.75 38.8125 
Q 44.34375 36.671875 47.78125 31.875 
Q 51.21875 27.09375 51.21875 20.453125 
Q 51.21875 11.28125 44.71875 5.03125 
Q 38.234375 -1.21875 27.640625 -1.21875 
Q 17.046875 -1.21875 10.546875 5.046875 
Q 4.046875 11.328125 4.046875 20.703125 
Q 4.046875 27.6875 7.59375 32.390625 
Q 11.140625 37.109375 17.671875 38.8125 
z
M 15.921875 53.71875 
Q 15.921875 48.640625 19.1875 45.40625 
Q 22.46875 42.1875 27.6875 42.1875 
Q 32.765625 42.1875 36.015625 45.375 
Q 39.265625 48.578125 39.265625 53.21875 
Q 39.265625 58.0625 35.90625 61.359375 
Q 32.5625 64.65625 27.59375 64.65625 
Q 22.5625 64.65625 19.234375 61.421875 
Q 15.921875 58.203125 15.921875 53.71875 
z
M 13.09375 20.65625 
Q 13.09375 16.890625 14.875 13.375 
Q 16.65625 9.859375 20.171875 7.921875 
Q 23.6875 6 27.734375 6 
Q 34.03125 6 38.125 10.046875 
Q 42.234375 14.109375 42.234375 20.359375 
Q 42.234375 26.703125 38.015625 30.859375 
Q 33.796875 35.015625 27.4375 35.015625 
Q 21.234375 35.015625 17.15625 30.90625 
Q 13.09375 26.8125 13.09375 20.65625 
z
" id="ArialMT-56"/>
       </defs>
       <use xlink:href="#ArialMT-50"/>
       <use x="55.615234" xlink:href="#ArialMT-48"/>
       <use x="111.230469" xlink:href="#ArialMT-49"/>
       <use x="166.845703" xlink:href="#ArialMT-52"/>
       <use x="222.460938" xlink:href="#ArialMT-45"/>
       <use x="255.761719" xlink:href="#ArialMT-50"/>
       <use x="311.376953" xlink:href="#ArialMT-48"/>
       <use x="366.992188" xlink:href="#ArialMT-49"/>
       <use x="422.607422" xlink:href="#ArialMT-56"/>
      </g>
     </g>
    </g>
    <g id="text_5">
     <!-- year -->
     <g style="fill:#262626;" transform="translate(394.229063 410.008594)scale(0.12 -0.12)">
      <defs>
       <path d="M 6.203125 -19.96875 
L 5.21875 -11.71875 
Q 8.109375 -12.5 10.25 -12.5 
Q 13.1875 -12.5 14.9375 -11.515625 
Q 16.703125 -10.546875 17.828125 -8.796875 
Q 18.65625 -7.46875 20.515625 -2.25 
Q 20.75 -1.515625 21.296875 -0.09375 
L 1.609375 51.859375 
L 11.078125 51.859375 
L 21.875 21.828125 
Q 23.96875 16.109375 25.640625 9.8125 
Q 27.15625 15.875 29.25 21.625 
L 40.328125 51.859375 
L 49.125 51.859375 
L 29.390625 -0.875 
Q 26.21875 -9.421875 24.46875 -12.640625 
Q 22.125 -17 19.09375 -19.015625 
Q 16.0625 -21.046875 11.859375 -21.046875 
Q 9.328125 -21.046875 6.203125 -19.96875 
z
" id="ArialMT-121"/>
       <path d="M 42.09375 16.703125 
L 51.171875 15.578125 
Q 49.03125 7.625 43.21875 3.21875 
Q 37.40625 -1.171875 28.375 -1.171875 
Q 17 -1.171875 10.328125 5.828125 
Q 3.65625 12.84375 3.65625 25.484375 
Q 3.65625 38.578125 10.390625 45.796875 
Q 17.140625 53.03125 27.875 53.03125 
Q 38.28125 53.03125 44.875 45.953125 
Q 51.46875 38.875 51.46875 26.03125 
Q 51.46875 25.25 51.421875 23.6875 
L 12.75 23.6875 
Q 13.234375 15.140625 17.578125 10.59375 
Q 21.921875 6.0625 28.421875 6.0625 
Q 33.25 6.0625 36.671875 8.59375 
Q 40.09375 11.140625 42.09375 16.703125 
z
M 13.234375 30.90625 
L 42.1875 30.90625 
Q 41.609375 37.453125 38.875 40.71875 
Q 34.671875 45.796875 27.984375 45.796875 
Q 21.921875 45.796875 17.796875 41.75 
Q 13.671875 37.703125 13.234375 30.90625 
z
" id="ArialMT-101"/>
       <path d="M 40.4375 6.390625 
Q 35.546875 2.25 31.03125 0.53125 
Q 26.515625 -1.171875 21.34375 -1.171875 
Q 12.796875 -1.171875 8.203125 3 
Q 3.609375 7.171875 3.609375 13.671875 
Q 3.609375 17.484375 5.34375 20.625 
Q 7.078125 23.78125 9.890625 25.6875 
Q 12.703125 27.59375 16.21875 28.5625 
Q 18.796875 29.25 24.03125 29.890625 
Q 34.671875 31.15625 39.703125 32.90625 
Q 39.75 34.71875 39.75 35.203125 
Q 39.75 40.578125 37.25 42.78125 
Q 33.890625 45.75 27.25 45.75 
Q 21.046875 45.75 18.09375 43.578125 
Q 15.140625 41.40625 13.71875 35.890625 
L 5.125 37.0625 
Q 6.296875 42.578125 8.984375 45.96875 
Q 11.671875 49.359375 16.75 51.1875 
Q 21.828125 53.03125 28.515625 53.03125 
Q 35.15625 53.03125 39.296875 51.46875 
Q 43.453125 49.90625 45.40625 47.53125 
Q 47.359375 45.171875 48.140625 41.546875 
Q 48.578125 39.3125 48.578125 33.453125 
L 48.578125 21.734375 
Q 48.578125 9.46875 49.140625 6.21875 
Q 49.703125 2.984375 51.375 0 
L 42.1875 0 
Q 40.828125 2.734375 40.4375 6.390625 
z
M 39.703125 26.03125 
Q 34.90625 24.078125 25.34375 22.703125 
Q 19.921875 21.921875 17.671875 20.9375 
Q 15.4375 19.96875 14.203125 18.09375 
Q 12.984375 16.21875 12.984375 13.921875 
Q 12.984375 10.40625 15.640625 8.0625 
Q 18.3125 5.71875 23.4375 5.71875 
Q 28.515625 5.71875 32.46875 7.9375 
Q 36.421875 10.15625 38.28125 14.015625 
Q 39.703125 17 39.703125 22.796875 
z
" id="ArialMT-97"/>
       <path d="M 6.5 0 
L 6.5 51.859375 
L 14.40625 51.859375 
L 14.40625 44 
Q 17.4375 49.515625 20 51.265625 
Q 22.5625 53.03125 25.640625 53.03125 
Q 30.078125 53.03125 34.671875 50.203125 
L 31.640625 42.046875 
Q 28.421875 43.953125 25.203125 43.953125 
Q 22.3125 43.953125 20.015625 42.21875 
Q 17.71875 40.484375 16.75 37.40625 
Q 15.28125 32.71875 15.28125 27.15625 
L 15.28125 0 
z
" id="ArialMT-114"/>
      </defs>
      <use xlink:href="#ArialMT-121"/>
      <use x="50" xlink:href="#ArialMT-101"/>
      <use x="105.615234" xlink:href="#ArialMT-97"/>
      <use x="161.230469" xlink:href="#ArialMT-114"/>
     </g>
    </g>
   </g>
   <g id="matplotlib.axis_2">
    <g id="ytick_1">
     <g id="line2d_1">
      <path clip-path="url(#p4b6a5f2bd1)" d="M 99 362.251169 
L 712.8 362.251169 
" style="fill:none;stroke:#cccccc;stroke-linecap:round;"/>
     </g>
     <g id="text_6">
      <!-- 0.1 -->
      <g style="fill:#262626;" transform="translate(74.21 366.187966)scale(0.11 -0.11)">
       <defs>
        <path d="M 9.078125 0 
L 9.078125 10.015625 
L 19.09375 10.015625 
L 19.09375 0 
z
" id="ArialMT-46"/>
       </defs>
       <use xlink:href="#ArialMT-48"/>
       <use x="55.615234" xlink:href="#ArialMT-46"/>
       <use x="83.398438" xlink:href="#ArialMT-49"/>
      </g>
     </g>
    </g>
    <g id="ytick_2">
     <g id="line2d_2">
      <path clip-path="url(#p4b6a5f2bd1)" d="M 99 300.083419 
L 712.8 300.083419 
" style="fill:none;stroke:#cccccc;stroke-linecap:round;"/>
     </g>
     <g id="text_7">
      <!-- 0.2 -->
      <g style="fill:#262626;" transform="translate(74.21 304.020216)scale(0.11 -0.11)">
       <use xlink:href="#ArialMT-48"/>
       <use x="55.615234" xlink:href="#ArialMT-46"/>
       <use x="83.398438" xlink:href="#ArialMT-50"/>
      </g>
     </g>
    </g>
    <g id="ytick_3">
     <g id="line2d_3">
      <path clip-path="url(#p4b6a5f2bd1)" d="M 99 237.915669 
L 712.8 237.915669 
" style="fill:none;stroke:#cccccc;stroke-linecap:round;"/>
     </g>
     <g id="text_8">
      <!-- 0.3 -->
      <g style="fill:#262626;" transform="translate(74.21 241.852466)scale(0.11 -0.11)">
       <use xlink:href="#ArialMT-48"/>
       <use x="55.615234" xlink:href="#ArialMT-46"/>
       <use x="83.398438" xlink:href="#ArialMT-51"/>
      </g>
     </g>
    </g>
    <g id="ytick_4">
     <g id="line2d_4">
      <path clip-path="url(#p4b6a5f2bd1)" d="M 99 175.747919 
L 712.8 175.747919 
" style="fill:none;stroke:#cccccc;stroke-linecap:round;"/>
     </g>
     <g id="text_9">
      <!-- 0.4 -->
      <g style="fill:#262626;" transform="translate(74.21 179.684716)scale(0.11 -0.11)">
       <use xlink:href="#ArialMT-48"/>
       <use x="55.615234" xlink:href="#ArialMT-46"/>
       <use x="83.398438" xlink:href="#ArialMT-52"/>
      </g>
     </g>
    </g>
    <g id="ytick_5">
     <g id="line2d_5">
      <path clip-path="url(#p4b6a5f2bd1)" d="M 99 113.580169 
L 712.8 113.580169 
" style="fill:none;stroke:#cccccc;stroke-linecap:round;"/>
     </g>
     <g id="text_10">
      <!-- 0.5 -->
      <g style="fill:#262626;" transform="translate(74.21 117.516965)scale(0.11 -0.11)">
       <defs>
        <path d="M 4.15625 18.75 
L 13.375 19.53125 
Q 14.40625 12.796875 18.140625 9.390625 
Q 21.875 6 27.15625 6 
Q 33.5 6 37.890625 10.78125 
Q 42.28125 15.578125 42.28125 23.484375 
Q 42.28125 31 38.0625 35.34375 
Q 33.84375 39.703125 27 39.703125 
Q 22.75 39.703125 19.328125 37.765625 
Q 15.921875 35.84375 13.96875 32.765625 
L 5.71875 33.84375 
L 12.640625 70.609375 
L 48.25 70.609375 
L 48.25 62.203125 
L 19.671875 62.203125 
L 15.828125 42.96875 
Q 22.265625 47.46875 29.34375 47.46875 
Q 38.71875 47.46875 45.15625 40.96875 
Q 51.609375 34.46875 51.609375 24.265625 
Q 51.609375 14.546875 45.953125 7.46875 
Q 39.0625 -1.21875 27.15625 -1.21875 
Q 17.390625 -1.21875 11.203125 4.25 
Q 5.03125 9.71875 4.15625 18.75 
z
" id="ArialMT-53"/>
       </defs>
       <use xlink:href="#ArialMT-48"/>
       <use x="55.615234" xlink:href="#ArialMT-46"/>
       <use x="83.398438" xlink:href="#ArialMT-53"/>
      </g>
     </g>
    </g>
    <g id="text_11">
     <!-- per_poverty -->
     <g style="fill:#262626;" transform="translate(67.684375 246.601875)rotate(-90)scale(0.12 -0.12)">
      <defs>
       <path d="M 6.59375 -19.875 
L 6.59375 51.859375 
L 14.59375 51.859375 
L 14.59375 45.125 
Q 17.4375 49.078125 21 51.046875 
Q 24.5625 53.03125 29.640625 53.03125 
Q 36.28125 53.03125 41.359375 49.609375 
Q 46.4375 46.1875 49.015625 39.953125 
Q 51.609375 33.734375 51.609375 26.3125 
Q 51.609375 18.359375 48.75 11.984375 
Q 45.90625 5.609375 40.453125 2.21875 
Q 35.015625 -1.171875 29 -1.171875 
Q 24.609375 -1.171875 21.109375 0.6875 
Q 17.625 2.546875 15.375 5.375 
L 15.375 -19.875 
z
M 14.546875 25.640625 
Q 14.546875 15.625 18.59375 10.84375 
Q 22.65625 6.0625 28.421875 6.0625 
Q 34.28125 6.0625 38.453125 11.015625 
Q 42.625 15.96875 42.625 26.375 
Q 42.625 36.28125 38.546875 41.203125 
Q 34.46875 46.140625 28.8125 46.140625 
Q 23.1875 46.140625 18.859375 40.890625 
Q 14.546875 35.640625 14.546875 25.640625 
z
" id="ArialMT-112"/>
       <path d="M -1.515625 -19.875 
L -1.515625 -13.53125 
L 56.734375 -13.53125 
L 56.734375 -19.875 
z
" id="ArialMT-95"/>
       <path d="M 3.328125 25.921875 
Q 3.328125 40.328125 11.328125 47.265625 
Q 18.015625 53.03125 27.640625 53.03125 
Q 38.328125 53.03125 45.109375 46.015625 
Q 51.90625 39.015625 51.90625 26.65625 
Q 51.90625 16.65625 48.90625 10.90625 
Q 45.90625 5.171875 40.15625 2 
Q 34.421875 -1.171875 27.640625 -1.171875 
Q 16.75 -1.171875 10.03125 5.8125 
Q 3.328125 12.796875 3.328125 25.921875 
z
M 12.359375 25.921875 
Q 12.359375 15.96875 16.703125 11.015625 
Q 21.046875 6.0625 27.640625 6.0625 
Q 34.1875 6.0625 38.53125 11.03125 
Q 42.875 16.015625 42.875 26.21875 
Q 42.875 35.84375 38.5 40.796875 
Q 34.125 45.75 27.640625 45.75 
Q 21.046875 45.75 16.703125 40.8125 
Q 12.359375 35.890625 12.359375 25.921875 
z
" id="ArialMT-111"/>
       <path d="M 21 0 
L 1.265625 51.859375 
L 10.546875 51.859375 
L 21.6875 20.796875 
Q 23.484375 15.765625 25 10.359375 
Q 26.171875 14.453125 28.265625 20.21875 
L 39.796875 51.859375 
L 48.828125 51.859375 
L 29.203125 0 
z
" id="ArialMT-118"/>
       <path d="M 25.78125 7.859375 
L 27.046875 0.09375 
Q 23.34375 -0.6875 20.40625 -0.6875 
Q 15.625 -0.6875 12.984375 0.828125 
Q 10.359375 2.34375 9.28125 4.8125 
Q 8.203125 7.28125 8.203125 15.1875 
L 8.203125 45.015625 
L 1.765625 45.015625 
L 1.765625 51.859375 
L 8.203125 51.859375 
L 8.203125 64.703125 
L 16.9375 69.96875 
L 16.9375 51.859375 
L 25.78125 51.859375 
L 25.78125 45.015625 
L 16.9375 45.015625 
L 16.9375 14.703125 
Q 16.9375 10.9375 17.40625 9.859375 
Q 17.875 8.796875 18.921875 8.15625 
Q 19.96875 7.515625 21.921875 7.515625 
Q 23.390625 7.515625 25.78125 7.859375 
z
" id="ArialMT-116"/>
      </defs>
      <use xlink:href="#ArialMT-112"/>
      <use x="55.615234" xlink:href="#ArialMT-101"/>
      <use x="111.230469" xlink:href="#ArialMT-114"/>
      <use x="144.53125" xlink:href="#ArialMT-95"/>
      <use x="200.146484" xlink:href="#ArialMT-112"/>
      <use x="255.761719" xlink:href="#ArialMT-111"/>
      <use x="311.376953" xlink:href="#ArialMT-118"/>
      <use x="361.376953" xlink:href="#ArialMT-101"/>
      <use x="416.992188" xlink:href="#ArialMT-114"/>
      <use x="450.292969" xlink:href="#ArialMT-116"/>
      <use x="478.076172" xlink:href="#ArialMT-121"/>
     </g>
    </g>
   </g>
   <g id="PolyCollection_1">
    <defs>
     <path d="M 175.725 -68.902725 
L 171.803562 -68.902725 
L 170.166347 -71.896986 
L 168.1097 -74.891247 
L 165.628925 -77.885507 
L 162.759119 -80.879768 
L 159.583944 -83.874029 
L 156.240025 -86.86829 
L 152.913541 -89.862551 
L 149.825649 -92.856811 
L 147.205056 -95.851072 
L 145.249743 -98.845333 
L 144.084695 -101.839594 
L 143.726655 -104.833855 
L 144.067917 -107.828116 
L 144.887453 -110.822376 
L 145.889475 -113.816637 
L 146.759767 -116.810898 
L 147.223028 -119.805159 
L 147.084006 -122.79942 
L 146.24233 -125.79368 
L 144.68271 -128.787941 
L 142.452745 -131.782202 
L 139.644045 -134.776463 
L 136.386629 -137.770724 
L 132.85487 -140.764984 
L 129.272773 -143.759245 
L 125.904144 -146.753506 
L 123.021168 -149.747767 
L 120.858533 -152.742028 
L 119.57076 -155.736289 
L 119.210568 -158.730549 
L 119.735321 -161.72481 
L 121.033566 -164.719071 
L 122.954244 -167.713332 
L 125.323426 -170.707593 
L 127.945698 -173.701853 
L 130.600769 -176.696114 
L 133.050949 -179.690375 
L 135.068015 -182.684636 
L 136.473397 -185.678897 
L 137.173684 -188.673157 
L 137.172748 -191.667418 
L 136.553471 -194.661679 
L 135.439146 -197.65594 
L 133.95632 -200.650201 
L 132.219653 -203.644462 
L 130.345711 -206.638722 
L 128.484505 -209.632983 
L 126.845566 -212.627244 
L 125.696268 -215.621505 
L 125.323362 -218.615766 
L 125.967089 -221.610026 
L 127.751341 -224.604287 
L 130.63668 -227.598548 
L 134.414778 -230.592809 
L 138.747375 -233.58707 
L 143.237266 -236.581331 
L 147.508918 -239.575591 
L 151.275313 -242.569852 
L 154.374604 -245.564113 
L 156.771822 -248.558374 
L 158.532227 -251.552635 
L 159.780053 -254.546895 
L 160.657239 -257.541156 
L 161.292289 -260.535417 
L 161.782656 -263.529678 
L 162.188616 -266.523939 
L 162.534544 -269.518199 
L 162.814626 -272.51246 
L 163.00219 -275.506721 
L 163.062758 -278.500982 
L 162.969616 -281.495243 
L 162.718217 -284.489504 
L 162.334136 -287.483764 
L 161.870166 -290.478025 
L 161.391848 -293.472286 
L 160.955629 -296.466547 
L 160.587795 -299.460808 
L 160.273273 -302.455068 
L 159.960573 -305.449329 
L 159.58331 -308.44359 
L 159.0921 -311.437851 
L 158.485648 -314.432112 
L 157.828966 -317.426372 
L 157.250322 -320.420633 
L 156.915796 -323.414894 
L 156.988346 -326.409155 
L 157.58408 -329.403416 
L 158.739564 -332.397677 
L 160.400179 -335.391937 
L 162.43229 -338.386198 
L 164.654192 -341.380459 
L 166.875387 -344.37472 
L 168.932479 -347.368981 
L 170.712797 -350.363241 
L 172.162112 -353.357502 
L 173.27824 -356.351763 
L 174.095901 -359.346024 
L 174.669128 -362.340285 
L 175.056207 -365.334545 
L 175.725 -365.334545 
L 175.725 -365.334545 
L 175.725 -362.340285 
L 175.725 -359.346024 
L 175.725 -356.351763 
L 175.725 -353.357502 
L 175.725 -350.363241 
L 175.725 -347.368981 
L 175.725 -344.37472 
L 175.725 -341.380459 
L 175.725 -338.386198 
L 175.725 -335.391937 
L 175.725 -332.397677 
L 175.725 -329.403416 
L 175.725 -326.409155 
L 175.725 -323.414894 
L 175.725 -320.420633 
L 175.725 -317.426372 
L 175.725 -314.432112 
L 175.725 -311.437851 
L 175.725 -308.44359 
L 175.725 -305.449329 
L 175.725 -302.455068 
L 175.725 -299.460808 
L 175.725 -296.466547 
L 175.725 -293.472286 
L 175.725 -290.478025 
L 175.725 -287.483764 
L 175.725 -284.489504 
L 175.725 -281.495243 
L 175.725 -278.500982 
L 175.725 -275.506721 
L 175.725 -272.51246 
L 175.725 -269.518199 
L 175.725 -266.523939 
L 175.725 -263.529678 
L 175.725 -260.535417 
L 175.725 -257.541156 
L 175.725 -254.546895 
L 175.725 -251.552635 
L 175.725 -248.558374 
L 175.725 -245.564113 
L 175.725 -242.569852 
L 175.725 -239.575591 
L 175.725 -236.581331 
L 175.725 -233.58707 
L 175.725 -230.592809 
L 175.725 -227.598548 
L 175.725 -224.604287 
L 175.725 -221.610026 
L 175.725 -218.615766 
L 175.725 -215.621505 
L 175.725 -212.627244 
L 175.725 -209.632983 
L 175.725 -206.638722 
L 175.725 -203.644462 
L 175.725 -200.650201 
L 175.725 -197.65594 
L 175.725 -194.661679 
L 175.725 -191.667418 
L 175.725 -188.673157 
L 175.725 -185.678897 
L 175.725 -182.684636 
L 175.725 -179.690375 
L 175.725 -176.696114 
L 175.725 -173.701853 
L 175.725 -170.707593 
L 175.725 -167.713332 
L 175.725 -164.719071 
L 175.725 -161.72481 
L 175.725 -158.730549 
L 175.725 -155.736289 
L 175.725 -152.742028 
L 175.725 -149.747767 
L 175.725 -146.753506 
L 175.725 -143.759245 
L 175.725 -140.764984 
L 175.725 -137.770724 
L 175.725 -134.776463 
L 175.725 -131.782202 
L 175.725 -128.787941 
L 175.725 -125.79368 
L 175.725 -122.79942 
L 175.725 -119.805159 
L 175.725 -116.810898 
L 175.725 -113.816637 
L 175.725 -110.822376 
L 175.725 -107.828116 
L 175.725 -104.833855 
L 175.725 -101.839594 
L 175.725 -98.845333 
L 175.725 -95.851072 
L 175.725 -92.856811 
L 175.725 -89.862551 
L 175.725 -86.86829 
L 175.725 -83.874029 
L 175.725 -80.879768 
L 175.725 -77.885507 
L 175.725 -74.891247 
L 175.725 -71.896986 
L 175.725 -68.902725 
z
" id="m3286a8ffc0" style="stroke:#363636;"/>
    </defs>
    <g clip-path="url(#p4b6a5f2bd1)">
     <use style="fill:#176d9c;stroke:#363636;" x="0" xlink:href="#m3286a8ffc0" y="432"/>
    </g>
   </g>
   <g id="PolyCollection_2">
    <defs>
     <path d="M 179.07928 -69.134402 
L 175.725 -69.134402 
L 175.725 -71.920228 
L 175.725 -74.706055 
L 175.725 -77.491881 
L 175.725 -80.277708 
L 175.725 -83.063534 
L 175.725 -85.84936 
L 175.725 -88.635187 
L 175.725 -91.421013 
L 175.725 -94.20684 
L 175.725 -96.992666 
L 175.725 -99.778493 
L 175.725 -102.564319 
L 175.725 -105.350145 
L 175.725 -108.135972 
L 175.725 -110.921798 
L 175.725 -113.707625 
L 175.725 -116.493451 
L 175.725 -119.279277 
L 175.725 -122.065104 
L 175.725 -124.85093 
L 175.725 -127.636757 
L 175.725 -130.422583 
L 175.725 -133.208409 
L 175.725 -135.994236 
L 175.725 -138.780062 
L 175.725 -141.565889 
L 175.725 -144.351715 
L 175.725 -147.137541 
L 175.725 -149.923368 
L 175.725 -152.709194 
L 175.725 -155.495021 
L 175.725 -158.280847 
L 175.725 -161.066673 
L 175.725 -163.8525 
L 175.725 -166.638326 
L 175.725 -169.424153 
L 175.725 -172.209979 
L 175.725 -174.995805 
L 175.725 -177.781632 
L 175.725 -180.567458 
L 175.725 -183.353285 
L 175.725 -186.139111 
L 175.725 -188.924937 
L 175.725 -191.710764 
L 175.725 -194.49659 
L 175.725 -197.282417 
L 175.725 -200.068243 
L 175.725 -202.854069 
L 175.725 -205.639896 
L 175.725 -208.425722 
L 175.725 -211.211549 
L 175.725 -213.997375 
L 175.725 -216.783202 
L 175.725 -219.569028 
L 175.725 -222.354854 
L 175.725 -225.140681 
L 175.725 -227.926507 
L 175.725 -230.712334 
L 175.725 -233.49816 
L 175.725 -236.283986 
L 175.725 -239.069813 
L 175.725 -241.855639 
L 175.725 -244.641466 
L 175.725 -247.427292 
L 175.725 -250.213118 
L 175.725 -252.998945 
L 175.725 -255.784771 
L 175.725 -258.570598 
L 175.725 -261.356424 
L 175.725 -264.14225 
L 175.725 -266.928077 
L 175.725 -269.713903 
L 175.725 -272.49973 
L 175.725 -275.285556 
L 175.725 -278.071382 
L 175.725 -280.857209 
L 175.725 -283.643035 
L 175.725 -286.428862 
L 175.725 -289.214688 
L 175.725 -292.000514 
L 175.725 -294.786341 
L 175.725 -297.572167 
L 175.725 -300.357994 
L 175.725 -303.14382 
L 175.725 -305.929646 
L 175.725 -308.715473 
L 175.725 -311.501299 
L 175.725 -314.287126 
L 175.725 -317.072952 
L 175.725 -319.858778 
L 175.725 -322.644605 
L 175.725 -325.430431 
L 175.725 -328.216258 
L 175.725 -331.002084 
L 175.725 -333.787911 
L 175.725 -336.573737 
L 175.725 -339.359563 
L 175.725 -342.14539 
L 175.725 -344.931216 
L 183.943475 -344.931216 
L 183.943475 -344.931216 
L 186.180622 -342.14539 
L 188.499851 -339.359563 
L 190.730377 -336.573737 
L 192.691693 -333.787911 
L 194.22522 -331.002084 
L 195.224772 -328.216258 
L 195.657487 -325.430431 
L 195.56882 -322.644605 
L 195.069511 -319.858778 
L 194.307844 -317.072952 
L 193.435097 -314.287126 
L 192.574209 -311.501299 
L 191.800411 -308.715473 
L 191.138374 -305.929646 
L 190.574741 -303.14382 
L 190.079907 -300.357994 
L 189.630331 -297.572167 
L 189.223258 -294.786341 
L 188.879196 -292.000514 
L 188.632291 -289.214688 
L 188.513211 -286.428862 
L 188.531688 -283.643035 
L 188.665767 -280.857209 
L 188.862222 -278.071382 
L 189.048485 -275.285556 
L 189.152453 -272.49973 
L 189.123989 -269.713903 
L 188.951909 -266.928077 
L 188.672411 -264.14225 
L 188.368188 -261.356424 
L 188.160249 -258.570598 
L 188.19553 -255.784771 
L 188.632516 -252.998945 
L 189.625267 -250.213118 
L 191.304929 -247.427292 
L 193.758122 -244.641466 
L 197.003704 -241.855639 
L 200.972411 -239.069813 
L 205.496104 -236.283986 
L 210.313379 -233.49816 
L 215.095461 -230.712334 
L 219.490925 -227.926507 
L 223.181417 -225.140681 
L 225.93541 -222.354854 
L 227.645428 -219.569028 
L 228.33756 -216.783202 
L 228.150185 -213.997375 
L 227.289243 -211.211549 
L 225.975892 -208.425722 
L 224.40512 -205.639896 
L 222.72873 -202.854069 
L 221.064864 -200.068243 
L 219.523772 -197.282417 
L 218.232043 -194.49659 
L 217.338872 -191.710764 
L 216.997795 -188.924937 
L 217.3306 -186.139111 
L 218.389869 -183.353285 
L 220.137523 -180.567458 
L 222.448504 -177.781632 
L 225.13591 -174.995805 
L 227.98387 -172.209979 
L 230.772722 -169.424153 
L 233.288431 -166.638326 
L 235.320029 -163.8525 
L 236.657749 -161.066673 
L 237.105 -158.280847 
L 236.508747 -155.495021 
L 234.800249 -152.709194 
L 232.028959 -149.923368 
L 228.372289 -147.137541 
L 224.113225 -144.351715 
L 219.591589 -141.565889 
L 215.145627 -138.780062 
L 211.063223 -135.994236 
L 207.555559 -133.208409 
L 204.754634 -130.422583 
L 202.725768 -127.636757 
L 201.482147 -124.85093 
L 200.991606 -122.065104 
L 201.173584 -119.279277 
L 201.891908 -116.493451 
L 202.952785 -113.707625 
L 204.115705 -110.921798 
L 205.119226 -108.135972 
L 205.717066 -105.350145 
L 205.715382 -102.564319 
L 205.001497 -99.778493 
L 203.557133 -96.992666 
L 201.454085 -94.20684 
L 198.834991 -91.421013 
L 195.885131 -88.635187 
L 192.802082 -85.84936 
L 189.769151 -83.063534 
L 186.936315 -80.277708 
L 184.409986 -77.491881 
L 182.250959 -74.706055 
L 180.478649 -71.920228 
L 179.07928 -69.134402 
z
" id="m8bf7d79595" style="stroke:#363636;"/>
    </defs>
    <g clip-path="url(#p4b6a5f2bd1)">
     <use style="fill:#c38820;stroke:#363636;" x="0" xlink:href="#m8bf7d79595" y="432"/>
    </g>
   </g>
   <g id="PolyCollection_3">
    <defs>
     <path d="M 329.175 -75.013932 
L 326.327875 -75.013932 
L 325.049099 -77.738776 
L 323.415506 -80.46362 
L 321.429086 -83.188464 
L 319.136057 -85.913308 
L 316.632694 -88.638152 
L 314.062186 -91.362996 
L 311.600688 -94.08784 
L 309.433254 -96.812684 
L 307.723224 -99.537529 
L 306.581118 -102.262373 
L 306.040214 -104.987217 
L 306.045262 -107.712061 
L 306.458011 -110.436905 
L 307.079 -113.161749 
L 307.680517 -115.886593 
L 308.042345 -118.611437 
L 307.981203 -121.336281 
L 307.367358 -124.061125 
L 306.126986 -126.785969 
L 304.234551 -129.510814 
L 301.70318 -132.235658 
L 298.580656 -134.960502 
L 294.954169 -137.685346 
L 290.960237 -140.41019 
L 286.790885 -143.135034 
L 282.686526 -145.859878 
L 278.911034 -148.584722 
L 275.71322 -151.309566 
L 273.286707 -154.03441 
L 271.742575 -156.759255 
L 271.104273 -159.484099 
L 271.32419 -162.208943 
L 272.311426 -164.933787 
L 273.95601 -167.658631 
L 276.138617 -170.383475 
L 278.724625 -173.108319 
L 281.551405 -175.833163 
L 284.422369 -178.558007 
L 287.117661 -181.282851 
L 289.421742 -184.007696 
L 291.157937 -186.73254 
L 292.215314 -189.457384 
L 292.556694 -192.182228 
L 292.206292 -194.907072 
L 291.226048 -197.631916 
L 289.695198 -200.35676 
L 287.705027 -203.081604 
L 285.371379 -205.806448 
L 282.856408 -208.531292 
L 280.384116 -211.256137 
L 278.2351 -213.980981 
L 276.71425 -216.705825 
L 276.09701 -219.430669 
L 276.569637 -222.155513 
L 278.182562 -224.880357 
L 280.832222 -227.605201 
L 284.277523 -230.330045 
L 288.186298 -233.054889 
L 292.198617 -235.779733 
L 295.990131 -238.504577 
L 299.320263 -241.229422 
L 302.055947 -243.954266 
L 304.169434 -246.67911 
L 305.71588 -249.403954 
L 306.800876 -252.128798 
L 307.548566 -254.853642 
L 308.077877 -257.578486 
L 308.489306 -260.30333 
L 308.860031 -263.028174 
L 309.242916 -265.753018 
L 309.665768 -268.477863 
L 310.130119 -271.202707 
L 310.611662 -273.927551 
L 311.065476 -276.652395 
L 311.437567 -279.377239 
L 311.681074 -282.102083 
L 311.772346 -284.826927 
L 311.720984 -287.551771 
L 311.569353 -290.276615 
L 311.380665 -293.001459 
L 311.218884 -295.726304 
L 311.126921 -298.451148 
L 311.110615 -301.175992 
L 311.134557 -303.900836 
L 311.132245 -306.62568 
L 311.028566 -309.350524 
L 310.768432 -312.075368 
L 310.342962 -314.800212 
L 309.804733 -317.525056 
L 309.266444 -320.2499 
L 308.882088 -322.974745 
L 308.814932 -325.699589 
L 309.200681 -328.424433 
L 310.115686 -331.149277 
L 311.558622 -333.874121 
L 313.450051 -336.598965 
L 315.649158 -339.323809 
L 317.982296 -342.048653 
L 320.275342 -344.773497 
L 329.175 -344.773497 
L 329.175 -344.773497 
L 329.175 -342.048653 
L 329.175 -339.323809 
L 329.175 -336.598965 
L 329.175 -333.874121 
L 329.175 -331.149277 
L 329.175 -328.424433 
L 329.175 -325.699589 
L 329.175 -322.974745 
L 329.175 -320.2499 
L 329.175 -317.525056 
L 329.175 -314.800212 
L 329.175 -312.075368 
L 329.175 -309.350524 
L 329.175 -306.62568 
L 329.175 -303.900836 
L 329.175 -301.175992 
L 329.175 -298.451148 
L 329.175 -295.726304 
L 329.175 -293.001459 
L 329.175 -290.276615 
L 329.175 -287.551771 
L 329.175 -284.826927 
L 329.175 -282.102083 
L 329.175 -279.377239 
L 329.175 -276.652395 
L 329.175 -273.927551 
L 329.175 -271.202707 
L 329.175 -268.477863 
L 329.175 -265.753018 
L 329.175 -263.028174 
L 329.175 -260.30333 
L 329.175 -257.578486 
L 329.175 -254.853642 
L 329.175 -252.128798 
L 329.175 -249.403954 
L 329.175 -246.67911 
L 329.175 -243.954266 
L 329.175 -241.229422 
L 329.175 -238.504577 
L 329.175 -235.779733 
L 329.175 -233.054889 
L 329.175 -230.330045 
L 329.175 -227.605201 
L 329.175 -224.880357 
L 329.175 -222.155513 
L 329.175 -219.430669 
L 329.175 -216.705825 
L 329.175 -213.980981 
L 329.175 -211.256137 
L 329.175 -208.531292 
L 329.175 -205.806448 
L 329.175 -203.081604 
L 329.175 -200.35676 
L 329.175 -197.631916 
L 329.175 -194.907072 
L 329.175 -192.182228 
L 329.175 -189.457384 
L 329.175 -186.73254 
L 329.175 -184.007696 
L 329.175 -181.282851 
L 329.175 -178.558007 
L 329.175 -175.833163 
L 329.175 -173.108319 
L 329.175 -170.383475 
L 329.175 -167.658631 
L 329.175 -164.933787 
L 329.175 -162.208943 
L 329.175 -159.484099 
L 329.175 -156.759255 
L 329.175 -154.03441 
L 329.175 -151.309566 
L 329.175 -148.584722 
L 329.175 -145.859878 
L 329.175 -143.135034 
L 329.175 -140.41019 
L 329.175 -137.685346 
L 329.175 -134.960502 
L 329.175 -132.235658 
L 329.175 -129.510814 
L 329.175 -126.785969 
L 329.175 -124.061125 
L 329.175 -121.336281 
L 329.175 -118.611437 
L 329.175 -115.886593 
L 329.175 -113.161749 
L 329.175 -110.436905 
L 329.175 -107.712061 
L 329.175 -104.987217 
L 329.175 -102.262373 
L 329.175 -99.537529 
L 329.175 -96.812684 
L 329.175 -94.08784 
L 329.175 -91.362996 
L 329.175 -88.638152 
L 329.175 -85.913308 
L 329.175 -83.188464 
L 329.175 -80.46362 
L 329.175 -77.738776 
L 329.175 -75.013932 
z
" id="m7ca3685d6f" style="stroke:#363636;"/>
    </defs>
    <g clip-path="url(#p4b6a5f2bd1)">
     <use style="fill:#176d9c;stroke:#363636;" x="0" xlink:href="#m7ca3685d6f" y="432"/>
    </g>
   </g>
   <g id="PolyCollection_4">
    <defs>
     <path d="M 333.690809 -68.909688 
L 329.175 -68.909688 
L 329.175 -71.700054 
L 329.175 -74.49042 
L 329.175 -77.280786 
L 329.175 -80.071152 
L 329.175 -82.861518 
L 329.175 -85.651884 
L 329.175 -88.44225 
L 329.175 -91.232616 
L 329.175 -94.022982 
L 329.175 -96.813349 
L 329.175 -99.603715 
L 329.175 -102.394081 
L 329.175 -105.184447 
L 329.175 -107.974813 
L 329.175 -110.765179 
L 329.175 -113.555545 
L 329.175 -116.345911 
L 329.175 -119.136277 
L 329.175 -121.926643 
L 329.175 -124.717009 
L 329.175 -127.507376 
L 329.175 -130.297742 
L 329.175 -133.088108 
L 329.175 -135.878474 
L 329.175 -138.66884 
L 329.175 -141.459206 
L 329.175 -144.249572 
L 329.175 -147.039938 
L 329.175 -149.830304 
L 329.175 -152.62067 
L 329.175 -155.411036 
L 329.175 -158.201403 
L 329.175 -160.991769 
L 329.175 -163.782135 
L 329.175 -166.572501 
L 329.175 -169.362867 
L 329.175 -172.153233 
L 329.175 -174.943599 
L 329.175 -177.733965 
L 329.175 -180.524331 
L 329.175 -183.314697 
L 329.175 -186.105063 
L 329.175 -188.89543 
L 329.175 -191.685796 
L 329.175 -194.476162 
L 329.175 -197.266528 
L 329.175 -200.056894 
L 329.175 -202.84726 
L 329.175 -205.637626 
L 329.175 -208.427992 
L 329.175 -211.218358 
L 329.175 -214.008724 
L 329.175 -216.79909 
L 329.175 -219.589457 
L 329.175 -222.379823 
L 329.175 -225.170189 
L 329.175 -227.960555 
L 329.175 -230.750921 
L 329.175 -233.541287 
L 329.175 -236.331653 
L 329.175 -239.122019 
L 329.175 -241.912385 
L 329.175 -244.702751 
L 329.175 -247.493117 
L 329.175 -250.283484 
L 329.175 -253.07385 
L 329.175 -255.864216 
L 329.175 -258.654582 
L 329.175 -261.444948 
L 329.175 -264.235314 
L 329.175 -267.02568 
L 329.175 -269.816046 
L 329.175 -272.606412 
L 329.175 -275.396778 
L 329.175 -278.187144 
L 329.175 -280.977511 
L 329.175 -283.767877 
L 329.175 -286.558243 
L 329.175 -289.348609 
L 329.175 -292.138975 
L 329.175 -294.929341 
L 329.175 -297.719707 
L 329.175 -300.510073 
L 329.175 -303.300439 
L 329.175 -306.090805 
L 329.175 -308.881171 
L 329.175 -311.671538 
L 329.175 -314.461904 
L 329.175 -317.25227 
L 329.175 -320.042636 
L 329.175 -322.833002 
L 329.175 -325.623368 
L 329.175 -328.413734 
L 329.175 -331.2041 
L 329.175 -333.994466 
L 329.175 -336.784832 
L 329.175 -339.575198 
L 329.175 -342.365565 
L 329.175 -345.155931 
L 338.177629 -345.155931 
L 338.177629 -345.155931 
L 340.128437 -342.365565 
L 341.950411 -339.575198 
L 343.482431 -336.784832 
L 344.599428 -333.994466 
L 345.243131 -331.2041 
L 345.439003 -328.413734 
L 345.292785 -325.623368 
L 344.966017 -322.833002 
L 344.636553 -320.042636 
L 344.455079 -317.25227 
L 344.510071 -314.461904 
L 344.811022 -311.671538 
L 345.294161 -308.881171 
L 345.848064 -306.090805 
L 346.350865 -303.300439 
L 346.707709 -300.510073 
L 346.877482 -297.719707 
L 346.881374 -294.929341 
L 346.791358 -292.138975 
L 346.702664 -289.348609 
L 346.699095 -286.558243 
L 346.822228 -283.767877 
L 347.054464 -280.977511 
L 347.321678 -278.187144 
L 347.515103 -275.396778 
L 347.525984 -272.606412 
L 347.28257 -269.816046 
L 346.77855 -267.02568 
L 346.08523 -264.235314 
L 345.345216 -261.444948 
L 344.750847 -258.654582 
L 344.514124 -255.864216 
L 344.835422 -253.07385 
L 345.87628 -250.283484 
L 347.738672 -247.493117 
L 350.45079 -244.702751 
L 353.958698 -241.912385 
L 358.1239 -239.122019 
L 362.728274 -236.331653 
L 367.488594 -233.541287 
L 372.08228 -230.750921 
L 376.1836 -227.960555 
L 379.506016 -225.170189 
L 381.842727 -222.379823 
L 383.095614 -219.589457 
L 383.284056 -216.79909 
L 382.530063 -214.008724 
L 381.023599 -211.218358 
L 378.979028 -208.427992 
L 376.597054 -205.637626 
L 374.044241 -202.84726 
L 371.454643 -200.056894 
L 368.948485 -197.266528 
L 366.655684 -194.476162 
L 364.730644 -191.685796 
L 363.349679 -188.89543 
L 362.690857 -186.105063 
L 362.903458 -183.314697 
L 364.07726 -180.524331 
L 366.219572 -177.733965 
L 369.242925 -174.943599 
L 372.962138 -172.153233 
L 377.098934 -169.362867 
L 381.294917 -166.572501 
L 385.136905 -163.782135 
L 388.198485 -160.991769 
L 390.096739 -158.201403 
L 390.555 -155.411036 
L 389.455621 -152.62067 
L 386.865731 -149.830304 
L 383.025565 -147.039938 
L 378.30107 -144.249572 
L 373.114716 -141.459206 
L 367.875187 -138.66884 
L 362.92504 -135.878474 
L 358.516509 -133.088108 
L 354.814017 -130.297742 
L 351.91272 -127.507376 
L 349.859164 -124.717009 
L 348.663168 -121.926643 
L 348.297078 -119.136277 
L 348.685852 -116.345911 
L 349.696133 -113.555545 
L 351.133038 -110.765179 
L 352.750408 -107.974813 
L 354.275296 -105.184447 
L 355.442495 -102.394081 
L 356.031564 -99.603715 
L 355.89788 -96.813349 
L 354.990791 -94.022982 
L 353.355319 -91.232616 
L 351.117939 -88.44225 
L 348.460555 -85.651884 
L 345.588989 -82.861518 
L 342.702601 -80.071152 
L 339.97032 -77.280786 
L 337.516032 -74.49042 
L 335.413722 -71.700054 
L 333.690809 -68.909688 
z
" id="m07640a60d7" style="stroke:#363636;"/>
    </defs>
    <g clip-path="url(#p4b6a5f2bd1)">
     <use style="fill:#c38820;stroke:#363636;" x="0" xlink:href="#m07640a60d7" y="432"/>
    </g>
   </g>
   <g id="PolyCollection_5">
    <defs>
     <path d="M 482.625 -68.825455 
L 479.097392 -68.825455 
L 477.877217 -71.617522 
L 476.432049 -74.40959 
L 474.786937 -77.201658 
L 472.989677 -79.993726 
L 471.111112 -82.785793 
L 469.242923 -85.577861 
L 467.492288 -88.369929 
L 465.972876 -91.161997 
L 464.79218 -93.954064 
L 464.036199 -96.746132 
L 463.753783 -99.5382 
L 463.944002 -102.330268 
L 464.550065 -105.122336 
L 465.462289 -107.914403 
L 466.530438 -110.706471 
L 467.583127 -113.498539 
L 468.449859 -116.290607 
L 468.980588 -119.082674 
L 469.058853 -121.874742 
L 468.60718 -124.66681 
L 467.586625 -127.458878 
L 465.994428 -130.250945 
L 463.863896 -133.043013 
L 461.268298 -135.835081 
L 458.326881 -138.627149 
L 455.207792 -141.419217 
L 452.121779 -144.211284 
L 449.302985 -147.003352 
L 446.978202 -149.79542 
L 445.331501 -152.587488 
L 444.474224 -155.379555 
L 444.429232 -158.171623 
L 445.133297 -160.963691 
L 446.454932 -163.755759 
L 448.220097 -166.547826 
L 450.237283 -169.339894 
L 452.316641 -172.131962 
L 454.282764 -174.92403 
L 455.984458 -177.716098 
L 457.305145 -180.508165 
L 458.174519 -183.300233 
L 458.578054 -186.092301 
L 458.558673 -188.884369 
L 458.206389 -191.676436 
L 457.63646 -194.468504 
L 456.962151 -197.260572 
L 456.271496 -200.05264 
L 455.616422 -202.844707 
L 455.017637 -205.636775 
L 454.482003 -208.428843 
L 454.024007 -211.220911 
L 453.681621 -214.012979 
L 453.519737 -216.805046 
L 453.619771 -219.597114 
L 454.059527 -222.389182 
L 454.890674 -225.18125 
L 456.12141 -227.973317 
L 457.709451 -230.765385 
L 459.566835 -233.557453 
L 461.574503 -236.349521 
L 463.602305 -239.141588 
L 465.529299 -241.933656 
L 467.259902 -244.725724 
L 468.733203 -247.517792 
L 469.924881 -250.30986 
L 470.843048 -253.101927 
L 471.520403 -255.893995 
L 472.00507 -258.686063 
L 472.351724 -261.478131 
L 472.61364 -264.270198 
L 472.835727 -267.062266 
L 473.048741 -269.854334 
L 473.265424 -272.646402 
L 473.479708 -275.438469 
L 473.669911 -278.230537 
L 473.805813 -281.022605 
L 473.85811 -283.814673 
L 473.807638 -286.606741 
L 473.651531 -289.398808 
L 473.404371 -292.190876 
L 473.094013 -294.982944 
L 472.753647 -297.775012 
L 472.41294 -300.567079 
L 472.09143 -303.359147 
L 471.796542 -306.151215 
L 471.526972 -308.943283 
L 471.28023 -311.73535 
L 471.061582 -314.527418 
L 470.890944 -317.319486 
L 470.804815 -320.111554 
L 470.851862 -322.903622 
L 471.0829 -325.695689 
L 471.537961 -328.487757 
L 472.234258 -331.279825 
L 473.15871 -334.071893 
L 474.267356 -336.86396 
L 475.491888 -339.656028 
L 476.751415 -342.448096 
L 477.966219 -345.240164 
L 482.625 -345.240164 
L 482.625 -345.240164 
L 482.625 -342.448096 
L 482.625 -339.656028 
L 482.625 -336.86396 
L 482.625 -334.071893 
L 482.625 -331.279825 
L 482.625 -328.487757 
L 482.625 -325.695689 
L 482.625 -322.903622 
L 482.625 -320.111554 
L 482.625 -317.319486 
L 482.625 -314.527418 
L 482.625 -311.73535 
L 482.625 -308.943283 
L 482.625 -306.151215 
L 482.625 -303.359147 
L 482.625 -300.567079 
L 482.625 -297.775012 
L 482.625 -294.982944 
L 482.625 -292.190876 
L 482.625 -289.398808 
L 482.625 -286.606741 
L 482.625 -283.814673 
L 482.625 -281.022605 
L 482.625 -278.230537 
L 482.625 -275.438469 
L 482.625 -272.646402 
L 482.625 -269.854334 
L 482.625 -267.062266 
L 482.625 -264.270198 
L 482.625 -261.478131 
L 482.625 -258.686063 
L 482.625 -255.893995 
L 482.625 -253.101927 
L 482.625 -250.30986 
L 482.625 -247.517792 
L 482.625 -244.725724 
L 482.625 -241.933656 
L 482.625 -239.141588 
L 482.625 -236.349521 
L 482.625 -233.557453 
L 482.625 -230.765385 
L 482.625 -227.973317 
L 482.625 -225.18125 
L 482.625 -222.389182 
L 482.625 -219.597114 
L 482.625 -216.805046 
L 482.625 -214.012979 
L 482.625 -211.220911 
L 482.625 -208.428843 
L 482.625 -205.636775 
L 482.625 -202.844707 
L 482.625 -200.05264 
L 482.625 -197.260572 
L 482.625 -194.468504 
L 482.625 -191.676436 
L 482.625 -188.884369 
L 482.625 -186.092301 
L 482.625 -183.300233 
L 482.625 -180.508165 
L 482.625 -177.716098 
L 482.625 -174.92403 
L 482.625 -172.131962 
L 482.625 -169.339894 
L 482.625 -166.547826 
L 482.625 -163.755759 
L 482.625 -160.963691 
L 482.625 -158.171623 
L 482.625 -155.379555 
L 482.625 -152.587488 
L 482.625 -149.79542 
L 482.625 -147.003352 
L 482.625 -144.211284 
L 482.625 -141.419217 
L 482.625 -138.627149 
L 482.625 -135.835081 
L 482.625 -133.043013 
L 482.625 -130.250945 
L 482.625 -127.458878 
L 482.625 -124.66681 
L 482.625 -121.874742 
L 482.625 -119.082674 
L 482.625 -116.290607 
L 482.625 -113.498539 
L 482.625 -110.706471 
L 482.625 -107.914403 
L 482.625 -105.122336 
L 482.625 -102.330268 
L 482.625 -99.5382 
L 482.625 -96.746132 
L 482.625 -93.954064 
L 482.625 -91.161997 
L 482.625 -88.369929 
L 482.625 -85.577861 
L 482.625 -82.785793 
L 482.625 -79.993726 
L 482.625 -77.201658 
L 482.625 -74.40959 
L 482.625 -71.617522 
L 482.625 -68.825455 
z
" id="m6d13b6c8fe" style="stroke:#363636;"/>
    </defs>
    <g clip-path="url(#p4b6a5f2bd1)">
     <use style="fill:#176d9c;stroke:#363636;" x="0" xlink:href="#m6d13b6c8fe" y="432"/>
    </g>
   </g>
   <g id="PolyCollection_6">
    <defs>
     <path d="M 489.563 -87.816921 
L 482.625 -87.816921 
L 482.625 -90.392816 
L 482.625 -92.968711 
L 482.625 -95.544605 
L 482.625 -98.1205 
L 482.625 -100.696395 
L 482.625 -103.27229 
L 482.625 -105.848185 
L 482.625 -108.42408 
L 482.625 -110.999974 
L 482.625 -113.575869 
L 482.625 -116.151764 
L 482.625 -118.727659 
L 482.625 -121.303554 
L 482.625 -123.879449 
L 482.625 -126.455343 
L 482.625 -129.031238 
L 482.625 -131.607133 
L 482.625 -134.183028 
L 482.625 -136.758923 
L 482.625 -139.334818 
L 482.625 -141.910712 
L 482.625 -144.486607 
L 482.625 -147.062502 
L 482.625 -149.638397 
L 482.625 -152.214292 
L 482.625 -154.790187 
L 482.625 -157.366082 
L 482.625 -159.941976 
L 482.625 -162.517871 
L 482.625 -165.093766 
L 482.625 -167.669661 
L 482.625 -170.245556 
L 482.625 -172.821451 
L 482.625 -175.397345 
L 482.625 -177.97324 
L 482.625 -180.549135 
L 482.625 -183.12503 
L 482.625 -185.700925 
L 482.625 -188.27682 
L 482.625 -190.852714 
L 482.625 -193.428609 
L 482.625 -196.004504 
L 482.625 -198.580399 
L 482.625 -201.156294 
L 482.625 -203.732189 
L 482.625 -206.308083 
L 482.625 -208.883978 
L 482.625 -211.459873 
L 482.625 -214.035768 
L 482.625 -216.611663 
L 482.625 -219.187558 
L 482.625 -221.763453 
L 482.625 -224.339347 
L 482.625 -226.915242 
L 482.625 -229.491137 
L 482.625 -232.067032 
L 482.625 -234.642927 
L 482.625 -237.218822 
L 482.625 -239.794716 
L 482.625 -242.370611 
L 482.625 -244.946506 
L 482.625 -247.522401 
L 482.625 -250.098296 
L 482.625 -252.674191 
L 482.625 -255.250085 
L 482.625 -257.82598 
L 482.625 -260.401875 
L 482.625 -262.97777 
L 482.625 -265.553665 
L 482.625 -268.12956 
L 482.625 -270.705454 
L 482.625 -273.281349 
L 482.625 -275.857244 
L 482.625 -278.433139 
L 482.625 -281.009034 
L 482.625 -283.584929 
L 482.625 -286.160824 
L 482.625 -288.736718 
L 482.625 -291.312613 
L 482.625 -293.888508 
L 482.625 -296.464403 
L 482.625 -299.040298 
L 482.625 -301.616193 
L 482.625 -304.192087 
L 482.625 -306.767982 
L 482.625 -309.343877 
L 482.625 -311.919772 
L 482.625 -314.495667 
L 482.625 -317.071562 
L 482.625 -319.647456 
L 482.625 -322.223351 
L 482.625 -324.799246 
L 482.625 -327.375141 
L 482.625 -329.951036 
L 482.625 -332.526931 
L 482.625 -335.102825 
L 482.625 -337.67872 
L 482.625 -340.254615 
L 482.625 -342.83051 
L 485.063487 -342.83051 
L 485.063487 -342.83051 
L 485.89049 -340.254615 
L 486.798552 -337.67872 
L 487.72014 -335.102825 
L 488.573044 -332.526931 
L 489.275527 -329.951036 
L 489.764739 -327.375141 
L 490.013089 -324.799246 
L 490.03658 -322.223351 
L 489.890796 -319.647456 
L 489.654201 -317.071562 
L 489.403471 -314.495667 
L 489.189582 -311.919772 
L 489.0241 -309.343877 
L 488.881855 -306.767982 
L 488.719838 -304.192087 
L 488.505536 -301.616193 
L 488.243849 -299.040298 
L 487.991865 -296.464403 
L 487.854866 -293.888508 
L 487.963097 -291.312613 
L 488.434801 -288.736718 
L 489.335392 -286.160824 
L 490.6446 -283.584929 
L 492.242706 -281.009034 
L 493.923152 -278.433139 
L 495.431815 -275.857244 
L 496.524389 -273.281349 
L 497.025729 -270.705454 
L 496.872609 -268.12956 
L 496.126223 -265.553665 
L 494.951674 -262.97777 
L 493.573743 -260.401875 
L 492.225661 -257.82598 
L 491.107259 -255.250085 
L 490.361912 -252.674191 
L 490.072612 -250.098296 
L 490.271133 -247.522401 
L 490.952763 -244.946506 
L 492.091105 -242.370611 
L 493.650102 -239.794716 
L 495.591514 -237.218822 
L 497.875834 -234.642927 
L 500.455248 -232.067032 
L 503.260344 -229.491137 
L 506.187068 -226.915242 
L 509.093566 -224.339347 
L 511.81427 -221.763453 
L 514.190175 -219.187558 
L 516.103696 -216.611663 
L 517.500708 -214.035768 
L 518.386718 -211.459873 
L 518.79808 -208.883978 
L 518.76511 -206.308083 
L 518.291641 -203.732189 
L 517.368487 -201.156294 
L 516.018854 -198.580399 
L 514.352623 -196.004504 
L 512.596489 -193.428609 
L 511.075258 -190.852714 
L 510.143126 -188.27682 
L 510.090279 -185.700925 
L 511.065242 -183.12503 
L 513.047989 -180.549135 
L 515.884449 -177.97324 
L 519.361474 -175.397345 
L 523.279331 -172.821451 
L 527.47938 -170.245556 
L 531.80965 -167.669661 
L 536.048726 -165.093766 
L 539.838131 -162.517871 
L 542.676949 -159.941976 
L 544.005 -157.366082 
L 543.355241 -154.790187 
L 540.516507 -152.214292 
L 535.636009 -149.638397 
L 529.214074 -147.062502 
L 521.989251 -144.486607 
L 514.757022 -141.910712 
L 508.188473 -139.334818 
L 502.708511 -136.758923 
L 498.463428 -134.183028 
L 495.371289 -131.607133 
L 493.221595 -129.031238 
L 491.781347 -126.455343 
L 490.872261 -123.879449 
L 490.401463 -121.303554 
L 490.346963 -118.727659 
L 490.713263 -116.151764 
L 491.478802 -113.575869 
L 492.555992 -110.999974 
L 493.778235 -108.42408 
L 494.91869 -105.848185 
L 495.735193 -103.27229 
L 496.026925 -100.696395 
L 495.684129 -98.1205 
L 494.714253 -95.544605 
L 493.236135 -92.968711 
L 491.445259 -90.392816 
L 489.563 -87.816921 
z
" id="m7091f3babc" style="stroke:#363636;"/>
    </defs>
    <g clip-path="url(#p4b6a5f2bd1)">
     <use style="fill:#c38820;stroke:#363636;" x="0" xlink:href="#m7091f3babc" y="432"/>
    </g>
   </g>
   <g id="PolyCollection_7">
    <defs>
     <path d="M 636.075 -68.971853 
L 631.66737 -68.971853 
L 629.848153 -71.760963 
L 627.559071 -74.550073 
L 624.791165 -77.339183 
L 621.577796 -80.128294 
L 618.002106 -82.917404 
L 614.199211 -85.706514 
L 610.351364 -88.495624 
L 606.674859 -91.284735 
L 603.398343 -94.073845 
L 600.733677 -96.862955 
L 598.842602 -99.652065 
L 597.804873 -102.441176 
L 597.595326 -105.230286 
L 598.07743 -108.019396 
L 599.018208 -110.808506 
L 600.124074 -113.597616 
L 601.090613 -116.386727 
L 601.654039 -119.175837 
L 601.63072 -121.964947 
L 600.934921 -124.754057 
L 599.572799 -127.543168 
L 597.619405 -130.332278 
L 595.191094 -133.121388 
L 592.425358 -135.910498 
L 589.473945 -138.699608 
L 586.506245 -141.488719 
L 583.713167 -144.277829 
L 581.300887 -147.066939 
L 579.469526 -149.856049 
L 578.380954 -152.64516 
L 578.12724 -155.43427 
L 578.712561 -158.22338 
L 580.055688 -161.01249 
L 582.010743 -163.801601 
L 584.396158 -166.590711 
L 587.019867 -169.379821 
L 589.693682 -172.168931 
L 592.238 -174.958041 
L 594.484326 -177.747152 
L 596.283746 -180.536262 
L 597.523969 -183.325372 
L 598.149746 -186.114482 
L 598.176236 -188.903593 
L 597.685931 -191.692703 
L 596.806861 -194.481813 
L 595.679189 -197.270923 
L 594.423713 -200.060034 
L 593.125544 -202.849144 
L 591.839189 -205.638254 
L 590.611027 -208.427364 
L 589.506787 -211.216474 
L 588.629287 -214.005585 
L 588.11615 -216.794695 
L 588.11623 -219.583805 
L 588.75265 -222.372915 
L 590.085844 -225.162026 
L 592.089892 -227.951136 
L 594.650424 -230.740246 
L 597.584825 -233.529356 
L 600.678407 -236.318467 
L 603.725768 -239.107577 
L 606.565938 -241.896687 
L 609.102738 -244.685797 
L 611.306995 -247.474907 
L 613.202917 -250.264018 
L 614.845274 -253.053128 
L 616.295609 -255.842238 
L 617.604257 -258.631348 
L 618.801456 -261.420459 
L 619.896882 -264.209569 
L 620.884389 -266.998679 
L 621.748282 -269.787789 
L 622.468868 -272.576899 
L 623.026921 -275.36601 
L 623.407918 -278.15512 
L 623.606659 -280.94423 
L 623.631723 -283.73334 
L 623.507961 -286.522451 
L 623.274953 -289.311561 
L 622.980394 -292.100671 
L 622.669381 -294.889781 
L 622.372616 -297.678892 
L 622.097716 -300.468002 
L 621.827451 -303.257112 
L 621.526837 -306.046222 
L 621.158129 -308.835332 
L 620.699797 -311.624443 
L 620.163657 -314.413553 
L 619.604188 -317.202663 
L 619.115956 -319.991773 
L 618.818512 -322.780884 
L 618.832017 -325.569994 
L 619.2499 -328.359104 
L 620.116025 -331.148214 
L 621.412607 -333.937325 
L 623.062001 -336.726435 
L 624.941466 -339.515545 
L 626.906489 -342.304655 
L 628.8163 -345.093765 
L 636.075 -345.093765 
L 636.075 -345.093765 
L 636.075 -342.304655 
L 636.075 -339.515545 
L 636.075 -336.726435 
L 636.075 -333.937325 
L 636.075 -331.148214 
L 636.075 -328.359104 
L 636.075 -325.569994 
L 636.075 -322.780884 
L 636.075 -319.991773 
L 636.075 -317.202663 
L 636.075 -314.413553 
L 636.075 -311.624443 
L 636.075 -308.835332 
L 636.075 -306.046222 
L 636.075 -303.257112 
L 636.075 -300.468002 
L 636.075 -297.678892 
L 636.075 -294.889781 
L 636.075 -292.100671 
L 636.075 -289.311561 
L 636.075 -286.522451 
L 636.075 -283.73334 
L 636.075 -280.94423 
L 636.075 -278.15512 
L 636.075 -275.36601 
L 636.075 -272.576899 
L 636.075 -269.787789 
L 636.075 -266.998679 
L 636.075 -264.209569 
L 636.075 -261.420459 
L 636.075 -258.631348 
L 636.075 -255.842238 
L 636.075 -253.053128 
L 636.075 -250.264018 
L 636.075 -247.474907 
L 636.075 -244.685797 
L 636.075 -241.896687 
L 636.075 -239.107577 
L 636.075 -236.318467 
L 636.075 -233.529356 
L 636.075 -230.740246 
L 636.075 -227.951136 
L 636.075 -225.162026 
L 636.075 -222.372915 
L 636.075 -219.583805 
L 636.075 -216.794695 
L 636.075 -214.005585 
L 636.075 -211.216474 
L 636.075 -208.427364 
L 636.075 -205.638254 
L 636.075 -202.849144 
L 636.075 -200.060034 
L 636.075 -197.270923 
L 636.075 -194.481813 
L 636.075 -191.692703 
L 636.075 -188.903593 
L 636.075 -186.114482 
L 636.075 -183.325372 
L 636.075 -180.536262 
L 636.075 -177.747152 
L 636.075 -174.958041 
L 636.075 -172.168931 
L 636.075 -169.379821 
L 636.075 -166.590711 
L 636.075 -163.801601 
L 636.075 -161.01249 
L 636.075 -158.22338 
L 636.075 -155.43427 
L 636.075 -152.64516 
L 636.075 -149.856049 
L 636.075 -147.066939 
L 636.075 -144.277829 
L 636.075 -141.488719 
L 636.075 -138.699608 
L 636.075 -135.910498 
L 636.075 -133.121388 
L 636.075 -130.332278 
L 636.075 -127.543168 
L 636.075 -124.754057 
L 636.075 -121.964947 
L 636.075 -119.175837 
L 636.075 -116.386727 
L 636.075 -113.597616 
L 636.075 -110.808506 
L 636.075 -108.019396 
L 636.075 -105.230286 
L 636.075 -102.441176 
L 636.075 -99.652065 
L 636.075 -96.862955 
L 636.075 -94.073845 
L 636.075 -91.284735 
L 636.075 -88.495624 
L 636.075 -85.706514 
L 636.075 -82.917404 
L 636.075 -80.128294 
L 636.075 -77.339183 
L 636.075 -74.550073 
L 636.075 -71.760963 
L 636.075 -68.971853 
z
" id="mca49ae1d76" style="stroke:#363636;"/>
    </defs>
    <g clip-path="url(#p4b6a5f2bd1)">
     <use style="fill:#176d9c;stroke:#363636;" x="0" xlink:href="#mca49ae1d76" y="432"/>
    </g>
   </g>
   <g id="PolyCollection_8">
    <defs>
     <path d="M 639.480388 -69.12493 
L 636.075 -69.12493 
L 636.075 -71.910948 
L 636.075 -74.696965 
L 636.075 -77.482983 
L 636.075 -80.269001 
L 636.075 -83.055019 
L 636.075 -85.841036 
L 636.075 -88.627054 
L 636.075 -91.413072 
L 636.075 -94.19909 
L 636.075 -96.985107 
L 636.075 -99.771125 
L 636.075 -102.557143 
L 636.075 -105.343161 
L 636.075 -108.129179 
L 636.075 -110.915196 
L 636.075 -113.701214 
L 636.075 -116.487232 
L 636.075 -119.27325 
L 636.075 -122.059267 
L 636.075 -124.845285 
L 636.075 -127.631303 
L 636.075 -130.417321 
L 636.075 -133.203338 
L 636.075 -135.989356 
L 636.075 -138.775374 
L 636.075 -141.561392 
L 636.075 -144.347409 
L 636.075 -147.133427 
L 636.075 -149.919445 
L 636.075 -152.705463 
L 636.075 -155.49148 
L 636.075 -158.277498 
L 636.075 -161.063516 
L 636.075 -163.849534 
L 636.075 -166.635552 
L 636.075 -169.421569 
L 636.075 -172.207587 
L 636.075 -174.993605 
L 636.075 -177.779623 
L 636.075 -180.56564 
L 636.075 -183.351658 
L 636.075 -186.137676 
L 636.075 -188.923694 
L 636.075 -191.709711 
L 636.075 -194.495729 
L 636.075 -197.281747 
L 636.075 -200.067765 
L 636.075 -202.853782 
L 636.075 -205.6398 
L 636.075 -208.425818 
L 636.075 -211.211836 
L 636.075 -213.997854 
L 636.075 -216.783871 
L 636.075 -219.569889 
L 636.075 -222.355907 
L 636.075 -225.141925 
L 636.075 -227.927942 
L 636.075 -230.71396 
L 636.075 -233.499978 
L 636.075 -236.285996 
L 636.075 -239.072013 
L 636.075 -241.858031 
L 636.075 -244.644049 
L 636.075 -247.430067 
L 636.075 -250.216084 
L 636.075 -253.002102 
L 636.075 -255.78812 
L 636.075 -258.574138 
L 636.075 -261.360155 
L 636.075 -264.146173 
L 636.075 -266.932191 
L 636.075 -269.718209 
L 636.075 -272.504227 
L 636.075 -275.290244 
L 636.075 -278.076262 
L 636.075 -280.86228 
L 636.075 -283.648298 
L 636.075 -286.434315 
L 636.075 -289.220333 
L 636.075 -292.006351 
L 636.075 -294.792369 
L 636.075 -297.578386 
L 636.075 -300.364404 
L 636.075 -303.150422 
L 636.075 -305.93644 
L 636.075 -308.722457 
L 636.075 -311.508475 
L 636.075 -314.294493 
L 636.075 -317.080511 
L 636.075 -319.866529 
L 636.075 -322.652546 
L 636.075 -325.438564 
L 636.075 -328.224582 
L 636.075 -331.0106 
L 636.075 -333.796617 
L 636.075 -336.582635 
L 636.075 -339.368653 
L 636.075 -342.154671 
L 636.075 -344.940688 
L 642.170653 -344.940688 
L 642.170653 -344.940688 
L 643.688707 -342.154671 
L 645.207422 -339.368653 
L 646.614285 -336.582635 
L 647.8085 -333.796617 
L 648.723922 -331.0106 
L 649.34614 -328.224582 
L 649.718006 -325.438564 
L 649.930781 -322.652546 
L 650.10221 -319.866529 
L 650.346767 -317.080511 
L 650.745898 -314.294493 
L 651.326375 -311.508475 
L 652.052837 -308.722457 
L 652.836792 -305.93644 
L 653.55984 -303.150422 
L 654.104928 -300.364404 
L 654.387152 -297.578386 
L 654.375661 -294.792369 
L 654.100765 -292.006351 
L 653.644689 -289.220333 
L 653.119372 -286.434315 
L 652.6386 -283.648298 
L 652.293211 -280.86228 
L 652.136437 -278.076262 
L 652.182333 -275.290244 
L 652.415324 -272.504227 
L 652.805297 -269.718209 
L 653.321932 -266.932191 
L 653.944077 -264.146173 
L 654.663535 -261.360155 
L 655.485522 -258.574138 
L 656.428645 -255.78812 
L 657.525386 -253.002102 
L 658.821331 -250.216084 
L 660.369605 -247.430067 
L 662.217874 -244.644049 
L 664.388586 -241.858031 
L 666.857411 -239.072013 
L 669.537818 -236.285996 
L 672.279698 -233.499978 
L 674.886433 -230.71396 
L 677.148861 -227.927942 
L 678.888312 -225.141925 
L 679.99656 -222.355907 
L 680.460149 -219.569889 
L 680.360625 -216.783871 
L 679.849929 -213.997854 
L 679.108919 -211.211836 
L 678.303333 -208.425818 
L 677.552563 -205.6398 
L 676.921381 -202.853782 
L 676.435099 -200.067765 
L 676.10868 -197.281747 
L 675.974613 -194.495729 
L 676.095841 -191.709711 
L 676.557857 -188.923694 
L 677.444351 -186.137676 
L 678.808246 -183.351658 
L 680.650753 -180.56564 
L 682.915258 -177.779623 
L 685.494171 -174.993605 
L 688.240649 -172.207587 
L 690.977072 -169.421569 
L 693.498186 -166.635552 
L 695.574651 -163.849534 
L 696.966774 -161.063516 
L 697.455 -158.277498 
L 696.88431 -155.49148 
L 695.209308 -152.705463 
L 692.521839 -149.919445 
L 689.047119 -147.133427 
L 685.10612 -144.347409 
L 681.055702 -141.561392 
L 677.226635 -138.775374 
L 673.879184 -135.989356 
L 671.186712 -133.203338 
L 669.24482 -130.417321 
L 668.093126 -127.631303 
L 667.73349 -124.845285 
L 668.133288 -122.059267 
L 669.212206 -119.27325 
L 670.821219 -116.487232 
L 672.728128 -113.701214 
L 674.623159 -110.915196 
L 676.150894 -108.129179 
L 676.964565 -105.343161 
L 676.789442 -102.557143 
L 675.477438 -99.771125 
L 673.03683 -96.985107 
L 669.628486 -94.19909 
L 665.530226 -91.413072 
L 661.080176 -88.627054 
L 656.615003 -85.841036 
L 652.418338 -83.055019 
L 648.689439 -80.269001 
L 645.534782 -77.482983 
L 642.97859 -74.696965 
L 640.984537 -71.910948 
L 639.480388 -69.12493 
z
" id="m5150528026" style="stroke:#363636;"/>
    </defs>
    <g clip-path="url(#p4b6a5f2bd1)">
     <use style="fill:#c38820;stroke:#363636;" x="0" xlink:href="#m5150528026" y="432"/>
    </g>
   </g>
   <g id="patch_3">
    <path clip-path="url(#p4b6a5f2bd1)" d="M 175.725 424.418919 
L 175.725 424.418919 
L 175.725 424.418919 
L 175.725 424.418919 
z
" style="fill:#176d9c;stroke:#363636;stroke-linejoin:miter;stroke-width:0.5;"/>
   </g>
   <g id="patch_4">
    <path clip-path="url(#p4b6a5f2bd1)" d="M 175.725 424.418919 
L 175.725 424.418919 
L 175.725 424.418919 
L 175.725 424.418919 
z
" style="fill:#c38820;stroke:#363636;stroke-linejoin:miter;stroke-width:0.5;"/>
   </g>
   <g id="line2d_6">
    <path clip-path="url(#p4b6a5f2bd1)" d="M 123.548206 281.158517 
L 175.725 281.158517 
" style="fill:none;stroke:#363636;stroke-dasharray:1.5,1.5;stroke-dashoffset:0;"/>
   </g>
   <g id="line2d_7">
    <path clip-path="url(#p4b6a5f2bd1)" d="M 128.423491 257.654611 
L 175.725 257.654611 
" style="fill:none;stroke:#363636;stroke-dasharray:3,3;stroke-dashoffset:0;"/>
   </g>
   <g id="line2d_8">
    <path clip-path="url(#p4b6a5f2bd1)" d="M 128.231077 205.931617 
L 175.725 205.931617 
" style="fill:none;stroke:#363636;stroke-dasharray:1.5,1.5;stroke-dashoffset:0;"/>
   </g>
   <g id="line2d_9">
    <path clip-path="url(#p4b6a5f2bd1)" d="M 175.725 279.636008 
L 234.209496 279.636008 
" style="fill:none;stroke:#363636;stroke-dasharray:1.5,1.5;stroke-dashoffset:0;"/>
   </g>
   <g id="line2d_10">
    <path clip-path="url(#p4b6a5f2bd1)" d="M 175.725 256.188927 
L 224.641801 256.188927 
" style="fill:none;stroke:#363636;stroke-dasharray:3,3;stroke-dashoffset:0;"/>
   </g>
   <g id="line2d_11">
    <path clip-path="url(#p4b6a5f2bd1)" d="M 175.725 207.495474 
L 222.706852 207.495474 
" style="fill:none;stroke:#363636;stroke-dasharray:1.5,1.5;stroke-dashoffset:0;"/>
   </g>
   <g id="line2d_12">
    <path clip-path="url(#p4b6a5f2bd1)" d="M 272.316899 275.736707 
L 329.175 275.736707 
" style="fill:none;stroke:#363636;stroke-dasharray:1.5,1.5;stroke-dashoffset:0;"/>
   </g>
   <g id="line2d_13">
    <path clip-path="url(#p4b6a5f2bd1)" d="M 291.605537 234.562598 
L 329.175 234.562598 
" style="fill:none;stroke:#363636;stroke-dasharray:3,3;stroke-dashoffset:0;"/>
   </g>
   <g id="line2d_14">
    <path clip-path="url(#p4b6a5f2bd1)" d="M 288.596185 198.674648 
L 329.175 198.674648 
" style="fill:none;stroke:#363636;stroke-dasharray:1.5,1.5;stroke-dashoffset:0;"/>
   </g>
   <g id="line2d_15">
    <path clip-path="url(#p4b6a5f2bd1)" d="M 329.175 279.254488 
L 388.852815 279.254488 
" style="fill:none;stroke:#363636;stroke-dasharray:1.5,1.5;stroke-dashoffset:0;"/>
   </g>
   <g id="line2d_16">
    <path clip-path="url(#p4b6a5f2bd1)" d="M 329.175 234.562598 
L 368.55075 234.562598 
" style="fill:none;stroke:#363636;stroke-dasharray:3,3;stroke-dashoffset:0;"/>
   </g>
   <g id="line2d_17">
    <path clip-path="url(#p4b6a5f2bd1)" d="M 329.175 198.674648 
L 367.105458 198.674648 
" style="fill:none;stroke:#363636;stroke-dasharray:1.5,1.5;stroke-dashoffset:0;"/>
   </g>
   <g id="line2d_18">
    <path clip-path="url(#p4b6a5f2bd1)" d="M 445.704436 279.636008 
L 482.625 279.636008 
" style="fill:none;stroke:#363636;stroke-dasharray:1.5,1.5;stroke-dashoffset:0;"/>
   </g>
   <g id="line2d_19">
    <path clip-path="url(#p4b6a5f2bd1)" d="M 457.21878 234.843498 
L 482.625 234.843498 
" style="fill:none;stroke:#363636;stroke-dasharray:3,3;stroke-dashoffset:0;"/>
   </g>
   <g id="line2d_20">
    <path clip-path="url(#p4b6a5f2bd1)" d="M 459.797417 198.674648 
L 482.625 198.674648 
" style="fill:none;stroke:#363636;stroke-dasharray:1.5,1.5;stroke-dashoffset:0;"/>
   </g>
   <g id="line2d_21">
    <path clip-path="url(#p4b6a5f2bd1)" d="M 482.625 275.736707 
L 543.3912 275.736707 
" style="fill:none;stroke:#363636;stroke-dasharray:1.5,1.5;stroke-dashoffset:0;"/>
   </g>
   <g id="line2d_22">
    <path clip-path="url(#p4b6a5f2bd1)" d="M 482.625 258.227904 
L 522.872787 258.227904 
" style="fill:none;stroke:#363636;stroke-dasharray:3,3;stroke-dashoffset:0;"/>
   </g>
   <g id="line2d_23">
    <path clip-path="url(#p4b6a5f2bd1)" d="M 482.625 214.39727 
L 515.768909 214.39727 
" style="fill:none;stroke:#363636;stroke-dasharray:1.5,1.5;stroke-dashoffset:0;"/>
   </g>
   <g id="line2d_24">
    <path clip-path="url(#p4b6a5f2bd1)" d="M 592.861854 296.578996 
L 636.075 296.578996 
" style="fill:none;stroke:#363636;stroke-dasharray:1.5,1.5;stroke-dashoffset:0;"/>
   </g>
   <g id="line2d_25">
    <path clip-path="url(#p4b6a5f2bd1)" d="M 592.67637 258.227904 
L 636.075 258.227904 
" style="fill:none;stroke:#363636;stroke-dasharray:3,3;stroke-dashoffset:0;"/>
   </g>
   <g id="line2d_26">
    <path clip-path="url(#p4b6a5f2bd1)" d="M 590.545736 205.931617 
L 636.075 205.931617 
" style="fill:none;stroke:#363636;stroke-dasharray:1.5,1.5;stroke-dashoffset:0;"/>
   </g>
   <g id="line2d_27">
    <path clip-path="url(#p4b6a5f2bd1)" d="M 636.075 281.534374 
L 691.957371 281.534374 
" style="fill:none;stroke:#363636;stroke-dasharray:1.5,1.5;stroke-dashoffset:0;"/>
   </g>
   <g id="line2d_28">
    <path clip-path="url(#p4b6a5f2bd1)" d="M 636.075 257.208415 
L 684.999979 257.208415 
" style="fill:none;stroke:#363636;stroke-dasharray:3,3;stroke-dashoffset:0;"/>
   </g>
   <g id="line2d_29">
    <path clip-path="url(#p4b6a5f2bd1)" d="M 636.075 205.931617 
L 678.460178 205.931617 
" style="fill:none;stroke:#363636;stroke-dasharray:1.5,1.5;stroke-dashoffset:0;"/>
   </g>
   <g id="legend_1">
    <g id="patch_5">
     <path d="M 641.160781 108.503594 
L 705.1 108.503594 
Q 707.3 108.503594 707.3 106.303594 
L 707.3 59.54 
Q 707.3 57.34 705.1 57.34 
L 641.160781 57.34 
Q 638.960781 57.34 638.960781 59.54 
L 638.960781 106.303594 
Q 638.960781 108.503594 641.160781 108.503594 
z
" style="fill:#ffffff;opacity:0.8;stroke:#cccccc;stroke-linejoin:miter;"/>
    </g>
    <g id="text_12">
     <!-- inst_single -->
     <g style="fill:#262626;" transform="translate(644.781328 70.329375)scale(0.12 -0.12)">
      <defs>
       <path d="M 6.640625 61.46875 
L 6.640625 71.578125 
L 15.4375 71.578125 
L 15.4375 61.46875 
z
M 6.640625 0 
L 6.640625 51.859375 
L 15.4375 51.859375 
L 15.4375 0 
z
" id="ArialMT-105"/>
       <path d="M 6.59375 0 
L 6.59375 51.859375 
L 14.5 51.859375 
L 14.5 44.484375 
Q 20.21875 53.03125 31 53.03125 
Q 35.6875 53.03125 39.625 51.34375 
Q 43.5625 49.65625 45.515625 46.921875 
Q 47.46875 44.1875 48.25 40.4375 
Q 48.734375 37.984375 48.734375 31.890625 
L 48.734375 0 
L 39.9375 0 
L 39.9375 31.546875 
Q 39.9375 36.921875 38.90625 39.578125 
Q 37.890625 42.234375 35.28125 43.8125 
Q 32.671875 45.40625 29.15625 45.40625 
Q 23.53125 45.40625 19.453125 41.84375 
Q 15.375 38.28125 15.375 28.328125 
L 15.375 0 
z
" id="ArialMT-110"/>
       <path d="M 3.078125 15.484375 
L 11.765625 16.84375 
Q 12.5 11.625 15.84375 8.84375 
Q 19.1875 6.0625 25.203125 6.0625 
Q 31.25 6.0625 34.171875 8.515625 
Q 37.109375 10.984375 37.109375 14.3125 
Q 37.109375 17.28125 34.515625 19 
Q 32.71875 20.171875 25.53125 21.96875 
Q 15.875 24.421875 12.140625 26.203125 
Q 8.40625 27.984375 6.46875 31.125 
Q 4.546875 34.28125 4.546875 38.09375 
Q 4.546875 41.546875 6.125 44.5 
Q 7.71875 47.46875 10.453125 49.421875 
Q 12.5 50.921875 16.03125 51.96875 
Q 19.578125 53.03125 23.640625 53.03125 
Q 29.734375 53.03125 34.34375 51.265625 
Q 38.96875 49.515625 41.15625 46.5 
Q 43.359375 43.5 44.1875 38.484375 
L 35.59375 37.3125 
Q 35.015625 41.3125 32.203125 43.546875 
Q 29.390625 45.796875 24.265625 45.796875 
Q 18.21875 45.796875 15.625 43.796875 
Q 13.03125 41.796875 13.03125 39.109375 
Q 13.03125 37.40625 14.109375 36.03125 
Q 15.1875 34.625 17.484375 33.6875 
Q 18.796875 33.203125 25.25 31.453125 
Q 34.578125 28.953125 38.25 27.359375 
Q 41.9375 25.78125 44.03125 22.75 
Q 46.140625 19.734375 46.140625 15.234375 
Q 46.140625 10.84375 43.578125 6.953125 
Q 41.015625 3.078125 36.171875 0.953125 
Q 31.34375 -1.171875 25.25 -1.171875 
Q 15.140625 -1.171875 9.84375 3.03125 
Q 4.546875 7.234375 3.078125 15.484375 
z
" id="ArialMT-115"/>
       <path d="M 4.984375 -4.296875 
L 13.53125 -5.5625 
Q 14.0625 -9.515625 16.5 -11.328125 
Q 19.78125 -13.765625 25.4375 -13.765625 
Q 31.546875 -13.765625 34.859375 -11.328125 
Q 38.1875 -8.890625 39.359375 -4.5 
Q 40.046875 -1.8125 39.984375 6.78125 
Q 34.234375 0 25.640625 0 
Q 14.9375 0 9.078125 7.71875 
Q 3.21875 15.4375 3.21875 26.21875 
Q 3.21875 33.640625 5.90625 39.90625 
Q 8.59375 46.1875 13.6875 49.609375 
Q 18.796875 53.03125 25.6875 53.03125 
Q 34.859375 53.03125 40.828125 45.609375 
L 40.828125 51.859375 
L 48.921875 51.859375 
L 48.921875 7.03125 
Q 48.921875 -5.078125 46.453125 -10.125 
Q 44 -15.1875 38.640625 -18.109375 
Q 33.296875 -21.046875 25.484375 -21.046875 
Q 16.21875 -21.046875 10.5 -16.875 
Q 4.78125 -12.703125 4.984375 -4.296875 
z
M 12.25 26.859375 
Q 12.25 16.65625 16.296875 11.96875 
Q 20.359375 7.28125 26.46875 7.28125 
Q 32.515625 7.28125 36.609375 11.9375 
Q 40.71875 16.609375 40.71875 26.5625 
Q 40.71875 36.078125 36.5 40.90625 
Q 32.28125 45.75 26.3125 45.75 
Q 20.453125 45.75 16.34375 40.984375 
Q 12.25 36.234375 12.25 26.859375 
z
" id="ArialMT-103"/>
       <path d="M 6.390625 0 
L 6.390625 71.578125 
L 15.1875 71.578125 
L 15.1875 0 
z
" id="ArialMT-108"/>
      </defs>
      <use xlink:href="#ArialMT-105"/>
      <use x="22.216797" xlink:href="#ArialMT-110"/>
      <use x="77.832031" xlink:href="#ArialMT-115"/>
      <use x="127.832031" xlink:href="#ArialMT-116"/>
      <use x="155.615234" xlink:href="#ArialMT-95"/>
      <use x="211.230469" xlink:href="#ArialMT-115"/>
      <use x="261.230469" xlink:href="#ArialMT-105"/>
      <use x="283.447266" xlink:href="#ArialMT-110"/>
      <use x="339.0625" xlink:href="#ArialMT-103"/>
      <use x="394.677734" xlink:href="#ArialMT-108"/>
      <use x="416.894531" xlink:href="#ArialMT-101"/>
     </g>
    </g>
    <g id="patch_6">
     <path d="M 643.360781 86.228594 
L 665.360781 86.228594 
L 665.360781 78.528594 
L 643.360781 78.528594 
z
" style="fill:#176d9c;stroke:#363636;stroke-linejoin:miter;stroke-width:0.5;"/>
    </g>
    <g id="text_13">
     <!-- inst -->
     <g style="fill:#262626;" transform="translate(674.160781 86.228594)scale(0.11 -0.11)">
      <use xlink:href="#ArialMT-105"/>
      <use x="22.216797" xlink:href="#ArialMT-110"/>
      <use x="77.832031" xlink:href="#ArialMT-115"/>
      <use x="127.832031" xlink:href="#ArialMT-116"/>
     </g>
    </g>
    <g id="patch_7">
     <path d="M 643.360781 101.788437 
L 665.360781 101.788437 
L 665.360781 94.088437 
L 643.360781 94.088437 
z
" style="fill:#c38820;stroke:#363636;stroke-linejoin:miter;stroke-width:0.5;"/>
    </g>
    <g id="text_14">
     <!-- single -->
     <g style="fill:#262626;" transform="translate(674.160781 101.788437)scale(0.11 -0.11)">
      <use xlink:href="#ArialMT-115"/>
      <use x="50" xlink:href="#ArialMT-105"/>
      <use x="72.216797" xlink:href="#ArialMT-110"/>
      <use x="127.832031" xlink:href="#ArialMT-103"/>
      <use x="183.447266" xlink:href="#ArialMT-108"/>
      <use x="205.664062" xlink:href="#ArialMT-101"/>
     </g>
    </g>
   </g>
  </g>
 </g>
 <defs>
  <clipPath id="p4b6a5f2bd1">
   <rect height="326.16" width="613.8" x="99" y="51.84"/>
  </clipPath>
 </defs>
</svg>
