<?xml version="1.0" encoding="utf-8" standalone="no"?>
<!DOCTYPE svg PUBLIC "-//W3C//DTD SVG 1.1//EN"
  "http://www.w3.org/Graphics/SVG/1.1/DTD/svg11.dtd">
<!-- Created with matplotlib (https://matplotlib.org/) -->
<svg height="432pt" version="1.1" viewBox="0 0 792 432" width="792pt" xmlns="http://www.w3.org/2000/svg" xmlns:xlink="http://www.w3.org/1999/xlink">
 <metadata>
  <rdf:RDF xmlns:cc="http://creativecommons.org/ns#" xmlns:dc="http://purl.org/dc/elements/1.1/" xmlns:rdf="http://www.w3.org/1999/02/22-rdf-syntax-ns#">
   <cc:Work>
    <dc:type rdf:resource="http://purl.org/dc/dcmitype/StillImage"/>
    <dc:date>2021-08-19T08:05:19.663734</dc:date>
    <dc:format>image/svg+xml</dc:format>
    <dc:creator>
     <cc:Agent>
      <dc:title>Matplotlib v3.3.1, https://matplotlib.org/</dc:title>
     </cc:Agent>
    </dc:creator>
   </cc:Work>
  </rdf:RDF>
 </metadata>
 <defs>
  <style type="text/css">*{stroke-linecap:butt;stroke-linejoin:round;}</style>
 </defs>
 <g id="figure_1">
  <g id="patch_1">
   <path d="M 0 432 
L 792 432 
L 792 0 
L 0 0 
z
" style="fill:#ffffff;"/>
  </g>
  <g id="axes_1">
   <g id="patch_2">
    <path d="M 99 378 
L 712.8 378 
L 712.8 51.84 
L 99 51.84 
z
" style="fill:#ffffff;"/>
   </g>
   <g id="matplotlib.axis_1">
    <g id="xtick_1">
     <g id="text_1">
      <!-- 2000-2006 -->
      <g style="fill:#262626;" transform="translate(149.425547 395.373594)scale(0.11 -0.11)">
       <defs>
        <path d="M 50.34375 8.453125 
L 50.34375 0 
L 3.03125 0 
Q 2.9375 3.171875 4.046875 6.109375 
Q 5.859375 10.9375 9.828125 15.625 
Q 13.8125 20.3125 21.34375 26.46875 
Q 33.015625 36.03125 37.109375 41.625 
Q 41.21875 47.21875 41.21875 52.203125 
Q 41.21875 57.421875 37.46875 61 
Q 33.734375 64.59375 27.734375 64.59375 
Q 21.390625 64.59375 17.578125 60.78125 
Q 13.765625 56.984375 13.71875 50.25 
L 4.6875 51.171875 
Q 5.609375 61.28125 11.65625 66.578125 
Q 17.71875 71.875 27.9375 71.875 
Q 38.234375 71.875 44.234375 66.15625 
Q 50.25 60.453125 50.25 52 
Q 50.25 47.703125 48.484375 43.546875 
Q 46.734375 39.40625 42.65625 34.8125 
Q 38.578125 30.21875 29.109375 22.21875 
Q 21.1875 15.578125 18.9375 13.203125 
Q 16.703125 10.84375 15.234375 8.453125 
z
" id="ArialMT-50"/>
        <path d="M 4.15625 35.296875 
Q 4.15625 48 6.765625 55.734375 
Q 9.375 63.484375 14.515625 67.671875 
Q 19.671875 71.875 27.484375 71.875 
Q 33.25 71.875 37.59375 69.546875 
Q 41.9375 67.234375 44.765625 62.859375 
Q 47.609375 58.5 49.21875 52.21875 
Q 50.828125 45.953125 50.828125 35.296875 
Q 50.828125 22.703125 48.234375 14.96875 
Q 45.65625 7.234375 40.5 3 
Q 35.359375 -1.21875 27.484375 -1.21875 
Q 17.140625 -1.21875 11.234375 6.203125 
Q 4.15625 15.140625 4.15625 35.296875 
z
M 13.1875 35.296875 
Q 13.1875 17.671875 17.3125 11.828125 
Q 21.4375 6 27.484375 6 
Q 33.546875 6 37.671875 11.859375 
Q 41.796875 17.71875 41.796875 35.296875 
Q 41.796875 52.984375 37.671875 58.78125 
Q 33.546875 64.59375 27.390625 64.59375 
Q 21.34375 64.59375 17.71875 59.46875 
Q 13.1875 52.9375 13.1875 35.296875 
z
" id="ArialMT-48"/>
        <path d="M 3.171875 21.484375 
L 3.171875 30.328125 
L 30.171875 30.328125 
L 30.171875 21.484375 
z
" id="ArialMT-45"/>
        <path d="M 49.75 54.046875 
L 41.015625 53.375 
Q 39.84375 58.546875 37.703125 60.890625 
Q 34.125 64.65625 28.90625 64.65625 
Q 24.703125 64.65625 21.53125 62.3125 
Q 17.390625 59.28125 14.984375 53.46875 
Q 12.59375 47.65625 12.5 36.921875 
Q 15.671875 41.75 20.265625 44.09375 
Q 24.859375 46.4375 29.890625 46.4375 
Q 38.671875 46.4375 44.84375 39.96875 
Q 51.03125 33.5 51.03125 23.25 
Q 51.03125 16.5 48.125 10.71875 
Q 45.21875 4.9375 40.140625 1.859375 
Q 35.0625 -1.21875 28.609375 -1.21875 
Q 17.625 -1.21875 10.6875 6.859375 
Q 3.765625 14.9375 3.765625 33.5 
Q 3.765625 54.25 11.421875 63.671875 
Q 18.109375 71.875 29.4375 71.875 
Q 37.890625 71.875 43.28125 67.140625 
Q 48.6875 62.40625 49.75 54.046875 
z
M 13.875 23.1875 
Q 13.875 18.65625 15.796875 14.5 
Q 17.71875 10.359375 21.1875 8.171875 
Q 24.65625 6 28.46875 6 
Q 34.03125 6 38.03125 10.484375 
Q 42.046875 14.984375 42.046875 22.703125 
Q 42.046875 30.125 38.078125 34.390625 
Q 34.125 38.671875 28.125 38.671875 
Q 22.171875 38.671875 18.015625 34.390625 
Q 13.875 30.125 13.875 23.1875 
z
" id="ArialMT-54"/>
       </defs>
       <use xlink:href="#ArialMT-50"/>
       <use x="55.615234" xlink:href="#ArialMT-48"/>
       <use x="111.230469" xlink:href="#ArialMT-48"/>
       <use x="166.845703" xlink:href="#ArialMT-48"/>
       <use x="222.460938" xlink:href="#ArialMT-45"/>
       <use x="255.761719" xlink:href="#ArialMT-50"/>
       <use x="311.376953" xlink:href="#ArialMT-48"/>
       <use x="366.992188" xlink:href="#ArialMT-48"/>
       <use x="422.607422" xlink:href="#ArialMT-54"/>
      </g>
     </g>
    </g>
    <g id="xtick_2">
     <g id="text_2">
      <!-- 2007-2009 -->
      <g style="fill:#262626;" transform="translate(302.875547 395.373594)scale(0.11 -0.11)">
       <defs>
        <path d="M 4.734375 62.203125 
L 4.734375 70.65625 
L 51.078125 70.65625 
L 51.078125 63.8125 
Q 44.234375 56.546875 37.515625 44.484375 
Q 30.8125 32.421875 27.15625 19.671875 
Q 24.515625 10.6875 23.78125 0 
L 14.75 0 
Q 14.890625 8.453125 18.0625 20.40625 
Q 21.234375 32.375 27.171875 43.484375 
Q 33.109375 54.59375 39.796875 62.203125 
z
" id="ArialMT-55"/>
        <path d="M 5.46875 16.546875 
L 13.921875 17.328125 
Q 14.984375 11.375 18.015625 8.6875 
Q 21.046875 6 25.78125 6 
Q 29.828125 6 32.875 7.859375 
Q 35.9375 9.71875 37.890625 12.8125 
Q 39.84375 15.921875 41.15625 21.1875 
Q 42.484375 26.46875 42.484375 31.9375 
Q 42.484375 32.515625 42.4375 33.6875 
Q 39.796875 29.5 35.234375 26.875 
Q 30.671875 24.265625 25.34375 24.265625 
Q 16.453125 24.265625 10.296875 30.703125 
Q 4.15625 37.15625 4.15625 47.703125 
Q 4.15625 58.59375 10.578125 65.234375 
Q 17 71.875 26.65625 71.875 
Q 33.640625 71.875 39.421875 68.109375 
Q 45.21875 64.359375 48.21875 57.390625 
Q 51.21875 50.4375 51.21875 37.25 
Q 51.21875 23.53125 48.234375 15.40625 
Q 45.265625 7.28125 39.375 3.03125 
Q 33.5 -1.21875 25.59375 -1.21875 
Q 17.1875 -1.21875 11.859375 3.4375 
Q 6.546875 8.109375 5.46875 16.546875 
z
M 41.453125 48.140625 
Q 41.453125 55.71875 37.421875 60.15625 
Q 33.40625 64.59375 27.734375 64.59375 
Q 21.875 64.59375 17.53125 59.8125 
Q 13.1875 55.03125 13.1875 47.40625 
Q 13.1875 40.578125 17.3125 36.296875 
Q 21.4375 32.03125 27.484375 32.03125 
Q 33.59375 32.03125 37.515625 36.296875 
Q 41.453125 40.578125 41.453125 48.140625 
z
" id="ArialMT-57"/>
       </defs>
       <use xlink:href="#ArialMT-50"/>
       <use x="55.615234" xlink:href="#ArialMT-48"/>
       <use x="111.230469" xlink:href="#ArialMT-48"/>
       <use x="166.845703" xlink:href="#ArialMT-55"/>
       <use x="222.460938" xlink:href="#ArialMT-45"/>
       <use x="255.761719" xlink:href="#ArialMT-50"/>
       <use x="311.376953" xlink:href="#ArialMT-48"/>
       <use x="366.992188" xlink:href="#ArialMT-48"/>
       <use x="422.607422" xlink:href="#ArialMT-57"/>
      </g>
     </g>
    </g>
    <g id="xtick_3">
     <g id="text_3">
      <!-- 2010-2013 -->
      <g style="fill:#262626;" transform="translate(456.325547 395.373594)scale(0.11 -0.11)">
       <defs>
        <path d="M 37.25 0 
L 28.46875 0 
L 28.46875 56 
Q 25.296875 52.984375 20.140625 49.953125 
Q 14.984375 46.921875 10.890625 45.40625 
L 10.890625 53.90625 
Q 18.265625 57.375 23.78125 62.296875 
Q 29.296875 67.234375 31.59375 71.875 
L 37.25 71.875 
z
" id="ArialMT-49"/>
        <path d="M 4.203125 18.890625 
L 12.984375 20.0625 
Q 14.5 12.59375 18.140625 9.296875 
Q 21.78125 6 27 6 
Q 33.203125 6 37.46875 10.296875 
Q 41.75 14.59375 41.75 20.953125 
Q 41.75 27 37.796875 30.921875 
Q 33.84375 34.859375 27.734375 34.859375 
Q 25.25 34.859375 21.53125 33.890625 
L 22.515625 41.609375 
Q 23.390625 41.5 23.921875 41.5 
Q 29.546875 41.5 34.03125 44.421875 
Q 38.53125 47.359375 38.53125 53.46875 
Q 38.53125 58.296875 35.25 61.46875 
Q 31.984375 64.65625 26.8125 64.65625 
Q 21.6875 64.65625 18.265625 61.421875 
Q 14.84375 58.203125 13.875 51.765625 
L 5.078125 53.328125 
Q 6.6875 62.15625 12.390625 67.015625 
Q 18.109375 71.875 26.609375 71.875 
Q 32.46875 71.875 37.390625 69.359375 
Q 42.328125 66.84375 44.9375 62.5 
Q 47.5625 58.15625 47.5625 53.265625 
Q 47.5625 48.640625 45.0625 44.828125 
Q 42.578125 41.015625 37.703125 38.765625 
Q 44.046875 37.3125 47.5625 32.6875 
Q 51.078125 28.078125 51.078125 21.140625 
Q 51.078125 11.765625 44.234375 5.25 
Q 37.40625 -1.265625 26.953125 -1.265625 
Q 17.53125 -1.265625 11.296875 4.34375 
Q 5.078125 9.96875 4.203125 18.890625 
z
" id="ArialMT-51"/>
       </defs>
       <use xlink:href="#ArialMT-50"/>
       <use x="55.615234" xlink:href="#ArialMT-48"/>
       <use x="111.230469" xlink:href="#ArialMT-49"/>
       <use x="166.845703" xlink:href="#ArialMT-48"/>
       <use x="222.460938" xlink:href="#ArialMT-45"/>
       <use x="255.761719" xlink:href="#ArialMT-50"/>
       <use x="311.376953" xlink:href="#ArialMT-48"/>
       <use x="366.992188" xlink:href="#ArialMT-49"/>
       <use x="422.607422" xlink:href="#ArialMT-51"/>
      </g>
     </g>
    </g>
    <g id="xtick_4">
     <g id="text_4">
      <!-- 2014-2018 -->
      <g style="fill:#262626;" transform="translate(609.775547 395.373594)scale(0.11 -0.11)">
       <defs>
        <path d="M 32.328125 0 
L 32.328125 17.140625 
L 1.265625 17.140625 
L 1.265625 25.203125 
L 33.9375 71.578125 
L 41.109375 71.578125 
L 41.109375 25.203125 
L 50.78125 25.203125 
L 50.78125 17.140625 
L 41.109375 17.140625 
L 41.109375 0 
z
M 32.328125 25.203125 
L 32.328125 57.46875 
L 9.90625 25.203125 
z
" id="ArialMT-52"/>
        <path d="M 17.671875 38.8125 
Q 12.203125 40.828125 9.5625 44.53125 
Q 6.9375 48.25 6.9375 53.421875 
Q 6.9375 61.234375 12.546875 66.546875 
Q 18.171875 71.875 27.484375 71.875 
Q 36.859375 71.875 42.578125 66.421875 
Q 48.296875 60.984375 48.296875 53.171875 
Q 48.296875 48.1875 45.671875 44.5 
Q 43.0625 40.828125 37.75 38.8125 
Q 44.34375 36.671875 47.78125 31.875 
Q 51.21875 27.09375 51.21875 20.453125 
Q 51.21875 11.28125 44.71875 5.03125 
Q 38.234375 -1.21875 27.640625 -1.21875 
Q 17.046875 -1.21875 10.546875 5.046875 
Q 4.046875 11.328125 4.046875 20.703125 
Q 4.046875 27.6875 7.59375 32.390625 
Q 11.140625 37.109375 17.671875 38.8125 
z
M 15.921875 53.71875 
Q 15.921875 48.640625 19.1875 45.40625 
Q 22.46875 42.1875 27.6875 42.1875 
Q 32.765625 42.1875 36.015625 45.375 
Q 39.265625 48.578125 39.265625 53.21875 
Q 39.265625 58.0625 35.90625 61.359375 
Q 32.5625 64.65625 27.59375 64.65625 
Q 22.5625 64.65625 19.234375 61.421875 
Q 15.921875 58.203125 15.921875 53.71875 
z
M 13.09375 20.65625 
Q 13.09375 16.890625 14.875 13.375 
Q 16.65625 9.859375 20.171875 7.921875 
Q 23.6875 6 27.734375 6 
Q 34.03125 6 38.125 10.046875 
Q 42.234375 14.109375 42.234375 20.359375 
Q 42.234375 26.703125 38.015625 30.859375 
Q 33.796875 35.015625 27.4375 35.015625 
Q 21.234375 35.015625 17.15625 30.90625 
Q 13.09375 26.8125 13.09375 20.65625 
z
" id="ArialMT-56"/>
       </defs>
       <use xlink:href="#ArialMT-50"/>
       <use x="55.615234" xlink:href="#ArialMT-48"/>
       <use x="111.230469" xlink:href="#ArialMT-49"/>
       <use x="166.845703" xlink:href="#ArialMT-52"/>
       <use x="222.460938" xlink:href="#ArialMT-45"/>
       <use x="255.761719" xlink:href="#ArialMT-50"/>
       <use x="311.376953" xlink:href="#ArialMT-48"/>
       <use x="366.992188" xlink:href="#ArialMT-49"/>
       <use x="422.607422" xlink:href="#ArialMT-56"/>
      </g>
     </g>
    </g>
    <g id="text_5">
     <!-- year -->
     <g style="fill:#262626;" transform="translate(394.229063 410.008594)scale(0.12 -0.12)">
      <defs>
       <path d="M 6.203125 -19.96875 
L 5.21875 -11.71875 
Q 8.109375 -12.5 10.25 -12.5 
Q 13.1875 -12.5 14.9375 -11.515625 
Q 16.703125 -10.546875 17.828125 -8.796875 
Q 18.65625 -7.46875 20.515625 -2.25 
Q 20.75 -1.515625 21.296875 -0.09375 
L 1.609375 51.859375 
L 11.078125 51.859375 
L 21.875 21.828125 
Q 23.96875 16.109375 25.640625 9.8125 
Q 27.15625 15.875 29.25 21.625 
L 40.328125 51.859375 
L 49.125 51.859375 
L 29.390625 -0.875 
Q 26.21875 -9.421875 24.46875 -12.640625 
Q 22.125 -17 19.09375 -19.015625 
Q 16.0625 -21.046875 11.859375 -21.046875 
Q 9.328125 -21.046875 6.203125 -19.96875 
z
" id="ArialMT-121"/>
       <path d="M 42.09375 16.703125 
L 51.171875 15.578125 
Q 49.03125 7.625 43.21875 3.21875 
Q 37.40625 -1.171875 28.375 -1.171875 
Q 17 -1.171875 10.328125 5.828125 
Q 3.65625 12.84375 3.65625 25.484375 
Q 3.65625 38.578125 10.390625 45.796875 
Q 17.140625 53.03125 27.875 53.03125 
Q 38.28125 53.03125 44.875 45.953125 
Q 51.46875 38.875 51.46875 26.03125 
Q 51.46875 25.25 51.421875 23.6875 
L 12.75 23.6875 
Q 13.234375 15.140625 17.578125 10.59375 
Q 21.921875 6.0625 28.421875 6.0625 
Q 33.25 6.0625 36.671875 8.59375 
Q 40.09375 11.140625 42.09375 16.703125 
z
M 13.234375 30.90625 
L 42.1875 30.90625 
Q 41.609375 37.453125 38.875 40.71875 
Q 34.671875 45.796875 27.984375 45.796875 
Q 21.921875 45.796875 17.796875 41.75 
Q 13.671875 37.703125 13.234375 30.90625 
z
" id="ArialMT-101"/>
       <path d="M 40.4375 6.390625 
Q 35.546875 2.25 31.03125 0.53125 
Q 26.515625 -1.171875 21.34375 -1.171875 
Q 12.796875 -1.171875 8.203125 3 
Q 3.609375 7.171875 3.609375 13.671875 
Q 3.609375 17.484375 5.34375 20.625 
Q 7.078125 23.78125 9.890625 25.6875 
Q 12.703125 27.59375 16.21875 28.5625 
Q 18.796875 29.25 24.03125 29.890625 
Q 34.671875 31.15625 39.703125 32.90625 
Q 39.75 34.71875 39.75 35.203125 
Q 39.75 40.578125 37.25 42.78125 
Q 33.890625 45.75 27.25 45.75 
Q 21.046875 45.75 18.09375 43.578125 
Q 15.140625 41.40625 13.71875 35.890625 
L 5.125 37.0625 
Q 6.296875 42.578125 8.984375 45.96875 
Q 11.671875 49.359375 16.75 51.1875 
Q 21.828125 53.03125 28.515625 53.03125 
Q 35.15625 53.03125 39.296875 51.46875 
Q 43.453125 49.90625 45.40625 47.53125 
Q 47.359375 45.171875 48.140625 41.546875 
Q 48.578125 39.3125 48.578125 33.453125 
L 48.578125 21.734375 
Q 48.578125 9.46875 49.140625 6.21875 
Q 49.703125 2.984375 51.375 0 
L 42.1875 0 
Q 40.828125 2.734375 40.4375 6.390625 
z
M 39.703125 26.03125 
Q 34.90625 24.078125 25.34375 22.703125 
Q 19.921875 21.921875 17.671875 20.9375 
Q 15.4375 19.96875 14.203125 18.09375 
Q 12.984375 16.21875 12.984375 13.921875 
Q 12.984375 10.40625 15.640625 8.0625 
Q 18.3125 5.71875 23.4375 5.71875 
Q 28.515625 5.71875 32.46875 7.9375 
Q 36.421875 10.15625 38.28125 14.015625 
Q 39.703125 17 39.703125 22.796875 
z
" id="ArialMT-97"/>
       <path d="M 6.5 0 
L 6.5 51.859375 
L 14.40625 51.859375 
L 14.40625 44 
Q 17.4375 49.515625 20 51.265625 
Q 22.5625 53.03125 25.640625 53.03125 
Q 30.078125 53.03125 34.671875 50.203125 
L 31.640625 42.046875 
Q 28.421875 43.953125 25.203125 43.953125 
Q 22.3125 43.953125 20.015625 42.21875 
Q 17.71875 40.484375 16.75 37.40625 
Q 15.28125 32.71875 15.28125 27.15625 
L 15.28125 0 
z
" id="ArialMT-114"/>
      </defs>
      <use xlink:href="#ArialMT-121"/>
      <use x="50" xlink:href="#ArialMT-101"/>
      <use x="105.615234" xlink:href="#ArialMT-97"/>
      <use x="161.230469" xlink:href="#ArialMT-114"/>
     </g>
    </g>
   </g>
   <g id="matplotlib.axis_2">
    <g id="ytick_1">
     <g id="line2d_1">
      <path clip-path="url(#p581e19c727)" d="M 99 338.377262 
L 712.8 338.377262 
" style="fill:none;stroke:#cccccc;stroke-linecap:round;"/>
     </g>
     <g id="text_6">
      <!-- 0.05 -->
      <g style="fill:#262626;" transform="translate(68.092969 342.314059)scale(0.11 -0.11)">
       <defs>
        <path d="M 9.078125 0 
L 9.078125 10.015625 
L 19.09375 10.015625 
L 19.09375 0 
z
" id="ArialMT-46"/>
        <path d="M 4.15625 18.75 
L 13.375 19.53125 
Q 14.40625 12.796875 18.140625 9.390625 
Q 21.875 6 27.15625 6 
Q 33.5 6 37.890625 10.78125 
Q 42.28125 15.578125 42.28125 23.484375 
Q 42.28125 31 38.0625 35.34375 
Q 33.84375 39.703125 27 39.703125 
Q 22.75 39.703125 19.328125 37.765625 
Q 15.921875 35.84375 13.96875 32.765625 
L 5.71875 33.84375 
L 12.640625 70.609375 
L 48.25 70.609375 
L 48.25 62.203125 
L 19.671875 62.203125 
L 15.828125 42.96875 
Q 22.265625 47.46875 29.34375 47.46875 
Q 38.71875 47.46875 45.15625 40.96875 
Q 51.609375 34.46875 51.609375 24.265625 
Q 51.609375 14.546875 45.953125 7.46875 
Q 39.0625 -1.21875 27.15625 -1.21875 
Q 17.390625 -1.21875 11.203125 4.25 
Q 5.03125 9.71875 4.15625 18.75 
z
" id="ArialMT-53"/>
       </defs>
       <use xlink:href="#ArialMT-48"/>
       <use x="55.615234" xlink:href="#ArialMT-46"/>
       <use x="83.398438" xlink:href="#ArialMT-48"/>
       <use x="139.013672" xlink:href="#ArialMT-53"/>
      </g>
     </g>
    </g>
    <g id="ytick_2">
     <g id="line2d_2">
      <path clip-path="url(#p581e19c727)" d="M 99 289.101021 
L 712.8 289.101021 
" style="fill:none;stroke:#cccccc;stroke-linecap:round;"/>
     </g>
     <g id="text_7">
      <!-- 0.10 -->
      <g style="fill:#262626;" transform="translate(68.092969 293.037818)scale(0.11 -0.11)">
       <use xlink:href="#ArialMT-48"/>
       <use x="55.615234" xlink:href="#ArialMT-46"/>
       <use x="83.398438" xlink:href="#ArialMT-49"/>
       <use x="139.013672" xlink:href="#ArialMT-48"/>
      </g>
     </g>
    </g>
    <g id="ytick_3">
     <g id="line2d_3">
      <path clip-path="url(#p581e19c727)" d="M 99 239.824781 
L 712.8 239.824781 
" style="fill:none;stroke:#cccccc;stroke-linecap:round;"/>
     </g>
     <g id="text_8">
      <!-- 0.15 -->
      <g style="fill:#262626;" transform="translate(68.092969 243.761578)scale(0.11 -0.11)">
       <use xlink:href="#ArialMT-48"/>
       <use x="55.615234" xlink:href="#ArialMT-46"/>
       <use x="83.398438" xlink:href="#ArialMT-49"/>
       <use x="139.013672" xlink:href="#ArialMT-53"/>
      </g>
     </g>
    </g>
    <g id="ytick_4">
     <g id="line2d_4">
      <path clip-path="url(#p581e19c727)" d="M 99 190.54854 
L 712.8 190.54854 
" style="fill:none;stroke:#cccccc;stroke-linecap:round;"/>
     </g>
     <g id="text_9">
      <!-- 0.20 -->
      <g style="fill:#262626;" transform="translate(68.092969 194.485337)scale(0.11 -0.11)">
       <use xlink:href="#ArialMT-48"/>
       <use x="55.615234" xlink:href="#ArialMT-46"/>
       <use x="83.398438" xlink:href="#ArialMT-50"/>
       <use x="139.013672" xlink:href="#ArialMT-48"/>
      </g>
     </g>
    </g>
    <g id="ytick_5">
     <g id="line2d_5">
      <path clip-path="url(#p581e19c727)" d="M 99 141.2723 
L 712.8 141.2723 
" style="fill:none;stroke:#cccccc;stroke-linecap:round;"/>
     </g>
     <g id="text_10">
      <!-- 0.25 -->
      <g style="fill:#262626;" transform="translate(68.092969 145.209097)scale(0.11 -0.11)">
       <use xlink:href="#ArialMT-48"/>
       <use x="55.615234" xlink:href="#ArialMT-46"/>
       <use x="83.398438" xlink:href="#ArialMT-50"/>
       <use x="139.013672" xlink:href="#ArialMT-53"/>
      </g>
     </g>
    </g>
    <g id="ytick_6">
     <g id="line2d_6">
      <path clip-path="url(#p581e19c727)" d="M 99 91.996059 
L 712.8 91.996059 
" style="fill:none;stroke:#cccccc;stroke-linecap:round;"/>
     </g>
     <g id="text_11">
      <!-- 0.30 -->
      <g style="fill:#262626;" transform="translate(68.092969 95.932856)scale(0.11 -0.11)">
       <use xlink:href="#ArialMT-48"/>
       <use x="55.615234" xlink:href="#ArialMT-46"/>
       <use x="83.398438" xlink:href="#ArialMT-51"/>
       <use x="139.013672" xlink:href="#ArialMT-48"/>
      </g>
     </g>
    </g>
    <g id="text_12">
     <!-- per_vacant -->
     <g style="fill:#262626;" transform="translate(61.707969 244.604062)rotate(-90)scale(0.12 -0.12)">
      <defs>
       <path d="M 6.59375 -19.875 
L 6.59375 51.859375 
L 14.59375 51.859375 
L 14.59375 45.125 
Q 17.4375 49.078125 21 51.046875 
Q 24.5625 53.03125 29.640625 53.03125 
Q 36.28125 53.03125 41.359375 49.609375 
Q 46.4375 46.1875 49.015625 39.953125 
Q 51.609375 33.734375 51.609375 26.3125 
Q 51.609375 18.359375 48.75 11.984375 
Q 45.90625 5.609375 40.453125 2.21875 
Q 35.015625 -1.171875 29 -1.171875 
Q 24.609375 -1.171875 21.109375 0.6875 
Q 17.625 2.546875 15.375 5.375 
L 15.375 -19.875 
z
M 14.546875 25.640625 
Q 14.546875 15.625 18.59375 10.84375 
Q 22.65625 6.0625 28.421875 6.0625 
Q 34.28125 6.0625 38.453125 11.015625 
Q 42.625 15.96875 42.625 26.375 
Q 42.625 36.28125 38.546875 41.203125 
Q 34.46875 46.140625 28.8125 46.140625 
Q 23.1875 46.140625 18.859375 40.890625 
Q 14.546875 35.640625 14.546875 25.640625 
z
" id="ArialMT-112"/>
       <path d="M -1.515625 -19.875 
L -1.515625 -13.53125 
L 56.734375 -13.53125 
L 56.734375 -19.875 
z
" id="ArialMT-95"/>
       <path d="M 21 0 
L 1.265625 51.859375 
L 10.546875 51.859375 
L 21.6875 20.796875 
Q 23.484375 15.765625 25 10.359375 
Q 26.171875 14.453125 28.265625 20.21875 
L 39.796875 51.859375 
L 48.828125 51.859375 
L 29.203125 0 
z
" id="ArialMT-118"/>
       <path d="M 40.4375 19 
L 49.078125 17.875 
Q 47.65625 8.9375 41.8125 3.875 
Q 35.984375 -1.171875 27.484375 -1.171875 
Q 16.84375 -1.171875 10.375 5.78125 
Q 3.90625 12.75 3.90625 25.734375 
Q 3.90625 34.125 6.6875 40.421875 
Q 9.46875 46.734375 15.15625 49.875 
Q 20.84375 53.03125 27.546875 53.03125 
Q 35.984375 53.03125 41.359375 48.75 
Q 46.734375 44.484375 48.25 36.625 
L 39.703125 35.296875 
Q 38.484375 40.53125 35.375 43.15625 
Q 32.28125 45.796875 27.875 45.796875 
Q 21.234375 45.796875 17.078125 41.03125 
Q 12.9375 36.28125 12.9375 25.984375 
Q 12.9375 15.53125 16.9375 10.796875 
Q 20.953125 6.0625 27.390625 6.0625 
Q 32.5625 6.0625 36.03125 9.234375 
Q 39.5 12.40625 40.4375 19 
z
" id="ArialMT-99"/>
       <path d="M 6.59375 0 
L 6.59375 51.859375 
L 14.5 51.859375 
L 14.5 44.484375 
Q 20.21875 53.03125 31 53.03125 
Q 35.6875 53.03125 39.625 51.34375 
Q 43.5625 49.65625 45.515625 46.921875 
Q 47.46875 44.1875 48.25 40.4375 
Q 48.734375 37.984375 48.734375 31.890625 
L 48.734375 0 
L 39.9375 0 
L 39.9375 31.546875 
Q 39.9375 36.921875 38.90625 39.578125 
Q 37.890625 42.234375 35.28125 43.8125 
Q 32.671875 45.40625 29.15625 45.40625 
Q 23.53125 45.40625 19.453125 41.84375 
Q 15.375 38.28125 15.375 28.328125 
L 15.375 0 
z
" id="ArialMT-110"/>
       <path d="M 25.78125 7.859375 
L 27.046875 0.09375 
Q 23.34375 -0.6875 20.40625 -0.6875 
Q 15.625 -0.6875 12.984375 0.828125 
Q 10.359375 2.34375 9.28125 4.8125 
Q 8.203125 7.28125 8.203125 15.1875 
L 8.203125 45.015625 
L 1.765625 45.015625 
L 1.765625 51.859375 
L 8.203125 51.859375 
L 8.203125 64.703125 
L 16.9375 69.96875 
L 16.9375 51.859375 
L 25.78125 51.859375 
L 25.78125 45.015625 
L 16.9375 45.015625 
L 16.9375 14.703125 
Q 16.9375 10.9375 17.40625 9.859375 
Q 17.875 8.796875 18.921875 8.15625 
Q 19.96875 7.515625 21.921875 7.515625 
Q 23.390625 7.515625 25.78125 7.859375 
z
" id="ArialMT-116"/>
      </defs>
      <use xlink:href="#ArialMT-112"/>
      <use x="55.615234" xlink:href="#ArialMT-101"/>
      <use x="111.230469" xlink:href="#ArialMT-114"/>
      <use x="144.53125" xlink:href="#ArialMT-95"/>
      <use x="200.146484" xlink:href="#ArialMT-118"/>
      <use x="250.146484" xlink:href="#ArialMT-97"/>
      <use x="305.761719" xlink:href="#ArialMT-99"/>
      <use x="355.761719" xlink:href="#ArialMT-97"/>
      <use x="411.376953" xlink:href="#ArialMT-110"/>
      <use x="466.992188" xlink:href="#ArialMT-116"/>
     </g>
    </g>
   </g>
   <g id="PolyCollection_1">
    <defs>
     <path d="M 175.725 -69.237979 
L 175.226561 -69.237979 
L 175.077178 -72.218966 
L 174.914385 -75.199953 
L 174.734734 -78.18094 
L 174.523244 -81.161927 
L 174.250939 -84.142914 
L 173.876888 -87.123901 
L 173.355185 -90.104888 
L 172.645149 -93.085875 
L 171.721268 -96.066862 
L 170.579254 -99.047849 
L 169.236315 -102.028836 
L 167.726875 -105.009823 
L 166.097623 -107.99081 
L 164.40619 -110.971797 
L 162.724948 -113.952784 
L 161.146565 -116.933771 
L 159.783938 -119.914758 
L 158.757062 -122.895745 
L 158.164631 -125.876732 
L 158.046519 -128.857719 
L 158.35045 -131.838705 
L 158.91789 -134.819692 
L 159.499213 -137.800679 
L 159.798902 -140.781666 
L 159.54189 -143.762653 
L 158.545489 -146.74364 
L 156.778503 -149.724627 
L 154.38991 -152.705614 
L 151.694033 -155.686601 
L 149.1083 -158.667588 
L 147.053546 -161.648575 
L 145.841907 -164.629562 
L 145.586922 -167.610549 
L 146.167571 -170.591536 
L 147.260805 -173.572523 
L 148.431715 -176.55351 
L 149.248847 -179.534497 
L 149.385143 -182.515484 
L 148.67566 -185.496471 
L 147.124862 -188.477458 
L 144.876525 -191.458445 
L 142.168108 -194.439432 
L 139.286534 -197.420419 
L 136.529922 -200.401406 
L 134.169624 -203.382393 
L 132.406392 -206.36338 
L 131.32402 -209.344367 
L 130.856592 -212.325354 
L 130.791073 -215.30634 
L 130.818149 -218.287327 
L 130.622372 -221.268314 
L 129.97971 -224.249301 
L 128.821869 -227.230288 
L 127.24092 -230.211275 
L 125.438365 -233.192262 
L 123.650959 -236.173249 
L 122.092627 -239.154236 
L 120.933228 -242.135223 
L 120.304962 -245.11621 
L 120.308269 -248.097197 
L 120.995402 -251.078184 
L 122.335736 -254.059171 
L 124.191522 -257.040158 
L 126.335694 -260.021145 
L 128.520295 -263.002132 
L 130.570157 -265.983119 
L 132.455418 -268.964106 
L 134.303272 -271.945093 
L 136.340393 -274.92608 
L 138.793189 -277.907067 
L 141.792145 -280.888054 
L 145.31941 -283.869041 
L 149.212923 -286.850028 
L 153.21315 -289.831015 
L 157.025164 -292.812002 
L 160.372909 -295.792988 
L 163.036412 -298.773975 
L 164.87459 -301.754962 
L 165.839109 -304.735949 
L 165.979916 -307.716936 
L 165.43746 -310.697923 
L 164.416936 -313.67891 
L 163.147125 -316.659897 
L 161.835825 -319.640884 
L 160.638193 -322.621871 
L 159.649203 -325.602858 
L 158.919145 -328.583845 
L 158.479166 -331.564832 
L 158.360181 -334.545819 
L 158.595148 -337.526806 
L 159.206714 -340.507793 
L 160.191004 -343.48878 
L 161.508679 -346.469767 
L 163.087628 -349.450754 
L 164.834102 -352.431741 
L 166.645957 -355.412728 
L 168.423728 -358.393715 
L 170.07903 -361.374702 
L 171.541623 -364.355689 
L 175.725 -364.355689 
L 175.725 -364.355689 
L 175.725 -361.374702 
L 175.725 -358.393715 
L 175.725 -355.412728 
L 175.725 -352.431741 
L 175.725 -349.450754 
L 175.725 -346.469767 
L 175.725 -343.48878 
L 175.725 -340.507793 
L 175.725 -337.526806 
L 175.725 -334.545819 
L 175.725 -331.564832 
L 175.725 -328.583845 
L 175.725 -325.602858 
L 175.725 -322.621871 
L 175.725 -319.640884 
L 175.725 -316.659897 
L 175.725 -313.67891 
L 175.725 -310.697923 
L 175.725 -307.716936 
L 175.725 -304.735949 
L 175.725 -301.754962 
L 175.725 -298.773975 
L 175.725 -295.792988 
L 175.725 -292.812002 
L 175.725 -289.831015 
L 175.725 -286.850028 
L 175.725 -283.869041 
L 175.725 -280.888054 
L 175.725 -277.907067 
L 175.725 -274.92608 
L 175.725 -271.945093 
L 175.725 -268.964106 
L 175.725 -265.983119 
L 175.725 -263.002132 
L 175.725 -260.021145 
L 175.725 -257.040158 
L 175.725 -254.059171 
L 175.725 -251.078184 
L 175.725 -248.097197 
L 175.725 -245.11621 
L 175.725 -242.135223 
L 175.725 -239.154236 
L 175.725 -236.173249 
L 175.725 -233.192262 
L 175.725 -230.211275 
L 175.725 -227.230288 
L 175.725 -224.249301 
L 175.725 -221.268314 
L 175.725 -218.287327 
L 175.725 -215.30634 
L 175.725 -212.325354 
L 175.725 -209.344367 
L 175.725 -206.36338 
L 175.725 -203.382393 
L 175.725 -200.401406 
L 175.725 -197.420419 
L 175.725 -194.439432 
L 175.725 -191.458445 
L 175.725 -188.477458 
L 175.725 -185.496471 
L 175.725 -182.515484 
L 175.725 -179.534497 
L 175.725 -176.55351 
L 175.725 -173.572523 
L 175.725 -170.591536 
L 175.725 -167.610549 
L 175.725 -164.629562 
L 175.725 -161.648575 
L 175.725 -158.667588 
L 175.725 -155.686601 
L 175.725 -152.705614 
L 175.725 -149.724627 
L 175.725 -146.74364 
L 175.725 -143.762653 
L 175.725 -140.781666 
L 175.725 -137.800679 
L 175.725 -134.819692 
L 175.725 -131.838705 
L 175.725 -128.857719 
L 175.725 -125.876732 
L 175.725 -122.895745 
L 175.725 -119.914758 
L 175.725 -116.933771 
L 175.725 -113.952784 
L 175.725 -110.971797 
L 175.725 -107.99081 
L 175.725 -105.009823 
L 175.725 -102.028836 
L 175.725 -99.047849 
L 175.725 -96.066862 
L 175.725 -93.085875 
L 175.725 -90.104888 
L 175.725 -87.123901 
L 175.725 -84.142914 
L 175.725 -81.161927 
L 175.725 -78.18094 
L 175.725 -75.199953 
L 175.725 -72.218966 
L 175.725 -69.237979 
z
" id="m882a6bdbc7" style="stroke:#363636;"/>
    </defs>
    <g clip-path="url(#p581e19c727)">
     <use style="fill:#176d9c;stroke:#363636;" x="0" xlink:href="#m882a6bdbc7" y="432"/>
    </g>
   </g>
   <g id="PolyCollection_2">
    <defs>
     <path d="M 176.511738 -70.194256 
L 175.725 -70.194256 
L 175.725 -73.155924 
L 175.725 -76.117592 
L 175.725 -79.079261 
L 175.725 -82.040929 
L 175.725 -85.002597 
L 175.725 -87.964265 
L 175.725 -90.925934 
L 175.725 -93.887602 
L 175.725 -96.84927 
L 175.725 -99.810938 
L 175.725 -102.772607 
L 175.725 -105.734275 
L 175.725 -108.695943 
L 175.725 -111.657611 
L 175.725 -114.61928 
L 175.725 -117.580948 
L 175.725 -120.542616 
L 175.725 -123.504284 
L 175.725 -126.465953 
L 175.725 -129.427621 
L 175.725 -132.389289 
L 175.725 -135.350957 
L 175.725 -138.312626 
L 175.725 -141.274294 
L 175.725 -144.235962 
L 175.725 -147.19763 
L 175.725 -150.159298 
L 175.725 -153.120967 
L 175.725 -156.082635 
L 175.725 -159.044303 
L 175.725 -162.005971 
L 175.725 -164.96764 
L 175.725 -167.929308 
L 175.725 -170.890976 
L 175.725 -173.852644 
L 175.725 -176.814313 
L 175.725 -179.775981 
L 175.725 -182.737649 
L 175.725 -185.699317 
L 175.725 -188.660986 
L 175.725 -191.622654 
L 175.725 -194.584322 
L 175.725 -197.54599 
L 175.725 -200.507659 
L 175.725 -203.469327 
L 175.725 -206.430995 
L 175.725 -209.392663 
L 175.725 -212.354332 
L 175.725 -215.316 
L 175.725 -218.277668 
L 175.725 -221.239336 
L 175.725 -224.201005 
L 175.725 -227.162673 
L 175.725 -230.124341 
L 175.725 -233.086009 
L 175.725 -236.047678 
L 175.725 -239.009346 
L 175.725 -241.971014 
L 175.725 -244.932682 
L 175.725 -247.89435 
L 175.725 -250.856019 
L 175.725 -253.817687 
L 175.725 -256.779355 
L 175.725 -259.741023 
L 175.725 -262.702692 
L 175.725 -265.66436 
L 175.725 -268.626028 
L 175.725 -271.587696 
L 175.725 -274.549365 
L 175.725 -277.511033 
L 175.725 -280.472701 
L 175.725 -283.434369 
L 175.725 -286.396038 
L 175.725 -289.357706 
L 175.725 -292.319374 
L 175.725 -295.281042 
L 175.725 -298.242711 
L 175.725 -301.204379 
L 175.725 -304.166047 
L 175.725 -307.127715 
L 175.725 -310.089384 
L 175.725 -313.051052 
L 175.725 -316.01272 
L 175.725 -318.974388 
L 175.725 -321.936057 
L 175.725 -324.897725 
L 175.725 -327.859393 
L 175.725 -330.821061 
L 175.725 -333.78273 
L 175.725 -336.744398 
L 175.725 -339.706066 
L 175.725 -342.667734 
L 175.725 -345.629402 
L 175.725 -348.591071 
L 175.725 -351.552739 
L 175.725 -354.514407 
L 175.725 -357.476075 
L 175.725 -360.437744 
L 175.725 -363.399412 
L 179.360538 -363.399412 
L 179.360538 -363.399412 
L 180.854782 -360.437744 
L 182.654248 -357.476075 
L 184.719068 -354.514407 
L 186.966603 -351.552739 
L 189.260587 -348.591071 
L 191.413129 -345.629402 
L 193.212202 -342.667734 
L 194.473926 -339.706066 
L 195.098578 -336.744398 
L 195.098403 -333.78273 
L 194.577227 -330.821061 
L 193.672354 -327.859393 
L 192.496332 -324.897725 
L 191.117577 -321.936057 
L 189.59138 -318.974388 
L 188.016582 -316.01272 
L 186.57495 -313.051052 
L 185.522265 -310.089384 
L 185.131937 -307.127715 
L 185.62062 -304.166047 
L 187.093018 -301.204379 
L 189.52769 -298.242711 
L 192.799409 -295.281042 
L 196.71415 -292.319374 
L 201.032861 -289.357706 
L 205.479693 -286.396038 
L 209.754479 -283.434369 
L 213.576355 -280.472701 
L 216.763936 -277.511033 
L 219.318417 -274.549365 
L 221.450311 -271.587696 
L 223.505817 -268.626028 
L 225.805068 -265.66436 
L 228.467799 -262.702692 
L 231.325786 -259.741023 
L 233.981249 -256.779355 
L 235.985934 -253.817687 
L 237.040933 -250.856019 
L 237.105 -247.89435 
L 236.360533 -244.932682 
L 235.080326 -241.971014 
L 233.498109 -239.009346 
L 231.768847 -236.047678 
L 230.025213 -233.086009 
L 228.456286 -230.124341 
L 227.31612 -227.162673 
L 226.827304 -224.201005 
L 227.032861 -221.239336 
L 227.699885 -218.277668 
L 228.352056 -215.316 
L 228.426702 -212.354332 
L 227.475869 -209.392663 
L 225.311304 -206.430995 
L 222.035958 -203.469327 
L 217.972387 -200.507659 
L 213.545495 -197.54599 
L 209.180832 -194.584322 
L 205.249614 -191.622654 
L 202.053577 -188.660986 
L 199.820054 -185.699317 
L 198.679851 -182.737649 
L 198.622714 -179.775981 
L 199.452737 -176.814313 
L 200.780911 -173.852644 
L 202.082739 -170.890976 
L 202.818124 -167.929308 
L 202.575764 -164.96764 
L 201.186737 -162.005971 
L 198.763016 -159.044303 
L 195.6497 -156.082635 
L 192.315277 -153.120967 
L 189.22378 -150.159298 
L 186.729979 -147.19763 
L 185.020899 -144.235962 
L 184.106708 -141.274294 
L 183.850897 -138.312626 
L 184.024943 -135.350957 
L 184.372561 -132.389289 
L 184.669235 -129.427621 
L 184.763775 -126.465953 
L 184.592918 -123.504284 
L 184.168524 -120.542616 
L 183.546983 -117.580948 
L 182.79639 -114.61928 
L 181.975142 -111.657611 
L 181.127107 -108.695943 
L 180.288692 -105.734275 
L 179.497829 -102.772607 
L 178.796235 -99.810938 
L 178.222398 -96.84927 
L 177.799237 -93.887602 
L 177.523812 -90.925934 
L 177.365363 -87.964265 
L 177.273673 -85.002597 
L 177.194621 -82.040929 
L 177.086484 -79.079261 
L 176.930403 -76.117592 
L 176.73153 -73.155924 
L 176.511738 -70.194256 
z
" id="m47c6472372" style="stroke:#363636;"/>
    </defs>
    <g clip-path="url(#p581e19c727)">
     <use style="fill:#c38820;stroke:#363636;" x="0" xlink:href="#m47c6472372" y="432"/>
    </g>
   </g>
   <g id="PolyCollection_3">
    <defs>
     <path d="M 329.175 -69.868437 
L 328.098085 -69.868437 
L 327.816843 -72.836688 
L 327.577335 -75.804938 
L 327.419595 -78.773189 
L 327.368379 -81.741439 
L 327.422798 -84.70969 
L 327.553102 -87.67794 
L 327.705748 -90.64619 
L 327.81423 -93.614441 
L 327.811123 -96.582691 
L 327.637606 -99.550942 
L 327.249569 -102.519192 
L 326.622293 -105.487443 
L 325.756516 -108.455693 
L 324.68667 -111.423944 
L 323.488164 -114.392194 
L 322.277421 -117.360444 
L 321.198564 -120.328695 
L 320.395346 -123.296945 
L 319.974379 -126.265196 
L 319.971797 -129.233446 
L 320.3361 -132.201697 
L 320.933936 -135.169947 
L 321.57632 -138.138197 
L 322.055735 -141.106448 
L 322.183615 -144.074698 
L 321.822038 -147.042949 
L 320.90843 -150.011199 
L 319.473202 -152.97945 
L 317.646595 -155.9477 
L 315.646703 -158.91595 
L 313.74115 -161.884201 
L 312.183322 -164.852451 
L 311.137528 -167.820702 
L 310.618216 -170.788952 
L 310.468175 -173.757203 
L 310.387312 -176.725453 
L 310.003333 -179.693704 
L 308.960039 -182.661954 
L 306.996615 -185.630204 
L 304.001572 -188.598455 
L 300.038757 -191.566705 
L 295.349681 -194.534956 
L 290.333093 -197.503206 
L 285.495239 -200.471457 
L 281.363021 -203.439707 
L 278.364249 -206.407957 
L 276.701476 -209.376208 
L 276.266153 -212.344458 
L 276.641764 -215.312709 
L 277.218125 -218.280959 
L 277.390137 -221.24921 
L 276.766301 -224.21746 
L 275.295956 -227.18571 
L 273.256645 -230.153961 
L 271.112185 -233.122211 
L 269.318588 -236.090462 
L 268.176981 -239.058712 
L 267.795 -242.026963 
L 268.14623 -244.995213 
L 269.160051 -247.963464 
L 270.769518 -250.931714 
L 272.891835 -253.899964 
L 275.376671 -256.868215 
L 277.98596 -259.836465 
L 280.445273 -262.804716 
L 282.550799 -265.772966 
L 284.270175 -268.741217 
L 285.772785 -271.709467 
L 287.366465 -274.677717 
L 289.372662 -277.645968 
L 292.003826 -280.614218 
L 295.297304 -283.582469 
L 299.120908 -286.550719 
L 303.226241 -289.51897 
L 307.311415 -292.48722 
L 311.068054 -295.45547 
L 314.211879 -298.423721 
L 316.510676 -301.391971 
L 317.818998 -304.360222 
L 318.112633 -307.328472 
L 317.503056 -310.296723 
L 316.214397 -313.264973 
L 314.523292 -316.233224 
L 312.684238 -319.201474 
L 310.874764 -322.169724 
L 309.185869 -325.137975 
L 307.657523 -328.106225 
L 306.332486 -331.074476 
L 305.292777 -334.042726 
L 304.657936 -337.010977 
L 304.551371 -339.979227 
L 305.059875 -342.947477 
L 306.20936 -345.915728 
L 307.962491 -348.883978 
L 310.228056 -351.852229 
L 312.870272 -354.820479 
L 315.716316 -357.78873 
L 318.569554 -360.75698 
L 321.234666 -363.72523 
L 329.175 -363.72523 
L 329.175 -363.72523 
L 329.175 -360.75698 
L 329.175 -357.78873 
L 329.175 -354.820479 
L 329.175 -351.852229 
L 329.175 -348.883978 
L 329.175 -345.915728 
L 329.175 -342.947477 
L 329.175 -339.979227 
L 329.175 -337.010977 
L 329.175 -334.042726 
L 329.175 -331.074476 
L 329.175 -328.106225 
L 329.175 -325.137975 
L 329.175 -322.169724 
L 329.175 -319.201474 
L 329.175 -316.233224 
L 329.175 -313.264973 
L 329.175 -310.296723 
L 329.175 -307.328472 
L 329.175 -304.360222 
L 329.175 -301.391971 
L 329.175 -298.423721 
L 329.175 -295.45547 
L 329.175 -292.48722 
L 329.175 -289.51897 
L 329.175 -286.550719 
L 329.175 -283.582469 
L 329.175 -280.614218 
L 329.175 -277.645968 
L 329.175 -274.677717 
L 329.175 -271.709467 
L 329.175 -268.741217 
L 329.175 -265.772966 
L 329.175 -262.804716 
L 329.175 -259.836465 
L 329.175 -256.868215 
L 329.175 -253.899964 
L 329.175 -250.931714 
L 329.175 -247.963464 
L 329.175 -244.995213 
L 329.175 -242.026963 
L 329.175 -239.058712 
L 329.175 -236.090462 
L 329.175 -233.122211 
L 329.175 -230.153961 
L 329.175 -227.18571 
L 329.175 -224.21746 
L 329.175 -221.24921 
L 329.175 -218.280959 
L 329.175 -215.312709 
L 329.175 -212.344458 
L 329.175 -209.376208 
L 329.175 -206.407957 
L 329.175 -203.439707 
L 329.175 -200.471457 
L 329.175 -197.503206 
L 329.175 -194.534956 
L 329.175 -191.566705 
L 329.175 -188.598455 
L 329.175 -185.630204 
L 329.175 -182.661954 
L 329.175 -179.693704 
L 329.175 -176.725453 
L 329.175 -173.757203 
L 329.175 -170.788952 
L 329.175 -167.820702 
L 329.175 -164.852451 
L 329.175 -161.884201 
L 329.175 -158.91595 
L 329.175 -155.9477 
L 329.175 -152.97945 
L 329.175 -150.011199 
L 329.175 -147.042949 
L 329.175 -144.074698 
L 329.175 -141.106448 
L 329.175 -138.138197 
L 329.175 -135.169947 
L 329.175 -132.201697 
L 329.175 -129.233446 
L 329.175 -126.265196 
L 329.175 -123.296945 
L 329.175 -120.328695 
L 329.175 -117.360444 
L 329.175 -114.392194 
L 329.175 -111.423944 
L 329.175 -108.455693 
L 329.175 -105.487443 
L 329.175 -102.519192 
L 329.175 -99.550942 
L 329.175 -96.582691 
L 329.175 -93.614441 
L 329.175 -90.64619 
L 329.175 -87.67794 
L 329.175 -84.70969 
L 329.175 -81.741439 
L 329.175 -78.773189 
L 329.175 -75.804938 
L 329.175 -72.836688 
L 329.175 -69.868437 
z
" id="m0d0268afa7" style="stroke:#363636;"/>
    </defs>
    <g clip-path="url(#p581e19c727)">
     <use style="fill:#176d9c;stroke:#363636;" x="0" xlink:href="#m0d0268afa7" y="432"/>
    </g>
   </g>
   <g id="PolyCollection_4">
    <defs>
     <path d="M 333.49349 -89.529774 
L 329.175 -89.529774 
L 329.175 -92.315681 
L 329.175 -95.101588 
L 329.175 -97.887494 
L 329.175 -100.673401 
L 329.175 -103.459308 
L 329.175 -106.245215 
L 329.175 -109.031121 
L 329.175 -111.817028 
L 329.175 -114.602935 
L 329.175 -117.388842 
L 329.175 -120.174749 
L 329.175 -122.960655 
L 329.175 -125.746562 
L 329.175 -128.532469 
L 329.175 -131.318376 
L 329.175 -134.104282 
L 329.175 -136.890189 
L 329.175 -139.676096 
L 329.175 -142.462003 
L 329.175 -145.24791 
L 329.175 -148.033816 
L 329.175 -150.819723 
L 329.175 -153.60563 
L 329.175 -156.391537 
L 329.175 -159.177444 
L 329.175 -161.96335 
L 329.175 -164.749257 
L 329.175 -167.535164 
L 329.175 -170.321071 
L 329.175 -173.106977 
L 329.175 -175.892884 
L 329.175 -178.678791 
L 329.175 -181.464698 
L 329.175 -184.250605 
L 329.175 -187.036511 
L 329.175 -189.822418 
L 329.175 -192.608325 
L 329.175 -195.394232 
L 329.175 -198.180138 
L 329.175 -200.966045 
L 329.175 -203.751952 
L 329.175 -206.537859 
L 329.175 -209.323766 
L 329.175 -212.109672 
L 329.175 -214.895579 
L 329.175 -217.681486 
L 329.175 -220.467393 
L 329.175 -223.2533 
L 329.175 -226.039206 
L 329.175 -228.825113 
L 329.175 -231.61102 
L 329.175 -234.396927 
L 329.175 -237.182833 
L 329.175 -239.96874 
L 329.175 -242.754647 
L 329.175 -245.540554 
L 329.175 -248.326461 
L 329.175 -251.112367 
L 329.175 -253.898274 
L 329.175 -256.684181 
L 329.175 -259.470088 
L 329.175 -262.255994 
L 329.175 -265.041901 
L 329.175 -267.827808 
L 329.175 -270.613715 
L 329.175 -273.399622 
L 329.175 -276.185528 
L 329.175 -278.971435 
L 329.175 -281.757342 
L 329.175 -284.543249 
L 329.175 -287.329156 
L 329.175 -290.115062 
L 329.175 -292.900969 
L 329.175 -295.686876 
L 329.175 -298.472783 
L 329.175 -301.258689 
L 329.175 -304.044596 
L 329.175 -306.830503 
L 329.175 -309.61641 
L 329.175 -312.402317 
L 329.175 -315.188223 
L 329.175 -317.97413 
L 329.175 -320.760037 
L 329.175 -323.545944 
L 329.175 -326.33185 
L 329.175 -329.117757 
L 329.175 -331.903664 
L 329.175 -334.689571 
L 329.175 -337.475478 
L 329.175 -340.261384 
L 329.175 -343.047291 
L 329.175 -345.833198 
L 329.175 -348.619105 
L 329.175 -351.405012 
L 329.175 -354.190918 
L 329.175 -356.976825 
L 329.175 -359.762732 
L 329.175 -362.548639 
L 329.175 -365.334545 
L 336.987857 -365.334545 
L 336.987857 -365.334545 
L 339.23487 -362.548639 
L 341.686593 -359.762732 
L 344.23691 -356.976825 
L 346.763608 -354.190918 
L 349.141705 -351.405012 
L 351.256507 -348.619105 
L 353.014601 -345.833198 
L 354.351541 -343.047291 
L 355.23531 -340.261384 
L 355.664904 -337.475478 
L 355.664161 -334.689571 
L 355.272576 -331.903664 
L 354.536625 -329.117757 
L 353.505813 -326.33185 
L 352.236143 -323.545944 
L 350.799969 -320.760037 
L 349.296954 -317.97413 
L 347.858466 -315.188223 
L 346.639078 -312.402317 
L 345.793818 -309.61641 
L 345.446366 -306.830503 
L 345.658429 -304.044596 
L 346.411588 -301.258689 
L 347.609291 -298.472783 
L 349.099933 -295.686876 
L 350.71488 -292.900969 
L 352.310628 -290.115062 
L 353.803447 -287.329156 
L 355.187679 -284.543249 
L 356.533673 -281.757342 
L 357.966326 -278.971435 
L 359.629186 -276.185528 
L 361.641719 -273.399622 
L 364.059012 -270.613715 
L 366.84375 -267.827808 
L 369.85916 -265.041901 
L 372.887748 -262.255994 
L 375.673918 -259.470088 
L 377.980574 -256.684181 
L 379.64373 -253.898274 
L 380.608362 -251.112367 
L 380.934633 -248.326461 
L 380.774379 -245.540554 
L 380.328575 -242.754647 
L 379.802166 -239.96874 
L 379.370422 -237.182833 
L 379.162371 -234.396927 
L 379.25697 -231.61102 
L 379.682287 -228.825113 
L 380.409891 -226.039206 
L 381.344309 -223.2533 
L 382.31557 -220.467393 
L 383.086159 -217.681486 
L 383.379672 -214.895579 
L 382.929213 -212.109672 
L 381.5339 -209.323766 
L 379.106951 -206.537859 
L 375.700782 -203.751952 
L 371.502146 -200.966045 
L 366.799721 -198.180138 
L 361.933869 -195.394232 
L 357.24122 -192.608325 
L 353.005577 -189.822418 
L 349.422946 -187.036511 
L 346.584371 -184.250605 
L 344.476954 -181.464698 
L 343.001056 -178.678791 
L 341.999944 -175.892884 
L 341.296562 -173.106977 
L 340.730878 -170.321071 
L 340.190906 -167.535164 
L 339.631522 -164.749257 
L 339.077757 -161.96335 
L 338.612601 -159.177444 
L 338.352567 -156.391537 
L 338.416478 -153.60563 
L 338.893698 -150.819723 
L 339.81771 -148.033816 
L 341.149884 -145.24791 
L 342.776936 -142.462003 
L 344.523644 -139.676096 
L 346.179832 -136.890189 
L 347.537262 -134.104282 
L 348.428794 -131.318376 
L 348.760255 -128.532469 
L 348.526179 -125.746562 
L 347.804507 -122.960655 
L 346.731441 -120.174749 
L 345.463907 -117.388842 
L 344.141013 -114.602935 
L 342.855861 -111.817028 
L 341.64503 -109.031121 
L 340.496679 -106.245215 
L 339.371934 -103.459308 
L 338.230511 -100.673401 
L 337.051449 -97.887494 
L 335.842938 -95.101588 
L 334.640051 -92.315681 
L 333.49349 -89.529774 
z
" id="mfcfab75ba3" style="stroke:#363636;"/>
    </defs>
    <g clip-path="url(#p581e19c727)">
     <use style="fill:#c38820;stroke:#363636;" x="0" xlink:href="#mfcfab75ba3" y="432"/>
    </g>
   </g>
   <g id="PolyCollection_5">
    <defs>
     <path d="M 482.625 -69.952177 
L 482.39317 -69.952177 
L 482.315178 -72.918736 
L 482.226599 -75.885295 
L 482.125035 -78.851853 
L 482.003638 -81.818412 
L 481.851715 -84.784971 
L 481.657796 -87.751529 
L 481.413928 -90.718088 
L 481.118535 -93.684647 
L 480.775065 -96.651206 
L 480.385459 -99.617764 
L 479.940601 -102.584323 
L 479.412944 -105.550882 
L 478.757482 -108.51744 
L 477.925143 -111.483999 
L 476.887538 -114.450558 
L 475.665433 -117.417117 
L 474.348346 -120.383675 
L 473.092633 -123.350234 
L 472.092074 -126.316793 
L 471.526722 -129.283352 
L 471.506959 -132.24991 
L 472.033973 -135.216469 
L 472.9919 -138.183028 
L 474.173828 -141.149586 
L 475.330922 -144.116145 
L 476.227739 -147.082704 
L 476.688742 -150.049263 
L 476.627196 -153.015821 
L 476.053171 -155.98238 
L 475.060266 -158.948939 
L 473.793082 -161.915498 
L 472.402032 -164.882056 
L 470.998066 -167.848615 
L 469.623011 -170.815174 
L 468.24669 -173.781732 
L 466.790391 -176.748291 
L 465.164024 -179.71485 
L 463.299799 -182.681409 
L 461.171524 -185.647967 
L 458.800528 -188.614526 
L 456.257376 -191.581085 
L 453.666522 -194.547644 
L 451.211144 -197.514202 
L 449.125837 -200.480761 
L 447.664239 -203.44732 
L 447.039371 -206.413878 
L 447.351359 -209.380437 
L 448.530767 -212.346996 
L 450.326911 -215.313555 
L 452.355651 -218.280113 
L 454.195034 -221.246672 
L 455.492796 -224.213231 
L 456.042213 -227.179789 
L 455.799445 -230.146348 
L 454.848185 -233.112907 
L 453.345337 -236.079466 
L 451.484913 -239.046024 
L 449.493696 -242.012583 
L 447.639247 -244.979142 
L 446.214939 -247.945701 
L 445.481934 -250.912259 
L 445.584499 -253.878818 
L 446.485374 -256.845377 
L 447.967538 -259.811935 
L 449.714809 -262.778494 
L 451.437685 -265.745053 
L 452.983048 -268.711612 
L 454.374964 -271.67817 
L 455.772428 -274.644729 
L 457.373668 -277.611288 
L 459.319138 -280.577847 
L 461.636399 -283.544405 
L 464.239807 -286.510964 
L 466.96807 -289.477523 
L 469.630752 -292.444081 
L 472.04303 -295.41064 
L 474.045321 -298.377199 
L 475.516354 -301.343758 
L 476.387716 -304.310316 
L 476.658753 -307.276875 
L 476.402261 -310.243434 
L 475.751377 -313.209993 
L 474.867339 -316.176551 
L 473.90012 -319.14311 
L 472.960594 -322.109669 
L 472.117786 -325.076227 
L 471.419673 -328.042786 
L 470.920542 -331.009345 
L 470.693199 -333.975904 
L 470.81488 -336.942462 
L 471.334448 -339.909021 
L 472.241937 -342.87558 
L 473.460103 -345.842138 
L 474.863188 -348.808697 
L 476.311925 -351.775256 
L 477.686815 -354.741815 
L 478.906743 -357.708373 
L 479.930867 -360.674932 
L 480.750055 -363.641491 
L 482.625 -363.641491 
L 482.625 -363.641491 
L 482.625 -360.674932 
L 482.625 -357.708373 
L 482.625 -354.741815 
L 482.625 -351.775256 
L 482.625 -348.808697 
L 482.625 -345.842138 
L 482.625 -342.87558 
L 482.625 -339.909021 
L 482.625 -336.942462 
L 482.625 -333.975904 
L 482.625 -331.009345 
L 482.625 -328.042786 
L 482.625 -325.076227 
L 482.625 -322.109669 
L 482.625 -319.14311 
L 482.625 -316.176551 
L 482.625 -313.209993 
L 482.625 -310.243434 
L 482.625 -307.276875 
L 482.625 -304.310316 
L 482.625 -301.343758 
L 482.625 -298.377199 
L 482.625 -295.41064 
L 482.625 -292.444081 
L 482.625 -289.477523 
L 482.625 -286.510964 
L 482.625 -283.544405 
L 482.625 -280.577847 
L 482.625 -277.611288 
L 482.625 -274.644729 
L 482.625 -271.67817 
L 482.625 -268.711612 
L 482.625 -265.745053 
L 482.625 -262.778494 
L 482.625 -259.811935 
L 482.625 -256.845377 
L 482.625 -253.878818 
L 482.625 -250.912259 
L 482.625 -247.945701 
L 482.625 -244.979142 
L 482.625 -242.012583 
L 482.625 -239.046024 
L 482.625 -236.079466 
L 482.625 -233.112907 
L 482.625 -230.146348 
L 482.625 -227.179789 
L 482.625 -224.213231 
L 482.625 -221.246672 
L 482.625 -218.280113 
L 482.625 -215.313555 
L 482.625 -212.346996 
L 482.625 -209.380437 
L 482.625 -206.413878 
L 482.625 -203.44732 
L 482.625 -200.480761 
L 482.625 -197.514202 
L 482.625 -194.547644 
L 482.625 -191.581085 
L 482.625 -188.614526 
L 482.625 -185.647967 
L 482.625 -182.681409 
L 482.625 -179.71485 
L 482.625 -176.748291 
L 482.625 -173.781732 
L 482.625 -170.815174 
L 482.625 -167.848615 
L 482.625 -164.882056 
L 482.625 -161.915498 
L 482.625 -158.948939 
L 482.625 -155.98238 
L 482.625 -153.015821 
L 482.625 -150.049263 
L 482.625 -147.082704 
L 482.625 -144.116145 
L 482.625 -141.149586 
L 482.625 -138.183028 
L 482.625 -135.216469 
L 482.625 -132.24991 
L 482.625 -129.283352 
L 482.625 -126.316793 
L 482.625 -123.350234 
L 482.625 -120.383675 
L 482.625 -117.417117 
L 482.625 -114.450558 
L 482.625 -111.483999 
L 482.625 -108.51744 
L 482.625 -105.550882 
L 482.625 -102.584323 
L 482.625 -99.617764 
L 482.625 -96.651206 
L 482.625 -93.684647 
L 482.625 -90.718088 
L 482.625 -87.751529 
L 482.625 -84.784971 
L 482.625 -81.818412 
L 482.625 -78.851853 
L 482.625 -75.885295 
L 482.625 -72.918736 
L 482.625 -69.952177 
z
" id="mf3f10b71a4" style="stroke:#363636;"/>
    </defs>
    <g clip-path="url(#p581e19c727)">
     <use style="fill:#176d9c;stroke:#363636;" x="0" xlink:href="#mf3f10b71a4" y="432"/>
    </g>
   </g>
   <g id="PolyCollection_6">
    <defs>
     <path d="M 483.461489 -93.262581 
L 482.625 -93.262581 
L 482.625 -95.973077 
L 482.625 -98.683574 
L 482.625 -101.39407 
L 482.625 -104.104567 
L 482.625 -106.815063 
L 482.625 -109.52556 
L 482.625 -112.236056 
L 482.625 -114.946553 
L 482.625 -117.657049 
L 482.625 -120.367546 
L 482.625 -123.078043 
L 482.625 -125.788539 
L 482.625 -128.499036 
L 482.625 -131.209532 
L 482.625 -133.920029 
L 482.625 -136.630525 
L 482.625 -139.341022 
L 482.625 -142.051518 
L 482.625 -144.762015 
L 482.625 -147.472512 
L 482.625 -150.183008 
L 482.625 -152.893505 
L 482.625 -155.604001 
L 482.625 -158.314498 
L 482.625 -161.024994 
L 482.625 -163.735491 
L 482.625 -166.445987 
L 482.625 -169.156484 
L 482.625 -171.86698 
L 482.625 -174.577477 
L 482.625 -177.287974 
L 482.625 -179.99847 
L 482.625 -182.708967 
L 482.625 -185.419463 
L 482.625 -188.12996 
L 482.625 -190.840456 
L 482.625 -193.550953 
L 482.625 -196.261449 
L 482.625 -198.971946 
L 482.625 -201.682442 
L 482.625 -204.392939 
L 482.625 -207.103436 
L 482.625 -209.813932 
L 482.625 -212.524429 
L 482.625 -215.234925 
L 482.625 -217.945422 
L 482.625 -220.655918 
L 482.625 -223.366415 
L 482.625 -226.076911 
L 482.625 -228.787408 
L 482.625 -231.497905 
L 482.625 -234.208401 
L 482.625 -236.918898 
L 482.625 -239.629394 
L 482.625 -242.339891 
L 482.625 -245.050387 
L 482.625 -247.760884 
L 482.625 -250.47138 
L 482.625 -253.181877 
L 482.625 -255.892373 
L 482.625 -258.60287 
L 482.625 -261.313367 
L 482.625 -264.023863 
L 482.625 -266.73436 
L 482.625 -269.444856 
L 482.625 -272.155353 
L 482.625 -274.865849 
L 482.625 -277.576346 
L 482.625 -280.286842 
L 482.625 -282.997339 
L 482.625 -285.707835 
L 482.625 -288.418332 
L 482.625 -291.128829 
L 482.625 -293.839325 
L 482.625 -296.549822 
L 482.625 -299.260318 
L 482.625 -301.970815 
L 482.625 -304.681311 
L 482.625 -307.391808 
L 482.625 -310.102304 
L 482.625 -312.812801 
L 482.625 -315.523298 
L 482.625 -318.233794 
L 482.625 -320.944291 
L 482.625 -323.654787 
L 482.625 -326.365284 
L 482.625 -329.07578 
L 482.625 -331.786277 
L 482.625 -334.496773 
L 482.625 -337.20727 
L 482.625 -339.917766 
L 482.625 -342.628263 
L 482.625 -345.33876 
L 482.625 -348.049256 
L 482.625 -350.759753 
L 482.625 -353.470249 
L 482.625 -356.180746 
L 482.625 -358.891242 
L 482.625 -361.601739 
L 483.88545 -361.601739 
L 483.88545 -361.601739 
L 484.625349 -358.891242 
L 485.703202 -356.180746 
L 487.207539 -353.470249 
L 489.17311 -350.759753 
L 491.512327 -348.049256 
L 493.966714 -345.33876 
L 496.127128 -342.628263 
L 497.544987 -339.917766 
L 497.899004 -337.20727 
L 497.132492 -334.496773 
L 495.479472 -331.786277 
L 493.360692 -329.07578 
L 491.210246 -326.365284 
L 489.330962 -323.654787 
L 487.847796 -320.944291 
L 486.760911 -318.233794 
L 486.045153 -315.523298 
L 485.731103 -312.812801 
L 485.928063 -310.102304 
L 486.784468 -307.391808 
L 488.407476 -304.681311 
L 490.778829 -301.970815 
L 493.710897 -299.260318 
L 496.878196 -296.549822 
L 499.925671 -293.839325 
L 502.604749 -291.128829 
L 504.857009 -288.418332 
L 506.789207 -285.707835 
L 508.558334 -282.997339 
L 510.257427 -280.286842 
L 511.899412 -277.576346 
L 513.521957 -274.865849 
L 515.331732 -272.155353 
L 517.74997 -269.444856 
L 521.262751 -266.73436 
L 526.105081 -264.023863 
L 531.945026 -261.313367 
L 537.787993 -258.60287 
L 542.232261 -255.892373 
L 544.005 -253.181877 
L 542.515806 -250.47138 
L 538.122826 -247.760884 
L 531.96253 -245.050387 
L 525.451179 -242.339891 
L 519.749426 -239.629394 
L 515.471147 -236.918898 
L 512.733968 -234.208401 
L 511.426822 -231.497905 
L 511.455992 -228.787408 
L 512.78897 -226.076911 
L 515.292236 -223.366415 
L 518.525627 -220.655918 
L 521.693703 -217.945422 
L 523.839105 -215.234925 
L 524.184129 -212.524429 
L 522.42085 -209.813932 
L 518.790468 -207.103436 
L 513.934529 -204.392939 
L 508.629 -201.682442 
L 503.543773 -198.971946 
L 499.112518 -196.261449 
L 495.518181 -193.550953 
L 492.753419 -190.840456 
L 490.709897 -188.12996 
L 489.2623 -185.419463 
L 488.32374 -182.708967 
L 487.858915 -179.99847 
L 487.855778 -177.287974 
L 488.274542 -174.577477 
L 489.004649 -171.86698 
L 489.856902 -169.156484 
L 490.599345 -166.445987 
L 491.021813 -163.735491 
L 490.998886 -161.024994 
L 490.522454 -158.314498 
L 489.691124 -155.604001 
L 488.664487 -152.893505 
L 487.604859 -150.183008 
L 486.631417 -147.472512 
L 485.80245 -144.762015 
L 485.126295 -142.051518 
L 484.588257 -139.341022 
L 484.175776 -136.630525 
L 483.88902 -133.920029 
L 483.734894 -131.209532 
L 483.712337 -128.499036 
L 483.80049 -125.788539 
L 483.958082 -123.078043 
L 484.134849 -120.367546 
L 484.288225 -117.657049 
L 484.395164 -114.946553 
L 484.452062 -112.236056 
L 484.463933 -109.52556 
L 484.43167 -106.815063 
L 484.347308 -104.104567 
L 484.200531 -101.39407 
L 483.99061 -98.683574 
L 483.733969 -95.973077 
L 483.461489 -93.262581 
z
" id="m6d0d6bc035" style="stroke:#363636;"/>
    </defs>
    <g clip-path="url(#p581e19c727)">
     <use style="fill:#c38820;stroke:#363636;" x="0" xlink:href="#m6d0d6bc035" y="432"/>
    </g>
   </g>
   <g id="PolyCollection_7">
    <defs>
     <path d="M 636.075 -68.825455 
L 635.356358 -68.825455 
L 635.124315 -71.814775 
L 634.848895 -74.804096 
L 634.512408 -77.793417 
L 634.0807 -80.782738 
L 633.502329 -83.772059 
L 632.71437 -86.761379 
L 631.655008 -89.7507 
L 630.280046 -92.740021 
L 628.57808 -95.729342 
L 626.57885 -98.718663 
L 624.351762 -101.707983 
L 621.995737 -104.697304 
L 619.625326 -107.686625 
L 617.35894 -110.675946 
L 615.312458 -113.665266 
L 613.59672 -116.654587 
L 612.313554 -119.643908 
L 611.544869 -122.633229 
L 611.333455 -125.62255 
L 611.660303 -128.61187 
L 612.427825 -131.601191 
L 613.458711 -134.590512 
L 614.5159 -137.579833 
L 615.342359 -140.569154 
L 615.712736 -143.558474 
L 615.484485 -146.547795 
L 614.634605 -149.537116 
L 613.270054 -152.526437 
L 611.605404 -155.515758 
L 609.910012 -158.505078 
L 608.437074 -161.494399 
L 607.354733 -164.48372 
L 606.700845 -167.473041 
L 606.375938 -170.462362 
L 606.175455 -173.451682 
L 605.84826 -176.441003 
L 605.160535 -179.430324 
L 603.946148 -182.419645 
L 602.134458 -185.408966 
L 599.75775 -188.398286 
L 596.946244 -191.387607 
L 593.916253 -194.376928 
L 590.949928 -197.366249 
L 588.359851 -200.35557 
L 586.434227 -203.34489 
L 585.368779 -206.334211 
L 585.20415 -209.323532 
L 585.794421 -212.312853 
L 586.826985 -215.302174 
L 587.896393 -218.291494 
L 588.611991 -221.280815 
L 588.702528 -224.270136 
L 588.080235 -227.259457 
L 586.844027 -230.248778 
L 585.228333 -233.238098 
L 583.526137 -236.227419 
L 582.019921 -239.21674 
L 580.940838 -242.206061 
L 580.45472 -245.195382 
L 580.658697 -248.184702 
L 581.573746 -251.174023 
L 583.133193 -254.163344 
L 585.182117 -257.152665 
L 587.504601 -260.141985 
L 589.881559 -263.131306 
L 592.16088 -266.120627 
L 594.308646 -269.109948 
L 596.415216 -272.099269 
L 598.650909 -275.088589 
L 601.19031 -278.07791 
L 604.137852 -281.067231 
L 607.483435 -284.056552 
L 611.09984 -287.045873 
L 614.774626 -290.035193 
L 618.258407 -293.024514 
L 621.312086 -296.013835 
L 623.743475 -299.003156 
L 625.43158 -301.992477 
L 626.339842 -304.981797 
L 626.518212 -307.971118 
L 626.092002 -310.960439 
L 625.23688 -313.94976 
L 624.144409 -316.939081 
L 622.988058 -319.928401 
L 621.900957 -322.917722 
L 620.971904 -325.907043 
L 620.25725 -328.896364 
L 619.798692 -331.885685 
L 619.635406 -334.875005 
L 619.804167 -337.864326 
L 620.329325 -340.853647 
L 621.21028 -343.842968 
L 622.414225 -346.832289 
L 623.877562 -349.821609 
L 625.514313 -352.81093 
L 627.227506 -355.800251 
L 628.92028 -358.789572 
L 630.505511 -361.778893 
L 631.913883 -364.768213 
L 636.075 -364.768213 
L 636.075 -364.768213 
L 636.075 -361.778893 
L 636.075 -358.789572 
L 636.075 -355.800251 
L 636.075 -352.81093 
L 636.075 -349.821609 
L 636.075 -346.832289 
L 636.075 -343.842968 
L 636.075 -340.853647 
L 636.075 -337.864326 
L 636.075 -334.875005 
L 636.075 -331.885685 
L 636.075 -328.896364 
L 636.075 -325.907043 
L 636.075 -322.917722 
L 636.075 -319.928401 
L 636.075 -316.939081 
L 636.075 -313.94976 
L 636.075 -310.960439 
L 636.075 -307.971118 
L 636.075 -304.981797 
L 636.075 -301.992477 
L 636.075 -299.003156 
L 636.075 -296.013835 
L 636.075 -293.024514 
L 636.075 -290.035193 
L 636.075 -287.045873 
L 636.075 -284.056552 
L 636.075 -281.067231 
L 636.075 -278.07791 
L 636.075 -275.088589 
L 636.075 -272.099269 
L 636.075 -269.109948 
L 636.075 -266.120627 
L 636.075 -263.131306 
L 636.075 -260.141985 
L 636.075 -257.152665 
L 636.075 -254.163344 
L 636.075 -251.174023 
L 636.075 -248.184702 
L 636.075 -245.195382 
L 636.075 -242.206061 
L 636.075 -239.21674 
L 636.075 -236.227419 
L 636.075 -233.238098 
L 636.075 -230.248778 
L 636.075 -227.259457 
L 636.075 -224.270136 
L 636.075 -221.280815 
L 636.075 -218.291494 
L 636.075 -215.302174 
L 636.075 -212.312853 
L 636.075 -209.323532 
L 636.075 -206.334211 
L 636.075 -203.34489 
L 636.075 -200.35557 
L 636.075 -197.366249 
L 636.075 -194.376928 
L 636.075 -191.387607 
L 636.075 -188.398286 
L 636.075 -185.408966 
L 636.075 -182.419645 
L 636.075 -179.430324 
L 636.075 -176.441003 
L 636.075 -173.451682 
L 636.075 -170.462362 
L 636.075 -167.473041 
L 636.075 -164.48372 
L 636.075 -161.494399 
L 636.075 -158.505078 
L 636.075 -155.515758 
L 636.075 -152.526437 
L 636.075 -149.537116 
L 636.075 -146.547795 
L 636.075 -143.558474 
L 636.075 -140.569154 
L 636.075 -137.579833 
L 636.075 -134.590512 
L 636.075 -131.601191 
L 636.075 -128.61187 
L 636.075 -125.62255 
L 636.075 -122.633229 
L 636.075 -119.643908 
L 636.075 -116.654587 
L 636.075 -113.665266 
L 636.075 -110.675946 
L 636.075 -107.686625 
L 636.075 -104.697304 
L 636.075 -101.707983 
L 636.075 -98.718663 
L 636.075 -95.729342 
L 636.075 -92.740021 
L 636.075 -89.7507 
L 636.075 -86.761379 
L 636.075 -83.772059 
L 636.075 -80.782738 
L 636.075 -77.793417 
L 636.075 -74.804096 
L 636.075 -71.814775 
L 636.075 -68.825455 
z
" id="m3f53047167" style="stroke:#363636;"/>
    </defs>
    <g clip-path="url(#p581e19c727)">
     <use style="fill:#176d9c;stroke:#363636;" x="0" xlink:href="#m3f53047167" y="432"/>
    </g>
   </g>
   <g id="PolyCollection_8">
    <defs>
     <path d="M 640.6574 -90.040681 
L 636.075 -90.040681 
L 636.075 -92.816266 
L 636.075 -95.591852 
L 636.075 -98.367437 
L 636.075 -101.143023 
L 636.075 -103.918608 
L 636.075 -106.694193 
L 636.075 -109.469779 
L 636.075 -112.245364 
L 636.075 -115.02095 
L 636.075 -117.796535 
L 636.075 -120.572121 
L 636.075 -123.347706 
L 636.075 -126.123291 
L 636.075 -128.898877 
L 636.075 -131.674462 
L 636.075 -134.450048 
L 636.075 -137.225633 
L 636.075 -140.001219 
L 636.075 -142.776804 
L 636.075 -145.552389 
L 636.075 -148.327975 
L 636.075 -151.10356 
L 636.075 -153.879146 
L 636.075 -156.654731 
L 636.075 -159.430317 
L 636.075 -162.205902 
L 636.075 -164.981488 
L 636.075 -167.757073 
L 636.075 -170.532658 
L 636.075 -173.308244 
L 636.075 -176.083829 
L 636.075 -178.859415 
L 636.075 -181.635 
L 636.075 -184.410586 
L 636.075 -187.186171 
L 636.075 -189.961756 
L 636.075 -192.737342 
L 636.075 -195.512927 
L 636.075 -198.288513 
L 636.075 -201.064098 
L 636.075 -203.839684 
L 636.075 -206.615269 
L 636.075 -209.390854 
L 636.075 -212.16644 
L 636.075 -214.942025 
L 636.075 -217.717611 
L 636.075 -220.493196 
L 636.075 -223.268782 
L 636.075 -226.044367 
L 636.075 -228.819952 
L 636.075 -231.595538 
L 636.075 -234.371123 
L 636.075 -237.146709 
L 636.075 -239.922294 
L 636.075 -242.69788 
L 636.075 -245.473465 
L 636.075 -248.24905 
L 636.075 -251.024636 
L 636.075 -253.800221 
L 636.075 -256.575807 
L 636.075 -259.351392 
L 636.075 -262.126978 
L 636.075 -264.902563 
L 636.075 -267.678148 
L 636.075 -270.453734 
L 636.075 -273.229319 
L 636.075 -276.004905 
L 636.075 -278.78049 
L 636.075 -281.556076 
L 636.075 -284.331661 
L 636.075 -287.107246 
L 636.075 -289.882832 
L 636.075 -292.658417 
L 636.075 -295.434003 
L 636.075 -298.209588 
L 636.075 -300.985174 
L 636.075 -303.760759 
L 636.075 -306.536344 
L 636.075 -309.31193 
L 636.075 -312.087515 
L 636.075 -314.863101 
L 636.075 -317.638686 
L 636.075 -320.414272 
L 636.075 -323.189857 
L 636.075 -325.965442 
L 636.075 -328.741028 
L 636.075 -331.516613 
L 636.075 -334.292199 
L 636.075 -337.067784 
L 636.075 -339.84337 
L 636.075 -342.618955 
L 636.075 -345.39454 
L 636.075 -348.170126 
L 636.075 -350.945711 
L 636.075 -353.721297 
L 636.075 -356.496882 
L 636.075 -359.272468 
L 636.075 -362.048053 
L 636.075 -364.823639 
L 640.807758 -364.823639 
L 640.807758 -364.823639 
L 642.311374 -362.048053 
L 644.01059 -359.272468 
L 645.846111 -356.496882 
L 647.73791 -353.721297 
L 649.589698 -350.945711 
L 651.29584 -348.170126 
L 652.75133 -345.39454 
L 653.864548 -342.618955 
L 654.570681 -339.84337 
L 654.841963 -337.067784 
L 654.690823 -334.292199 
L 654.164397 -331.516613 
L 653.332762 -328.741028 
L 652.276467 -325.965442 
L 651.079242 -323.189857 
L 649.828615 -320.414272 
L 648.622174 -317.638686 
L 647.573286 -314.863101 
L 646.809681 -312.087515 
L 646.461634 -309.31193 
L 646.641808 -306.536344 
L 647.423135 -303.760759 
L 648.82232 -300.985174 
L 650.794314 -298.209588 
L 653.23891 -295.434003 
L 656.016906 -292.658417 
L 658.971608 -289.882832 
L 661.951966 -287.107246 
L 664.834931 -284.331661 
L 667.54496 -281.556076 
L 670.067309 -278.78049 
L 672.450021 -276.004905 
L 674.789799 -273.229319 
L 677.200944 -270.453734 
L 679.773673 -267.678148 
L 682.535067 -264.902563 
L 685.427992 -262.126978 
L 688.318029 -259.351392 
L 691.026978 -256.575807 
L 693.379476 -253.800221 
L 695.2433 -251.024636 
L 696.547997 -248.24905 
L 697.278634 -245.473465 
L 697.455 -242.69788 
L 697.113338 -239.922294 
L 696.303559 -237.146709 
L 695.102377 -234.371123 
L 693.629821 -231.595538 
L 692.051414 -228.819952 
L 690.5547 -226.044367 
L 689.303121 -223.268782 
L 688.384175 -220.493196 
L 687.774225 -217.717611 
L 687.336244 -214.942025 
L 686.852879 -212.16644 
L 686.082936 -209.390854 
L 684.821701 -206.615269 
L 682.946946 -203.839684 
L 680.440636 -201.064098 
L 677.386116 -198.288513 
L 673.947389 -195.512927 
L 670.339145 -192.737342 
L 666.794502 -189.961756 
L 663.53448 -187.186171 
L 660.741203 -184.410586 
L 658.536539 -181.635 
L 656.968652 -178.859415 
L 656.009489 -176.083829 
L 655.565339 -173.308244 
L 655.499979 -170.532658 
L 655.666244 -167.757073 
L 655.938507 -164.981488 
L 656.237209 -162.205902 
L 656.538199 -159.430317 
L 656.864137 -156.654731 
L 657.2612 -153.879146 
L 657.769528 -151.10356 
L 658.398022 -148.327975 
L 659.112246 -145.552389 
L 659.838864 -142.776804 
L 660.483546 -140.001219 
L 660.954455 -137.225633 
L 661.182264 -134.450048 
L 661.130368 -131.674462 
L 660.793903 -128.898877 
L 660.190774 -126.123291 
L 659.350104 -123.347706 
L 658.30281 -120.572121 
L 657.076552 -117.796535 
L 655.694708 -115.02095 
L 654.177807 -112.245364 
L 652.546001 -109.469779 
L 650.821922 -106.694193 
L 649.033699 -103.918608 
L 647.217579 -101.143023 
L 645.418948 -98.367437 
L 643.690479 -95.591852 
L 642.086908 -92.816266 
L 640.6574 -90.040681 
z
" id="m4073162ce9" style="stroke:#363636;"/>
    </defs>
    <g clip-path="url(#p581e19c727)">
     <use style="fill:#c38820;stroke:#363636;" x="0" xlink:href="#m4073162ce9" y="432"/>
    </g>
   </g>
   <g id="patch_3">
    <path clip-path="url(#p581e19c727)" d="M 175.725 387.653502 
L 175.725 387.653502 
L 175.725 387.653502 
L 175.725 387.653502 
z
" style="fill:#176d9c;stroke:#363636;stroke-linejoin:miter;stroke-width:0.5;"/>
   </g>
   <g id="patch_4">
    <path clip-path="url(#p581e19c727)" d="M 175.725 387.653502 
L 175.725 387.653502 
L 175.725 387.653502 
L 175.725 387.653502 
z
" style="fill:#c38820;stroke:#363636;stroke-linejoin:miter;stroke-width:0.5;"/>
   </g>
   <g id="line2d_7">
    <path clip-path="url(#p581e19c727)" d="M 142.503677 238.240093 
L 175.725 238.240093 
" style="fill:none;stroke:#363636;stroke-dasharray:1.5,1.5;stroke-dashoffset:0;"/>
   </g>
   <g id="line2d_8">
    <path clip-path="url(#p581e19c727)" d="M 125.941231 199.748851 
L 175.725 199.748851 
" style="fill:none;stroke:#363636;stroke-dasharray:3,3;stroke-dashoffset:0;"/>
   </g>
   <g id="line2d_9">
    <path clip-path="url(#p581e19c727)" d="M 132.888114 161.960798 
L 175.725 161.960798 
" style="fill:none;stroke:#363636;stroke-dasharray:1.5,1.5;stroke-dashoffset:0;"/>
   </g>
   <g id="line2d_10">
    <path clip-path="url(#p581e19c727)" d="M 175.725 226.840193 
L 224.815441 226.840193 
" style="fill:none;stroke:#363636;stroke-dasharray:1.5,1.5;stroke-dashoffset:0;"/>
   </g>
   <g id="line2d_11">
    <path clip-path="url(#p581e19c727)" d="M 175.725 196.131882 
L 231.208409 196.131882 
" style="fill:none;stroke:#363636;stroke-dasharray:3,3;stroke-dashoffset:0;"/>
   </g>
   <g id="line2d_12">
    <path clip-path="url(#p581e19c727)" d="M 175.725 161.960798 
L 223.028009 161.960798 
" style="fill:none;stroke:#363636;stroke-dasharray:1.5,1.5;stroke-dashoffset:0;"/>
   </g>
   <g id="line2d_13">
    <path clip-path="url(#p581e19c727)" d="M 277.226211 223.552162 
L 329.175 223.552162 
" style="fill:none;stroke:#363636;stroke-dasharray:1.5,1.5;stroke-dashoffset:0;"/>
   </g>
   <g id="line2d_14">
    <path clip-path="url(#p581e19c727)" d="M 268.786961 192.744696 
L 329.175 192.744696 
" style="fill:none;stroke:#363636;stroke-dasharray:3,3;stroke-dashoffset:0;"/>
   </g>
   <g id="line2d_15">
    <path clip-path="url(#p581e19c727)" d="M 287.78455 156.393168 
L 329.175 156.393168 
" style="fill:none;stroke:#363636;stroke-dasharray:1.5,1.5;stroke-dashoffset:0;"/>
   </g>
   <g id="line2d_16">
    <path clip-path="url(#p581e19c727)" d="M 329.175 226.840193 
L 378.607631 226.840193 
" style="fill:none;stroke:#363636;stroke-dasharray:1.5,1.5;stroke-dashoffset:0;"/>
   </g>
   <g id="line2d_17">
    <path clip-path="url(#p581e19c727)" d="M 329.175 196.131882 
L 378.868468 196.131882 
" style="fill:none;stroke:#363636;stroke-dasharray:3,3;stroke-dashoffset:0;"/>
   </g>
   <g id="line2d_18">
    <path clip-path="url(#p581e19c727)" d="M 329.175 153.50101 
L 357.678413 153.50101 
" style="fill:none;stroke:#363636;stroke-dasharray:1.5,1.5;stroke-dashoffset:0;"/>
   </g>
   <g id="line2d_19">
    <path clip-path="url(#p581e19c727)" d="M 448.013847 229.465571 
L 482.625 229.465571 
" style="fill:none;stroke:#363636;stroke-dasharray:1.5,1.5;stroke-dashoffset:0;"/>
   </g>
   <g id="line2d_20">
    <path clip-path="url(#p581e19c727)" d="M 455.125953 199.748851 
L 482.625 199.748851 
" style="fill:none;stroke:#363636;stroke-dasharray:3,3;stroke-dashoffset:0;"/>
   </g>
   <g id="line2d_21">
    <path clip-path="url(#p581e19c727)" d="M 453.279468 161.960798 
L 482.625 161.960798 
" style="fill:none;stroke:#363636;stroke-dasharray:1.5,1.5;stroke-dashoffset:0;"/>
   </g>
   <g id="line2d_22">
    <path clip-path="url(#p581e19c727)" d="M 482.625 217.768716 
L 523.426964 217.768716 
" style="fill:none;stroke:#363636;stroke-dasharray:1.5,1.5;stroke-dashoffset:0;"/>
   </g>
   <g id="line2d_23">
    <path clip-path="url(#p581e19c727)" d="M 482.625 179.624091 
L 543.3912 179.624091 
" style="fill:none;stroke:#363636;stroke-dasharray:3,3;stroke-dashoffset:0;"/>
   </g>
   <g id="line2d_24">
    <path clip-path="url(#p581e19c727)" d="M 482.625 161.960798 
L 517.39872 161.960798 
" style="fill:none;stroke:#363636;stroke-dasharray:1.5,1.5;stroke-dashoffset:0;"/>
   </g>
   <g id="line2d_25">
    <path clip-path="url(#p581e19c727)" d="M 602.473863 246.864244 
L 636.075 246.864244 
" style="fill:none;stroke:#363636;stroke-dasharray:1.5,1.5;stroke-dashoffset:0;"/>
   </g>
   <g id="line2d_26">
    <path clip-path="url(#p581e19c727)" d="M 587.336336 200.827446 
L 636.075 200.827446 
" style="fill:none;stroke:#363636;stroke-dasharray:3,3;stroke-dashoffset:0;"/>
   </g>
   <g id="line2d_27">
    <path clip-path="url(#p581e19c727)" d="M 587.990305 172.265615 
L 636.075 172.265615 
" style="fill:none;stroke:#363636;stroke-dasharray:1.5,1.5;stroke-dashoffset:0;"/>
   </g>
   <g id="line2d_28">
    <path clip-path="url(#p581e19c727)" d="M 636.075 238.240093 
L 669.996504 238.240093 
" style="fill:none;stroke:#363636;stroke-dasharray:1.5,1.5;stroke-dashoffset:0;"/>
   </g>
   <g id="line2d_29">
    <path clip-path="url(#p581e19c727)" d="M 636.075 199.748851 
L 693.054273 199.748851 
" style="fill:none;stroke:#363636;stroke-dasharray:3,3;stroke-dashoffset:0;"/>
   </g>
   <g id="line2d_30">
    <path clip-path="url(#p581e19c727)" d="M 636.075 172.265615 
L 687.795598 172.265615 
" style="fill:none;stroke:#363636;stroke-dasharray:1.5,1.5;stroke-dashoffset:0;"/>
   </g>
   <g id="legend_1">
    <g id="patch_5">
     <path d="M 641.160781 108.503594 
L 705.1 108.503594 
Q 707.3 108.503594 707.3 106.303594 
L 707.3 59.54 
Q 707.3 57.34 705.1 57.34 
L 641.160781 57.34 
Q 638.960781 57.34 638.960781 59.54 
L 638.960781 106.303594 
Q 638.960781 108.503594 641.160781 108.503594 
z
" style="fill:#ffffff;opacity:0.8;stroke:#cccccc;stroke-linejoin:miter;"/>
    </g>
    <g id="text_13">
     <!-- inst_single -->
     <g style="fill:#262626;" transform="translate(644.781328 70.329375)scale(0.12 -0.12)">
      <defs>
       <path d="M 6.640625 61.46875 
L 6.640625 71.578125 
L 15.4375 71.578125 
L 15.4375 61.46875 
z
M 6.640625 0 
L 6.640625 51.859375 
L 15.4375 51.859375 
L 15.4375 0 
z
" id="ArialMT-105"/>
       <path d="M 3.078125 15.484375 
L 11.765625 16.84375 
Q 12.5 11.625 15.84375 8.84375 
Q 19.1875 6.0625 25.203125 6.0625 
Q 31.25 6.0625 34.171875 8.515625 
Q 37.109375 10.984375 37.109375 14.3125 
Q 37.109375 17.28125 34.515625 19 
Q 32.71875 20.171875 25.53125 21.96875 
Q 15.875 24.421875 12.140625 26.203125 
Q 8.40625 27.984375 6.46875 31.125 
Q 4.546875 34.28125 4.546875 38.09375 
Q 4.546875 41.546875 6.125 44.5 
Q 7.71875 47.46875 10.453125 49.421875 
Q 12.5 50.921875 16.03125 51.96875 
Q 19.578125 53.03125 23.640625 53.03125 
Q 29.734375 53.03125 34.34375 51.265625 
Q 38.96875 49.515625 41.15625 46.5 
Q 43.359375 43.5 44.1875 38.484375 
L 35.59375 37.3125 
Q 35.015625 41.3125 32.203125 43.546875 
Q 29.390625 45.796875 24.265625 45.796875 
Q 18.21875 45.796875 15.625 43.796875 
Q 13.03125 41.796875 13.03125 39.109375 
Q 13.03125 37.40625 14.109375 36.03125 
Q 15.1875 34.625 17.484375 33.6875 
Q 18.796875 33.203125 25.25 31.453125 
Q 34.578125 28.953125 38.25 27.359375 
Q 41.9375 25.78125 44.03125 22.75 
Q 46.140625 19.734375 46.140625 15.234375 
Q 46.140625 10.84375 43.578125 6.953125 
Q 41.015625 3.078125 36.171875 0.953125 
Q 31.34375 -1.171875 25.25 -1.171875 
Q 15.140625 -1.171875 9.84375 3.03125 
Q 4.546875 7.234375 3.078125 15.484375 
z
" id="ArialMT-115"/>
       <path d="M 4.984375 -4.296875 
L 13.53125 -5.5625 
Q 14.0625 -9.515625 16.5 -11.328125 
Q 19.78125 -13.765625 25.4375 -13.765625 
Q 31.546875 -13.765625 34.859375 -11.328125 
Q 38.1875 -8.890625 39.359375 -4.5 
Q 40.046875 -1.8125 39.984375 6.78125 
Q 34.234375 0 25.640625 0 
Q 14.9375 0 9.078125 7.71875 
Q 3.21875 15.4375 3.21875 26.21875 
Q 3.21875 33.640625 5.90625 39.90625 
Q 8.59375 46.1875 13.6875 49.609375 
Q 18.796875 53.03125 25.6875 53.03125 
Q 34.859375 53.03125 40.828125 45.609375 
L 40.828125 51.859375 
L 48.921875 51.859375 
L 48.921875 7.03125 
Q 48.921875 -5.078125 46.453125 -10.125 
Q 44 -15.1875 38.640625 -18.109375 
Q 33.296875 -21.046875 25.484375 -21.046875 
Q 16.21875 -21.046875 10.5 -16.875 
Q 4.78125 -12.703125 4.984375 -4.296875 
z
M 12.25 26.859375 
Q 12.25 16.65625 16.296875 11.96875 
Q 20.359375 7.28125 26.46875 7.28125 
Q 32.515625 7.28125 36.609375 11.9375 
Q 40.71875 16.609375 40.71875 26.5625 
Q 40.71875 36.078125 36.5 40.90625 
Q 32.28125 45.75 26.3125 45.75 
Q 20.453125 45.75 16.34375 40.984375 
Q 12.25 36.234375 12.25 26.859375 
z
" id="ArialMT-103"/>
       <path d="M 6.390625 0 
L 6.390625 71.578125 
L 15.1875 71.578125 
L 15.1875 0 
z
" id="ArialMT-108"/>
      </defs>
      <use xlink:href="#ArialMT-105"/>
      <use x="22.216797" xlink:href="#ArialMT-110"/>
      <use x="77.832031" xlink:href="#ArialMT-115"/>
      <use x="127.832031" xlink:href="#ArialMT-116"/>
      <use x="155.615234" xlink:href="#ArialMT-95"/>
      <use x="211.230469" xlink:href="#ArialMT-115"/>
      <use x="261.230469" xlink:href="#ArialMT-105"/>
      <use x="283.447266" xlink:href="#ArialMT-110"/>
      <use x="339.0625" xlink:href="#ArialMT-103"/>
      <use x="394.677734" xlink:href="#ArialMT-108"/>
      <use x="416.894531" xlink:href="#ArialMT-101"/>
     </g>
    </g>
    <g id="patch_6">
     <path d="M 643.360781 86.228594 
L 665.360781 86.228594 
L 665.360781 78.528594 
L 643.360781 78.528594 
z
" style="fill:#176d9c;stroke:#363636;stroke-linejoin:miter;stroke-width:0.5;"/>
    </g>
    <g id="text_14">
     <!-- inst -->
     <g style="fill:#262626;" transform="translate(674.160781 86.228594)scale(0.11 -0.11)">
      <use xlink:href="#ArialMT-105"/>
      <use x="22.216797" xlink:href="#ArialMT-110"/>
      <use x="77.832031" xlink:href="#ArialMT-115"/>
      <use x="127.832031" xlink:href="#ArialMT-116"/>
     </g>
    </g>
    <g id="patch_7">
     <path d="M 643.360781 101.788437 
L 665.360781 101.788437 
L 665.360781 94.088437 
L 643.360781 94.088437 
z
" style="fill:#c38820;stroke:#363636;stroke-linejoin:miter;stroke-width:0.5;"/>
    </g>
    <g id="text_15">
     <!-- single -->
     <g style="fill:#262626;" transform="translate(674.160781 101.788437)scale(0.11 -0.11)">
      <use xlink:href="#ArialMT-115"/>
      <use x="50" xlink:href="#ArialMT-105"/>
      <use x="72.216797" xlink:href="#ArialMT-110"/>
      <use x="127.832031" xlink:href="#ArialMT-103"/>
      <use x="183.447266" xlink:href="#ArialMT-108"/>
      <use x="205.664062" xlink:href="#ArialMT-101"/>
     </g>
    </g>
   </g>
  </g>
 </g>
 <defs>
  <clipPath id="p581e19c727">
   <rect height="326.16" width="613.8" x="99" y="51.84"/>
  </clipPath>
 </defs>
</svg>
