<?xml version="1.0" encoding="utf-8" standalone="no"?>
<!DOCTYPE svg PUBLIC "-//W3C//DTD SVG 1.1//EN"
  "http://www.w3.org/Graphics/SVG/1.1/DTD/svg11.dtd">
<!-- Created with matplotlib (https://matplotlib.org/) -->
<svg height="432pt" version="1.1" viewBox="0 0 792 432" width="792pt" xmlns="http://www.w3.org/2000/svg" xmlns:xlink="http://www.w3.org/1999/xlink">
 <metadata>
  <rdf:RDF xmlns:cc="http://creativecommons.org/ns#" xmlns:dc="http://purl.org/dc/elements/1.1/" xmlns:rdf="http://www.w3.org/1999/02/22-rdf-syntax-ns#">
   <cc:Work>
    <dc:type rdf:resource="http://purl.org/dc/dcmitype/StillImage"/>
    <dc:date>2021-08-19T08:04:50.526326</dc:date>
    <dc:format>image/svg+xml</dc:format>
    <dc:creator>
     <cc:Agent>
      <dc:title>Matplotlib v3.3.1, https://matplotlib.org/</dc:title>
     </cc:Agent>
    </dc:creator>
   </cc:Work>
  </rdf:RDF>
 </metadata>
 <defs>
  <style type="text/css">*{stroke-linecap:butt;stroke-linejoin:round;}</style>
 </defs>
 <g id="figure_1">
  <g id="patch_1">
   <path d="M 0 432 
L 792 432 
L 792 0 
L 0 0 
z
" style="fill:#ffffff;"/>
  </g>
  <g id="axes_1">
   <g id="patch_2">
    <path d="M 99 378 
L 712.8 378 
L 712.8 51.84 
L 99 51.84 
z
" style="fill:#ffffff;"/>
   </g>
   <g id="matplotlib.axis_1">
    <g id="xtick_1">
     <g id="text_1">
      <!-- 2000-2006 -->
      <g style="fill:#262626;" transform="translate(149.425547 395.373594)scale(0.11 -0.11)">
       <defs>
        <path d="M 50.34375 8.453125 
L 50.34375 0 
L 3.03125 0 
Q 2.9375 3.171875 4.046875 6.109375 
Q 5.859375 10.9375 9.828125 15.625 
Q 13.8125 20.3125 21.34375 26.46875 
Q 33.015625 36.03125 37.109375 41.625 
Q 41.21875 47.21875 41.21875 52.203125 
Q 41.21875 57.421875 37.46875 61 
Q 33.734375 64.59375 27.734375 64.59375 
Q 21.390625 64.59375 17.578125 60.78125 
Q 13.765625 56.984375 13.71875 50.25 
L 4.6875 51.171875 
Q 5.609375 61.28125 11.65625 66.578125 
Q 17.71875 71.875 27.9375 71.875 
Q 38.234375 71.875 44.234375 66.15625 
Q 50.25 60.453125 50.25 52 
Q 50.25 47.703125 48.484375 43.546875 
Q 46.734375 39.40625 42.65625 34.8125 
Q 38.578125 30.21875 29.109375 22.21875 
Q 21.1875 15.578125 18.9375 13.203125 
Q 16.703125 10.84375 15.234375 8.453125 
z
" id="ArialMT-50"/>
        <path d="M 4.15625 35.296875 
Q 4.15625 48 6.765625 55.734375 
Q 9.375 63.484375 14.515625 67.671875 
Q 19.671875 71.875 27.484375 71.875 
Q 33.25 71.875 37.59375 69.546875 
Q 41.9375 67.234375 44.765625 62.859375 
Q 47.609375 58.5 49.21875 52.21875 
Q 50.828125 45.953125 50.828125 35.296875 
Q 50.828125 22.703125 48.234375 14.96875 
Q 45.65625 7.234375 40.5 3 
Q 35.359375 -1.21875 27.484375 -1.21875 
Q 17.140625 -1.21875 11.234375 6.203125 
Q 4.15625 15.140625 4.15625 35.296875 
z
M 13.1875 35.296875 
Q 13.1875 17.671875 17.3125 11.828125 
Q 21.4375 6 27.484375 6 
Q 33.546875 6 37.671875 11.859375 
Q 41.796875 17.71875 41.796875 35.296875 
Q 41.796875 52.984375 37.671875 58.78125 
Q 33.546875 64.59375 27.390625 64.59375 
Q 21.34375 64.59375 17.71875 59.46875 
Q 13.1875 52.9375 13.1875 35.296875 
z
" id="ArialMT-48"/>
        <path d="M 3.171875 21.484375 
L 3.171875 30.328125 
L 30.171875 30.328125 
L 30.171875 21.484375 
z
" id="ArialMT-45"/>
        <path d="M 49.75 54.046875 
L 41.015625 53.375 
Q 39.84375 58.546875 37.703125 60.890625 
Q 34.125 64.65625 28.90625 64.65625 
Q 24.703125 64.65625 21.53125 62.3125 
Q 17.390625 59.28125 14.984375 53.46875 
Q 12.59375 47.65625 12.5 36.921875 
Q 15.671875 41.75 20.265625 44.09375 
Q 24.859375 46.4375 29.890625 46.4375 
Q 38.671875 46.4375 44.84375 39.96875 
Q 51.03125 33.5 51.03125 23.25 
Q 51.03125 16.5 48.125 10.71875 
Q 45.21875 4.9375 40.140625 1.859375 
Q 35.0625 -1.21875 28.609375 -1.21875 
Q 17.625 -1.21875 10.6875 6.859375 
Q 3.765625 14.9375 3.765625 33.5 
Q 3.765625 54.25 11.421875 63.671875 
Q 18.109375 71.875 29.4375 71.875 
Q 37.890625 71.875 43.28125 67.140625 
Q 48.6875 62.40625 49.75 54.046875 
z
M 13.875 23.1875 
Q 13.875 18.65625 15.796875 14.5 
Q 17.71875 10.359375 21.1875 8.171875 
Q 24.65625 6 28.46875 6 
Q 34.03125 6 38.03125 10.484375 
Q 42.046875 14.984375 42.046875 22.703125 
Q 42.046875 30.125 38.078125 34.390625 
Q 34.125 38.671875 28.125 38.671875 
Q 22.171875 38.671875 18.015625 34.390625 
Q 13.875 30.125 13.875 23.1875 
z
" id="ArialMT-54"/>
       </defs>
       <use xlink:href="#ArialMT-50"/>
       <use x="55.615234" xlink:href="#ArialMT-48"/>
       <use x="111.230469" xlink:href="#ArialMT-48"/>
       <use x="166.845703" xlink:href="#ArialMT-48"/>
       <use x="222.460938" xlink:href="#ArialMT-45"/>
       <use x="255.761719" xlink:href="#ArialMT-50"/>
       <use x="311.376953" xlink:href="#ArialMT-48"/>
       <use x="366.992188" xlink:href="#ArialMT-48"/>
       <use x="422.607422" xlink:href="#ArialMT-54"/>
      </g>
     </g>
    </g>
    <g id="xtick_2">
     <g id="text_2">
      <!-- 2007-2009 -->
      <g style="fill:#262626;" transform="translate(302.875547 395.373594)scale(0.11 -0.11)">
       <defs>
        <path d="M 4.734375 62.203125 
L 4.734375 70.65625 
L 51.078125 70.65625 
L 51.078125 63.8125 
Q 44.234375 56.546875 37.515625 44.484375 
Q 30.8125 32.421875 27.15625 19.671875 
Q 24.515625 10.6875 23.78125 0 
L 14.75 0 
Q 14.890625 8.453125 18.0625 20.40625 
Q 21.234375 32.375 27.171875 43.484375 
Q 33.109375 54.59375 39.796875 62.203125 
z
" id="ArialMT-55"/>
        <path d="M 5.46875 16.546875 
L 13.921875 17.328125 
Q 14.984375 11.375 18.015625 8.6875 
Q 21.046875 6 25.78125 6 
Q 29.828125 6 32.875 7.859375 
Q 35.9375 9.71875 37.890625 12.8125 
Q 39.84375 15.921875 41.15625 21.1875 
Q 42.484375 26.46875 42.484375 31.9375 
Q 42.484375 32.515625 42.4375 33.6875 
Q 39.796875 29.5 35.234375 26.875 
Q 30.671875 24.265625 25.34375 24.265625 
Q 16.453125 24.265625 10.296875 30.703125 
Q 4.15625 37.15625 4.15625 47.703125 
Q 4.15625 58.59375 10.578125 65.234375 
Q 17 71.875 26.65625 71.875 
Q 33.640625 71.875 39.421875 68.109375 
Q 45.21875 64.359375 48.21875 57.390625 
Q 51.21875 50.4375 51.21875 37.25 
Q 51.21875 23.53125 48.234375 15.40625 
Q 45.265625 7.28125 39.375 3.03125 
Q 33.5 -1.21875 25.59375 -1.21875 
Q 17.1875 -1.21875 11.859375 3.4375 
Q 6.546875 8.109375 5.46875 16.546875 
z
M 41.453125 48.140625 
Q 41.453125 55.71875 37.421875 60.15625 
Q 33.40625 64.59375 27.734375 64.59375 
Q 21.875 64.59375 17.53125 59.8125 
Q 13.1875 55.03125 13.1875 47.40625 
Q 13.1875 40.578125 17.3125 36.296875 
Q 21.4375 32.03125 27.484375 32.03125 
Q 33.59375 32.03125 37.515625 36.296875 
Q 41.453125 40.578125 41.453125 48.140625 
z
" id="ArialMT-57"/>
       </defs>
       <use xlink:href="#ArialMT-50"/>
       <use x="55.615234" xlink:href="#ArialMT-48"/>
       <use x="111.230469" xlink:href="#ArialMT-48"/>
       <use x="166.845703" xlink:href="#ArialMT-55"/>
       <use x="222.460938" xlink:href="#ArialMT-45"/>
       <use x="255.761719" xlink:href="#ArialMT-50"/>
       <use x="311.376953" xlink:href="#ArialMT-48"/>
       <use x="366.992188" xlink:href="#ArialMT-48"/>
       <use x="422.607422" xlink:href="#ArialMT-57"/>
      </g>
     </g>
    </g>
    <g id="xtick_3">
     <g id="text_3">
      <!-- 2010-2013 -->
      <g style="fill:#262626;" transform="translate(456.325547 395.373594)scale(0.11 -0.11)">
       <defs>
        <path d="M 37.25 0 
L 28.46875 0 
L 28.46875 56 
Q 25.296875 52.984375 20.140625 49.953125 
Q 14.984375 46.921875 10.890625 45.40625 
L 10.890625 53.90625 
Q 18.265625 57.375 23.78125 62.296875 
Q 29.296875 67.234375 31.59375 71.875 
L 37.25 71.875 
z
" id="ArialMT-49"/>
        <path d="M 4.203125 18.890625 
L 12.984375 20.0625 
Q 14.5 12.59375 18.140625 9.296875 
Q 21.78125 6 27 6 
Q 33.203125 6 37.46875 10.296875 
Q 41.75 14.59375 41.75 20.953125 
Q 41.75 27 37.796875 30.921875 
Q 33.84375 34.859375 27.734375 34.859375 
Q 25.25 34.859375 21.53125 33.890625 
L 22.515625 41.609375 
Q 23.390625 41.5 23.921875 41.5 
Q 29.546875 41.5 34.03125 44.421875 
Q 38.53125 47.359375 38.53125 53.46875 
Q 38.53125 58.296875 35.25 61.46875 
Q 31.984375 64.65625 26.8125 64.65625 
Q 21.6875 64.65625 18.265625 61.421875 
Q 14.84375 58.203125 13.875 51.765625 
L 5.078125 53.328125 
Q 6.6875 62.15625 12.390625 67.015625 
Q 18.109375 71.875 26.609375 71.875 
Q 32.46875 71.875 37.390625 69.359375 
Q 42.328125 66.84375 44.9375 62.5 
Q 47.5625 58.15625 47.5625 53.265625 
Q 47.5625 48.640625 45.0625 44.828125 
Q 42.578125 41.015625 37.703125 38.765625 
Q 44.046875 37.3125 47.5625 32.6875 
Q 51.078125 28.078125 51.078125 21.140625 
Q 51.078125 11.765625 44.234375 5.25 
Q 37.40625 -1.265625 26.953125 -1.265625 
Q 17.53125 -1.265625 11.296875 4.34375 
Q 5.078125 9.96875 4.203125 18.890625 
z
" id="ArialMT-51"/>
       </defs>
       <use xlink:href="#ArialMT-50"/>
       <use x="55.615234" xlink:href="#ArialMT-48"/>
       <use x="111.230469" xlink:href="#ArialMT-49"/>
       <use x="166.845703" xlink:href="#ArialMT-48"/>
       <use x="222.460938" xlink:href="#ArialMT-45"/>
       <use x="255.761719" xlink:href="#ArialMT-50"/>
       <use x="311.376953" xlink:href="#ArialMT-48"/>
       <use x="366.992188" xlink:href="#ArialMT-49"/>
       <use x="422.607422" xlink:href="#ArialMT-51"/>
      </g>
     </g>
    </g>
    <g id="xtick_4">
     <g id="text_4">
      <!-- 2014-2018 -->
      <g style="fill:#262626;" transform="translate(609.775547 395.373594)scale(0.11 -0.11)">
       <defs>
        <path d="M 32.328125 0 
L 32.328125 17.140625 
L 1.265625 17.140625 
L 1.265625 25.203125 
L 33.9375 71.578125 
L 41.109375 71.578125 
L 41.109375 25.203125 
L 50.78125 25.203125 
L 50.78125 17.140625 
L 41.109375 17.140625 
L 41.109375 0 
z
M 32.328125 25.203125 
L 32.328125 57.46875 
L 9.90625 25.203125 
z
" id="ArialMT-52"/>
        <path d="M 17.671875 38.8125 
Q 12.203125 40.828125 9.5625 44.53125 
Q 6.9375 48.25 6.9375 53.421875 
Q 6.9375 61.234375 12.546875 66.546875 
Q 18.171875 71.875 27.484375 71.875 
Q 36.859375 71.875 42.578125 66.421875 
Q 48.296875 60.984375 48.296875 53.171875 
Q 48.296875 48.1875 45.671875 44.5 
Q 43.0625 40.828125 37.75 38.8125 
Q 44.34375 36.671875 47.78125 31.875 
Q 51.21875 27.09375 51.21875 20.453125 
Q 51.21875 11.28125 44.71875 5.03125 
Q 38.234375 -1.21875 27.640625 -1.21875 
Q 17.046875 -1.21875 10.546875 5.046875 
Q 4.046875 11.328125 4.046875 20.703125 
Q 4.046875 27.6875 7.59375 32.390625 
Q 11.140625 37.109375 17.671875 38.8125 
z
M 15.921875 53.71875 
Q 15.921875 48.640625 19.1875 45.40625 
Q 22.46875 42.1875 27.6875 42.1875 
Q 32.765625 42.1875 36.015625 45.375 
Q 39.265625 48.578125 39.265625 53.21875 
Q 39.265625 58.0625 35.90625 61.359375 
Q 32.5625 64.65625 27.59375 64.65625 
Q 22.5625 64.65625 19.234375 61.421875 
Q 15.921875 58.203125 15.921875 53.71875 
z
M 13.09375 20.65625 
Q 13.09375 16.890625 14.875 13.375 
Q 16.65625 9.859375 20.171875 7.921875 
Q 23.6875 6 27.734375 6 
Q 34.03125 6 38.125 10.046875 
Q 42.234375 14.109375 42.234375 20.359375 
Q 42.234375 26.703125 38.015625 30.859375 
Q 33.796875 35.015625 27.4375 35.015625 
Q 21.234375 35.015625 17.15625 30.90625 
Q 13.09375 26.8125 13.09375 20.65625 
z
" id="ArialMT-56"/>
       </defs>
       <use xlink:href="#ArialMT-50"/>
       <use x="55.615234" xlink:href="#ArialMT-48"/>
       <use x="111.230469" xlink:href="#ArialMT-49"/>
       <use x="166.845703" xlink:href="#ArialMT-52"/>
       <use x="222.460938" xlink:href="#ArialMT-45"/>
       <use x="255.761719" xlink:href="#ArialMT-50"/>
       <use x="311.376953" xlink:href="#ArialMT-48"/>
       <use x="366.992188" xlink:href="#ArialMT-49"/>
       <use x="422.607422" xlink:href="#ArialMT-56"/>
      </g>
     </g>
    </g>
    <g id="text_5">
     <!-- year -->
     <g style="fill:#262626;" transform="translate(394.229063 410.008594)scale(0.12 -0.12)">
      <defs>
       <path d="M 6.203125 -19.96875 
L 5.21875 -11.71875 
Q 8.109375 -12.5 10.25 -12.5 
Q 13.1875 -12.5 14.9375 -11.515625 
Q 16.703125 -10.546875 17.828125 -8.796875 
Q 18.65625 -7.46875 20.515625 -2.25 
Q 20.75 -1.515625 21.296875 -0.09375 
L 1.609375 51.859375 
L 11.078125 51.859375 
L 21.875 21.828125 
Q 23.96875 16.109375 25.640625 9.8125 
Q 27.15625 15.875 29.25 21.625 
L 40.328125 51.859375 
L 49.125 51.859375 
L 29.390625 -0.875 
Q 26.21875 -9.421875 24.46875 -12.640625 
Q 22.125 -17 19.09375 -19.015625 
Q 16.0625 -21.046875 11.859375 -21.046875 
Q 9.328125 -21.046875 6.203125 -19.96875 
z
" id="ArialMT-121"/>
       <path d="M 42.09375 16.703125 
L 51.171875 15.578125 
Q 49.03125 7.625 43.21875 3.21875 
Q 37.40625 -1.171875 28.375 -1.171875 
Q 17 -1.171875 10.328125 5.828125 
Q 3.65625 12.84375 3.65625 25.484375 
Q 3.65625 38.578125 10.390625 45.796875 
Q 17.140625 53.03125 27.875 53.03125 
Q 38.28125 53.03125 44.875 45.953125 
Q 51.46875 38.875 51.46875 26.03125 
Q 51.46875 25.25 51.421875 23.6875 
L 12.75 23.6875 
Q 13.234375 15.140625 17.578125 10.59375 
Q 21.921875 6.0625 28.421875 6.0625 
Q 33.25 6.0625 36.671875 8.59375 
Q 40.09375 11.140625 42.09375 16.703125 
z
M 13.234375 30.90625 
L 42.1875 30.90625 
Q 41.609375 37.453125 38.875 40.71875 
Q 34.671875 45.796875 27.984375 45.796875 
Q 21.921875 45.796875 17.796875 41.75 
Q 13.671875 37.703125 13.234375 30.90625 
z
" id="ArialMT-101"/>
       <path d="M 40.4375 6.390625 
Q 35.546875 2.25 31.03125 0.53125 
Q 26.515625 -1.171875 21.34375 -1.171875 
Q 12.796875 -1.171875 8.203125 3 
Q 3.609375 7.171875 3.609375 13.671875 
Q 3.609375 17.484375 5.34375 20.625 
Q 7.078125 23.78125 9.890625 25.6875 
Q 12.703125 27.59375 16.21875 28.5625 
Q 18.796875 29.25 24.03125 29.890625 
Q 34.671875 31.15625 39.703125 32.90625 
Q 39.75 34.71875 39.75 35.203125 
Q 39.75 40.578125 37.25 42.78125 
Q 33.890625 45.75 27.25 45.75 
Q 21.046875 45.75 18.09375 43.578125 
Q 15.140625 41.40625 13.71875 35.890625 
L 5.125 37.0625 
Q 6.296875 42.578125 8.984375 45.96875 
Q 11.671875 49.359375 16.75 51.1875 
Q 21.828125 53.03125 28.515625 53.03125 
Q 35.15625 53.03125 39.296875 51.46875 
Q 43.453125 49.90625 45.40625 47.53125 
Q 47.359375 45.171875 48.140625 41.546875 
Q 48.578125 39.3125 48.578125 33.453125 
L 48.578125 21.734375 
Q 48.578125 9.46875 49.140625 6.21875 
Q 49.703125 2.984375 51.375 0 
L 42.1875 0 
Q 40.828125 2.734375 40.4375 6.390625 
z
M 39.703125 26.03125 
Q 34.90625 24.078125 25.34375 22.703125 
Q 19.921875 21.921875 17.671875 20.9375 
Q 15.4375 19.96875 14.203125 18.09375 
Q 12.984375 16.21875 12.984375 13.921875 
Q 12.984375 10.40625 15.640625 8.0625 
Q 18.3125 5.71875 23.4375 5.71875 
Q 28.515625 5.71875 32.46875 7.9375 
Q 36.421875 10.15625 38.28125 14.015625 
Q 39.703125 17 39.703125 22.796875 
z
" id="ArialMT-97"/>
       <path d="M 6.5 0 
L 6.5 51.859375 
L 14.40625 51.859375 
L 14.40625 44 
Q 17.4375 49.515625 20 51.265625 
Q 22.5625 53.03125 25.640625 53.03125 
Q 30.078125 53.03125 34.671875 50.203125 
L 31.640625 42.046875 
Q 28.421875 43.953125 25.203125 43.953125 
Q 22.3125 43.953125 20.015625 42.21875 
Q 17.71875 40.484375 16.75 37.40625 
Q 15.28125 32.71875 15.28125 27.15625 
L 15.28125 0 
z
" id="ArialMT-114"/>
      </defs>
      <use xlink:href="#ArialMT-121"/>
      <use x="50" xlink:href="#ArialMT-101"/>
      <use x="105.615234" xlink:href="#ArialMT-97"/>
      <use x="161.230469" xlink:href="#ArialMT-114"/>
     </g>
    </g>
   </g>
   <g id="matplotlib.axis_2">
    <g id="ytick_1">
     <g id="line2d_1">
      <path clip-path="url(#p0c10ab028e)" d="M 99 362.338586 
L 712.8 362.338586 
" style="fill:none;stroke:#cccccc;stroke-linecap:round;"/>
     </g>
     <g id="text_6">
      <!-- 0.1 -->
      <g style="fill:#262626;" transform="translate(74.21 366.275383)scale(0.11 -0.11)">
       <defs>
        <path d="M 9.078125 0 
L 9.078125 10.015625 
L 19.09375 10.015625 
L 19.09375 0 
z
" id="ArialMT-46"/>
       </defs>
       <use xlink:href="#ArialMT-48"/>
       <use x="55.615234" xlink:href="#ArialMT-46"/>
       <use x="83.398438" xlink:href="#ArialMT-49"/>
      </g>
     </g>
    </g>
    <g id="ytick_2">
     <g id="line2d_2">
      <path clip-path="url(#p0c10ab028e)" d="M 99 300.145415 
L 712.8 300.145415 
" style="fill:none;stroke:#cccccc;stroke-linecap:round;"/>
     </g>
     <g id="text_7">
      <!-- 0.2 -->
      <g style="fill:#262626;" transform="translate(74.21 304.082212)scale(0.11 -0.11)">
       <use xlink:href="#ArialMT-48"/>
       <use x="55.615234" xlink:href="#ArialMT-46"/>
       <use x="83.398438" xlink:href="#ArialMT-50"/>
      </g>
     </g>
    </g>
    <g id="ytick_3">
     <g id="line2d_3">
      <path clip-path="url(#p0c10ab028e)" d="M 99 237.952244 
L 712.8 237.952244 
" style="fill:none;stroke:#cccccc;stroke-linecap:round;"/>
     </g>
     <g id="text_8">
      <!-- 0.3 -->
      <g style="fill:#262626;" transform="translate(74.21 241.88904)scale(0.11 -0.11)">
       <use xlink:href="#ArialMT-48"/>
       <use x="55.615234" xlink:href="#ArialMT-46"/>
       <use x="83.398438" xlink:href="#ArialMT-51"/>
      </g>
     </g>
    </g>
    <g id="ytick_4">
     <g id="line2d_4">
      <path clip-path="url(#p0c10ab028e)" d="M 99 175.759072 
L 712.8 175.759072 
" style="fill:none;stroke:#cccccc;stroke-linecap:round;"/>
     </g>
     <g id="text_9">
      <!-- 0.4 -->
      <g style="fill:#262626;" transform="translate(74.21 179.695869)scale(0.11 -0.11)">
       <use xlink:href="#ArialMT-48"/>
       <use x="55.615234" xlink:href="#ArialMT-46"/>
       <use x="83.398438" xlink:href="#ArialMT-52"/>
      </g>
     </g>
    </g>
    <g id="ytick_5">
     <g id="line2d_5">
      <path clip-path="url(#p0c10ab028e)" d="M 99 113.565901 
L 712.8 113.565901 
" style="fill:none;stroke:#cccccc;stroke-linecap:round;"/>
     </g>
     <g id="text_10">
      <!-- 0.5 -->
      <g style="fill:#262626;" transform="translate(74.21 117.502698)scale(0.11 -0.11)">
       <defs>
        <path d="M 4.15625 18.75 
L 13.375 19.53125 
Q 14.40625 12.796875 18.140625 9.390625 
Q 21.875 6 27.15625 6 
Q 33.5 6 37.890625 10.78125 
Q 42.28125 15.578125 42.28125 23.484375 
Q 42.28125 31 38.0625 35.34375 
Q 33.84375 39.703125 27 39.703125 
Q 22.75 39.703125 19.328125 37.765625 
Q 15.921875 35.84375 13.96875 32.765625 
L 5.71875 33.84375 
L 12.640625 70.609375 
L 48.25 70.609375 
L 48.25 62.203125 
L 19.671875 62.203125 
L 15.828125 42.96875 
Q 22.265625 47.46875 29.34375 47.46875 
Q 38.71875 47.46875 45.15625 40.96875 
Q 51.609375 34.46875 51.609375 24.265625 
Q 51.609375 14.546875 45.953125 7.46875 
Q 39.0625 -1.21875 27.15625 -1.21875 
Q 17.390625 -1.21875 11.203125 4.25 
Q 5.03125 9.71875 4.15625 18.75 
z
" id="ArialMT-53"/>
       </defs>
       <use xlink:href="#ArialMT-48"/>
       <use x="55.615234" xlink:href="#ArialMT-46"/>
       <use x="83.398438" xlink:href="#ArialMT-53"/>
      </g>
     </g>
    </g>
    <g id="text_11">
     <!-- per_poverty -->
     <g style="fill:#262626;" transform="translate(67.684375 246.601875)rotate(-90)scale(0.12 -0.12)">
      <defs>
       <path d="M 6.59375 -19.875 
L 6.59375 51.859375 
L 14.59375 51.859375 
L 14.59375 45.125 
Q 17.4375 49.078125 21 51.046875 
Q 24.5625 53.03125 29.640625 53.03125 
Q 36.28125 53.03125 41.359375 49.609375 
Q 46.4375 46.1875 49.015625 39.953125 
Q 51.609375 33.734375 51.609375 26.3125 
Q 51.609375 18.359375 48.75 11.984375 
Q 45.90625 5.609375 40.453125 2.21875 
Q 35.015625 -1.171875 29 -1.171875 
Q 24.609375 -1.171875 21.109375 0.6875 
Q 17.625 2.546875 15.375 5.375 
L 15.375 -19.875 
z
M 14.546875 25.640625 
Q 14.546875 15.625 18.59375 10.84375 
Q 22.65625 6.0625 28.421875 6.0625 
Q 34.28125 6.0625 38.453125 11.015625 
Q 42.625 15.96875 42.625 26.375 
Q 42.625 36.28125 38.546875 41.203125 
Q 34.46875 46.140625 28.8125 46.140625 
Q 23.1875 46.140625 18.859375 40.890625 
Q 14.546875 35.640625 14.546875 25.640625 
z
" id="ArialMT-112"/>
       <path d="M -1.515625 -19.875 
L -1.515625 -13.53125 
L 56.734375 -13.53125 
L 56.734375 -19.875 
z
" id="ArialMT-95"/>
       <path d="M 3.328125 25.921875 
Q 3.328125 40.328125 11.328125 47.265625 
Q 18.015625 53.03125 27.640625 53.03125 
Q 38.328125 53.03125 45.109375 46.015625 
Q 51.90625 39.015625 51.90625 26.65625 
Q 51.90625 16.65625 48.90625 10.90625 
Q 45.90625 5.171875 40.15625 2 
Q 34.421875 -1.171875 27.640625 -1.171875 
Q 16.75 -1.171875 10.03125 5.8125 
Q 3.328125 12.796875 3.328125 25.921875 
z
M 12.359375 25.921875 
Q 12.359375 15.96875 16.703125 11.015625 
Q 21.046875 6.0625 27.640625 6.0625 
Q 34.1875 6.0625 38.53125 11.03125 
Q 42.875 16.015625 42.875 26.21875 
Q 42.875 35.84375 38.5 40.796875 
Q 34.125 45.75 27.640625 45.75 
Q 21.046875 45.75 16.703125 40.8125 
Q 12.359375 35.890625 12.359375 25.921875 
z
" id="ArialMT-111"/>
       <path d="M 21 0 
L 1.265625 51.859375 
L 10.546875 51.859375 
L 21.6875 20.796875 
Q 23.484375 15.765625 25 10.359375 
Q 26.171875 14.453125 28.265625 20.21875 
L 39.796875 51.859375 
L 48.828125 51.859375 
L 29.203125 0 
z
" id="ArialMT-118"/>
       <path d="M 25.78125 7.859375 
L 27.046875 0.09375 
Q 23.34375 -0.6875 20.40625 -0.6875 
Q 15.625 -0.6875 12.984375 0.828125 
Q 10.359375 2.34375 9.28125 4.8125 
Q 8.203125 7.28125 8.203125 15.1875 
L 8.203125 45.015625 
L 1.765625 45.015625 
L 1.765625 51.859375 
L 8.203125 51.859375 
L 8.203125 64.703125 
L 16.9375 69.96875 
L 16.9375 51.859375 
L 25.78125 51.859375 
L 25.78125 45.015625 
L 16.9375 45.015625 
L 16.9375 14.703125 
Q 16.9375 10.9375 17.40625 9.859375 
Q 17.875 8.796875 18.921875 8.15625 
Q 19.96875 7.515625 21.921875 7.515625 
Q 23.390625 7.515625 25.78125 7.859375 
z
" id="ArialMT-116"/>
      </defs>
      <use xlink:href="#ArialMT-112"/>
      <use x="55.615234" xlink:href="#ArialMT-101"/>
      <use x="111.230469" xlink:href="#ArialMT-114"/>
      <use x="144.53125" xlink:href="#ArialMT-95"/>
      <use x="200.146484" xlink:href="#ArialMT-112"/>
      <use x="255.761719" xlink:href="#ArialMT-111"/>
      <use x="311.376953" xlink:href="#ArialMT-118"/>
      <use x="361.376953" xlink:href="#ArialMT-101"/>
      <use x="416.992188" xlink:href="#ArialMT-114"/>
      <use x="450.292969" xlink:href="#ArialMT-116"/>
      <use x="478.076172" xlink:href="#ArialMT-121"/>
     </g>
    </g>
   </g>
   <g id="PolyCollection_1">
    <defs>
     <path d="M 175.725 -68.848413 
L 171.418568 -68.848413 
L 169.62139 -71.843223 
L 167.367483 -74.838032 
L 164.653882 -77.832842 
L 161.520636 -80.827651 
L 158.059605 -83.82246 
L 154.418762 -86.81727 
L 150.7986 -89.812079 
L 147.437049 -92.806889 
L 144.580821 -95.801698 
L 142.444775 -98.796508 
L 141.166233 -101.791317 
L 140.765923 -104.786126 
L 141.128903 -107.780936 
L 142.015158 -110.775745 
L 143.100811 -113.770555 
L 144.039938 -116.765364 
L 144.528671 -119.760173 
L 144.352168 -122.754983 
L 143.402495 -125.749792 
L 141.668478 -128.744602 
L 139.210559 -131.739411 
L 136.138076 -134.73422 
L 132.60053 -137.72903 
L 128.79173 -140.723839 
L 124.954121 -143.718649 
L 121.367849 -146.713458 
L 118.317604 -149.708268 
L 116.044887 -152.703077 
L 114.704634 -155.697886 
L 114.345 -158.692696 
L 114.917115 -161.687505 
L 116.305159 -164.682315 
L 118.357111 -167.677124 
L 120.899706 -170.671933 
L 123.735288 -173.666743 
L 126.63347 -176.661552 
L 129.336097 -179.656362 
L 131.585733 -182.651171 
L 133.171243 -185.645981 
L 133.97028 -188.64079 
L 133.967302 -191.635599 
L 133.238397 -194.630409 
L 131.912955 -197.625218 
L 130.135185 -200.620028 
L 128.047376 -203.614837 
L 125.802285 -206.609646 
L 123.592698 -209.604456 
L 121.673749 -212.599265 
L 120.35513 -215.594075 
L 119.954936 -218.588884 
L 120.726616 -221.583694 
L 122.785055 -224.578503 
L 126.060423 -227.573312 
L 130.298585 -230.568122 
L 135.109711 -233.562931 
L 140.049894 -236.557741 
L 144.710483 -239.55255 
L 148.789479 -242.547359 
L 152.127755 -245.542169 
L 154.705991 -248.536978 
L 156.61086 -251.531788 
L 157.986588 -254.526597 
L 158.98855 -257.521407 
L 159.750062 -260.516216 
L 160.365631 -263.511025 
L 160.887555 -266.505835 
L 161.330476 -269.500644 
L 161.679913 -272.495454 
L 161.903514 -275.490263 
L 161.965148 -278.485072 
L 161.840798 -281.479882 
L 161.532655 -284.474691 
L 161.076086 -287.469501 
L 160.535095 -290.46431 
L 159.985792 -293.459119 
L 159.492545 -296.453929 
L 159.08555 -299.448738 
L 158.749359 -302.443548 
L 158.428742 -305.438357 
L 158.052085 -308.433167 
L 157.565506 -311.427976 
L 156.965885 -314.422785 
L 156.320104 -317.417595 
L 155.76179 -320.412404 
L 155.464444 -323.407214 
L 155.598275 -326.402023 
L 156.284072 -329.396832 
L 157.558716 -332.391642 
L 159.362903 -335.386451 
L 161.554049 -338.381261 
L 163.93909 -341.37607 
L 166.316123 -344.37088 
L 168.512461 -347.365689 
L 170.409614 -350.360498 
L 171.951333 -353.355308 
L 173.136645 -356.350117 
L 174.00359 -359.344927 
L 174.610433 -362.339736 
L 175.019636 -365.334545 
L 175.725 -365.334545 
L 175.725 -365.334545 
L 175.725 -362.339736 
L 175.725 -359.344927 
L 175.725 -356.350117 
L 175.725 -353.355308 
L 175.725 -350.360498 
L 175.725 -347.365689 
L 175.725 -344.37088 
L 175.725 -341.37607 
L 175.725 -338.381261 
L 175.725 -335.386451 
L 175.725 -332.391642 
L 175.725 -329.396832 
L 175.725 -326.402023 
L 175.725 -323.407214 
L 175.725 -320.412404 
L 175.725 -317.417595 
L 175.725 -314.422785 
L 175.725 -311.427976 
L 175.725 -308.433167 
L 175.725 -305.438357 
L 175.725 -302.443548 
L 175.725 -299.448738 
L 175.725 -296.453929 
L 175.725 -293.459119 
L 175.725 -290.46431 
L 175.725 -287.469501 
L 175.725 -284.474691 
L 175.725 -281.479882 
L 175.725 -278.485072 
L 175.725 -275.490263 
L 175.725 -272.495454 
L 175.725 -269.500644 
L 175.725 -266.505835 
L 175.725 -263.511025 
L 175.725 -260.516216 
L 175.725 -257.521407 
L 175.725 -254.526597 
L 175.725 -251.531788 
L 175.725 -248.536978 
L 175.725 -245.542169 
L 175.725 -242.547359 
L 175.725 -239.55255 
L 175.725 -236.557741 
L 175.725 -233.562931 
L 175.725 -230.568122 
L 175.725 -227.573312 
L 175.725 -224.578503 
L 175.725 -221.583694 
L 175.725 -218.588884 
L 175.725 -215.594075 
L 175.725 -212.599265 
L 175.725 -209.604456 
L 175.725 -206.609646 
L 175.725 -203.614837 
L 175.725 -200.620028 
L 175.725 -197.625218 
L 175.725 -194.630409 
L 175.725 -191.635599 
L 175.725 -188.64079 
L 175.725 -185.645981 
L 175.725 -182.651171 
L 175.725 -179.656362 
L 175.725 -176.661552 
L 175.725 -173.666743 
L 175.725 -170.671933 
L 175.725 -167.677124 
L 175.725 -164.682315 
L 175.725 -161.687505 
L 175.725 -158.692696 
L 175.725 -155.697886 
L 175.725 -152.703077 
L 175.725 -149.708268 
L 175.725 -146.713458 
L 175.725 -143.718649 
L 175.725 -140.723839 
L 175.725 -137.72903 
L 175.725 -134.73422 
L 175.725 -131.739411 
L 175.725 -128.744602 
L 175.725 -125.749792 
L 175.725 -122.754983 
L 175.725 -119.760173 
L 175.725 -116.765364 
L 175.725 -113.770555 
L 175.725 -110.775745 
L 175.725 -107.780936 
L 175.725 -104.786126 
L 175.725 -101.791317 
L 175.725 -98.796508 
L 175.725 -95.801698 
L 175.725 -92.806889 
L 175.725 -89.812079 
L 175.725 -86.81727 
L 175.725 -83.82246 
L 175.725 -80.827651 
L 175.725 -77.832842 
L 175.725 -74.838032 
L 175.725 -71.843223 
L 175.725 -68.848413 
z
" id="m30db8f1db4" style="stroke:#363636;"/>
    </defs>
    <g clip-path="url(#p0c10ab028e)">
     <use style="fill:#176d9c;stroke:#363636;" x="0" xlink:href="#m30db8f1db4" y="432"/>
    </g>
   </g>
   <g id="PolyCollection_2">
    <defs>
     <path d="M 183.466344 -69.523245 
L 175.725 -69.523245 
L 175.725 -72.300584 
L 175.725 -75.077923 
L 175.725 -77.855262 
L 175.725 -80.632601 
L 175.725 -83.40994 
L 175.725 -86.187279 
L 175.725 -88.964618 
L 175.725 -91.741957 
L 175.725 -94.519296 
L 175.725 -97.296635 
L 175.725 -100.073974 
L 175.725 -102.851314 
L 175.725 -105.628653 
L 175.725 -108.405992 
L 175.725 -111.183331 
L 175.725 -113.96067 
L 175.725 -116.738009 
L 175.725 -119.515348 
L 175.725 -122.292687 
L 175.725 -125.070026 
L 175.725 -127.847365 
L 175.725 -130.624704 
L 175.725 -133.402043 
L 175.725 -136.179382 
L 175.725 -138.956722 
L 175.725 -141.734061 
L 175.725 -144.5114 
L 175.725 -147.288739 
L 175.725 -150.066078 
L 175.725 -152.843417 
L 175.725 -155.620756 
L 175.725 -158.398095 
L 175.725 -161.175434 
L 175.725 -163.952773 
L 175.725 -166.730112 
L 175.725 -169.507451 
L 175.725 -172.284791 
L 175.725 -175.06213 
L 175.725 -177.839469 
L 175.725 -180.616808 
L 175.725 -183.394147 
L 175.725 -186.171486 
L 175.725 -188.948825 
L 175.725 -191.726164 
L 175.725 -194.503503 
L 175.725 -197.280842 
L 175.725 -200.058181 
L 175.725 -202.83552 
L 175.725 -205.61286 
L 175.725 -208.390199 
L 175.725 -211.167538 
L 175.725 -213.944877 
L 175.725 -216.722216 
L 175.725 -219.499555 
L 175.725 -222.276894 
L 175.725 -225.054233 
L 175.725 -227.831572 
L 175.725 -230.608911 
L 175.725 -233.38625 
L 175.725 -236.163589 
L 175.725 -238.940929 
L 175.725 -241.718268 
L 175.725 -244.495607 
L 175.725 -247.272946 
L 175.725 -250.050285 
L 175.725 -252.827624 
L 175.725 -255.604963 
L 175.725 -258.382302 
L 175.725 -261.159641 
L 175.725 -263.93698 
L 175.725 -266.714319 
L 175.725 -269.491658 
L 175.725 -272.268998 
L 175.725 -275.046337 
L 175.725 -277.823676 
L 175.725 -280.601015 
L 175.725 -283.378354 
L 175.725 -286.155693 
L 175.725 -288.933032 
L 175.725 -291.710371 
L 175.725 -294.48771 
L 175.725 -297.265049 
L 175.725 -300.042388 
L 175.725 -302.819727 
L 175.725 -305.597066 
L 175.725 -308.374406 
L 175.725 -311.151745 
L 175.725 -313.929084 
L 175.725 -316.706423 
L 175.725 -319.483762 
L 175.725 -322.261101 
L 175.725 -325.03844 
L 175.725 -327.815779 
L 175.725 -330.593118 
L 175.725 -333.370457 
L 175.725 -336.147796 
L 175.725 -338.925135 
L 175.725 -341.702475 
L 175.725 -344.479814 
L 180.915893 -344.479814 
L 180.915893 -344.479814 
L 182.380669 -341.702475 
L 183.909582 -338.925135 
L 185.392947 -336.147796 
L 186.716416 -333.370457 
L 187.781621 -330.593118 
L 188.524754 -327.815779 
L 188.927848 -325.03844 
L 189.019462 -322.261101 
L 188.864608 -319.483762 
L 188.546992 -316.706423 
L 188.148831 -313.929084 
L 187.733976 -311.151745 
L 187.33865 -308.374406 
L 186.971508 -305.597066 
L 186.621786 -302.819727 
L 186.271988 -300.042388 
L 185.910602 -297.265049 
L 185.540792 -294.48771 
L 185.182684 -291.710371 
L 184.869144 -288.933032 
L 184.637076 -286.155693 
L 184.517692 -283.378354 
L 184.529314 -280.601015 
L 184.675116 -277.823676 
L 184.946173 -275.046337 
L 185.328084 -272.268998 
L 185.808287 -269.491658 
L 186.381571 -266.714319 
L 187.052778 -263.93698 
L 187.837504 -261.159641 
L 188.762294 -258.382302 
L 189.865053 -255.604963 
L 191.194638 -252.827624 
L 192.807176 -250.050285 
L 194.756994 -247.272946 
L 197.082132 -244.495607 
L 199.7875 -241.718268 
L 202.830901 -238.940929 
L 206.117259 -236.163589 
L 209.504237 -233.38625 
L 212.818945 -230.608911 
L 215.882127 -227.831572 
L 218.534157 -225.054233 
L 220.656775 -222.276894 
L 222.185674 -219.499555 
L 223.111557 -216.722216 
L 223.47059 -213.944877 
L 223.328743 -211.167538 
L 222.766922 -208.390199 
L 221.873666 -205.61286 
L 220.748555 -202.83552 
L 219.513283 -200.058181 
L 218.321322 -197.280842 
L 217.354875 -194.503503 
L 216.801929 -191.726164 
L 216.815806 -188.948825 
L 217.470464 -186.171486 
L 218.730853 -183.394147 
L 220.454493 -180.616808 
L 222.428263 -177.839469 
L 224.428485 -175.06213 
L 226.28097 -172.284791 
L 227.897202 -169.507451 
L 229.274185 -166.730112 
L 230.462992 -163.952773 
L 231.525268 -161.175434 
L 232.500193 -158.398095 
L 233.395121 -155.620756 
L 234.197272 -152.843417 
L 234.891123 -150.066078 
L 235.464363 -147.288739 
L 235.895343 -144.5114 
L 236.130239 -141.734061 
L 236.068784 -138.956722 
L 235.576059 -136.179382 
L 234.524518 -133.402043 
L 232.852571 -130.624704 
L 230.613909 -127.847365 
L 227.992613 -125.070026 
L 225.272844 -122.292687 
L 222.771498 -119.515348 
L 220.757645 -116.738009 
L 219.386619 -113.96067 
L 218.668431 -111.183331 
L 218.474995 -108.405992 
L 218.576656 -105.628653 
L 218.69175 -102.851314 
L 218.534716 -100.073974 
L 217.855229 -97.296635 
L 216.467502 -94.519296 
L 214.271628 -91.741957 
L 211.267237 -88.964618 
L 207.556604 -86.187279 
L 203.333174 -83.40994 
L 198.853941 -80.632601 
L 194.399281 -77.855262 
L 190.228848 -75.077923 
L 186.544153 -72.300584 
L 183.466344 -69.523245 
z
" id="m81829b3457" style="stroke:#363636;"/>
    </defs>
    <g clip-path="url(#p0c10ab028e)">
     <use style="fill:#c38820;stroke:#363636;" x="0" xlink:href="#m81829b3457" y="432"/>
    </g>
   </g>
   <g id="PolyCollection_3">
    <defs>
     <path d="M 329.175 -68.993076 
L 326.564118 -68.993076 
L 325.408125 -71.781126 
L 323.904585 -74.569175 
L 322.024383 -77.357225 
L 319.769468 -80.145274 
L 317.184558 -82.933324 
L 314.364758 -85.721374 
L 311.45558 -88.509423 
L 308.642678 -91.297473 
L 306.130608 -94.085522 
L 304.112738 -96.873572 
L 302.737391 -99.661621 
L 302.077319 -102.449671 
L 302.110054 -105.23772 
L 302.714872 -108.02577 
L 303.688445 -110.81382 
L 304.776402 -113.601869 
L 305.713562 -116.389919 
L 306.262997 -119.177968 
L 306.244638 -121.966018 
L 305.547987 -124.754067 
L 304.129418 -127.542117 
L 302.000217 -130.330166 
L 299.214231 -133.118216 
L 295.862257 -135.906265 
L 292.074711 -138.694315 
L 288.02742 -141.482365 
L 283.941353 -144.270414 
L 280.068448 -147.058464 
L 276.66227 -149.846513 
L 273.940644 -152.634563 
L 272.053065 -155.422612 
L 271.064698 -158.210662 
L 270.961476 -160.998711 
L 271.670795 -163.786761 
L 273.085411 -166.574811 
L 275.078421 -169.36286 
L 277.50447 -172.15091 
L 280.192301 -174.938959 
L 282.940255 -177.727009 
L 285.525344 -180.515058 
L 287.728523 -183.303108 
L 289.368479 -186.091157 
L 290.32999 -188.879207 
L 290.574534 -191.667257 
L 290.129661 -194.455306 
L 289.064738 -197.243356 
L 287.467678 -200.031405 
L 285.43606 -202.819455 
L 283.087208 -205.607504 
L 280.580012 -208.395554 
L 278.132931 -211.183603 
L 276.022219 -213.971653 
L 274.552287 -216.759703 
L 274.002461 -219.547752 
L 274.565437 -222.335802 
L 276.297508 -225.123851 
L 279.097468 -227.911901 
L 282.721635 -230.69995 
L 286.830821 -233.488 
L 291.055607 -236.276049 
L 295.062021 -239.064099 
L 298.601424 -241.852148 
L 301.534852 -244.640198 
L 303.830545 -247.428248 
L 305.541059 -250.216297 
L 306.770605 -253.004347 
L 307.643303 -255.792396 
L 308.279382 -258.580446 
L 308.781177 -261.368495 
L 309.226605 -264.156545 
L 309.666295 -266.944594 
L 310.121922 -269.732644 
L 310.58602 -272.520694 
L 311.025563 -275.308743 
L 311.391443 -278.096793 
L 311.63358 -280.884842 
L 311.718157 -283.672892 
L 311.641324 -286.460941 
L 311.433909 -289.248991 
L 311.154465 -292.03704 
L 310.87212 -294.82509 
L 310.644661 -297.61314 
L 310.499373 -300.401189 
L 310.423717 -303.189239 
L 310.369951 -305.977288 
L 310.273293 -308.765338 
L 310.07856 -311.553387 
L 309.767038 -314.341437 
L 309.374624 -317.129486 
L 308.994559 -319.917536 
L 308.762625 -322.705586 
L 308.8281 -325.493635 
L 309.318323 -328.281685 
L 310.306777 -331.069734 
L 311.79358 -333.857784 
L 313.703433 -336.645833 
L 315.900859 -339.433883 
L 318.217689 -342.221932 
L 320.48483 -345.009982 
L 329.175 -345.009982 
L 329.175 -345.009982 
L 329.175 -342.221932 
L 329.175 -339.433883 
L 329.175 -336.645833 
L 329.175 -333.857784 
L 329.175 -331.069734 
L 329.175 -328.281685 
L 329.175 -325.493635 
L 329.175 -322.705586 
L 329.175 -319.917536 
L 329.175 -317.129486 
L 329.175 -314.341437 
L 329.175 -311.553387 
L 329.175 -308.765338 
L 329.175 -305.977288 
L 329.175 -303.189239 
L 329.175 -300.401189 
L 329.175 -297.61314 
L 329.175 -294.82509 
L 329.175 -292.03704 
L 329.175 -289.248991 
L 329.175 -286.460941 
L 329.175 -283.672892 
L 329.175 -280.884842 
L 329.175 -278.096793 
L 329.175 -275.308743 
L 329.175 -272.520694 
L 329.175 -269.732644 
L 329.175 -266.944594 
L 329.175 -264.156545 
L 329.175 -261.368495 
L 329.175 -258.580446 
L 329.175 -255.792396 
L 329.175 -253.004347 
L 329.175 -250.216297 
L 329.175 -247.428248 
L 329.175 -244.640198 
L 329.175 -241.852148 
L 329.175 -239.064099 
L 329.175 -236.276049 
L 329.175 -233.488 
L 329.175 -230.69995 
L 329.175 -227.911901 
L 329.175 -225.123851 
L 329.175 -222.335802 
L 329.175 -219.547752 
L 329.175 -216.759703 
L 329.175 -213.971653 
L 329.175 -211.183603 
L 329.175 -208.395554 
L 329.175 -205.607504 
L 329.175 -202.819455 
L 329.175 -200.031405 
L 329.175 -197.243356 
L 329.175 -194.455306 
L 329.175 -191.667257 
L 329.175 -188.879207 
L 329.175 -186.091157 
L 329.175 -183.303108 
L 329.175 -180.515058 
L 329.175 -177.727009 
L 329.175 -174.938959 
L 329.175 -172.15091 
L 329.175 -169.36286 
L 329.175 -166.574811 
L 329.175 -163.786761 
L 329.175 -160.998711 
L 329.175 -158.210662 
L 329.175 -155.422612 
L 329.175 -152.634563 
L 329.175 -149.846513 
L 329.175 -147.058464 
L 329.175 -144.270414 
L 329.175 -141.482365 
L 329.175 -138.694315 
L 329.175 -135.906265 
L 329.175 -133.118216 
L 329.175 -130.330166 
L 329.175 -127.542117 
L 329.175 -124.754067 
L 329.175 -121.966018 
L 329.175 -119.177968 
L 329.175 -116.389919 
L 329.175 -113.601869 
L 329.175 -110.81382 
L 329.175 -108.02577 
L 329.175 -105.23772 
L 329.175 -102.449671 
L 329.175 -99.661621 
L 329.175 -96.873572 
L 329.175 -94.085522 
L 329.175 -91.297473 
L 329.175 -88.509423 
L 329.175 -85.721374 
L 329.175 -82.933324 
L 329.175 -80.145274 
L 329.175 -77.357225 
L 329.175 -74.569175 
L 329.175 -71.781126 
L 329.175 -68.993076 
z
" id="m9a051f27e1" style="stroke:#363636;"/>
    </defs>
    <g clip-path="url(#p0c10ab028e)">
     <use style="fill:#176d9c;stroke:#363636;" x="0" xlink:href="#m9a051f27e1" y="432"/>
    </g>
   </g>
   <g id="PolyCollection_4">
    <defs>
     <path d="M 340.093206 -74.697322 
L 329.175 -74.697322 
L 329.175 -77.427954 
L 329.175 -80.158586 
L 329.175 -82.889218 
L 329.175 -85.61985 
L 329.175 -88.350482 
L 329.175 -91.081114 
L 329.175 -93.811746 
L 329.175 -96.542378 
L 329.175 -99.27301 
L 329.175 -102.003642 
L 329.175 -104.734274 
L 329.175 -107.464906 
L 329.175 -110.195538 
L 329.175 -112.92617 
L 329.175 -115.656802 
L 329.175 -118.387433 
L 329.175 -121.118065 
L 329.175 -123.848697 
L 329.175 -126.579329 
L 329.175 -129.309961 
L 329.175 -132.040593 
L 329.175 -134.771225 
L 329.175 -137.501857 
L 329.175 -140.232489 
L 329.175 -142.963121 
L 329.175 -145.693753 
L 329.175 -148.424385 
L 329.175 -151.155017 
L 329.175 -153.885649 
L 329.175 -156.616281 
L 329.175 -159.346913 
L 329.175 -162.077545 
L 329.175 -164.808177 
L 329.175 -167.538809 
L 329.175 -170.269441 
L 329.175 -173.000073 
L 329.175 -175.730705 
L 329.175 -178.461337 
L 329.175 -181.191969 
L 329.175 -183.922601 
L 329.175 -186.653233 
L 329.175 -189.383865 
L 329.175 -192.114497 
L 329.175 -194.845128 
L 329.175 -197.57576 
L 329.175 -200.306392 
L 329.175 -203.037024 
L 329.175 -205.767656 
L 329.175 -208.498288 
L 329.175 -211.22892 
L 329.175 -213.959552 
L 329.175 -216.690184 
L 329.175 -219.420816 
L 329.175 -222.151448 
L 329.175 -224.88208 
L 329.175 -227.612712 
L 329.175 -230.343344 
L 329.175 -233.073976 
L 329.175 -235.804608 
L 329.175 -238.53524 
L 329.175 -241.265872 
L 329.175 -243.996504 
L 329.175 -246.727136 
L 329.175 -249.457768 
L 329.175 -252.1884 
L 329.175 -254.919032 
L 329.175 -257.649664 
L 329.175 -260.380296 
L 329.175 -263.110928 
L 329.175 -265.84156 
L 329.175 -268.572192 
L 329.175 -271.302823 
L 329.175 -274.033455 
L 329.175 -276.764087 
L 329.175 -279.494719 
L 329.175 -282.225351 
L 329.175 -284.955983 
L 329.175 -287.686615 
L 329.175 -290.417247 
L 329.175 -293.147879 
L 329.175 -295.878511 
L 329.175 -298.609143 
L 329.175 -301.339775 
L 329.175 -304.070407 
L 329.175 -306.801039 
L 329.175 -309.531671 
L 329.175 -312.262303 
L 329.175 -314.992935 
L 329.175 -317.723567 
L 329.175 -320.454199 
L 329.175 -323.184831 
L 329.175 -325.915463 
L 329.175 -328.646095 
L 329.175 -331.376727 
L 329.175 -334.107359 
L 329.175 -336.837991 
L 329.175 -339.568623 
L 329.175 -342.299255 
L 329.175 -345.029887 
L 336.175425 -345.029887 
L 336.175425 -345.029887 
L 338.01398 -342.299255 
L 339.914577 -339.568623 
L 341.743549 -336.837991 
L 343.359652 -334.107359 
L 344.637395 -331.376727 
L 345.489785 -328.646095 
L 345.884741 -325.915463 
L 345.850665 -323.184831 
L 345.469392 -320.454199 
L 344.858157 -317.723567 
L 344.145238 -314.992935 
L 343.445616 -312.262303 
L 342.842661 -309.531671 
L 342.379777 -306.801039 
L 342.062802 -304.070407 
L 341.87078 -301.339775 
L 341.770657 -298.609143 
L 341.730915 -295.878511 
L 341.730303 -293.147879 
L 341.760011 -290.417247 
L 341.820155 -287.686615 
L 341.913278 -284.955983 
L 342.038309 -282.225351 
L 342.187805 -279.494719 
L 342.34963 -276.764087 
L 342.51234 -274.033455 
L 342.672103 -271.302823 
L 342.838642 -268.572192 
L 343.038511 -265.84156 
L 343.315318 -263.110928 
L 343.727703 -260.380296 
L 344.346035 -257.649664 
L 345.248072 -254.919032 
L 346.512713 -252.1884 
L 348.210409 -249.457768 
L 350.389518 -246.727136 
L 353.059799 -243.996504 
L 356.176586 -241.265872 
L 359.630769 -238.53524 
L 363.249566 -235.804608 
L 366.811033 -233.073976 
L 370.071696 -230.343344 
L 372.802834 -227.612712 
L 374.827841 -224.88208 
L 376.05186 -222.151448 
L 376.476003 -219.420816 
L 376.192027 -216.690184 
L 375.358589 -213.959552 
L 374.165672 -211.22892 
L 372.797665 -208.498288 
L 371.405995 -205.767656 
L 370.098656 -203.037024 
L 368.947371 -200.306392 
L 368.00608 -197.57576 
L 367.330105 -194.845128 
L 366.98584 -192.114497 
L 367.046069 -189.383865 
L 367.5735 -186.653233 
L 368.601103 -183.922601 
L 370.119109 -181.191969 
L 372.074548 -178.461337 
L 374.38205 -175.730705 
L 376.93841 -173.000073 
L 379.631878 -170.269441 
L 382.341139 -167.538809 
L 384.926588 -164.808177 
L 387.222999 -162.077545 
L 389.044118 -159.346913 
L 390.204551 -156.616281 
L 390.555 -153.885649 
L 390.018545 -151.155017 
L 388.61297 -148.424385 
L 386.449114 -145.693753 
L 383.705405 -142.963121 
L 380.589036 -140.232489 
L 377.299268 -137.501857 
L 374.00574 -134.771225 
L 370.846118 -132.040593 
L 367.937521 -129.309961 
L 365.390077 -126.579329 
L 363.31128 -123.848697 
L 361.795873 -121.118065 
L 360.904156 -118.387433 
L 360.637759 -115.656802 
L 360.923337 -112.92617 
L 361.611408 -110.195538 
L 362.491694 -107.464906 
L 363.32097 -104.734274 
L 363.856468 -102.003642 
L 363.887926 -99.27301 
L 363.263345 -96.542378 
L 361.905825 -93.811746 
L 359.82054 -91.081114 
L 357.091724 -88.350482 
L 353.870038 -85.61985 
L 350.351598 -82.889218 
L 346.751323 -80.158586 
L 343.274748 -77.427954 
L 340.093206 -74.697322 
z
" id="m6d4765bcb9" style="stroke:#363636;"/>
    </defs>
    <g clip-path="url(#p0c10ab028e)">
     <use style="fill:#c38820;stroke:#363636;" x="0" xlink:href="#m6d4765bcb9" y="432"/>
    </g>
   </g>
   <g id="PolyCollection_5">
    <defs>
     <path d="M 482.625 -68.825455 
L 477.539148 -68.825455 
L 475.761473 -71.61689 
L 473.650055 -74.408326 
L 471.240084 -77.199762 
L 468.600657 -79.991198 
L 465.835603 -82.782634 
L 463.080505 -85.57407 
L 460.494823 -88.365505 
L 458.248234 -91.156941 
L 456.501171 -93.948377 
L 455.381239 -96.739813 
L 454.959271 -99.531249 
L 455.230383 -102.322685 
L 456.105574 -105.114121 
L 457.417575 -107.905556 
L 458.941134 -110.696992 
L 460.423677 -113.488428 
L 461.619068 -116.279864 
L 462.316289 -119.0713 
L 462.357 -121.862736 
L 461.640412 -124.654172 
L 460.119069 -127.445607 
L 457.792573 -130.237043 
L 454.706292 -133.028479 
L 450.958181 -135.819915 
L 446.710596 -138.611351 
L 442.198435 -141.402787 
L 437.723181 -144.194222 
L 433.626273 -146.985658 
L 430.243378 -149.777094 
L 427.85017 -152.56853 
L 426.615383 -155.359966 
L 426.575449 -158.151402 
L 427.63712 -160.942838 
L 429.60408 -163.734273 
L 432.215719 -166.525709 
L 435.184771 -169.317145 
L 438.225527 -172.108581 
L 441.07231 -174.900017 
L 443.493846 -177.691453 
L 445.309655 -180.482889 
L 446.409643 -183.274324 
L 446.77132 -186.06576 
L 446.46512 -188.857196 
L 445.64033 -191.648632 
L 444.491606 -194.440068 
L 443.21509 -197.231504 
L 441.968893 -200.022939 
L 440.851758 -202.814375 
L 439.906339 -205.605811 
L 439.143217 -208.397247 
L 438.573416 -211.188683 
L 438.234592 -213.980119 
L 438.199864 -216.771555 
L 438.566279 -219.56299 
L 439.428202 -222.354426 
L 440.846138 -225.145862 
L 442.822079 -227.937298 
L 445.289194 -230.728734 
L 448.118282 -233.52017 
L 451.138277 -236.311605 
L 454.164579 -239.103041 
L 457.027746 -241.894477 
L 459.596083 -244.685913 
L 461.788175 -247.477349 
L 463.574635 -250.268785 
L 464.971188 -253.060221 
L 466.026748 -255.851656 
L 466.810135 -258.643092 
L 467.397765 -261.434528 
L 467.863041 -264.225964 
L 468.26722 -267.0174 
L 468.651749 -269.808836 
L 469.032958 -272.600272 
L 469.400833 -275.391707 
L 469.723359 -278.183143 
L 469.956489 -280.974579 
L 470.057694 -283.766015 
L 469.999313 -286.557451 
L 469.77752 -289.348887 
L 469.413971 -292.140322 
L 468.949668 -294.931758 
L 468.433283 -297.723194 
L 467.908217 -300.51463 
L 467.403074 -303.306066 
L 466.929059 -306.097502 
L 466.485325 -308.888938 
L 466.070365 -311.680373 
L 465.695244 -314.471809 
L 465.393486 -317.263245 
L 465.223307 -320.054681 
L 465.260284 -322.846117 
L 465.581767 -325.637553 
L 466.247245 -328.428989 
L 467.280472 -331.220424 
L 468.658806 -334.01186 
L 470.313099 -336.803296 
L 472.138251 -339.594732 
L 474.011415 -342.386168 
L 475.812835 -345.177604 
L 482.625 -345.177604 
L 482.625 -345.177604 
L 482.625 -342.386168 
L 482.625 -339.594732 
L 482.625 -336.803296 
L 482.625 -334.01186 
L 482.625 -331.220424 
L 482.625 -328.428989 
L 482.625 -325.637553 
L 482.625 -322.846117 
L 482.625 -320.054681 
L 482.625 -317.263245 
L 482.625 -314.471809 
L 482.625 -311.680373 
L 482.625 -308.888938 
L 482.625 -306.097502 
L 482.625 -303.306066 
L 482.625 -300.51463 
L 482.625 -297.723194 
L 482.625 -294.931758 
L 482.625 -292.140322 
L 482.625 -289.348887 
L 482.625 -286.557451 
L 482.625 -283.766015 
L 482.625 -280.974579 
L 482.625 -278.183143 
L 482.625 -275.391707 
L 482.625 -272.600272 
L 482.625 -269.808836 
L 482.625 -267.0174 
L 482.625 -264.225964 
L 482.625 -261.434528 
L 482.625 -258.643092 
L 482.625 -255.851656 
L 482.625 -253.060221 
L 482.625 -250.268785 
L 482.625 -247.477349 
L 482.625 -244.685913 
L 482.625 -241.894477 
L 482.625 -239.103041 
L 482.625 -236.311605 
L 482.625 -233.52017 
L 482.625 -230.728734 
L 482.625 -227.937298 
L 482.625 -225.145862 
L 482.625 -222.354426 
L 482.625 -219.56299 
L 482.625 -216.771555 
L 482.625 -213.980119 
L 482.625 -211.188683 
L 482.625 -208.397247 
L 482.625 -205.605811 
L 482.625 -202.814375 
L 482.625 -200.022939 
L 482.625 -197.231504 
L 482.625 -194.440068 
L 482.625 -191.648632 
L 482.625 -188.857196 
L 482.625 -186.06576 
L 482.625 -183.274324 
L 482.625 -180.482889 
L 482.625 -177.691453 
L 482.625 -174.900017 
L 482.625 -172.108581 
L 482.625 -169.317145 
L 482.625 -166.525709 
L 482.625 -163.734273 
L 482.625 -160.942838 
L 482.625 -158.151402 
L 482.625 -155.359966 
L 482.625 -152.56853 
L 482.625 -149.777094 
L 482.625 -146.985658 
L 482.625 -144.194222 
L 482.625 -141.402787 
L 482.625 -138.611351 
L 482.625 -135.819915 
L 482.625 -133.028479 
L 482.625 -130.237043 
L 482.625 -127.445607 
L 482.625 -124.654172 
L 482.625 -121.862736 
L 482.625 -119.0713 
L 482.625 -116.279864 
L 482.625 -113.488428 
L 482.625 -110.696992 
L 482.625 -107.905556 
L 482.625 -105.114121 
L 482.625 -102.322685 
L 482.625 -99.531249 
L 482.625 -96.739813 
L 482.625 -93.948377 
L 482.625 -91.156941 
L 482.625 -88.365505 
L 482.625 -85.57407 
L 482.625 -82.782634 
L 482.625 -79.991198 
L 482.625 -77.199762 
L 482.625 -74.408326 
L 482.625 -71.61689 
L 482.625 -68.825455 
z
" id="m7dbb3b7617" style="stroke:#363636;"/>
    </defs>
    <g clip-path="url(#p0c10ab028e)">
     <use style="fill:#176d9c;stroke:#363636;" x="0" xlink:href="#m7dbb3b7617" y="432"/>
    </g>
   </g>
   <g id="PolyCollection_6">
    <defs>
     <path d="M 485.984599 -69.938315 
L 482.625 -69.938315 
L 482.625 -72.707269 
L 482.625 -75.476223 
L 482.625 -78.245177 
L 482.625 -81.014131 
L 482.625 -83.783085 
L 482.625 -86.552038 
L 482.625 -89.320992 
L 482.625 -92.089946 
L 482.625 -94.8589 
L 482.625 -97.627854 
L 482.625 -100.396807 
L 482.625 -103.165761 
L 482.625 -105.934715 
L 482.625 -108.703669 
L 482.625 -111.472623 
L 482.625 -114.241576 
L 482.625 -117.01053 
L 482.625 -119.779484 
L 482.625 -122.548438 
L 482.625 -125.317392 
L 482.625 -128.086345 
L 482.625 -130.855299 
L 482.625 -133.624253 
L 482.625 -136.393207 
L 482.625 -139.162161 
L 482.625 -141.931115 
L 482.625 -144.700068 
L 482.625 -147.469022 
L 482.625 -150.237976 
L 482.625 -153.00693 
L 482.625 -155.775884 
L 482.625 -158.544837 
L 482.625 -161.313791 
L 482.625 -164.082745 
L 482.625 -166.851699 
L 482.625 -169.620653 
L 482.625 -172.389606 
L 482.625 -175.15856 
L 482.625 -177.927514 
L 482.625 -180.696468 
L 482.625 -183.465422 
L 482.625 -186.234376 
L 482.625 -189.003329 
L 482.625 -191.772283 
L 482.625 -194.541237 
L 482.625 -197.310191 
L 482.625 -200.079145 
L 482.625 -202.848098 
L 482.625 -205.617052 
L 482.625 -208.386006 
L 482.625 -211.15496 
L 482.625 -213.923914 
L 482.625 -216.692867 
L 482.625 -219.461821 
L 482.625 -222.230775 
L 482.625 -224.999729 
L 482.625 -227.768683 
L 482.625 -230.537636 
L 482.625 -233.30659 
L 482.625 -236.075544 
L 482.625 -238.844498 
L 482.625 -241.613452 
L 482.625 -244.382406 
L 482.625 -247.151359 
L 482.625 -249.920313 
L 482.625 -252.689267 
L 482.625 -255.458221 
L 482.625 -258.227175 
L 482.625 -260.996128 
L 482.625 -263.765082 
L 482.625 -266.534036 
L 482.625 -269.30299 
L 482.625 -272.071944 
L 482.625 -274.840897 
L 482.625 -277.609851 
L 482.625 -280.378805 
L 482.625 -283.147759 
L 482.625 -285.916713 
L 482.625 -288.685666 
L 482.625 -291.45462 
L 482.625 -294.223574 
L 482.625 -296.992528 
L 482.625 -299.761482 
L 482.625 -302.530436 
L 482.625 -305.299389 
L 482.625 -308.068343 
L 482.625 -310.837297 
L 482.625 -313.606251 
L 482.625 -316.375205 
L 482.625 -319.144158 
L 482.625 -321.913112 
L 482.625 -324.682066 
L 482.625 -327.45102 
L 482.625 -330.219974 
L 482.625 -332.988927 
L 482.625 -335.757881 
L 482.625 -338.526835 
L 482.625 -341.295789 
L 482.625 -344.064743 
L 489.361556 -344.064743 
L 489.361556 -344.064743 
L 491.038611 -341.295789 
L 492.644958 -338.526835 
L 494.029165 -335.757881 
L 495.069388 -332.988927 
L 495.704129 -330.219974 
L 495.948521 -327.45102 
L 495.889932 -324.682066 
L 495.663794 -321.913112 
L 495.417412 -319.144158 
L 495.273235 -316.375205 
L 495.302331 -313.606251 
L 495.514455 -310.837297 
L 495.865252 -308.068343 
L 496.276233 -305.299389 
L 496.660406 -302.530436 
L 496.946285 -299.761482 
L 497.094554 -296.992528 
L 497.104211 -294.223574 
L 497.007901 -291.45462 
L 496.858857 -288.685666 
L 496.714104 -285.916713 
L 496.61962 -283.147759 
L 496.602427 -280.378805 
L 496.671914 -277.609851 
L 496.82874 -274.840897 
L 497.07631 -272.071944 
L 497.428675 -269.30299 
L 497.910917 -266.534036 
L 498.552503 -263.765082 
L 499.3783 -260.996128 
L 500.403198 -258.227175 
L 501.633706 -255.458221 
L 503.07486 -252.689267 
L 504.736786 -249.920313 
L 506.634836 -247.151359 
L 508.78095 -244.382406 
L 511.16926 -241.613452 
L 513.762654 -238.844498 
L 516.48678 -236.075544 
L 519.234464 -233.30659 
L 521.879161 -230.537636 
L 524.293377 -227.768683 
L 526.367489 -224.999729 
L 528.025079 -222.230775 
L 529.231291 -219.461821 
L 529.991144 -216.692867 
L 530.336661 -213.923914 
L 530.306237 -211.15496 
L 529.925456 -208.386006 
L 529.201606 -205.617052 
L 528.140331 -202.848098 
L 526.781796 -200.079145 
L 525.240303 -197.310191 
L 523.723677 -194.541237 
L 522.513488 -191.772283 
L 521.904202 -189.003329 
L 522.120922 -186.234376 
L 523.24952 -183.465422 
L 525.210701 -180.696468 
L 527.79021 -177.927514 
L 530.710388 -175.15856 
L 533.70796 -172.389606 
L 536.581127 -169.620653 
L 539.187434 -166.851699 
L 541.402698 -164.082745 
L 543.074233 -161.313791 
L 544.005 -158.544837 
L 543.986821 -155.775884 
L 542.870721 -153.00693 
L 540.63842 -150.237976 
L 537.434985 -147.469022 
L 533.541227 -144.700068 
L 529.294957 -141.931115 
L 524.99579 -139.162161 
L 520.835245 -136.393207 
L 516.879823 -133.624253 
L 513.108326 -130.855299 
L 509.480146 -128.086345 
L 506.000193 -125.317392 
L 502.751909 -122.548438 
L 499.887267 -119.779484 
L 497.581956 -117.01053 
L 495.976656 -114.241576 
L 495.127436 -111.472623 
L 494.981474 -108.703669 
L 495.383091 -105.934715 
L 496.104732 -103.165761 
L 496.89129 -100.396807 
L 497.505045 -97.627854 
L 497.761324 -94.8589 
L 497.549723 -92.089946 
L 496.840183 -89.320992 
L 495.676165 -86.552038 
L 494.158413 -83.783085 
L 492.422999 -81.014131 
L 490.617271 -78.245177 
L 488.877315 -75.476223 
L 487.310345 -72.707269 
L 485.984599 -69.938315 
z
" id="m1289bf2ef9" style="stroke:#363636;"/>
    </defs>
    <g clip-path="url(#p0c10ab028e)">
     <use style="fill:#c38820;stroke:#363636;" x="0" xlink:href="#m1289bf2ef9" y="432"/>
    </g>
   </g>
   <g id="PolyCollection_7">
    <defs>
     <path d="M 636.075 -68.885679 
L 631.378423 -68.885679 
L 629.402378 -71.675898 
L 626.896762 -74.466117 
L 623.844193 -77.256337 
L 620.275534 -80.046556 
L 616.280305 -82.836775 
L 612.010768 -85.626994 
L 607.676938 -88.417213 
L 603.530653 -91.207432 
L 599.83846 -93.997652 
L 596.845489 -96.787871 
L 594.73533 -99.57809 
L 593.593548 -102.368309 
L 593.383851 -105.158528 
L 593.94486 -107.948748 
L 595.011445 -110.738967 
L 596.258263 -113.529186 
L 597.356165 -116.319405 
L 598.027413 -119.109624 
L 598.085313 -121.899844 
L 597.448961 -124.690063 
L 596.132612 -127.480282 
L 594.218267 -130.270501 
L 591.825347 -133.06072 
L 589.090121 -135.85094 
L 586.160437 -138.641159 
L 583.201661 -141.431378 
L 580.402795 -144.221597 
L 577.971166 -147.011816 
L 576.110459 -149.802036 
L 574.986746 -152.592255 
L 574.695 -155.382474 
L 575.23987 -158.172693 
L 576.538392 -160.962912 
L 578.442229 -163.753132 
L 580.768609 -166.543351 
L 583.327133 -169.33357 
L 585.934638 -172.123789 
L 588.419134 -174.914008 
L 590.620696 -177.704228 
L 592.398117 -180.494447 
L 593.644636 -183.284666 
L 594.307829 -186.074885 
L 594.403183 -188.865104 
L 594.011595 -191.655324 
L 593.258149 -194.445543 
L 592.279042 -197.235762 
L 591.19017 -200.025981 
L 590.070764 -202.8162 
L 588.968491 -205.606419 
L 587.922102 -208.396639 
L 586.989289 -211.186858 
L 586.264947 -213.977077 
L 585.879521 -216.767296 
L 585.976117 -219.557515 
L 586.674239 -222.347735 
L 588.033477 -225.137954 
L 590.030358 -227.928173 
L 592.556502 -230.718392 
L 595.43871 -233.508611 
L 598.474523 -236.298831 
L 601.472453 -239.08905 
L 604.285516 -241.879269 
L 606.82966 -244.669488 
L 609.083995 -247.459707 
L 611.075498 -250.249927 
L 612.855213 -253.040146 
L 614.474421 -255.830365 
L 615.967696 -258.620584 
L 617.345957 -261.410803 
L 618.59855 -264.201023 
L 619.700727 -266.991242 
L 620.622494 -269.781461 
L 621.336281 -272.57168 
L 621.822883 -275.361899 
L 622.076308 -278.152119 
L 622.107956 -280.942338 
L 621.949389 -283.732557 
L 621.651883 -286.522776 
L 621.280989 -289.312995 
L 620.905734 -292.103215 
L 620.584312 -294.893434 
L 620.350184 -297.683653 
L 620.203316 -300.473872 
L 620.1104 -303.264091 
L 620.015486 -306.05431 
L 619.859109 -308.84453 
L 619.601051 -311.634749 
L 619.240087 -314.424968 
L 618.824366 -317.215187 
L 618.4484 -320.005406 
L 618.2364 -322.795626 
L 618.315783 -325.585845 
L 618.787721 -328.376064 
L 619.702635 -331.166283 
L 621.047124 -333.956502 
L 622.745491 -336.746722 
L 624.674841 -339.536941 
L 626.689094 -342.32716 
L 628.645325 -345.117379 
L 636.075 -345.117379 
L 636.075 -345.117379 
L 636.075 -342.32716 
L 636.075 -339.536941 
L 636.075 -336.746722 
L 636.075 -333.956502 
L 636.075 -331.166283 
L 636.075 -328.376064 
L 636.075 -325.585845 
L 636.075 -322.795626 
L 636.075 -320.005406 
L 636.075 -317.215187 
L 636.075 -314.424968 
L 636.075 -311.634749 
L 636.075 -308.84453 
L 636.075 -306.05431 
L 636.075 -303.264091 
L 636.075 -300.473872 
L 636.075 -297.683653 
L 636.075 -294.893434 
L 636.075 -292.103215 
L 636.075 -289.312995 
L 636.075 -286.522776 
L 636.075 -283.732557 
L 636.075 -280.942338 
L 636.075 -278.152119 
L 636.075 -275.361899 
L 636.075 -272.57168 
L 636.075 -269.781461 
L 636.075 -266.991242 
L 636.075 -264.201023 
L 636.075 -261.410803 
L 636.075 -258.620584 
L 636.075 -255.830365 
L 636.075 -253.040146 
L 636.075 -250.249927 
L 636.075 -247.459707 
L 636.075 -244.669488 
L 636.075 -241.879269 
L 636.075 -239.08905 
L 636.075 -236.298831 
L 636.075 -233.508611 
L 636.075 -230.718392 
L 636.075 -227.928173 
L 636.075 -225.137954 
L 636.075 -222.347735 
L 636.075 -219.557515 
L 636.075 -216.767296 
L 636.075 -213.977077 
L 636.075 -211.186858 
L 636.075 -208.396639 
L 636.075 -205.606419 
L 636.075 -202.8162 
L 636.075 -200.025981 
L 636.075 -197.235762 
L 636.075 -194.445543 
L 636.075 -191.655324 
L 636.075 -188.865104 
L 636.075 -186.074885 
L 636.075 -183.284666 
L 636.075 -180.494447 
L 636.075 -177.704228 
L 636.075 -174.914008 
L 636.075 -172.123789 
L 636.075 -169.33357 
L 636.075 -166.543351 
L 636.075 -163.753132 
L 636.075 -160.962912 
L 636.075 -158.172693 
L 636.075 -155.382474 
L 636.075 -152.592255 
L 636.075 -149.802036 
L 636.075 -147.011816 
L 636.075 -144.221597 
L 636.075 -141.431378 
L 636.075 -138.641159 
L 636.075 -135.85094 
L 636.075 -133.06072 
L 636.075 -130.270501 
L 636.075 -127.480282 
L 636.075 -124.690063 
L 636.075 -121.899844 
L 636.075 -119.109624 
L 636.075 -116.319405 
L 636.075 -113.529186 
L 636.075 -110.738967 
L 636.075 -107.948748 
L 636.075 -105.158528 
L 636.075 -102.368309 
L 636.075 -99.57809 
L 636.075 -96.787871 
L 636.075 -93.997652 
L 636.075 -91.207432 
L 636.075 -88.417213 
L 636.075 -85.626994 
L 636.075 -82.836775 
L 636.075 -80.046556 
L 636.075 -77.256337 
L 636.075 -74.466117 
L 636.075 -71.675898 
L 636.075 -68.885679 
z
" id="mb17b5c7771" style="stroke:#363636;"/>
    </defs>
    <g clip-path="url(#p0c10ab028e)">
     <use style="fill:#176d9c;stroke:#363636;" x="0" xlink:href="#mb17b5c7771" y="432"/>
    </g>
   </g>
   <g id="PolyCollection_8">
    <defs>
     <path d="M 644.895794 -68.996111 
L 636.075 -68.996111 
L 636.075 -71.7841 
L 636.075 -74.572088 
L 636.075 -77.360076 
L 636.075 -80.148064 
L 636.075 -82.936053 
L 636.075 -85.724041 
L 636.075 -88.512029 
L 636.075 -91.300017 
L 636.075 -94.088005 
L 636.075 -96.875994 
L 636.075 -99.663982 
L 636.075 -102.45197 
L 636.075 -105.239958 
L 636.075 -108.027947 
L 636.075 -110.815935 
L 636.075 -113.603923 
L 636.075 -116.391911 
L 636.075 -119.1799 
L 636.075 -121.967888 
L 636.075 -124.755876 
L 636.075 -127.543864 
L 636.075 -130.331853 
L 636.075 -133.119841 
L 636.075 -135.907829 
L 636.075 -138.695817 
L 636.075 -141.483805 
L 636.075 -144.271794 
L 636.075 -147.059782 
L 636.075 -149.84777 
L 636.075 -152.635758 
L 636.075 -155.423747 
L 636.075 -158.211735 
L 636.075 -160.999723 
L 636.075 -163.787711 
L 636.075 -166.5757 
L 636.075 -169.363688 
L 636.075 -172.151676 
L 636.075 -174.939664 
L 636.075 -177.727653 
L 636.075 -180.515641 
L 636.075 -183.303629 
L 636.075 -186.091617 
L 636.075 -188.879606 
L 636.075 -191.667594 
L 636.075 -194.455582 
L 636.075 -197.24357 
L 636.075 -200.031558 
L 636.075 -202.819547 
L 636.075 -205.607535 
L 636.075 -208.395523 
L 636.075 -211.183511 
L 636.075 -213.9715 
L 636.075 -216.759488 
L 636.075 -219.547476 
L 636.075 -222.335464 
L 636.075 -225.123453 
L 636.075 -227.911441 
L 636.075 -230.699429 
L 636.075 -233.487417 
L 636.075 -236.275406 
L 636.075 -239.063394 
L 636.075 -241.851382 
L 636.075 -244.63937 
L 636.075 -247.427359 
L 636.075 -250.215347 
L 636.075 -253.003335 
L 636.075 -255.791323 
L 636.075 -258.579311 
L 636.075 -261.3673 
L 636.075 -264.155288 
L 636.075 -266.943276 
L 636.075 -269.731264 
L 636.075 -272.519253 
L 636.075 -275.307241 
L 636.075 -278.095229 
L 636.075 -280.883217 
L 636.075 -283.671206 
L 636.075 -286.459194 
L 636.075 -289.247182 
L 636.075 -292.03517 
L 636.075 -294.823159 
L 636.075 -297.611147 
L 636.075 -300.399135 
L 636.075 -303.187123 
L 636.075 -305.975112 
L 636.075 -308.7631 
L 636.075 -311.551088 
L 636.075 -314.339076 
L 636.075 -317.127064 
L 636.075 -319.915053 
L 636.075 -322.703041 
L 636.075 -325.491029 
L 636.075 -328.279017 
L 636.075 -331.067006 
L 636.075 -333.854994 
L 636.075 -336.642982 
L 636.075 -339.43097 
L 636.075 -342.218959 
L 636.075 -345.006947 
L 641.944685 -345.006947 
L 641.944685 -345.006947 
L 643.522734 -342.218959 
L 645.156447 -339.43097 
L 646.731122 -336.642982 
L 648.130148 -333.854994 
L 649.257923 -331.067006 
L 650.060905 -328.279017 
L 650.540526 -325.491029 
L 650.75328 -322.703041 
L 650.796681 -319.915053 
L 650.784036 -317.127064 
L 650.814701 -314.339076 
L 650.948304 -311.551088 
L 651.190556 -308.7631 
L 651.494836 -305.975112 
L 651.778906 -303.187123 
L 651.951385 -300.399135 
L 651.939787 -297.611147 
L 651.711845 -294.823159 
L 651.28442 -292.03517 
L 650.718565 -289.247182 
L 650.103677 -286.459194 
L 649.53662 -283.671206 
L 649.102401 -280.883217 
L 648.861331 -278.095229 
L 648.844591 -275.307241 
L 649.05699 -272.519253 
L 649.483837 -269.731264 
L 650.098799 -266.943276 
L 650.87109 -264.155288 
L 651.772181 -261.3673 
L 652.78308 -258.579311 
L 653.90246 -255.791323 
L 655.153891 -253.003335 
L 656.588538 -250.215347 
L 658.279388 -247.427359 
L 660.305153 -244.63937 
L 662.725879 -241.851382 
L 665.556339 -239.063394 
L 668.745548 -236.275406 
L 672.170073 -233.487417 
L 675.645144 -230.699429 
L 678.952154 -227.911441 
L 681.875896 -225.123453 
L 684.241573 -222.335464 
L 685.941546 -219.547476 
L 686.945143 -216.759488 
L 687.290628 -213.9715 
L 687.0647 -211.183511 
L 686.37913 -208.395523 
L 685.354291 -205.607535 
L 684.114943 -202.819547 
L 682.796397 -200.031558 
L 681.552444 -197.24357 
L 680.553984 -194.455582 
L 679.971057 -191.667594 
L 679.939691 -188.879606 
L 680.524582 -186.091617 
L 681.693754 -183.303629 
L 683.318685 -180.515641 
L 685.203395 -177.727653 
L 687.133249 -174.939664 
L 688.925182 -172.151676 
L 690.460569 -169.363688 
L 691.690401 -166.5757 
L 692.615528 -163.787711 
L 693.25552 -160.999723 
L 693.622734 -158.211735 
L 693.712364 -155.423747 
L 693.508594 -152.635758 
L 692.997915 -149.84777 
L 692.178435 -147.059782 
L 691.059239 -144.271794 
L 689.652632 -141.483805 
L 687.968441 -138.695817 
L 686.019105 -135.907829 
L 683.837301 -133.119841 
L 681.498585 -130.331853 
L 679.135847 -127.543864 
L 676.93398 -124.755876 
L 675.101403 -121.967888 
L 673.825643 -119.1799 
L 673.227412 -116.391911 
L 673.328106 -113.603923 
L 674.039658 -110.815935 
L 675.17693 -108.027947 
L 676.485823 -105.239958 
L 677.67805 -102.45197 
L 678.465717 -99.663982 
L 678.592974 -96.875994 
L 677.864634 -94.088005 
L 676.171343 -91.300017 
L 673.508205 -88.512029 
L 669.981465 -85.724041 
L 665.79816 -82.936053 
L 661.23741 -80.148064 
L 656.60777 -77.360076 
L 652.200007 -74.572088 
L 648.246449 -71.7841 
L 644.895794 -68.996111 
z
" id="mf09eccfe18" style="stroke:#363636;"/>
    </defs>
    <g clip-path="url(#p0c10ab028e)">
     <use style="fill:#c38820;stroke:#363636;" x="0" xlink:href="#mf09eccfe18" y="432"/>
    </g>
   </g>
   <g id="patch_3">
    <path clip-path="url(#p0c10ab028e)" d="M 175.725 424.531757 
L 175.725 424.531757 
L 175.725 424.531757 
L 175.725 424.531757 
z
" style="fill:#176d9c;stroke:#363636;stroke-linejoin:miter;stroke-width:0.5;"/>
   </g>
   <g id="patch_4">
    <path clip-path="url(#p0c10ab028e)" d="M 175.725 424.531757 
L 175.725 424.531757 
L 175.725 424.531757 
L 175.725 424.531757 
z
" style="fill:#c38820;stroke:#363636;stroke-linejoin:miter;stroke-width:0.5;"/>
   </g>
   <g id="line2d_6">
    <path clip-path="url(#p0c10ab028e)" d="M 118.891678 282.221832 
L 175.725 282.221832 
" style="fill:none;stroke:#363636;stroke-dasharray:1.5,1.5;stroke-dashoffset:0;"/>
   </g>
   <g id="line2d_7">
    <path clip-path="url(#p0c10ab028e)" d="M 127.124385 256.232974 
L 175.725 256.232974 
" style="fill:none;stroke:#363636;stroke-dasharray:3,3;stroke-dashoffset:0;"/>
   </g>
   <g id="line2d_8">
    <path clip-path="url(#p0c10ab028e)" d="M 123.314454 205.955113 
L 175.725 205.955113 
" style="fill:none;stroke:#363636;stroke-dasharray:1.5,1.5;stroke-dashoffset:0;"/>
   </g>
   <g id="line2d_9">
    <path clip-path="url(#p0c10ab028e)" d="M 175.725 301.748841 
L 232.281295 301.748841 
" style="fill:none;stroke:#363636;stroke-dasharray:1.5,1.5;stroke-dashoffset:0;"/>
   </g>
   <g id="line2d_10">
    <path clip-path="url(#p0c10ab028e)" d="M 175.725 261.625773 
L 227.37548 261.625773 
" style="fill:none;stroke:#363636;stroke-dasharray:3,3;stroke-dashoffset:0;"/>
   </g>
   <g id="line2d_11">
    <path clip-path="url(#p0c10ab028e)" d="M 175.725 214.424228 
L 222.637691 214.424228 
" style="fill:none;stroke:#363636;stroke-dasharray:1.5,1.5;stroke-dashoffset:0;"/>
   </g>
   <g id="line2d_12">
    <path clip-path="url(#p0c10ab028e)" d="M 274.492988 279.307967 
L 329.175 279.307967 
" style="fill:none;stroke:#363636;stroke-dasharray:1.5,1.5;stroke-dashoffset:0;"/>
   </g>
   <g id="line2d_13">
    <path clip-path="url(#p0c10ab028e)" d="M 289.465841 234.597801 
L 329.175 234.597801 
" style="fill:none;stroke:#363636;stroke-dasharray:3,3;stroke-dashoffset:0;"/>
   </g>
   <g id="line2d_14">
    <path clip-path="url(#p0c10ab028e)" d="M 287.254263 198.695176 
L 329.175 198.695176 
" style="fill:none;stroke:#363636;stroke-dasharray:1.5,1.5;stroke-dashoffset:0;"/>
   </g>
   <g id="line2d_15">
    <path clip-path="url(#p0c10ab028e)" d="M 329.175 296.639559 
L 373.557433 296.639559 
" style="fill:none;stroke:#363636;stroke-dasharray:1.5,1.5;stroke-dashoffset:0;"/>
   </g>
   <g id="line2d_16">
    <path clip-path="url(#p0c10ab028e)" d="M 329.175 258.272785 
L 376.460776 258.272785 
" style="fill:none;stroke:#363636;stroke-dasharray:3,3;stroke-dashoffset:0;"/>
   </g>
   <g id="line2d_17">
    <path clip-path="url(#p0c10ab028e)" d="M 329.175 207.51961 
L 374.371313 207.51961 
" style="fill:none;stroke:#363636;stroke-dasharray:1.5,1.5;stroke-dashoffset:0;"/>
   </g>
   <g id="line2d_18">
    <path clip-path="url(#p0c10ab028e)" d="M 428.397918 279.689642 
L 482.625 279.689642 
" style="fill:none;stroke:#363636;stroke-dasharray:1.5,1.5;stroke-dashoffset:0;"/>
   </g>
   <g id="line2d_19">
    <path clip-path="url(#p0c10ab028e)" d="M 443.609189 234.878816 
L 482.625 234.878816 
" style="fill:none;stroke:#363636;stroke-dasharray:3,3;stroke-dashoffset:0;"/>
   </g>
   <g id="line2d_20">
    <path clip-path="url(#p0c10ab028e)" d="M 448.463349 199.513152 
L 482.625 199.513152 
" style="fill:none;stroke:#363636;stroke-dasharray:1.5,1.5;stroke-dashoffset:0;"/>
   </g>
   <g id="line2d_21">
    <path clip-path="url(#p0c10ab028e)" d="M 482.625 279.307967 
L 542.268264 279.307967 
" style="fill:none;stroke:#363636;stroke-dasharray:1.5,1.5;stroke-dashoffset:0;"/>
   </g>
   <g id="line2d_22">
    <path clip-path="url(#p0c10ab028e)" d="M 482.625 234.878816 
L 524.81415 234.878816 
" style="fill:none;stroke:#363636;stroke-dasharray:3,3;stroke-dashoffset:0;"/>
   </g>
   <g id="line2d_23">
    <path clip-path="url(#p0c10ab028e)" d="M 482.625 198.695176 
L 518.868369 198.695176 
" style="fill:none;stroke:#363636;stroke-dasharray:1.5,1.5;stroke-dashoffset:0;"/>
   </g>
   <g id="line2d_24">
    <path clip-path="url(#p0c10ab028e)" d="M 589.55997 296.639559 
L 636.075 296.639559 
" style="fill:none;stroke:#363636;stroke-dasharray:1.5,1.5;stroke-dashoffset:0;"/>
   </g>
   <g id="line2d_25">
    <path clip-path="url(#p0c10ab028e)" d="M 588.895692 257.986021 
L 636.075 257.986021 
" style="fill:none;stroke:#363636;stroke-dasharray:3,3;stroke-dashoffset:0;"/>
   </g>
   <g id="line2d_26">
    <path clip-path="url(#p0c10ab028e)" d="M 588.513892 205.955113 
L 636.075 205.955113 
" style="fill:none;stroke:#363636;stroke-dasharray:1.5,1.5;stroke-dashoffset:0;"/>
   </g>
   <g id="line2d_27">
    <path clip-path="url(#p0c10ab028e)" d="M 636.075 297.040846 
L 685.519664 297.040846 
" style="fill:none;stroke:#363636;stroke-dasharray:1.5,1.5;stroke-dashoffset:0;"/>
   </g>
   <g id="line2d_28">
    <path clip-path="url(#p0c10ab028e)" d="M 636.075 258.272785 
L 686.622666 258.272785 
" style="fill:none;stroke:#363636;stroke-dasharray:3,3;stroke-dashoffset:0;"/>
   </g>
   <g id="line2d_29">
    <path clip-path="url(#p0c10ab028e)" d="M 636.075 211.623327 
L 685.44288 211.623327 
" style="fill:none;stroke:#363636;stroke-dasharray:1.5,1.5;stroke-dashoffset:0;"/>
   </g>
   <g id="legend_1">
    <g id="patch_5">
     <path d="M 649.721875 108.234062 
L 705.1 108.234062 
Q 707.3 108.234062 707.3 106.034063 
L 707.3 59.54 
Q 707.3 57.34 705.1 57.34 
L 649.721875 57.34 
Q 647.521875 57.34 647.521875 59.54 
L 647.521875 106.034063 
Q 647.521875 108.234062 649.721875 108.234062 
z
" style="fill:#ffffff;opacity:0.8;stroke:#cccccc;stroke-linejoin:miter;"/>
    </g>
    <g id="text_12">
     <!-- inv_occ -->
     <g style="fill:#262626;" transform="translate(657.068125 70.329375)scale(0.12 -0.12)">
      <defs>
       <path d="M 6.640625 61.46875 
L 6.640625 71.578125 
L 15.4375 71.578125 
L 15.4375 61.46875 
z
M 6.640625 0 
L 6.640625 51.859375 
L 15.4375 51.859375 
L 15.4375 0 
z
" id="ArialMT-105"/>
       <path d="M 6.59375 0 
L 6.59375 51.859375 
L 14.5 51.859375 
L 14.5 44.484375 
Q 20.21875 53.03125 31 53.03125 
Q 35.6875 53.03125 39.625 51.34375 
Q 43.5625 49.65625 45.515625 46.921875 
Q 47.46875 44.1875 48.25 40.4375 
Q 48.734375 37.984375 48.734375 31.890625 
L 48.734375 0 
L 39.9375 0 
L 39.9375 31.546875 
Q 39.9375 36.921875 38.90625 39.578125 
Q 37.890625 42.234375 35.28125 43.8125 
Q 32.671875 45.40625 29.15625 45.40625 
Q 23.53125 45.40625 19.453125 41.84375 
Q 15.375 38.28125 15.375 28.328125 
L 15.375 0 
z
" id="ArialMT-110"/>
       <path d="M 40.4375 19 
L 49.078125 17.875 
Q 47.65625 8.9375 41.8125 3.875 
Q 35.984375 -1.171875 27.484375 -1.171875 
Q 16.84375 -1.171875 10.375 5.78125 
Q 3.90625 12.75 3.90625 25.734375 
Q 3.90625 34.125 6.6875 40.421875 
Q 9.46875 46.734375 15.15625 49.875 
Q 20.84375 53.03125 27.546875 53.03125 
Q 35.984375 53.03125 41.359375 48.75 
Q 46.734375 44.484375 48.25 36.625 
L 39.703125 35.296875 
Q 38.484375 40.53125 35.375 43.15625 
Q 32.28125 45.796875 27.875 45.796875 
Q 21.234375 45.796875 17.078125 41.03125 
Q 12.9375 36.28125 12.9375 25.984375 
Q 12.9375 15.53125 16.9375 10.796875 
Q 20.953125 6.0625 27.390625 6.0625 
Q 32.5625 6.0625 36.03125 9.234375 
Q 39.5 12.40625 40.4375 19 
z
" id="ArialMT-99"/>
      </defs>
      <use xlink:href="#ArialMT-105"/>
      <use x="22.216797" xlink:href="#ArialMT-110"/>
      <use x="77.832031" xlink:href="#ArialMT-118"/>
      <use x="127.832031" xlink:href="#ArialMT-95"/>
      <use x="183.447266" xlink:href="#ArialMT-111"/>
      <use x="239.0625" xlink:href="#ArialMT-99"/>
      <use x="289.0625" xlink:href="#ArialMT-99"/>
     </g>
    </g>
    <g id="patch_6">
     <path d="M 651.921875 86.087969 
L 673.921875 86.087969 
L 673.921875 78.387969 
L 651.921875 78.387969 
z
" style="fill:#176d9c;stroke:#363636;stroke-linejoin:miter;stroke-width:0.5;"/>
    </g>
    <g id="text_13">
     <!-- inv -->
     <g style="fill:#262626;" transform="translate(682.721875 86.087969)scale(0.11 -0.11)">
      <use xlink:href="#ArialMT-105"/>
      <use x="22.216797" xlink:href="#ArialMT-110"/>
      <use x="77.832031" xlink:href="#ArialMT-118"/>
     </g>
    </g>
    <g id="patch_7">
     <path d="M 651.921875 101.647812 
L 673.921875 101.647812 
L 673.921875 93.947812 
L 651.921875 93.947812 
z
" style="fill:#c38820;stroke:#363636;stroke-linejoin:miter;stroke-width:0.5;"/>
    </g>
    <g id="text_14">
     <!-- own -->
     <g style="fill:#262626;" transform="translate(682.721875 101.647812)scale(0.11 -0.11)">
      <defs>
       <path d="M 16.15625 0 
L 0.296875 51.859375 
L 9.375 51.859375 
L 17.625 21.921875 
L 20.703125 10.796875 
Q 20.90625 11.625 23.390625 21.484375 
L 31.640625 51.859375 
L 40.671875 51.859375 
L 48.4375 21.78125 
L 51.03125 11.859375 
L 54 21.875 
L 62.890625 51.859375 
L 71.4375 51.859375 
L 55.21875 0 
L 46.09375 0 
L 37.84375 31.0625 
L 35.84375 39.890625 
L 25.34375 0 
z
" id="ArialMT-119"/>
      </defs>
      <use xlink:href="#ArialMT-111"/>
      <use x="55.615234" xlink:href="#ArialMT-119"/>
      <use x="127.832031" xlink:href="#ArialMT-110"/>
     </g>
    </g>
   </g>
  </g>
 </g>
 <defs>
  <clipPath id="p0c10ab028e">
   <rect height="326.16" width="613.8" x="99" y="51.84"/>
  </clipPath>
 </defs>
</svg>
